<svg width="120" height="40" viewBox="0 0 120 40" fill="none" xmlns="http://www.w3.org/2000/svg">
<g clip-path="url(#clip0_864_1448)">
<path d="M110.448 0.00013H9.56535C9.19762 0.00013 8.83431 0.00013 8.46755 0.00213C8.16054 0.00413 7.85598 0.00994 7.54602 0.01483C6.87265 0.0227318 6.20086 0.0818063 5.53649 0.19154C4.87306 0.303663 4.23041 0.515046 3.63028 0.81854C3.03088 1.1246 2.48319 1.5223 2.00708 1.9972C1.52848 2.47077 1.12952 3.01815 0.825556 3.61829C0.520753 4.21724 0.309402 4.85907 0.198802 5.52161C0.0871502 6.18332 0.0270695 6.85265 0.0190988 7.52361C0.00979273 7.83021 0.00880998 8.13783 0.00390625 8.44447V31.5587C0.00880998 31.8692 0.00979273 32.17 0.0190988 32.4806C0.0270719 33.1516 0.0871527 33.8209 0.198802 34.4825C0.309097 35.1455 0.52046 35.7877 0.825556 36.3868C1.12938 36.985 1.52839 37.5302 2.00708 38.0011C2.48139 38.4781 3.02943 38.8761 3.63028 39.1798C4.23041 39.4841 4.87299 39.6968 5.53649 39.8106C6.20097 39.9195 6.87269 39.9786 7.54602 39.9874C7.85598 39.9942 8.16054 39.9981 8.46755 39.9981C8.8343 40.0001 9.19764 40.0001 9.56535 40.0001H110.448C110.808 40.0001 111.174 40.0001 111.535 39.9981C111.84 39.9981 112.154 39.9942 112.459 39.9874C113.131 39.9791 113.802 39.92 114.465 39.8106C115.131 39.696 115.776 39.4834 116.379 39.1798C116.979 38.8759 117.526 38.478 118 38.0011C118.478 37.5284 118.878 36.9836 119.185 36.3868C119.488 35.7872 119.697 35.1451 119.806 34.4825C119.918 33.8208 119.98 33.1516 119.992 32.4806C119.996 32.17 119.996 31.8692 119.996 31.5587C120.004 31.1954 120.004 30.8341 120.004 30.4649V9.53626C120.004 9.17005 120.004 8.80677 119.996 8.44447C119.996 8.13783 119.996 7.83021 119.992 7.52357C119.98 6.85255 119.918 6.18337 119.806 5.52157C119.697 4.85941 119.488 4.21763 119.185 3.61825C118.566 2.41533 117.585 1.43616 116.379 0.81845C115.776 0.515697 115.131 0.30437 114.465 0.19145C113.802 0.0812328 113.131 0.0221378 112.459 0.01469C112.154 0.00981 111.84 0.00395 111.535 0.002C111.174 0 110.808 0.00013 110.448 0.00013Z" fill="white"/>
<path d="M8.47198 39.125C8.16645 39.125 7.86829 39.1211 7.56515 39.1143C6.93718 39.1061 6.31067 39.0516 5.69077 38.9512C5.11274 38.8519 4.55279 38.6673 4.02938 38.4033C3.51077 38.1415 3.03775 37.7983 2.62845 37.3867C2.21323 36.98 1.86754 36.5082 1.60508 35.9902C1.33973 35.4688 1.15609 34.9099 1.06055 34.333C0.95739 33.7131 0.901574 33.0863 0.893587 32.458C0.88723 32.2471 0.878906 31.5449 0.878906 31.5449V8.44434C0.878906 8.44434 0.887771 7.75293 0.893638 7.5498C0.901285 6.92248 0.956776 6.29665 1.05963 5.67773C1.15534 5.09925 1.33912 4.53875 1.60462 4.01563C1.86611 3.49794 2.20989 3.02586 2.62261 2.61768C3.03486 2.20562 3.50939 1.8606 4.02888 1.59521C4.55109 1.33209 5.10999 1.14873 5.68685 1.05127C6.30878 0.949836 6.93747 0.894996 7.56762 0.88721L8.47247 0.875H111.53L112.445 0.8877C113.07 0.895099 113.693 0.94945 114.309 1.05029C114.892 1.14898 115.456 1.33362 115.984 1.59814C117.025 2.13299 117.872 2.97916 118.406 4.01807C118.667 4.53758 118.848 5.09351 118.943 5.66699C119.047 6.29099 119.105 6.92174 119.117 7.5542C119.12 7.8374 119.12 8.1416 119.12 8.44434C119.128 8.81934 119.128 9.17627 119.128 9.53613V30.4648C119.128 30.8281 119.128 31.1826 119.12 31.54C119.12 31.8652 119.12 32.1631 119.116 32.4697C119.104 33.0909 119.047 33.7104 118.945 34.3232C118.851 34.9043 118.669 35.4675 118.403 35.9932C118.139 36.5056 117.795 36.9733 117.385 37.3789C116.975 37.7927 116.501 38.1379 115.981 38.4014C115.455 38.6674 114.891 38.8527 114.309 38.9512C113.689 39.0522 113.062 39.1067 112.434 39.1143C112.141 39.1211 111.833 39.125 111.534 39.125L110.447 39.127L8.47198 39.125Z" fill="white"/>
<path d="M24.8428 20.3006C24.8535 19.4659 25.0759 18.6475 25.4891 17.9216C25.9022 17.1956 26.4928 16.5857 27.2059 16.1485C26.7529 15.5034 26.1553 14.9724 25.4605 14.5979C24.7658 14.2233 23.993 14.0155 23.2036 13.9908C21.5196 13.8146 19.8871 14.9957 19.029 14.9957C18.1543 14.9957 16.8331 14.0083 15.4104 14.0375C14.4901 14.0672 13.5932 14.334 12.8072 14.8121C12.0211 15.2901 11.3726 15.9631 10.9249 16.7654C8.98545 20.1138 10.4321 25.0349 12.2899 27.7415C13.2194 29.0668 14.3057 30.5473 15.7272 30.4948C17.1181 30.4372 17.6376 29.6103 19.3166 29.6103C20.98 29.6103 21.4674 30.4948 22.9177 30.4614C24.4102 30.4372 25.3506 29.1302 26.2475 27.7923C26.9154 26.8479 27.4293 25.8042 27.7702 24.6997C26.9031 24.334 26.1631 23.7218 25.6425 22.9395C25.1219 22.1572 24.8438 21.2394 24.8428 20.3006Z" fill="black"/>
<path d="M22.1033 12.2108C22.9171 11.2366 23.3181 9.98445 23.221 8.72021C21.9777 8.85044 20.8292 9.44299 20.0044 10.3798C19.6011 10.8375 19.2923 11.3699 19.0955 11.9467C18.8987 12.5235 18.8178 13.1333 18.8575 13.7412C19.4794 13.7476 20.0946 13.6132 20.6568 13.3481C21.219 13.083 21.7136 12.6942 22.1033 12.2108Z" fill="black"/>
<path d="M42.4245 27.1397H37.6778L36.5379 30.4961H34.5273L39.0233 18.0781H41.1122L45.6082 30.4961H43.5634L42.4245 27.1397ZM38.1694 25.5908H41.9319L40.0771 20.1436H40.0252L38.1694 25.5908Z" fill="black"/>
<path d="M55.3179 25.9697C55.3179 28.7832 53.8078 30.5908 51.529 30.5908C50.9517 30.6209 50.3776 30.4883 49.8724 30.2082C49.3672 29.928 48.9513 29.5117 48.6724 29.0068H48.6292V33.4912H46.7656V21.4423H48.5695V22.9482H48.6038C48.8956 22.4457 49.3185 22.0316 49.8275 21.7497C50.3366 21.4679 50.9128 21.3289 51.4947 21.3476C53.799 21.3476 55.3179 23.164 55.3179 25.9697ZM53.4024 25.9697C53.4024 24.1367 52.4525 22.9316 51.0031 22.9316C49.5792 22.9316 48.6214 24.1621 48.6214 25.9697C48.6214 27.7939 49.5792 29.0156 51.0031 29.0156C52.4525 29.0156 53.4024 27.8193 53.4024 25.9697Z" fill="black"/>
<path d="M65.3101 25.9697C65.3101 28.7832 63.8 30.5908 61.5212 30.5908C60.9439 30.6209 60.3698 30.4883 59.8646 30.2081C59.3594 29.928 58.9435 29.5117 58.6646 29.0068H58.6214V33.4912H56.7578V21.4423H58.5617V22.9482H58.596C58.8877 22.4457 59.3106 22.0315 59.8197 21.7497C60.3288 21.4679 60.9049 21.3289 61.4869 21.3476C63.7912 21.3476 65.3101 23.164 65.3101 25.9697ZM63.3946 25.9697C63.3946 24.1367 62.4447 22.9316 60.9953 22.9316C59.5714 22.9316 58.6136 24.1621 58.6136 25.9697C58.6136 27.7939 59.5714 29.0156 60.9953 29.0156C62.4447 29.0156 63.3946 27.8193 63.3946 25.9697Z" fill="black"/>
<path d="M71.9155 27.0362C72.0536 28.2676 73.2533 29.0762 74.8926 29.0762C76.4634 29.0762 77.5935 28.2676 77.5935 27.1572C77.5935 26.1934 76.9119 25.6162 75.298 25.2207L73.6842 24.833C71.3975 24.2822 70.3359 23.2158 70.3359 21.4854C70.3359 19.3428 72.2083 17.8711 74.8671 17.8711C77.4985 17.8711 79.3024 19.3428 79.3631 21.4854H77.4819C77.3693 20.2461 76.342 19.4981 74.8407 19.4981C73.3394 19.4981 72.3121 20.2549 72.3121 21.3565C72.3121 22.2344 72.9683 22.751 74.5733 23.1465L75.9453 23.4824C78.5003 24.0849 79.5619 25.1084 79.5619 26.9248C79.5619 29.248 77.7061 30.7031 74.7545 30.7031C71.9929 30.7031 70.1283 29.2822 70.0078 27.0361L71.9155 27.0362Z" fill="black"/>
<path d="M83.5831 19.2998V21.4424H85.3097V22.9141H83.5831V27.9053C83.5831 28.6807 83.9288 29.042 84.6878 29.042C84.8928 29.0384 85.0974 29.0241 85.3008 28.999V30.4619C84.9596 30.5255 84.6128 30.5543 84.2657 30.5478C82.4276 30.5478 81.7107 29.8593 81.7107 28.1035V22.9141H80.3906V21.4424H81.7107V19.2998H83.5831Z" fill="black"/>
<path d="M86.3105 25.9697C86.3105 23.1211 87.993 21.3311 90.6165 21.3311C93.2489 21.3311 94.9235 23.1211 94.9235 25.9697C94.9235 28.8262 93.2577 30.6084 90.6165 30.6084C87.9763 30.6084 86.3105 28.8262 86.3105 25.9697ZM93.0246 25.9697C93.0246 24.0156 92.1266 22.8623 90.6165 22.8623C89.1065 22.8623 88.2094 24.0244 88.2094 25.9697C88.2094 27.9316 89.1065 29.0762 90.6165 29.0762C92.1266 29.0762 93.0246 27.9316 93.0246 25.9697Z" fill="black"/>
<path d="M96.459 21.4425H98.2364V22.9835H98.2795C98.3998 22.5022 98.6826 22.0769 99.0803 21.779C99.478 21.4811 99.9664 21.3288 100.463 21.3478C100.678 21.347 100.892 21.3703 101.102 21.4171V23.1554C100.831 23.0728 100.548 23.0348 100.265 23.0431C99.9938 23.0321 99.7239 23.0797 99.4734 23.1826C99.2228 23.2855 98.9976 23.4412 98.8131 23.6391C98.6286 23.837 98.4892 24.0724 98.4046 24.3291C98.3199 24.5857 98.2919 24.8576 98.3226 25.1261V30.4962H96.459L96.459 21.4425Z" fill="black"/>
<path d="M109.694 27.8369C109.443 29.4805 107.838 30.6084 105.784 30.6084C103.143 30.6084 101.504 28.8437 101.504 26.0127C101.504 23.1729 103.152 21.3311 105.706 21.3311C108.218 21.3311 109.798 23.0518 109.798 25.7969V26.4336H103.385V26.5459C103.356 26.8791 103.397 27.2148 103.508 27.5306C103.618 27.8464 103.795 28.1352 104.026 28.3778C104.257 28.6203 104.537 28.8111 104.848 28.9374C105.158 29.0637 105.492 29.1226 105.828 29.1103C106.268 29.1515 106.71 29.0498 107.088 28.8203C107.465 28.5909 107.759 28.246 107.924 27.8369L109.694 27.8369ZM103.394 25.1348H107.933C107.95 24.8352 107.904 24.5354 107.799 24.2541C107.694 23.9729 107.532 23.7164 107.323 23.5006C107.114 23.2849 106.862 23.1145 106.584 23.0003C106.306 22.8861 106.007 22.8305 105.706 22.8369C105.403 22.8351 105.102 22.8933 104.821 23.008C104.54 23.1227 104.285 23.2918 104.07 23.5054C103.855 23.7191 103.685 23.973 103.569 24.2527C103.453 24.5323 103.393 24.8321 103.394 25.1348Z" fill="black"/>
<path d="M37.9367 8.73089C38.3274 8.70293 38.7195 8.76179 39.0846 8.90323C39.4497 9.04466 39.7789 9.26514 40.0482 9.54876C40.3175 9.83239 40.5204 10.1721 40.6421 10.5434C40.7639 10.9146 40.8015 11.3082 40.7522 11.6957C40.7522 13.602 39.7191 14.6977 37.9367 14.6977H35.7754V8.73089H37.9367ZM36.7047 13.8539H37.8329C38.1121 13.8705 38.3915 13.8249 38.6507 13.7203C38.91 13.6157 39.1426 13.4547 39.3316 13.2491C39.5207 13.0436 39.6613 12.7986 39.7434 12.532C39.8255 12.2653 39.847 11.9838 39.8062 11.7079C39.844 11.4331 39.8204 11.1533 39.737 10.8886C39.6537 10.624 39.5127 10.381 39.3241 10.177C39.1355 9.9731 38.904 9.81329 38.6462 9.70905C38.3884 9.60481 38.1107 9.55873 37.8329 9.5741H36.7047V13.8539Z" fill="black"/>
<path d="M41.8011 12.4443C41.7727 12.1484 41.8066 11.8498 41.9008 11.5677C41.9949 11.2857 42.147 11.0263 42.3475 10.8063C42.548 10.5864 42.7924 10.4106 43.0651 10.2903C43.3377 10.17 43.6325 10.1079 43.9306 10.1079C44.2287 10.1079 44.5235 10.17 44.7961 10.2903C45.0687 10.4106 45.3131 10.5864 45.5136 10.8063C45.7141 11.0263 45.8663 11.2857 45.9604 11.5677C46.0545 11.8498 46.0885 12.1484 46.0601 12.4443C46.089 12.7405 46.0555 13.0395 45.9616 13.322C45.8678 13.6045 45.7157 13.8644 45.5151 14.0848C45.3146 14.3052 45.07 14.4813 44.7971 14.6019C44.5242 14.7224 44.229 14.7847 43.9306 14.7847C43.6321 14.7847 43.337 14.7224 43.0641 14.6019C42.7912 14.4813 42.5466 14.3052 42.3461 14.0848C42.1455 13.8644 41.9934 13.6045 41.8996 13.322C41.8057 13.0395 41.7722 12.7405 41.8011 12.4443ZM45.1434 12.4443C45.1434 11.4682 44.7037 10.8974 43.9321 10.8974C43.1574 10.8974 42.7217 11.4682 42.7217 12.4443C42.7217 13.4282 43.1575 13.9946 43.9321 13.9946C44.7038 13.9946 45.1434 13.4243 45.1434 12.4443Z" fill="black"/>
<path d="M51.723 14.6978H50.7986L49.8653 11.3813H49.7948L48.8654 14.6978H47.9498L46.7051 10.1948H47.609L48.4179 13.6308H48.4845L49.4129 10.1948H50.2678L51.1962 13.6308H51.2667L52.0717 10.1948H52.9628L51.723 14.6978Z" fill="black"/>
<path d="M54.0098 10.1949H54.8676V10.9102H54.9342C55.0472 10.6533 55.2377 10.4379 55.4793 10.2941C55.7208 10.1503 56.0014 10.0852 56.2818 10.1079C56.5015 10.0915 56.7221 10.1245 56.9273 10.2046C57.1324 10.2847 57.3169 10.4098 57.467 10.5707C57.6171 10.7315 57.729 10.924 57.7944 11.1338C57.8598 11.3436 57.877 11.5654 57.8447 11.7827V14.6977H56.9536V12.0059C56.9536 11.2823 56.6382 10.9224 55.9791 10.9224C55.83 10.9155 55.6811 10.9408 55.5426 10.9966C55.4042 11.0525 55.2795 11.1375 55.1771 11.2459C55.0746 11.3543 54.9969 11.4834 54.9493 11.6246C54.9016 11.7657 54.8851 11.9154 54.9009 12.0635V14.6978H54.0098L54.0098 10.1949Z" fill="black"/>
<path d="M59.2637 8.43701H60.1548V14.6978H59.2637V8.43701Z" fill="black"/>
<path d="M61.3948 12.4444C61.3664 12.1484 61.4004 11.8499 61.4945 11.5678C61.5887 11.2857 61.7409 11.0263 61.9414 10.8064C62.1419 10.5864 62.3863 10.4106 62.659 10.2903C62.9316 10.17 63.2264 10.1079 63.5246 10.1079C63.8227 10.1079 64.1175 10.17 64.3901 10.2903C64.6628 10.4106 64.9072 10.5864 65.1077 10.8064C65.3082 11.0263 65.4604 11.2857 65.5546 11.5678C65.6487 11.8499 65.6827 12.1484 65.6543 12.4444C65.6832 12.7406 65.6496 13.0396 65.5557 13.3221C65.4618 13.6046 65.3097 13.8645 65.1092 14.0849C64.9086 14.3053 64.664 14.4814 64.3911 14.6019C64.1182 14.7225 63.823 14.7847 63.5246 14.7847C63.2261 14.7847 62.9309 14.7225 62.658 14.6019C62.3851 14.4814 62.1405 14.3053 61.94 14.0849C61.7394 13.8645 61.5873 13.6046 61.4934 13.3221C61.3995 13.0396 61.3659 12.7406 61.3948 12.4444ZM64.7372 12.4444C64.7372 11.4683 64.2975 10.8975 63.5258 10.8975C62.7512 10.8975 62.3154 11.4683 62.3154 12.4444C62.3154 13.4283 62.7512 13.9947 63.5258 13.9947C64.2975 13.9947 64.7372 13.4244 64.7372 12.4444Z" fill="black"/>
<path d="M66.5918 13.4243C66.5918 12.6138 67.197 12.1465 68.2713 12.0801L69.4945 12.0098V11.6211C69.4945 11.1455 69.1791 10.877 68.57 10.877C68.0725 10.877 67.7278 11.0591 67.6289 11.3774H66.7661C66.8572 10.604 67.5868 10.1079 68.6111 10.1079C69.7432 10.1079 70.3817 10.6699 70.3817 11.6211V14.6978H69.5238V14.0649H69.4533C69.3102 14.2919 69.1092 14.477 68.871 14.6012C68.6327 14.7254 68.3656 14.7843 68.097 14.7719C67.9074 14.7916 67.7158 14.7714 67.5346 14.7127C67.3533 14.654 67.1864 14.5581 67.0446 14.4311C66.9027 14.3042 66.7892 14.149 66.7112 13.9756C66.6332 13.8021 66.5925 13.6144 66.5918 13.4243ZM69.4945 13.0395V12.6631L68.3918 12.7334C67.7699 12.7749 67.4879 12.9858 67.4879 13.3828C67.4879 13.7881 67.8404 14.0239 68.3252 14.0239C68.4672 14.0382 68.6107 14.0239 68.7471 13.9819C68.8835 13.9398 69.01 13.8707 69.1191 13.7789C69.2282 13.6871 69.3176 13.5743 69.3821 13.4473C69.4466 13.3202 69.4848 13.1816 69.4945 13.0395Z" fill="black"/>
<path d="M71.5527 12.4444C71.5527 11.0215 72.2862 10.1201 73.4271 10.1201C73.7093 10.1072 73.9894 10.1746 74.2346 10.3145C74.4798 10.4544 74.68 10.661 74.8119 10.9101H74.8785V8.43701H75.7696V14.6978H74.9157V13.9863H74.8452C74.7032 14.2338 74.496 14.4378 74.246 14.5763C73.9961 14.7148 73.7129 14.7825 73.4271 14.772C72.2784 14.772 71.5527 13.8706 71.5527 12.4444ZM72.4733 12.4444C72.4733 13.3994 72.9248 13.9741 73.6798 13.9741C74.4309 13.9741 74.8951 13.3911 74.8951 12.4483C74.8951 11.5098 74.4261 10.9185 73.6798 10.9185C72.9296 10.9185 72.4733 11.4971 72.4733 12.4444Z" fill="black"/>
<path d="M79.4573 12.4443C79.429 12.1484 79.4629 11.8498 79.557 11.5677C79.6511 11.2857 79.8033 11.0263 80.0038 10.8063C80.2043 10.5864 80.4487 10.4106 80.7213 10.2903C80.9939 10.17 81.2887 10.1079 81.5868 10.1079C81.8849 10.1079 82.1798 10.17 82.4524 10.2903C82.725 10.4106 82.9694 10.5864 83.1699 10.8063C83.3704 11.0263 83.5226 11.2857 83.6167 11.5677C83.7108 11.8498 83.7447 12.1484 83.7163 12.4443C83.7453 12.7405 83.7117 13.0395 83.6179 13.322C83.524 13.6045 83.3719 13.8644 83.1714 14.0848C82.9708 14.3052 82.7262 14.4813 82.4533 14.6019C82.1804 14.7224 81.8853 14.7847 81.5868 14.7847C81.2884 14.7847 80.9932 14.7224 80.7203 14.6019C80.4474 14.4813 80.2029 14.3052 80.0023 14.0848C79.8018 13.8644 79.6497 13.6045 79.5558 13.322C79.462 13.0395 79.4284 12.7405 79.4573 12.4443ZM82.7997 12.4443C82.7997 11.4682 82.36 10.8974 81.5883 10.8974C80.8137 10.8974 80.3779 11.4682 80.3779 12.4443C80.3779 13.4282 80.8137 13.9946 81.5883 13.9946C82.36 13.9946 82.7997 13.4243 82.7997 12.4443Z" fill="black"/>
<path d="M84.9121 10.1949H85.77V10.9102H85.8366C85.9496 10.6533 86.1401 10.4379 86.3816 10.2941C86.6232 10.1503 86.9037 10.0852 87.1841 10.1079C87.4038 10.0915 87.6244 10.1245 87.8296 10.2046C88.0348 10.2847 88.2192 10.4098 88.3694 10.5707C88.5195 10.7315 88.6313 10.924 88.6967 11.1338C88.7621 11.3436 88.7793 11.5654 88.7471 11.7827V14.6977H87.8559V12.0059C87.8559 11.2823 87.5406 10.9224 86.8815 10.9224C86.7323 10.9155 86.5834 10.9408 86.445 10.9966C86.3065 11.0525 86.1818 11.1375 86.0794 11.2459C85.977 11.3543 85.8993 11.4834 85.8516 11.6246C85.804 11.7657 85.7875 11.9154 85.8033 12.0635V14.6978H84.9121V10.1949Z" fill="black"/>
<path d="M93.7828 9.07373V10.2153H94.7612V10.9639H93.7828V13.2793C93.7828 13.751 93.9777 13.9575 94.4213 13.9575C94.5349 13.9572 94.6484 13.9503 94.7612 13.937V14.6772C94.6011 14.7058 94.439 14.721 94.2764 14.7226C93.2853 14.7226 92.8907 14.375 92.8907 13.5068V10.9638H92.1738V10.2153H92.8907V9.07373H93.7828Z" fill="black"/>
<path d="M95.9785 8.43701H96.8618V10.9185H96.9323C97.0508 10.6591 97.2466 10.4425 97.493 10.2982C97.7394 10.1539 98.0244 10.0888 98.3092 10.1118C98.5278 10.1 98.7463 10.1364 98.9491 10.2184C99.152 10.3004 99.3342 10.4261 99.4827 10.5864C99.6312 10.7468 99.7425 10.9378 99.8084 11.146C99.8744 11.3541 99.8935 11.5742 99.8643 11.7905V14.6978H98.9723V12.0098C98.9723 11.2905 98.6363 10.9263 98.0067 10.9263C97.8535 10.9137 97.6995 10.9347 97.5553 10.9878C97.4111 11.0408 97.2803 11.1247 97.172 11.2334C97.0637 11.3421 96.9805 11.4732 96.9283 11.6173C96.8761 11.7614 96.8561 11.9152 96.8697 12.0679V14.6977H95.9786L95.9785 8.43701Z" fill="black"/>
<path d="M105.06 13.482C104.939 13.8935 104.676 14.2495 104.319 14.4877C103.961 14.7258 103.531 14.831 103.103 14.7847C102.806 14.7926 102.51 14.7357 102.237 14.6182C101.964 14.5007 101.719 14.3253 101.521 14.1041C101.322 13.883 101.174 13.6214 101.088 13.3376C101.001 13.0538 100.977 12.7545 101.017 12.4605C100.978 12.1656 101.002 11.8657 101.089 11.581C101.176 11.2964 101.323 11.0336 101.52 10.8105C101.717 10.5874 101.961 10.4093 102.233 10.2881C102.506 10.1669 102.801 10.1054 103.099 10.108C104.356 10.108 105.114 10.964 105.114 12.378V12.6881H101.925V12.7379C101.911 12.9031 101.932 13.0695 101.986 13.2262C102.041 13.383 102.127 13.5267 102.24 13.6481C102.354 13.7696 102.491 13.8661 102.644 13.9315C102.797 13.9969 102.961 14.0297 103.128 14.0279C103.341 14.0534 103.557 14.0151 103.748 13.9179C103.939 13.8207 104.097 13.669 104.202 13.482L105.06 13.482ZM101.925 12.0308H104.206C104.217 11.8797 104.197 11.7279 104.145 11.5852C104.094 11.4425 104.014 11.312 103.909 11.2021C103.804 11.0923 103.678 11.0055 103.538 10.9473C103.397 10.8891 103.246 10.8609 103.094 10.8643C102.94 10.8624 102.787 10.8913 102.645 10.9492C102.502 11.0072 102.372 11.093 102.263 11.2017C102.154 11.3104 102.068 11.4398 102.01 11.5822C101.952 11.7246 101.923 11.8771 101.925 12.0308Z" fill="black"/>
<rect x="0.00390625" width="120" height="40" rx="6" fill="white" fill-opacity="0.22"/>
</g>
<defs>
<clipPath id="clip0_864_1448">
<rect width="120" height="40" fill="white" transform="translate(0.00390625)"/>
</clipPath>
</defs>
</svg>
