<svg width="756" height="755" viewBox="0 0 756 755" fill="none" xmlns="http://www.w3.org/2000/svg">
<g opacity="0.28">
<path d="M315.378 692.68C141.394 658.388 28.1525 489.547 62.4448 315.564C96.7372 141.581 265.578 28.3386 439.561 62.6309C613.545 96.9232 726.786 265.764 692.494 439.747C658.202 613.731 489.361 726.973 315.378 692.68Z" fill="#202433"/>
<g filter="url(#filter0_i_1541_1854)">
<path d="M65.4663 298.364C33.0772 462.691 148.268 624.639 322.439 658.968C496.611 693.298 664.49 587.93 697.028 422.845C706.73 373.623 703.11 324.135 689.21 278.914C655.765 173.199 562.733 86.4208 440.812 62.3901C310.562 36.7177 183.71 89.5969 114.199 186.819C90.375 219.884 73.5263 257.471 65.4663 298.364Z" fill="#4C5573"/>
</g>
<path d="M118.478 308.814C117.732 312.601 116.836 317.144 116.09 320.931L115.941 321.688C96.9345 454.039 191.442 581.229 331.536 608.842C472.388 636.604 607.334 554.639 639.971 424.975L640.12 424.218C640.866 420.431 641.762 415.888 642.508 412.101C669.524 275.036 574.088 140.582 428.693 111.925C284.662 84.3227 145.494 171.749 118.478 308.814Z" fill="#202433"/>
<g filter="url(#filter1_d_1541_1854)">
<path d="M116.082 320.929C96.9265 454.037 191.434 581.227 331.528 608.84C472.38 636.602 607.325 554.637 639.963 424.973L640.112 424.216C642.777 402.714 643.02 381.521 640.694 361.395C627.374 253.354 542.65 160.346 424.516 137.062C299.567 112.434 179.701 173.771 130.648 278.959C124.783 292.75 119.675 306.69 116.082 320.929Z" fill="url(#paint0_radial_1541_1854)"/>
</g>
<g filter="url(#filter2_ii_1541_1854)">
<path fill-rule="evenodd" clip-rule="evenodd" d="M433.189 197.007C530.621 228.615 583.981 333.223 552.373 430.655C520.765 528.087 416.158 581.448 318.726 549.84C221.294 518.232 167.933 413.624 199.541 316.192C231.149 218.76 335.757 165.399 433.189 197.007ZM561.909 433.749C595.226 331.05 538.981 220.788 436.282 187.471C333.584 154.155 223.322 210.4 190.005 313.098C156.688 415.797 212.933 526.059 315.632 559.376C418.331 592.692 528.593 536.447 561.909 433.749ZM427.935 213.215C459.62 223.494 487.546 242.938 508.181 269.088C528.816 295.239 541.233 326.921 543.862 360.128C546.49 393.335 539.213 426.576 522.95 455.648C506.687 484.719 482.168 508.315 452.494 523.452C422.821 538.588 389.325 544.586 356.243 540.686C323.161 536.786 291.978 523.163 266.639 501.541C241.299 479.919 222.939 451.268 213.883 419.211C204.826 387.155 205.478 353.133 215.758 321.447C229.585 278.989 259.69 243.749 299.467 223.458C339.244 203.168 385.445 199.484 427.935 213.215ZM328.94 518.367C357.608 527.667 388.39 528.258 417.393 520.063C446.396 511.869 472.319 495.258 491.882 472.332C511.445 449.405 523.77 421.192 527.298 391.261C530.827 361.329 525.401 331.024 511.706 304.176C498.011 277.329 476.662 255.145 450.359 240.431C424.057 225.717 393.982 219.133 363.937 221.511C333.892 223.889 305.227 235.124 281.568 253.793C257.908 272.463 240.315 297.729 231.015 326.397C218.591 364.84 221.923 406.642 240.281 442.631C258.64 478.62 290.524 505.858 328.94 518.367ZM469.043 472.858L421.637 255.118C421.262 253.8 420.569 252.595 419.619 251.608C418.668 250.622 417.49 249.885 416.186 249.462C414.883 249.039 413.496 248.944 412.148 249.184C410.799 249.425 409.53 249.994 408.454 250.841L242.254 399.284C241.209 400.226 240.43 401.426 239.995 402.763C239.561 404.101 239.485 405.529 239.777 406.905C240.069 408.281 240.717 409.556 241.657 410.602C242.597 411.649 243.796 412.429 245.133 412.866L458.739 482.162C460.078 482.594 461.507 482.665 462.882 482.37C464.257 482.075 465.53 481.424 466.574 480.481C467.618 479.538 468.395 478.338 468.829 477C469.262 475.662 469.336 474.233 469.043 472.858ZM336.96 383.634L386.725 340.276L401.56 404.591L336.96 383.634ZM419.939 412.914L399.848 325.815L412.28 287.495L446.5 444.516L419.939 412.914ZM320.719 395.229L407.901 423.512L437.095 458.277L276.676 406.236L320.719 395.229ZM384.591 320.865L317.195 379.583L277.141 389.574L397.022 282.546L384.591 320.865Z" fill="#4C5573"/>
</g>
</g>
<defs>
<filter id="filter0_i_1541_1854" x="60.0117" y="55.9395" width="642.473" height="609.513" filterUnits="userSpaceOnUse" color-interpolation-filters="sRGB">
<feFlood flood-opacity="0" result="BackgroundImageFix"/>
<feBlend mode="normal" in="SourceGraphic" in2="BackgroundImageFix" result="shape"/>
<feColorMatrix in="SourceAlpha" type="matrix" values="0 0 0 0 0 0 0 0 0 0 0 0 0 0 0 0 0 0 127 0" result="hardAlpha"/>
<feOffset dx="2" dy="2"/>
<feComposite in2="hardAlpha" operator="arithmetic" k2="-1" k3="1"/>
<feColorMatrix type="matrix" values="0 0 0 0 1 0 0 0 0 1 0 0 0 0 1 0 0 0 0.65 0"/>
<feBlend mode="normal" in2="shape" result="effect1_innerShadow_1541_1854"/>
</filter>
<filter id="filter1_d_1541_1854" x="113.617" y="131.639" width="528.672" height="484.602" filterUnits="userSpaceOnUse" color-interpolation-filters="sRGB">
<feFlood flood-opacity="0" result="BackgroundImageFix"/>
<feColorMatrix in="SourceAlpha" type="matrix" values="0 0 0 0 0 0 0 0 0 0 0 0 0 0 0 0 0 0 127 0" result="hardAlpha"/>
<feOffset dy="2"/>
<feComposite in2="hardAlpha" operator="out"/>
<feColorMatrix type="matrix" values="0 0 0 0 1 0 0 0 0 1 0 0 0 0 1 0 0 0 0.57 0"/>
<feBlend mode="normal" in2="BackgroundImageFix" result="effect1_dropShadow_1541_1854"/>
<feBlend mode="normal" in="SourceGraphic" in2="effect1_dropShadow_1541_1854" result="shape"/>
</filter>
<filter id="filter2_ii_1541_1854" x="180.41" y="177.878" width="391.094" height="391.091" filterUnits="userSpaceOnUse" color-interpolation-filters="sRGB">
<feFlood flood-opacity="0" result="BackgroundImageFix"/>
<feBlend mode="normal" in="SourceGraphic" in2="BackgroundImageFix" result="shape"/>
<feColorMatrix in="SourceAlpha" type="matrix" values="0 0 0 0 0 0 0 0 0 0 0 0 0 0 0 0 0 0 127 0" result="hardAlpha"/>
<feOffset dx="5" dy="1"/>
<feComposite in2="hardAlpha" operator="arithmetic" k2="-1" k3="1"/>
<feColorMatrix type="matrix" values="0 0 0 0 0.0892882 0 0 0 0 0.105508 0 0 0 0 0.154167 0 0 0 1 0"/>
<feBlend mode="normal" in2="shape" result="effect1_innerShadow_1541_1854"/>
<feColorMatrix in="SourceAlpha" type="matrix" values="0 0 0 0 0 0 0 0 0 0 0 0 0 0 0 0 0 0 127 0" result="hardAlpha"/>
<feOffset dy="-3"/>
<feComposite in2="hardAlpha" operator="arithmetic" k2="-1" k3="1"/>
<feColorMatrix type="matrix" values="0 0 0 0 0.184722 0 0 0 0 0.209402 0 0 0 0 0.291667 0 0 0 1 0"/>
<feBlend mode="normal" in2="effect1_innerShadow_1541_1854" result="effect2_innerShadow_1541_1854"/>
</filter>
<radialGradient id="paint0_radial_1541_1854" cx="0" cy="0" r="1" gradientUnits="userSpaceOnUse" gradientTransform="translate(378.022 372.951) rotate(101.15) scale(240.428 267.056)">
<stop stop-color="#737C9A"/>
<stop offset="1" stop-color="#4C5573"/>
</radialGradient>
</defs>
</svg>
