<?xml version="1.0" standalone="no"?>
<!DOCTYPE svg PUBLIC "-//W3C//DTD SVG 1.1//EN" "http://www.w3.org/Graphics/SVG/1.1/DTD/svg11.dtd" >
<svg xmlns="http://www.w3.org/2000/svg" xmlns:xlink="http://www.w3.org/1999/xlink" version="1.1">
<metadata>
Created by FontForge 20170731 at Mon May  8 10:35:15 2023
 By Aleksey,,,
Copyright (c) 2014-2015 by Ryoichi Tsunekawa. All rights reserved.
</metadata>
<defs>
<font id="BioSans-ExtraLightItalic" horiz-adv-x="749" >
  <font-face 
    font-family="Bio Sans ExtraLight"
    font-weight="250"
    font-style="italic"
    font-stretch="normal"
    units-per-em="2048"
    panose-1="2 11 3 6 2 2 2 11 2 4"
    ascent="1638"
    descent="-410"
    x-height="1042"
    cap-height="1393"
    bbox="-412 -463 2175 2154"
    underline-thickness="49"
    underline-position="-253"
    slope="-10"
    unicode-range="U+000D-FB02"
  />
<missing-glyph horiz-adv-x="1429" 
d="M121 0l246 1393h1003l-246 -1393h-1003zM752 750l505 587h-806zM201 109l508 591l-299 584zM1081 109l209 1175l-508 -592zM233 55h807l-301 588z" />
    <glyph glyph-name="fi" unicode="fi" horiz-adv-x="1114" 
d="M158 0l174 991h-221l10 51h221l29 164q51 289 303 289h143l-10 -55h-135q-103 0 -161 -59t-81 -187l-27 -152h326l-10 -51h-324l-176 -991h-61zM987 1282l25 143h73l-24 -143h-74zM766 0l184 1042h62l-185 -1042h-61z" />
    <glyph glyph-name="fl" unicode="fl" horiz-adv-x="1114" 
d="M158 0l174 991h-221l10 51h221l29 164q51 289 303 289h143l-10 -55h-135q-103 0 -161 -59t-81 -187l-27 -152h326l-10 -51h-324l-176 -991h-61zM766 0l264 1495h62l-265 -1495h-61z" />
    <glyph glyph-name=".notdef" horiz-adv-x="1429" 
d="M121 0l246 1393h1003l-246 -1393h-1003zM752 750l505 587h-806zM201 109l508 591l-299 584zM1081 109l209 1175l-508 -592zM233 55h807l-301 588z" />
    <glyph glyph-name=".null" horiz-adv-x="0" 
 />
    <glyph glyph-name="nonmarkingreturn" horiz-adv-x="682" 
 />
    <glyph glyph-name="CR" unicode="&#xd;" horiz-adv-x="561" 
 />
    <glyph glyph-name="space" unicode=" " horiz-adv-x="561" 
 />
    <glyph glyph-name="exclam" unicode="!" horiz-adv-x="526" 
d="M223 420l113 678l49 295h64l-54 -295l-129 -678h-43zM129 0l29 162h84l-29 -162h-84z" />
    <glyph glyph-name="quotedbl" unicode="&#x22;" horiz-adv-x="684" 
d="M248 1026l49 367h80l-82 -367h-47zM565 1026l49 367h80l-82 -367h-47z" />
    <glyph glyph-name="numbersign" unicode="#" horiz-adv-x="1228" 
d="M164 0l119 395h-222l11 54h227l158 516h-224l11 53h229l113 375h61l-112 -375h417l113 375h61l-112 -375h219l-10 -53h-226l-157 -516h221l-10 -54h-228l-118 -395h-62l119 395h-418l-119 -395h-61zM360 449h418l158 516h-418z" />
    <glyph glyph-name="dollar" unicode="$" horiz-adv-x="1228" 
d="M475 -147l27 147q-190 3 -295 78t-105 209q0 25 7 69h57q-6 -34 -6 -61q0 -116 90.5 -177t261.5 -63l113 631q-221 37 -300 98t-79 193q0 184 137.5 297.5t364.5 118.5l26 147h55l-26 -147q168 -8 258 -79t90 -198q0 -34 -6 -72h-58q7 40 7 66q0 107 -75.5 165t-225.5 62
l-107 -606q217 -35 297 -99.5t80 -203.5q0 -190 -136.5 -304.5t-369.5 -123.5l-27 -147h-55zM633 741l104 596q-200 -8 -317 -101.5t-117 -248.5q0 -108 71 -161t259 -85zM567 57q204 9 320.5 105t116.5 260q0 113 -67.5 166t-258.5 88z" />
    <glyph glyph-name="percent" unicode="%" horiz-adv-x="1564" 
d="M406 657q-118 0 -182 53t-64 158q0 33 6 70l35 199q24 140 109 210t220 70q118 0 182 -53t64 -158q0 -32 -6 -69l-35 -199q-24 -140 -109 -210.5t-220 -70.5zM238 -25l1085 1442h66l-1086 -1442h-65zM408 713q225 0 268 235l33 187q6 35 6 67q0 160 -187 160
q-225 0 -268 -236l-33 -186q-6 -34 -6 -68q0 -159 187 -159zM1098 -25q-118 0 -182 53t-64 158q0 32 6 70l35 199q24 140 109.5 210t220.5 70q118 0 181.5 -53t63.5 -158q0 -32 -6 -69l-35 -199q-24 -140 -109 -210.5t-220 -70.5zM1100 31q225 0 268 235l33 187q6 35 6 67
q0 160 -186 160q-226 0 -269 -236l-32 -186q-7 -40 -7 -68q0 -159 187 -159z" />
    <glyph glyph-name="ampersand" unicode="&#x26;" horiz-adv-x="1337" 
d="M473 -25q-187 0 -291 80.5t-104 231.5q0 141 98 253.5t311 215.5q-69 86 -97 148t-28 130q0 160 121 271.5t299 111.5q133 0 207 -66t74 -173q0 -131 -112.5 -232.5t-368.5 -208.5l387 -454q105 143 157 368h60q-59 -253 -180 -413l202 -238h-80l-161 190
q-190 -215 -494 -215zM545 782q251 103 356 191.5t105 197.5q0 87 -62 139t-170 52q-150 0 -251 -95.5t-101 -230.5q0 -64 28 -120t95 -134zM473 31q279 0 457 202l-406 478q-203 -95 -294 -194.5t-91 -225.5t87 -193t247 -67z" />
    <glyph glyph-name="quotesingle" unicode="'" horiz-adv-x="366" 
d="M248 1026l49 367h80l-82 -367h-47z" />
    <glyph glyph-name="parenleft" unicode="(" horiz-adv-x="649" 
d="M467 -266q-147 69 -230 229t-83 408q0 171 41 346.5t117 334t198 284t272 184.5l-8 -54q-106 -48 -198 -138t-157.5 -202.5t-112.5 -243.5t-70 -265t-23 -263q0 -426 264 -571z" />
    <glyph glyph-name="parenright" unicode=")" horiz-adv-x="649" 
d="M-96 -266l8 53q106 48 198 138t157.5 202.5t112.5 243.5t70 265t23 263q0 426 -264 571l10 50q147 -69 230 -229t83 -408q0 -171 -41 -346.5t-117 -334t-198 -284t-272 -184.5z" />
    <glyph glyph-name="asterisk" unicode="*" horiz-adv-x="790" 
d="M223 668l-45 39l258 282l-319 105l20 55l324 -117l57 361h57l-67 -357l350 113l16 -55l-360 -105l164 -297l-49 -24l-154 293z" />
    <glyph glyph-name="plus" unicode="+" horiz-adv-x="1228" 
d="M514 121l84 481h-465l10 57h465l86 484h62l-86 -484h465l-11 -57h-465l-84 -481h-61z" />
    <glyph glyph-name="comma" unicode="," horiz-adv-x="489" 
d="M37 -223l8 49q67 14 88 139l6 35h-28l28 162h84l-33 -187q-17 -95 -53.5 -142t-99.5 -56z" />
    <glyph glyph-name="hyphen" unicode="-" horiz-adv-x="727" 
d="M80 563l10 58h584l-10 -58h-584z" />
    <glyph glyph-name="period" unicode="." horiz-adv-x="489" 
d="M111 0l28 162h84l-28 -162h-84z" />
    <glyph glyph-name="slash" unicode="/" horiz-adv-x="860" 
d="M-119 -287l1061 1782h66l-1061 -1782h-66z" />
    <glyph glyph-name="zero" unicode="0" horiz-adv-x="1228" 
d="M522 -25q-193 0 -294 86.5t-101 255.5q0 62 10 121l92 523q40 225 177.5 340.5t363.5 115.5q193 0 294 -86.5t101 -255.5q0 -62 -10 -121l-92 -522q-40 -225 -177.5 -341t-363.5 -116zM526 31q200 0 321.5 105.5t156.5 307.5l90 510q10 59 10 113q0 295 -338 295
q-200 0 -321 -106t-156 -308l-90 -510q-11 -65 -11 -112q0 -295 338 -295z" />
    <glyph glyph-name="one" unicode="1" horiz-adv-x="1228" 
d="M211 0l10 57h361l219 1248q-186 -117 -424 -138l8 50q239 23 432 176h62l-236 -1336h361l-11 -57h-782z" />
    <glyph glyph-name="two" unicode="2" horiz-adv-x="1228" 
d="M61 0l11 57q32 187 159.5 314t407.5 250q252 110 362.5 222t110.5 257q0 130 -85 196t-247 66q-193 0 -310 -90t-148 -260l-5 -23h-59l6 35q33 185 169 289t355 104q190 0 285.5 -80.5t95.5 -234.5q0 -168 -118 -292t-389 -241q-263 -114 -381.5 -228.5t-149.5 -283.5
h856l-10 -57h-916z" />
    <glyph glyph-name="three" unicode="3" horiz-adv-x="1228" 
d="M522 -25q-199 0 -306 80.5t-107 216.5q0 36 8 86l4 23h59l-4 -23q-6 -38 -6 -73q0 -125 90.5 -189.5t261.5 -64.5q228 0 358 107.5t130 291.5q0 136 -80 199t-260 63h-170l8 56h174q184 0 298 100.5t114 257.5q0 128 -82.5 192t-239.5 64q-191 0 -311.5 -89.5
t-145.5 -238.5l-2 -12h-59l4 22q31 172 169 272.5t349 100.5q181 0 278 -79t97 -232q0 -143 -82.5 -243.5t-224.5 -137.5v-2q117 -27 172 -100t55 -193q0 -208 -150.5 -331.5t-398.5 -123.5z" />
    <glyph glyph-name="four" unicode="4" horiz-adv-x="1228" 
d="M817 0l62 342h-803l10 61l967 990h71l-176 -994h195l-10 -57h-195l-59 -342h-62zM156 399h731l162 908z" />
    <glyph glyph-name="five" unicode="5" horiz-adv-x="1228" 
d="M514 -25q-188 0 -299 79.5t-111 213.5q0 14 5 54h59q-4 -28 -4 -50q0 -112 93.5 -176.5t256.5 -64.5q242 0 383 138t141 353q0 320 -346 320q-234 0 -422 -146h-47l168 697h803l-10 -58h-752l-133 -553q175 115 399 115q196 0 299 -92t103 -279q0 -241 -160.5 -396
t-425.5 -155z" />
    <glyph glyph-name="six" unicode="6" horiz-adv-x="1228" 
d="M545 -25q-195 0 -297.5 88.5t-102.5 255.5q0 50 11 115l92 522q40 225 182 343t369 118q183 0 282 -76.5t99 -214.5q0 -29 -2 -43h-58q2 12 2 33q0 122 -83 184t-240 62q-206 0 -331.5 -107.5t-162.5 -314.5l-53 -297q180 227 477 227q179 0 274 -83.5t95 -243.5
q0 -256 -149 -412t-404 -156zM545 31q231 0 362 139.5t131 366.5q0 136 -79.5 207t-237.5 71q-310 0 -490 -291l-14 -84q-10 -58 -10 -114q0 -295 338 -295z" />
    <glyph glyph-name="seven" unicode="7" horiz-adv-x="1228" 
d="M299 0q167 751 870 1333h-909l10 60h987l-12 -66q-715 -576 -880 -1327h-66z" />
    <glyph glyph-name="eight" unicode="8" horiz-adv-x="1228" 
d="M512 -25q-211 0 -322.5 81t-111.5 247q0 161 101.5 272t275.5 152v2q-209 53 -209 268q0 188 149 304t381 116q188 0 290.5 -80.5t102.5 -234.5q0 -142 -86 -238.5t-235 -134.5v-2q246 -59 246 -307q0 -206 -158 -325.5t-424 -119.5zM641 752q217 0 344 95t127 255
q0 128 -84.5 194t-249.5 66q-215 0 -345 -102t-130 -261q0 -247 338 -247zM512 31q239 0 380.5 104t141.5 285q0 143 -93 209.5t-279 66.5q-239 0 -381 -102t-142 -283q0 -280 373 -280z" />
    <glyph glyph-name="nine" unicode="9" horiz-adv-x="1228" 
d="M492 -25q-183 0 -282 76.5t-99 214.5q0 29 2 43h57q-2 -12 -2 -33q0 -122 83.5 -183.5t240.5 -61.5q205 0 330.5 107.5t162.5 314.5l53 297q-181 -228 -477 -228q-179 0 -273.5 83.5t-94.5 244.5q0 256 148.5 411.5t403.5 155.5q195 0 297.5 -88.5t102.5 -255.5
q0 -56 -10 -115l-93 -522q-40 -225 -181.5 -343t-368.5 -118zM569 578q311 0 490 290l14 84q10 58 10 115q0 295 -338 295q-231 0 -362 -139.5t-131 -366.5q0 -136 79.5 -207t237.5 -71z" />
    <glyph glyph-name="colon" unicode=":" horiz-adv-x="489" 
d="M252 799l29 162h84l-29 -162h-84zM111 0l28 162h84l-28 -162h-84z" />
    <glyph glyph-name="semicolon" unicode=";" horiz-adv-x="489" 
d="M252 799l29 162h84l-29 -162h-84zM37 -223l8 49q67 14 88 139l6 35h-28l28 162h84l-33 -187q-17 -95 -53.5 -142t-99.5 -56z" />
    <glyph glyph-name="less" unicode="&#x3c;" horiz-adv-x="1228" 
d="M1049 162l-916 440l10 57l1069 439l-12 -66l-987 -405l846 -406z" />
    <glyph glyph-name="equal" unicode="=" horiz-adv-x="1228" 
d="M172 825l10 58h992l-11 -58h-991zM94 379l10 57h992l-11 -57h-991z" />
    <glyph glyph-name="greater" unicode="&#x3e;" horiz-adv-x="1228" 
d="M55 164l13 65l987 406l-846 405l10 60l916 -441l-11 -57z" />
    <glyph glyph-name="question" unicode="?" horiz-adv-x="845" 
d="M342 420l10 57q22 120 77 192t179 142q126 71 176 145t50 191q0 104 -69.5 159.5t-199.5 55.5q-156 0 -254.5 -80t-124.5 -229h-57q31 172 147 268t295 96q154 0 238 -70t84 -198q0 -132 -56.5 -218t-193.5 -161q-117 -65 -170 -129t-70 -164l-10 -57h-51zM252 0l29 162
h84l-29 -162h-84z" />
    <glyph glyph-name="at" unicode="@" horiz-adv-x="1560" 
d="M776 -139q-321 0 -502.5 171.5t-181.5 469.5q0 169 61 319.5t167.5 260t259.5 173.5t329 64q284 0 456.5 -155.5t172.5 -411.5q0 -96 -25 -189.5t-71.5 -171.5t-120 -126t-162.5 -48q-158 0 -158 152v14q-128 -166 -305 -166q-107 0 -163 56t-56 157q0 40 6 78l29 162
q25 137 104 209.5t201 72.5q182 0 254 -166l29 140h53l-86 -488q-6 -35 -6 -57q0 -56 26 -82.5t82 -26.5q75 0 136.5 44.5t98.5 115t57 153.5t20 165q0 236 -156 375t-414 139q-220 0 -394.5 -102.5t-268.5 -275.5t-94 -382q0 -275 165 -431.5t455 -156.5q241 0 428 113
l23 -56q-180 -112 -449 -112zM700 272q173 0 314 203l39 225q-65 197 -236 197q-203 0 -246 -240l-26 -151q-6 -34 -6 -72q0 -162 161 -162z" />
    <glyph glyph-name="A" unicode="A" horiz-adv-x="1224" 
d="M-63 0l796 1393h66l305 -1393h-66l-90 424h-700l-244 -424h-67zM281 483h655l-182 830z" />
    <glyph glyph-name="B" unicode="B" horiz-adv-x="1304" 
d="M121 0l246 1393h524q189 0 276.5 -70.5t87.5 -222.5q0 -147 -75.5 -246.5t-214.5 -136.5v-2q118 -25 170.5 -91.5t52.5 -187.5q0 -201 -134.5 -318.5t-367.5 -117.5h-565zM315 739h482q184 0 290.5 97t106.5 262q0 126 -71.5 180.5t-237.5 54.5h-465zM195 59h497
q203 0 317.5 100t114.5 277q0 133 -76.5 188.5t-261.5 55.5h-481z" />
    <glyph glyph-name="C" unicode="C" horiz-adv-x="1253" 
d="M563 -25q-211 0 -322.5 100t-111.5 290q0 59 14 141l68 383q46 260 196 394t394 134q204 0 314 -91.5t110 -256.5q0 -32 -4 -78h-62q4 36 4 66q0 147 -91.5 224t-270.5 77q-446 0 -531 -484l-63 -360q-14 -80 -14 -143q0 -169 91 -252.5t277 -83.5q196 0 323 92.5
t171 273.5h63q-50 -207 -192 -316.5t-363 -109.5z" />
    <glyph glyph-name="D" unicode="D" horiz-adv-x="1329" 
d="M121 0l246 1393h446q225 0 337 -91t112 -280q0 -63 -17 -160l-59 -336q-49 -276 -196.5 -401t-414.5 -125h-454zM195 59h385q239 0 370 113.5t174 357.5l60 336q14 80 14 148q0 169 -94.5 244t-294.5 75h-389z" />
    <glyph glyph-name="E" unicode="E" horiz-adv-x="1189" 
d="M121 0l246 1393h880l-10 -60h-817l-105 -585h715l-10 -60h-715l-110 -629h837l-10 -59h-901z" />
    <glyph glyph-name="F" unicode="F" horiz-adv-x="1114" 
d="M121 0l246 1393h866l-10 -60h-803l-105 -585h701l-10 -60h-701l-121 -688h-63z" />
    <glyph glyph-name="G" unicode="G" horiz-adv-x="1302" 
d="M573 -25q-214 0 -329 100.5t-115 289.5q0 61 12 131l72 405q44 247 203 381.5t395 134.5q202 0 313 -97t111 -269q0 -35 -6 -70h-60q5 35 5 63q0 150 -93.5 232t-267.5 82q-217 0 -359.5 -124t-179.5 -337l-69 -393q-12 -70 -12 -129q0 -166 96 -253t286 -87
q223 0 353.5 120t169.5 343l20 114h-379l11 62h440l-33 -187q-45 -255 -195 -383.5t-389 -128.5z" />
    <glyph glyph-name="H" unicode="H" horiz-adv-x="1429" 
d="M121 0l246 1395h63l-115 -645h877l115 645h63l-246 -1395h-63l121 690h-877l-121 -690h-63z" />
    <glyph glyph-name="I" unicode="I" horiz-adv-x="489" 
d="M121 0l246 1393h63l-246 -1393h-63z" />
    <glyph glyph-name="J" unicode="J" horiz-adv-x="1122" 
d="M395 -25q-199 0 -292 81t-93 251q0 54 10 113l5 22h59l-2 -12q-12 -68 -12 -129q0 -141 78.5 -203.5t246.5 -62.5q215 0 329 103.5t155 336.5l161 918h64l-164 -932q-44 -247 -173.5 -366.5t-371.5 -119.5z" />
    <glyph glyph-name="K" unicode="K" horiz-adv-x="1263" 
d="M121 0l246 1393h63l-151 -865l1007 865h86l-659 -568l422 -825h-72l-399 784l-402 -344l-78 -440h-63z" />
    <glyph glyph-name="L" unicode="L" horiz-adv-x="1071" 
d="M121 0l246 1393h63l-235 -1334h778l-10 -59h-842z" />
    <glyph glyph-name="M" unicode="M" horiz-adv-x="1759" 
d="M121 0l246 1393h75l357 -1297l819 1297h82l-246 -1393h-63l225 1280l-805 -1280h-49l-354 1280l-226 -1280h-61z" />
    <glyph glyph-name="N" unicode="N" horiz-adv-x="1421" 
d="M121 0l246 1393h77l629 -1293l227 1293h62l-246 -1393h-61l-641 1315l-232 -1315h-61z" />
    <glyph glyph-name="O" unicode="O" horiz-adv-x="1335" 
d="M578 -25q-216 0 -331.5 102t-115.5 296q0 63 12 133l68 383q45 259 202 393.5t406 134.5q216 0 331.5 -101.5t115.5 -295.5q0 -57 -13 -133l-67 -383q-45 -259 -202 -394t-406 -135zM578 35q463 0 548 483l64 361q12 67 12 137q0 342 -383 342q-464 0 -549 -484l-63 -360
q-12 -68 -12 -137q0 -342 383 -342z" />
    <glyph glyph-name="P" unicode="P" horiz-adv-x="1222" 
d="M121 0l246 1393h507q204 0 292.5 -74t88.5 -244q0 -226 -135 -351.5t-381 -125.5h-448l-107 -598h-63zM301 657h444q216 0 332.5 108.5t116.5 307.5q0 145 -72.5 202.5t-253.5 57.5h-448z" />
    <glyph glyph-name="Q" unicode="Q" horiz-adv-x="1335" 
d="M819 1417q216 0 331.5 -101.5t115.5 -295.5q0 -57 -13 -133l-67 -383q-46 -256 -201 -393l158 -191l-47 -39l-158 193q-147 -99 -360 -99q-216 0 -331.5 102t-115.5 296q0 63 12 133l68 383q45 259 202 393.5t406 134.5zM1190 879q12 67 12 137q0 342 -383 342
q-464 0 -549 -484l-63 -360q-12 -68 -12 -137q0 -342 383 -342q191 0 321 86l-237 287l47 38l237 -288q136 118 180 360z" />
    <glyph glyph-name="R" unicode="R" horiz-adv-x="1286" 
d="M121 0l246 1393h510q199 0 283.5 -71t84.5 -237q0 -202 -109.5 -322t-312.5 -140l287 -623h-70l-286 618h-461l-109 -618h-63zM303 678h447q212 0 323 105t111 302q0 140 -68.5 194t-245.5 54h-450z" />
    <glyph glyph-name="S" unicode="S" horiz-adv-x="1136" 
d="M489 -25q-212 0 -327 79.5t-115 221.5q0 32 6 70h62q-6 -34 -6 -63q0 -248 383 -248q225 0 350 104.5t125 300.5q0 103 -85.5 160t-283.5 86q-218 32 -309.5 96.5t-91.5 186.5q0 211 144.5 329.5t381.5 118.5q197 0 300 -75t103 -214q0 -32 -6 -73h-61q6 41 6 71
q0 119 -83.5 175.5t-252.5 56.5q-216 0 -342.5 -101t-126.5 -284q0 -94 79 -145.5t273 -82.5q226 -35 321 -105t95 -200q0 -223 -145 -344t-394 -121z" />
    <glyph glyph-name="T" unicode="T" horiz-adv-x="1017" 
d="M385 0l236 1333h-461l10 60h985l-10 -60h-461l-235 -1333h-64z" />
    <glyph glyph-name="U" unicode="U" horiz-adv-x="1323" 
d="M569 -25q-219 0 -321.5 80t-102.5 252q0 61 15 146l166 940h63l-166 -940q-14 -83 -14 -146q0 -149 85 -210.5t275 -61.5q237 0 352.5 95t155.5 323l166 940h62l-166 -940q-22 -125 -62 -212t-107.5 -148t-166 -89.5t-234.5 -28.5z" />
    <glyph glyph-name="V" unicode="V" horiz-adv-x="1173" 
d="M461 0l-279 1393h66l262 -1305l721 1305h67l-770 -1393h-67z" />
    <glyph glyph-name="W" unicode="W" horiz-adv-x="1794" 
d="M346 0l-164 1393h64l151 -1297l619 1297h67l160 -1297l610 1297h66l-655 -1393h-68l-164 1290l-618 -1290h-68z" />
    <glyph glyph-name="X" unicode="X" horiz-adv-x="1146" 
d="M-45 0l612 715l-350 678h72l325 -637l545 637h78l-590 -691l361 -702h-72l-338 662l-565 -662h-78z" />
    <glyph glyph-name="Y" unicode="Y" horiz-adv-x="1085" 
d="M420 0l110 629l-368 764h71l336 -701l584 701h78l-639 -770l-111 -623h-61z" />
    <glyph glyph-name="Z" unicode="Z" horiz-adv-x="1097" 
d="M-27 0l11 55l1089 1278h-827l10 60h911l-10 -56l-1089 -1278h882l-10 -59h-967z" />
    <glyph glyph-name="bracketleft" unicode="[" horiz-adv-x="649" 
d="M78 -242l307 1737h393l-8 -49h-334l-291 -1639h336l-10 -49h-393z" />
    <glyph glyph-name="backslash" unicode="\" horiz-adv-x="860" 
d="M629 -287l-432 1782h63l432 -1782h-63z" />
    <glyph glyph-name="bracketright" unicode="]" horiz-adv-x="649" 
d="M-92 -242l8 49h334l291 1639h-336l10 49h393l-307 -1737h-393z" />
    <glyph glyph-name="asciicircum" unicode="^" horiz-adv-x="1228" 
d="M90 682l645 711h66l395 -711h-66l-364 657l-598 -657h-78z" />
    <glyph glyph-name="underscore" unicode="_" horiz-adv-x="1024" 
d="M-129 -213l8 53h1024l-8 -53h-1024z" />
    <glyph glyph-name="grave" unicode="`" horiz-adv-x="1024" 
d="M666 1229l-193 250h80l174 -250h-61z" />
    <glyph glyph-name="a" unicode="a" horiz-adv-x="1107" 
d="M354 -25q-291 0 -291 256q0 171 127.5 262t350.5 91h344l22 125q8 46 8 84q0 219 -282 219q-156 0 -254.5 -66.5t-132.5 -193.5h-62q43 156 157.5 235.5t293.5 79.5q170 0 256 -70.5t86 -205.5q0 -35 -8 -82l-125 -709h-53l30 190q-197 -215 -467 -215zM360 29
q271 0 471 247l43 252h-329q-201 0 -310.5 -73t-109.5 -222q0 -104 57.5 -154t177.5 -50z" />
    <glyph glyph-name="b" unicode="b" horiz-adv-x="1191" 
d="M586 -25q-135 0 -233.5 70.5t-147.5 206.5l-49 -252h-54l265 1495h61l-123 -690q196 262 467 262q151 0 232 -82t81 -235q0 -57 -10 -113l-43 -244q-34 -194 -151.5 -306t-294.5 -112zM588 31q157 0 255.5 99.5t129.5 277.5l41 231q10 56 10 106q0 267 -256 267
q-283 0 -481 -320l-62 -344q41 -157 133 -237t230 -80z" />
    <glyph glyph-name="c" unicode="c" horiz-adv-x="1048" 
d="M463 -25q-170 0 -262 84t-92 248q0 52 10 111l37 209q38 216 165 328t324 112q167 0 256.5 -79.5t89.5 -217.5q0 -31 -2 -43h-59q2 16 2 43q0 117 -71 179.5t-214 62.5q-181 0 -289.5 -102t-142.5 -296l-33 -186q-10 -56 -10 -119q0 -143 72.5 -210.5t220.5 -67.5
q160 0 258 74t133 210h59q-38 -158 -155 -249t-297 -91z" />
    <glyph glyph-name="d" unicode="d" horiz-adv-x="1191" 
d="M420 -25q-151 0 -232.5 82.5t-81.5 235.5q0 51 11 113l43 243q34 194 151.5 306t294.5 112q133 0 231 -68t148 -200l123 696h61l-264 -1495h-53l39 246q-196 -271 -471 -271zM424 31q280 0 481 317l62 348q-41 156 -133 236t-230 80q-157 0 -255.5 -99.5t-129.5 -277.5
l-41 -232q-10 -56 -10 -106q0 -266 256 -266z" />
    <glyph glyph-name="e" unicode="e" horiz-adv-x="1116" 
d="M477 -25q-179 0 -272.5 85.5t-93.5 252.5q0 58 8 105l37 209q37 212 162 326t333 114q179 0 270 -84.5t91 -245.5q0 -49 -11 -114l-18 -105h-784l-17 -90q-10 -56 -10 -115q0 -146 75 -214t228 -68q158 0 262.5 69t139.5 199h59q-40 -156 -159 -240t-300 -84zM207 573
h725l6 37q12 70 12 127q0 139 -73 207t-224 68q-368 0 -438 -398z" />
    <glyph glyph-name="f" unicode="f" horiz-adv-x="663" 
d="M158 0l174 991h-221l10 51h221l29 164q51 289 303 289h143l-10 -55h-135q-103 0 -161 -59t-81 -187l-27 -152h326l-10 -51h-324l-176 -991h-61z" />
    <glyph glyph-name="g" unicode="g" horiz-adv-x="1191" 
d="M416 -397q-178 0 -271.5 67.5t-93.5 190.5q0 19 2 35h60q-2 -10 -2 -25q0 -213 305 -213q189 0 294 87t136 263l47 264q-196 -262 -467 -262q-151 0 -232 82t-81 236q0 56 10 112l37 209q34 194 151.5 306t294.5 112q135 0 233.5 -70t147.5 -206l49 251h54l-185 -1044
q-34 -194 -156.5 -294.5t-332.5 -100.5zM430 66q282 0 481 319l56 309q-84 318 -363 318q-157 0 -255.5 -99.5t-129.5 -277.5l-35 -197q-10 -56 -10 -106q0 -266 256 -266z" />
    <glyph glyph-name="h" unicode="h" horiz-adv-x="1153" 
d="M102 0l265 1495h61l-121 -682q175 254 434 254q134 0 203.5 -68t69.5 -198q0 -47 -10 -105l-123 -696h-62l121 684q10 59 10 115q0 213 -217 213q-263 0 -446 -314l-123 -698h-62z" />
    <glyph glyph-name="i" unicode="i" horiz-adv-x="450" 
d="M324 1282l24 143h74l-25 -143h-73zM102 0l185 1042h61l-184 -1042h-62z" />
    <glyph glyph-name="j" unicode="j" horiz-adv-x="450" 
d="M324 1282l24 143h74l-25 -143h-73zM-170 -373l10 56h41q95 0 138 45t65 166l203 1148h61l-205 -1157q-25 -140 -85.5 -199t-178.5 -59h-49z" />
    <glyph glyph-name="k" unicode="k" horiz-adv-x="1058" 
d="M102 0l265 1495h61l-192 -1085l778 632h86l-529 -428l353 -614h-70l-330 575l-303 -245l-57 -330h-62z" />
    <glyph glyph-name="l" unicode="l" horiz-adv-x="450" 
d="M102 0l265 1495h61l-264 -1495h-62z" />
    <glyph glyph-name="m" unicode="m" horiz-adv-x="1796" 
d="M102 0l185 1042h53l-35 -221q166 246 410 246q130 0 197 -65t67 -187q172 252 416 252q129 0 196.5 -65t67.5 -187q0 -55 -10 -106l-125 -709h-62l125 709q8 47 8 92q0 106 -50.5 158.5t-155.5 52.5q-125 0 -226 -73.5t-192 -219.5l-127 -719h-62l125 709q11 64 11 98
q0 205 -209 205q-125 0 -226.5 -73.5t-191.5 -221.5l-127 -717h-62z" />
    <glyph glyph-name="n" unicode="n" horiz-adv-x="1153" 
d="M102 0l185 1042h53l-39 -237q179 262 440 262q134 0 203.5 -68t69.5 -198q0 -47 -10 -105l-123 -696h-62l121 684q10 59 10 115q0 213 -217 213q-263 0 -446 -314l-123 -698h-62z" />
    <glyph glyph-name="o" unicode="o" horiz-adv-x="1142" 
d="M481 -25q-182 0 -277 86.5t-95 247.5q0 51 10 109l37 209q37 211 167 325.5t339 114.5q182 0 277 -86.5t95 -247.5q0 -50 -10 -108l-37 -209q-37 -211 -167 -326t-339 -115zM479 31q186 0 300.5 102t148.5 295l35 197q8 47 8 100q0 287 -307 287q-186 0 -300.5 -102.5
t-148.5 -295.5l-35 -196q-8 -47 -8 -101q0 -286 307 -286z" />
    <glyph glyph-name="p" unicode="p" horiz-adv-x="1191" 
d="M37 -373l250 1415h53l-39 -245q195 270 471 270q151 0 232 -82t81 -235q0 -57 -10 -113l-43 -244q-34 -194 -151.5 -306t-294.5 -112q-133 0 -230.5 68.5t-148.5 200.5l-109 -617h-61zM588 31q157 0 255.5 99.5t129.5 277.5l41 231q10 56 10 106q0 267 -256 267
q-280 0 -481 -318l-62 -348q87 -315 363 -315z" />
    <glyph glyph-name="q" unicode="q" horiz-adv-x="1191" 
d="M778 -373l109 611q-196 -263 -467 -263q-151 0 -232.5 82.5t-81.5 235.5q0 51 11 113l43 243q34 194 151.5 306t294.5 112q135 0 233.5 -70t147.5 -206l49 251h54l-250 -1415h-62zM424 31q284 0 481 319l62 344q-84 318 -363 318q-157 0 -255.5 -99.5t-129.5 -277.5
l-41 -232q-10 -56 -10 -106q0 -266 256 -266z" />
    <glyph glyph-name="r" unicode="r" horiz-adv-x="688" 
d="M102 0l185 1042h53l-37 -229q134 248 383 248h68l-11 -55h-55q-138 0 -237 -84t-170 -265l-117 -657h-62z" />
    <glyph glyph-name="s" unicode="s" horiz-adv-x="1013" 
d="M408 -25q-174 0 -268.5 64t-94.5 184q0 32 6 62h58q-7 -31 -7 -56q0 -98 78.5 -148t225.5 -50q182 0 292.5 74t110.5 206q0 89 -71 133.5t-242 63.5q-182 20 -260 71.5t-78 151.5q0 151 121.5 243.5t316.5 92.5q159 0 246.5 -63.5t87.5 -178.5q0 -29 -6 -59h-58
q4 18 4 53q0 94 -71 143.5t-203 49.5q-166 0 -271.5 -75t-105.5 -198q0 -78 68 -118.5t231 -59.5q190 -22 271 -77t81 -162q0 -163 -126.5 -255t-335.5 -92z" />
    <glyph glyph-name="t" unicode="t" horiz-adv-x="665" 
d="M401 0q-108 0 -159.5 47t-51.5 148q0 38 11 102l123 694h-213l10 51h211l57 293h55l-51 -293h307l-10 -51h-305l-123 -694q-10 -58 -10 -100q0 -76 37.5 -109t122.5 -33h129l-11 -55h-129z" />
    <glyph glyph-name="u" unicode="u" horiz-adv-x="1161" 
d="M416 -25q-136 0 -206.5 69.5t-70.5 199.5q0 38 11 102l122 696h62l-121 -684q-10 -59 -10 -112q0 -215 221 -215q267 0 450 313l123 698h62l-185 -1042h-53l39 238q-179 -263 -444 -263z" />
    <glyph glyph-name="v" unicode="v" horiz-adv-x="954" 
d="M350 0l-219 1042h64l202 -970l545 970h66l-588 -1042h-70z" />
    <glyph glyph-name="w" unicode="w" horiz-adv-x="1574" 
d="M303 0l-172 1042h64l155 -964l496 964h63l156 -966l498 966h65l-541 -1042h-69l-156 952l-491 -952h-68z" />
    <glyph glyph-name="x" unicode="x" horiz-adv-x="989" 
d="M-49 0l508 537l-307 505h69l281 -467l442 467h78l-485 -514l317 -528h-70l-292 489l-463 -489h-78z" />
    <glyph glyph-name="y" unicode="y" horiz-adv-x="933" 
d="M-41 -373l10 56h49q81 0 128 33t104 137l115 208l-234 981h66l213 -911l514 911h63l-684 -1216q-65 -114 -125.5 -156.5t-159.5 -42.5h-59z" />
    <glyph glyph-name="z" unicode="z" horiz-adv-x="917" 
d="M-25 0l9 47l850 940h-641l10 55h725l-8 -47l-850 -940h694l-10 -55h-779z" />
    <glyph glyph-name="braceleft" unicode="{" horiz-adv-x="649" 
d="M399 -242q-227 0 -227 209q0 41 10 99l66 370q6 35 6 60q0 59 -36.5 82.5t-125.5 23.5l8 49q104 0 151 37t64 131l66 373q28 156 106 229.5t215 73.5h76l-8 -49h-70q-216 0 -262 -258l-63 -361q-17 -93 -51.5 -140t-96.5 -60v-2q84 -24 84 -129q0 -30 -6 -64l-65 -371
q-9 -53 -9 -84q0 -88 43 -129t134 -41h73l-10 -49h-72z" />
    <glyph glyph-name="bar" unicode="|" horiz-adv-x="552" 
d="M72 -463l362 2048h62l-363 -2048h-61z" />
    <glyph glyph-name="braceright" unicode="}" horiz-adv-x="649" 
d="M-92 -242l8 49h70q216 0 262 259l63 360q17 93 51.5 140.5t96.5 60.5v2q-84 24 -84 129q0 28 6 63l65 371q9 52 9 84q0 88 -42.5 129t-133.5 41h-74l10 49h72q227 0 227 -209q0 -40 -10 -98l-66 -371q-6 -35 -6 -59q0 -59 36.5 -83t125.5 -24l-8 -49q-104 0 -151 -37
t-64 -131l-66 -373q-28 -156 -106 -229.5t-215 -73.5h-76z" />
    <glyph glyph-name="asciitilde" unicode="~" horiz-adv-x="1228" 
d="M846 500q-69 0 -121 24t-109 84q-56 57 -99 79t-101 22q-88 0 -149 -51t-89 -146h-53q32 122 108.5 187t188.5 65q69 0 120.5 -24.5t108.5 -84.5q55 -57 98.5 -78.5t102.5 -21.5q88 0 149 51t89 146h53q-32 -122 -108.5 -187t-188.5 -65z" />
    <glyph glyph-name="uni00A0" unicode="&#xa0;" horiz-adv-x="561" 
 />
    <glyph glyph-name="exclamdown" unicode="&#xa1;" horiz-adv-x="526" 
d="M285 881l28 161h84l-28 -161h-84zM78 -350l53 295l129 678h43l-113 -678l-49 -295h-63z" />
    <glyph glyph-name="cent" unicode="&#xa2;" horiz-adv-x="1228" 
d="M489 -147l27 147q-166 7 -251 87t-85 226q0 53 10 111l35 199q35 203 155.5 309t319.5 110l25 148h55l-24 -148q159 -7 241 -80.5t82 -201.5q0 -29 -2 -43h-59q2 12 2 37q0 221 -275 233l-163 -932q154 9 245 80t121 191h60q-37 -151 -149 -235.5t-288 -90.5l-26 -147
h-56zM526 55l164 932q-174 -6 -273.5 -99.5t-131.5 -277.5l-33 -184q-10 -56 -10 -109q0 -130 68.5 -194t215.5 -68z" />
    <glyph glyph-name="sterling" unicode="&#xa3;" horiz-adv-x="1228" 
d="M84 0l10 55q136 85 202 200t66 275q0 37 -8 99h-202l10 55h180q-4 19 -18 73t-20.5 91.5t-6.5 77.5q0 227 138.5 359t375.5 132q184 0 282.5 -76t98.5 -215q0 -36 -6 -77h-58q7 44 7 71q0 119 -84 180.5t-246 61.5q-216 0 -331.5 -115t-115.5 -321q0 -34 4.5 -70
t9.5 -57.5t15 -60t14 -54.5h592l-10 -55h-571q8 -62 8 -101q0 -306 -236 -471h809l-10 -57h-899z" />
    <glyph glyph-name="currency" unicode="&#xa4;" horiz-adv-x="1228" 
d="M180 186l-45 45l264 267q-69 85 -69 198q0 114 69 199l-264 266l45 45l264 -266q85 72 201 72t201 -72l264 266l45 -45l-264 -266q70 -86 70 -199q0 -112 -70 -198l264 -267l-45 -45l-264 267q-85 -72 -201 -72t-201 72zM645 436q109 0 181.5 74t72.5 186t-72.5 186
t-181.5 74t-181.5 -74t-72.5 -186t72.5 -186t181.5 -74z" />
    <glyph glyph-name="yen" unicode="&#xa5;" horiz-adv-x="1228" 
d="M492 0l57 317h-430l10 56h428l43 241h-428l10 56h420l-362 723h69l338 -674l574 674h75l-614 -723h418l-10 -56h-428l-44 -241h429l-11 -56h-426l-57 -317h-61z" />
    <glyph glyph-name="brokenbar" unicode="&#xa6;" horiz-adv-x="552" 
d="M289 766l145 819h62l-146 -819h-61zM72 -463l145 819h62l-146 -819h-61z" />
    <glyph glyph-name="section" unicode="&#xa7;" horiz-adv-x="1179" 
d="M418 -401q-180 0 -281.5 71.5t-101.5 202.5q0 31 6 68h59q-6 -30 -6 -60q0 -109 85 -167t241 -58q195 0 315.5 86t120.5 233q0 42 -9 71t-30.5 53.5t-64.5 43.5t-102.5 37t-153.5 39q-152 35 -231.5 70t-113.5 82.5t-34 124.5q0 117 75 206.5t209 137.5v4
q-73 35 -103 82.5t-30 124.5q0 163 130.5 264.5t336.5 101.5q168 0 262.5 -69.5t94.5 -196.5q0 -26 -7 -66h-59q6 30 6 60q0 104 -77 159.5t-220 55.5q-181 0 -294 -83.5t-113 -219.5q0 -68 27.5 -106.5t100 -68.5t224.5 -65q155 -36 235.5 -71t114 -82.5t33.5 -124.5
q0 -120 -75 -207.5t-208 -132.5v-4q75 -36 105 -85.5t30 -129.5q0 -172 -137.5 -276.5t-359.5 -104.5zM711 225q135 35 214 117.5t79 189.5q0 66 -29.5 105t-103 68.5t-220.5 60.5q-119 26 -182 47q-135 -40 -214 -123.5t-79 -189.5q0 -63 29 -101.5t101.5 -67t215.5 -57.5
q124 -26 189 -49z" />
    <glyph glyph-name="dieresis" unicode="&#xa8;" horiz-adv-x="1024" 
d="M446 1288l23 131h74l-23 -131h-74zM774 1288l23 131h73l-22 -131h-74z" />
    <glyph glyph-name="copyright" unicode="&#xa9;" horiz-adv-x="1605" 
d="M834 -25q-204 0 -369 93.5t-258.5 258.5t-93.5 369t93.5 369t258.5 258.5t369 93.5q205 0 370 -93.5t257.5 -258.5t92.5 -369t-92.5 -369t-257.5 -258.5t-370 -93.5zM834 31q192 0 342.5 85t233.5 236.5t83 343.5t-83 343.5t-233.5 237t-342.5 85.5q-191 0 -342 -85.5
t-234.5 -237.5t-83.5 -343q0 -143 49 -266.5t135.5 -211t209.5 -137.5t266 -50zM834 305q-142 0 -216.5 74t-74.5 215v203q0 142 74 216t217 74q129 0 202.5 -60t79.5 -179h-59q-6 90 -62.5 137t-158.5 47q-232 0 -232 -239v-191q0 -242 232 -242q102 0 158.5 47.5
t62.5 137.5h59q-6 -119 -79.5 -179.5t-202.5 -60.5z" />
    <glyph glyph-name="ordfeminine" unicode="&#xaa;" horiz-adv-x="868" 
d="M367 651q-107 0 -163.5 47t-56.5 138q0 114 84.5 180.5t227.5 66.5h282l17 91q4 18 4 45q0 143 -195 143q-108 0 -178.5 -43t-95.5 -123h-57q26 106 112 163.5t221 57.5q125 0 189.5 -49.5t64.5 -144.5q0 -30 -6 -60l-86 -487h-53l18 119q-144 -144 -329 -144zM377 707
q189 0 328 167l28 156h-270q-120 0 -188 -50.5t-68 -139.5q0 -133 170 -133zM76 397l10 56h606l-10 -56h-606z" />
    <glyph glyph-name="guillemotleft" unicode="&#xab;" horiz-adv-x="880" 
d="M309 168l-246 354l365 350h84l-371 -356l240 -348h-72zM684 168l-246 354l365 350h84l-371 -356l240 -348h-72z" />
    <glyph glyph-name="logicalnot" unicode="&#xac;" horiz-adv-x="1228" 
d="M1004 264l83 481h-929l10 58h991l-94 -539h-61z" />
    <glyph glyph-name="uni00AD" unicode="&#xad;" horiz-adv-x="727" 
d="M80 563l10 58h584l-10 -58h-584z" />
    <glyph glyph-name="registered" unicode="&#xae;" horiz-adv-x="1605" 
d="M834 -25q-204 0 -369 93.5t-258.5 258.5t-93.5 369t93.5 369t258.5 258.5t369 93.5q205 0 370 -93.5t257.5 -258.5t92.5 -369t-92.5 -369t-257.5 -258.5t-370 -93.5zM834 31q192 0 342.5 85t233.5 236.5t83 343.5t-83 343.5t-233.5 237t-342.5 85.5q-191 0 -342 -85.5
t-234.5 -237.5t-83.5 -343q0 -143 49 -266.5t135.5 -211t209.5 -137.5t266 -50zM567 326v741h301q129 0 189.5 -50.5t60.5 -160.5q0 -95 -43.5 -145t-136.5 -62l225 -323h-73l-222 319h-239v-319h-62zM629 700h233q101 0 148 37t47 119t-47 119t-148 37h-233v-312z" />
    <glyph glyph-name="macron" unicode="&#xaf;" horiz-adv-x="1024" 
d="M467 1327l10 53h373l-10 -53h-373z" />
    <glyph glyph-name="degree" unicode="&#xb0;" horiz-adv-x="720" 
d="M436 872q-116 0 -188 71t-72 185q0 137 99 235.5t237 98.5q116 0 188 -71t72 -185q0 -137 -99 -235.5t-237 -98.5zM436 928q114 0 194.5 82t80.5 196q0 93 -55.5 147t-143.5 54q-114 0 -194 -82.5t-80 -196.5q0 -93 55 -146.5t143 -53.5z" />
    <glyph glyph-name="plusminus" unicode="&#xb1;" horiz-adv-x="1228" 
d="M520 154l86 481h-467l11 57h464l86 484h62l-86 -484h465l-11 -57h-462l-86 -481h-62zM27 0l10 57h991l-10 -57h-991z" />
    <glyph glyph-name="uni00B2" unicode="&#xb2;" 
d="M156 852l8 45q20 114 95.5 188.5t240.5 145.5q137 59 199.5 121.5t62.5 140.5q0 135 -176 135q-213 0 -252 -190l-2 -11h-62l4 21q23 116 105 175.5t211 59.5q231 0 231 -190q0 -101 -70.5 -174.5t-232.5 -142.5q-143 -62 -208.5 -122t-82.5 -147h494l-10 -55h-555z" />
    <glyph glyph-name="uni00B3" unicode="&#xb3;" 
d="M434 827q-121 0 -188.5 46.5t-67.5 125.5q0 24 4 48l4 22h60l-2 -12q-4 -24 -4 -41q0 -133 192 -133q130 0 201.5 59.5t71.5 159.5q0 71 -44 105t-147 34h-102l8 55h102q105 0 167.5 56t62.5 141q0 135 -177 135q-102 0 -167 -43.5t-82 -126.5l-2 -10h-60l2 12
q18 106 104.5 164.5t211.5 58.5q109 0 169 -47t60 -141q0 -84 -47 -141.5t-131 -81.5v-2q131 -33 131 -174q0 -125 -89.5 -197t-240.5 -72z" />
    <glyph glyph-name="acute" unicode="&#xb4;" horiz-adv-x="1024" 
d="M543 1229l260 250h88l-279 -250h-69z" />
    <glyph glyph-name="uni00B5" unicode="&#xb5;" horiz-adv-x="1175" 
d="M37 -373l250 1415h61l-121 -688q-10 -65 -10 -108q0 -215 219 -215q268 0 453 317l123 694h61l-184 -1042h-53l38 242q-181 -267 -442 -267q-192 0 -246 146l-88 -494h-61z" />
    <glyph glyph-name="paragraph" unicode="&#xb6;" horiz-adv-x="1179" 
d="M332 -375l174 993h-23q-183 0 -264.5 72t-81.5 232q0 221 127.5 346t351.5 125h484l-312 -1768h-61l301 1712h-334l-301 -1712h-61z" />
    <glyph glyph-name="periodcentered" unicode="&#xb7;" horiz-adv-x="489" 
d="M201 512l28 162h84l-28 -162h-84z" />
    <glyph glyph-name="cedilla" unicode="&#xb8;" horiz-adv-x="1024" 
d="M315 -397q-92 0 -159 37l26 47q49 -37 129 -37q72 0 112 25.5t40 72.5q0 31 -25.5 42t-95.5 11h-51l125 230h51l-102 -187h10q77 0 111 -23t34 -75q0 -67 -54 -105t-151 -38z" />
    <glyph glyph-name="uni00B9" unicode="&#xb9;" 
d="M250 852l10 55h205l117 670q-110 -62 -240 -68l8 47q131 11 250 103h59l-133 -752h205l-10 -55h-471z" />
    <glyph glyph-name="ordmasculine" unicode="&#xba;" horiz-adv-x="856" 
d="M459 651q-132 0 -201.5 60.5t-69.5 175.5q0 26 9 82l24 139q27 148 118 228.5t241 80.5q132 0 201 -60t69 -175q0 -32 -8 -82l-25 -139q-27 -149 -117.5 -229.5t-240.5 -80.5zM459 707q126 0 201.5 69t97.5 195l22 127q8 39 8 80q0 184 -208 184q-126 0 -201.5 -69
t-97.5 -195l-23 -127q-8 -39 -8 -80q0 -184 209 -184zM102 397l11 56h606l-10 -56h-607z" />
    <glyph glyph-name="guillemotright" unicode="&#xbb;" horiz-adv-x="880" 
d="M-6 168l371 356l-240 348h72l245 -354l-364 -350h-84zM369 168l370 356l-239 348h71l246 -354l-364 -350h-84z" />
    <glyph glyph-name="onequarter" unicode="&#xbc;" horiz-adv-x="1699" 
d="M426 -25l1020 1442h65l-1019 -1442h-66zM203 586l10 55h205l117 670q-110 -62 -240 -68l8 47q131 11 250 103h59l-133 -752h205l-10 -55h-471zM1395 0l32 184h-469l11 60l563 563h67l-100 -567h113l-10 -56h-113l-33 -184h-61zM1040 240h398l86 485z" />
    <glyph glyph-name="onehalf" unicode="&#xbd;" horiz-adv-x="1699" 
d="M338 -25l1020 1442h65l-1020 -1442h-65zM203 586l10 55h205l117 670q-110 -62 -240 -68l8 47q131 11 250 103h59l-133 -752h205l-10 -55h-471zM956 0l9 45q20 114 95 188.5t240 145.5q137 59 200 121.5t63 140.5q0 135 -177 135q-212 0 -251 -190l-2 -11h-62l4 21
q23 116 105 175.5t211 59.5q231 0 231 -190q0 -101 -70.5 -174.5t-232.5 -142.5q-143 -62 -208.5 -122t-82.5 -147h494l-11 -55h-555z" />
    <glyph glyph-name="threequarters" unicode="&#xbe;" horiz-adv-x="1699" 
d="M387 561q-121 0 -188.5 46.5t-67.5 125.5q0 23 4 47l4 23h60l-2 -12q-4 -24 -4 -41q0 -134 192 -134q130 0 201 60t71 160q0 71 -43.5 105t-146.5 34h-102l8 55h102q105 0 167.5 56t62.5 141q0 135 -177 135q-102 0 -167 -43.5t-82 -126.5l-3 -10h-59l2 12
q18 106 104.5 164.5t211.5 58.5q109 0 169 -47t60 -141q0 -84 -47 -141.5t-131 -81.5v-2q131 -33 131 -175q0 -125 -89.5 -196.5t-240.5 -71.5zM426 -25l1020 1442h65l-1019 -1442h-66zM1395 0l32 184h-469l11 60l563 563h67l-100 -567h113l-10 -56h-113l-33 -184h-61z
M1040 240h398l86 485z" />
    <glyph glyph-name="questiondown" unicode="&#xbf;" horiz-adv-x="845" 
d="M481 881l29 161h84l-29 -161h-84zM274 -375q-153 0 -237 70.5t-84 198.5q0 132 56.5 217.5t193.5 160.5q117 64 169.5 128.5t69.5 164.5l11 58h51l-10 -58q-22 -120 -77 -192t-179 -142q-126 -71 -176 -144.5t-50 -190.5q0 -104 69.5 -159.5t199.5 -55.5q156 0 254 80
t124 229h58q-31 -172 -147.5 -268.5t-295.5 -96.5z" />
    <glyph glyph-name="Agrave" unicode="&#xc0;" horiz-adv-x="1224" 
d="M823 1554l-192 250h80l174 -250h-62zM-63 0l796 1393h66l305 -1393h-66l-90 424h-700l-244 -424h-67zM281 483h655l-182 830z" />
    <glyph glyph-name="Aacute" unicode="&#xc1;" horiz-adv-x="1224" 
d="M700 1554l261 250h88l-279 -250h-70zM-63 0l796 1393h66l305 -1393h-66l-90 424h-700l-244 -424h-67zM281 483h655l-182 830z" />
    <glyph glyph-name="Acircumflex" unicode="&#xc2;" horiz-adv-x="1224" 
d="M551 1554l258 250h57l172 -250h-61l-143 195l-213 -195h-70zM-63 0l796 1393h66l305 -1393h-66l-90 424h-700l-244 -424h-67zM281 483h655l-182 830z" />
    <glyph glyph-name="Atilde" unicode="&#xc3;" horiz-adv-x="1224" 
d="M913 1593q-34 0 -60.5 14t-55.5 48q-26 29 -44 40t-40 11q-72 0 -111 -117h-51q22 83 65 126.5t103 43.5q64 0 117 -61q26 -29 44 -40t40 -11q71 0 110 116h51q-22 -83 -65 -126.5t-103 -43.5zM-63 0l796 1393h66l305 -1393h-66l-90 424h-700l-244 -424h-67zM281 483h655
l-182 830z" />
    <glyph glyph-name="Adieresis" unicode="&#xc4;" horiz-adv-x="1224" 
d="M604 1614l23 131h73l-22 -131h-74zM932 1614l22 131h74l-22 -131h-74zM-63 0l796 1393h66l305 -1393h-66l-90 424h-700l-244 -424h-67zM281 483h655l-182 830z" />
    <glyph glyph-name="Aring" unicode="&#xc5;" horiz-adv-x="1224" 
d="M803 1538q-66 0 -107 40t-41 103q0 74 53.5 125.5t129.5 51.5q66 0 106.5 -40.5t40.5 -103.5q0 -74 -53 -125t-129 -51zM805 1587q54 0 90.5 37.5t36.5 91.5q0 42 -26.5 67t-69.5 25q-54 0 -90.5 -37.5t-36.5 -91.5q0 -42 26.5 -67t69.5 -25zM-63 0l796 1393h66
l305 -1393h-66l-90 424h-700l-244 -424h-67zM281 483h655l-182 830z" />
    <glyph glyph-name="AE" unicode="&#xc6;" horiz-adv-x="1832" 
d="M-84 0l1128 1393h846l-10 -60h-760l-104 -585h657l-10 -60h-657l-111 -629h780l-10 -59h-844l76 424h-565l-344 -424h-72zM381 483h526l146 832z" />
    <glyph glyph-name="Ccedilla" unicode="&#xc7;" horiz-adv-x="1253" 
d="M801 1417q204 0 314 -91.5t110 -256.5q0 -32 -4 -78h-62q4 36 4 66q0 147 -91.5 224t-270.5 77q-446 0 -531 -484l-63 -360q-14 -80 -14 -143q0 -169 91 -252.5t277 -83.5q196 0 323 92.5t171 273.5h63q-47 -198 -180 -307.5t-340 -118.5l-72 -131h11q77 0 111 -23
t34 -75q0 -67 -54 -105t-151 -38q-93 0 -160 37l27 47q49 -37 129 -37q72 0 112 25.5t40 72.5q0 31 -25.5 42t-95.5 11h-51l94 174q-203 5 -310.5 104t-107.5 286q0 59 14 141l68 383q46 260 196 394t394 134z" />
    <glyph glyph-name="Egrave" unicode="&#xc8;" horiz-adv-x="1189" 
d="M864 1554l-192 250h80l174 -250h-62zM121 0l246 1393h880l-10 -60h-817l-105 -585h715l-10 -60h-715l-110 -629h837l-10 -59h-901z" />
    <glyph glyph-name="Eacute" unicode="&#xc9;" horiz-adv-x="1189" 
d="M741 1554l260 250h89l-279 -250h-70zM121 0l246 1393h880l-10 -60h-817l-105 -585h715l-10 -60h-715l-110 -629h837l-10 -59h-901z" />
    <glyph glyph-name="Ecircumflex" unicode="&#xca;" horiz-adv-x="1189" 
d="M592 1554l258 250h57l172 -250h-61l-144 195l-212 -195h-70zM121 0l246 1393h880l-10 -60h-817l-105 -585h715l-10 -60h-715l-110 -629h837l-10 -59h-901z" />
    <glyph glyph-name="Edieresis" unicode="&#xcb;" horiz-adv-x="1189" 
d="M645 1614l23 131h73l-22 -131h-74zM973 1614l22 131h74l-22 -131h-74zM121 0l246 1393h880l-10 -60h-817l-105 -585h715l-10 -60h-715l-110 -629h837l-10 -59h-901z" />
    <glyph glyph-name="Igrave" unicode="&#xcc;" horiz-adv-x="489" 
d="M457 1554l-193 250h80l174 -250h-61zM121 0l246 1393h63l-246 -1393h-63z" />
    <glyph glyph-name="Iacute" unicode="&#xcd;" horiz-adv-x="489" 
d="M334 1554l260 250h88l-279 -250h-69zM121 0l246 1393h63l-246 -1393h-63z" />
    <glyph glyph-name="Icircumflex" unicode="&#xce;" horiz-adv-x="489" 
d="M195 1554l247 250h58l162 -250h-62l-133 195l-203 -195h-69zM121 0l246 1393h63l-246 -1393h-63z" />
    <glyph glyph-name="Idieresis" unicode="&#xcf;" horiz-adv-x="489" 
d="M268 1614l23 131h74l-23 -131h-74zM535 1614l22 131h74l-23 -131h-73zM121 0l246 1393h63l-246 -1393h-63z" />
    <glyph glyph-name="Eth" unicode="&#xd0;" horiz-adv-x="1349" 
d="M834 1393q225 0 336.5 -91t111.5 -280q0 -69 -16 -160l-60 -336q-49 -276 -196.5 -401t-413.5 -125h-455l121 688h-172l10 60h172l115 645h447zM1204 866q15 86 15 148q0 169 -95 244t-295 75h-389l-104 -585h412l-11 -60h-411l-111 -629h385q239 0 370.5 113.5
t174.5 357.5z" />
    <glyph glyph-name="Ntilde" unicode="&#xd1;" horiz-adv-x="1421" 
d="M1012 1593q-63 0 -117 62q-26 29 -44 40t-40 11q-72 0 -111 -117h-51q22 83 65 126.5t103 43.5q64 0 117 -61q26 -29 44 -40t40 -11q71 0 110 116h52q-22 -83 -65 -126.5t-103 -43.5zM121 0l246 1393h77l629 -1293l227 1293h62l-246 -1393h-61l-641 1315l-232 -1315h-61z
" />
    <glyph glyph-name="Ograve" unicode="&#xd2;" horiz-adv-x="1335" 
d="M879 1554l-193 250h80l174 -250h-61zM578 -25q-216 0 -331.5 102t-115.5 296q0 63 12 133l68 383q45 259 202 393.5t406 134.5q216 0 331.5 -101.5t115.5 -295.5q0 -57 -13 -133l-67 -383q-45 -259 -202 -394t-406 -135zM578 35q463 0 548 483l64 361q12 67 12 137
q0 342 -383 342q-464 0 -549 -484l-63 -360q-12 -68 -12 -137q0 -342 383 -342z" />
    <glyph glyph-name="Oacute" unicode="&#xd3;" horiz-adv-x="1335" 
d="M756 1554l260 250h88l-279 -250h-69zM578 -25q-216 0 -331.5 102t-115.5 296q0 63 12 133l68 383q45 259 202 393.5t406 134.5q216 0 331.5 -101.5t115.5 -295.5q0 -57 -13 -133l-67 -383q-45 -259 -202 -394t-406 -135zM578 35q463 0 548 483l64 361q12 67 12 137
q0 342 -383 342q-464 0 -549 -484l-63 -360q-12 -68 -12 -137q0 -342 383 -342z" />
    <glyph glyph-name="Ocircumflex" unicode="&#xd4;" horiz-adv-x="1335" 
d="M606 1554l258 250h58l172 -250h-62l-143 195l-213 -195h-70zM578 -25q-216 0 -331.5 102t-115.5 296q0 63 12 133l68 383q45 259 202 393.5t406 134.5q216 0 331.5 -101.5t115.5 -295.5q0 -57 -13 -133l-67 -383q-45 -259 -202 -394t-406 -135zM578 35q463 0 548 483
l64 361q12 67 12 137q0 342 -383 342q-464 0 -549 -484l-63 -360q-12 -68 -12 -137q0 -342 383 -342z" />
    <glyph glyph-name="Otilde" unicode="&#xd5;" horiz-adv-x="1335" 
d="M969 1593q-63 0 -117 62q-26 29 -44 40t-40 11q-72 0 -111 -117h-51q22 83 65 126.5t103 43.5q64 0 117 -61q26 -29 44 -40t40 -11q71 0 110 116h52q-22 -83 -65 -126.5t-103 -43.5zM578 -25q-216 0 -331.5 102t-115.5 296q0 63 12 133l68 383q45 259 202 393.5
t406 134.5q216 0 331.5 -101.5t115.5 -295.5q0 -57 -13 -133l-67 -383q-45 -259 -202 -394t-406 -135zM578 35q463 0 548 483l64 361q12 67 12 137q0 342 -383 342q-464 0 -549 -484l-63 -360q-12 -68 -12 -137q0 -342 383 -342z" />
    <glyph glyph-name="Odieresis" unicode="&#xd6;" horiz-adv-x="1335" 
d="M659 1614l23 131h74l-23 -131h-74zM987 1614l23 131h73l-22 -131h-74zM578 -25q-216 0 -331.5 102t-115.5 296q0 63 12 133l68 383q45 259 202 393.5t406 134.5q216 0 331.5 -101.5t115.5 -295.5q0 -57 -13 -133l-67 -383q-45 -259 -202 -394t-406 -135zM578 35
q463 0 548 483l64 361q12 67 12 137q0 342 -383 342q-464 0 -549 -484l-63 -360q-12 -68 -12 -137q0 -342 383 -342z" />
    <glyph glyph-name="multiply" unicode="&#xd7;" horiz-adv-x="1228" 
d="M131 166l-39 45l500 426l-350 424l45 39l350 -424l500 424l39 -45l-500 -426l350 -424l-45 -39l-350 424z" />
    <glyph glyph-name="Oslash" unicode="&#xd8;" horiz-adv-x="1335" 
d="M1341 1380l-127 -143q52 -93 52 -217q0 -57 -13 -133l-67 -383q-45 -259 -202 -394t-406 -135q-250 0 -363 134l-119 -134l-41 37l127 144q-51 91 -51 217q0 63 12 133l68 383q45 259 202 393.5t406 134.5q251 0 363 -133l118 133zM195 377q0 -105 32 -170l914 1030
q-90 121 -322 121q-464 0 -549 -484l-63 -360q-12 -68 -12 -137zM1202 1016q0 103 -33 170l-913 -1030q90 -121 322 -121q463 0 548 483l64 361q12 67 12 137z" />
    <glyph glyph-name="Ugrave" unicode="&#xd9;" horiz-adv-x="1323" 
d="M872 1554l-192 250h80l174 -250h-62zM569 -25q-219 0 -321.5 80t-102.5 252q0 61 15 146l166 940h63l-166 -940q-14 -83 -14 -146q0 -149 85 -210.5t275 -61.5q237 0 352.5 95t155.5 323l166 940h62l-166 -940q-22 -125 -62 -212t-107.5 -148t-166 -89.5t-234.5 -28.5z
" />
    <glyph glyph-name="Uacute" unicode="&#xda;" horiz-adv-x="1323" 
d="M750 1554l260 250h88l-279 -250h-69zM569 -25q-219 0 -321.5 80t-102.5 252q0 61 15 146l166 940h63l-166 -940q-14 -83 -14 -146q0 -149 85 -210.5t275 -61.5q237 0 352.5 95t155.5 323l166 940h62l-166 -940q-22 -125 -62 -212t-107.5 -148t-166 -89.5t-234.5 -28.5z
" />
    <glyph glyph-name="Ucircumflex" unicode="&#xdb;" horiz-adv-x="1323" 
d="M600 1554l258 250h57l172 -250h-61l-143 195l-213 -195h-70zM569 -25q-219 0 -321.5 80t-102.5 252q0 61 15 146l166 940h63l-166 -940q-14 -83 -14 -146q0 -149 85 -210.5t275 -61.5q237 0 352.5 95t155.5 323l166 940h62l-166 -940q-22 -125 -62 -212t-107.5 -148
t-166 -89.5t-234.5 -28.5z" />
    <glyph glyph-name="Udieresis" unicode="&#xdc;" horiz-adv-x="1323" 
d="M653 1614l23 131h74l-23 -131h-74zM981 1614l23 131h73l-22 -131h-74zM569 -25q-219 0 -321.5 80t-102.5 252q0 61 15 146l166 940h63l-166 -940q-14 -83 -14 -146q0 -149 85 -210.5t275 -61.5q237 0 352.5 95t155.5 323l166 940h62l-166 -940q-22 -125 -62 -212
t-107.5 -148t-166 -89.5t-234.5 -28.5z" />
    <glyph glyph-name="Yacute" unicode="&#xdd;" horiz-adv-x="1085" 
d="M631 1554l260 250h88l-279 -250h-69zM420 0l110 629l-368 764h71l336 -701l584 701h78l-639 -770l-111 -623h-61z" />
    <glyph glyph-name="Thorn" unicode="&#xde;" horiz-adv-x="1222" 
d="M121 0l246 1393h63l-43 -242h444q204 0 292.5 -73.5t88.5 -243.5q0 -226 -135.5 -352t-380.5 -126h-448l-64 -356h-63zM258 416h444q216 0 332.5 108t116.5 307q0 145 -72.5 203t-253.5 58h-448z" />
    <glyph glyph-name="germandbls" unicode="&#xdf;" horiz-adv-x="1202" 
d="M158 0l176 991h-223l10 51h221l25 140q29 166 141 252t297 86q151 0 231 -58t80 -174q0 -82 -44.5 -152t-143.5 -145q-92 -69 -128 -121.5t-36 -117.5q0 -59 31 -93t123 -77q109 -51 146.5 -98.5t37.5 -133.5q0 -161 -120 -255.5t-335 -94.5h-104l10 55h96
q184 0 286.5 77t102.5 210q0 71 -34 112.5t-132 86.5q-98 46 -132.5 87.5t-34.5 114.5q0 80 41.5 145.5t140.5 141.5q90 69 130 130t40 130q0 174 -250 174q-329 0 -381 -290l-207 -1174h-61z" />
    <glyph glyph-name="agrave" unicode="&#xe0;" horiz-adv-x="1107" 
d="M688 1229l-192 250h79l175 -250h-62zM354 -25q-291 0 -291 256q0 171 127.5 262t350.5 91h344l22 125q8 46 8 84q0 219 -282 219q-156 0 -254.5 -66.5t-132.5 -193.5h-62q43 156 157.5 235.5t293.5 79.5q170 0 256 -70.5t86 -205.5q0 -35 -8 -82l-125 -709h-53l30 190
q-197 -215 -467 -215zM360 29q271 0 471 247l43 252h-329q-201 0 -310.5 -73t-109.5 -222q0 -104 57.5 -154t177.5 -50z" />
    <glyph glyph-name="aacute" unicode="&#xe1;" horiz-adv-x="1107" 
d="M565 1229l260 250h88l-278 -250h-70zM354 -25q-291 0 -291 256q0 171 127.5 262t350.5 91h344l22 125q8 46 8 84q0 219 -282 219q-156 0 -254.5 -66.5t-132.5 -193.5h-62q43 156 157.5 235.5t293.5 79.5q170 0 256 -70.5t86 -205.5q0 -35 -8 -82l-125 -709h-53l30 190
q-197 -215 -467 -215zM360 29q271 0 471 247l43 252h-329q-201 0 -310.5 -73t-109.5 -222q0 -104 57.5 -154t177.5 -50z" />
    <glyph glyph-name="acircumflex" unicode="&#xe2;" horiz-adv-x="1107" 
d="M416 1229l258 250h57l172 -250h-61l-144 194l-213 -194h-69zM354 -25q-291 0 -291 256q0 171 127.5 262t350.5 91h344l22 125q8 46 8 84q0 219 -282 219q-156 0 -254.5 -66.5t-132.5 -193.5h-62q43 156 157.5 235.5t293.5 79.5q170 0 256 -70.5t86 -205.5q0 -35 -8 -82
l-125 -709h-53l30 190q-197 -215 -467 -215zM360 29q271 0 471 247l43 252h-329q-201 0 -310.5 -73t-109.5 -222q0 -104 57.5 -154t177.5 -50z" />
    <glyph glyph-name="atilde" unicode="&#xe3;" horiz-adv-x="1107" 
d="M778 1268q-63 0 -116 61q-26 29 -44 40t-40 11q-72 0 -111 -116h-51q22 83 65 126.5t103 43.5q34 0 60.5 -14t55.5 -48q26 -29 44 -40t40 -11q72 0 111 117h51q-22 -83 -65 -126.5t-103 -43.5zM354 -25q-291 0 -291 256q0 171 127.5 262t350.5 91h344l22 125q8 46 8 84
q0 219 -282 219q-156 0 -254.5 -66.5t-132.5 -193.5h-62q43 156 157.5 235.5t293.5 79.5q170 0 256 -70.5t86 -205.5q0 -35 -8 -82l-125 -709h-53l30 190q-197 -215 -467 -215zM360 29q271 0 471 247l43 252h-329q-201 0 -310.5 -73t-109.5 -222q0 -104 57.5 -154t177.5 -50
z" />
    <glyph glyph-name="adieresis" unicode="&#xe4;" horiz-adv-x="1107" 
d="M469 1288l23 131h73l-22 -131h-74zM797 1288l22 131h74l-23 -131h-73zM354 -25q-291 0 -291 256q0 171 127.5 262t350.5 91h344l22 125q8 46 8 84q0 219 -282 219q-156 0 -254.5 -66.5t-132.5 -193.5h-62q43 156 157.5 235.5t293.5 79.5q170 0 256 -70.5t86 -205.5
q0 -35 -8 -82l-125 -709h-53l30 190q-197 -215 -467 -215zM360 29q271 0 471 247l43 252h-329q-201 0 -310.5 -73t-109.5 -222q0 -104 57.5 -154t177.5 -50z" />
    <glyph glyph-name="aring" unicode="&#xe5;" horiz-adv-x="1107" 
d="M668 1212q-66 0 -107 40.5t-41 103.5q0 74 53 125t129 51q66 0 107 -40t41 -103q0 -74 -53 -125.5t-129 -51.5zM670 1262q54 0 90.5 37.5t36.5 91.5q0 42 -27 67t-70 25q-54 0 -90.5 -37.5t-36.5 -91.5q0 -42 27 -67t70 -25zM354 -25q-291 0 -291 256q0 171 127.5 262
t350.5 91h344l22 125q8 46 8 84q0 219 -282 219q-156 0 -254.5 -66.5t-132.5 -193.5h-62q43 156 157.5 235.5t293.5 79.5q170 0 256 -70.5t86 -205.5q0 -35 -8 -82l-125 -709h-53l30 190q-197 -215 -467 -215zM360 29q271 0 471 247l43 252h-329q-201 0 -310.5 -73
t-109.5 -222q0 -104 57.5 -154t177.5 -50z" />
    <glyph glyph-name="ae" unicode="&#xe6;" horiz-adv-x="1853" 
d="M362 -25q-299 0 -299 256q0 171 128 262t350 91h344l22 125q8 50 8 88q0 215 -282 215q-154 0 -254 -65.5t-135 -194.5h-60q41 156 157 235.5t296 79.5q315 0 330 -244q125 244 426 244q173 0 264.5 -83.5t91.5 -248.5q0 -56 -10 -112l-19 -105h-784l-16 -90
q-11 -62 -11 -113q0 -147 75 -215.5t228 -68.5q158 0 262.5 69t139.5 199h59q-39 -156 -159.5 -240t-296.5 -84q-155 0 -248 64.5t-117 183.5q-109 -128 -229 -188t-261 -60zM944 573h725l6 37q13 73 13 127q0 139 -73 207t-226 68q-367 0 -437 -398zM369 29q137 0 254 64.5
t221 201.5v8q0 49 12 117l18 108h-329q-199 0 -309.5 -73t-110.5 -222q0 -105 59 -154.5t185 -49.5z" />
    <glyph glyph-name="ccedilla" unicode="&#xe7;" horiz-adv-x="1048" 
d="M645 1067q167 0 256.5 -79.5t89.5 -217.5q0 -31 -2 -43h-59q2 16 2 43q0 117 -71 179.5t-214 62.5q-181 0 -289.5 -102t-142.5 -296l-33 -186q-10 -56 -10 -119q0 -143 72.5 -210.5t220.5 -67.5q160 0 258 74t133 210h59q-34 -147 -138.5 -236.5t-266.5 -101.5l-74 -133
h10q77 0 111.5 -23t34.5 -75q0 -67 -54 -105t-151 -38q-93 0 -160 37l27 47q49 -37 129 -37q72 0 112 25.5t40 72.5q0 31 -25.5 42t-95.5 11h-52l95 174q-167 2 -257.5 86t-90.5 246q0 52 10 111l37 209q38 216 165 328t324 112z" />
    <glyph glyph-name="egrave" unicode="&#xe8;" horiz-adv-x="1116" 
d="M715 1229l-193 250h80l174 -250h-61zM477 -25q-179 0 -272.5 85.5t-93.5 252.5q0 58 8 105l37 209q37 212 162 326t333 114q179 0 270 -84.5t91 -245.5q0 -49 -11 -114l-18 -105h-784l-17 -90q-10 -56 -10 -115q0 -146 75 -214t228 -68q158 0 262.5 69t139.5 199h59
q-40 -156 -159 -240t-300 -84zM207 573h725l6 37q12 70 12 127q0 139 -73 207t-224 68q-368 0 -438 -398z" />
    <glyph glyph-name="eacute" unicode="&#xe9;" horiz-adv-x="1116" 
d="M592 1229l260 250h88l-278 -250h-70zM477 -25q-179 0 -272.5 85.5t-93.5 252.5q0 58 8 105l37 209q37 212 162 326t333 114q179 0 270 -84.5t91 -245.5q0 -49 -11 -114l-18 -105h-784l-17 -90q-10 -56 -10 -115q0 -146 75 -214t228 -68q158 0 262.5 69t139.5 199h59
q-40 -156 -159 -240t-300 -84zM207 573h725l6 37q12 70 12 127q0 139 -73 207t-224 68q-368 0 -438 -398z" />
    <glyph glyph-name="ecircumflex" unicode="&#xea;" horiz-adv-x="1116" 
d="M442 1229l258 250h58l172 -250h-62l-143 194l-213 -194h-70zM477 -25q-179 0 -272.5 85.5t-93.5 252.5q0 58 8 105l37 209q37 212 162 326t333 114q179 0 270 -84.5t91 -245.5q0 -49 -11 -114l-18 -105h-784l-17 -90q-10 -56 -10 -115q0 -146 75 -214t228 -68
q158 0 262.5 69t139.5 199h59q-40 -156 -159 -240t-300 -84zM207 573h725l6 37q12 70 12 127q0 139 -73 207t-224 68q-368 0 -438 -398z" />
    <glyph glyph-name="edieresis" unicode="&#xeb;" horiz-adv-x="1116" 
d="M496 1288l22 131h74l-23 -131h-73zM823 1288l23 131h74l-23 -131h-74zM477 -25q-179 0 -272.5 85.5t-93.5 252.5q0 58 8 105l37 209q37 212 162 326t333 114q179 0 270 -84.5t91 -245.5q0 -49 -11 -114l-18 -105h-784l-17 -90q-10 -56 -10 -115q0 -146 75 -214t228 -68
q158 0 262.5 69t139.5 199h59q-40 -156 -159 -240t-300 -84zM207 573h725l6 37q12 70 12 127q0 139 -73 207t-224 68q-368 0 -438 -398z" />
    <glyph glyph-name="igrave" unicode="&#xec;" horiz-adv-x="450" 
d="M379 1229l-193 250h80l174 -250h-61zM102 0l185 1042h61l-184 -1042h-62z" />
    <glyph glyph-name="iacute" unicode="&#xed;" horiz-adv-x="450" 
d="M256 1229l260 250h88l-278 -250h-70zM102 0l185 1042h61l-184 -1042h-62z" />
    <glyph glyph-name="icircumflex" unicode="&#xee;" horiz-adv-x="450" 
d="M117 1229l248 250h57l162 -250h-62l-133 194l-203 -194h-69zM102 0l185 1042h61l-184 -1042h-62z" />
    <glyph glyph-name="idieresis" unicode="&#xef;" horiz-adv-x="450" 
d="M190 1288l23 131h74l-23 -131h-74zM457 1288l22 131h74l-23 -131h-73zM102 0l185 1042h61l-184 -1042h-62z" />
    <glyph glyph-name="eth" unicode="&#xf0;" horiz-adv-x="1132" 
d="M475 -25q-181 0 -277 87t-96 247q0 45 11 109l26 151q35 200 162 312t309 112q241 0 346 -202q-28 255 -194 458l-324 -119l-16 46l307 112q-116 128 -274 207h104q124 -71 227 -186l222 82l16 -45l-205 -76q96 -121 149.5 -265.5t53.5 -289.5q0 -67 -12 -137l-29 -162
q-37 -213 -168.5 -327t-337.5 -114zM471 31q187 0 301.5 100t149.5 297l28 162q6 30 6 55q-76 293 -344 293q-163 0 -272 -99t-141 -282l-25 -139q-10 -58 -10 -111q0 -276 307 -276z" />
    <glyph glyph-name="ntilde" unicode="&#xf1;" horiz-adv-x="1153" 
d="M823 1268q-63 0 -116 61q-26 29 -44 40t-40 11q-72 0 -111 -116h-51q22 83 65 126.5t103 43.5q34 0 60.5 -14t55.5 -48q26 -29 44 -40t40 -11q72 0 111 117h51q-22 -83 -65 -126.5t-103 -43.5zM102 0l185 1042h53l-39 -237q179 262 440 262q134 0 203.5 -68t69.5 -198
q0 -47 -10 -105l-123 -696h-62l121 684q10 59 10 115q0 213 -217 213q-263 0 -446 -314l-123 -698h-62z" />
    <glyph glyph-name="ograve" unicode="&#xf2;" horiz-adv-x="1142" 
d="M725 1229l-193 250h80l174 -250h-61zM481 -25q-182 0 -277 86.5t-95 247.5q0 51 10 109l37 209q37 211 167 325.5t339 114.5q182 0 277 -86.5t95 -247.5q0 -50 -10 -108l-37 -209q-37 -211 -167 -326t-339 -115zM479 31q186 0 300.5 102t148.5 295l35 197q8 47 8 100
q0 287 -307 287q-186 0 -300.5 -102.5t-148.5 -295.5l-35 -196q-8 -47 -8 -101q0 -286 307 -286z" />
    <glyph glyph-name="oacute" unicode="&#xf3;" horiz-adv-x="1142" 
d="M602 1229l260 250h88l-278 -250h-70zM481 -25q-182 0 -277 86.5t-95 247.5q0 51 10 109l37 209q37 211 167 325.5t339 114.5q182 0 277 -86.5t95 -247.5q0 -50 -10 -108l-37 -209q-37 -211 -167 -326t-339 -115zM479 31q186 0 300.5 102t148.5 295l35 197q8 47 8 100
q0 287 -307 287q-186 0 -300.5 -102.5t-148.5 -295.5l-35 -196q-8 -47 -8 -101q0 -286 307 -286z" />
    <glyph glyph-name="ocircumflex" unicode="&#xf4;" horiz-adv-x="1142" 
d="M453 1229l258 250h57l172 -250h-61l-144 194l-213 -194h-69zM481 -25q-182 0 -277 86.5t-95 247.5q0 51 10 109l37 209q37 211 167 325.5t339 114.5q182 0 277 -86.5t95 -247.5q0 -50 -10 -108l-37 -209q-37 -211 -167 -326t-339 -115zM479 31q186 0 300.5 102t148.5 295
l35 197q8 47 8 100q0 287 -307 287q-186 0 -300.5 -102.5t-148.5 -295.5l-35 -196q-8 -47 -8 -101q0 -286 307 -286z" />
    <glyph glyph-name="otilde" unicode="&#xf5;" horiz-adv-x="1142" 
d="M815 1268q-64 0 -117 61q-26 29 -44 40t-40 11q-71 0 -110 -116h-51q22 83 65 126.5t103 43.5q34 0 60.5 -14t55.5 -48q26 -29 44 -40t40 -11q72 0 111 117h51q-22 -83 -65 -126.5t-103 -43.5zM481 -25q-182 0 -277 86.5t-95 247.5q0 51 10 109l37 209q37 211 167 325.5
t339 114.5q182 0 277 -86.5t95 -247.5q0 -50 -10 -108l-37 -209q-37 -211 -167 -326t-339 -115zM479 31q186 0 300.5 102t148.5 295l35 197q8 47 8 100q0 287 -307 287q-186 0 -300.5 -102.5t-148.5 -295.5l-35 -196q-8 -47 -8 -101q0 -286 307 -286z" />
    <glyph glyph-name="odieresis" unicode="&#xf6;" horiz-adv-x="1142" 
d="M506 1288l22 131h74l-22 -131h-74zM834 1288l22 131h74l-23 -131h-73zM481 -25q-182 0 -277 86.5t-95 247.5q0 51 10 109l37 209q37 211 167 325.5t339 114.5q182 0 277 -86.5t95 -247.5q0 -50 -10 -108l-37 -209q-37 -211 -167 -326t-339 -115zM479 31q186 0 300.5 102
t148.5 295l35 197q8 47 8 100q0 287 -307 287q-186 0 -300.5 -102.5t-148.5 -295.5l-35 -196q-8 -47 -8 -101q0 -286 307 -286z" />
    <glyph glyph-name="divide" unicode="&#xf7;" horiz-adv-x="1228" 
d="M657 967l25 143h70l-25 -143h-70zM133 602l10 57h992l-11 -57h-991zM514 154l25 143h69l-24 -143h-70z" />
    <glyph glyph-name="oslash" unicode="&#xf8;" horiz-adv-x="1142" 
d="M1096 1030l-107 -110q45 -74 45 -187q0 -50 -10 -108l-37 -209q-37 -211 -167 -326t-339 -115q-200 0 -297 105l-100 -105l-37 37l107 111q-45 74 -45 186q0 51 10 109l37 209q37 211 167 325.5t339 114.5q200 0 296 -104l101 104zM172 317q0 -87 27 -145l716 746
q-73 94 -251 94q-186 0 -300.5 -102.5t-148.5 -295.5l-35 -196q-8 -47 -8 -101zM971 725q0 87 -27 145l-717 -745q73 -94 252 -94q186 0 300.5 102t148.5 295l35 197q8 47 8 100z" />
    <glyph glyph-name="ugrave" unicode="&#xf9;" horiz-adv-x="1161" 
d="M727 1229l-192 250h79l174 -250h-61zM416 -25q-136 0 -206.5 69.5t-70.5 199.5q0 38 11 102l122 696h62l-121 -684q-10 -59 -10 -112q0 -215 221 -215q267 0 450 313l123 698h62l-185 -1042h-53l39 238q-179 -263 -444 -263z" />
    <glyph glyph-name="uacute" unicode="&#xfa;" horiz-adv-x="1161" 
d="M604 1229l260 250h88l-278 -250h-70zM416 -25q-136 0 -206.5 69.5t-70.5 199.5q0 38 11 102l122 696h62l-121 -684q-10 -59 -10 -112q0 -215 221 -215q267 0 450 313l123 698h62l-185 -1042h-53l39 238q-179 -263 -444 -263z" />
    <glyph glyph-name="ucircumflex" unicode="&#xfb;" horiz-adv-x="1161" 
d="M455 1229l258 250h57l172 -250h-61l-144 194l-213 -194h-69zM416 -25q-136 0 -206.5 69.5t-70.5 199.5q0 38 11 102l122 696h62l-121 -684q-10 -59 -10 -112q0 -215 221 -215q267 0 450 313l123 698h62l-185 -1042h-53l39 238q-179 -263 -444 -263z" />
    <glyph glyph-name="udieresis" unicode="&#xfc;" horiz-adv-x="1161" 
d="M508 1288l22 131h74l-22 -131h-74zM836 1288l22 131h74l-23 -131h-73zM416 -25q-136 0 -206.5 69.5t-70.5 199.5q0 38 11 102l122 696h62l-121 -684q-10 -59 -10 -112q0 -215 221 -215q267 0 450 313l123 698h62l-185 -1042h-53l39 238q-179 -263 -444 -263z" />
    <glyph glyph-name="yacute" unicode="&#xfd;" horiz-adv-x="933" 
d="M500 1229l260 250h88l-279 -250h-69zM-41 -373l10 56h49q81 0 128 33t104 137l115 208l-234 981h66l213 -911l514 911h63l-684 -1216q-65 -114 -125.5 -156.5t-159.5 -42.5h-59z" />
    <glyph glyph-name="thorn" unicode="&#xfe;" horiz-adv-x="1191" 
d="M37 -373l330 1868h61l-121 -690q193 262 465 262q151 0 232 -82t81 -235q0 -57 -10 -113l-43 -244q-34 -194 -151.5 -306t-294.5 -112q-133 0 -230.5 68.5t-148.5 200.5l-109 -617h-61zM588 31q157 0 255.5 99.5t129.5 277.5l41 231q10 56 10 106q0 267 -256 267
q-283 0 -481 -318l-62 -348q84 -315 363 -315z" />
    <glyph glyph-name="ydieresis" unicode="&#xff;" horiz-adv-x="933" 
d="M403 1288l23 131h74l-23 -131h-74zM731 1288l23 131h73l-22 -131h-74zM-41 -373l10 56h49q81 0 128 33t104 137l115 208l-234 981h66l213 -911l514 911h63l-684 -1216q-65 -114 -125.5 -156.5t-159.5 -42.5h-59z" />
    <glyph glyph-name="Amacron" unicode="&#x100;" horiz-adv-x="1224" 
d="M625 1653l10 53h373l-11 -53h-372zM-63 0l796 1393h66l305 -1393h-66l-90 424h-700l-244 -424h-67zM281 483h655l-182 830z" />
    <glyph glyph-name="amacron" unicode="&#x101;" horiz-adv-x="1107" 
d="M489 1327l11 53h372l-10 -53h-373zM354 -25q-291 0 -291 256q0 171 127.5 262t350.5 91h344l22 125q8 46 8 84q0 219 -282 219q-156 0 -254.5 -66.5t-132.5 -193.5h-62q43 156 157.5 235.5t293.5 79.5q170 0 256 -70.5t86 -205.5q0 -35 -8 -82l-125 -709h-53l30 190
q-197 -215 -467 -215zM360 29q271 0 471 247l43 252h-329q-201 0 -310.5 -73t-109.5 -222q0 -104 57.5 -154t177.5 -50z" />
    <glyph glyph-name="Abreve" unicode="&#x102;" horiz-adv-x="1224" 
d="M801 1569q-93 0 -140 50t-47 140v23h52v-23q0 -133 137 -133q77 0 127 41.5t69 114.5h54q-25 -101 -90 -157t-162 -56zM-63 0l796 1393h66l305 -1393h-66l-90 424h-700l-244 -424h-67zM281 483h655l-182 830z" />
    <glyph glyph-name="abreve" unicode="&#x103;" horiz-adv-x="1107" 
d="M666 1243q-93 0 -140 50.5t-47 140.5v22h51v-22q0 -134 138 -134q77 0 127 41.5t69 114.5h54q-25 -101 -90 -157t-162 -56zM354 -25q-291 0 -291 256q0 171 127.5 262t350.5 91h344l22 125q8 46 8 84q0 219 -282 219q-156 0 -254.5 -66.5t-132.5 -193.5h-62
q43 156 157.5 235.5t293.5 79.5q170 0 256 -70.5t86 -205.5q0 -35 -8 -82l-125 -709h-53l30 190q-197 -215 -467 -215zM360 29q271 0 471 247l43 252h-329q-201 0 -310.5 -73t-109.5 -222q0 -104 57.5 -154t177.5 -50z" />
    <glyph glyph-name="Aogonek" unicode="&#x104;" horiz-adv-x="1224" 
d="M838 -268q0 -82 88 -82q59 0 123 37l-11 -56q-64 -28 -118 -28q-140 0 -140 125q0 165 254 295l-86 401h-700l-244 -424h-67l796 1393h66l305 -1393h-12q-124 -60 -189 -128.5t-65 -139.5zM281 483h655l-182 830z" />
    <glyph glyph-name="aogonek" unicode="&#x105;" horiz-adv-x="1107" 
d="M635 1067q170 0 256 -70.5t86 -205.5q0 -35 -8 -82l-125 -709h-13q-124 -60 -188.5 -128.5t-64.5 -139.5q0 -82 88 -82q58 0 122 37l-10 -56q-64 -28 -119 -28q-139 0 -139 125q0 170 277 307l24 155q-197 -215 -467 -215q-291 0 -291 256q0 171 127.5 262t350.5 91h344
l22 125q8 46 8 84q0 219 -282 219q-156 0 -254.5 -66.5t-132.5 -193.5h-62q43 156 157.5 235.5t293.5 79.5zM831 276l43 252h-329q-201 0 -310.5 -73t-109.5 -222q0 -104 57.5 -154t177.5 -50q271 0 471 247z" />
    <glyph glyph-name="Cacute" unicode="&#x106;" horiz-adv-x="1253" 
d="M735 1554l260 250h88l-278 -250h-70zM563 -25q-211 0 -322.5 100t-111.5 290q0 59 14 141l68 383q46 260 196 394t394 134q204 0 314 -91.5t110 -256.5q0 -32 -4 -78h-62q4 36 4 66q0 147 -91.5 224t-270.5 77q-446 0 -531 -484l-63 -360q-14 -80 -14 -143
q0 -169 91 -252.5t277 -83.5q196 0 323 92.5t171 273.5h63q-50 -207 -192 -316.5t-363 -109.5z" />
    <glyph glyph-name="cacute" unicode="&#x107;" horiz-adv-x="1048" 
d="M580 1229l260 250h88l-279 -250h-69zM463 -25q-170 0 -262 84t-92 248q0 52 10 111l37 209q38 216 165 328t324 112q167 0 256.5 -79.5t89.5 -217.5q0 -31 -2 -43h-59q2 16 2 43q0 117 -71 179.5t-214 62.5q-181 0 -289.5 -102t-142.5 -296l-33 -186q-10 -56 -10 -119
q0 -143 72.5 -210.5t220.5 -67.5q160 0 258 74t133 210h59q-38 -158 -155 -249t-297 -91z" />
    <glyph glyph-name="Ccircumflex" unicode="&#x108;" horiz-adv-x="1253" 
d="M586 1554l258 250h57l172 -250h-61l-144 195l-213 -195h-69zM563 -25q-211 0 -322.5 100t-111.5 290q0 59 14 141l68 383q46 260 196 394t394 134q204 0 314 -91.5t110 -256.5q0 -32 -4 -78h-62q4 36 4 66q0 147 -91.5 224t-270.5 77q-446 0 -531 -484l-63 -360
q-14 -80 -14 -143q0 -169 91 -252.5t277 -83.5q196 0 323 92.5t171 273.5h63q-50 -207 -192 -316.5t-363 -109.5z" />
    <glyph glyph-name="ccircumflex" unicode="&#x109;" horiz-adv-x="1048" 
d="M430 1229l258 250h57l173 -250h-62l-143 194l-213 -194h-70zM463 -25q-170 0 -262 84t-92 248q0 52 10 111l37 209q38 216 165 328t324 112q167 0 256.5 -79.5t89.5 -217.5q0 -31 -2 -43h-59q2 16 2 43q0 117 -71 179.5t-214 62.5q-181 0 -289.5 -102t-142.5 -296
l-33 -186q-10 -56 -10 -119q0 -143 72.5 -210.5t220.5 -67.5q160 0 258 74t133 210h59q-38 -158 -155 -249t-297 -91z" />
    <glyph glyph-name="Cdotaccent" unicode="&#x10a;" horiz-adv-x="1253" 
d="M803 1614l22 131h74l-22 -131h-74zM563 -25q-211 0 -322.5 100t-111.5 290q0 59 14 141l68 383q46 260 196 394t394 134q204 0 314 -91.5t110 -256.5q0 -32 -4 -78h-62q4 36 4 66q0 147 -91.5 224t-270.5 77q-446 0 -531 -484l-63 -360q-14 -80 -14 -143
q0 -169 91 -252.5t277 -83.5q196 0 323 92.5t171 273.5h63q-50 -207 -192 -316.5t-363 -109.5z" />
    <glyph glyph-name="cdotaccent" unicode="&#x10b;" horiz-adv-x="1048" 
d="M647 1288l23 131h73l-22 -131h-74zM463 -25q-170 0 -262 84t-92 248q0 52 10 111l37 209q38 216 165 328t324 112q167 0 256.5 -79.5t89.5 -217.5q0 -31 -2 -43h-59q2 16 2 43q0 117 -71 179.5t-214 62.5q-181 0 -289.5 -102t-142.5 -296l-33 -186q-10 -56 -10 -119
q0 -143 72.5 -210.5t220.5 -67.5q160 0 258 74t133 210h59q-38 -158 -155 -249t-297 -91z" />
    <glyph glyph-name="Ccaron" unicode="&#x10c;" horiz-adv-x="1253" 
d="M801 1554l-172 250h61l144 -194l213 194h69l-258 -250h-57zM563 -25q-211 0 -322.5 100t-111.5 290q0 59 14 141l68 383q46 260 196 394t394 134q204 0 314 -91.5t110 -256.5q0 -32 -4 -78h-62q4 36 4 66q0 147 -91.5 224t-270.5 77q-446 0 -531 -484l-63 -360
q-14 -80 -14 -143q0 -169 91 -252.5t277 -83.5q196 0 323 92.5t171 273.5h63q-50 -207 -192 -316.5t-363 -109.5z" />
    <glyph glyph-name="ccaron" unicode="&#x10d;" horiz-adv-x="1048" 
d="M645 1229l-172 250h62l143 -195l213 195h70l-259 -250h-57zM463 -25q-170 0 -262 84t-92 248q0 52 10 111l37 209q38 216 165 328t324 112q167 0 256.5 -79.5t89.5 -217.5q0 -31 -2 -43h-59q2 16 2 43q0 117 -71 179.5t-214 62.5q-181 0 -289.5 -102t-142.5 -296
l-33 -186q-10 -56 -10 -119q0 -143 72.5 -210.5t220.5 -67.5q160 0 258 74t133 210h59q-38 -158 -155 -249t-297 -91z" />
    <glyph glyph-name="Dcaron" unicode="&#x10e;" horiz-adv-x="1329" 
d="M801 1554l-172 250h61l144 -194l213 194h69l-258 -250h-57zM121 0l246 1393h446q225 0 337 -91t112 -280q0 -63 -17 -160l-59 -336q-49 -276 -196.5 -401t-414.5 -125h-454zM195 59h385q239 0 370 113.5t174 357.5l60 336q14 80 14 148q0 169 -94.5 244t-294.5 75h-389z
" />
    <glyph glyph-name="dcaron" unicode="&#x10f;" horiz-adv-x="1191" 
d="M420 -25q-151 0 -232.5 82.5t-81.5 235.5q0 51 11 113l43 243q34 194 151.5 306t294.5 112q133 0 231 -68t148 -200l123 696h61l-264 -1495h-53l39 246q-196 -271 -471 -271zM1214 1116l152 379h70l-170 -379h-52zM424 31q280 0 481 317l62 348q-41 156 -133 236t-230 80
q-157 0 -255.5 -99.5t-129.5 -277.5l-41 -232q-10 -56 -10 -106q0 -266 256 -266z" />
    <glyph glyph-name="Dcroat" unicode="&#x110;" horiz-adv-x="1349" 
d="M834 1393q225 0 336.5 -91t111.5 -280q0 -69 -16 -160l-60 -336q-49 -276 -196.5 -401t-413.5 -125h-455l121 688h-172l10 60h172l115 645h447zM1204 866q15 86 15 148q0 169 -95 244t-295 75h-389l-104 -585h412l-11 -60h-411l-111 -629h385q239 0 370.5 113.5
t174.5 357.5z" />
    <glyph glyph-name="dcroat" unicode="&#x111;" horiz-adv-x="1208" 
d="M1321 1274l-10 -51h-191l-215 -1223h-53l39 246q-196 -271 -471 -271q-151 0 -232.5 82.5t-81.5 235.5q0 51 11 113l43 243q34 194 151.5 306t294.5 112q133 0 231 -68t148 -200l76 424h-295l10 51h293l39 221h61l-39 -221h191zM905 348l62 348q-41 156 -133 236t-230 80
q-157 0 -255.5 -99.5t-129.5 -277.5l-41 -232q-10 -56 -10 -106q0 -266 256 -266q280 0 481 317z" />
    <glyph glyph-name="Emacron" unicode="&#x112;" horiz-adv-x="1189" 
d="M666 1653l10 53h373l-11 -53h-372zM121 0l246 1393h880l-10 -60h-817l-105 -585h715l-10 -60h-715l-110 -629h837l-10 -59h-901z" />
    <glyph glyph-name="emacron" unicode="&#x113;" horiz-adv-x="1116" 
d="M516 1327l10 53h373l-10 -53h-373zM477 -25q-179 0 -272.5 85.5t-93.5 252.5q0 58 8 105l37 209q37 212 162 326t333 114q179 0 270 -84.5t91 -245.5q0 -49 -11 -114l-18 -105h-784l-17 -90q-10 -56 -10 -115q0 -146 75 -214t228 -68q158 0 262.5 69t139.5 199h59
q-40 -156 -159 -240t-300 -84zM207 573h725l6 37q12 70 12 127q0 139 -73 207t-224 68q-368 0 -438 -398z" />
    <glyph glyph-name="Ebreve" unicode="&#x114;" horiz-adv-x="1189" 
d="M842 1569q-93 0 -140 50t-47 140v23h52v-23q0 -133 137 -133q77 0 127 41.5t69 114.5h54q-25 -101 -90 -157t-162 -56zM121 0l246 1393h880l-10 -60h-817l-105 -585h715l-10 -60h-715l-110 -629h837l-10 -59h-901z" />
    <glyph glyph-name="ebreve" unicode="&#x115;" horiz-adv-x="1116" 
d="M692 1243q-93 0 -139.5 50.5t-46.5 140.5v22h51v-22q0 -134 137 -134q77 0 127.5 41.5t69.5 114.5h53q-25 -101 -90 -157t-162 -56zM477 -25q-179 0 -272.5 85.5t-93.5 252.5q0 58 8 105l37 209q37 212 162 326t333 114q179 0 270 -84.5t91 -245.5q0 -49 -11 -114
l-18 -105h-784l-17 -90q-10 -56 -10 -115q0 -146 75 -214t228 -68q158 0 262.5 69t139.5 199h59q-40 -156 -159 -240t-300 -84zM207 573h725l6 37q12 70 12 127q0 139 -73 207t-224 68q-368 0 -438 -398z" />
    <glyph glyph-name="Edotaccent" unicode="&#x116;" horiz-adv-x="1189" 
d="M809 1614l22 131h74l-22 -131h-74zM121 0l246 1393h880l-10 -60h-817l-105 -585h715l-10 -60h-715l-110 -629h837l-10 -59h-901z" />
    <glyph glyph-name="edotaccent" unicode="&#x117;" horiz-adv-x="1116" 
d="M659 1288l23 131h74l-23 -131h-74zM477 -25q-179 0 -272.5 85.5t-93.5 252.5q0 58 8 105l37 209q37 212 162 326t333 114q179 0 270 -84.5t91 -245.5q0 -49 -11 -114l-18 -105h-784l-17 -90q-10 -56 -10 -115q0 -146 75 -214t228 -68q158 0 262.5 69t139.5 199h59
q-40 -156 -159 -240t-300 -84zM207 573h725l6 37q12 70 12 127q0 139 -73 207t-224 68q-368 0 -438 -398z" />
    <glyph glyph-name="Eogonek" unicode="&#x118;" horiz-adv-x="1189" 
d="M1237 1333h-817l-105 -585h715l-10 -60h-715l-110 -629h837l-10 -59h-12q-124 -60 -189 -128.5t-65 -139.5q0 -82 88 -82q59 0 123 37l-11 -56q-64 -28 -118 -28q-140 0 -140 125q0 151 211 272h-788l246 1393h880z" />
    <glyph glyph-name="eogonek" unicode="&#x119;" horiz-adv-x="1116" 
d="M651 1067q179 0 270 -84.5t91 -245.5q0 -49 -11 -114l-18 -105h-784l-17 -90q-10 -56 -10 -115q0 -146 75 -214t228 -68q158 0 262.5 69t139.5 199h59q-37 -143 -139 -225q-128 -97 -187 -177.5t-59 -156.5q0 -47 22 -68.5t68 -21.5q60 0 121 37l-10 -56
q-64 -28 -121 -28q-66 0 -101.5 33.5t-35.5 97.5q0 124 139 260q-74 -19 -156 -19q-179 0 -272.5 85.5t-93.5 252.5q0 58 8 105l37 209q37 212 162 326t333 114zM938 610q12 70 12 127q0 139 -73 207t-224 68q-368 0 -438 -398l-8 -41h725z" />
    <glyph glyph-name="Ecaron" unicode="&#x11a;" horiz-adv-x="1189" 
d="M807 1554l-172 250h61l144 -194l213 194h69l-258 -250h-57zM121 0l246 1393h880l-10 -60h-817l-105 -585h715l-10 -60h-715l-110 -629h837l-10 -59h-901z" />
    <glyph glyph-name="ecaron" unicode="&#x11b;" horiz-adv-x="1116" 
d="M657 1229l-172 250h62l143 -195l213 195h70l-258 -250h-58zM477 -25q-179 0 -272.5 85.5t-93.5 252.5q0 58 8 105l37 209q37 212 162 326t333 114q179 0 270 -84.5t91 -245.5q0 -49 -11 -114l-18 -105h-784l-17 -90q-10 -56 -10 -115q0 -146 75 -214t228 -68
q158 0 262.5 69t139.5 199h59q-40 -156 -159 -240t-300 -84zM207 573h725l6 37q12 70 12 127q0 139 -73 207t-224 68q-368 0 -438 -398z" />
    <glyph glyph-name="Gcircumflex" unicode="&#x11c;" horiz-adv-x="1302" 
d="M594 1554l258 250h57l172 -250h-61l-143 195l-213 -195h-70zM573 -25q-214 0 -329 100.5t-115 289.5q0 61 12 131l72 405q44 247 203 381.5t395 134.5q202 0 313 -97t111 -269q0 -35 -6 -70h-60q5 35 5 63q0 150 -93.5 232t-267.5 82q-217 0 -359.5 -124t-179.5 -337
l-69 -393q-12 -70 -12 -129q0 -166 96 -253t286 -87q223 0 353.5 120t169.5 343l20 114h-379l11 62h440l-33 -187q-45 -255 -195 -383.5t-389 -128.5z" />
    <glyph glyph-name="gcircumflex" unicode="&#x11d;" horiz-adv-x="1191" 
d="M453 1229l258 250h57l172 -250h-61l-144 194l-213 -194h-69zM416 -397q-178 0 -271.5 67.5t-93.5 190.5q0 19 2 35h60q-2 -10 -2 -25q0 -213 305 -213q189 0 294 87t136 263l47 264q-196 -262 -467 -262q-151 0 -232 82t-81 236q0 56 10 112l37 209q34 194 151.5 306
t294.5 112q135 0 233.5 -70t147.5 -206l49 251h54l-185 -1044q-34 -194 -156.5 -294.5t-332.5 -100.5zM430 66q282 0 481 319l56 309q-84 318 -363 318q-157 0 -255.5 -99.5t-129.5 -277.5l-35 -197q-10 -56 -10 -106q0 -266 256 -266z" />
    <glyph glyph-name="Gbreve" unicode="&#x11e;" horiz-adv-x="1302" 
d="M844 1569q-93 0 -140 50t-47 140v23h52v-23q0 -133 137 -133q77 0 127 41.5t69 114.5h54q-25 -101 -90 -157t-162 -56zM573 -25q-214 0 -329 100.5t-115 289.5q0 61 12 131l72 405q44 247 203 381.5t395 134.5q202 0 313 -97t111 -269q0 -35 -6 -70h-60q5 35 5 63
q0 150 -93.5 232t-267.5 82q-217 0 -359.5 -124t-179.5 -337l-69 -393q-12 -70 -12 -129q0 -166 96 -253t286 -87q223 0 353.5 120t169.5 343l20 114h-379l11 62h440l-33 -187q-45 -255 -195 -383.5t-389 -128.5z" />
    <glyph glyph-name="gbreve" unicode="&#x11f;" horiz-adv-x="1191" 
d="M702 1243q-93 0 -139.5 50.5t-46.5 140.5v22h51v-22q0 -134 138 -134q77 0 127 41.5t69 114.5h53q-25 -101 -90 -157t-162 -56zM416 -397q-178 0 -271.5 67.5t-93.5 190.5q0 19 2 35h60q-2 -10 -2 -25q0 -213 305 -213q189 0 294 87t136 263l47 264q-196 -262 -467 -262
q-151 0 -232 82t-81 236q0 56 10 112l37 209q34 194 151.5 306t294.5 112q135 0 233.5 -70t147.5 -206l49 251h54l-185 -1044q-34 -194 -156.5 -294.5t-332.5 -100.5zM430 66q282 0 481 319l56 309q-84 318 -363 318q-157 0 -255.5 -99.5t-129.5 -277.5l-35 -197
q-10 -56 -10 -106q0 -266 256 -266z" />
    <glyph glyph-name="Gdotaccent" unicode="&#x120;" horiz-adv-x="1302" 
d="M811 1614l23 131h73l-22 -131h-74zM573 -25q-214 0 -329 100.5t-115 289.5q0 61 12 131l72 405q44 247 203 381.5t395 134.5q202 0 313 -97t111 -269q0 -35 -6 -70h-60q5 35 5 63q0 150 -93.5 232t-267.5 82q-217 0 -359.5 -124t-179.5 -337l-69 -393q-12 -70 -12 -129
q0 -166 96 -253t286 -87q223 0 353.5 120t169.5 343l20 114h-379l11 62h440l-33 -187q-45 -255 -195 -383.5t-389 -128.5z" />
    <glyph glyph-name="gdotaccent" unicode="&#x121;" horiz-adv-x="1191" 
d="M670 1288l22 131h74l-23 -131h-73zM416 -397q-178 0 -271.5 67.5t-93.5 190.5q0 19 2 35h60q-2 -10 -2 -25q0 -213 305 -213q189 0 294 87t136 263l47 264q-196 -262 -467 -262q-151 0 -232 82t-81 236q0 56 10 112l37 209q34 194 151.5 306t294.5 112q135 0 233.5 -70
t147.5 -206l49 251h54l-185 -1044q-34 -194 -156.5 -294.5t-332.5 -100.5zM430 66q282 0 481 319l56 309q-84 318 -363 318q-157 0 -255.5 -99.5t-129.5 -277.5l-35 -197q-10 -56 -10 -106q0 -266 256 -266z" />
    <glyph glyph-name="Gcommaaccent" unicode="&#x122;" horiz-adv-x="1302" 
d="M573 -25q-214 0 -329 100.5t-115 289.5q0 61 12 131l72 405q44 247 203 381.5t395 134.5q202 0 313 -97t111 -269q0 -35 -6 -70h-60q5 35 5 63q0 150 -93.5 232t-267.5 82q-217 0 -359.5 -124t-179.5 -337l-69 -393q-12 -70 -12 -129q0 -166 96 -253t286 -87
q223 0 353.5 120t169.5 343l20 114h-379l11 62h440l-33 -187q-45 -255 -195 -383.5t-389 -128.5zM430 -438l8 47q57 3 72 98h-25l19 107h74l-19 -105q-12 -72 -42.5 -108t-86.5 -39z" />
    <glyph glyph-name="gcommaaccent" unicode="&#x123;" horiz-adv-x="1191" 
d="M807 1481l-8 -47q-57 -3 -72 -99h25l-19 -106h-74l19 104q12 72 42.5 108.5t86.5 39.5zM416 -397q-178 0 -271.5 67.5t-93.5 190.5q0 19 2 35h60q-2 -10 -2 -25q0 -213 305 -213q189 0 294 87t136 263l47 264q-196 -262 -467 -262q-151 0 -232 82t-81 236q0 56 10 112
l37 209q34 194 151.5 306t294.5 112q135 0 233.5 -70t147.5 -206l49 251h54l-185 -1044q-34 -194 -156.5 -294.5t-332.5 -100.5zM430 66q282 0 481 319l56 309q-84 318 -363 318q-157 0 -255.5 -99.5t-129.5 -277.5l-35 -197q-10 -56 -10 -106q0 -266 256 -266z" />
    <glyph glyph-name="Hcircumflex" unicode="&#x124;" horiz-adv-x="1429" 
d="M655 1554l258 250h58l172 -250h-62l-143 195l-213 -195h-70zM121 0l246 1395h63l-115 -645h877l115 645h63l-246 -1395h-63l121 690h-877l-121 -690h-63z" />
    <glyph glyph-name="hcircumflex" unicode="&#x125;" horiz-adv-x="1153" 
d="M182 1657l258 250h58l172 -250h-62l-143 194l-213 -194h-70zM102 0l265 1495h61l-121 -682q175 254 434 254q134 0 203.5 -68t69.5 -198q0 -47 -10 -105l-123 -696h-62l121 684q10 59 10 115q0 213 -217 213q-263 0 -446 -314l-123 -698h-62z" />
    <glyph glyph-name="Hbar" unicode="&#x126;" horiz-adv-x="1470" 
d="M1507 1079l-10 -59h-172l-180 -1020h-64l121 690h-876l-121 -690h-64l181 1020h-172l10 59h172l55 316h64l-56 -316h877l55 316h64l-56 -316h172zM1212 750l48 270h-877l-47 -270h876z" />
    <glyph glyph-name="hbar" unicode="&#x127;" horiz-adv-x="1169" 
d="M758 1067q134 0 203 -68t69 -198q0 -47 -10 -105l-123 -696h-61l120 684q11 65 11 115q0 213 -217 213q-264 0 -447 -314l-123 -698h-61l215 1223h-191l11 51h190l39 221h61l-38 -221h292l-10 -51h-293l-71 -410q175 254 434 254z" />
    <glyph glyph-name="Itilde" unicode="&#x128;" horiz-adv-x="489" 
d="M543 1593q-32 0 -57 14.5t-56 49.5q-44 49 -80 49q-34 0 -61.5 -30.5t-44.5 -86.5h-49q22 83 63 126.5t98 43.5q32 0 57 -14t56 -49q44 -49 80 -49q34 0 61.5 30t44.5 86h50q-22 -83 -63.5 -126.5t-98.5 -43.5zM121 0l246 1393h63l-246 -1393h-63z" />
    <glyph glyph-name="itilde" unicode="&#x129;" horiz-adv-x="450" 
d="M465 1268q-32 0 -57 14t-56 49q-44 49 -80 49q-34 0 -61.5 -30t-44.5 -86h-49q22 83 63.5 126.5t98.5 43.5q32 0 56.5 -14t55.5 -50q44 -49 80 -49q34 0 62 30.5t45 86.5h49q-22 -83 -63.5 -126.5t-98.5 -43.5zM102 0l185 1042h61l-184 -1042h-62z" />
    <glyph glyph-name="Imacron" unicode="&#x12a;" horiz-adv-x="489" 
d="M268 1653l11 53h352l-10 -53h-353zM121 0l246 1393h63l-246 -1393h-63z" />
    <glyph glyph-name="imacron" unicode="&#x12b;" horiz-adv-x="450" 
d="M190 1327l11 53h352l-10 -53h-353zM102 0l185 1042h61l-184 -1042h-62z" />
    <glyph glyph-name="Ibreve" unicode="&#x12c;" horiz-adv-x="489" 
d="M434 1569q-90 0 -134 48t-44 134q0 17 2 31h49v-33q0 -59 32.5 -91t96.5 -32q75 0 124 42.5t63 113.5h53q-20 -101 -83 -157t-159 -56zM121 0l246 1393h63l-246 -1393h-63z" />
    <glyph glyph-name="ibreve" unicode="&#x12d;" horiz-adv-x="450" 
d="M356 1243q-90 0 -134 48t-44 134q0 17 2 31h49v-33q0 -59 32.5 -91t96.5 -32q75 0 124 42.5t63 113.5h53q-20 -101 -83 -157t-159 -56zM102 0l185 1042h61l-184 -1042h-62z" />
    <glyph glyph-name="Iogonek" unicode="&#x12e;" horiz-adv-x="489" 
d="M2 -268q0 -82 88 -82q57 0 127 37l-10 -56q-58 -28 -121 -28q-69 0 -105 32.5t-36 92.5q0 65 46 138.5t132 143.5l244 1383h63l-246 -1393q-182 -151 -182 -268z" />
    <glyph glyph-name="iogonek" unicode="&#x12f;" horiz-adv-x="450" 
d="M348 1425h74l-25 -143h-73zM164 0q-182 -151 -182 -268q0 -82 88 -82q57 0 127 37l-11 -56q-58 -28 -120 -28q-69 0 -105.5 32.5t-36.5 92.5q0 134 180 284l183 1030h61z" />
    <glyph glyph-name="Idotaccent" unicode="&#x130;" horiz-adv-x="489" 
d="M401 1614l23 131h74l-23 -131h-74zM121 0l246 1393h63l-246 -1393h-63z" />
    <glyph glyph-name="dotlessi" unicode="&#x131;" horiz-adv-x="450" 
d="M102 0l185 1042h61l-184 -1042h-62z" />
    <glyph glyph-name="IJ" unicode="&#x132;" horiz-adv-x="1611" 
d="M121 0l246 1393h63l-246 -1393h-63zM885 -25q-199 0 -292 81t-93 251q0 54 10 113l4 22h59l-2 -12q-12 -67 -12 -129q0 -141 79 -203.5t247 -62.5q215 0 328.5 103.5t154.5 336.5l162 918h63l-163 -932q-44 -247 -173.5 -366.5t-371.5 -119.5z" />
    <glyph glyph-name="ij" unicode="&#x133;" horiz-adv-x="901" 
d="M324 1282l24 143h74l-25 -143h-73zM774 1282l25 143h73l-24 -143h-74zM102 0l185 1042h61l-184 -1042h-62zM281 -373l10 56h41q95 0 138 45t65 166l202 1148h62l-205 -1157q-25 -140 -85.5 -199t-178.5 -59h-49z" />
    <glyph glyph-name="Jcircumflex" unicode="&#x134;" horiz-adv-x="1122" 
d="M866 1554l248 250h57l162 -250h-61l-133 195l-203 -195h-70zM395 -25q-199 0 -292 81t-93 251q0 54 10 113l5 22h59l-2 -12q-12 -68 -12 -129q0 -141 78.5 -203.5t246.5 -62.5q215 0 329 103.5t155 336.5l161 918h64l-164 -932q-44 -247 -173.5 -366.5t-371.5 -119.5z
" />
    <glyph glyph-name="jcircumflex" unicode="&#x135;" horiz-adv-x="450" 
d="M117 1229l248 250h57l162 -250h-62l-133 194l-203 -194h-69zM-170 -373l10 56h41q95 0 138 45t65 166l203 1148h61l-205 -1157q-25 -140 -85.5 -199t-178.5 -59h-49z" />
    <glyph glyph-name="Kcommaaccent" unicode="&#x136;" horiz-adv-x="1263" 
d="M121 0l246 1393h63l-151 -865l1007 865h86l-659 -568l422 -825h-72l-399 784l-402 -344l-78 -440h-63zM449 -438l8 47q56 3 71 98h-24l18 107h74l-18 -105q-12 -72 -42.5 -108t-86.5 -39z" />
    <glyph glyph-name="kcommaaccent" unicode="&#x137;" horiz-adv-x="1058" 
d="M102 0l265 1495h61l-192 -1085l778 632h86l-529 -428l353 -614h-70l-330 575l-303 -245l-57 -330h-62zM348 -438l8 47q57 3 72 98h-25l19 107h74l-19 -105q-12 -72 -42.5 -108t-86.5 -39z" />
    <glyph glyph-name="kgreenlandic" unicode="&#x138;" horiz-adv-x="1058" 
d="M102 0l185 1042h61l-112 -632l778 632h86l-529 -428l353 -614h-70l-330 575l-303 -245l-57 -330h-62z" />
    <glyph glyph-name="Lacute" unicode="&#x139;" horiz-adv-x="1071" 
d="M334 1554l260 250h88l-279 -250h-69zM121 0l246 1393h63l-235 -1334h778l-10 -59h-842z" />
    <glyph glyph-name="lacute" unicode="&#x13a;" horiz-adv-x="450" 
d="M332 1657l260 250h88l-279 -250h-69zM102 0l265 1495h61l-264 -1495h-62z" />
    <glyph glyph-name="Lcommaaccent" unicode="&#x13b;" horiz-adv-x="1071" 
d="M121 0l246 1393h63l-235 -1334h778l-10 -59h-842zM397 -438l9 47q56 3 71 98h-24l18 107h74l-19 -105q-12 -72 -42.5 -108t-86.5 -39z" />
    <glyph glyph-name="lcommaaccent" unicode="&#x13c;" horiz-adv-x="450" 
d="M102 0l265 1495h61l-264 -1495h-62zM-10 -438l8 47q57 3 72 98h-25l18 107h74l-18 -105q-12 -72 -42.5 -108t-86.5 -39z" />
    <glyph glyph-name="Lcaron" unicode="&#x13d;" horiz-adv-x="1071" 
d="M121 0l246 1393h63l-235 -1334h778l-10 -59h-842zM514 1014l152 379h69l-170 -379h-51z" />
    <glyph glyph-name="lcaron" unicode="&#x13e;" horiz-adv-x="450" 
d="M102 0l265 1495h61l-264 -1495h-62zM473 1116l152 379h69l-170 -379h-51z" />
    <glyph glyph-name="Ldot" unicode="&#x13f;" horiz-adv-x="1071" 
d="M121 0l246 1393h63l-235 -1334h778l-10 -59h-842zM754 629l28 143h84l-28 -143h-84z" />
    <glyph glyph-name="ldot" unicode="&#x140;" horiz-adv-x="450" 
d="M102 0l265 1495h61l-264 -1495h-62zM432 666l29 143h84l-29 -143h-84z" />
    <glyph glyph-name="Lslash" unicode="&#x141;" horiz-adv-x="1091" 
d="M215 59h778l-10 -59h-842l84 479l-192 -123l12 68l193 123l149 846h64l-142 -801l545 344l-12 -68l-545 -344z" />
    <glyph glyph-name="lslash" unicode="&#x142;" horiz-adv-x="491" 
d="M555 981l-12 -68l-226 -163l-133 -750h-61l123 698l-226 -163l13 67l225 164l129 729h62l-121 -678z" />
    <glyph glyph-name="Nacute" unicode="&#x143;" horiz-adv-x="1421" 
d="M799 1554l260 250h88l-279 -250h-69zM121 0l246 1393h77l629 -1293l227 1293h62l-246 -1393h-61l-641 1315l-232 -1315h-61z" />
    <glyph glyph-name="nacute" unicode="&#x144;" horiz-adv-x="1153" 
d="M610 1229l260 250h88l-278 -250h-70zM102 0l185 1042h53l-39 -237q179 262 440 262q134 0 203.5 -68t69.5 -198q0 -47 -10 -105l-123 -696h-62l121 684q10 59 10 115q0 213 -217 213q-263 0 -446 -314l-123 -698h-62z" />
    <glyph glyph-name="Ncommaaccent" unicode="&#x145;" horiz-adv-x="1421" 
d="M121 0l246 1393h77l629 -1293l227 1293h62l-246 -1393h-61l-641 1315l-232 -1315h-61zM475 -438l8 47q57 3 72 98h-25l19 107h74l-19 -105q-12 -72 -42.5 -108t-86.5 -39z" />
    <glyph glyph-name="ncommaaccent" unicode="&#x146;" horiz-adv-x="1153" 
d="M102 0l185 1042h53l-39 -237q179 262 440 262q134 0 203.5 -68t69.5 -198q0 -47 -10 -105l-123 -696h-62l121 684q10 59 10 115q0 213 -217 213q-263 0 -446 -314l-123 -698h-62zM348 -438l8 47q57 3 72 98h-25l19 107h74l-19 -105q-12 -72 -42.5 -108t-86.5 -39z" />
    <glyph glyph-name="Ncaron" unicode="&#x147;" horiz-adv-x="1421" 
d="M864 1554l-172 250h62l143 -194l213 194h70l-258 -250h-58zM121 0l246 1393h77l629 -1293l227 1293h62l-246 -1393h-61l-641 1315l-232 -1315h-61z" />
    <glyph glyph-name="ncaron" unicode="&#x148;" horiz-adv-x="1153" 
d="M676 1229l-172 250h61l144 -195l213 195h69l-258 -250h-57zM102 0l185 1042h53l-39 -237q179 262 440 262q134 0 203.5 -68t69.5 -198q0 -47 -10 -105l-123 -696h-62l121 684q10 59 10 115q0 213 -217 213q-263 0 -446 -314l-123 -698h-62z" />
    <glyph glyph-name="napostrophe" unicode="&#x149;" horiz-adv-x="1153" 
d="M276 1180l9 45q26 1 43.5 26t23.5 64l6 35h-22l20 118h74l-27 -149q-24 -134 -127 -139zM102 0l185 1042h53l-39 -237q179 262 440 262q134 0 203.5 -68t69.5 -198q0 -47 -10 -105l-123 -696h-62l121 684q10 59 10 115q0 213 -217 213q-263 0 -446 -314l-123 -698h-62z
" />
    <glyph glyph-name="Eng" unicode="&#x14a;" horiz-adv-x="1421" 
d="M776 -373l10 56h48q95 0 137.5 45t64.5 166l19 106l-641 1315l-232 -1315h-61l246 1393h77l629 -1293l227 1293h62l-266 -1508q-25 -139 -85.5 -198.5t-179.5 -59.5h-55z" />
    <glyph glyph-name="eng" unicode="&#x14b;" horiz-adv-x="1153" 
d="M541 -373l10 54h47q95 0 138 46t65 169l139 788q10 59 10 115q0 213 -217 213q-263 0 -446 -314l-123 -698h-62l185 1042h53l-39 -237q179 262 440 262q134 0 203.5 -68t69.5 -198q0 -47 -10 -105l-144 -811q-25 -140 -85.5 -199t-178.5 -59h-55z" />
    <glyph glyph-name="Omacron" unicode="&#x14c;" horiz-adv-x="1335" 
d="M680 1653l10 53h373l-10 -53h-373zM578 -25q-216 0 -331.5 102t-115.5 296q0 63 12 133l68 383q45 259 202 393.5t406 134.5q216 0 331.5 -101.5t115.5 -295.5q0 -57 -13 -133l-67 -383q-45 -259 -202 -394t-406 -135zM578 35q463 0 548 483l64 361q12 67 12 137
q0 342 -383 342q-464 0 -549 -484l-63 -360q-12 -68 -12 -137q0 -342 383 -342z" />
    <glyph glyph-name="omacron" unicode="&#x14d;" horiz-adv-x="1142" 
d="M526 1327l11 53h372l-10 -53h-373zM481 -25q-182 0 -277 86.5t-95 247.5q0 51 10 109l37 209q37 211 167 325.5t339 114.5q182 0 277 -86.5t95 -247.5q0 -50 -10 -108l-37 -209q-37 -211 -167 -326t-339 -115zM479 31q186 0 300.5 102t148.5 295l35 197q8 47 8 100
q0 287 -307 287q-186 0 -300.5 -102.5t-148.5 -295.5l-35 -196q-8 -47 -8 -101q0 -286 307 -286z" />
    <glyph glyph-name="Obreve" unicode="&#x14e;" horiz-adv-x="1335" 
d="M856 1569q-93 0 -139.5 50t-46.5 140v23h51v-23q0 -133 137 -133q77 0 127.5 41.5t69.5 114.5h53q-25 -101 -90 -157t-162 -56zM578 -25q-216 0 -331.5 102t-115.5 296q0 63 12 133l68 383q45 259 202 393.5t406 134.5q216 0 331.5 -101.5t115.5 -295.5q0 -57 -13 -133
l-67 -383q-45 -259 -202 -394t-406 -135zM578 35q463 0 548 483l64 361q12 67 12 137q0 342 -383 342q-464 0 -549 -484l-63 -360q-12 -68 -12 -137q0 -342 383 -342z" />
    <glyph glyph-name="obreve" unicode="&#x14f;" horiz-adv-x="1142" 
d="M702 1243q-93 0 -139.5 50.5t-46.5 140.5v22h51v-22q0 -134 138 -134q77 0 127 41.5t69 114.5h53q-25 -101 -90 -157t-162 -56zM481 -25q-182 0 -277 86.5t-95 247.5q0 51 10 109l37 209q37 211 167 325.5t339 114.5q182 0 277 -86.5t95 -247.5q0 -50 -10 -108l-37 -209
q-37 -211 -167 -326t-339 -115zM479 31q186 0 300.5 102t148.5 295l35 197q8 47 8 100q0 287 -307 287q-186 0 -300.5 -102.5t-148.5 -295.5l-35 -196q-8 -47 -8 -101q0 -286 307 -286z" />
    <glyph glyph-name="Ohungarumlaut" unicode="&#x150;" horiz-adv-x="1335" 
d="M633 1554l217 250h86l-240 -250h-63zM922 1554l219 250h84l-240 -250h-63zM578 -25q-216 0 -331.5 102t-115.5 296q0 63 12 133l68 383q45 259 202 393.5t406 134.5q216 0 331.5 -101.5t115.5 -295.5q0 -57 -13 -133l-67 -383q-45 -259 -202 -394t-406 -135zM578 35
q463 0 548 483l64 361q12 67 12 137q0 342 -383 342q-464 0 -549 -484l-63 -360q-12 -68 -12 -137q0 -342 383 -342z" />
    <glyph glyph-name="ohungarumlaut" unicode="&#x151;" horiz-adv-x="1142" 
d="M479 1229l217 250h86l-239 -250h-64zM768 1229l219 250h84l-240 -250h-63zM481 -25q-182 0 -277 86.5t-95 247.5q0 51 10 109l37 209q37 211 167 325.5t339 114.5q182 0 277 -86.5t95 -247.5q0 -50 -10 -108l-37 -209q-37 -211 -167 -326t-339 -115zM479 31
q186 0 300.5 102t148.5 295l35 197q8 47 8 100q0 287 -307 287q-186 0 -300.5 -102.5t-148.5 -295.5l-35 -196q-8 -47 -8 -101q0 -286 307 -286z" />
    <glyph glyph-name="OE" unicode="&#x152;" horiz-adv-x="1904" 
d="M578 0q-225 0 -337 91t-112 280q0 68 16 159l60 336q49 276 196.5 401.5t413.5 125.5h1147l-10 -60h-760l-105 -585h658l-10 -60h-658l-110 -629h780l-10 -59h-1159zM582 59h321l225 1274h-317q-239 0 -370.5 -113.5t-174.5 -357.5l-59 -336q-14 -80 -14 -147
q0 -169 94.5 -244.5t294.5 -75.5z" />
    <glyph glyph-name="oe" unicode="&#x153;" horiz-adv-x="1923" 
d="M481 -25q-182 0 -277 86.5t-95 247.5q0 49 10 111l37 207q37 211 167.5 325.5t340.5 114.5q163 0 253 -70.5t105 -203.5q119 274 438 274q176 0 267.5 -85t91.5 -247q0 -50 -11 -112l-18 -105h-784l-17 -90q-10 -56 -10 -115q0 -146 75 -214t228 -68q158 0 262 69
t139 199h60q-40 -156 -160 -240t-299 -84q-326 0 -356 277q-61 -138 -175.5 -207.5t-271.5 -69.5zM479 31q186 0 300.5 102t148.5 295l35 197q8 47 8 100q0 287 -307 287q-186 0 -300.5 -102.5t-148.5 -295.5l-35 -196q-8 -47 -8 -101q0 -286 307 -286zM1014 573h725l6 37
q12 71 12 127q0 139 -73 207t-224 68q-368 0 -438 -398z" />
    <glyph glyph-name="Racute" unicode="&#x154;" horiz-adv-x="1286" 
d="M719 1554l260 250h88l-279 -250h-69zM121 0l246 1393h510q199 0 283.5 -71t84.5 -237q0 -202 -109.5 -322t-312.5 -140l287 -623h-70l-286 618h-461l-109 -618h-63zM303 678h447q212 0 323 105t111 302q0 140 -68.5 194t-245.5 54h-450z" />
    <glyph glyph-name="racute" unicode="&#x155;" horiz-adv-x="688" 
d="M410 1229l260 250h88l-279 -250h-69zM102 0l185 1042h53l-37 -229q134 248 383 248h68l-11 -55h-55q-138 0 -237 -84t-170 -265l-117 -657h-62z" />
    <glyph glyph-name="Rcommaaccent" unicode="&#x156;" horiz-adv-x="1286" 
d="M121 0l246 1393h510q199 0 283.5 -71t84.5 -237q0 -202 -109.5 -322t-312.5 -140l287 -623h-70l-286 618h-461l-109 -618h-63zM303 678h447q212 0 323 105t111 302q0 140 -68.5 194t-245.5 54h-450zM444 -438l9 47q56 3 71 98h-24l18 107h74l-19 -105q-12 -72 -42.5 -108
t-86.5 -39z" />
    <glyph glyph-name="rcommaaccent" unicode="&#x157;" horiz-adv-x="688" 
d="M102 0l185 1042h53l-37 -229q134 248 383 248h68l-11 -55h-55q-138 0 -237 -84t-170 -265l-117 -657h-62zM-10 -438l8 47q57 3 72 98h-25l18 107h74l-18 -105q-12 -72 -42.5 -108t-86.5 -39z" />
    <glyph glyph-name="Rcaron" unicode="&#x158;" horiz-adv-x="1286" 
d="M784 1554l-172 250h62l143 -194l213 194h70l-258 -250h-58zM121 0l246 1393h510q199 0 283.5 -71t84.5 -237q0 -202 -109.5 -322t-312.5 -140l287 -623h-70l-286 618h-461l-109 -618h-63zM303 678h447q212 0 323 105t111 302q0 140 -68.5 194t-245.5 54h-450z" />
    <glyph glyph-name="rcaron" unicode="&#x159;" horiz-adv-x="688" 
d="M475 1229l-172 250h62l143 -195l213 195h70l-259 -250h-57zM102 0l185 1042h53l-37 -229q134 248 383 248h68l-11 -55h-55q-138 0 -237 -84t-170 -265l-117 -657h-62z" />
    <glyph glyph-name="Sacute" unicode="&#x15a;" horiz-adv-x="1136" 
d="M651 1554l260 250h88l-278 -250h-70zM489 -25q-212 0 -327 79.5t-115 221.5q0 32 6 70h62q-6 -34 -6 -63q0 -248 383 -248q225 0 350 104.5t125 300.5q0 103 -85.5 160t-283.5 86q-218 32 -309.5 96.5t-91.5 186.5q0 211 144.5 329.5t381.5 118.5q197 0 300 -75t103 -214
q0 -32 -6 -73h-61q6 41 6 71q0 119 -83.5 175.5t-252.5 56.5q-216 0 -342.5 -101t-126.5 -284q0 -94 79 -145.5t273 -82.5q226 -35 321 -105t95 -200q0 -223 -145 -344t-394 -121z" />
    <glyph glyph-name="sacute" unicode="&#x15b;" horiz-adv-x="1013" 
d="M526 1229l260 250h88l-278 -250h-70zM408 -25q-174 0 -268.5 64t-94.5 184q0 32 6 62h58q-7 -31 -7 -56q0 -98 78.5 -148t225.5 -50q182 0 292.5 74t110.5 206q0 89 -71 133.5t-242 63.5q-182 20 -260 71.5t-78 151.5q0 151 121.5 243.5t316.5 92.5q159 0 246.5 -63.5
t87.5 -178.5q0 -29 -6 -59h-58q4 18 4 53q0 94 -71 143.5t-203 49.5q-166 0 -271.5 -75t-105.5 -198q0 -78 68 -118.5t231 -59.5q190 -22 271 -77t81 -162q0 -163 -126.5 -255t-335.5 -92z" />
    <glyph glyph-name="Scircumflex" unicode="&#x15c;" horiz-adv-x="1136" 
d="M502 1554l258 250h57l172 -250h-61l-144 195l-213 -195h-69zM489 -25q-212 0 -327 79.5t-115 221.5q0 32 6 70h62q-6 -34 -6 -63q0 -248 383 -248q225 0 350 104.5t125 300.5q0 103 -85.5 160t-283.5 86q-218 32 -309.5 96.5t-91.5 186.5q0 211 144.5 329.5t381.5 118.5
q197 0 300 -75t103 -214q0 -32 -6 -73h-61q6 41 6 71q0 119 -83.5 175.5t-252.5 56.5q-216 0 -342.5 -101t-126.5 -284q0 -94 79 -145.5t273 -82.5q226 -35 321 -105t95 -200q0 -223 -145 -344t-394 -121z" />
    <glyph glyph-name="scircumflex" unicode="&#x15d;" horiz-adv-x="1013" 
d="M377 1229l258 250h57l172 -250h-61l-144 194l-213 -194h-69zM408 -25q-174 0 -268.5 64t-94.5 184q0 32 6 62h58q-7 -31 -7 -56q0 -98 78.5 -148t225.5 -50q182 0 292.5 74t110.5 206q0 89 -71 133.5t-242 63.5q-182 20 -260 71.5t-78 151.5q0 151 121.5 243.5
t316.5 92.5q159 0 246.5 -63.5t87.5 -178.5q0 -29 -6 -59h-58q4 18 4 53q0 94 -71 143.5t-203 49.5q-166 0 -271.5 -75t-105.5 -198q0 -78 68 -118.5t231 -59.5q190 -22 271 -77t81 -162q0 -163 -126.5 -255t-335.5 -92z" />
    <glyph glyph-name="Scedilla" unicode="&#x15e;" horiz-adv-x="1136" 
d="M723 1417q197 0 300 -75t103 -214q0 -32 -6 -73h-61q6 41 6 71q0 119 -83.5 175.5t-252.5 56.5q-216 0 -342.5 -101t-126.5 -284q0 -94 79 -145.5t273 -82.5q226 -35 321 -105t95 -200q0 -216 -134.5 -336t-369.5 -129l-71 -131h10q77 0 111 -23t34 -75q0 -67 -54 -105
t-151 -38q-92 0 -159 37l26 47q49 -37 129 -37q72 0 112 25.5t40 72.5q0 31 -25.5 42t-95.5 11h-51l94 174q-204 3 -315 82.5t-111 218.5q0 32 6 70h62q-6 -34 -6 -63q0 -248 383 -248q225 0 350 104.5t125 300.5q0 103 -85.5 160t-283.5 86q-218 32 -309.5 96.5
t-91.5 186.5q0 211 144.5 329.5t381.5 118.5z" />
    <glyph glyph-name="scedilla" unicode="&#x15f;" horiz-adv-x="1013" 
d="M924 766h-58q4 18 4 53q0 94 -71 143.5t-203 49.5q-166 0 -271.5 -75t-105.5 -198q0 -78 68 -118.5t231 -59.5q190 -22 271 -77t81 -162q0 -154 -113 -245t-304 -100l-72 -133h10q77 0 111.5 -23t34.5 -75q0 -67 -54 -105t-151 -38q-93 0 -160 37l27 47q49 -37 129 -37
q72 0 111.5 25.5t39.5 72.5q0 31 -25.5 42t-95.5 11h-51l94 174q-171 2 -263.5 66t-92.5 182q0 32 6 62h58q-7 -31 -7 -56q0 -98 78.5 -148t225.5 -50q182 0 292.5 74t110.5 206q0 89 -71 133.5t-242 63.5q-182 20 -260 71.5t-78 151.5q0 151 121.5 243.5t316.5 92.5
q159 0 246.5 -63.5t87.5 -178.5q0 -29 -6 -59z" />
    <glyph glyph-name="Scaron" unicode="&#x160;" horiz-adv-x="1136" 
d="M717 1554l-172 250h61l144 -194l213 194h69l-258 -250h-57zM489 -25q-212 0 -327 79.5t-115 221.5q0 32 6 70h62q-6 -34 -6 -63q0 -248 383 -248q225 0 350 104.5t125 300.5q0 103 -85.5 160t-283.5 86q-218 32 -309.5 96.5t-91.5 186.5q0 211 144.5 329.5t381.5 118.5
q197 0 300 -75t103 -214q0 -32 -6 -73h-61q6 41 6 71q0 119 -83.5 175.5t-252.5 56.5q-216 0 -342.5 -101t-126.5 -284q0 -94 79 -145.5t273 -82.5q226 -35 321 -105t95 -200q0 -223 -145 -344t-394 -121z" />
    <glyph glyph-name="scaron" unicode="&#x161;" horiz-adv-x="1013" 
d="M592 1229l-172 250h61l144 -195l213 195h69l-258 -250h-57zM408 -25q-174 0 -268.5 64t-94.5 184q0 32 6 62h58q-7 -31 -7 -56q0 -98 78.5 -148t225.5 -50q182 0 292.5 74t110.5 206q0 89 -71 133.5t-242 63.5q-182 20 -260 71.5t-78 151.5q0 151 121.5 243.5t316.5 92.5
q159 0 246.5 -63.5t87.5 -178.5q0 -29 -6 -59h-58q4 18 4 53q0 94 -71 143.5t-203 49.5q-166 0 -271.5 -75t-105.5 -198q0 -78 68 -118.5t231 -59.5q190 -22 271 -77t81 -162q0 -163 -126.5 -255t-335.5 -92z" />
    <glyph glyph-name="uni0162" unicode="&#x162;" horiz-adv-x="1017" 
d="M170 1393h985l-10 -60h-461l-235 -1333h-7l-80 -156h11q77 0 111 -23t34 -75q0 -67 -54 -105t-151 -38q-92 0 -159 37l26 47q49 -37 129 -37q72 0 112 25.5t40 72.5q0 31 -25.5 42t-95.5 11h-51l102 199h-6l236 1333h-461z" />
    <glyph glyph-name="uni0163" unicode="&#x163;" horiz-adv-x="665" 
d="M385 991l-123 -694q-10 -58 -10 -100q0 -76 37.5 -109t122.5 -33h129l-11 -55h-129q-25 0 -65 4l-88 -160h10q77 0 111 -23t34 -75q0 -68 -53.5 -105.5t-150.5 -37.5q-93 0 -160 37l27 47q49 -37 129 -37q72 0 111.5 25.5t39.5 72.5q0 31 -25.5 42t-95.5 11h-51l117 215
q-101 40 -101 179q0 38 11 102l123 694h-213l10 51h211l57 293h55l-51 -293h307l-10 -51h-305z" />
    <glyph glyph-name="Tcaron" unicode="&#x164;" horiz-adv-x="1017" 
d="M664 1554l-172 250h61l143 -194l213 194h70l-258 -250h-57zM385 0l236 1333h-461l10 60h985l-10 -60h-461l-235 -1333h-64z" />
    <glyph glyph-name="tcaron" unicode="&#x165;" horiz-adv-x="665" 
d="M545 1208l151 379h70l-170 -379h-51zM401 0q-108 0 -159.5 47t-51.5 148q0 38 11 102l123 694h-213l10 51h211l57 293h55l-51 -293h307l-10 -51h-305l-123 -694q-10 -58 -10 -100q0 -76 37.5 -109t122.5 -33h129l-11 -55h-129z" />
    <glyph glyph-name="Tbar" unicode="&#x166;" horiz-adv-x="1017" 
d="M1145 1333h-461l-100 -569h307l-10 -59h-308l-124 -705h-64l125 705h-307l10 59h307l101 569h-461l10 60h985z" />
    <glyph glyph-name="tbar" unicode="&#x167;" horiz-adv-x="665" 
d="M690 991h-305l-57 -319h288l-8 -51h-289l-57 -324q-10 -58 -10 -100q0 -76 37.5 -109t122.5 -33h129l-11 -55h-129q-108 0 -159.5 47t-51.5 148q0 38 11 102l57 324h-197l9 51h196l58 319h-213l10 51h211l57 293h55l-51 -293h307z" />
    <glyph glyph-name="Utilde" unicode="&#x168;" horiz-adv-x="1323" 
d="M963 1593q-63 0 -117 62q-26 29 -44 40t-40 11q-72 0 -111 -117h-51q22 83 65 126.5t103 43.5q64 0 117 -61q26 -29 44 -40t40 -11q71 0 110 116h51q-22 -83 -64.5 -126.5t-102.5 -43.5zM569 -25q-219 0 -321.5 80t-102.5 252q0 61 15 146l166 940h63l-166 -940
q-14 -83 -14 -146q0 -149 85 -210.5t275 -61.5q237 0 352.5 95t155.5 323l166 940h62l-166 -940q-22 -125 -62 -212t-107.5 -148t-166 -89.5t-234.5 -28.5z" />
    <glyph glyph-name="utilde" unicode="&#x169;" horiz-adv-x="1161" 
d="M817 1268q-64 0 -117 61q-26 29 -44 40t-40 11q-71 0 -110 -116h-51q22 83 65 126.5t103 43.5q34 0 60.5 -14t55.5 -48q26 -29 44 -40t40 -11q72 0 111 117h51q-22 -83 -65 -126.5t-103 -43.5zM416 -25q-136 0 -206.5 69.5t-70.5 199.5q0 38 11 102l122 696h62l-121 -684
q-10 -59 -10 -112q0 -215 221 -215q267 0 450 313l123 698h62l-185 -1042h-53l39 238q-179 -263 -444 -263z" />
    <glyph glyph-name="Umacron" unicode="&#x16a;" horiz-adv-x="1323" 
d="M674 1653l10 53h373l-10 -53h-373zM569 -25q-219 0 -321.5 80t-102.5 252q0 61 15 146l166 940h63l-166 -940q-14 -83 -14 -146q0 -149 85 -210.5t275 -61.5q237 0 352.5 95t155.5 323l166 940h62l-166 -940q-22 -125 -62 -212t-107.5 -148t-166 -89.5t-234.5 -28.5z" />
    <glyph glyph-name="umacron" unicode="&#x16b;" horiz-adv-x="1161" 
d="M528 1327l11 53h372l-10 -53h-373zM416 -25q-136 0 -206.5 69.5t-70.5 199.5q0 38 11 102l122 696h62l-121 -684q-10 -59 -10 -112q0 -215 221 -215q267 0 450 313l123 698h62l-185 -1042h-53l39 238q-179 -263 -444 -263z" />
    <glyph glyph-name="Ubreve" unicode="&#x16c;" horiz-adv-x="1323" 
d="M850 1569q-93 0 -139.5 50t-46.5 140v23h51v-23q0 -133 137 -133q77 0 127.5 41.5t69.5 114.5h53q-25 -101 -90 -157t-162 -56zM569 -25q-219 0 -321.5 80t-102.5 252q0 61 15 146l166 940h63l-166 -940q-14 -83 -14 -146q0 -149 85 -210.5t275 -61.5q237 0 352.5 95
t155.5 323l166 940h62l-166 -940q-22 -125 -62 -212t-107.5 -148t-166 -89.5t-234.5 -28.5z" />
    <glyph glyph-name="ubreve" unicode="&#x16d;" horiz-adv-x="1161" 
d="M705 1243q-93 0 -140 50.5t-47 140.5v22h51v-22q0 -134 138 -134q77 0 127 41.5t69 114.5h53q-25 -101 -89.5 -157t-161.5 -56zM416 -25q-136 0 -206.5 69.5t-70.5 199.5q0 38 11 102l122 696h62l-121 -684q-10 -59 -10 -112q0 -215 221 -215q267 0 450 313l123 698h62
l-185 -1042h-53l39 238q-179 -263 -444 -263z" />
    <glyph glyph-name="Uring" unicode="&#x16e;" horiz-adv-x="1323" 
d="M852 1538q-66 0 -106.5 40t-40.5 103q0 74 53 125.5t129 51.5q66 0 106.5 -40.5t40.5 -103.5q0 -74 -53 -125t-129 -51zM854 1587q54 0 90.5 37.5t36.5 91.5q0 42 -26.5 67t-69.5 25q-54 0 -90.5 -37.5t-36.5 -91.5q0 -42 26.5 -67t69.5 -25zM569 -25q-219 0 -321.5 80
t-102.5 252q0 61 15 146l166 940h63l-166 -940q-14 -83 -14 -146q0 -149 85 -210.5t275 -61.5q237 0 352.5 95t155.5 323l166 940h62l-166 -940q-22 -125 -62 -212t-107.5 -148t-166 -89.5t-234.5 -28.5z" />
    <glyph glyph-name="uring" unicode="&#x16f;" horiz-adv-x="1161" 
d="M707 1212q-66 0 -107 40.5t-41 103.5q0 74 53 125t129 51q66 0 107 -40t41 -103q0 -74 -53 -125.5t-129 -51.5zM709 1262q54 0 90.5 37.5t36.5 91.5q0 42 -27 67t-70 25q-54 0 -90.5 -37.5t-36.5 -91.5q0 -42 27 -67t70 -25zM416 -25q-136 0 -206.5 69.5t-70.5 199.5
q0 38 11 102l122 696h62l-121 -684q-10 -59 -10 -112q0 -215 221 -215q267 0 450 313l123 698h62l-185 -1042h-53l39 238q-179 -263 -444 -263z" />
    <glyph glyph-name="Uhungarumlaut" unicode="&#x170;" horiz-adv-x="1323" 
d="M627 1554l217 250h86l-240 -250h-63zM915 1554l220 250h84l-240 -250h-64zM569 -25q-219 0 -321.5 80t-102.5 252q0 61 15 146l166 940h63l-166 -940q-14 -83 -14 -146q0 -149 85 -210.5t275 -61.5q237 0 352.5 95t155.5 323l166 940h62l-166 -940q-22 -125 -62 -212
t-107.5 -148t-166 -89.5t-234.5 -28.5z" />
    <glyph glyph-name="uhungarumlaut" unicode="&#x171;" horiz-adv-x="1161" 
d="M481 1229l217 250h86l-239 -250h-64zM770 1229l219 250h84l-239 -250h-64zM416 -25q-136 0 -206.5 69.5t-70.5 199.5q0 38 11 102l122 696h62l-121 -684q-10 -59 -10 -112q0 -215 221 -215q267 0 450 313l123 698h62l-185 -1042h-53l39 238q-179 -263 -444 -263z" />
    <glyph glyph-name="Uogonek" unicode="&#x172;" horiz-adv-x="1323" 
d="M1243 1393h62l-166 -940q-36 -202 -125 -313.5t-258 -147.5q-124 -49 -193 -117.5t-69 -142.5q0 -82 88 -82q64 0 123 37l-11 -56q-60 -28 -121 -28q-66 0 -101.5 32t-35.5 93q0 140 185 249q-16 -2 -52 -2q-219 0 -321.5 80t-102.5 252q0 61 15 146l166 940h63
l-166 -940q-14 -83 -14 -146q0 -149 85 -210.5t275 -61.5q237 0 352.5 95t155.5 323z" />
    <glyph glyph-name="uogonek" unicode="&#x173;" horiz-adv-x="1161" 
d="M862 0q-124 -60 -189 -128.5t-65 -139.5q0 -82 88 -82q59 0 123 37l-10 -56q-64 -28 -119 -28q-139 0 -139 125q0 171 276 307l33 203q-179 -263 -444 -263q-136 0 -206.5 69.5t-70.5 199.5q0 38 11 102l122 696h62l-121 -684q-10 -59 -10 -112q0 -215 221 -215
q267 0 450 313l123 698h62l-185 -1042h-12z" />
    <glyph glyph-name="Wcircumflex" unicode="&#x174;" horiz-adv-x="1794" 
d="M836 1554l258 250h57l172 -250h-61l-144 195l-213 -195h-69zM346 0l-164 1393h64l151 -1297l619 1297h67l160 -1297l610 1297h66l-655 -1393h-68l-164 1290l-618 -1290h-68z" />
    <glyph glyph-name="wcircumflex" unicode="&#x175;" horiz-adv-x="1574" 
d="M670 1229l258 250h57l172 -250h-61l-144 194l-213 -194h-69zM303 0l-172 1042h64l155 -964l496 964h63l156 -966l498 966h65l-541 -1042h-69l-156 952l-491 -952h-68z" />
    <glyph glyph-name="Ycircumflex" unicode="&#x176;" horiz-adv-x="1085" 
d="M481 1554l258 250h58l172 -250h-62l-143 195l-213 -195h-70zM420 0l110 629l-368 764h71l336 -701l584 701h78l-639 -770l-111 -623h-61z" />
    <glyph glyph-name="ycircumflex" unicode="&#x177;" horiz-adv-x="933" 
d="M350 1229l258 250h58l172 -250h-62l-143 194l-213 -194h-70zM-41 -373l10 56h49q81 0 128 33t104 137l115 208l-234 981h66l213 -911l514 911h63l-684 -1216q-65 -114 -125.5 -156.5t-159.5 -42.5h-59z" />
    <glyph glyph-name="Ydieresis" unicode="&#x178;" horiz-adv-x="1085" 
d="M535 1614l22 131h74l-23 -131h-73zM862 1614l23 131h73l-22 -131h-74zM420 0l110 629l-368 764h71l336 -701l584 701h78l-639 -770l-111 -623h-61z" />
    <glyph glyph-name="Zacute" unicode="&#x179;" horiz-adv-x="1097" 
d="M645 1554l260 250h88l-278 -250h-70zM-27 0l11 55l1089 1278h-827l10 60h911l-10 -56l-1089 -1278h882l-10 -59h-967z" />
    <glyph glyph-name="zacute" unicode="&#x17a;" horiz-adv-x="917" 
d="M496 1229l260 250h88l-279 -250h-69zM-25 0l9 47l850 940h-641l10 55h725l-8 -47l-850 -940h694l-10 -55h-779z" />
    <glyph glyph-name="Zdotaccent" unicode="&#x17b;" horiz-adv-x="1097" 
d="M713 1614l22 131h74l-23 -131h-73zM-27 0l11 55l1089 1278h-827l10 60h911l-10 -56l-1089 -1278h882l-10 -59h-967z" />
    <glyph glyph-name="zdotaccent" unicode="&#x17c;" horiz-adv-x="917" 
d="M563 1288l23 131h73l-22 -131h-74zM-25 0l9 47l850 940h-641l10 55h725l-8 -47l-850 -940h694l-10 -55h-779z" />
    <glyph glyph-name="Zcaron" unicode="&#x17d;" horiz-adv-x="1097" 
d="M711 1554l-172 250h61l143 -194l213 194h70l-258 -250h-57zM-27 0l11 55l1089 1278h-827l10 60h911l-10 -56l-1089 -1278h882l-10 -59h-967z" />
    <glyph glyph-name="zcaron" unicode="&#x17e;" horiz-adv-x="917" 
d="M561 1229l-172 250h62l143 -195l213 195h70l-259 -250h-57zM-25 0l9 47l850 940h-641l10 55h725l-8 -47l-850 -940h694l-10 -55h-779z" />
    <glyph glyph-name="florin" unicode="&#x192;" horiz-adv-x="1228" 
d="M6 -123l14 55h111q113 0 182.5 59.5t112.5 203.5l203 677h-299l10 56h305l62 202q50 162 132.5 233t223.5 71h145l-16 -56h-133q-118 0 -185 -59t-110 -201l-57 -190h356l-10 -56h-363l-205 -690q-48 -160 -131 -232.5t-223 -72.5h-125z" />
    <glyph glyph-name="Aringacute" unicode="&#x1fa;" horiz-adv-x="1224" 
d="M762 1905l260 249h88l-279 -249h-69zM795 1495q-66 0 -107 40t-41 103q0 74 53 125.5t129 51.5q66 0 107 -40.5t41 -103.5q0 -74 -53 -125t-129 -51zM797 1544q54 0 90.5 37.5t36.5 91.5q0 42 -27 67t-70 25q-54 0 -90.5 -37.5t-36.5 -91.5q0 -42 27 -67t70 -25zM-63 0
l796 1393h66l305 -1393h-66l-90 424h-700l-244 -424h-67zM281 483h655l-182 830z" />
    <glyph glyph-name="aringacute" unicode="&#x1fb;" horiz-adv-x="1107" 
d="M627 1579l260 250h88l-279 -250h-69zM659 1169q-66 0 -106.5 40.5t-40.5 103.5q0 74 53 125t129 51q66 0 107 -40t41 -103q0 -74 -53.5 -125.5t-129.5 -51.5zM662 1219q54 0 90 37.5t36 91.5q0 42 -26.5 67t-69.5 25q-54 0 -90.5 -37.5t-36.5 -91.5q0 -42 27 -67t70 -25z
M354 -25q-291 0 -291 256q0 171 127.5 262t350.5 91h344l22 125q8 46 8 84q0 219 -282 219q-156 0 -254.5 -66.5t-132.5 -193.5h-62q43 156 157.5 235.5t293.5 79.5q170 0 256 -70.5t86 -205.5q0 -35 -8 -82l-125 -709h-53l30 190q-197 -215 -467 -215zM360 29
q271 0 471 247l43 252h-329q-201 0 -310.5 -73t-109.5 -222q0 -104 57.5 -154t177.5 -50z" />
    <glyph glyph-name="AEacute" unicode="&#x1fc;" horiz-adv-x="1832" 
d="M1028 1554l260 250h88l-278 -250h-70zM-84 0l1128 1393h846l-10 -60h-760l-104 -585h657l-10 -60h-657l-111 -629h780l-10 -59h-844l76 424h-565l-344 -424h-72zM381 483h526l146 832z" />
    <glyph glyph-name="aeacute" unicode="&#x1fd;" horiz-adv-x="1853" 
d="M946 1229l260 250h88l-278 -250h-70zM362 -25q-299 0 -299 256q0 171 128 262t350 91h344l22 125q8 50 8 88q0 215 -282 215q-154 0 -254 -65.5t-135 -194.5h-60q41 156 157 235.5t296 79.5q315 0 330 -244q125 244 426 244q173 0 264.5 -83.5t91.5 -248.5
q0 -56 -10 -112l-19 -105h-784l-16 -90q-11 -62 -11 -113q0 -147 75 -215.5t228 -68.5q158 0 262.5 69t139.5 199h59q-39 -156 -159.5 -240t-296.5 -84q-155 0 -248 64.5t-117 183.5q-109 -128 -229 -188t-261 -60zM944 573h725l6 37q13 73 13 127q0 139 -73 207t-226 68
q-367 0 -437 -398zM369 29q137 0 254 64.5t221 201.5v8q0 49 12 117l18 108h-329q-199 0 -309.5 -73t-110.5 -222q0 -105 59 -154.5t185 -49.5z" />
    <glyph glyph-name="Oslashacute" unicode="&#x1fe;" horiz-adv-x="1335" 
d="M1104 1804l-279 -250h-69l260 250h88zM1341 1380l-127 -143q52 -93 52 -217q0 -57 -13 -133l-67 -383q-45 -259 -202 -394t-406 -135q-250 0 -363 134l-119 -134l-41 37l127 144q-51 91 -51 217q0 63 12 133l68 383q45 259 202 393.5t406 134.5q251 0 363 -133l118 133z
M195 377q0 -105 32 -170l914 1030q-90 121 -322 121q-464 0 -549 -484l-63 -360q-12 -68 -12 -137zM1202 1016q0 103 -33 170l-913 -1030q90 -121 322 -121q463 0 548 483l64 361q12 67 12 137z" />
    <glyph glyph-name="oslashacute" unicode="&#x1ff;" horiz-adv-x="1142" 
d="M950 1479l-278 -250h-70l260 250h88zM1096 1030l-107 -110q45 -74 45 -187q0 -50 -10 -108l-37 -209q-37 -211 -167 -326t-339 -115q-200 0 -297 105l-100 -105l-37 37l107 111q-45 74 -45 186q0 51 10 109l37 209q37 211 167 325.5t339 114.5q200 0 296 -104l101 104z
M172 317q0 -87 27 -145l716 746q-73 94 -251 94q-186 0 -300.5 -102.5t-148.5 -295.5l-35 -196q-8 -47 -8 -101zM971 725q0 87 -27 145l-717 -745q73 -94 252 -94q186 0 300.5 102t148.5 295l35 197q8 47 8 100z" />
    <glyph glyph-name="Scommaaccent" unicode="&#x218;" horiz-adv-x="1136" 
d="M489 -25q-212 0 -327 79.5t-115 221.5q0 32 6 70h62q-6 -34 -6 -63q0 -248 383 -248q225 0 350 104.5t125 300.5q0 103 -85.5 160t-283.5 86q-218 32 -309.5 96.5t-91.5 186.5q0 211 144.5 329.5t381.5 118.5q197 0 300 -75t103 -214q0 -32 -6 -73h-61q6 41 6 71
q0 119 -83.5 175.5t-252.5 56.5q-216 0 -342.5 -101t-126.5 -284q0 -94 79 -145.5t273 -82.5q226 -35 321 -105t95 -200q0 -223 -145 -344t-394 -121zM365 -438l8 47q56 3 71 98h-24l18 107h74l-18 -105q-12 -72 -42.5 -108t-86.5 -39z" />
    <glyph glyph-name="scommaaccent" unicode="&#x219;" horiz-adv-x="1013" 
d="M408 -25q-174 0 -268.5 64t-94.5 184q0 32 6 62h58q-7 -31 -7 -56q0 -98 78.5 -148t225.5 -50q182 0 292.5 74t110.5 206q0 89 -71 133.5t-242 63.5q-182 20 -260 71.5t-78 151.5q0 151 121.5 243.5t316.5 92.5q159 0 246.5 -63.5t87.5 -178.5q0 -29 -6 -59h-58
q4 18 4 53q0 94 -71 143.5t-203 49.5q-166 0 -271.5 -75t-105.5 -198q0 -78 68 -118.5t231 -59.5q190 -22 271 -77t81 -162q0 -163 -126.5 -255t-335.5 -92zM293 -438l8 47q57 3 72 98h-25l19 107h73l-18 -105q-12 -72 -42.5 -108t-86.5 -39z" />
    <glyph glyph-name="uni021A" unicode="&#x21a;" horiz-adv-x="1017" 
d="M385 0l236 1333h-461l10 60h985l-10 -60h-461l-235 -1333h-64zM274 -438l9 47q56 3 71 98h-24l18 107h74l-19 -105q-12 -72 -42.5 -108t-86.5 -39z" />
    <glyph glyph-name="uni021B" unicode="&#x21b;" horiz-adv-x="665" 
d="M401 0q-108 0 -159.5 47t-51.5 148q0 38 11 102l123 694h-213l10 51h211l57 293h55l-51 -293h307l-10 -51h-305l-123 -694q-10 -58 -10 -100q0 -76 37.5 -109t122.5 -33h129l-11 -55h-129zM160 -438l8 47q57 3 72 98h-25l18 107h74l-18 -105q-12 -72 -42.5 -108
t-86.5 -39z" />
    <glyph glyph-name="uni0237" unicode="&#x237;" horiz-adv-x="450" 
d="M-170 -373l10 56h41q95 0 138 45t65 166l203 1148h61l-205 -1157q-25 -140 -85.5 -199t-178.5 -59h-49z" />
    <glyph glyph-name="uni02BC" unicode="&#x2bc;" horiz-adv-x="225" 
d="M178 1180l8 45q26 1 44 26t24 64l6 35h-22l20 118h74l-27 -149q-24 -134 -127 -139z" />
    <glyph glyph-name="circumflex" unicode="&#x2c6;" horiz-adv-x="1024" 
d="M393 1229l258 250h58l172 -250h-62l-143 194l-213 -194h-70z" />
    <glyph glyph-name="caron" unicode="&#x2c7;" horiz-adv-x="1024" 
d="M608 1229l-172 250h62l143 -195l213 195h70l-258 -250h-58z" />
    <glyph glyph-name="uni02C9" unicode="&#x2c9;" horiz-adv-x="1024" 
d="M467 1327l10 53h373l-10 -53h-373z" />
    <glyph glyph-name="breve" unicode="&#x2d8;" horiz-adv-x="1024" 
d="M643 1243q-93 0 -139.5 50.5t-46.5 140.5v22h51v-22q0 -134 137 -134q77 0 127.5 41.5t69.5 114.5h53q-25 -101 -90 -157t-162 -56z" />
    <glyph glyph-name="dotaccent" unicode="&#x2d9;" horiz-adv-x="1024" 
d="M610 1288l23 131h74l-23 -131h-74z" />
    <glyph glyph-name="ring" unicode="&#x2da;" horiz-adv-x="1024" 
d="M645 1212q-66 0 -106.5 40.5t-40.5 103.5q0 74 53 125t129 51q66 0 106.5 -40t40.5 -103q0 -74 -53 -125.5t-129 -51.5zM647 1262q54 0 90.5 37.5t36.5 91.5q0 42 -26.5 67t-69.5 25q-54 0 -90.5 -37.5t-36.5 -91.5q0 -42 26.5 -67t69.5 -25z" />
    <glyph glyph-name="ogonek" unicode="&#x2db;" horiz-adv-x="1024" 
d="M373 -397q-140 0 -140 125q0 177 291 313l29 -37q-127 -60 -194.5 -130t-67.5 -142q0 -82 88 -82q59 0 123 37l-10 -56q-64 -28 -119 -28z" />
    <glyph glyph-name="tilde" unicode="&#x2dc;" horiz-adv-x="1024" 
d="M756 1268q-64 0 -117 61q-26 29 -44 40t-40 11q-72 0 -111 -116h-51q22 83 65 126.5t103 43.5q63 0 117 -62q26 -29 44 -40t40 -11q71 0 110 117h52q-22 -83 -65 -126.5t-103 -43.5z" />
    <glyph glyph-name="hungarumlaut" unicode="&#x2dd;" horiz-adv-x="1024" 
d="M420 1229l217 250h86l-240 -250h-63zM709 1229l219 250h84l-240 -250h-63z" />
    <glyph glyph-name="gravecomb" unicode="&#x300;" horiz-adv-x="0" 
d="M154 1229l-193 250h80l174 -250h-61z" />
    <glyph glyph-name="acutecomb" unicode="&#x301;" horiz-adv-x="0" 
d="M31 1229l260 250h88l-279 -250h-69z" />
    <glyph glyph-name="uni0302" unicode="&#x302;" horiz-adv-x="0" 
d="M-119 1229l258 250h58l172 -250h-62l-143 194l-213 -194h-70z" />
    <glyph glyph-name="tildecomb" unicode="&#x303;" horiz-adv-x="0" 
d="M244 1268q-64 0 -117 61q-26 29 -44 40t-40 11q-72 0 -111 -116h-51q22 83 65 126.5t103 43.5q63 0 117 -62q26 -29 44 -40t40 -11q71 0 110 117h52q-22 -83 -65 -126.5t-103 -43.5z" />
    <glyph glyph-name="uni0304" unicode="&#x304;" horiz-adv-x="0" 
d="M-45 1327l10 53h373l-10 -53h-373z" />
    <glyph glyph-name="uni0306" unicode="&#x306;" horiz-adv-x="0" 
d="M131 1243q-93 0 -139.5 50.5t-46.5 140.5v22h51v-22q0 -134 137 -134q77 0 127.5 41.5t69.5 114.5h53q-25 -101 -90 -157t-162 -56z" />
    <glyph glyph-name="uni0307" unicode="&#x307;" horiz-adv-x="0" 
d="M98 1288l23 131h74l-23 -131h-74z" />
    <glyph glyph-name="uni0308" unicode="&#x308;" horiz-adv-x="0" 
d="M-66 1288l23 131h74l-23 -131h-74zM262 1288l23 131h73l-22 -131h-74z" />
    <glyph glyph-name="uni030A" unicode="&#x30a;" horiz-adv-x="0" 
d="M133 1212q-66 0 -106.5 40.5t-40.5 103.5q0 74 53 125t129 51q66 0 106.5 -40t40.5 -103q0 -74 -53 -125.5t-129 -51.5zM135 1262q54 0 90.5 37.5t36.5 91.5q0 42 -26.5 67t-69.5 25q-54 0 -90.5 -37.5t-36.5 -91.5q0 -42 26.5 -67t69.5 -25z" />
    <glyph glyph-name="uni030B" unicode="&#x30b;" horiz-adv-x="0" 
d="M-92 1229l217 250h86l-240 -250h-63zM197 1229l219 250h84l-240 -250h-63z" />
    <glyph glyph-name="uni030C" unicode="&#x30c;" horiz-adv-x="0" 
d="M96 1229l-172 250h62l143 -195l213 195h70l-258 -250h-58z" />
    <glyph glyph-name="uni0312" unicode="&#x312;" horiz-adv-x="0" 
d="M88 1231l18 104q12 72 43 108.5t87 39.5l-9 -47q-55 -3 -71 -99h24l-18 -106h-74z" />
    <glyph glyph-name="uni0326" unicode="&#x326;" horiz-adv-x="0" 
d="M-236 -438l9 47q56 3 71 98h-24l18 107h74l-18 -105q-12 -72 -43 -108t-87 -39z" />
    <glyph glyph-name="uni0327" unicode="&#x327;" horiz-adv-x="0" 
d="M-197 -397q-92 0 -159 37l26 47q49 -37 129 -37q72 0 112 25.5t40 72.5q0 31 -25.5 42t-95.5 11h-51l125 230h51l-102 -187h10q77 0 111 -23t34 -75q0 -67 -54 -105t-151 -38z" />
    <glyph glyph-name="uni0328" unicode="&#x328;" horiz-adv-x="0" 
d="M-139 -397q-140 0 -140 125q0 177 291 313l29 -37q-127 -60 -194.5 -130t-67.5 -142q0 -82 88 -82q59 0 123 37l-10 -56q-64 -28 -119 -28z" />
    <glyph glyph-name="uni0394" unicode="&#x394;" horiz-adv-x="1210" 
d="M-63 0l788 1393h68l297 -1393h-1153zM37 59h975l-267 1250z" />
    <glyph glyph-name="uni03A9" unicode="&#x3a9;" horiz-adv-x="1335" 
d="M63 0l11 59h225q-78 44 -121 134t-43 210q0 57 10 113l66 371q45 262 202 396t408 134q219 0 332 -102.5t113 -292.5q0 -61 -13 -137l-65 -373q-27 -157 -110.5 -277t-200.5 -176h221l-11 -59h-401l8 49q169 23 284 150.5t148 316.5l64 363q14 82 14 143q0 336 -385 336
q-464 0 -549 -486l-63 -360q-10 -59 -10 -115q0 -154 71.5 -240.5t204.5 -107.5l-8 -49h-402z" />
    <glyph glyph-name="uni03BC" unicode="&#x3bc;" horiz-adv-x="1175" 
d="M37 -373l250 1415h61l-121 -688q-10 -65 -10 -108q0 -215 219 -215q268 0 453 317l123 694h61l-184 -1042h-53l38 242q-181 -267 -442 -267q-192 0 -246 146l-88 -494h-61z" />
    <glyph glyph-name="pi" unicode="&#x3c0;" horiz-adv-x="1191" 
d="M158 0l174 987h-221l10 55h1120l-10 -55h-221l-127 -719q-11 -64 -11 -92q0 -65 31.5 -93t100.5 -28h59l-10 -55h-60q-94 0 -138 41.5t-44 130.5q0 38 10 96l127 719h-555l-174 -987h-61z" />
    <glyph glyph-name="Wgrave" unicode="&#x1e80;" horiz-adv-x="1794" 
d="M1108 1554l-193 250h80l174 -250h-61zM346 0l-164 1393h64l151 -1297l619 1297h67l160 -1297l610 1297h66l-655 -1393h-68l-164 1290l-618 -1290h-68z" />
    <glyph glyph-name="wgrave" unicode="&#x1e81;" horiz-adv-x="1574" 
d="M942 1229l-192 250h79l175 -250h-62zM303 0l-172 1042h64l155 -964l496 964h63l156 -966l498 966h65l-541 -1042h-69l-156 952l-491 -952h-68z" />
    <glyph glyph-name="Wacute" unicode="&#x1e82;" horiz-adv-x="1794" 
d="M985 1554l260 250h88l-278 -250h-70zM346 0l-164 1393h64l151 -1297l619 1297h67l160 -1297l610 1297h66l-655 -1393h-68l-164 1290l-618 -1290h-68z" />
    <glyph glyph-name="wacute" unicode="&#x1e83;" horiz-adv-x="1574" 
d="M819 1229l260 250h88l-278 -250h-70zM303 0l-172 1042h64l155 -964l496 964h63l156 -966l498 966h65l-541 -1042h-69l-156 952l-491 -952h-68z" />
    <glyph glyph-name="Wdieresis" unicode="&#x1e84;" horiz-adv-x="1794" 
d="M889 1614l22 131h74l-22 -131h-74zM1217 1614l22 131h74l-23 -131h-73zM346 0l-164 1393h64l151 -1297l619 1297h67l160 -1297l610 1297h66l-655 -1393h-68l-164 1290l-618 -1290h-68z" />
    <glyph glyph-name="wdieresis" unicode="&#x1e85;" horiz-adv-x="1574" 
d="M723 1288l22 131h74l-22 -131h-74zM1051 1288l22 131h74l-23 -131h-73zM303 0l-172 1042h64l155 -964l496 964h63l156 -966l498 966h65l-541 -1042h-69l-156 952l-491 -952h-68z" />
    <glyph glyph-name="uni1E9E" unicode="&#x1e9e;" horiz-adv-x="1269" 
d="M80 0l174 987q37 209 165 307.5t363 98.5h473l-10 -56l-524 -559h39q235 0 333.5 -73t98.5 -246q0 -218 -133.5 -338.5t-376.5 -120.5h-246l10 59h234q216 0 331 103t115 293q0 148 -83.5 206t-297.5 58h-118l8 51l528 563h-385q-210 0 -319.5 -82t-141.5 -264l-174 -987
h-63z" />
    <glyph glyph-name="Ygrave" unicode="&#x1ef2;" horiz-adv-x="1085" 
d="M754 1554l-193 250h80l174 -250h-61zM420 0l110 629l-368 764h71l336 -701l584 701h78l-639 -770l-111 -623h-61z" />
    <glyph glyph-name="ygrave" unicode="&#x1ef3;" horiz-adv-x="933" 
d="M623 1229l-193 250h80l174 -250h-61zM-41 -373l10 56h49q81 0 128 33t104 137l115 208l-234 981h66l213 -911l514 911h63l-684 -1216q-65 -114 -125.5 -156.5t-159.5 -42.5h-59z" />
    <glyph glyph-name="uni2002" unicode="&#x2002;" horiz-adv-x="1024" 
 />
    <glyph glyph-name="uni2003" unicode="&#x2003;" horiz-adv-x="1843" 
 />
    <glyph glyph-name="uni2007" unicode="&#x2007;" horiz-adv-x="1228" 
 />
    <glyph glyph-name="uni2008" unicode="&#x2008;" horiz-adv-x="489" 
 />
    <glyph glyph-name="uni200B" unicode="&#x200b;" horiz-adv-x="0" 
 />
    <glyph glyph-name="figuredash" unicode="&#x2012;" horiz-adv-x="1228" 
d="M70 565l8 53h1106l-8 -53h-1106z" />
    <glyph glyph-name="endash" unicode="&#x2013;" horiz-adv-x="1024" 
d="M70 565l8 53h901l-8 -53h-901z" />
    <glyph glyph-name="emdash" unicode="&#x2014;" horiz-adv-x="1843" 
d="M70 565l8 53h1720l-8 -53h-1720z" />
    <glyph glyph-name="quoteleft" unicode="&#x2018;" horiz-adv-x="428" 
d="M262 1032l33 187q17 95 54 142t100 56l-9 -49q-67 -14 -88 -139l-6 -35h29l-29 -162h-84z" />
    <glyph glyph-name="quoteright" unicode="&#x2019;" horiz-adv-x="428" 
d="M223 1008l8 49q67 14 88 139l7 35h-29l29 162h84l-33 -187q-17 -95 -54 -142t-100 -56z" />
    <glyph glyph-name="quotesinglbase" unicode="&#x201a;" horiz-adv-x="428" 
d="M6 -223l8 49q67 14 88 139l7 35h-29l29 162h84l-33 -187q-17 -95 -54 -142t-100 -56z" />
    <glyph glyph-name="quotedblleft" unicode="&#x201c;" horiz-adv-x="751" 
d="M262 1032l33 187q17 95 54 142t100 56l-9 -49q-67 -14 -88 -139l-6 -35h29l-29 -162h-84zM586 1032l32 187q17 95 54 142t100 56l-8 -49q-67 -14 -88 -139l-6 -35h28l-28 -162h-84z" />
    <glyph glyph-name="quotedblright" unicode="&#x201d;" horiz-adv-x="751" 
d="M223 1008l8 49q67 14 88 139l7 35h-29l29 162h84l-33 -187q-17 -95 -54 -142t-100 -56zM547 1008l8 49q67 14 88 139l6 35h-28l28 162h84l-33 -187q-17 -95 -53.5 -142t-99.5 -56z" />
    <glyph glyph-name="quotedblbase" unicode="&#x201e;" horiz-adv-x="751" 
d="M6 -223l8 49q67 14 88 139l7 35h-29l29 162h84l-33 -187q-17 -95 -54 -142t-100 -56zM330 -223l8 49q67 14 88 139l6 35h-29l29 162h84l-33 -187q-17 -95 -53.5 -142t-99.5 -56z" />
    <glyph glyph-name="dagger" unicode="&#x2020;" horiz-adv-x="1179" 
d="M401 -373l207 1170l-479 -6l10 59l477 -6l97 549h61l-96 -549l477 6l-10 -59l-475 6l-207 -1170h-62z" />
    <glyph glyph-name="daggerdbl" unicode="&#x2021;" horiz-adv-x="1179" 
d="M401 -373l91 508l-480 -6l11 59l477 -6l114 656l-477 -7l10 60l476 -6l90 508h61l-90 -508l479 6l-10 -60l-477 7l-115 -656l477 6l-10 -59l-475 6l-90 -508h-62z" />
    <glyph glyph-name="bullet" unicode="&#x2022;" horiz-adv-x="1024" 
d="M317 416l62 352h352l-61 -352h-353z" />
    <glyph glyph-name="ellipsis" unicode="&#x2026;" horiz-adv-x="1843" 
d="M174 0l29 162h82l-29 -162h-82zM788 0l29 162h82l-29 -162h-82zM1403 0l29 162h81l-28 -162h-82z" />
    <glyph glyph-name="perthousand" unicode="&#x2030;" horiz-adv-x="2271" 
d="M406 657q-118 0 -182 53t-64 158q0 33 6 70l35 199q24 140 109 210t220 70q118 0 182 -53t64 -158q0 -32 -6 -69l-35 -199q-24 -140 -109 -210.5t-220 -70.5zM238 -25l1085 1442h66l-1086 -1442h-65zM408 713q225 0 268 235l33 187q6 35 6 67q0 160 -187 160
q-225 0 -268 -236l-33 -186q-6 -34 -6 -68q0 -159 187 -159zM1098 -25q-118 0 -182 53t-64 158q0 32 6 70l35 199q24 140 109.5 210t220.5 70q118 0 181.5 -53t63.5 -158q0 -32 -6 -69l-35 -199q-24 -140 -109 -210.5t-220 -70.5zM1804 -25q-118 0 -181.5 53t-63.5 158
q0 32 6 70l34 199q24 140 109.5 210t220.5 70q118 0 182 -53t64 -158q0 -32 -6 -69l-35 -199q-24 -140 -109.5 -210.5t-220.5 -70.5zM1100 31q225 0 268 235l33 187q6 35 6 67q0 160 -186 160q-226 0 -269 -236l-32 -186q-7 -40 -7 -68q0 -159 187 -159zM1806 31
q226 0 269 235l32 187q7 40 7 67q0 160 -187 160q-225 0 -268 -236l-33 -186q-6 -35 -6 -68q0 -159 186 -159z" />
    <glyph glyph-name="guilsinglleft" unicode="&#x2039;" horiz-adv-x="505" 
d="M309 168l-246 354l365 350h84l-371 -356l240 -348h-72z" />
    <glyph glyph-name="guilsinglright" unicode="&#x203a;" horiz-adv-x="505" 
d="M-6 168l371 356l-240 348h72l245 -354l-364 -350h-84z" />
    <glyph glyph-name="fraction" unicode="&#x2044;" horiz-adv-x="200" 
d="M-412 -25l1020 1442h66l-1020 -1442h-66z" />
    <glyph glyph-name="uni2070" unicode="&#x2070;" 
d="M432 827q-119 0 -181.5 55t-62.5 158q0 24 7 68l53 303q23 131 107.5 201.5t219.5 70.5q119 0 181.5 -55t62.5 -158q0 -30 -6 -67l-53 -303q-23 -131 -108 -202t-220 -71zM434 883q225 0 266 227l52 291q6 37 6 65q0 162 -185 162q-225 0 -266 -227l-51 -291
q-6 -38 -6 -66q0 -161 184 -161z" />
    <glyph glyph-name="uni2074" unicode="&#x2074;" 
d="M594 852l33 184h-469l10 60l563 563h68l-101 -567h113l-10 -56h-113l-33 -184h-61zM240 1092h397l86 485z" />
    <glyph glyph-name="uni2075" unicode="&#x2075;" 
d="M428 827q-115 0 -182.5 48.5t-67.5 130.5q0 18 2 28h60q-2 -12 -2 -22q0 -61 51 -95t139 -34q135 0 213 76t78 192q0 84 -44.5 125t-137.5 41q-137 0 -244 -78h-47l100 420h485l-10 -55h-434l-72 -297q100 65 228 65q235 0 235 -221q0 -143 -95.5 -233.5t-254.5 -90.5z
" />
    <glyph glyph-name="uni2076" unicode="&#x2076;" 
d="M446 827q-120 0 -183.5 54.5t-63.5 156.5q0 32 6 66l53 301q24 138 110 208t224 70q114 0 175.5 -45.5t61.5 -128.5q0 -18 -2 -26h-57q2 8 2 22q0 60 -46.5 91.5t-133.5 31.5q-233 0 -275 -231l-28 -162q105 121 272 121q219 0 219 -211q0 -141 -89.5 -229.5
t-244.5 -88.5zM449 883q127 0 198.5 74.5t71.5 185.5q0 81 -41.5 119t-126.5 38q-172 0 -279 -157l-6 -37q-6 -34 -6 -62q0 -79 49 -120t140 -41z" />
    <glyph glyph-name="uni2077" unicode="&#x2077;" 
d="M295 852q95 431 496 752h-527l10 55h598l-12 -60q-406 -323 -500 -747h-65z" />
    <glyph glyph-name="uni2078" unicode="&#x2078;" 
d="M426 827q-266 0 -266 199q0 94 56 157t153 89v2q-111 38 -111 158q0 113 88 182t236 69q115 0 177 -46.5t62 -141.5q0 -83 -46 -139t-128 -80v-2q131 -40 131 -180q0 -127 -95.5 -197t-256.5 -70zM504 1294q122 0 190 53.5t68 143.5q0 141 -182 141q-122 0 -192.5 -56
t-70.5 -144q0 -138 187 -138zM428 881q135 0 213 57.5t78 157.5q0 76 -50 112.5t-153 36.5q-135 0 -215 -58t-80 -157q0 -149 207 -149z" />
    <glyph glyph-name="uni2079" unicode="&#x2079;" 
d="M416 827q-115 0 -176.5 46t-61.5 128q0 19 2 27h58q-2 -8 -2 -22q0 -60 46.5 -91.5t133.5 -31.5q232 0 274 231l29 162q-105 -121 -273 -121q-219 0 -219 211q0 141 89.5 229t244.5 88q120 0 184 -54.5t64 -155.5q0 -31 -6 -66l-53 -301q-25 -138 -110.5 -208.5
t-223.5 -70.5zM457 1210q171 0 278 158l6 37q7 40 7 61q0 79 -49 120.5t-140 41.5q-127 0 -198.5 -74.5t-71.5 -185.5q0 -81 41.5 -119.5t126.5 -38.5z" />
    <glyph glyph-name="uni2080" unicode="&#x2080;" 
d="M240 -270q-119 0 -181.5 55t-62.5 158q0 29 6 67l53 303q23 131 108 202t220 71q119 0 181.5 -55t62.5 -158q0 -31 -6 -68l-54 -303q-23 -131 -107.5 -201.5t-219.5 -70.5zM242 -215q225 0 266 227l51 291q6 38 6 66q0 161 -184 161q-225 0 -266 -227l-52 -291
q-6 -37 -6 -65q0 -162 185 -162z" />
    <glyph glyph-name="uni2081" unicode="&#x2081;" 
d="M57 -246l11 56h204l117 669q-108 -61 -239 -67l8 47q133 11 250 102h59l-133 -751h205l-11 -56h-471z" />
    <glyph glyph-name="uni2082" unicode="&#x2082;" 
d="M-37 -246l8 45q20 114 95.5 188.5t240.5 145.5q137 59 199.5 121.5t62.5 140.5q0 135 -176 135q-213 0 -252 -190l-2 -10h-61l4 20q23 116 104.5 176t210.5 60q116 0 174 -49.5t58 -141.5q0 -101 -70.5 -174.5t-232.5 -142.5q-144 -62 -209 -121.5t-82 -146.5h493
l-10 -56h-555z" />
    <glyph glyph-name="uni2083" unicode="&#x2083;" 
d="M242 -270q-121 0 -188.5 46.5t-67.5 125.5q0 23 4 47l4 22h59l-2 -12q-4 -24 -4 -41q0 -133 193 -133q130 0 201 59.5t71 159.5q0 71 -43.5 105t-146.5 34h-103l8 56h103q105 0 167 55.5t62 140.5q0 135 -176 135q-102 0 -167.5 -43.5t-82.5 -126.5l-2 -10h-59l2 12
q18 106 104 165t211 59q109 0 169 -47.5t60 -141.5q0 -84 -47 -141.5t-131 -81.5v-2q131 -33 131 -174q0 -125 -89 -196.5t-240 -71.5z" />
    <glyph glyph-name="uni2084" unicode="&#x2084;" 
d="M401 -246l33 185h-469l10 59l564 563h67l-100 -567h112l-10 -55h-112l-33 -185h-62zM47 -6h397l86 485z" />
    <glyph glyph-name="uni2085" unicode="&#x2085;" 
d="M236 -270q-115 0 -182.5 48t-67.5 130q0 19 2 29h59q-2 -12 -2 -23q0 -61 51 -95t140 -34q135 0 212.5 75.5t77.5 192.5q0 84 -44.5 125t-137.5 41q-137 0 -244 -78h-47l101 420h485l-10 -55h-434l-72 -297q100 65 227 65q236 0 236 -221q0 -143 -95.5 -233t-254.5 -90z
" />
    <glyph glyph-name="uni2086" unicode="&#x2086;" 
d="M254 -270q-120 0 -184 55t-64 156q0 31 6 65l54 301q25 138 110 208.5t223 70.5q115 0 176.5 -46t61.5 -128q0 -19 -2 -27h-57q2 8 2 23q0 60 -47 91t-134 31q-232 0 -274 -231l-29 -162q105 121 273 121q219 0 219 -211q0 -141 -89.5 -229t-244.5 -88zM256 -215
q127 0 198.5 74.5t71.5 185.5q0 81 -41.5 119.5t-126.5 38.5q-171 0 -278 -158l-6 -37q-6 -34 -6 -61q0 -79 48.5 -120.5t139.5 -41.5z" />
    <glyph glyph-name="uni2087" unicode="&#x2087;" 
d="M102 -246q95 431 496 752h-526l10 55h598l-12 -59q-406 -323 -500 -748h-66z" />
    <glyph glyph-name="uni2088" unicode="&#x2088;" 
d="M233 -270q-266 0 -266 198q0 94 56 157t153 89v2q-110 37 -110 158q0 113 87.5 182.5t235.5 69.5q115 0 177.5 -47t62.5 -142q0 -83 -46 -139t-128 -80v-2q131 -40 131 -180q0 -127 -96 -196.5t-257 -69.5zM311 197q122 0 190 53t68 143q0 142 -182 142q-122 0 -192 -56
t-70 -145q0 -137 186 -137zM236 -217q135 0 212.5 57.5t77.5 157.5q0 76 -49.5 112.5t-152.5 36.5q-135 0 -215 -58t-80 -157q0 -149 207 -149z" />
    <glyph glyph-name="uni2089" unicode="&#x2089;" 
d="M223 -270q-114 0 -175.5 45.5t-61.5 128.5q0 18 2 26h57q-2 -8 -2 -22q0 -60 46.5 -91.5t133.5 -31.5q233 0 275 231l28 162q-105 -121 -272 -121q-219 0 -219 211q0 141 89.5 229.5t244.5 88.5q120 0 183.5 -54.5t63.5 -156.5q0 -31 -6 -66l-53 -301q-24 -138 -110 -208
t-224 -70zM264 113q172 0 279 157l6 37q6 34 6 62q0 79 -48.5 120t-139.5 41q-127 0 -199 -74.5t-72 -185.5q0 -81 41.5 -119t126.5 -38z" />
    <glyph glyph-name="Euro" unicode="&#x20ac;" horiz-adv-x="1228" 
d="M578 -25q-185 0 -286.5 88t-101.5 254q0 53 11 117l14 86h-129l10 55h129l43 242h-131l10 55h132l14 84q39 226 176.5 343.5t355.5 117.5q184 0 280.5 -86t96.5 -246q0 -31 -2 -47h-57q2 16 2 47q0 139 -83 208t-239 69q-196 0 -316 -105t-155 -307l-14 -78h504l-19 -55
h-493l-43 -242h448l-18 -55h-441l-14 -82q-10 -58 -10 -112q0 -145 83 -220t247 -75q170 0 283 81.5t157 241.5h57q-50 -185 -178 -282t-323 -97z" />
    <glyph glyph-name="uni20B9" unicode="&#x20b9;" horiz-adv-x="1228" 
d="M815 0l-629 631l9 47h270q215 0 344.5 89t151.5 251h-736l27 55h713v10q0 137 -81.5 195.5t-273.5 58.5h-329l26 56h989l-26 -56h-383q137 -64 137 -258v-6h217l-27 -55h-194q-20 -188 -166.5 -291.5t-390.5 -103.5h-180l620 -623h-88z" />
    <glyph glyph-name="uni2113" unicode="&#x2113;" horiz-adv-x="925" 
d="M424 -25q-139 0 -212 67.5t-73 201.5q0 47 8 94l146 823q64 359 379 359q124 0 185 -57.5t61 -180.5q0 -119 -56 -241.5t-154.5 -231.5t-219.5 -204t-263 -177l-16 -94q-8 -47 -8 -92q0 -211 225 -211q148 0 287 94l24 -53q-147 -97 -313 -97zM238 498q131 78 239.5 166
t195 187.5t135 209.5t48.5 219q0 93 -42.5 138.5t-145.5 45.5q-128 0 -207 -72.5t-107 -234.5z" />
    <glyph glyph-name="uni2116" unicode="&#x2116;" horiz-adv-x="2228" 
d="M121 0l246 1393h77l629 -1293l227 1293h62l-246 -1393h-61l-641 1315l-232 -1315h-61zM1743 254q-132 0 -201 60t-69 175q0 32 8 82l24 140q27 148 118 228.5t241 80.5q132 0 201 -60.5t69 -175.5q0 -32 -8 -82l-25 -139q-27 -149 -117.5 -229t-240.5 -80zM1743 309
q126 0 201.5 69t97.5 195l22 127q9 43 9 80q0 185 -209 185q-126 0 -201.5 -69.5t-97.5 -195.5l-23 -127q-8 -39 -8 -79q0 -185 209 -185zM1386 0l11 55h606l-10 -55h-607z" />
    <glyph glyph-name="uni2117" unicode="&#x2117;" horiz-adv-x="1605" 
d="M834 -25q-204 0 -369 93.5t-258.5 258.5t-93.5 369t93.5 369t258.5 258.5t369 93.5q205 0 370 -93.5t257.5 -258.5t92.5 -369t-92.5 -369t-257.5 -258.5t-370 -93.5zM834 31q192 0 342.5 85t233.5 236.5t83 343.5t-83 343.5t-233.5 237t-342.5 85.5q-191 0 -342 -85.5
t-234.5 -237.5t-83.5 -343q0 -143 49 -266.5t135.5 -211t209.5 -137.5t266 -50zM614 326v741h287q129 0 189.5 -52.5t60.5 -166.5t-60.5 -166.5t-189.5 -52.5h-225v-303h-62zM676 684h223q100 0 146.5 39t46.5 125t-46.5 125t-146.5 39h-223v-328z" />
    <glyph glyph-name="uni2120" unicode="&#x2120;" horiz-adv-x="1382" 
d="M319 731q-97 0 -150.5 38.5t-53.5 107.5q0 17 4 41h63q-2 -10 -2 -29q0 -101 139 -101q92 0 144.5 39.5t52.5 112.5q0 46 -32 68t-124 41q-100 20 -140 53t-40 96q0 95 67.5 153t184.5 58q91 0 140 -35.5t49 -101.5q0 -10 -5 -45h-61q2 10 2 30q0 95 -129 95
q-87 0 -136.5 -40.5t-49.5 -105.5q0 -46 31 -67.5t122 -38.5q103 -20 144 -54t41 -98q0 -102 -70 -159.5t-191 -57.5zM694 748l115 645h86l133 -555l332 555h92l-115 -645h-61l100 561l-336 -561h-51l-137 563l-100 -563h-58z" />
    <glyph glyph-name="trademark" unicode="&#x2122;" horiz-adv-x="1325" 
d="M244 748l104 589h-203l11 56h467l-11 -56h-202l-105 -589h-61zM637 748l115 645h86l133 -555l332 555h92l-115 -645h-61l100 561l-336 -561h-51l-137 563l-101 -563h-57z" />
    <glyph glyph-name="uni2126" unicode="&#x2126;" horiz-adv-x="1335" 
d="M63 0l11 59h225q-78 44 -121 134t-43 210q0 57 10 113l66 371q45 262 202 396t408 134q219 0 332 -102.5t113 -292.5q0 -61 -13 -137l-65 -373q-27 -157 -110.5 -277t-200.5 -176h221l-11 -59h-401l8 49q169 23 284 150.5t148 316.5l64 363q14 82 14 143q0 336 -385 336
q-464 0 -549 -486l-63 -360q-10 -59 -10 -115q0 -154 71.5 -240.5t204.5 -107.5l-8 -49h-402z" />
    <glyph glyph-name="estimated" unicode="&#x212e;" horiz-adv-x="1654" 
d="M879 -25q-155 0 -295.5 57t-242.5 153.5t-162 230t-60 280.5q0 195 101.5 361t277 263t381.5 97t381 -97t276.5 -263t101.5 -361v-18h-1230q-11 0 -11 -10v-392q0 -20 19 -43q87 -102 208.5 -158.5t258.5 -56.5q142 0 270 64.5t219 175.5h111q-106 -132 -264.5 -207.5
t-339.5 -75.5zM408 719h944q12 0 12 12v395q0 24 -21 45q-92 97 -211 150t-249 53q-136 0 -256 -55.5t-211 -155.5q-19 -23 -19 -45v-389q0 -10 11 -10z" />
    <glyph glyph-name="uni2153" unicode="&#x2153;" horiz-adv-x="1699" 
d="M338 -25l1020 1442h65l-1020 -1442h-65zM203 586l10 55h205l117 670q-110 -62 -240 -68l8 47q131 11 250 103h59l-133 -752h205l-10 -55h-471zM1235 -25q-121 0 -188.5 46.5t-67.5 125.5q0 24 4 48l4 22h60l-3 -12q-4 -24 -4 -41q0 -133 193 -133q130 0 201 59.5
t71 159.5q0 71 -43.5 105t-146.5 34h-103l9 55h102q105 0 167 56t62 141q0 135 -176 135q-102 0 -167.5 -43.5t-82.5 -126.5l-2 -10h-59l2 12q18 106 104 164.5t211 58.5q110 0 170 -47.5t60 -140.5q0 -84 -47 -141.5t-131 -81.5v-2q131 -33 131 -174q0 -125 -89.5 -197
t-240.5 -72z" />
    <glyph glyph-name="uni2154" unicode="&#x2154;" horiz-adv-x="1699" 
d="M111 586l8 45q20 114 95.5 188.5t240.5 145.5q137 59 199.5 121.5t62.5 140.5q0 135 -176 135q-213 0 -252 -191l-2 -10h-62l4 21q23 116 105 175.5t211 59.5q231 0 231 -190q0 -101 -70.5 -175t-232.5 -143q-144 -62 -209 -121.5t-82 -146.5h494l-10 -55h-555zM338 -25
l1020 1442h65l-1020 -1442h-65zM1235 -25q-121 0 -188.5 46.5t-67.5 125.5q0 24 4 48l4 22h60l-3 -12q-4 -24 -4 -41q0 -133 193 -133q130 0 201 59.5t71 159.5q0 71 -43.5 105t-146.5 34h-103l9 55h102q105 0 167 56t62 141q0 135 -176 135q-102 0 -167.5 -43.5
t-82.5 -126.5l-2 -10h-59l2 12q18 106 104 164.5t211 58.5q110 0 170 -47.5t60 -140.5q0 -84 -47 -141.5t-131 -81.5v-2q131 -33 131 -174q0 -125 -89.5 -197t-240.5 -72z" />
    <glyph glyph-name="uni2155" unicode="&#x2155;" horiz-adv-x="1699" 
d="M338 -25l1020 1442h65l-1020 -1442h-65zM203 586l10 55h205l117 670q-110 -62 -240 -68l8 47q131 11 250 103h59l-133 -752h205l-10 -55h-471zM1229 -25q-115 0 -182.5 48.5t-67.5 130.5q0 18 2 28h59q-2 -12 -2 -22q0 -61 51 -95t140 -34q135 0 213 76t78 192
q0 166 -183 166q-136 0 -243 -78h-47l100 420h485l-10 -55h-434l-72 -297q100 65 227 65q236 0 236 -221q0 -143 -95.5 -233.5t-254.5 -90.5z" />
    <glyph glyph-name="uni2156" unicode="&#x2156;" horiz-adv-x="1699" 
d="M111 586l8 45q20 114 95.5 188.5t240.5 145.5q137 59 199.5 121.5t62.5 140.5q0 135 -176 135q-213 0 -252 -191l-2 -10h-62l4 21q23 116 105 175.5t211 59.5q231 0 231 -190q0 -101 -70.5 -175t-232.5 -143q-144 -62 -209 -121.5t-82 -146.5h494l-10 -55h-555zM338 -25
l1020 1442h65l-1020 -1442h-65zM1229 -25q-115 0 -182.5 48.5t-67.5 130.5q0 18 2 28h59q-2 -12 -2 -22q0 -61 51 -95t140 -34q135 0 213 76t78 192q0 166 -183 166q-136 0 -243 -78h-47l100 420h485l-10 -55h-434l-72 -297q100 65 227 65q236 0 236 -221
q0 -143 -95.5 -233.5t-254.5 -90.5z" />
    <glyph glyph-name="uni2157" unicode="&#x2157;" horiz-adv-x="1699" 
d="M387 561q-121 0 -188.5 46.5t-67.5 125.5q0 23 4 47l4 23h60l-2 -12q-4 -24 -4 -41q0 -134 192 -134q130 0 201 60t71 160q0 71 -43.5 105t-146.5 34h-102l8 55h102q105 0 167.5 56t62.5 141q0 135 -177 135q-102 0 -167 -43.5t-82 -126.5l-3 -10h-59l2 12
q18 106 104.5 164.5t211.5 58.5q109 0 169 -47t60 -141q0 -84 -47 -141.5t-131 -81.5v-2q131 -33 131 -175q0 -125 -89.5 -196.5t-240.5 -71.5zM338 -25l1020 1442h65l-1020 -1442h-65zM1229 -25q-115 0 -182.5 48.5t-67.5 130.5q0 18 2 28h59q-2 -12 -2 -22q0 -61 51 -95
t140 -34q135 0 213 76t78 192q0 166 -183 166q-136 0 -243 -78h-47l100 420h485l-10 -55h-434l-72 -297q100 65 227 65q236 0 236 -221q0 -143 -95.5 -233.5t-254.5 -90.5z" />
    <glyph glyph-name="uni2158" unicode="&#x2158;" horiz-adv-x="1699" 
d="M338 -25l1020 1442h65l-1020 -1442h-65zM547 586l33 184h-469l10 59l563 564h68l-101 -568h113l-10 -55h-113l-33 -184h-61zM193 825h397l86 486zM1229 -25q-115 0 -182.5 48.5t-67.5 130.5q0 18 2 28h59q-2 -12 -2 -22q0 -61 51 -95t140 -34q135 0 213 76t78 192
q0 166 -183 166q-136 0 -243 -78h-47l100 420h485l-10 -55h-434l-72 -297q100 65 227 65q236 0 236 -221q0 -143 -95.5 -233.5t-254.5 -90.5z" />
    <glyph glyph-name="uni2159" unicode="&#x2159;" horiz-adv-x="1699" 
d="M338 -25l1020 1442h65l-1020 -1442h-65zM203 586l10 55h205l117 670q-110 -62 -240 -68l8 47q131 11 250 103h59l-133 -752h205l-10 -55h-471zM1247 -25q-120 0 -184 55t-64 156q0 26 7 66l53 301q24 138 110 208t224 70q114 0 175.5 -45.5t61.5 -128.5q0 -18 -2 -26h-57
q2 8 2 22q0 60 -46.5 91.5t-133.5 31.5q-233 0 -275 -231l-28 -162q105 121 272 121q219 0 219 -211q0 -141 -89.5 -229.5t-244.5 -88.5zM1249 31q127 0 199 74.5t72 185.5q0 81 -41.5 119.5t-126.5 38.5q-172 0 -279 -158l-6 -37q-6 -35 -6 -61q0 -79 48.5 -120.5
t139.5 -41.5z" />
    <glyph glyph-name="uni215A" unicode="&#x215a;" horiz-adv-x="1699" 
d="M338 -25l1020 1442h65l-1020 -1442h-65zM383 561q-115 0 -182.5 48t-67.5 130q0 19 2 29h60q-2 -12 -2 -23q0 -61 51 -95t139 -34q135 0 213 76t78 193q0 84 -44.5 125t-137.5 41q-137 0 -244 -78h-47l100 420h485l-10 -56h-434l-72 -297q101 66 228 66q235 0 235 -221
q0 -143 -95.5 -233.5t-254.5 -90.5zM1247 -25q-120 0 -184 55t-64 156q0 26 7 66l53 301q24 138 110 208t224 70q114 0 175.5 -45.5t61.5 -128.5q0 -18 -2 -26h-57q2 8 2 22q0 60 -46.5 91.5t-133.5 31.5q-233 0 -275 -231l-28 -162q105 121 272 121q219 0 219 -211
q0 -141 -89.5 -229.5t-244.5 -88.5zM1249 31q127 0 199 74.5t72 185.5q0 81 -41.5 119.5t-126.5 38.5q-172 0 -279 -158l-6 -37q-6 -35 -6 -61q0 -79 48.5 -120.5t139.5 -41.5z" />
    <glyph glyph-name="oneeighth" unicode="&#x215b;" horiz-adv-x="1699" 
d="M338 -25l1020 1442h65l-1020 -1442h-65zM203 586l10 55h205l117 670q-110 -62 -240 -68l8 47q131 11 250 103h59l-133 -752h205l-10 -55h-471zM1227 -25q-266 0 -266 199q0 94 55.5 157t152.5 89v2q-110 37 -110 158q0 113 87.5 182t235.5 69q115 0 177.5 -46.5
t62.5 -141.5q0 -83 -46 -139t-128 -80v-2q131 -40 131 -180q0 -127 -95.5 -197t-256.5 -70zM1305 442q122 0 190 53.5t68 143.5q0 141 -183 141q-122 0 -192 -56t-70 -144q0 -138 187 -138zM1229 29q135 0 213 57.5t78 157.5q0 76 -50 112.5t-153 36.5q-135 0 -215 -58
t-80 -157q0 -149 207 -149z" />
    <glyph glyph-name="threeeighths" unicode="&#x215c;" horiz-adv-x="1699" 
d="M387 561q-121 0 -188.5 46.5t-67.5 125.5q0 23 4 47l4 23h60l-2 -12q-4 -24 -4 -41q0 -134 192 -134q130 0 201 60t71 160q0 71 -43.5 105t-146.5 34h-102l8 55h102q105 0 167.5 56t62.5 141q0 135 -177 135q-102 0 -167 -43.5t-82 -126.5l-3 -10h-59l2 12
q18 106 104.5 164.5t211.5 58.5q109 0 169 -47t60 -141q0 -84 -47 -141.5t-131 -81.5v-2q131 -33 131 -175q0 -125 -89.5 -196.5t-240.5 -71.5zM338 -25l1020 1442h65l-1020 -1442h-65zM1227 -25q-266 0 -266 199q0 94 55.5 157t152.5 89v2q-110 37 -110 158q0 113 87.5 182
t235.5 69q115 0 177.5 -46.5t62.5 -141.5q0 -83 -46 -139t-128 -80v-2q131 -40 131 -180q0 -127 -95.5 -197t-256.5 -70zM1305 442q122 0 190 53.5t68 143.5q0 141 -183 141q-122 0 -192 -56t-70 -144q0 -138 187 -138zM1229 29q135 0 213 57.5t78 157.5q0 76 -50 112.5
t-153 36.5q-135 0 -215 -58t-80 -157q0 -149 207 -149z" />
    <glyph glyph-name="fiveeighths" unicode="&#x215d;" horiz-adv-x="1699" 
d="M338 -25l1020 1442h65l-1020 -1442h-65zM383 561q-115 0 -182.5 48t-67.5 130q0 19 2 29h60q-2 -12 -2 -23q0 -61 51 -95t139 -34q135 0 213 76t78 193q0 84 -44.5 125t-137.5 41q-137 0 -244 -78h-47l100 420h485l-10 -56h-434l-72 -297q101 66 228 66q235 0 235 -221
q0 -143 -95.5 -233.5t-254.5 -90.5zM1227 -25q-266 0 -266 199q0 94 55.5 157t152.5 89v2q-110 37 -110 158q0 113 87.5 182t235.5 69q115 0 177.5 -46.5t62.5 -141.5q0 -83 -46 -139t-128 -80v-2q131 -40 131 -180q0 -127 -95.5 -197t-256.5 -70zM1305 442q122 0 190 53.5
t68 143.5q0 141 -183 141q-122 0 -192 -56t-70 -144q0 -138 187 -138zM1229 29q135 0 213 57.5t78 157.5q0 76 -50 112.5t-153 36.5q-135 0 -215 -58t-80 -157q0 -149 207 -149z" />
    <glyph glyph-name="seveneighths" unicode="&#x215e;" horiz-adv-x="1699" 
d="M262 -25l1020 1442h66l-1020 -1442h-66zM248 586q95 431 495 751h-526l10 56h598l-12 -60q-406 -323 -500 -747h-65zM1227 -25q-266 0 -266 199q0 94 55.5 157t152.5 89v2q-110 37 -110 158q0 113 87.5 182t235.5 69q115 0 177.5 -46.5t62.5 -141.5q0 -83 -46 -139
t-128 -80v-2q131 -40 131 -180q0 -127 -95.5 -197t-256.5 -70zM1305 442q122 0 190 53.5t68 143.5q0 141 -183 141q-122 0 -192 -56t-70 -144q0 -138 187 -138zM1229 29q135 0 213 57.5t78 157.5q0 76 -50 112.5t-153 36.5q-135 0 -215 -58t-80 -157q0 -149 207 -149z" />
    <glyph glyph-name="arrowleft" unicode="&#x2190;" horiz-adv-x="1638" 
d="M768 68l-627 628l627 629l41 -41l-559 -559h1306v-57h-1306l559 -559z" />
    <glyph glyph-name="arrowup" unicode="&#x2191;" horiz-adv-x="1638" 
d="M823 0v1307l-559 -562l-41 41l631 631l631 -631l-41 -41l-559 562v-1307h-62z" />
    <glyph glyph-name="arrowright" unicode="&#x2192;" horiz-adv-x="1638" 
d="M932 72l-41 41l559 559h-1307v57h1307l-559 559l41 41l627 -629z" />
    <glyph glyph-name="arrowdown" unicode="&#x2193;" horiz-adv-x="1638" 
d="M848 -25l-631 631l41 41l559 -561v1307h62v-1307l559 561l41 -41z" />
    <glyph glyph-name="arrowboth" unicode="&#x2194;" horiz-adv-x="2048" 
d="M727 109l-586 587l586 588l41 -41l-518 -518h1610l-519 518l41 41l586 -588l-586 -587l-41 41l519 518h-1610l518 -518z" />
    <glyph glyph-name="arrowupdn" unicode="&#x2195;" horiz-adv-x="1638" 
d="M850 -172l-590 590l41 41l518 -520v1515l-518 -520l-41 41l590 590l590 -590l-41 -41l-518 520v-1515l518 520l41 -41z" />
    <glyph glyph-name="uni2196" unicode="&#x2196;" horiz-adv-x="1638" 
d="M1407 106l-1040 1041l2 -760h-60v858h858v-57l-761 2l1042 -1043z" />
    <glyph glyph-name="uni2197" unicode="&#x2197;" horiz-adv-x="1638" 
d="M289 106l-41 41l1042 1043l-762 -2v57h858v-858h-59l2 760z" />
    <glyph glyph-name="uni2198" unicode="&#x2198;" horiz-adv-x="1638" 
d="M535 147v58l761 -2l-1042 1042l41 41l1040 -1040l-2 760h60v-859h-858z" />
    <glyph glyph-name="uni2199" unicode="&#x2199;" horiz-adv-x="1638" 
d="M315 147v859h60l-2 -760l1040 1040l41 -41l-1042 -1042l762 2v-58h-859z" />
    <glyph glyph-name="partialdiff" unicode="&#x2202;" horiz-adv-x="1232" 
d="M430 -25q-170 0 -264 94.5t-94 264.5q0 155 74.5 294.5t209 226.5t295.5 87q157 0 264 -82.5t136 -224.5q59 207 59 414q0 212 -78 313.5t-274 101.5q-192 0 -328 -100l12 72q133 84 324 84q94 0 164 -21t116.5 -59t75 -97t40.5 -129t12 -161q0 -124 -22 -251
t-63.5 -247.5t-106.5 -225.5t-145 -184t-185 -124.5t-222 -45.5zM436 31q102 0 193 38.5t162.5 108t127.5 158t97 196.5q-15 168 -113 261.5t-256 93.5q-109 0 -206.5 -47.5t-164 -124.5t-105 -176.5t-38.5 -202.5q0 -148 78.5 -226.5t224.5 -78.5z" />
    <glyph glyph-name="emptyset" unicode="&#x2205;" horiz-adv-x="1742" 
d="M221 -25l-39 37l187 187q-89 97 -138 224.5t-49 272.5q0 204 93 369t258 258.5t370 93.5q295 0 494 -186l186 186l39 -37l-186 -186q89 -97 137.5 -224.5t48.5 -273.5q0 -204 -93 -369t-257.5 -258.5t-368.5 -93.5q-146 0 -273 49t-222 138zM412 242l944 948
q-185 172 -453 172q-140 0 -262.5 -51t-209.5 -139t-137 -211.5t-50 -264.5q0 -269 168 -454zM903 31q186 0 336.5 86t236 238.5t85.5 340.5q0 270 -168 455l-944 -948q185 -172 454 -172z" />
    <glyph glyph-name="uni2206" unicode="&#x2206;" horiz-adv-x="1210" 
d="M-63 0l788 1393h68l297 -1393h-1153zM37 59h975l-267 1250z" />
    <glyph glyph-name="product" unicode="&#x220f;" horiz-adv-x="1615" 
d="M70 -375l344 1954h1161l-344 -1954h-62l334 1899h-1038l-334 -1899h-61z" />
    <glyph glyph-name="summation" unicode="&#x2211;" horiz-adv-x="1224" 
d="M-113 -375l11 62l882 915l-559 916l10 61h1135l-10 -55h-1071l571 -928l-885 -915h1061l-10 -56h-1135z" />
    <glyph glyph-name="minus" unicode="&#x2212;" horiz-adv-x="1228" 
d="M133 602l10 57h992l-11 -57h-991z" />
    <glyph glyph-name="uni2215" unicode="&#x2215;" horiz-adv-x="786" 
d="M-68 -25l914 1442h69l-913 -1442h-70z" />
    <glyph glyph-name="uni2219" unicode="&#x2219;" horiz-adv-x="489" 
d="M207 549l29 162h83l-28 -162h-84z" />
    <glyph glyph-name="radical" unicode="&#x221a;" horiz-adv-x="1228" 
d="M387 -375l-135 746h-160l10 57h195l133 -704l934 1855h63l-983 -1954h-57z" />
    <glyph glyph-name="infinity" unicode="&#x221e;" horiz-adv-x="1916" 
d="M469 225q-154 0 -241 91t-87 249q0 100 36 193t97.5 163.5t150.5 113t189 42.5q49 0 91 -10.5t74 -27.5t60.5 -45.5t48.5 -56.5t40 -68t33.5 -73t29.5 -79q126 190 245.5 275t260.5 85q156 0 240 -89.5t84 -246.5q0 -101 -35 -194.5t-96 -164.5t-149.5 -114t-188.5 -43
q-67 0 -122.5 21t-92.5 52t-69.5 83t-52 96.5t-42.5 110.5q-124 -190 -244 -276.5t-260 -86.5zM475 281q131 0 239.5 85t235.5 287q-16 49 -27.5 80.5t-30.5 74.5t-36.5 70t-44 57t-55 47t-66.5 28.5t-82 11.5q-87 0 -164.5 -40t-129.5 -104.5t-82.5 -147t-30.5 -167.5
q0 -131 70.5 -206.5t203.5 -75.5zM1356 281q88 0 165 40t129 105t81.5 147.5t29.5 167.5q0 132 -70.5 206.5t-201.5 74.5q-132 0 -240.5 -85t-234.5 -286q17 -50 28 -81t30 -74.5t36 -70.5t43.5 -57.5t55 -47t66.5 -28t83 -11.5z" />
    <glyph glyph-name="integral" unicode="&#x222b;" horiz-adv-x="593" 
d="M-72 -397q-57 0 -116 22l10 62q51 -29 108 -29q95 0 151 65t81 205l241 1368q29 163 100.5 237.5t192.5 74.5q46 0 117 -21l-12 -61q-53 26 -107 26q-96 0 -151 -62.5t-80 -203.5l-242 -1368q-28 -160 -98 -237.5t-195 -77.5z" />
    <glyph glyph-name="approxequal" unicode="&#x2248;" horiz-adv-x="1228" 
d="M883 702q-69 0 -121 24.5t-109 84.5q-55 57 -98 78.5t-102 21.5q-88 0 -149 -50.5t-89 -145.5h-53q32 122 108.5 187t188.5 65q69 0 120.5 -24.5t108.5 -84.5q55 -57 98.5 -78.5t102.5 -21.5q88 0 148.5 50.5t88.5 145.5h54q-32 -122 -108.5 -187t-188.5 -65zM803 256
q-69 0 -121 24.5t-109 84.5q-55 57 -98 78.5t-102 21.5q-88 0 -149 -51t-89 -146h-53q32 122 108.5 187t188.5 65q69 0 120.5 -24t108.5 -84q56 -57 99.5 -79t101.5 -22q88 0 149 51t89 146h53q-32 -122 -108.5 -187t-188.5 -65z" />
    <glyph glyph-name="notequal" unicode="&#x2260;" horiz-adv-x="1228" 
d="M1192 1202l-293 -319h275l-11 -58h-315l-356 -389h604l-11 -57h-645l-290 -318h-74l291 318h-273l10 57h314l356 389h-602l10 58h643l293 319h74z" />
    <glyph glyph-name="lessequal" unicode="&#x2264;" horiz-adv-x="1228" 
d="M1055 213l-912 440l9 52l1069 442l-13 -68l-979 -405l836 -404zM27 0l10 57h991l-10 -57h-991z" />
    <glyph glyph-name="greaterequal" unicode="&#x2265;" horiz-adv-x="1228" 
d="M63 213l13 68l981 405l-838 404l10 57l914 -440l-8 -52zM27 0l10 57h991l-10 -57h-991z" />
    <glyph glyph-name="lozenge" unicode="&#x25ca;" horiz-adv-x="1228" 
d="M512 -66l-412 762l678 762l412 -762zM524 33l596 672l-354 655l-596 -672z" />
    <glyph glyph-name="uniF8FF" unicode="&#xf8ff;" horiz-adv-x="1329" 
d="M567 102q-207 0 -334 125.5t-127 333.5q0 207 132 334t380 127h103v238h321v-238h271v-305h-271v-105q0 -237 -130 -373.5t-345 -136.5zM573 420q69 0 108.5 46.5t39.5 141.5v109h-100q-92 0 -137.5 -42t-45.5 -114q0 -66 35.5 -103.5t99.5 -37.5z" />
    <glyph glyph-name="Iacute_J.loclNLD" horiz-adv-x="1611" 
d="M334 1554l260 250h88l-279 -250h-69zM1495 1554l260 250h88l-278 -250h-70zM121 0l246 1393h63l-246 -1393h-63zM885 -25q-199 0 -292 81t-93 251q0 54 10 113l4 22h59l-2 -12q-12 -67 -12 -129q0 -141 79 -203.5t247 -62.5q215 0 328.5 103.5t154.5 336.5l162 918h63
l-163 -932q-44 -247 -173.5 -366.5t-371.5 -119.5z" />
    <glyph glyph-name="iacute_j.loclNLD" horiz-adv-x="901" 
d="M256 1229l260 250h88l-278 -250h-70zM707 1229l260 250h88l-279 -250h-69zM102 0l185 1042h61l-184 -1042h-62zM281 -373l10 56h41q95 0 138 45t65 166l202 1148h62l-205 -1157q-25 -140 -85.5 -199t-178.5 -59h-49z" />
    <glyph glyph-name="i.loclTRK" horiz-adv-x="450" 
d="M324 1282l24 143h74l-25 -143h-73zM102 0l185 1042h61l-184 -1042h-62z" />
    <glyph glyph-name="germandbls.calt" horiz-adv-x="1269" 
d="M80 0l174 987q37 209 165 307.5t363 98.5h473l-10 -56l-524 -559h39q235 0 333.5 -73t98.5 -246q0 -218 -133.5 -338.5t-376.5 -120.5h-246l10 59h234q216 0 331 103t115 293q0 148 -83.5 206t-297.5 58h-118l8 51l528 563h-385q-210 0 -319.5 -82t-141.5 -264l-174 -987
h-63z" />
    <glyph glyph-name="zero.pf" horiz-adv-x="1306" 
d="M561 -25q-193 0 -294 86.5t-101 255.5q0 62 10 121l92 523q40 225 177.5 340.5t363.5 115.5q193 0 294 -86.5t101 -255.5q0 -62 -10 -121l-92 -522q-40 -225 -177.5 -341t-363.5 -116zM565 31q200 0 321 105.5t156 307.5l91 510q10 59 10 113q0 295 -338 295
q-200 0 -321 -106t-156 -308l-90 -510q-11 -65 -11 -112q0 -295 338 -295z" />
    <glyph glyph-name="one.pf" horiz-adv-x="835" 
d="M440 0l230 1305q-186 -117 -424 -138l8 50q239 23 432 176h62l-246 -1393h-62z" />
    <glyph glyph-name="two.pf" horiz-adv-x="1171" 
d="M39 0l10 57q32 187 159.5 314t407.5 250q252 110 363 222t111 257q0 130 -85 196t-247 66q-193 0 -310.5 -90.5t-148.5 -259.5l-4 -23h-59l6 35q33 185 169 289t355 104q190 0 285.5 -80.5t95.5 -234.5q0 -167 -118.5 -291.5t-389.5 -241.5q-263 -114 -381 -228.5
t-149 -283.5h856l-11 -57h-915z" />
    <glyph glyph-name="three.pf" horiz-adv-x="1216" 
d="M514 -25q-199 0 -306.5 80.5t-107.5 216.5q0 30 9 86l4 23h59l-4 -23q-6 -38 -6 -73q0 -125 90.5 -189.5t261.5 -64.5q227 0 357 107.5t130 291.5q0 136 -79.5 199t-259.5 63h-170l8 56h174q184 0 297.5 100.5t113.5 257.5q0 128 -82 192t-239 64q-191 0 -311.5 -89.5
t-145.5 -238.5l-2 -12h-59l4 22q31 172 169 272.5t349 100.5q181 0 278 -79t97 -232q0 -143 -82.5 -243.5t-224.5 -137.5v-2q117 -27 172 -100t55 -193q0 -208 -150.5 -331.5t-398.5 -123.5z" />
    <glyph glyph-name="four.pf" horiz-adv-x="1202" 
d="M801 0l61 342h-803l11 61l966 990h72l-176 -994h194l-10 -57h-194l-60 -342h-61zM139 399h731l162 908z" />
    <glyph glyph-name="five.pf" horiz-adv-x="1193" 
d="M494 -25q-188 0 -299 79.5t-111 213.5q0 22 4 54h59q-4 -28 -4 -50q0 -112 94 -176.5t257 -64.5q242 0 383 138t141 353q0 320 -346 320q-234 0 -422 -146h-47l168 697h803l-11 -58h-751l-133 -553q175 115 399 115q196 0 298.5 -92t102.5 -279q0 -241 -160 -396
t-425 -155z" />
    <glyph glyph-name="six.pf" horiz-adv-x="1290" 
d="M573 -25q-195 0 -297 88.5t-102 255.5q0 56 10 115l92 522q40 225 182 343t369 118q183 0 282 -76.5t99 -214.5q0 -29 -2 -43h-57q2 12 2 33q0 122 -83.5 184t-240.5 62q-205 0 -330.5 -107.5t-162.5 -314.5l-53 -297q180 227 477 227q179 0 273.5 -83t94.5 -244
q0 -256 -149 -412t-404 -156zM573 31q231 0 362.5 139.5t131.5 366.5q0 136 -79.5 207t-237.5 71q-310 0 -490 -291l-14 -84q-10 -58 -10 -114q0 -295 337 -295z" />
    <glyph glyph-name="seven.pf" horiz-adv-x="1091" 
d="M229 0q167 750 871 1333h-910l11 60h987l-12 -66q-351 -283 -575 -617t-306 -710h-66z" />
    <glyph glyph-name="eight.pf" horiz-adv-x="1269" 
d="M532 -25q-211 0 -322.5 81t-111.5 247q0 161 101.5 272t275.5 152v2q-209 53 -209 268q0 188 149.5 304t381.5 116q188 0 290.5 -80.5t102.5 -234.5q0 -142 -86 -238.5t-236 -134.5v-2q246 -59 246 -307q0 -206 -158 -325.5t-424 -119.5zM662 752q217 0 344 95t127 255
q0 128 -84.5 194t-249.5 66q-215 0 -345 -102t-130 -261q0 -247 338 -247zM532 31q239 0 381 104t142 285q0 143 -93.5 209.5t-279.5 66.5q-239 0 -380.5 -102t-141.5 -283q0 -280 372 -280z" />
    <glyph glyph-name="nine.pf" horiz-adv-x="1290" 
d="M524 -25q-183 0 -282 76.5t-99 214.5q0 29 2 43h58q-2 -12 -2 -33q0 -122 83 -183.5t240 -61.5q206 0 331.5 107.5t162.5 314.5l53 297q-181 -228 -477 -228q-179 0 -274 83.5t-95 244.5q0 256 149 411.5t404 155.5q195 0 297.5 -88.5t102.5 -255.5q0 -50 -11 -115
l-92 -522q-40 -225 -182 -343t-369 -118zM602 578q311 0 490 290l14 84q10 58 10 115q0 295 -338 295q-231 0 -362 -139.5t-131 -366.5q0 -136 79.5 -207t237.5 -71z" />
    <glyph glyph-name="zero.numr" 
d="M385 561q-119 0 -181.5 55t-62.5 158q0 30 6 68l54 303q23 131 107.5 201.5t219.5 70.5q119 0 181.5 -55t62.5 -158q0 -30 -6 -67l-53 -303q-23 -131 -108 -202t-220 -71zM387 616q225 0 266 228l52 291q6 38 6 65q0 162 -185 162q-225 0 -266 -227l-51 -291
q-6 -38 -6 -66q0 -162 184 -162z" />
    <glyph glyph-name="one.numr" 
d="M203 586l10 55h205l117 670q-110 -62 -240 -68l8 47q131 11 250 103h59l-133 -752h205l-10 -55h-471z" />
    <glyph glyph-name="two.numr" 
d="M111 586l8 45q20 114 95.5 188.5t240.5 145.5q137 59 199.5 121.5t62.5 140.5q0 135 -176 135q-213 0 -252 -191l-2 -10h-62l4 21q23 116 105 175.5t211 59.5q231 0 231 -190q0 -101 -70.5 -175t-232.5 -143q-144 -62 -209 -121.5t-82 -146.5h494l-10 -55h-555z" />
    <glyph glyph-name="three.numr" 
d="M387 561q-121 0 -188.5 46.5t-67.5 125.5q0 23 4 47l4 23h60l-2 -12q-4 -24 -4 -41q0 -134 192 -134q130 0 201 60t71 160q0 71 -43.5 105t-146.5 34h-102l8 55h102q105 0 167.5 56t62.5 141q0 135 -177 135q-102 0 -167 -43.5t-82 -126.5l-3 -10h-59l2 12
q18 106 104.5 164.5t211.5 58.5q109 0 169 -47t60 -141q0 -84 -47 -141.5t-131 -81.5v-2q131 -33 131 -175q0 -125 -89.5 -196.5t-240.5 -71.5z" />
    <glyph glyph-name="four.numr" 
d="M547 586l33 184h-469l10 59l563 564h68l-101 -568h113l-10 -55h-113l-33 -184h-61zM193 825h397l86 486z" />
    <glyph glyph-name="five.numr" 
d="M383 561q-115 0 -182.5 48t-67.5 130q0 19 2 29h60q-2 -12 -2 -23q0 -61 51 -95t139 -34q135 0 213 76t78 193q0 84 -44.5 125t-137.5 41q-137 0 -244 -78h-47l100 420h485l-10 -56h-434l-72 -297q101 66 228 66q235 0 235 -221q0 -143 -95.5 -233.5t-254.5 -90.5z" />
    <glyph glyph-name="six.numr" 
d="M399 561q-120 0 -183.5 54.5t-63.5 156.5q0 32 6 66l53 301q24 138 110 208t224 70q114 0 175.5 -45.5t61.5 -128.5q0 -18 -2 -26h-57q2 8 2 22q0 60 -46.5 91.5t-133.5 31.5q-233 0 -275 -232l-28 -161q105 121 272 121q219 0 219 -211q0 -141 -89.5 -229.5
t-244.5 -88.5zM401 616q127 0 199 75t72 186q0 81 -41.5 119t-126.5 38q-172 0 -279 -157l-6 -37q-6 -34 -6 -62q0 -79 48.5 -120.5t139.5 -41.5z" />
    <glyph glyph-name="seven.numr" 
d="M248 586q95 431 495 751h-526l10 56h598l-12 -60q-406 -323 -500 -747h-65z" />
    <glyph glyph-name="eight.numr" 
d="M381 561q-266 0 -266 199q0 94 56 157t153 89v2q-111 38 -111 157q0 113 88 182.5t236 69.5q115 0 177 -46.5t62 -141.5q0 -83 -46 -139t-128 -80v-2q131 -40 131 -181q0 -127 -95.5 -196.5t-256.5 -69.5zM459 1028q122 0 190 53.5t68 143.5q0 141 -182 141
q-122 0 -192.5 -56.5t-70.5 -144.5q0 -137 187 -137zM383 614q135 0 213 57.5t78 157.5q0 150 -203 150q-135 0 -215 -58t-80 -157q0 -150 207 -150z" />
    <glyph glyph-name="nine.numr" 
d="M369 561q-115 0 -176.5 46t-61.5 128q0 19 2 27h57q-2 -8 -2 -23q0 -60 47 -91.5t134 -31.5q232 0 274 232l29 162q-105 -121 -273 -121q-219 0 -219 211q0 141 89.5 229t244.5 88q120 0 184 -55t64 -156q0 -30 -6 -65l-54 -301q-25 -138 -110 -208.5t-223 -70.5z
M410 944q171 0 278 158l6 37q6 35 6 61q0 79 -48.5 120.5t-139.5 41.5q-127 0 -198.5 -74.5t-71.5 -185.5q0 -81 41.5 -119.5t126.5 -38.5z" />
    <glyph glyph-name="zero.dnom" 
d="M283 -25q-119 0 -181.5 55t-62.5 158q0 30 6 68l53 303q23 131 108 201.5t220 70.5q119 0 181.5 -55t62.5 -158q0 -30 -6 -67l-54 -303q-23 -131 -107.5 -202t-219.5 -71zM285 31q225 0 266 227l51 291q6 38 6 65q0 162 -184 162q-225 0 -266 -227l-52 -291
q-6 -38 -6 -65q0 -162 185 -162z" />
    <glyph glyph-name="one.dnom" 
d="M100 0l11 55h204l117 670q-110 -62 -239 -68l8 48q133 11 250 102h59l-133 -752h205l-11 -55h-471z" />
    <glyph glyph-name="two.dnom" 
d="M6 0l8 45q20 114 95.5 188.5t240.5 145.5q136 59 199 121.5t63 140.5q0 135 -176 135q-213 0 -252 -190l-2 -11h-61l4 21q23 116 104.5 175.5t210.5 59.5q232 0 232 -190q0 -101 -70.5 -174.5t-232.5 -142.5q-143 -62 -208.5 -122t-82.5 -147h493l-10 -55h-555z" />
    <glyph glyph-name="three.dnom" 
d="M285 -25q-121 0 -188.5 46.5t-67.5 125.5q0 24 4 48l4 22h59l-2 -12q-4 -24 -4 -41q0 -133 193 -133q130 0 201 59.5t71 159.5q0 71 -43.5 105t-146.5 34h-103l8 55h103q105 0 167 56t62 141q0 135 -176 135q-102 0 -167.5 -43.5t-82.5 -126.5l-2 -10h-59l2 12
q18 106 104 164.5t211 58.5q110 0 170 -47.5t60 -140.5q0 -84 -47.5 -141.5t-131.5 -81.5v-2q131 -33 131 -174q0 -125 -89.5 -197t-239.5 -72z" />
    <glyph glyph-name="four.dnom" 
d="M444 0l33 184h-469l10 60l564 563h67l-100 -567h113l-11 -56h-112l-33 -184h-62zM90 240h397l86 485z" />
    <glyph glyph-name="five.dnom" 
d="M279 -25q-115 0 -182.5 48.5t-67.5 130.5q0 18 2 28h59q-2 -12 -2 -22q0 -61 51 -95t140 -34q135 0 212.5 75.5t77.5 192.5q0 84 -44.5 125t-137.5 41q-137 0 -244 -78h-47l101 420h485l-10 -55h-434l-72 -297q100 65 227 65q236 0 236 -221q0 -143 -95.5 -233.5
t-254.5 -90.5z" />
    <glyph glyph-name="six.dnom" 
d="M297 -25q-120 0 -184 55t-64 156q0 31 6 66l54 301q25 138 110 208t223 70q115 0 176.5 -46t61.5 -128q0 -18 -2 -26h-57q2 8 2 22q0 60 -47 91.5t-134 31.5q-232 0 -274 -231l-29 -162q105 121 273 121q219 0 219 -211q0 -141 -89.5 -229.5t-244.5 -88.5zM299 31
q127 0 198.5 74.5t71.5 185.5q0 81 -41.5 119.5t-126.5 38.5q-171 0 -278 -158l-6 -37q-6 -35 -6 -61q0 -79 48.5 -120.5t139.5 -41.5z" />
    <glyph glyph-name="seven.dnom" 
d="M145 0q95 431 496 752h-526l10 55h598l-12 -59q-406 -323 -500 -748h-66z" />
    <glyph glyph-name="eight.dnom" 
d="M276 -25q-266 0 -266 199q0 94 56 157t153 89v2q-110 37 -110 158q0 113 87.5 182t235.5 69q115 0 177.5 -46.5t62.5 -141.5q0 -83 -46 -139t-128 -80v-2q131 -40 131 -180q0 -127 -96 -197t-257 -70zM354 442q122 0 190 53.5t68 143.5q0 141 -182 141q-122 0 -192 -56
t-70 -144q0 -138 186 -138zM279 29q135 0 212.5 57.5t77.5 157.5q0 76 -49.5 112.5t-152.5 36.5q-135 0 -215 -58t-80 -157q0 -149 207 -149z" />
    <glyph glyph-name="nine.dnom" 
d="M266 -25q-114 0 -175.5 46t-61.5 129q0 18 2 26h57q-2 -8 -2 -22q0 -60 46.5 -91.5t133.5 -31.5q233 0 275 231l28 162q-105 -121 -272 -121q-219 0 -219 211q0 141 89.5 229t244.5 88q120 0 183.5 -54.5t63.5 -155.5q0 -31 -6 -66l-53 -301q-25 -138 -110.5 -208.5
t-223.5 -70.5zM307 358q172 0 279 158l6 37q6 35 6 61q0 79 -48.5 120.5t-139.5 41.5q-127 0 -199 -74.5t-72 -185.5q0 -81 41.5 -119.5t126.5 -38.5z" />
    <glyph glyph-name="exclamdown.case" horiz-adv-x="526" 
d="M346 1231l29 162h84l-29 -162h-84zM139 0l54 295l129 678h43l-113 -678l-49 -295h-64z" />
    <glyph glyph-name="questiondown.case" horiz-adv-x="845" 
d="M543 1231l28 162h84l-28 -162h-84zM336 -25q-153 0 -237.5 70.5t-84.5 198.5q0 132 56.5 218t193.5 161q117 65 170 129t70 163l10 58h51l-10 -58q-22 -120 -76.5 -191t-179.5 -142q-126 -70 -175.5 -144.5t-49.5 -191.5q0 -104 69 -159.5t199 -55.5q156 0 254.5 80
t124.5 229h57q-31 -172 -147 -268.5t-295 -96.5z" />
    <glyph glyph-name="at.case" horiz-adv-x="1560" 
d="M795 -33q-321 0 -502.5 171.5t-181.5 469.5q0 169 61 319.5t167.5 260t259.5 173.5t329 64q284 0 456 -155t172 -412q0 -96 -25 -189.5t-71 -171t-119.5 -125.5t-162.5 -48q-158 0 -158 151v14q-127 -165 -305 -165q-107 0 -163 56t-56 157q0 39 6 77l28 162
q25 137 104.5 210t201.5 73q182 0 254 -166l28 139h53l-86 -487q-6 -35 -6 -58q0 -56 26 -82t83 -26q75 0 136 44t98 115t57 153t20 165q0 236 -155.5 375t-413.5 139q-166 0 -308.5 -60t-240.5 -162.5t-153.5 -242t-55.5 -295.5q0 -275 165.5 -431t455.5 -156
q243 0 428 112l22 -55q-181 -113 -448 -113zM719 379q172 0 313 203l39 225q-65 197 -235 197q-203 0 -246 -240l-27 -152q-6 -35 -6 -71q0 -162 162 -162z" />
    <glyph glyph-name="parenleft.case" horiz-adv-x="649" 
d="M479 -197q-147 69 -230 229t-83 408q0 171 41 346.5t117.5 334t198.5 284t272 184.5l-9 -53q-106 -48 -198 -138t-157.5 -202.5t-112.5 -243.5t-70 -265t-23 -263q0 -426 264 -571z" />
    <glyph glyph-name="parenright.case" horiz-adv-x="649" 
d="M-84 -197l8 54q106 48 198 138t157.5 202.5t112.5 243.5t70 265t23 263q0 426 -264 571l10 49q147 -69 230.5 -229t83.5 -408q0 -171 -41 -346.5t-117.5 -334t-198.5 -284t-272 -184.5z" />
    <glyph glyph-name="braceleft.case" horiz-adv-x="649" 
d="M412 -172q-228 0 -228 209q0 34 11 98l65 371q6 34 6 59q0 59 -36.5 83t-125.5 24l9 49q104 0 151 37t64 131l65 373q28 156 106.5 229.5t215.5 73.5h76l-9 -49h-69q-216 0 -262 -259l-64 -360q-18 -94 -51.5 -141t-95.5 -60v-2q84 -24 84 -129q0 -23 -7 -63l-65 -371
q-8 -47 -8 -84q0 -88 42.5 -129t133.5 -41h74l-11 -49h-71z" />
    <glyph glyph-name="braceright.case" horiz-adv-x="649" 
d="M-80 -172l8 49h70q216 0 262 258l64 361q17 93 51 140t96 60v2q-84 24 -84 129q0 29 6 64l66 371q8 47 8 84q0 88 -42.5 129t-133.5 41h-74l10 49h72q227 0 227 -209q0 -41 -10 -99l-65 -370q-7 -40 -7 -60q0 -59 36.5 -82.5t125.5 -23.5l-8 -49q-104 0 -151 -37
t-64 -131l-66 -373q-28 -156 -106 -229.5t-215 -73.5h-76z" />
    <glyph glyph-name="bracketleft.case" horiz-adv-x="649" 
d="M90 -172l307 1737h394l-9 -49h-333l-291 -1639h336l-11 -49h-393z" />
    <glyph glyph-name="bracketright.case" horiz-adv-x="649" 
d="M-80 -172l8 49h334l291 1639h-336l10 49h394l-308 -1737h-393z" />
    <glyph glyph-name="bar.case" horiz-adv-x="552" 
d="M94 -328l363 2048h61l-362 -2048h-62z" />
    <glyph glyph-name="brokenbar.case" horiz-adv-x="552" 
d="M311 901l146 819h61l-145 -819h-62zM94 -328l146 820h61l-145 -820h-62z" />
    <glyph glyph-name="periodcentered.case" horiz-adv-x="489" 
d="M219 614l29 162h84l-29 -162h-84z" />
    <glyph glyph-name="bullet.case" horiz-adv-x="1024" 
d="M336 520l61 352h353l-62 -352h-352z" />
    <glyph glyph-name="hyphen.case" horiz-adv-x="727" 
d="M98 668l11 57h583l-10 -57h-584z" />
    <glyph glyph-name="uni00AD.case" horiz-adv-x="727" 
d="M98 668l11 57h583l-10 -57h-584z" />
    <glyph glyph-name="figuredash.case" horiz-adv-x="1228" 
d="M88 670l8 53h1106l-8 -53h-1106z" />
    <glyph glyph-name="endash.case" horiz-adv-x="1024" 
d="M88 670l8 53h901l-8 -53h-901z" />
    <glyph glyph-name="emdash.case" horiz-adv-x="1843" 
d="M88 670l8 53h1721l-9 -53h-1720z" />
    <glyph glyph-name="guillemotleft.case" horiz-adv-x="880" 
d="M340 344l-246 354l365 351h84l-371 -357l240 -348h-72zM715 344l-246 354l365 351h84l-371 -357l239 -348h-71z" />
    <glyph glyph-name="guillemotright.case" horiz-adv-x="880" 
d="M25 344l370 356l-239 349h71l246 -355l-364 -350h-84zM399 344l371 356l-240 349h72l246 -355l-365 -350h-84z" />
    <glyph glyph-name="guilsinglleft.case" horiz-adv-x="505" 
d="M340 344l-246 354l365 351h84l-371 -357l240 -348h-72z" />
    <glyph glyph-name="guilsinglright.case" horiz-adv-x="505" 
d="M25 344l370 356l-239 349h71l246 -355l-364 -350h-84z" />
    <glyph glyph-name="caron.alt" horiz-adv-x="225" 
d="M150 1116l151 379h70l-170 -379h-51z" />
    <glyph glyph-name="ringacute" horiz-adv-x="1024" 
d="M604 1579l260 250h88l-278 -250h-70zM637 1169q-66 0 -107 40.5t-41 103.5q0 74 53.5 125t129.5 51q66 0 106.5 -40t40.5 -103q0 -74 -53 -125.5t-129 -51.5zM639 1219q54 0 90.5 37.5t36.5 91.5q0 42 -26.5 67t-69.5 25q-54 0 -90.5 -37.5t-36.5 -91.5q0 -42 26.5 -67
t69.5 -25z" />
    <glyph glyph-name="NULL" horiz-adv-x="0" 
 />
    </font>
</defs>
</svg>
