<svg width="1439" height="361" viewBox="0 0 1439 361" fill="none" xmlns="http://www.w3.org/2000/svg">
<g opacity="0.8">
<path fill-rule="evenodd" clip-rule="evenodd" d="M535.082 290.361L538.266 107.914L551.747 63.44H561.541L567.647 10.2661L576.003 63.1293H583.809L600.188 107.404V297.085L535.082 290.361Z" fill="url(#paint0_linear_6_1927)"/>
<path fill-rule="evenodd" clip-rule="evenodd" d="M383.677 160.733V93.245L391.029 86.6094L401.971 28.7974L415.955 86.6094L423.713 93.245L425.629 168.944L383.677 160.733Z" fill="url(#paint1_linear_6_1927)"/>
<path fill-rule="evenodd" clip-rule="evenodd" d="M249.923 129.818V86.2088L254.688 81.9034L261.752 44.553L270.803 81.9034L275.808 86.2088L277.053 135.122L249.923 129.818Z" fill="url(#paint2_linear_6_1927)"/>
<path fill-rule="evenodd" clip-rule="evenodd" d="M1256.49 359.767L1250.79 248.115H1256.56L1228.72 208.101L1151.93 204.95V85.9525L1124.51 70.1291L1122.14 7.90062H1121.3L1122.81 69.9516L1053.63 73.1917L1052.43 93.0986L1047.65 97.7147L1046.28 142.877L983.999 228.297H928.112V216.868L925.861 214.271L924.927 187.751L922.533 179.739L918.678 186.73V214.182L916.475 215.558V227.72L894.541 266.313H899.546L894.541 315.292L883.742 324.88L857.044 320.441L788.058 310.676L759.947 299.868L761.049 178.052L725.826 120.795H709.854L707.46 89.5256L703.796 85.4421V2.55217H701.665V84.4212L625.257 130.538L617.355 129.805L556.032 178.563L563.383 178.052L560.055 279.606L554.189 282.203L518.582 310.898L511.184 296.429L506.275 105.038L469.926 87.3063L345.245 96.8714L344.886 113.227L337.775 120.795H320.247V85.4421L315.793 76.0546L299.87 0L285.742 77.1198L281.265 86.9734L282.079 112.539L268.071 120.795H242.522V92.0777L237.876 84.4212L221.522 34.2878L209.406 82.3573L201.672 93.0986L200.283 130.338L202.941 163.96L154.213 197.049L95.3085 263.295H106.347L97.0804 360.965L1256.49 359.767Z" fill="url(#paint3_linear_6_1927)"/>
<path fill-rule="evenodd" clip-rule="evenodd" d="M472.73 332.371L469.928 86.2534L506.277 103.985L511.185 300.147L472.73 332.371Z" fill="url(#paint4_linear_6_1927)"/>
<path fill-rule="evenodd" clip-rule="evenodd" d="M320.248 119.743V280.774L343.643 297.307L337.776 119.743H320.248Z" fill="url(#paint5_linear_6_1927)"/>
<path fill-rule="evenodd" clip-rule="evenodd" d="M282.081 111.487V219.3L267.643 248.616L268.074 119.743L282.081 111.487Z" fill="url(#paint6_linear_6_1927)"/>
<path fill-rule="evenodd" clip-rule="evenodd" d="M725.828 119.743V351.258L759.949 298.816L761.051 177L725.828 119.743Z" fill="url(#paint7_linear_6_1927)"/>
<path fill-rule="evenodd" clip-rule="evenodd" d="M701.667 83.3692V243.49L709.856 231.461V119.743L707.461 88.4735L701.667 83.3692Z" fill="url(#paint8_linear_6_1927)"/>
<path fill-rule="evenodd" clip-rule="evenodd" d="M617.357 128.754V358.56L623.511 359.381L625.259 129.486L617.357 128.754Z" fill="url(#paint9_linear_6_1927)"/>
<path opacity="0.3" fill-rule="evenodd" clip-rule="evenodd" d="M1124.51 69.0768L1123.34 358.772L1152.97 358.923L1151.93 84.9003L1124.51 69.0768Z" fill="url(#paint10_linear_6_1927)"/>
<path fill-rule="evenodd" clip-rule="evenodd" d="M1228.89 215.283L1233.17 358.772L1256.49 358.714L1250.8 247.063L1228.89 215.283Z" fill="url(#paint11_linear_6_1927)"/>
<path fill-rule="evenodd" clip-rule="evenodd" d="M639.818 127.976L643.242 125.091V352.722L638.621 351.413L639.818 127.976Z" fill="url(#paint12_linear_6_1927)"/>
<path fill-rule="evenodd" clip-rule="evenodd" d="M654.279 119.831L657.679 116.946V344.577L653.082 343.268L654.279 119.831Z" fill="url(#paint13_linear_6_1927)"/>
<path fill-rule="evenodd" clip-rule="evenodd" d="M669.556 111.509L672.98 108.624V336.255L668.359 334.946L669.556 111.509Z" fill="url(#paint14_linear_6_1927)"/>
<path fill-rule="evenodd" clip-rule="evenodd" d="M684.929 102.987L688.353 100.102V327.733L683.732 326.424L684.929 102.987Z" fill="url(#paint15_linear_6_1927)"/>
<path fill-rule="evenodd" clip-rule="evenodd" d="M86.349 359.351L81.3733 289.199H52.7113V305.444H46.3898V276.993L16.8897 275.351V359.351H86.349Z" fill="url(#paint16_linear_6_1927)"/>
<path fill-rule="evenodd" clip-rule="evenodd" d="M1438.52 359.718V289.292H1391.61V305.537H1385.29V277.086L1355.79 275.444V359.443L1438.52 359.718Z" fill="url(#paint17_linear_6_1927)"/>
<path fill-rule="evenodd" clip-rule="evenodd" d="M1344.25 359.924L1342.48 267.869H1324.11L1321.03 359.719L1344.25 359.924Z" fill="url(#paint18_linear_6_1927)"/>
<path fill-rule="evenodd" clip-rule="evenodd" d="M1317.31 360.087L1319.37 282.479L1274.98 281.125L1271.99 359.718L1317.31 360.087Z" fill="url(#paint19_linear_6_1927)"/>
</g>
<defs>
<linearGradient id="paint0_linear_6_1927" x1="20494" y1="42502.5" x2="20494" y2="13083.5" gradientUnits="userSpaceOnUse">
<stop stop-color="#1B1638"/>
<stop offset="1" stop-color="#2F2D33"/>
</linearGradient>
<linearGradient id="paint1_linear_6_1927" x1="13244.3" y1="20791.6" x2="13244.3" y2="6416.7" gradientUnits="userSpaceOnUse">
<stop stop-color="#1B1638"/>
<stop offset="1" stop-color="#2F2D33"/>
</linearGradient>
<linearGradient id="paint2_linear_6_1927" x1="8566.76" y1="13462.3" x2="8566.76" y2="4172.67" gradientUnits="userSpaceOnUse">
<stop stop-color="#1B1638"/>
<stop offset="1" stop-color="#2F2D33"/>
</linearGradient>
<linearGradient id="paint3_linear_6_1927" x1="675.948" y1="360.965" x2="675.948" y2="0" gradientUnits="userSpaceOnUse">
<stop/>
<stop offset="1" stop-color="#0D0B16"/>
</linearGradient>
<linearGradient id="paint4_linear_6_1927" x1="13117.7" y1="36548.6" x2="13117.7" y2="11304.3" gradientUnits="userSpaceOnUse">
<stop/>
<stop offset="1" stop-color="#16171A"/>
</linearGradient>
<linearGradient id="paint5_linear_6_1927" x1="7491.96" y1="26425.9" x2="7491.96" y2="8213.11" gradientUnits="userSpaceOnUse">
<stop/>
<stop offset="1" stop-color="#16171A"/>
</linearGradient>
<linearGradient id="paint6_linear_6_1927" x1="4694" y1="20427.2" x2="4694" y2="6361.83" gradientUnits="userSpaceOnUse">
<stop/>
<stop offset="1" stop-color="#16171A"/>
</linearGradient>
<linearGradient id="paint7_linear_6_1927" x1="11523.8" y1="34418.7" x2="11523.8" y2="10672.2" gradientUnits="userSpaceOnUse">
<stop/>
<stop offset="1" stop-color="#16171A"/>
</linearGradient>
<linearGradient id="paint8_linear_6_1927" x1="3212.14" y1="23805.2" x2="3212.14" y2="7381.67" gradientUnits="userSpaceOnUse">
<stop/>
<stop offset="1" stop-color="#16171A"/>
</linearGradient>
<linearGradient id="paint9_linear_6_1927" x1="3039.76" y1="34296.2" x2="3039.76" y2="10640.7" gradientUnits="userSpaceOnUse">
<stop/>
<stop offset="1" stop-color="#16171A"/>
</linearGradient>
<linearGradient id="paint10_linear_6_1927" x1="20275.7" y1="47837.5" x2="20275.7" y2="9309.29" gradientUnits="userSpaceOnUse">
<stop stop-color="#A8C7FF"/>
<stop offset="1" stop-color="#8289EB"/>
</linearGradient>
<linearGradient id="paint11_linear_6_1927" x1="9692.52" y1="21473.3" x2="9692.52" y2="6755.54" gradientUnits="userSpaceOnUse">
<stop/>
<stop offset="1" stop-color="#16171A"/>
</linearGradient>
<linearGradient id="paint12_linear_6_1927" x1="2055.35" y1="33848.6" x2="2055.35" y2="10500.5" gradientUnits="userSpaceOnUse">
<stop/>
<stop offset="1" stop-color="#16171A"/>
</linearGradient>
<linearGradient id="paint13_linear_6_1927" x1="2062.45" y1="33840.5" x2="2062.45" y2="10492.4" gradientUnits="userSpaceOnUse">
<stop/>
<stop offset="1" stop-color="#16171A"/>
</linearGradient>
<linearGradient id="paint14_linear_6_1927" x1="2085.09" y1="33832.2" x2="2085.09" y2="10484.1" gradientUnits="userSpaceOnUse">
<stop/>
<stop offset="1" stop-color="#16171A"/>
</linearGradient>
<linearGradient id="paint15_linear_6_1927" x1="2100.46" y1="33823.6" x2="2100.46" y2="10475.5" gradientUnits="userSpaceOnUse">
<stop/>
<stop offset="1" stop-color="#16171A"/>
</linearGradient>
<linearGradient id="paint16_linear_6_1927" x1="51.6201" y1="359.351" x2="51.6201" y2="275.351" gradientUnits="userSpaceOnUse">
<stop/>
<stop offset="1" stop-color="#0D0B16"/>
</linearGradient>
<linearGradient id="paint17_linear_6_1927" x1="1397.16" y1="359.718" x2="1397.16" y2="275.444" gradientUnits="userSpaceOnUse">
<stop/>
<stop offset="1" stop-color="#0D0B16"/>
</linearGradient>
<linearGradient id="paint18_linear_6_1927" x1="1332.64" y1="359.924" x2="1332.64" y2="267.869" gradientUnits="userSpaceOnUse">
<stop/>
<stop offset="1" stop-color="#0D0B16"/>
</linearGradient>
<linearGradient id="paint19_linear_6_1927" x1="1295.68" y1="360.087" x2="1295.68" y2="281.125" gradientUnits="userSpaceOnUse">
<stop/>
<stop offset="1" stop-color="#0D0B16"/>
</linearGradient>
</defs>
</svg>
