<svg width="3773" height="433" viewBox="0 0 3773 433" fill="none" xmlns="http://www.w3.org/2000/svg">
<path fill-rule="evenodd" clip-rule="evenodd" d="M1707.84 281.274L1710.92 104.537L1723.98 61.4546H1733.47L1739.38 9.94482L1747.48 61.1536H1755.04L1770.9 104.043V287.788L1707.84 281.274Z" fill="url(#paint0_linear_1210_418)"/>
<path fill-rule="evenodd" clip-rule="evenodd" d="M1561.17 155.703V90.3268L1568.29 83.8988L1578.89 27.896L1592.44 83.8988L1599.95 90.3268L1601.81 163.657L1561.17 155.703Z" fill="url(#paint1_linear_1210_418)"/>
<path fill-rule="evenodd" clip-rule="evenodd" d="M1431.6 125.755V83.5109L1436.21 79.3402L1443.06 43.1587L1451.82 79.3402L1456.67 83.5109L1457.88 130.893L1431.6 125.755Z" fill="url(#paint2_linear_1210_418)"/>
<path fill-rule="evenodd" clip-rule="evenodd" d="M2406.67 348.508L2401.15 240.35H2406.74L2379.77 201.589L2305.38 198.536V83.2627L2278.82 67.9344L2276.52 7.65337H2275.71L2277.17 67.7624L2210.16 70.9012L2209 90.1851L2204.36 94.6567L2203.04 138.406L2142.71 221.152H2088.57V210.081L2086.39 207.565L2085.48 181.875L2083.17 174.114L2079.43 180.886V207.479L2077.3 208.812V220.593L2056.05 257.979H2060.9L2056.05 305.425L2045.59 314.713L2019.73 310.413L1952.9 300.954L1925.67 290.484L1926.73 172.48L1892.61 117.015H1877.14L1874.82 86.7239L1871.27 82.7682V2.4723H1869.21V81.7793L1795.19 126.453L1787.54 125.743L1728.13 172.975L1735.25 172.48L1732.03 270.856L1726.35 273.372L1691.86 301.169L1684.69 287.152L1679.93 101.751L1644.72 84.5741L1523.94 93.8398L1523.6 109.684L1516.71 117.015H1499.73V82.7682L1495.41 73.6745L1479.99 0L1466.3 74.7064L1461.96 84.2516L1462.75 109.018L1449.18 117.015H1424.43V89.1962L1419.93 81.7793L1404.09 33.2148L1392.35 79.78L1384.86 90.1851L1383.52 126.259L1386.09 158.829L1338.89 190.883L1281.83 255.055H1292.52L1283.54 349.669L2406.67 348.508Z" fill="url(#paint3_linear_1210_418)"/>
<path fill-rule="evenodd" clip-rule="evenodd" d="M1647.43 321.97L1644.72 83.5542L1679.93 100.731L1684.68 290.754L1647.43 321.97Z" fill="url(#paint4_linear_1210_418)"/>
<path fill-rule="evenodd" clip-rule="evenodd" d="M1499.72 115.996V271.987L1522.38 288.003L1516.7 115.996H1499.72Z" fill="url(#paint5_linear_1210_418)"/>
<path fill-rule="evenodd" clip-rule="evenodd" d="M1462.75 107.998V212.437L1448.77 240.836L1449.18 115.995L1462.75 107.998Z" fill="url(#paint6_linear_1210_418)"/>
<path fill-rule="evenodd" clip-rule="evenodd" d="M1892.61 115.996V340.265L1925.66 289.465L1926.73 171.461L1892.61 115.996Z" fill="url(#paint7_linear_1210_418)"/>
<path fill-rule="evenodd" clip-rule="evenodd" d="M1869.21 80.7603V235.87L1877.14 224.218V115.996L1874.82 85.7048L1869.21 80.7603Z" fill="url(#paint8_linear_1210_418)"/>
<path fill-rule="evenodd" clip-rule="evenodd" d="M1787.54 124.724V347.338L1793.5 348.134L1795.19 125.434L1787.54 124.724Z" fill="url(#paint9_linear_1210_418)"/>
<path opacity="0.3" fill-rule="evenodd" clip-rule="evenodd" d="M2278.82 66.9155L2277.68 347.545L2306.38 347.691L2305.38 82.2438L2278.82 66.9155Z" fill="url(#paint10_linear_1210_418)"/>
<path fill-rule="evenodd" clip-rule="evenodd" d="M2379.92 208.545L2384.07 347.544L2406.67 347.488L2401.15 239.33L2379.92 208.545Z" fill="url(#paint11_linear_1210_418)"/>
<path fill-rule="evenodd" clip-rule="evenodd" d="M1809.29 123.971L1812.61 121.176V341.684L1808.13 340.415L1809.29 123.971Z" fill="url(#paint12_linear_1210_418)"/>
<path fill-rule="evenodd" clip-rule="evenodd" d="M1823.3 116.081L1826.59 113.287V333.794L1822.14 332.526L1823.3 116.081Z" fill="url(#paint13_linear_1210_418)"/>
<path fill-rule="evenodd" clip-rule="evenodd" d="M1838.1 108.019L1841.41 105.225V325.732L1836.94 324.464L1838.1 108.019Z" fill="url(#paint14_linear_1210_418)"/>
<path fill-rule="evenodd" clip-rule="evenodd" d="M1853 99.7645L1856.31 96.9697V317.477L1851.84 316.209L1853 99.7645Z" fill="url(#paint15_linear_1210_418)"/>
<path fill-rule="evenodd" clip-rule="evenodd" d="M1185.33 348.721L1181.18 273.369L1144.35 272.23L1143 348.377L1185.33 348.721Z" fill="url(#paint16_linear_1210_418)"/>
<path fill-rule="evenodd" clip-rule="evenodd" d="M1273.14 348.105L1268.33 280.149H1240.56V295.886H1234.44V268.325L1205.86 266.734V348.105H1273.14Z" fill="url(#paint17_linear_1210_418)"/>
<path fill-rule="evenodd" clip-rule="evenodd" d="M2583 348.461V280.239H2537.56V295.976H2531.44V268.415L2502.86 266.824V348.195L2583 348.461Z" fill="url(#paint18_linear_1210_418)"/>
<path fill-rule="evenodd" clip-rule="evenodd" d="M2491.68 348.66L2489.96 259.486H2472.17L2469.19 348.461L2491.68 348.66Z" fill="url(#paint19_linear_1210_418)"/>
<path fill-rule="evenodd" clip-rule="evenodd" d="M2465.58 348.819L2467.58 273.639L2424.57 272.328L2421.68 348.462L2465.58 348.819Z" fill="url(#paint20_linear_1210_418)"/>
<rect y="116" width="3773" height="317" fill="url(#paint21_linear_1210_418)"/>
<defs>
<linearGradient id="paint0_linear_1210_418" x1="21042.2" y1="41172.4" x2="21042.2" y2="12674" gradientUnits="userSpaceOnUse">
<stop stop-color="#1B1638"/>
<stop offset="1" stop-color="#2F2D33"/>
</linearGradient>
<linearGradient id="paint1_linear_1210_418" x1="14019.3" y1="20140.9" x2="14019.3" y2="6215.89" gradientUnits="userSpaceOnUse">
<stop stop-color="#1B1638"/>
<stop offset="1" stop-color="#2F2D33"/>
</linearGradient>
<linearGradient id="paint2_linear_1210_418" x1="9488.16" y1="13041" x2="9488.16" y2="4042.09" gradientUnits="userSpaceOnUse">
<stop stop-color="#1B1638"/>
<stop offset="1" stop-color="#2F2D33"/>
</linearGradient>
<linearGradient id="paint3_linear_1210_418" x1="1844.3" y1="349.669" x2="1844.3" y2="0" gradientUnits="userSpaceOnUse">
<stop/>
<stop offset="1" stop-color="#0D0B16"/>
</linearGradient>
<linearGradient id="paint4_linear_1210_418" x1="13896.7" y1="35404.8" x2="13896.7" y2="10950.5" gradientUnits="userSpaceOnUse">
<stop/>
<stop offset="1" stop-color="#16171A"/>
</linearGradient>
<linearGradient id="paint5_linear_1210_418" x1="8447" y1="25598.9" x2="8447" y2="7956.09" gradientUnits="userSpaceOnUse">
<stop/>
<stop offset="1" stop-color="#16171A"/>
</linearGradient>
<linearGradient id="paint6_linear_1210_418" x1="5736.6" y1="19787.9" x2="5736.6" y2="6162.74" gradientUnits="userSpaceOnUse">
<stop/>
<stop offset="1" stop-color="#16171A"/>
</linearGradient>
<linearGradient id="paint7_linear_1210_418" x1="12352.6" y1="33341.5" x2="12352.6" y2="10338.2" gradientUnits="userSpaceOnUse">
<stop/>
<stop offset="1" stop-color="#16171A"/>
</linearGradient>
<linearGradient id="paint8_linear_1210_418" x1="4301.11" y1="23060.3" x2="4301.11" y2="7150.66" gradientUnits="userSpaceOnUse">
<stop/>
<stop offset="1" stop-color="#16171A"/>
</linearGradient>
<linearGradient id="paint9_linear_1210_418" x1="4134.13" y1="33222.9" x2="4134.13" y2="10307.7" gradientUnits="userSpaceOnUse">
<stop/>
<stop offset="1" stop-color="#16171A"/>
</linearGradient>
<linearGradient id="paint10_linear_1210_418" x1="20830.7" y1="46340.4" x2="20830.7" y2="9017.96" gradientUnits="userSpaceOnUse">
<stop stop-color="#A8C7FF"/>
<stop offset="1" stop-color="#8289EB"/>
</linearGradient>
<linearGradient id="paint11_linear_1210_418" x1="10578.7" y1="20801.3" x2="10578.7" y2="6544.13" gradientUnits="userSpaceOnUse">
<stop/>
<stop offset="1" stop-color="#16171A"/>
</linearGradient>
<linearGradient id="paint12_linear_1210_418" x1="3180.52" y1="32789.4" x2="3180.52" y2="10171.9" gradientUnits="userSpaceOnUse">
<stop/>
<stop offset="1" stop-color="#16171A"/>
</linearGradient>
<linearGradient id="paint13_linear_1210_418" x1="3187.4" y1="32781.5" x2="3187.4" y2="10164" gradientUnits="userSpaceOnUse">
<stop/>
<stop offset="1" stop-color="#16171A"/>
</linearGradient>
<linearGradient id="paint14_linear_1210_418" x1="3209.33" y1="32773.4" x2="3209.33" y2="10156" gradientUnits="userSpaceOnUse">
<stop/>
<stop offset="1" stop-color="#16171A"/>
</linearGradient>
<linearGradient id="paint15_linear_1210_418" x1="3224.23" y1="32765.1" x2="3224.23" y2="10147.7" gradientUnits="userSpaceOnUse">
<stop/>
<stop offset="1" stop-color="#16171A"/>
</linearGradient>
<linearGradient id="paint16_linear_1210_418" x1="1164.17" y1="348.721" x2="1164.17" y2="272.23" gradientUnits="userSpaceOnUse">
<stop/>
<stop offset="1" stop-color="#0D0B16"/>
</linearGradient>
<linearGradient id="paint17_linear_1210_418" x1="1239.5" y1="348.105" x2="1239.5" y2="266.734" gradientUnits="userSpaceOnUse">
<stop/>
<stop offset="1" stop-color="#0D0B16"/>
</linearGradient>
<linearGradient id="paint18_linear_1210_418" x1="2542.93" y1="348.461" x2="2542.93" y2="266.824" gradientUnits="userSpaceOnUse">
<stop/>
<stop offset="1" stop-color="#0D0B16"/>
</linearGradient>
<linearGradient id="paint19_linear_1210_418" x1="2480.43" y1="348.66" x2="2480.43" y2="259.486" gradientUnits="userSpaceOnUse">
<stop/>
<stop offset="1" stop-color="#0D0B16"/>
</linearGradient>
<linearGradient id="paint20_linear_1210_418" x1="2444.63" y1="348.819" x2="2444.63" y2="272.328" gradientUnits="userSpaceOnUse">
<stop/>
<stop offset="1" stop-color="#0D0B16"/>
</linearGradient>
<linearGradient id="paint21_linear_1210_418" x1="1886.5" y1="116" x2="1886.5" y2="433" gradientUnits="userSpaceOnUse">
<stop stop-color="#17171A" stop-opacity="0"/>
<stop offset="0.556876" stop-color="#17171A"/>
</linearGradient>
</defs>
</svg>
