<svg width="28" height="28" viewBox="0 0 28 28" fill="none" xmlns="http://www.w3.org/2000/svg">
<g clip-path="url(#clip0_4419_2783)">
<g clip-path="url(#clip1_4419_2783)">
<path d="M-6 4V24H34V4H-6Z" fill="#012169"/>
<path d="M-6 4L34 24L-6 4ZM34 4L-6 24L34 4Z" fill="black"/>
<path d="M-6 4L34 24M34 4L-6 24" stroke="white" stroke-width="3.6"/>
<mask id="mask0_4419_2783" style="mask-type:luminance" maskUnits="userSpaceOnUse" x="-6" y="4" width="40" height="20">
<path d="M14 14H34V24L14 14ZM14 14V24H-6L14 14ZM14 14H-6V4L14 14ZM14 14V4H34L14 14Z" fill="white"/>
</mask>
<g mask="url(#mask0_4419_2783)">
<path d="M-6 4L34 24L-6 4ZM34 4L-6 24L34 4Z" fill="black"/>
<path d="M-6 4L34 24M34 4L-6 24" stroke="#C8102E" stroke-width="2.4"/>
</g>
<path d="M14 4V24V4ZM-6 14H34H-6Z" fill="black"/>
<path d="M14 4V24M-6 14H34" stroke="white" stroke-width="6"/>
<path d="M14 4V24V4ZM-6 14H34H-6Z" fill="black"/>
<path d="M14 4V24M-6 14H34" stroke="#C8102E" stroke-width="3.6"/>
</g>
</g>
<defs>
<clipPath id="clip0_4419_2783">
<rect width="28" height="28" fill="white"/>
</clipPath>
<clipPath id="clip1_4419_2783">
<rect x="4" y="4" width="20" height="20" rx="2" fill="white"/>
</clipPath>
</defs>
</svg>
