<?xml version="1.0" standalone="no"?>
<!DOCTYPE svg PUBLIC "-//W3C//DTD SVG 1.1//EN" "http://www.w3.org/Graphics/SVG/1.1/DTD/svg11.dtd" >
<svg xmlns="http://www.w3.org/2000/svg" xmlns:xlink="http://www.w3.org/1999/xlink" version="1.1">
<metadata>
Created by FontForge 20170731 at Mon May  8 10:35:16 2023
 By Aleksey,,,
Copyright (c) 2014-2015 by Ryoichi Tsunekawa. All rights reserved.
</metadata>
<defs>
<font id="BioSans-LightItalic" horiz-adv-x="749" >
  <font-face 
    font-family="Bio Sans Light"
    font-weight="300"
    font-style="italic"
    font-stretch="normal"
    units-per-em="2048"
    panose-1="2 11 4 6 2 2 2 11 2 4"
    ascent="1638"
    descent="-410"
    x-height="1049"
    cap-height="1393"
    bbox="-426 -463 2181 2187"
    underline-thickness="73"
    underline-position="-277"
    slope="-10"
    unicode-range="U+000D-FB02"
  />
<missing-glyph horiz-adv-x="1421" 
d="M109 0l245 1393h1020l-244 -1393h-1021zM752 778l456 531h-729zM223 162l463 538l-272 531zM1069 162l191 1069l-463 -539zM274 84h730l-273 530z" />
    <glyph glyph-name="fi" unicode="fi" horiz-adv-x="1163" 
d="M143 0l170 954h-211l17 95h211l24 141q28 157 106 231t214 74h157l-16 -98h-131q-94 0 -145.5 -50t-71.5 -163l-25 -135h303l-16 -95h-303l-168 -954h-115zM989 1266l29 170h129l-29 -170h-129zM772 0l184 1049h115l-184 -1049h-115z" />
    <glyph glyph-name="fl" unicode="fl" horiz-adv-x="1163" 
d="M143 0l170 954h-211l17 95h211l24 141q28 157 106 231t214 74h157l-16 -98h-131q-94 0 -145.5 -50t-71.5 -163l-25 -135h303l-16 -95h-303l-168 -954h-115zM772 0l264 1495h115l-264 -1495h-115z" />
    <glyph glyph-name=".notdef" horiz-adv-x="1421" 
d="M109 0l245 1393h1020l-244 -1393h-1021zM752 778l456 531h-729zM223 162l463 538l-272 531zM1069 162l191 1069l-463 -539zM274 84h730l-273 530z" />
    <glyph glyph-name=".null" horiz-adv-x="0" 
 />
    <glyph glyph-name="nonmarkingreturn" horiz-adv-x="682" 
 />
    <glyph glyph-name="CR" unicode="&#xd;" horiz-adv-x="552" 
 />
    <glyph glyph-name="space" unicode=" " horiz-adv-x="552" 
 />
    <glyph glyph-name="exclam" unicode="!" horiz-adv-x="559" 
d="M219 418l100 647l54 328h119l-60 -328l-131 -647h-82zM117 0l30 182h142l-33 -182h-139z" />
    <glyph glyph-name="quotedbl" unicode="&#x22;" horiz-adv-x="747" 
d="M240 973l53 420h131l-94 -420h-90zM580 973l53 420h131l-94 -420h-90z" />
    <glyph glyph-name="numbersign" unicode="#" horiz-adv-x="1230" 
d="M147 0l115 379h-203l17 96h215l139 463h-201l17 96h213l108 359h107l-109 -359h363l108 359h107l-109 -359h203l-18 -96h-213l-140 -463h201l-18 -96h-211l-115 -379h-107l115 379h-362l-115 -379h-107zM397 475h363l139 463h-362z" />
    <glyph glyph-name="dollar" unicode="$" horiz-adv-x="1230" 
d="M451 -147l26 147q-183 9 -280 84.5t-97 212.5q0 35 6 78h107q-6 -35 -6 -62q0 -199 289 -211l98 560q-207 38 -282.5 102t-75.5 199q0 188 131.5 303.5t355.5 126.5l27 147h98l-27 -149q162 -11 248 -83.5t86 -201.5q0 -42 -8 -78h-105q7 35 7 59q0 186 -244 201
l-94 -536q206 -38 282 -105t76 -209q0 -194 -130.5 -309t-360.5 -127l-27 -149h-100zM612 770l93 518q-166 -12 -261.5 -94t-95.5 -213q0 -90 55.5 -134.5t208.5 -76.5zM596 104q169 14 264.5 97.5t95.5 220.5q0 95 -55 142t-211 79z" />
    <glyph glyph-name="percent" unicode="%" horiz-adv-x="1568" 
d="M410 651q-125 0 -190.5 54.5t-65.5 158.5q0 34 6 68l37 209q24 139 109 207.5t222 68.5q125 0 190.5 -54.5t65.5 -158.5q0 -32 -6 -67l-37 -209q-24 -139 -109.5 -208t-221.5 -69zM219 -25l1084 1442h106l-1081 -1442h-109zM414 741q192 0 229 199l35 195q4 18 4 61
q0 131 -156 131q-197 0 -231 -199l-33 -196q-6 -48 -6 -60q0 -131 158 -131zM1104 -25q-125 0 -190.5 54.5t-65.5 158.5q0 34 6 68l37 209q24 139 109.5 207.5t222.5 68.5q125 0 190.5 -54.5t65.5 -158.5q0 -32 -6 -67l-37 -209q-24 -138 -110 -207.5t-222 -69.5zM1106 66
q192 0 229 198l35 197q4 32 4 59q0 131 -155 131q-198 0 -232 -198l-33 -195q-6 -27 -6 -61q0 -131 158 -131z" />
    <glyph glyph-name="ampersand" unicode="&#x26;" horiz-adv-x="1347" 
d="M475 -25q-193 0 -298 82.5t-105 237.5q0 142 94 256t295 215q-57 77 -82 137t-25 127q0 165 121 276t305 111q136 0 213.5 -66t77.5 -182q0 -130 -103 -232.5t-337 -203.5l323 -401q94 139 140 338h116q-63 -262 -186 -424l197 -246h-150l-125 158q-189 -183 -471 -183z
M565 815q213 90 304.5 169t91.5 175q0 74 -50.5 116t-142.5 42q-131 0 -216 -82t-85 -199q0 -53 22 -101.5t76 -119.5zM483 78q236 0 398 162l-357 446q-180 -89 -258 -176.5t-78 -200.5q0 -114 76.5 -172.5t218.5 -58.5z" />
    <glyph glyph-name="quotesingle" unicode="'" horiz-adv-x="409" 
d="M240 973l53 420h131l-94 -420h-90z" />
    <glyph glyph-name="parenleft" unicode="(" horiz-adv-x="669" 
d="M485 -266q-164 68 -252 229.5t-88 415.5q0 177 43 354.5t123 334.5t207 278t283 174l-17 -99q-102 -46 -190 -133t-150 -195.5t-106 -234.5t-65 -253.5t-21 -248.5q0 -401 250 -532z" />
    <glyph glyph-name="parenright" unicode=")" horiz-adv-x="669" 
d="M-96 -266l16 98q127 57 231 176t168.5 267t99 308.5t34.5 313.5q0 402 -250 533l16 90q163 -68 251.5 -230t88.5 -416q0 -177 -43 -354.5t-122.5 -334t-206.5 -277.5t-283 -174z" />
    <glyph glyph-name="asterisk" unicode="*" horiz-adv-x="808" 
d="M244 643l-74 66l250 268l-305 92l35 96l309 -121l49 349h96l-69 -340l327 110l25 -96l-344 -94l166 -285l-86 -45l-142 287z" />
    <glyph glyph-name="plus" unicode="+" horiz-adv-x="1230" 
d="M492 115l81 465h-446l18 102h447l82 467h104l-82 -467h447l-19 -102h-444l-82 -465h-106z" />
    <glyph glyph-name="comma" unicode="," horiz-adv-x="524" 
d="M29 -246l14 78q36 5 64 39t38 94l7 35h-54l33 182h141l-34 -196q-20 -115 -70.5 -170.5t-138.5 -61.5z" />
    <glyph glyph-name="hyphen" unicode="-" horiz-adv-x="741" 
d="M74 541l18 110h600l-18 -110h-600z" />
    <glyph glyph-name="period" unicode="." horiz-adv-x="524" 
d="M100 0l33 182h141l-32 -182h-142z" />
    <glyph glyph-name="slash" unicode="/" horiz-adv-x="882" 
d="M-123 -287l1043 1782h116l-1044 -1782h-115z" />
    <glyph glyph-name="zero" unicode="0" horiz-adv-x="1230" 
d="M526 -25q-198 0 -301.5 88.5t-103.5 258.5q0 64 10 120l92 519q40 225 177.5 340.5t365.5 115.5q198 0 301.5 -88t103.5 -258q0 -65 -10 -121l-90 -518q-40 -225 -178.5 -341t-366.5 -116zM530 80q362 0 428 371l89 499q8 41 8 105q0 258 -295 258q-360 0 -426 -371
l-88 -500q-10 -51 -10 -104q0 -258 294 -258z" />
    <glyph glyph-name="one" unicode="1" horiz-adv-x="1230" 
d="M190 0l19 109h352l201 1128q-167 -105 -416 -121l16 101q247 15 429 176h112l-227 -1284h352l-18 -109h-820z" />
    <glyph glyph-name="two" unicode="2" horiz-adv-x="1230" 
d="M53 0l15 84q32 189 157 314t400 245q236 103 338 205t102 235q0 230 -291 230q-174 0 -279.5 -82t-134.5 -238l-4 -22h-110l8 45q34 191 171 296t359 105q194 0 294 -82t100 -243q0 -173 -120.5 -301t-395.5 -246q-235 -101 -341.5 -199t-134.5 -237h822l-19 -109h-936z
" />
    <glyph glyph-name="three" unicode="3" horiz-adv-x="1230" 
d="M526 -25q-205 0 -313.5 81.5t-108.5 224.5q0 19 9 84l6 34h110l-4 -28q-6 -37 -6 -68q0 -112 80.5 -167.5t232.5 -55.5q202 0 318.5 94.5t116.5 257.5q0 121 -72.5 176.5t-237.5 55.5h-163l16 104h164q169 0 272 89t103 230q0 226 -283 226q-172 0 -278 -79.5
t-130 -217.5l-2 -12h-110l4 24q29 181 167.5 285t358.5 104q187 0 286 -80t99 -239q0 -138 -74.5 -235.5t-205.5 -137.5v-4q103 -30 151.5 -101t48.5 -186q0 -211 -151 -335t-404 -124z" />
    <glyph glyph-name="four" unicode="4" horiz-adv-x="1230" 
d="M772 0l59 332h-765l18 112l915 949h134l-168 -957h178l-19 -104h-178l-59 -332h-115zM219 436h629l141 797z" />
    <glyph glyph-name="five" unicode="5" horiz-adv-x="1230" 
d="M520 -25q-195 0 -306.5 82.5t-111.5 221.5q0 25 4 61h113q-4 -28 -4 -45q0 -102 81.5 -158.5t225.5 -56.5q216 0 342.5 122.5t126.5 313.5q0 283 -305 283q-203 0 -373 -129h-100l172 723h815l-20 -109h-713l-115 -487q153 106 361 106q393 0 393 -375
q0 -243 -159.5 -398t-426.5 -155z" />
    <glyph glyph-name="six" unicode="6" horiz-adv-x="1230" 
d="M547 -25q-198 0 -304 90t-106 263q0 58 10 114l91 514q39 227 182.5 344t372.5 117q189 0 291 -79.5t102 -221.5q0 -35 -4 -51h-111q2 10 2 33q0 215 -282 215q-375 0 -443 -379l-43 -244q170 187 430 187q181 0 275 -85.5t94 -246.5q0 -258 -149.5 -414t-407.5 -156z
M551 80q206 0 322 123.5t116 326.5q0 118 -69 180t-207 62q-281 0 -439 -260l-12 -68q-10 -58 -10 -102q0 -262 299 -262z" />
    <glyph glyph-name="seven" unicode="7" horiz-adv-x="1230" 
d="M279 0q158 735 821 1282h-848l18 111h990l-21 -117q-683 -557 -838 -1276h-122z" />
    <glyph glyph-name="eight" unicode="8" horiz-adv-x="1230" 
d="M514 -25q-440 0 -440 336q0 156 93 264t255 150v4q-186 58 -186 260q0 190 149.5 309t388.5 119q193 0 297.5 -82t104.5 -241q0 -138 -78 -233t-217 -134v-4q219 -65 219 -299q0 -208 -159 -328.5t-427 -120.5zM645 770q194 0 307 86t113 229q0 228 -295 228
q-192 0 -307 -90.5t-115 -231.5q0 -221 297 -221zM520 80q215 0 342 92t127 252q0 125 -83 184.5t-247 59.5q-216 0 -342.5 -91.5t-126.5 -252.5q0 -124 81 -184t249 -60z" />
    <glyph glyph-name="nine" unicode="9" horiz-adv-x="1230" 
d="M498 -25q-189 0 -290.5 79.5t-101.5 221.5q0 28 3 52h110q-2 -10 -2 -33q0 -215 285 -215q374 0 442 379l43 243q-169 -186 -430 -186q-181 0 -275 85.5t-94 246.5q0 258 149 413.5t406 155.5q199 0 305.5 -89.5t106.5 -262.5q0 -59 -10 -115l-90 -514
q-39 -227 -183 -344t-374 -117zM580 621q283 0 440 264l10 63q10 58 10 103q0 262 -299 262q-206 0 -322 -124t-116 -327q0 -241 277 -241z" />
    <glyph glyph-name="colon" unicode=":" horiz-adv-x="524" 
d="M240 786l32 183h142l-33 -183h-141zM100 0l33 182h141l-32 -182h-142z" />
    <glyph glyph-name="semicolon" unicode=";" horiz-adv-x="524" 
d="M240 786l32 183h142l-33 -183h-141zM29 -246l14 78q36 5 64 39t38 94l7 35h-54l33 182h141l-34 -196q-20 -115 -70.5 -170.5t-138.5 -61.5z" />
    <glyph glyph-name="less" unicode="&#x3c;" horiz-adv-x="1230" 
d="M1049 147l-922 433l18 100l1074 430l-21 -115l-928 -372l797 -371z" />
    <glyph glyph-name="equal" unicode="=" horiz-adv-x="1230" 
d="M166 807l18 102h998l-19 -102h-997zM88 352l18 103h998l-19 -103h-997z" />
    <glyph glyph-name="greater" unicode="&#x3e;" horiz-adv-x="1230" 
d="M51 152l21 114l925 371l-796 373l18 104l922 -432l-17 -100z" />
    <glyph glyph-name="question" unicode="?" horiz-adv-x="866" 
d="M328 418l10 61q20 120 75.5 194t178.5 148q117 69 163 137.5t46 171.5q0 91 -59 139t-173 48q-137 0 -225 -74t-111 -209h-110q32 186 149.5 284.5t305.5 98.5q161 0 249 -72.5t88 -203.5q0 -134 -57.5 -223t-195.5 -168q-109 -64 -159 -126t-69 -155l-10 -51h-96zM233 0
l31 182h142l-33 -182h-140z" />
    <glyph glyph-name="at" unicode="@" horiz-adv-x="1556" 
d="M784 -139q-325 0 -510.5 173t-185.5 476q0 170 60.5 320.5t167 260t259.5 173t330 63.5q286 0 461.5 -156.5t175.5 -418.5q0 -77 -16 -152t-48.5 -142.5t-78 -119.5t-110 -82.5t-138.5 -30.5q-168 0 -180 146q-119 -146 -281 -146q-106 0 -162.5 55.5t-56.5 153.5
q0 32 6 76l29 162q50 276 297 276q168 0 239 -145l29 121h92l-82 -463q-4 -32 -4 -47q0 -90 90 -90q65 0 118 40.5t84.5 104.5t48 138t16.5 147q0 219 -143.5 346t-383.5 127q-207 0 -369.5 -96.5t-249.5 -259t-87 -359.5q0 -259 153.5 -405t425.5 -146q239 0 404 109
l43 -99q-180 -110 -443 -110zM713 324q144 0 262 165l35 203q-51 160 -193 160q-166 0 -201 -197l-24 -141q-6 -27 -6 -63q0 -127 127 -127z" />
    <glyph glyph-name="A" unicode="A" horiz-adv-x="1232" 
d="M-68 0l777 1393h120l287 -1393h-123l-78 393h-639l-219 -393h-125zM336 502h559l-150 747z" />
    <glyph glyph-name="B" unicode="B" horiz-adv-x="1306" 
d="M111 0l245 1393h527q197 0 287 -71t90 -228q0 -141 -69.5 -237t-201.5 -134v-4q108 -28 156.5 -94.5t48.5 -184.5q0 -206 -135.5 -323t-374.5 -117h-573zM362 764h418q171 0 267 83.5t96 231.5q0 112 -63.5 158.5t-215.5 46.5h-409zM246 109h438q185 0 289 87.5
t104 245.5q0 118 -69.5 165.5t-241.5 47.5h-422z" />
    <glyph glyph-name="C" unicode="C" horiz-adv-x="1255" 
d="M565 -25q-218 0 -330 100t-112 294q0 77 14 151l66 361q95 536 596 536q211 0 321.5 -92.5t110.5 -265.5q0 -48 -6 -94h-115q4 46 4 71q0 273 -321 273q-201 0 -319.5 -109.5t-158.5 -333.5l-61 -346q-12 -64 -12 -139q0 -152 80 -224.5t245 -72.5q181 0 294 86t153 256
h116q-103 -451 -565 -451z" />
    <glyph glyph-name="D" unicode="D" horiz-adv-x="1327" 
d="M111 0l245 1393h457q227 0 340 -91.5t113 -283.5q0 -64 -17 -164l-57 -326q-49 -277 -195 -402.5t-415 -125.5h-471zM246 109h336q220 0 338.5 102.5t156.5 323.5l58 325q12 64 12 139q0 152 -84 218.5t-268 66.5h-340z" />
    <glyph glyph-name="E" unicode="E" horiz-adv-x="1191" 
d="M111 0l245 1393h893l-18 -109h-776l-93 -514h674l-18 -108h-674l-98 -553h796l-18 -109h-913z" />
    <glyph glyph-name="F" unicode="F" horiz-adv-x="1116" 
d="M111 0l245 1393h877l-19 -109h-759l-93 -514h658l-19 -108h-657l-117 -662h-116z" />
    <glyph glyph-name="G" unicode="G" horiz-adv-x="1302" 
d="M575 -25q-221 0 -337.5 102.5t-116.5 291.5q0 65 12 135l70 389q44 251 200.5 387.5t401.5 136.5q208 0 321 -97t113 -271q0 -39 -6 -76h-113q4 32 4 61q0 132 -82.5 203.5t-240.5 71.5q-197 0 -322 -110.5t-162 -315.5l-65 -373q-12 -67 -12 -125q0 -301 342 -301
q200 0 314 105.5t155 314.5l18 96h-342l18 109h457l-39 -215q-95 -519 -588 -519z" />
    <glyph glyph-name="H" unicode="H" horiz-adv-x="1423" 
d="M111 0l245 1395h117l-111 -623h785l110 623h117l-246 -1395h-116l116 662h-784l-117 -662h-116z" />
    <glyph glyph-name="I" unicode="I" horiz-adv-x="522" 
d="M111 0l245 1393h117l-246 -1393h-116z" />
    <glyph glyph-name="J" unicode="J" horiz-adv-x="1124" 
d="M401 -25q-202 0 -296.5 82t-94.5 258q0 68 10 121l5 23h112l-2 -23q0 -5 -6 -51t-6 -68q0 -123 67.5 -178t215.5 -55q191 0 291 91.5t137 299.5l161 918h117l-164 -936q-43 -248 -174 -365t-373 -117z" />
    <glyph glyph-name="K" unicode="K" horiz-adv-x="1263" 
d="M111 0l245 1393h117l-143 -809l901 809h153l-630 -570l393 -823h-131l-352 741l-363 -321l-74 -420h-116z" />
    <glyph glyph-name="L" unicode="L" horiz-adv-x="1064" 
d="M111 0l245 1393h117l-227 -1284h731l-19 -109h-847z" />
    <glyph glyph-name="M" unicode="M" horiz-adv-x="1763" 
d="M111 0l245 1393h162l297 -1211l727 1211h172l-246 -1393h-116l217 1229l-738 -1229h-86l-303 1229l-217 -1229h-114z" />
    <glyph glyph-name="N" unicode="N" horiz-adv-x="1419" 
d="M1255 1393h113l-244 -1393h-112l-570 1235l-217 -1235h-114l245 1393h136l552 -1200z" />
    <glyph glyph-name="O" unicode="O" horiz-adv-x="1335" 
d="M580 -25q-222 0 -338.5 101.5t-116.5 300.5q0 79 12 143l66 361q47 266 202.5 401t413.5 135q223 0 339 -101.5t116 -299.5q0 -70 -14 -144l-64 -360q-46 -265 -202 -401t-414 -136zM584 84q422 0 497 438l62 350q12 68 12 134q0 154 -84.5 228.5t-257.5 74.5
q-423 0 -498 -439l-61 -350q-12 -67 -12 -133q0 -154 84.5 -228.5t257.5 -74.5z" />
    <glyph glyph-name="P" unicode="P" horiz-adv-x="1226" 
d="M111 0l245 1393h512q211 0 301.5 -76t90.5 -254q0 -235 -138 -363.5t-391 -128.5h-403l-101 -571h-116zM348 680h389q196 0 302 97t106 276q0 129 -65.5 180t-229.5 51h-395z" />
    <glyph glyph-name="Q" unicode="Q" horiz-adv-x="1337" 
d="M819 1417q223 0 339 -101.5t116 -299.5q0 -70 -14 -144l-64 -360q-43 -250 -184 -385l147 -180l-92 -76l-149 184q-139 -80 -338 -80q-222 0 -338.5 101.5t-116.5 300.5q0 79 12 143l66 361q47 266 202.5 401t413.5 135zM1143 872q12 68 12 134q0 154 -84.5 228.5
t-257.5 74.5q-423 0 -498 -439l-61 -350q-12 -67 -12 -133q0 -154 84.5 -228.5t257.5 -74.5q156 0 266 61l-227 277l88 72l229 -281q107 110 141 309z" />
    <glyph glyph-name="R" unicode="R" horiz-adv-x="1288" 
d="M111 0l245 1393h516q205 0 292 -74t87 -246q0 -201 -102.5 -322t-294.5 -149l264 -602h-127l-260 594h-399l-105 -594h-116zM352 702h391q191 0 291.5 94.5t100.5 270.5q0 123 -60.5 170t-220.5 47h-399z" />
    <glyph glyph-name="S" unicode="S" horiz-adv-x="1138" 
d="M492 -25q-217 0 -332 81t-115 231q0 39 6 82h117q-6 -38 -6 -66q0 -219 334 -219q201 0 312.5 91t111.5 263q0 89 -77.5 140.5t-258.5 80.5q-215 35 -305.5 102t-90.5 191q0 220 145.5 342.5t387.5 122.5q202 0 305.5 -76t103.5 -223q0 -38 -6 -84h-116q6 41 6 70
q0 107 -72 156t-221 49q-191 0 -303.5 -89t-112.5 -249q0 -83 72 -128.5t250 -74.5q221 -37 315 -109t94 -206q0 -231 -144.5 -354.5t-399.5 -123.5z" />
    <glyph glyph-name="T" unicode="T" horiz-adv-x="1026" 
d="M362 0l228 1284h-440l18 109h995l-18 -109h-438l-228 -1284h-117z" />
    <glyph glyph-name="U" unicode="U" horiz-adv-x="1316" 
d="M569 -27q-224 0 -328 82.5t-104 255.5q0 60 15 146l165 936h117l-166 -942q-12 -64 -12 -127q0 -132 75.5 -187t241.5 -55q212 0 316 85t139 290l164 936h115l-166 -942q-43 -251 -175 -364.5t-397 -113.5z" />
    <glyph glyph-name="V" unicode="V" horiz-adv-x="1183" 
d="M438 0l-260 1393h121l227 -1231l662 1231h125l-752 -1393h-123z" />
    <glyph glyph-name="W" unicode="W" horiz-adv-x="1783" 
d="M330 0l-150 1393h117l125 -1207l561 1207h119l137 -1209l549 1209h123l-639 -1393h-121l-139 1204l-563 -1204h-119z" />
    <glyph glyph-name="X" unicode="X" horiz-adv-x="1153" 
d="M-55 0l592 719l-330 674h131l289 -600l489 600h139l-569 -697l338 -696h-131l-299 623l-508 -623h-141z" />
    <glyph glyph-name="Y" unicode="Y" horiz-adv-x="1105" 
d="M401 0l109 614l-363 779h132l307 -660l536 660h142l-637 -785l-109 -608h-117z" />
    <glyph glyph-name="Z" unicode="Z" horiz-adv-x="1110" 
d="M-27 0l19 98l1014 1186h-768l18 109h924l-17 -99l-1013 -1185h821l-19 -109h-979z" />
    <glyph glyph-name="bracketleft" unicode="[" horiz-adv-x="669" 
d="M68 -242l307 1737h422l-15 -90h-315l-272 -1557h313l-16 -90h-424z" />
    <glyph glyph-name="backslash" unicode="\" horiz-adv-x="882" 
d="M610 -287l-417 1782h108l418 -1782h-109z" />
    <glyph glyph-name="bracketright" unicode="]" horiz-adv-x="669" 
d="M-92 -242l16 90h316l274 1557h-317l16 90h426l-305 -1737h-426z" />
    <glyph glyph-name="asciicircum" unicode="^" horiz-adv-x="1230" 
d="M88 682l631 711h98l381 -711h-115l-325 608l-539 -608h-131z" />
    <glyph glyph-name="underscore" unicode="_" horiz-adv-x="1024" 
d="M-133 -236l16 99h1024l-16 -99h-1024z" />
    <glyph glyph-name="grave" unicode="`" horiz-adv-x="1024" 
d="M639 1223l-205 260h141l175 -260h-111z" />
    <glyph glyph-name="a" unicode="a" horiz-adv-x="1107" 
d="M356 -25q-145 0 -223 66.5t-78 200.5q0 177 129 269.5t355 92.5h307l16 94q8 50 8 80q0 195 -245 195q-137 0 -224.5 -59t-115.5 -171h-113q84 330 461 330q352 0 352 -285q0 -43 -8 -90l-123 -698h-98l24 166q-176 -191 -424 -191zM375 74q248 0 420 231l34 201h-292
q-175 0 -271 -64.5t-96 -193.5q0 -89 50.5 -131.5t154.5 -42.5z" />
    <glyph glyph-name="b" unicode="b" horiz-adv-x="1191" 
d="M592 -25q-258 0 -359 238l-43 -213h-98l264 1495h115l-113 -633q178 211 414 211q157 0 240.5 -82.5t83.5 -236.5q0 -47 -13 -117l-41 -236q-36 -202 -152.5 -314t-297.5 -112zM588 76q138 0 226 89.5t116 250.5l39 223q10 65 10 100q0 115 -57.5 174.5t-165.5 59.5
q-123 0 -232 -74t-196 -213l-60 -328q37 -137 118 -209.5t202 -72.5z" />
    <glyph glyph-name="c" unicode="c" horiz-adv-x="1050" 
d="M465 -25q-177 0 -272 85t-95 249q0 53 11 115l36 209q38 218 166.5 329t331.5 111q173 0 264.5 -80t91.5 -223q0 -41 -2 -59h-112q2 18 2 47q0 215 -244 215q-162 0 -259 -89.5t-126 -262.5l-33 -197q-10 -68 -10 -107q0 -124 64 -182.5t192 -58.5q282 0 348 262h111
q-39 -174 -158 -268.5t-307 -94.5z" />
    <glyph glyph-name="d" unicode="d" horiz-adv-x="1191" 
d="M420 -25q-156 0 -239 83t-83 237q0 57 11 119l43 233q37 202 153 314t295 112q246 0 350 -219l115 641h115l-265 -1495h-98l31 203q-179 -228 -428 -228zM438 76q121 0 229 72t195 208l62 342q-78 275 -320 275q-137 0 -223.5 -89.5t-116.5 -250.5l-41 -221
q-10 -51 -10 -103q0 -115 58 -174t167 -59z" />
    <glyph glyph-name="e" unicode="e" horiz-adv-x="1116" 
d="M481 -25q-187 0 -284 86.5t-97 253.5q0 63 9 109l36 209q37 213 165.5 326.5t338.5 113.5q183 0 278 -85t95 -251q0 -54 -10 -110l-21 -127h-753l-13 -76q-10 -68 -10 -102q0 -126 65.5 -186t202.5 -60q140 0 232 61t123 170h110q-41 -164 -162 -248t-305 -84zM254 598
h641l4 20q12 64 12 117q0 120 -64.5 179t-199.5 59q-164 0 -259 -87t-130 -268z" />
    <glyph glyph-name="f" unicode="f" horiz-adv-x="679" 
d="M143 0l170 954h-211l17 95h211l24 141q28 157 106 231t214 74h157l-16 -98h-131q-94 0 -145.5 -50t-71.5 -163l-25 -135h303l-16 -95h-303l-168 -954h-115z" />
    <glyph glyph-name="g" unicode="g" horiz-adv-x="1193" 
d="M418 -397q-181 0 -277 69.5t-96 198.5q0 23 2 41h107v-25q0 -184 266 -184q169 0 263 76.5t122 234.5l39 219q-174 -213 -416 -213q-156 0 -239 84t-83 238q0 55 11 117l35 188q37 202 153 314t295 112q258 0 361 -239l43 215h98l-184 -1045q-69 -401 -500 -401zM446 123
q122 0 231.5 74t196.5 213l52 280q-37 139 -118 211t-202 72q-137 0 -224.5 -89.5t-117.5 -250.5l-33 -176q-10 -49 -10 -101q0 -116 57.5 -174.5t167.5 -58.5z" />
    <glyph glyph-name="h" unicode="h" horiz-adv-x="1159" 
d="M92 0l264 1495h115l-111 -625q167 203 394 203q137 0 206.5 -68.5t69.5 -201.5q0 -62 -10 -113l-121 -690h-115l119 680q10 51 10 106q0 92 -45 137.5t-139 45.5q-233 0 -399 -279l-123 -690h-115z" />
    <glyph glyph-name="i" unicode="i" horiz-adv-x="483" 
d="M309 1266l29 170h129l-29 -170h-129zM92 0l184 1049h115l-184 -1049h-115z" />
    <glyph glyph-name="j" unicode="j" horiz-adv-x="483" 
d="M309 1266l29 170h129l-29 -170h-129zM-166 -373l19 101h43q86 0 123.5 38t56.5 140l200 1143h115l-203 -1147q-26 -148 -91.5 -211.5t-192.5 -63.5h-70z" />
    <glyph glyph-name="k" unicode="k" horiz-adv-x="1067" 
d="M92 0l264 1495h115l-182 -1026l684 580h151l-506 -431l330 -618h-129l-289 543l-266 -224l-57 -319h-115z" />
    <glyph glyph-name="l" unicode="l" horiz-adv-x="483" 
d="M92 0l264 1495h115l-264 -1495h-115z" />
    <glyph glyph-name="m" unicode="m" horiz-adv-x="1783" 
d="M92 0l184 1049h99l-29 -189q160 213 383 213q121 0 189 -56t79 -161q163 217 387 217q133 0 203 -67t70 -193q0 -48 -8 -100l-125 -713h-115l125 709q6 31 6 82q0 178 -174 178q-110 0 -201 -67t-178 -204l-123 -698h-114l124 709q9 47 9 86q0 174 -176 174
q-209 0 -375 -267l-125 -702h-115z" />
    <glyph glyph-name="n" unicode="n" horiz-adv-x="1159" 
d="M92 0l184 1049h99l-29 -199q167 223 408 223q137 0 206.5 -68.5t69.5 -201.5q0 -62 -10 -113l-121 -690h-115l119 680q10 51 10 106q0 92 -45 137.5t-139 45.5q-231 0 -399 -277l-123 -692h-115z" />
    <glyph glyph-name="o" unicode="o" horiz-adv-x="1144" 
d="M483 -25q-188 0 -285.5 88t-97.5 254q0 57 11 113l34 193q40 220 171 335t346 115q188 0 285 -87.5t97 -252.5q0 -64 -10 -115l-35 -192q-40 -221 -171 -336t-345 -115zM487 76q334 0 400 362l33 183q8 47 8 100q0 252 -271 252q-333 0 -399 -363l-33 -182
q-8 -47 -8 -100q0 -252 270 -252z" />
    <glyph glyph-name="p" unicode="p" horiz-adv-x="1191" 
d="M25 -373l251 1422h99l-31 -203q184 227 428 227q157 0 240.5 -82.5t83.5 -236.5q0 -47 -13 -117l-41 -236q-36 -202 -152.5 -314t-297.5 -112q-247 0 -352 224l-101 -572h-114zM588 76q138 0 226 89.5t116 250.5l39 223q10 65 10 100q0 115 -57.5 174.5t-165.5 59.5
q-248 0 -430 -289l-58 -326q37 -137 118 -209.5t202 -72.5z" />
    <glyph glyph-name="q" unicode="q" horiz-adv-x="1191" 
d="M733 -373l98 555q-174 -207 -411 -207q-156 0 -239 83t-83 237q0 57 11 119l43 233q37 202 153 314t295 112q256 0 356 -233l43 209h99l-250 -1422h-115zM438 76q241 0 424 278l60 346q-37 134 -117.5 203.5t-200.5 69.5q-137 0 -223.5 -89.5t-116.5 -250.5l-41 -221
q-10 -51 -10 -103q0 -115 58 -174t167 -59z" />
    <glyph glyph-name="r" unicode="r" horiz-adv-x="708" 
d="M92 0l184 1049h99l-31 -213q122 233 361 233h71l-18 -111h-53q-133 0 -227.5 -77t-158.5 -242l-112 -639h-115z" />
    <glyph glyph-name="s" unicode="s" horiz-adv-x="1015" 
d="M412 -25q-181 0 -277 66.5t-96 191.5q0 29 6 64h109q-4 -32 -4 -49q0 -172 268 -172q160 0 255 62t95 175q0 76 -63.5 114.5t-217.5 57.5q-181 22 -259 78t-78 164q0 157 122.5 251.5t323.5 94.5q164 0 255 -66t91 -186q0 -29 -6 -59h-111q4 16 4 47q0 81 -61.5 123.5
t-177.5 42.5q-146 0 -237 -64.5t-91 -169.5q0 -67 60.5 -101.5t207.5 -51.5q188 -22 270.5 -82.5t82.5 -175.5q0 -169 -127.5 -262t-343.5 -93z" />
    <glyph glyph-name="t" unicode="t" horiz-adv-x="679" 
d="M406 0q-117 0 -172.5 51.5t-55.5 157.5q0 48 10 106l113 639h-199l17 95h200l60 286h104l-51 -286h287l-19 -95h-284l-113 -645q-10 -58 -10 -92q0 -65 33 -91t112 -26h127l-18 -100h-141z" />
    <glyph glyph-name="u" unicode="u" horiz-adv-x="1167" 
d="M410 -25q-139 0 -210 70.5t-71 204.5q0 43 10 108l123 691h115l-121 -684q-10 -51 -10 -101q0 -93 46 -138.5t142 -45.5q234 0 404 272l123 697h114l-184 -1049h-98l28 195q-172 -220 -411 -220z" />
    <glyph glyph-name="v" unicode="v" horiz-adv-x="968" 
d="M330 0l-205 1049h119l172 -914l491 914h121l-571 -1049h-127z" />
    <glyph glyph-name="w" unicode="w" horiz-adv-x="1583" 
d="M285 0l-160 1049h117l129 -906l454 906h115l135 -906l447 906h120l-528 -1049h-123l-135 887l-446 -887h-125z" />
    <glyph glyph-name="x" unicode="x" horiz-adv-x="991" 
d="M-63 0l489 549l-285 500h131l244 -435l385 435h141l-469 -523l297 -526h-129l-258 459l-407 -459h-139z" />
    <glyph glyph-name="y" unicode="y" horiz-adv-x="950" 
d="M-41 -373l18 101h66q73 0 115 29t88 116l98 182l-219 994h119l182 -856l463 856h121l-658 -1205q-69 -125 -134.5 -171t-174.5 -46h-84z" />
    <glyph glyph-name="z" unicode="z" horiz-adv-x="931" 
d="M-29 0l15 86l788 864h-592l19 99h743l-14 -86l-787 -863h643l-16 -100h-799z" />
    <glyph glyph-name="braceleft" unicode="{" horiz-adv-x="669" 
d="M399 -242q-121 0 -180 54.5t-59 169.5q0 37 10 102l59 340q7 40 7 59q0 56 -34.5 77.5t-119.5 21.5l16 90q97 0 141.5 35.5t61.5 126.5l61 340q31 171 110 246t226 75h99l-15 -90h-75q-97 0 -156.5 -54.5t-81.5 -181.5l-57 -327q-17 -100 -55 -151t-105 -64v-2
q90 -30 90 -144q0 -27 -6 -71l-60 -334q-8 -47 -8 -82q0 -77 37 -111.5t121 -34.5h82l-16 -90h-93z" />
    <glyph glyph-name="bar" unicode="|" horiz-adv-x="571" 
d="M59 -463l363 2048h104l-360 -2048h-107z" />
    <glyph glyph-name="braceright" unicode="}" horiz-adv-x="669" 
d="M-92 -242l16 90h74q98 0 157 54.5t81 181.5l57 328q17 99 55.5 150t104.5 65v2q-91 30 -91 143q0 7 9 72l57 334q8 47 8 82q0 77 -36.5 111t-120.5 34h-82l18 90h90q122 0 182 -54t60 -169q0 -38 -10 -103l-62 -340q-6 -35 -6 -59q0 -56 34.5 -77t119.5 -21l-15 -90
q-98 0 -144 -36t-61 -126l-59 -340q-31 -171 -111 -246.5t-227 -75.5h-98z" />
    <glyph glyph-name="asciitilde" unicode="~" horiz-adv-x="1230" 
d="M840 481q-69 0 -122 24.5t-116 84.5q-54 53 -93.5 72.5t-90.5 19.5q-78 0 -133 -47.5t-80 -136.5h-92q32 138 113 211t202 73q70 0 123 -24.5t115 -83.5q54 -52 93.5 -72t90.5 -20q79 0 133.5 47t79.5 137h92q-31 -138 -112 -211.5t-203 -73.5z" />
    <glyph glyph-name="uni00A0" unicode="&#xa0;" horiz-adv-x="552" 
 />
    <glyph glyph-name="exclamdown" unicode="&#xa1;" horiz-adv-x="559" 
d="M270 866l31 183h141l-32 -183h-140zM68 -344l59 328l131 647h82l-98 -647l-56 -328h-118z" />
    <glyph glyph-name="cent" unicode="&#xa2;" horiz-adv-x="1230" 
d="M467 -147l27 149q-159 12 -241.5 93t-82.5 224q0 51 10 109l35 199q70 401 461 422l26 147h101l-27 -149q153 -12 232 -87.5t79 -203.5q0 -38 -2 -56h-112q4 28 4 45q0 186 -217 201l-150 -844q246 23 301 246h111q-37 -161 -145 -249t-283 -97l-27 -149h-100zM510 102
l149 844q-145 -12 -224.5 -93t-106.5 -237l-33 -190q-10 -65 -10 -100q0 -108 54.5 -162t170.5 -62z" />
    <glyph glyph-name="sterling" unicode="&#xa3;" horiz-adv-x="1230" 
d="M82 0l18 100q131 81 192.5 188t61.5 263q0 37 -2 53h-207l19 105h170q-3 11 -10.5 40.5t-11 44.5t-8.5 39.5t-7 46.5t-2 46q0 228 139 359.5t379 131.5q187 0 286 -77.5t99 -223.5q0 -40 -6 -84h-111q6 35 6 70q0 211 -284 211q-191 0 -292 -101.5t-101 -287.5
q0 -30 3.5 -61.5t7 -49.5t11 -54.5t10.5 -49.5h564l-19 -105h-528q2 -18 2 -47q0 -295 -209 -448h758l-19 -109h-909z" />
    <glyph glyph-name="currency" unicode="&#xa4;" horiz-adv-x="1230" 
d="M201 176l-78 76l248 252q-60 86 -60 192q0 107 60 193l-248 252l78 76l245 -250q85 63 199 63q110 0 199 -63l248 250l77 -76l-249 -252q59 -85 59 -193q0 -107 -59 -192l249 -252l-77 -76l-248 250q-90 -64 -199 -64q-113 0 -199 64zM645 467q97 0 161 65.5t64 163.5
t-64 164t-161 66q-98 0 -162.5 -65.5t-64.5 -164.5q0 -98 64.5 -163.5t162.5 -65.5z" />
    <glyph glyph-name="yen" unicode="&#xa5;" horiz-adv-x="1230" 
d="M465 0l51 287h-403l16 94h403l33 194h-401l16 95h393l-346 723h127l299 -633l518 633h140l-596 -723h385l-17 -95h-403l-33 -194h402l-17 -94h-401l-51 -287h-115z" />
    <glyph glyph-name="brokenbar" unicode="&#xa6;" horiz-adv-x="571" 
d="M276 766l146 819h104l-143 -819h-107zM59 -463l146 819h104l-143 -819h-107z" />
    <glyph glyph-name="section" unicode="&#xa7;" horiz-adv-x="1196" 
d="M430 -401q-188 0 -291.5 73t-103.5 209q0 31 6 72h113q-7 -35 -7 -55q0 -98 74 -148.5t215 -50.5q173 0 281 73.5t108 200.5q0 62 -27 97.5t-94.5 63t-209.5 61.5q-222 53 -300.5 112.5t-78.5 177.5q0 116 69 203t195 137v4q-63 36 -90 85t-27 124q0 172 132.5 275.5
t346.5 103.5q176 0 273.5 -71.5t97.5 -202.5q0 -31 -6 -68h-113q6 27 6 55q0 92 -67 139.5t-195 47.5q-161 0 -262.5 -71.5t-101.5 -190.5q0 -61 26.5 -96.5t94 -63.5t206.5 -59q221 -51 301 -112.5t80 -178.5q0 -118 -70 -204.5t-194 -133.5v-4q67 -36 94 -86t27 -129
q0 -181 -139 -285t-369 -104zM705 254q121 31 192.5 103.5t71.5 168.5q0 84 -65.5 126t-260.5 87q-102 23 -156 41q-122 -35 -191 -108.5t-69 -167.5q0 -86 65 -129.5t255 -81.5q89 -17 158 -39z" />
    <glyph glyph-name="dieresis" unicode="&#xa8;" horiz-adv-x="1024" 
d="M406 1270l28 162h129l-26 -162h-131zM750 1270l28 162h129l-26 -162h-131z" />
    <glyph glyph-name="copyright" unicode="&#xa9;" horiz-adv-x="1595" 
d="M827 -25q-205 0 -370 93t-258 258t-93 370t93 370t258 258t370 93t370 -93t258 -258t93 -370t-93 -370t-258 -258t-370 -93zM825 70q276 0 447.5 174.5t171.5 451.5q0 278 -171.5 452.5t-447.5 174.5q-274 0 -445 -174.5t-171 -452.5q0 -277 170.5 -451.5t445.5 -174.5z
M825 307q-290 0 -290 293v191q0 294 290 294q136 0 210.5 -64t78.5 -190h-102q-9 164 -183 164q-97 0 -142.5 -51t-45.5 -158v-178q0 -109 45.5 -160t142.5 -51q174 0 183 164h102q-4 -126 -78.5 -190t-210.5 -64z" />
    <glyph glyph-name="ordfeminine" unicode="&#xaa;" horiz-adv-x="870" 
d="M365 645q-110 0 -168 49.5t-58 143.5q0 118 85 186t233 68h260l12 73q4 36 4 41q0 121 -172 121q-96 0 -157.5 -36.5t-81.5 -104.5h-95q26 114 113.5 172.5t228.5 58.5q130 0 198.5 -51t68.5 -149q0 -1 -9 -66l-84 -481h-88l15 108q-127 -133 -305 -133zM385 733
q172 0 297 162l20 117h-237q-104 0 -163.5 -44t-59.5 -122q0 -113 143 -113zM68 373l16 90h623l-15 -90h-624z" />
    <glyph glyph-name="guillemotleft" unicode="&#xab;" horiz-adv-x="929" 
d="M293 168l-238 358l357 355h137l-367 -365l230 -348h-119zM692 168l-237 358l356 355h137l-366 -365l229 -348h-119z" />
    <glyph glyph-name="logicalnot" unicode="&#xac;" horiz-adv-x="1230" 
d="M961 258l81 467h-890l18 100h995l-98 -567h-106z" />
    <glyph glyph-name="uni00AD" unicode="&#xad;" horiz-adv-x="741" 
d="M74 541l18 110h600l-18 -110h-600z" />
    <glyph glyph-name="registered" unicode="&#xae;" horiz-adv-x="1595" 
d="M827 -25q-205 0 -370 93t-258 258t-93 370t93 370t258 258t370 93t370 -93t258 -258t93 -370t-93 -370t-258 -258t-370 -93zM825 70q276 0 447.5 174.5t171.5 451.5q0 278 -171.5 452.5t-447.5 174.5q-274 0 -445 -174.5t-171 -452.5q0 -277 170.5 -451.5t445.5 -174.5z
M551 328v737h309q134 0 196 -52t62 -167q0 -93 -38 -144.5t-119 -68.5l202 -305h-121l-194 297h-191v-297h-106zM657 713h191q89 0 127.5 31t38.5 100q0 70 -38.5 100.5t-127.5 30.5h-191v-262z" />
    <glyph glyph-name="macron" unicode="&#xaf;" horiz-adv-x="1024" 
d="M430 1307l16 92h439l-17 -92h-438z" />
    <glyph glyph-name="degree" unicode="&#xb0;" horiz-adv-x="743" 
d="M446 848q-122 0 -197 74.5t-75 195.5q0 143 101 243.5t245 100.5q122 0 197.5 -74.5t75.5 -195.5q0 -143 -101 -243.5t-246 -100.5zM446 942q101 0 173.5 74t72.5 176q0 82 -47 129t-125 47q-102 0 -175 -74t-73 -176q0 -82 48 -129t126 -47z" />
    <glyph glyph-name="plusminus" unicode="&#xb1;" horiz-adv-x="1230" 
d="M506 203l78 438h-445l19 102h442l80 449h106l-79 -449h446l-16 -102h-447l-78 -438h-106zM25 0l18 102h997l-18 -102h-997z" />
    <glyph glyph-name="uni00B2" unicode="&#xb2;" 
d="M518 1157q-123 -52 -177 -98.5t-73 -114.5h463l-16 -92h-565l10 63q19 113 94 189.5t233 142.5q125 53 181.5 108t56.5 124q0 114 -147 114q-91 0 -146.5 -43t-69.5 -123l-2 -12h-98l6 31q49 237 316 237q239 0 239 -198q0 -104 -72 -181.5t-233 -146.5z" />
    <glyph glyph-name="uni00B3" unicode="&#xb3;" 
d="M436 827q-126 0 -193 48t-67 133q0 25 4 49l4 22h97l-2 -12q-3 -18 -3 -33q0 -116 162 -116q110 0 171 50.5t61 135.5q0 62 -37 89.5t-129 27.5h-98l14 90h94q93 0 148 47.5t55 122.5q0 112 -146 112q-89 0 -145 -37.5t-68 -107.5l-2 -10h-96l2 16q20 112 103 170.5
t213 58.5q239 0 239 -196q0 -81 -42.5 -136t-117.5 -79v-2q113 -39 113 -170q0 -127 -90.5 -200t-243.5 -73z" />
    <glyph glyph-name="acute" unicode="&#xb4;" horiz-adv-x="1024" 
d="M516 1223l266 260h154l-295 -260h-125z" />
    <glyph glyph-name="uni00B5" unicode="&#xb5;" horiz-adv-x="1185" 
d="M27 -373l252 1422h114l-121 -687q-10 -58 -10 -98q0 -93 45.5 -138.5t141.5 -45.5q234 0 409 287l121 682h115l-185 -1049h-98l31 203q-177 -228 -412 -228q-145 0 -211 84l-78 -432h-114z" />
    <glyph glyph-name="paragraph" unicode="&#xb6;" horiz-adv-x="1196" 
d="M315 -375l172 975h-2q-188 0 -271 73t-83 238q0 227 128 354.5t357 127.5h510l-311 -1768h-115l293 1667h-270l-293 -1667h-115z" />
    <glyph glyph-name="periodcentered" unicode="&#xb7;" horiz-adv-x="524" 
d="M190 504l33 182h142l-33 -182h-142z" />
    <glyph glyph-name="cedilla" unicode="&#xb8;" horiz-adv-x="1024" 
d="M313 -406q-108 0 -182 39l39 70q52 -37 127 -37q65 0 102 23.5t37 64.5q0 26 -22.5 34.5t-89.5 8.5h-56l127 234h80l-92 -170q83 0 121.5 -27t38.5 -86q0 -74 -60 -114t-170 -40z" />
    <glyph glyph-name="uni00B9" unicode="&#xb9;" 
d="M240 852l16 90h193l104 588q-103 -50 -229 -53l14 79q133 8 242 103h96l-127 -717h194l-14 -90h-489z" />
    <glyph glyph-name="ordmasculine" unicode="&#xba;" horiz-adv-x="858" 
d="M459 645q-135 0 -207 60.5t-72 179.5q0 45 8 84l25 133q59 315 365 315q135 0 207.5 -60t72.5 -179q0 -45 -8 -84l-25 -133q-58 -316 -366 -316zM461 733q110 0 177 60t87 176l23 129q6 38 6 71q0 82 -45 120t-134 38q-221 0 -262 -233l-22 -129q-8 -50 -8 -72
q0 -160 178 -160zM90 373l16 90h625l-16 -90h-625z" />
    <glyph glyph-name="guillemotright" unicode="&#xbb;" horiz-adv-x="929" 
d="M-20 168l368 364l-229 349h119l237 -361l-356 -352h-139zM379 168l369 364l-230 349h119l237 -361l-356 -352h-139z" />
    <glyph glyph-name="onequarter" unicode="&#xbc;" horiz-adv-x="1708" 
d="M408 -25l1011 1442h109l-1012 -1442h-108zM193 586l16 90h192l105 588q-105 -51 -230 -54l15 80q132 8 241 103h97l-127 -717h194l-14 -90h-489zM1368 0l33 180h-443l17 94l528 533h109l-96 -537h104l-16 -90h-103l-33 -180h-100zM1090 270h325l74 408z" />
    <glyph glyph-name="onehalf" unicode="&#xbd;" horiz-adv-x="1708" 
d="M324 -25l1011 1442h109l-1012 -1442h-108zM193 586l16 90h192l105 588q-105 -51 -230 -54l15 80q132 8 241 103h97l-127 -717h194l-14 -90h-489zM1327 305q-123 -52 -177 -98.5t-73 -114.5h463l-16 -92h-566l11 63q19 113 94 189.5t233 142.5q125 53 181.5 108t56.5 124
q0 114 -148 114q-90 0 -145.5 -43t-69.5 -123l-2 -12h-98l6 31q49 237 316 237q239 0 239 -198q0 -104 -72 -181.5t-233 -146.5z" />
    <glyph glyph-name="threequarters" unicode="&#xbe;" horiz-adv-x="1708" 
d="M389 561q-126 0 -193 48t-67 132q0 26 4 50l4 22h96l-2 -12q-2 -12 -2 -33q0 -117 162 -117q110 0 171 51t61 136q0 61 -37 88.5t-129 27.5h-99l15 90h94q93 0 148 47.5t55 122.5q0 113 -146 113q-89 0 -145 -37.5t-68 -107.5l-2 -11h-96l2 17q20 112 102.5 170.5
t212.5 58.5q240 0 240 -196q0 -81 -42.5 -136t-117.5 -79v-2q113 -39 113 -170q0 -127 -90.5 -200t-243.5 -73zM408 -25l1011 1442h109l-1012 -1442h-108zM1368 0l33 180h-443l17 94l528 533h109l-96 -537h104l-16 -90h-103l-33 -180h-100zM1090 270h325l74 408z" />
    <glyph glyph-name="questiondown" unicode="&#xbf;" horiz-adv-x="866" 
d="M463 866l31 183h141l-33 -183h-139zM289 -369q-161 0 -249.5 73.5t-88.5 205.5t58 220.5t196 168.5q109 64 158.5 126t68.5 155l10 51h99l-13 -62q-25 -122 -79 -196t-175 -146q-116 -69 -162 -137.5t-46 -171.5q0 -90 58.5 -137t172.5 -47q138 0 225.5 72.5t112.5 207.5
h108q-32 -185 -149.5 -284t-304.5 -99z" />
    <glyph glyph-name="Agrave" unicode="&#xc0;" horiz-adv-x="1232" 
d="M801 1544l-205 260h141l174 -260h-110zM-68 0l777 1393h120l287 -1393h-123l-78 393h-639l-219 -393h-125zM336 502h559l-150 747z" />
    <glyph glyph-name="Aacute" unicode="&#xc1;" horiz-adv-x="1232" 
d="M678 1544l266 260h154l-295 -260h-125zM-68 0l777 1393h120l287 -1393h-123l-78 393h-639l-219 -393h-125zM336 502h559l-150 747z" />
    <glyph glyph-name="Acircumflex" unicode="&#xc2;" horiz-adv-x="1232" 
d="M518 1544l266 260h113l176 -260h-110l-129 168l-191 -168h-125zM-68 0l777 1393h120l287 -1393h-123l-78 393h-639l-219 -393h-125zM336 502h559l-150 747z" />
    <glyph glyph-name="Atilde" unicode="&#xc3;" horiz-adv-x="1232" 
d="M924 1571q-67 0 -129 59q-48 45 -82 45q-35 0 -59.5 -25.5t-41.5 -80.5h-86q47 203 189 203q66 0 129 -60q47 -47 82 -47t59 25.5t41 81.5h86q-47 -201 -188 -201zM-68 0l777 1393h120l287 -1393h-123l-78 393h-639l-219 -393h-125zM336 502h559l-150 747z" />
    <glyph glyph-name="Adieresis" unicode="&#xc4;" horiz-adv-x="1232" 
d="M567 1591l29 162h129l-27 -162h-131zM911 1591l29 162h129l-27 -162h-131zM-68 0l777 1393h120l287 -1393h-123l-78 393h-639l-219 -393h-125zM336 502h559l-150 747z" />
    <glyph glyph-name="Aring" unicode="&#xc5;" horiz-adv-x="1232" 
d="M809 1520q-76 0 -124 46t-48 120q0 86 59.5 144t147.5 58q77 0 124.5 -46.5t47.5 -121.5q0 -85 -59.5 -142.5t-147.5 -57.5zM811 1602q50 0 83.5 34.5t33.5 85.5q0 38 -24.5 61t-63.5 23q-50 0 -83.5 -34.5t-33.5 -85.5q0 -38 24 -61t64 -23zM-68 0l777 1393h120
l287 -1393h-123l-78 393h-639l-219 -393h-125zM336 502h559l-150 747z" />
    <glyph glyph-name="AE" unicode="&#xc6;" horiz-adv-x="1835" 
d="M-98 0l1104 1393h884l-18 -109h-721l-92 -514h620l-18 -108h-621l-98 -553h744l-19 -109h-860l70 393h-527l-313 -393h-135zM434 502h461l135 762z" />
    <glyph glyph-name="Ccedilla" unicode="&#xc7;" horiz-adv-x="1255" 
d="M1225 965h-115q4 46 4 71q0 273 -321 273q-201 0 -319.5 -109.5t-158.5 -333.5l-61 -346q-12 -64 -12 -139q0 -152 80 -224.5t245 -72.5q181 0 294 86t153 256h116q-47 -213 -179 -326.5t-343 -124.5l-63 -114q83 0 121.5 -27t38.5 -86q0 -74 -60 -114t-170 -40
q-108 0 -182 39l39 70q52 -37 127 -37q65 0 102 23.5t37 64.5q0 26 -23 34.5t-90 8.5h-55l98 178q-199 9 -302 109t-103 285q0 77 14 151l66 361q95 536 596 536q211 0 321.5 -92.5t110.5 -265.5q0 -48 -6 -94z" />
    <glyph glyph-name="Egrave" unicode="&#xc8;" horiz-adv-x="1191" 
d="M834 1544l-205 260h141l174 -260h-110zM111 0l245 1393h893l-18 -109h-776l-93 -514h674l-18 -108h-674l-98 -553h796l-18 -109h-913z" />
    <glyph glyph-name="Eacute" unicode="&#xc9;" horiz-adv-x="1191" 
d="M711 1544l266 260h153l-294 -260h-125zM111 0l245 1393h893l-18 -109h-776l-93 -514h674l-18 -108h-674l-98 -553h796l-18 -109h-913z" />
    <glyph glyph-name="Ecircumflex" unicode="&#xca;" horiz-adv-x="1191" 
d="M551 1544l266 260h113l176 -260h-111l-129 168l-190 -168h-125zM111 0l245 1393h893l-18 -109h-776l-93 -514h674l-18 -108h-674l-98 -553h796l-18 -109h-913z" />
    <glyph glyph-name="Edieresis" unicode="&#xcb;" horiz-adv-x="1191" 
d="M600 1591l29 162h129l-27 -162h-131zM944 1591l29 162h129l-27 -162h-131zM111 0l245 1393h893l-18 -109h-776l-93 -514h674l-18 -108h-674l-98 -553h796l-18 -109h-913z" />
    <glyph glyph-name="Igrave" unicode="&#xcc;" horiz-adv-x="522" 
d="M446 1544l-204 260h141l174 -260h-111zM111 0l245 1393h117l-246 -1393h-116z" />
    <glyph glyph-name="Iacute" unicode="&#xcd;" horiz-adv-x="522" 
d="M324 1544l266 260h153l-294 -260h-125zM111 0l245 1393h117l-246 -1393h-116z" />
    <glyph glyph-name="Icircumflex" unicode="&#xce;" horiz-adv-x="522" 
d="M174 1544l256 260h115l164 -260h-109l-121 168l-182 -168h-123zM111 0l245 1393h117l-246 -1393h-116z" />
    <glyph glyph-name="Idieresis" unicode="&#xcf;" horiz-adv-x="522" 
d="M244 1591l28 162h129l-26 -162h-131zM528 1591l29 162h129l-27 -162h-131zM111 0l245 1393h117l-246 -1393h-116z" />
    <glyph glyph-name="Eth" unicode="&#xd0;" horiz-adv-x="1347" 
d="M834 1393q227 0 339.5 -91.5t112.5 -283.5q0 -70 -16 -164l-58 -326q-49 -277 -195 -402.5t-415 -125.5h-471l117 662h-166l18 108h166l111 623h457zM1155 860q12 64 12 139q0 152 -84 218.5t-268 66.5h-340l-92 -514h369l-19 -108h-368l-99 -553h336q220 0 339 102.5
t157 323.5z" />
    <glyph glyph-name="Ntilde" unicode="&#xd1;" horiz-adv-x="1419" 
d="M1016 1571q-67 0 -129 59q-48 45 -82 45q-35 0 -59 -25t-41 -81h-87q47 203 189 203q66 0 129 -60q47 -47 82 -47t59 25.5t41 81.5h86q-47 -201 -188 -201zM1255 1393h113l-244 -1393h-112l-570 1235l-217 -1235h-114l245 1393h136l552 -1200z" />
    <glyph glyph-name="Ograve" unicode="&#xd2;" horiz-adv-x="1335" 
d="M852 1544l-205 260h141l175 -260h-111zM580 -25q-222 0 -338.5 101.5t-116.5 300.5q0 79 12 143l66 361q47 266 202.5 401t413.5 135q223 0 339 -101.5t116 -299.5q0 -70 -14 -144l-64 -360q-46 -265 -202 -401t-414 -136zM584 84q422 0 497 438l62 350q12 68 12 134
q0 154 -84.5 228.5t-257.5 74.5q-423 0 -498 -439l-61 -350q-12 -67 -12 -133q0 -154 84.5 -228.5t257.5 -74.5z" />
    <glyph glyph-name="Oacute" unicode="&#xd3;" horiz-adv-x="1335" 
d="M729 1544l266 260h154l-295 -260h-125zM580 -25q-222 0 -338.5 101.5t-116.5 300.5q0 79 12 143l66 361q47 266 202.5 401t413.5 135q223 0 339 -101.5t116 -299.5q0 -70 -14 -144l-64 -360q-46 -265 -202 -401t-414 -136zM584 84q422 0 497 438l62 350q12 68 12 134
q0 154 -84.5 228.5t-257.5 74.5q-423 0 -498 -439l-61 -350q-12 -67 -12 -133q0 -154 84.5 -228.5t257.5 -74.5z" />
    <glyph glyph-name="Ocircumflex" unicode="&#xd4;" horiz-adv-x="1335" 
d="M569 1544l267 260h112l176 -260h-110l-129 168l-191 -168h-125zM580 -25q-222 0 -338.5 101.5t-116.5 300.5q0 79 12 143l66 361q47 266 202.5 401t413.5 135q223 0 339 -101.5t116 -299.5q0 -70 -14 -144l-64 -360q-46 -265 -202 -401t-414 -136zM584 84q422 0 497 438
l62 350q12 68 12 134q0 154 -84.5 228.5t-257.5 74.5q-423 0 -498 -439l-61 -350q-12 -67 -12 -133q0 -154 84.5 -228.5t257.5 -74.5z" />
    <glyph glyph-name="Otilde" unicode="&#xd5;" horiz-adv-x="1335" 
d="M975 1571q-67 0 -129 59q-48 45 -82 45q-35 0 -59 -25t-41 -81h-86q47 203 188 203q66 0 129 -60q47 -47 82 -47t59 25.5t41 81.5h86q-47 -201 -188 -201zM580 -25q-222 0 -338.5 101.5t-116.5 300.5q0 79 12 143l66 361q47 266 202.5 401t413.5 135q223 0 339 -101.5
t116 -299.5q0 -70 -14 -144l-64 -360q-46 -265 -202 -401t-414 -136zM584 84q422 0 497 438l62 350q12 68 12 134q0 154 -84.5 228.5t-257.5 74.5q-423 0 -498 -439l-61 -350q-12 -67 -12 -133q0 -154 84.5 -228.5t257.5 -74.5z" />
    <glyph glyph-name="Odieresis" unicode="&#xd6;" horiz-adv-x="1335" 
d="M618 1591l29 162h129l-26 -162h-132zM963 1591l28 162h129l-26 -162h-131zM580 -25q-222 0 -338.5 101.5t-116.5 300.5q0 79 12 143l66 361q47 266 202.5 401t413.5 135q223 0 339 -101.5t116 -299.5q0 -70 -14 -144l-64 -360q-46 -265 -202 -401t-414 -136zM584 84
q422 0 497 438l62 350q12 68 12 134q0 154 -84.5 228.5t-257.5 74.5q-423 0 -498 -439l-61 -350q-12 -67 -12 -133q0 -154 84.5 -228.5t257.5 -74.5z" />
    <glyph glyph-name="multiply" unicode="&#xd7;" horiz-adv-x="1230" 
d="M152 152l-70 79l477 406l-334 405l86 72l332 -403l475 403l70 -80l-477 -405l333 -406l-86 -71l-331 403z" />
    <glyph glyph-name="Oslash" unicode="&#xd8;" horiz-adv-x="1337" 
d="M1346 1354l-117 -131q45 -83 45 -207q0 -70 -14 -144l-64 -360q-46 -265 -202 -401t-414 -136q-238 0 -353 115l-102 -115l-72 64l117 131q-45 83 -45 207q0 79 12 143l66 361q47 266 202.5 401t413.5 135q238 0 352 -114l103 114zM242 387q0 -63 16 -119l834 944
q-81 97 -279 97q-423 0 -498 -439l-61 -350q-12 -67 -12 -133zM1155 1006q0 67 -14 116l-836 -942q80 -96 279 -96q422 0 497 438l62 350q12 68 12 134z" />
    <glyph glyph-name="Ugrave" unicode="&#xd9;" horiz-adv-x="1316" 
d="M844 1544l-205 260h141l174 -260h-110zM569 -27q-224 0 -328 82.5t-104 255.5q0 60 15 146l165 936h117l-166 -942q-12 -64 -12 -127q0 -132 75.5 -187t241.5 -55q212 0 316 85t139 290l164 936h115l-166 -942q-43 -251 -175 -364.5t-397 -113.5z" />
    <glyph glyph-name="Uacute" unicode="&#xda;" horiz-adv-x="1316" 
d="M721 1544l266 260h154l-295 -260h-125zM569 -27q-224 0 -328 82.5t-104 255.5q0 60 15 146l165 936h117l-166 -942q-12 -64 -12 -127q0 -132 75.5 -187t241.5 -55q212 0 316 85t139 290l164 936h115l-166 -942q-43 -251 -175 -364.5t-397 -113.5z" />
    <glyph glyph-name="Ucircumflex" unicode="&#xdb;" horiz-adv-x="1316" 
d="M561 1544l266 260h113l176 -260h-110l-129 168l-191 -168h-125zM569 -27q-224 0 -328 82.5t-104 255.5q0 60 15 146l165 936h117l-166 -942q-12 -64 -12 -127q0 -132 75.5 -187t241.5 -55q212 0 316 85t139 290l164 936h115l-166 -942q-43 -251 -175 -364.5t-397 -113.5z
" />
    <glyph glyph-name="Udieresis" unicode="&#xdc;" horiz-adv-x="1316" 
d="M610 1591l29 162h129l-27 -162h-131zM954 1591l29 162h129l-27 -162h-131zM569 -27q-224 0 -328 82.5t-104 255.5q0 60 15 146l165 936h117l-166 -942q-12 -64 -12 -127q0 -132 75.5 -187t241.5 -55q212 0 316 85t139 290l164 936h115l-166 -942q-43 -251 -175 -364.5
t-397 -113.5z" />
    <glyph glyph-name="Yacute" unicode="&#xdd;" horiz-adv-x="1105" 
d="M614 1544l267 260h153l-295 -260h-125zM401 0l109 614l-363 779h132l307 -660l536 660h142l-637 -785l-109 -608h-117z" />
    <glyph glyph-name="Thorn" unicode="&#xde;" horiz-adv-x="1226" 
d="M111 0l245 1393h117l-41 -228h395q211 0 301.5 -76t90.5 -253q0 -234 -138 -363t-391 -129h-401l-62 -344h-116zM307 451h389q196 0 302 97.5t106 276.5q0 129 -65.5 180.5t-229.5 51.5h-395z" />
    <glyph glyph-name="germandbls" unicode="&#xdf;" horiz-adv-x="1206" 
d="M143 0l168 954h-209l17 95h209l22 122q31 173 143.5 261t301.5 88q158 0 241.5 -62t83.5 -184q0 -87 -44.5 -161t-143.5 -152q-80 -64 -112 -108.5t-32 -96.5q0 -49 28 -79.5t110 -68.5q109 -53 146.5 -101.5t37.5 -137.5q0 -171 -123 -270t-344 -99h-115l19 100h104
q160 0 251 66.5t91 179.5q0 62 -31 98.5t-120 79.5q-97 46 -131.5 90t-34.5 121q0 85 40.5 153t137.5 144q84 65 119 119t35 115q0 153 -213 153q-285 0 -332 -258l-205 -1161h-115z" />
    <glyph glyph-name="agrave" unicode="&#xe0;" horiz-adv-x="1107" 
d="M664 1223l-205 260h141l174 -260h-110zM356 -25q-145 0 -223 66.5t-78 200.5q0 177 129 269.5t355 92.5h307l16 94q8 50 8 80q0 195 -245 195q-137 0 -224.5 -59t-115.5 -171h-113q84 330 461 330q352 0 352 -285q0 -43 -8 -90l-123 -698h-98l24 166q-176 -191 -424 -191
zM375 74q248 0 420 231l34 201h-292q-175 0 -271 -64.5t-96 -193.5q0 -89 50.5 -131.5t154.5 -42.5z" />
    <glyph glyph-name="aacute" unicode="&#xe1;" horiz-adv-x="1107" 
d="M541 1223l266 260h154l-295 -260h-125zM356 -25q-145 0 -223 66.5t-78 200.5q0 177 129 269.5t355 92.5h307l16 94q8 50 8 80q0 195 -245 195q-137 0 -224.5 -59t-115.5 -171h-113q84 330 461 330q352 0 352 -285q0 -43 -8 -90l-123 -698h-98l24 166q-176 -191 -424 -191
zM375 74q248 0 420 231l34 201h-292q-175 0 -271 -64.5t-96 -193.5q0 -89 50.5 -131.5t154.5 -42.5z" />
    <glyph glyph-name="acircumflex" unicode="&#xe2;" horiz-adv-x="1107" 
d="M381 1223l266 260h113l176 -260h-111l-129 168l-190 -168h-125zM356 -25q-145 0 -223 66.5t-78 200.5q0 177 129 269.5t355 92.5h307l16 94q8 50 8 80q0 195 -245 195q-137 0 -224.5 -59t-115.5 -171h-113q84 330 461 330q352 0 352 -285q0 -43 -8 -90l-123 -698h-98
l24 166q-176 -191 -424 -191zM375 74q248 0 420 231l34 201h-292q-175 0 -271 -64.5t-96 -193.5q0 -89 50.5 -131.5t154.5 -42.5z" />
    <glyph glyph-name="atilde" unicode="&#xe3;" horiz-adv-x="1107" 
d="M786 1249q-66 0 -129 60q-48 45 -82 45q-35 0 -59 -25.5t-41 -81.5h-86q47 203 189 203q67 0 129 -59q48 -48 81 -48q68 0 101 107h86q-47 -201 -189 -201zM356 -25q-145 0 -223 66.5t-78 200.5q0 177 129 269.5t355 92.5h307l16 94q8 50 8 80q0 195 -245 195
q-137 0 -224.5 -59t-115.5 -171h-113q84 330 461 330q352 0 352 -285q0 -43 -8 -90l-123 -698h-98l24 166q-176 -191 -424 -191zM375 74q248 0 420 231l34 201h-292q-175 0 -271 -64.5t-96 -193.5q0 -89 50.5 -131.5t154.5 -42.5z" />
    <glyph glyph-name="adieresis" unicode="&#xe4;" horiz-adv-x="1107" 
d="M430 1270l29 162h129l-27 -162h-131zM774 1270l29 162h129l-27 -162h-131zM356 -25q-145 0 -223 66.5t-78 200.5q0 177 129 269.5t355 92.5h307l16 94q8 50 8 80q0 195 -245 195q-137 0 -224.5 -59t-115.5 -171h-113q84 330 461 330q352 0 352 -285q0 -43 -8 -90
l-123 -698h-98l24 166q-176 -191 -424 -191zM375 74q248 0 420 231l34 201h-292q-175 0 -271 -64.5t-96 -193.5q0 -89 50.5 -131.5t154.5 -42.5z" />
    <glyph glyph-name="aring" unicode="&#xe5;" horiz-adv-x="1107" 
d="M672 1198q-76 0 -124 46t-48 120q0 86 59.5 144.5t147.5 58.5q77 0 124.5 -46.5t47.5 -121.5q0 -85 -59.5 -143t-147.5 -58zM674 1280q49 0 83 35t34 86q0 38 -25 61t-64 23q-49 0 -82.5 -35t-33.5 -86q0 -38 24 -61t64 -23zM356 -25q-145 0 -223 66.5t-78 200.5
q0 177 129 269.5t355 92.5h307l16 94q8 50 8 80q0 195 -245 195q-137 0 -224.5 -59t-115.5 -171h-113q84 330 461 330q352 0 352 -285q0 -43 -8 -90l-123 -698h-98l24 166q-176 -191 -424 -191zM375 74q248 0 420 231l34 201h-292q-175 0 -271 -64.5t-96 -193.5
q0 -89 50.5 -131.5t154.5 -42.5z" />
    <glyph glyph-name="ae" unicode="&#xe6;" horiz-adv-x="1820" 
d="M1360 1073q179 0 272.5 -83t93.5 -249q0 -58 -10 -114l-20 -127h-754l-12 -76q-10 -68 -10 -102q0 -126 65.5 -186t202.5 -60q142 0 232.5 61t121.5 170h111q-41 -163 -161.5 -247.5t-305.5 -84.5q-150 0 -243.5 56t-125.5 162q-194 -218 -455 -218q-307 0 -307 267
q0 175 129.5 267.5t354.5 92.5h307l16 98q8 50 8 82q0 191 -245 191q-138 0 -225 -58.5t-115 -171.5h-113q81 330 457 330q292 0 327 -211q126 211 404 211zM958 598h641l5 20q12 61 12 117q0 120 -64.5 179t-199.5 59q-164 0 -259 -87t-130 -268zM379 74q248 0 424 245
q0 47 12 109l14 78h-294q-172 0 -268.5 -64.5t-96.5 -193.5q0 -88 50.5 -131t158.5 -43z" />
    <glyph glyph-name="ccedilla" unicode="&#xe7;" horiz-adv-x="1050" 
d="M997 711h-112q2 18 2 47q0 215 -244 215q-162 0 -259 -89.5t-126 -262.5l-33 -197q-10 -68 -10 -107q0 -124 64 -182.5t192 -58.5q282 0 348 262h111q-35 -162 -141.5 -255.5t-272.5 -105.5l-63 -116q83 0 121 -27t38 -86q0 -74 -59.5 -114t-169.5 -40q-108 0 -182 39
l39 70q52 -37 127 -37q65 0 102 23.5t37 64.5q0 26 -23 34.5t-90 8.5h-55l96 178q-163 8 -249.5 92.5t-86.5 241.5q0 53 11 115l36 209q38 218 166.5 329t331.5 111q173 0 264.5 -80t91.5 -223q0 -41 -2 -59z" />
    <glyph glyph-name="egrave" unicode="&#xe8;" horiz-adv-x="1116" 
d="M686 1223l-205 260h142l174 -260h-111zM481 -25q-187 0 -284 86.5t-97 253.5q0 63 9 109l36 209q37 213 165.5 326.5t338.5 113.5q183 0 278 -85t95 -251q0 -54 -10 -110l-21 -127h-753l-13 -76q-10 -68 -10 -102q0 -126 65.5 -186t202.5 -60q140 0 232 61t123 170h110
q-41 -164 -162 -248t-305 -84zM254 598h641l4 20q12 64 12 117q0 120 -64.5 179t-199.5 59q-164 0 -259 -87t-130 -268z" />
    <glyph glyph-name="eacute" unicode="&#xe9;" horiz-adv-x="1116" 
d="M563 1223l266 260h154l-295 -260h-125zM481 -25q-187 0 -284 86.5t-97 253.5q0 63 9 109l36 209q37 213 165.5 326.5t338.5 113.5q183 0 278 -85t95 -251q0 -54 -10 -110l-21 -127h-753l-13 -76q-10 -68 -10 -102q0 -126 65.5 -186t202.5 -60q140 0 232 61t123 170h110
q-41 -164 -162 -248t-305 -84zM254 598h641l4 20q12 64 12 117q0 120 -64.5 179t-199.5 59q-164 0 -259 -87t-130 -268z" />
    <glyph glyph-name="ecircumflex" unicode="&#xea;" horiz-adv-x="1116" 
d="M403 1223l267 260h112l176 -260h-110l-129 168l-191 -168h-125zM481 -25q-187 0 -284 86.5t-97 253.5q0 63 9 109l36 209q37 213 165.5 326.5t338.5 113.5q183 0 278 -85t95 -251q0 -54 -10 -110l-21 -127h-753l-13 -76q-10 -68 -10 -102q0 -126 65.5 -186t202.5 -60
q140 0 232 61t123 170h110q-41 -164 -162 -248t-305 -84zM254 598h641l4 20q12 64 12 117q0 120 -64.5 179t-199.5 59q-164 0 -259 -87t-130 -268z" />
    <glyph glyph-name="edieresis" unicode="&#xeb;" horiz-adv-x="1116" 
d="M453 1270l28 162h129l-26 -162h-131zM797 1270l28 162h129l-26 -162h-131zM481 -25q-187 0 -284 86.5t-97 253.5q0 63 9 109l36 209q37 213 165.5 326.5t338.5 113.5q183 0 278 -85t95 -251q0 -54 -10 -110l-21 -127h-753l-13 -76q-10 -68 -10 -102q0 -126 65.5 -186
t202.5 -60q140 0 232 61t123 170h110q-41 -164 -162 -248t-305 -84zM254 598h641l4 20q12 64 12 117q0 120 -64.5 179t-199.5 59q-164 0 -259 -87t-130 -268z" />
    <glyph glyph-name="igrave" unicode="&#xec;" horiz-adv-x="483" 
d="M369 1223l-205 260h141l174 -260h-110zM92 0l184 1049h115l-184 -1049h-115z" />
    <glyph glyph-name="iacute" unicode="&#xed;" horiz-adv-x="483" 
d="M246 1223l266 260h154l-295 -260h-125zM92 0l184 1049h115l-184 -1049h-115z" />
    <glyph glyph-name="icircumflex" unicode="&#xee;" horiz-adv-x="483" 
d="M96 1223l256 260h115l164 -260h-109l-121 168l-182 -168h-123zM92 0l184 1049h115l-184 -1049h-115z" />
    <glyph glyph-name="idieresis" unicode="&#xef;" horiz-adv-x="483" 
d="M166 1270l29 162h129l-27 -162h-131zM451 1270l28 162h129l-26 -162h-131zM92 0l184 1049h115l-184 -1049h-115z" />
    <glyph glyph-name="eth" unicode="&#xf0;" horiz-adv-x="1134" 
d="M477 -25q-188 0 -285.5 87t-97.5 251q0 66 10 117l25 135q38 210 158.5 321t306.5 111q229 0 326 -180q-24 213 -168 406l-318 -117l-31 84l287 104q-112 121 -254 201h168q108 -67 193 -162l215 80l30 -84l-186 -67q178 -241 178 -531q0 -60 -14 -149l-27 -158
q-38 -223 -171 -336t-345 -113zM479 76q335 0 402 364l34 185q-60 270 -309 270q-147 0 -240 -90t-124 -256l-23 -119q-10 -62 -10 -111q0 -243 270 -243z" />
    <glyph glyph-name="ntilde" unicode="&#xf1;" horiz-adv-x="1159" 
d="M834 1249q-66 0 -129 60q-48 45 -82 45q-68 0 -101 -107h-86q47 203 189 203q67 0 129 -59q48 -48 82 -48q35 0 59 25.5t41 81.5h86q-47 -201 -188 -201zM92 0l184 1049h99l-29 -199q167 223 408 223q137 0 206.5 -68.5t69.5 -201.5q0 -62 -10 -113l-121 -690h-115
l119 680q10 51 10 106q0 92 -45 137.5t-139 45.5q-231 0 -399 -277l-123 -692h-115z" />
    <glyph glyph-name="ograve" unicode="&#xf2;" horiz-adv-x="1144" 
d="M698 1223l-204 260h141l174 -260h-111zM483 -25q-188 0 -285.5 88t-97.5 254q0 57 11 113l34 193q40 220 171 335t346 115q188 0 285 -87.5t97 -252.5q0 -64 -10 -115l-35 -192q-40 -221 -171 -336t-345 -115zM487 76q334 0 400 362l33 183q8 47 8 100q0 252 -271 252
q-333 0 -399 -363l-33 -182q-8 -47 -8 -100q0 -252 270 -252z" />
    <glyph glyph-name="oacute" unicode="&#xf3;" horiz-adv-x="1144" 
d="M575 1223l267 260h153l-295 -260h-125zM483 -25q-188 0 -285.5 88t-97.5 254q0 57 11 113l34 193q40 220 171 335t346 115q188 0 285 -87.5t97 -252.5q0 -64 -10 -115l-35 -192q-40 -221 -171 -336t-345 -115zM487 76q334 0 400 362l33 183q8 47 8 100q0 252 -271 252
q-333 0 -399 -363l-33 -182q-8 -47 -8 -100q0 -252 270 -252z" />
    <glyph glyph-name="ocircumflex" unicode="&#xf4;" horiz-adv-x="1144" 
d="M416 1223l266 260h113l176 -260h-111l-129 168l-190 -168h-125zM483 -25q-188 0 -285.5 88t-97.5 254q0 57 11 113l34 193q40 220 171 335t346 115q188 0 285 -87.5t97 -252.5q0 -64 -10 -115l-35 -192q-40 -221 -171 -336t-345 -115zM487 76q334 0 400 362l33 183
q8 47 8 100q0 252 -271 252q-333 0 -399 -363l-33 -182q-8 -47 -8 -100q0 -252 270 -252z" />
    <glyph glyph-name="otilde" unicode="&#xf5;" horiz-adv-x="1144" 
d="M821 1249q-66 0 -129 60q-48 45 -82 45q-35 0 -59 -25.5t-41 -81.5h-86q47 203 188 203q67 0 129 -59q48 -48 82 -48q68 0 101 107h86q-47 -201 -189 -201zM483 -25q-188 0 -285.5 88t-97.5 254q0 57 11 113l34 193q40 220 171 335t346 115q188 0 285 -87.5t97 -252.5
q0 -64 -10 -115l-35 -192q-40 -221 -171 -336t-345 -115zM487 76q334 0 400 362l33 183q8 47 8 100q0 252 -271 252q-333 0 -399 -363l-33 -182q-8 -47 -8 -100q0 -252 270 -252z" />
    <glyph glyph-name="odieresis" unicode="&#xf6;" horiz-adv-x="1144" 
d="M465 1270l29 162h129l-27 -162h-131zM809 1270l29 162h129l-27 -162h-131zM483 -25q-188 0 -285.5 88t-97.5 254q0 57 11 113l34 193q40 220 171 335t346 115q188 0 285 -87.5t97 -252.5q0 -64 -10 -115l-35 -192q-40 -221 -171 -336t-345 -115zM487 76q334 0 400 362
l33 183q8 47 8 100q0 252 -271 252q-333 0 -399 -363l-33 -182q-8 -47 -8 -100q0 -252 270 -252z" />
    <glyph glyph-name="divide" unicode="&#xf7;" horiz-adv-x="1230" 
d="M627 961l30 172h129l-28 -172h-131zM127 580l18 102h998l-19 -102h-997zM481 131l31 172h129l-29 -172h-131z" />
    <glyph glyph-name="oslash" unicode="&#xf8;" horiz-adv-x="1144" 
d="M1102 1010l-96 -101q38 -69 38 -176q0 -64 -10 -115l-35 -192q-40 -221 -171 -336t-345 -115q-186 0 -288 91l-86 -91l-66 64l96 100q-39 71 -39 178q0 57 11 113l34 193q40 220 171 335t346 115q187 0 288 -90l86 90zM217 328q0 -54 12 -95l641 666q-68 74 -213 74
q-333 0 -399 -363l-33 -182q-8 -47 -8 -100zM928 721q0 50 -13 94l-641 -665q68 -74 213 -74q334 0 400 362l33 183q8 47 8 100z" />
    <glyph glyph-name="ugrave" unicode="&#xf9;" horiz-adv-x="1167" 
d="M702 1223l-204 260h141l174 -260h-111zM410 -25q-139 0 -210 70.5t-71 204.5q0 43 10 108l123 691h115l-121 -684q-10 -51 -10 -101q0 -93 46 -138.5t142 -45.5q234 0 404 272l123 697h114l-184 -1049h-98l28 195q-172 -220 -411 -220z" />
    <glyph glyph-name="uacute" unicode="&#xfa;" horiz-adv-x="1167" 
d="M580 1223l266 260h153l-294 -260h-125zM410 -25q-139 0 -210 70.5t-71 204.5q0 43 10 108l123 691h115l-121 -684q-10 -51 -10 -101q0 -93 46 -138.5t142 -45.5q234 0 404 272l123 697h114l-184 -1049h-98l28 195q-172 -220 -411 -220z" />
    <glyph glyph-name="ucircumflex" unicode="&#xfb;" horiz-adv-x="1167" 
d="M420 1223l266 260h113l176 -260h-111l-129 168l-190 -168h-125zM410 -25q-139 0 -210 70.5t-71 204.5q0 43 10 108l123 691h115l-121 -684q-10 -51 -10 -101q0 -93 46 -138.5t142 -45.5q234 0 404 272l123 697h114l-184 -1049h-98l28 195q-172 -220 -411 -220z" />
    <glyph glyph-name="udieresis" unicode="&#xfc;" horiz-adv-x="1167" 
d="M469 1270l29 162h129l-27 -162h-131zM813 1270l29 162h129l-27 -162h-131zM410 -25q-139 0 -210 70.5t-71 204.5q0 43 10 108l123 691h115l-121 -684q-10 -51 -10 -101q0 -93 46 -138.5t142 -45.5q234 0 404 272l123 697h114l-184 -1049h-98l28 195q-172 -220 -411 -220z
" />
    <glyph glyph-name="yacute" unicode="&#xfd;" horiz-adv-x="950" 
d="M481 1223l267 260h153l-295 -260h-125zM-41 -373l18 101h66q73 0 115 29t88 116l98 182l-219 994h119l182 -856l463 856h121l-658 -1205q-69 -125 -134.5 -171t-174.5 -46h-84z" />
    <glyph glyph-name="thorn" unicode="&#xfe;" horiz-adv-x="1191" 
d="M25 -373l329 1868h115l-113 -635q177 213 416 213q157 0 240.5 -82.5t83.5 -236.5q0 -47 -13 -117l-41 -236q-36 -202 -152.5 -314t-297.5 -112q-247 0 -352 224l-101 -572h-114zM588 76q138 0 226 89.5t116 250.5l39 223q10 65 10 100q0 115 -57.5 174.5t-165.5 59.5
q-248 0 -430 -289l-58 -324q37 -139 118 -211.5t202 -72.5z" />
    <glyph glyph-name="ydieresis" unicode="&#xff;" horiz-adv-x="950" 
d="M371 1270l28 162h129l-26 -162h-131zM715 1270l28 162h129l-26 -162h-131zM-41 -373l18 101h66q73 0 115 29t88 116l98 182l-219 994h119l182 -856l463 856h121l-658 -1205q-69 -125 -134.5 -171t-174.5 -46h-84z" />
    <glyph glyph-name="Amacron" unicode="&#x100;" horiz-adv-x="1232" 
d="M592 1628l16 92h439l-17 -92h-438zM-68 0l777 1393h120l287 -1393h-123l-78 393h-639l-219 -393h-125zM336 502h559l-150 747z" />
    <glyph glyph-name="amacron" unicode="&#x101;" horiz-adv-x="1107" 
d="M455 1307l16 92h438l-16 -92h-438zM356 -25q-145 0 -223 66.5t-78 200.5q0 177 129 269.5t355 92.5h307l16 94q8 50 8 80q0 195 -245 195q-137 0 -224.5 -59t-115.5 -171h-113q84 330 461 330q352 0 352 -285q0 -43 -8 -90l-123 -698h-98l24 166q-176 -191 -424 -191z
M375 74q248 0 420 231l34 201h-292q-175 0 -271 -64.5t-96 -193.5q0 -89 50.5 -131.5t154.5 -42.5z" />
    <glyph glyph-name="Abreve" unicode="&#x102;" horiz-adv-x="1232" 
d="M805 1550q-105 0 -160 55.5t-55 151.5v31h90v-25q0 -118 129 -118q73 0 120.5 38t65.5 105h92q-25 -114 -97.5 -176t-184.5 -62zM-68 0l777 1393h120l287 -1393h-123l-78 393h-639l-219 -393h-125zM336 502h559l-150 747z" />
    <glyph glyph-name="abreve" unicode="&#x103;" horiz-adv-x="1107" 
d="M668 1229q-105 0 -160 55.5t-55 151.5v30h90v-24q0 -119 129 -119q73 0 120.5 38t65.5 105h92q-25 -113 -97.5 -175t-184.5 -62zM356 -25q-145 0 -223 66.5t-78 200.5q0 177 129 269.5t355 92.5h307l16 94q8 50 8 80q0 195 -245 195q-137 0 -224.5 -59t-115.5 -171h-113
q84 330 461 330q352 0 352 -285q0 -43 -8 -90l-123 -698h-98l24 166q-176 -191 -424 -191zM375 74q248 0 420 231l34 201h-292q-175 0 -271 -64.5t-96 -193.5q0 -89 50.5 -131.5t154.5 -42.5z" />
    <glyph glyph-name="Aogonek" unicode="&#x104;" horiz-adv-x="1232" 
d="M860 -246q0 -69 84 -69q59 0 123 34l-18 -96q-63 -29 -127 -29q-82 0 -125 36t-43 104q0 158 235 291l-74 368h-639l-219 -393h-125l777 1393h120l287 -1393h-24q-110 -56 -171 -120.5t-61 -125.5zM336 502h559l-150 747z" />
    <glyph glyph-name="aogonek" unicode="&#x105;" horiz-adv-x="1107" 
d="M633 1073q352 0 352 -285q0 -43 -8 -90l-123 -698h-25q-109 -56 -170 -120.5t-61 -125.5q0 -69 84 -69q59 0 123 34l-19 -96q-63 -29 -127 -29q-81 0 -124 36t-43 104q0 169 270 309l18 123q-176 -191 -424 -191q-145 0 -223 66.5t-78 200.5q0 177 129 269.5t355 92.5
h307l16 94q8 50 8 80q0 195 -245 195q-137 0 -224.5 -59t-115.5 -171h-113q84 330 461 330zM375 74q248 0 420 231l34 201h-292q-175 0 -271 -64.5t-96 -193.5q0 -89 50.5 -131.5t154.5 -42.5z" />
    <glyph glyph-name="Cacute" unicode="&#x106;" horiz-adv-x="1255" 
d="M709 1544l266 260h153l-294 -260h-125zM565 -25q-218 0 -330 100t-112 294q0 77 14 151l66 361q95 536 596 536q211 0 321.5 -92.5t110.5 -265.5q0 -48 -6 -94h-115q4 46 4 71q0 273 -321 273q-201 0 -319.5 -109.5t-158.5 -333.5l-61 -346q-12 -64 -12 -139
q0 -152 80 -224.5t245 -72.5q181 0 294 86t153 256h116q-103 -451 -565 -451z" />
    <glyph glyph-name="cacute" unicode="&#x107;" horiz-adv-x="1050" 
d="M551 1223l266 260h154l-295 -260h-125zM465 -25q-177 0 -272 85t-95 249q0 53 11 115l36 209q38 218 166.5 329t331.5 111q173 0 264.5 -80t91.5 -223q0 -41 -2 -59h-112q2 18 2 47q0 215 -244 215q-162 0 -259 -89.5t-126 -262.5l-33 -197q-10 -68 -10 -107
q0 -124 64 -182.5t192 -58.5q282 0 348 262h111q-39 -174 -158 -268.5t-307 -94.5z" />
    <glyph glyph-name="Ccircumflex" unicode="&#x108;" horiz-adv-x="1255" 
d="M549 1544l266 260h113l176 -260h-111l-129 168l-190 -168h-125zM565 -25q-218 0 -330 100t-112 294q0 77 14 151l66 361q95 536 596 536q211 0 321.5 -92.5t110.5 -265.5q0 -48 -6 -94h-115q4 46 4 71q0 273 -321 273q-201 0 -319.5 -109.5t-158.5 -333.5l-61 -346
q-12 -64 -12 -139q0 -152 80 -224.5t245 -72.5q181 0 294 86t153 256h116q-103 -451 -565 -451z" />
    <glyph glyph-name="ccircumflex" unicode="&#x109;" horiz-adv-x="1050" 
d="M391 1223l266 260h113l176 -260h-110l-129 168l-191 -168h-125zM465 -25q-177 0 -272 85t-95 249q0 53 11 115l36 209q38 218 166.5 329t331.5 111q173 0 264.5 -80t91.5 -223q0 -41 -2 -59h-112q2 18 2 47q0 215 -244 215q-162 0 -259 -89.5t-126 -262.5l-33 -197
q-10 -68 -10 -107q0 -124 64 -182.5t192 -58.5q282 0 348 262h111q-39 -174 -158 -268.5t-307 -94.5z" />
    <glyph glyph-name="Cdotaccent" unicode="&#x10a;" horiz-adv-x="1255" 
d="M770 1591l29 162h129l-27 -162h-131zM565 -25q-218 0 -330 100t-112 294q0 77 14 151l66 361q95 536 596 536q211 0 321.5 -92.5t110.5 -265.5q0 -48 -6 -94h-115q4 46 4 71q0 273 -321 273q-201 0 -319.5 -109.5t-158.5 -333.5l-61 -346q-12 -64 -12 -139
q0 -152 80 -224.5t245 -72.5q181 0 294 86t153 256h116q-103 -451 -565 -451z" />
    <glyph glyph-name="cdotaccent" unicode="&#x10b;" horiz-adv-x="1050" 
d="M612 1270l29 162h129l-27 -162h-131zM465 -25q-177 0 -272 85t-95 249q0 53 11 115l36 209q38 218 166.5 329t331.5 111q173 0 264.5 -80t91.5 -223q0 -41 -2 -59h-112q2 18 2 47q0 215 -244 215q-162 0 -259 -89.5t-126 -262.5l-33 -197q-10 -68 -10 -107
q0 -124 64 -182.5t192 -58.5q282 0 348 262h111q-39 -174 -158 -268.5t-307 -94.5z" />
    <glyph glyph-name="Ccaron" unicode="&#x10c;" horiz-adv-x="1255" 
d="M772 1544l-176 260h111l131 -170l190 170h125l-268 -260h-113zM565 -25q-218 0 -330 100t-112 294q0 77 14 151l66 361q95 536 596 536q211 0 321.5 -92.5t110.5 -265.5q0 -48 -6 -94h-115q4 46 4 71q0 273 -321 273q-201 0 -319.5 -109.5t-158.5 -333.5l-61 -346
q-12 -64 -12 -139q0 -152 80 -224.5t245 -72.5q181 0 294 86t153 256h116q-103 -451 -565 -451z" />
    <glyph glyph-name="ccaron" unicode="&#x10d;" horiz-adv-x="1050" 
d="M614 1223l-176 260h111l131 -170l190 170h125l-268 -260h-113zM465 -25q-177 0 -272 85t-95 249q0 53 11 115l36 209q38 218 166.5 329t331.5 111q173 0 264.5 -80t91.5 -223q0 -41 -2 -59h-112q2 18 2 47q0 215 -244 215q-162 0 -259 -89.5t-126 -262.5l-33 -197
q-10 -68 -10 -107q0 -124 64 -182.5t192 -58.5q282 0 348 262h111q-39 -174 -158 -268.5t-307 -94.5z" />
    <glyph glyph-name="Dcaron" unicode="&#x10e;" horiz-adv-x="1327" 
d="M770 1544l-176 260h111l131 -170l190 170h125l-268 -260h-113zM111 0l245 1393h457q227 0 340 -91.5t113 -283.5q0 -64 -17 -164l-57 -326q-49 -277 -195 -402.5t-415 -125.5h-471zM246 109h336q220 0 338.5 102.5t156.5 323.5l58 325q12 64 12 139q0 152 -84 218.5
t-268 66.5h-340z" />
    <glyph glyph-name="dcaron" unicode="&#x10f;" horiz-adv-x="1193" 
d="M420 -25q-156 0 -239 83t-83 237q0 57 11 119l43 233q37 202 153 314t295 112q246 0 350 -219l115 641h115l-265 -1495h-98l31 203q-179 -228 -428 -228zM1208 1096l154 399h129l-193 -399h-90zM438 76q121 0 229 72t195 208l62 342q-78 275 -320 275
q-137 0 -223.5 -89.5t-116.5 -250.5l-41 -221q-10 -51 -10 -103q0 -115 58 -174t167 -59z" />
    <glyph glyph-name="Dcroat" unicode="&#x110;" horiz-adv-x="1347" 
d="M834 1393q227 0 339.5 -91.5t112.5 -283.5q0 -70 -16 -164l-58 -326q-49 -277 -195 -402.5t-415 -125.5h-471l117 662h-166l18 108h166l111 623h457zM1155 860q12 64 12 139q0 152 -84 218.5t-268 66.5h-340l-92 -514h369l-19 -108h-368l-99 -553h336q220 0 339 102.5
t157 323.5z" />
    <glyph glyph-name="dcroat" unicode="&#x111;" horiz-adv-x="1208" 
d="M1327 1300l-18 -94h-181l-213 -1206h-98l31 203q-179 -228 -428 -228q-156 0 -239 83t-83 237q0 57 11 119l43 233q37 202 153 314t295 112q246 0 350 -219l64 352h-285l16 94h285l35 195h115l-35 -195h182zM862 356l62 342q-78 275 -320 275q-137 0 -223.5 -89.5
t-116.5 -250.5l-41 -221q-10 -51 -10 -103q0 -115 58 -174t167 -59q121 0 229 72t195 208z" />
    <glyph glyph-name="Emacron" unicode="&#x112;" horiz-adv-x="1191" 
d="M625 1628l16 92h438l-16 -92h-438zM111 0l245 1393h893l-18 -109h-776l-93 -514h674l-18 -108h-674l-98 -553h796l-18 -109h-913z" />
    <glyph glyph-name="emacron" unicode="&#x113;" horiz-adv-x="1116" 
d="M477 1307l17 92h438l-17 -92h-438zM481 -25q-187 0 -284 86.5t-97 253.5q0 63 9 109l36 209q37 213 165.5 326.5t338.5 113.5q183 0 278 -85t95 -251q0 -54 -10 -110l-21 -127h-753l-13 -76q-10 -68 -10 -102q0 -126 65.5 -186t202.5 -60q140 0 232 61t123 170h110
q-41 -164 -162 -248t-305 -84zM254 598h641l4 20q12 64 12 117q0 120 -64.5 179t-199.5 59q-164 0 -259 -87t-130 -268z" />
    <glyph glyph-name="Ebreve" unicode="&#x114;" horiz-adv-x="1191" 
d="M838 1550q-105 0 -160 55.5t-55 151.5v31h90v-25q0 -118 129 -118q73 0 120.5 38t65.5 105h92q-25 -114 -97.5 -176t-184.5 -62zM111 0l245 1393h893l-18 -109h-776l-93 -514h674l-18 -108h-674l-98 -553h796l-18 -109h-913z" />
    <glyph glyph-name="ebreve" unicode="&#x115;" horiz-adv-x="1116" 
d="M690 1229q-105 0 -160 55.5t-55 151.5v30h90v-24q0 -119 129 -119q73 0 121 38.5t66 104.5h92q-25 -113 -98 -175t-185 -62zM481 -25q-187 0 -284 86.5t-97 253.5q0 63 9 109l36 209q37 213 165.5 326.5t338.5 113.5q183 0 278 -85t95 -251q0 -54 -10 -110l-21 -127h-753
l-13 -76q-10 -68 -10 -102q0 -126 65.5 -186t202.5 -60q140 0 232 61t123 170h110q-41 -164 -162 -248t-305 -84zM254 598h641l4 20q12 64 12 117q0 120 -64.5 179t-199.5 59q-164 0 -259 -87t-130 -268z" />
    <glyph glyph-name="Edotaccent" unicode="&#x116;" horiz-adv-x="1191" 
d="M772 1591l29 162h129l-27 -162h-131zM111 0l245 1393h893l-18 -109h-776l-93 -514h674l-18 -108h-674l-98 -553h796l-18 -109h-913z" />
    <glyph glyph-name="edotaccent" unicode="&#x117;" horiz-adv-x="1116" 
d="M625 1270l28 162h129l-26 -162h-131zM481 -25q-187 0 -284 86.5t-97 253.5q0 63 9 109l36 209q37 213 165.5 326.5t338.5 113.5q183 0 278 -85t95 -251q0 -54 -10 -110l-21 -127h-753l-13 -76q-10 -68 -10 -102q0 -126 65.5 -186t202.5 -60q140 0 232 61t123 170h110
q-41 -164 -162 -248t-305 -84zM254 598h641l4 20q12 64 12 117q0 120 -64.5 179t-199.5 59q-164 0 -259 -87t-130 -268z" />
    <glyph glyph-name="Eogonek" unicode="&#x118;" horiz-adv-x="1191" 
d="M1231 1284h-776l-93 -514h674l-18 -108h-674l-98 -553h796l-18 -109h-25q-109 -56 -170 -120.5t-61 -125.5q0 -69 84 -69q59 0 123 34l-19 -96q-63 -29 -127 -29q-81 0 -124 36t-43 104q0 143 194 266h-745l245 1393h893z" />
    <glyph glyph-name="eogonek" unicode="&#x119;" horiz-adv-x="1116" 
d="M649 1073q183 0 278 -85t95 -251q0 -54 -10 -110l-21 -127h-753l-13 -76q-10 -68 -10 -102q0 -126 65.5 -186t202.5 -60q140 0 232 61t123 170h110q-45 -177 -184 -262q-197 -144 -197 -281q0 -42 20.5 -60.5t65.5 -18.5q60 0 121 34l-18 -96q-60 -29 -127 -29
q-81 0 -124.5 39t-43.5 111q0 121 117 238q-54 -7 -97 -7q-187 0 -284 86.5t-97 253.5q0 63 9 109l36 209q37 213 165.5 326.5t338.5 113.5zM899 618q12 64 12 117q0 120 -64.5 179t-199.5 59q-164 0 -259 -87t-130 -268l-4 -20h641z" />
    <glyph glyph-name="Ecaron" unicode="&#x11a;" horiz-adv-x="1191" 
d="M774 1544l-176 260h111l131 -170l190 170h125l-268 -260h-113zM111 0l245 1393h893l-18 -109h-776l-93 -514h674l-18 -108h-674l-98 -553h796l-18 -109h-913z" />
    <glyph glyph-name="ecaron" unicode="&#x11b;" horiz-adv-x="1116" 
d="M627 1223l-176 260h110l131 -170l191 170h125l-269 -260h-112zM481 -25q-187 0 -284 86.5t-97 253.5q0 63 9 109l36 209q37 213 165.5 326.5t338.5 113.5q183 0 278 -85t95 -251q0 -54 -10 -110l-21 -127h-753l-13 -76q-10 -68 -10 -102q0 -126 65.5 -186t202.5 -60
q140 0 232 61t123 170h110q-41 -164 -162 -248t-305 -84zM254 598h641l4 20q12 64 12 117q0 120 -64.5 179t-199.5 59q-164 0 -259 -87t-130 -268z" />
    <glyph glyph-name="Gcircumflex" unicode="&#x11c;" horiz-adv-x="1302" 
d="M555 1544l266 260h113l176 -260h-111l-129 168l-190 -168h-125zM575 -25q-221 0 -337.5 102.5t-116.5 291.5q0 65 12 135l70 389q44 251 200.5 387.5t401.5 136.5q208 0 321 -97t113 -271q0 -39 -6 -76h-113q4 32 4 61q0 132 -82.5 203.5t-240.5 71.5q-197 0 -322 -110.5
t-162 -315.5l-65 -373q-12 -67 -12 -125q0 -301 342 -301q200 0 314 105.5t155 314.5l18 96h-342l18 109h457l-39 -215q-95 -519 -588 -519z" />
    <glyph glyph-name="gcircumflex" unicode="&#x11d;" horiz-adv-x="1193" 
d="M418 1223l266 260h113l176 -260h-111l-129 168l-190 -168h-125zM418 -397q-181 0 -277 69.5t-96 198.5q0 23 2 41h107v-25q0 -184 266 -184q169 0 263 76.5t122 234.5l39 219q-174 -213 -416 -213q-156 0 -239 84t-83 238q0 55 11 117l35 188q37 202 153 314t295 112
q258 0 361 -239l43 215h98l-184 -1045q-69 -401 -500 -401zM446 123q122 0 231.5 74t196.5 213l52 280q-37 139 -118 211t-202 72q-137 0 -224.5 -89.5t-117.5 -250.5l-33 -176q-10 -49 -10 -101q0 -116 57.5 -174.5t167.5 -58.5z" />
    <glyph glyph-name="Gbreve" unicode="&#x11e;" horiz-adv-x="1302" 
d="M842 1550q-105 0 -160 55.5t-55 151.5v31h90v-25q0 -118 129 -118q73 0 120.5 38t65.5 105h92q-25 -114 -97.5 -176t-184.5 -62zM575 -25q-221 0 -337.5 102.5t-116.5 291.5q0 65 12 135l70 389q44 251 200.5 387.5t401.5 136.5q208 0 321 -97t113 -271q0 -39 -6 -76
h-113q4 32 4 61q0 132 -82.5 203.5t-240.5 71.5q-197 0 -322 -110.5t-162 -315.5l-65 -373q-12 -67 -12 -125q0 -301 342 -301q200 0 314 105.5t155 314.5l18 96h-342l18 109h457l-39 -215q-95 -519 -588 -519z" />
    <glyph glyph-name="gbreve" unicode="&#x11f;" horiz-adv-x="1193" 
d="M705 1229q-105 0 -160.5 55.5t-55.5 151.5v30h91v-24q0 -119 129 -119q73 0 120.5 38t65.5 105h92q-25 -113 -97.5 -175t-184.5 -62zM418 -397q-181 0 -277 69.5t-96 198.5q0 23 2 41h107v-25q0 -184 266 -184q169 0 263 76.5t122 234.5l39 219q-174 -213 -416 -213
q-156 0 -239 84t-83 238q0 55 11 117l35 188q37 202 153 314t295 112q258 0 361 -239l43 215h98l-184 -1045q-69 -401 -500 -401zM446 123q122 0 231.5 74t196.5 213l52 280q-37 139 -118 211t-202 72q-137 0 -224.5 -89.5t-117.5 -250.5l-33 -176q-10 -49 -10 -101
q0 -116 57.5 -174.5t167.5 -58.5z" />
    <glyph glyph-name="Gdotaccent" unicode="&#x120;" horiz-adv-x="1302" 
d="M776 1591l29 162h129l-27 -162h-131zM575 -25q-221 0 -337.5 102.5t-116.5 291.5q0 65 12 135l70 389q44 251 200.5 387.5t401.5 136.5q208 0 321 -97t113 -271q0 -39 -6 -76h-113q4 32 4 61q0 132 -82.5 203.5t-240.5 71.5q-197 0 -322 -110.5t-162 -315.5l-65 -373
q-12 -67 -12 -125q0 -301 342 -301q200 0 314 105.5t155 314.5l18 96h-342l18 109h457l-39 -215q-95 -519 -588 -519z" />
    <glyph glyph-name="gdotaccent" unicode="&#x121;" horiz-adv-x="1193" 
d="M639 1270l29 162h129l-27 -162h-131zM418 -397q-181 0 -277 69.5t-96 198.5q0 23 2 41h107v-25q0 -184 266 -184q169 0 263 76.5t122 234.5l39 219q-174 -213 -416 -213q-156 0 -239 84t-83 238q0 55 11 117l35 188q37 202 153 314t295 112q258 0 361 -239l43 215h98
l-184 -1045q-69 -401 -500 -401zM446 123q122 0 231.5 74t196.5 213l52 280q-37 139 -118 211t-202 72q-137 0 -224.5 -89.5t-117.5 -250.5l-33 -176q-10 -49 -10 -101q0 -116 57.5 -174.5t167.5 -58.5z" />
    <glyph glyph-name="Gcommaaccent" unicode="&#x122;" horiz-adv-x="1302" 
d="M575 -25q-221 0 -337.5 102.5t-116.5 291.5q0 65 12 135l70 389q44 251 200.5 387.5t401.5 136.5q208 0 321 -97t113 -271q0 -39 -6 -76h-113q4 32 4 61q0 132 -82.5 203.5t-240.5 71.5q-197 0 -322 -110.5t-162 -315.5l-65 -373q-12 -67 -12 -125q0 -301 342 -301
q200 0 314 105.5t155 314.5l18 96h-342l18 109h457l-39 -215q-95 -519 -588 -519zM408 -461l10 66q38 0 59.5 22.5t30.5 71.5h-53l22 131h131l-20 -115q-16 -93 -53 -134t-127 -42z" />
    <glyph glyph-name="gcommaaccent" unicode="&#x123;" horiz-adv-x="1193" 
d="M831 1509l-10 -65q-38 0 -59.5 -22.5t-30.5 -71.5h53l-22 -131h-131l20 114q16 93 53 134t127 42zM418 -397q-181 0 -277 69.5t-96 198.5q0 23 2 41h107v-25q0 -184 266 -184q169 0 263 76.5t122 234.5l39 219q-174 -213 -416 -213q-156 0 -239 84t-83 238q0 55 11 117
l35 188q37 202 153 314t295 112q258 0 361 -239l43 215h98l-184 -1045q-69 -401 -500 -401zM446 123q122 0 231.5 74t196.5 213l52 280q-37 139 -118 211t-202 72q-137 0 -224.5 -89.5t-117.5 -250.5l-33 -176q-10 -49 -10 -101q0 -116 57.5 -174.5t167.5 -58.5z" />
    <glyph glyph-name="Hcircumflex" unicode="&#x124;" horiz-adv-x="1423" 
d="M614 1544l267 260h112l176 -260h-110l-129 168l-191 -168h-125zM111 0l245 1395h117l-111 -623h785l110 623h117l-246 -1395h-116l116 662h-784l-117 -662h-116z" />
    <glyph glyph-name="hcircumflex" unicode="&#x125;" horiz-adv-x="1159" 
d="M162 1647l266 260h113l176 -260h-111l-129 168l-190 -168h-125zM92 0l264 1495h115l-111 -625q167 203 394 203q137 0 206.5 -68.5t69.5 -201.5q0 -62 -10 -113l-121 -690h-115l119 680q10 51 10 106q0 92 -45 137.5t-139 45.5q-233 0 -399 -279l-123 -690h-115z" />
    <glyph glyph-name="Hbar" unicode="&#x126;" horiz-adv-x="1466" 
d="M1511 1112l-18 -100h-166l-178 -1012h-117l117 662h-784l-117 -662h-117l178 1012h-164l19 100h164l49 283h117l-52 -283h785l51 283h117l-49 -283h165zM1167 772l43 240h-784l-43 -240h784z" />
    <glyph glyph-name="hbar" unicode="&#x127;" horiz-adv-x="1175" 
d="M770 1073q137 0 207 -68.5t70 -201.5q0 -57 -11 -113l-121 -690h-114l119 680q10 51 10 106q0 183 -185 183q-233 0 -399 -279l-123 -690h-114l213 1206h-183l17 94h182l35 195h114l-34 -195h284l-18 -94h-283l-59 -336q167 203 393 203z" />
    <glyph glyph-name="Itilde" unicode="&#x128;" horiz-adv-x="522" 
d="M563 1571q-35 0 -60.5 13t-60.5 46q-26 26 -42 35.5t-35 9.5q-33 0 -58.5 -27t-38.5 -79h-84q47 203 183 203q35 0 60.5 -14t59.5 -48q26 -26 43 -35.5t37 -9.5q32 0 58 28t39 79h84q-50 -201 -185 -201zM111 0l245 1393h117l-246 -1393h-116z" />
    <glyph glyph-name="itilde" unicode="&#x129;" horiz-adv-x="483" 
d="M485 1249q-34 0 -59.5 13t-60.5 47q-45 45 -78 45t-58.5 -27.5t-38.5 -79.5h-84q47 203 183 203q35 0 61 -13.5t60 -47.5q27 -27 43 -36.5t36 -9.5q32 0 58 28t39 79h84q-50 -201 -185 -201zM92 0l184 1049h115l-184 -1049h-115z" />
    <glyph glyph-name="Imacron" unicode="&#x12a;" horiz-adv-x="522" 
d="M254 1628l16 92h408l-19 -92h-405zM111 0l245 1393h117l-246 -1393h-116z" />
    <glyph glyph-name="imacron" unicode="&#x12b;" horiz-adv-x="483" 
d="M176 1307l17 92h407l-18 -92h-406zM92 0l184 1049h115l-184 -1049h-115z" />
    <glyph glyph-name="Ibreve" unicode="&#x12c;" horiz-adv-x="522" 
d="M451 1550q-100 0 -152.5 54t-52.5 149q0 21 2 35h88v-31q0 -112 119 -112q72 0 117 39t59 104h92q-23 -113 -93.5 -175.5t-178.5 -62.5zM111 0l245 1393h117l-246 -1393h-116z" />
    <glyph glyph-name="ibreve" unicode="&#x12d;" horiz-adv-x="483" 
d="M373 1229q-100 0 -152.5 54t-52.5 149q0 20 2 34h88v-30q0 -113 119 -113q72 0 117 39t59 104h92q-23 -113 -93.5 -175t-178.5 -62zM92 0l184 1049h115l-184 -1049h-115z" />
    <glyph glyph-name="Iogonek" unicode="&#x12e;" horiz-adv-x="522" 
d="M43 -242q0 -73 84 -73q56 0 125 34l-19 -96q-60 -29 -129 -29q-81 0 -124 37t-43 105q0 132 174 268l245 1389h117l-246 -1393h-6q-178 -132 -178 -242z" />
    <glyph glyph-name="iogonek" unicode="&#x12f;" horiz-adv-x="483" 
d="M338 1436h129l-29 -170h-129zM201 0q-178 -132 -178 -242q0 -38 20 -55.5t63 -17.5q56 0 125 34l-18 -96q-60 -29 -129 -29q-81 0 -124.5 37t-43.5 105q0 136 176 268l184 1045h115l-184 -1049h-6z" />
    <glyph glyph-name="Idotaccent" unicode="&#x130;" horiz-adv-x="522" 
d="M385 1591l29 162h129l-27 -162h-131zM111 0l245 1393h117l-246 -1393h-116z" />
    <glyph glyph-name="dotlessi" unicode="&#x131;" horiz-adv-x="483" 
d="M92 0l184 1049h115l-184 -1049h-115z" />
    <glyph glyph-name="IJ" unicode="&#x132;" horiz-adv-x="1646" 
d="M111 0l245 1393h117l-246 -1393h-116zM924 -25q-202 0 -297 82t-95 258q0 63 11 121l4 23h112l-2 -23q0 -5 -6 -51t-6 -68q0 -123 67.5 -178t215.5 -55q191 0 291 91.5t137 299.5l162 918h116l-164 -936q-43 -248 -173.5 -365t-372.5 -117z" />
    <glyph glyph-name="ij" unicode="&#x133;" horiz-adv-x="966" 
d="M309 1266l29 170h129l-29 -170h-129zM793 1266l28 170h129l-28 -170h-129zM92 0l184 1049h115l-184 -1049h-115zM317 -373l19 101h43q86 0 123.5 38t56.5 140l201 1143h114l-202 -1147q-26 -148 -92 -211.5t-193 -63.5h-70z" />
    <glyph glyph-name="Jcircumflex" unicode="&#x134;" horiz-adv-x="1124" 
d="M811 1544l256 260h115l164 -260h-109l-121 168l-182 -168h-123zM401 -25q-202 0 -296.5 82t-94.5 258q0 68 10 121l5 23h112l-2 -23q0 -5 -6 -51t-6 -68q0 -123 67.5 -178t215.5 -55q191 0 291 91.5t137 299.5l161 918h117l-164 -936q-43 -248 -174 -365t-373 -117z" />
    <glyph glyph-name="jcircumflex" unicode="&#x135;" horiz-adv-x="483" 
d="M96 1223l256 260h115l164 -260h-109l-121 168l-182 -168h-123zM-166 -373l19 101h43q86 0 123.5 38t56.5 140l200 1143h115l-203 -1147q-26 -148 -91.5 -211.5t-192.5 -63.5h-70z" />
    <glyph glyph-name="Kcommaaccent" unicode="&#x136;" horiz-adv-x="1263" 
d="M111 0l245 1393h117l-143 -809l901 809h153l-630 -570l393 -823h-131l-352 741l-363 -321l-74 -420h-116zM430 -461l10 66q38 0 59.5 22.5t30.5 71.5h-53l23 131h131l-21 -115q-16 -93 -53 -134t-127 -42z" />
    <glyph glyph-name="kcommaaccent" unicode="&#x137;" horiz-adv-x="1067" 
d="M92 0l264 1495h115l-182 -1026l684 580h151l-506 -431l330 -618h-129l-289 543l-266 -224l-57 -319h-115zM330 -461l10 66q38 0 59.5 22.5t30.5 71.5h-53l22 131h131l-20 -115q-16 -93 -53 -134t-127 -42z" />
    <glyph glyph-name="kgreenlandic" unicode="&#x138;" horiz-adv-x="1067" 
d="M92 0l184 1049h115l-102 -582l684 582h151l-506 -431l330 -618h-129l-289 543l-268 -224l-55 -319h-115z" />
    <glyph glyph-name="Lacute" unicode="&#x139;" horiz-adv-x="1064" 
d="M324 1544l266 260h153l-294 -260h-125zM111 0l245 1393h117l-227 -1284h731l-19 -109h-847z" />
    <glyph glyph-name="lacute" unicode="&#x13a;" horiz-adv-x="483" 
d="M322 1647l266 260h153l-295 -260h-124zM92 0l264 1495h115l-264 -1495h-115z" />
    <glyph glyph-name="Lcommaaccent" unicode="&#x13b;" horiz-adv-x="1064" 
d="M111 0l245 1393h117l-227 -1284h731l-19 -109h-847zM367 -461l10 66q38 0 59.5 22.5t30.5 71.5h-53l22 131h131l-20 -115q-16 -93 -53 -134t-127 -42z" />
    <glyph glyph-name="lcommaaccent" unicode="&#x13c;" horiz-adv-x="483" 
d="M92 0l264 1495h115l-264 -1495h-115zM-16 -461l10 66q38 0 59.5 22.5t30.5 71.5h-53l22 131h131l-20 -115q-16 -93 -53 -134t-127 -42z" />
    <glyph glyph-name="Lcaron" unicode="&#x13d;" horiz-adv-x="1064" 
d="M111 0l245 1393h117l-227 -1284h731l-19 -109h-847zM541 993l153 400h129l-192 -400h-90z" />
    <glyph glyph-name="lcaron" unicode="&#x13e;" horiz-adv-x="483" 
d="M92 0l264 1495h115l-264 -1495h-115zM498 1096l153 399h129l-192 -399h-90z" />
    <glyph glyph-name="Ldot" unicode="&#x13f;" horiz-adv-x="1064" 
d="M111 0l245 1393h117l-227 -1284h731l-19 -109h-847zM743 635l33 168h139l-30 -168h-142z" />
    <glyph glyph-name="ldot" unicode="&#x140;" horiz-adv-x="503" 
d="M92 0l264 1495h115l-264 -1495h-115zM449 657l30 160h139l-32 -160h-137z" />
    <glyph glyph-name="Lslash" unicode="&#x141;" horiz-adv-x="1085" 
d="M266 109h731l-18 -109h-848l80 449l-186 -117l20 123l186 116l146 822h117l-132 -740l508 318l-20 -123l-510 -318z" />
    <glyph glyph-name="lslash" unicode="&#x142;" horiz-adv-x="528" 
d="M598 1012l-23 -121l-215 -146l-131 -745h-114l116 657l-219 -149l21 121l219 149l127 717h115l-111 -629z" />
    <glyph glyph-name="Nacute" unicode="&#x143;" horiz-adv-x="1419" 
d="M770 1544l266 260h154l-295 -260h-125zM1255 1393h113l-244 -1393h-112l-570 1235l-217 -1235h-114l245 1393h136l552 -1200z" />
    <glyph glyph-name="nacute" unicode="&#x144;" horiz-adv-x="1159" 
d="M588 1223l266 260h154l-295 -260h-125zM92 0l184 1049h99l-29 -199q167 223 408 223q137 0 206.5 -68.5t69.5 -201.5q0 -62 -10 -113l-121 -690h-115l119 680q10 51 10 106q0 92 -45 137.5t-139 45.5q-231 0 -399 -277l-123 -692h-115z" />
    <glyph glyph-name="Ncommaaccent" unicode="&#x145;" horiz-adv-x="1419" 
d="M1255 1393h113l-244 -1393h-112l-570 1235l-217 -1235h-114l245 1393h136l552 -1200zM451 -461l10 66q38 0 59.5 22.5t30.5 71.5h-53l22 131h131l-20 -115q-16 -93 -53 -134t-127 -42z" />
    <glyph glyph-name="ncommaaccent" unicode="&#x146;" horiz-adv-x="1159" 
d="M92 0l184 1049h99l-29 -199q167 223 408 223q137 0 206.5 -68.5t69.5 -201.5q0 -62 -10 -113l-121 -690h-115l119 680q10 51 10 106q0 92 -45 137.5t-139 45.5q-231 0 -399 -277l-123 -692h-115zM330 -461l10 66q38 0 59.5 22.5t30.5 71.5h-53l22 131h131l-20 -115
q-16 -93 -53 -134t-127 -42z" />
    <glyph glyph-name="Ncaron" unicode="&#x147;" horiz-adv-x="1419" 
d="M834 1544l-177 260h111l131 -170l191 170h124l-268 -260h-112zM1255 1393h113l-244 -1393h-112l-570 1235l-217 -1235h-114l245 1393h136l552 -1200z" />
    <glyph glyph-name="ncaron" unicode="&#x148;" horiz-adv-x="1159" 
d="M651 1223l-176 260h111l131 -170l190 170h125l-268 -260h-113zM92 0l184 1049h99l-29 -199q167 223 408 223q137 0 206.5 -68.5t69.5 -201.5q0 -62 -10 -113l-121 -690h-115l119 680q10 51 10 106q0 92 -45 137.5t-139 45.5q-231 0 -399 -277l-123 -692h-115z" />
    <glyph glyph-name="napostrophe" unicode="&#x149;" horiz-adv-x="1159" 
d="M272 1163l11 64q73 3 86 92l2 14h-49l24 148h131l-26 -148q-15 -85 -53.5 -127t-125.5 -43zM92 0l184 1049h99l-29 -199q167 223 408 223q137 0 206.5 -68.5t69.5 -201.5q0 -62 -10 -113l-121 -690h-115l119 680q10 51 10 106q0 92 -45 137.5t-139 45.5q-231 0 -399 -277
l-123 -692h-115z" />
    <glyph glyph-name="Eng" unicode="&#x14a;" horiz-adv-x="1421" 
d="M748 -373l18 101h49q86 0 123.5 38t56.5 142l17 92l-570 1235l-217 -1235h-114l245 1393h136l552 -1203l211 1203h115l-262 -1491q-26 -148 -92 -211.5t-193 -63.5h-75z" />
    <glyph glyph-name="eng" unicode="&#x14b;" horiz-adv-x="1159" 
d="M522 -373l19 99h47q85 0 123 38.5t57 141.5l135 774q10 51 10 106q0 92 -45 137.5t-139 45.5q-231 0 -399 -277l-123 -692h-115l184 1049h99l-29 -199q167 223 408 223q137 0 206.5 -68.5t69.5 -201.5q0 -62 -10 -113l-139 -788q-26 -148 -92 -211.5t-193 -63.5h-74z" />
    <glyph glyph-name="Omacron" unicode="&#x14c;" horiz-adv-x="1335" 
d="M643 1628l16 92h439l-17 -92h-438zM580 -25q-222 0 -338.5 101.5t-116.5 300.5q0 79 12 143l66 361q47 266 202.5 401t413.5 135q223 0 339 -101.5t116 -299.5q0 -70 -14 -144l-64 -360q-46 -265 -202 -401t-414 -136zM584 84q422 0 497 438l62 350q12 68 12 134
q0 154 -84.5 228.5t-257.5 74.5q-423 0 -498 -439l-61 -350q-12 -67 -12 -133q0 -154 84.5 -228.5t257.5 -74.5z" />
    <glyph glyph-name="omacron" unicode="&#x14d;" horiz-adv-x="1144" 
d="M489 1307l17 92h438l-16 -92h-439zM483 -25q-188 0 -285.5 88t-97.5 254q0 57 11 113l34 193q40 220 171 335t346 115q188 0 285 -87.5t97 -252.5q0 -64 -10 -115l-35 -192q-40 -221 -171 -336t-345 -115zM487 76q334 0 400 362l33 183q8 47 8 100q0 252 -271 252
q-333 0 -399 -363l-33 -182q-8 -47 -8 -100q0 -252 270 -252z" />
    <glyph glyph-name="Obreve" unicode="&#x14e;" horiz-adv-x="1335" 
d="M856 1550q-105 0 -160 55.5t-55 151.5v31h90v-25q0 -118 129 -118q73 0 121 38.5t66 104.5h92q-25 -113 -98 -175.5t-185 -62.5zM580 -25q-222 0 -338.5 101.5t-116.5 300.5q0 79 12 143l66 361q47 266 202.5 401t413.5 135q223 0 339 -101.5t116 -299.5q0 -70 -14 -144
l-64 -360q-46 -265 -202 -401t-414 -136zM584 84q422 0 497 438l62 350q12 68 12 134q0 154 -84.5 228.5t-257.5 74.5q-423 0 -498 -439l-61 -350q-12 -67 -12 -133q0 -154 84.5 -228.5t257.5 -74.5z" />
    <glyph glyph-name="obreve" unicode="&#x14f;" horiz-adv-x="1144" 
d="M702 1229q-105 0 -160 55.5t-55 151.5v30h91v-24q0 -119 129 -119q73 0 120.5 38t65.5 105h92q-25 -113 -98 -175t-185 -62zM483 -25q-188 0 -285.5 88t-97.5 254q0 57 11 113l34 193q40 220 171 335t346 115q188 0 285 -87.5t97 -252.5q0 -64 -10 -115l-35 -192
q-40 -221 -171 -336t-345 -115zM487 76q334 0 400 362l33 183q8 47 8 100q0 252 -271 252q-333 0 -399 -363l-33 -182q-8 -47 -8 -100q0 -252 270 -252z" />
    <glyph glyph-name="Ohungarumlaut" unicode="&#x150;" horiz-adv-x="1335" 
d="M590 1544l221 260h150l-254 -260h-117zM915 1544l222 260h149l-254 -260h-117zM580 -25q-222 0 -338.5 101.5t-116.5 300.5q0 79 12 143l66 361q47 266 202.5 401t413.5 135q223 0 339 -101.5t116 -299.5q0 -70 -14 -144l-64 -360q-46 -265 -202 -401t-414 -136zM584 84
q422 0 497 438l62 350q12 68 12 134q0 154 -84.5 228.5t-257.5 74.5q-423 0 -498 -439l-61 -350q-12 -67 -12 -133q0 -154 84.5 -228.5t257.5 -74.5z" />
    <glyph glyph-name="ohungarumlaut" unicode="&#x151;" horiz-adv-x="1144" 
d="M436 1223l221 260h150l-254 -260h-117zM762 1223l221 260h150l-254 -260h-117zM483 -25q-188 0 -285.5 88t-97.5 254q0 57 11 113l34 193q40 220 171 335t346 115q188 0 285 -87.5t97 -252.5q0 -64 -10 -115l-35 -192q-40 -221 -171 -336t-345 -115zM487 76
q334 0 400 362l33 183q8 47 8 100q0 252 -271 252q-333 0 -399 -363l-33 -182q-8 -47 -8 -100q0 -252 270 -252z" />
    <glyph glyph-name="OE" unicode="&#x152;" horiz-adv-x="1884" 
d="M573 0q-227 0 -339.5 91.5t-112.5 283.5q0 70 16 164l58 325q49 278 195 403.5t417 125.5h1135l-19 -109h-723l-92 -514h621l-19 -108h-620l-99 -553h744l-19 -109h-1143zM592 109h282l209 1175h-278q-219 0 -336.5 -102t-157.5 -324l-59 -326q-12 -64 -12 -139
q0 -152 84 -218t268 -66z" />
    <glyph glyph-name="oe" unicode="&#x153;" horiz-adv-x="1890" 
d="M1432 1073q180 0 272 -85t92 -249q0 -56 -10 -112l-21 -127h-753l-13 -76q-10 -68 -10 -102q0 -126 65.5 -186t202.5 -60q142 0 233 61t122 170h110q-40 -164 -160.5 -248t-301.5 -84q-304 0 -357 228q-127 -228 -422 -228q-186 0 -283.5 88t-97.5 254q0 57 11 113
l34 193q40 220 170 335t342 115q299 0 355 -227q127 227 420 227zM487 76q334 0 400 362l33 183q8 47 8 100q0 252 -271 252q-333 0 -399 -363l-33 -182q-8 -47 -8 -100q0 -252 270 -252zM1028 598h641l4 20q13 70 13 117q0 120 -65 179t-200 59q-164 0 -259 -87t-130 -268z
" />
    <glyph glyph-name="Racute" unicode="&#x154;" horiz-adv-x="1288" 
d="M690 1544l266 260h154l-295 -260h-125zM111 0l245 1393h516q205 0 292 -74t87 -246q0 -201 -102.5 -322t-294.5 -149l264 -602h-127l-260 594h-399l-105 -594h-116zM352 702h391q191 0 291.5 94.5t100.5 270.5q0 123 -60.5 170t-220.5 47h-399z" />
    <glyph glyph-name="racute" unicode="&#x155;" horiz-adv-x="708" 
d="M397 1223l267 260h153l-295 -260h-125zM92 0l184 1049h99l-31 -213q122 233 361 233h71l-18 -111h-53q-133 0 -227.5 -77t-158.5 -242l-112 -639h-115z" />
    <glyph glyph-name="Rcommaaccent" unicode="&#x156;" horiz-adv-x="1288" 
d="M111 0l245 1393h516q205 0 292 -74t87 -246q0 -201 -102.5 -322t-294.5 -149l264 -602h-127l-260 594h-399l-105 -594h-116zM352 702h391q191 0 291.5 94.5t100.5 270.5q0 123 -60.5 170t-220.5 47h-399zM424 -461l10 66q38 0 59.5 22.5t30.5 71.5h-53l23 131h131
l-21 -115q-16 -93 -53 -134t-127 -42z" />
    <glyph glyph-name="rcommaaccent" unicode="&#x157;" horiz-adv-x="708" 
d="M92 0l184 1049h99l-31 -213q122 233 361 233h71l-18 -111h-53q-133 0 -227.5 -77t-158.5 -242l-112 -639h-115zM-16 -461l10 66q38 0 59.5 22.5t30.5 71.5h-53l22 131h131l-20 -115q-16 -93 -53 -134t-127 -42z" />
    <glyph glyph-name="Rcaron" unicode="&#x158;" horiz-adv-x="1288" 
d="M754 1544l-176 260h110l131 -170l191 170h125l-269 -260h-112zM111 0l245 1393h516q205 0 292 -74t87 -246q0 -201 -102.5 -322t-294.5 -149l264 -602h-127l-260 594h-399l-105 -594h-116zM352 702h391q191 0 291.5 94.5t100.5 270.5q0 123 -60.5 170t-220.5 47h-399z
" />
    <glyph glyph-name="rcaron" unicode="&#x159;" horiz-adv-x="708" 
d="M461 1223l-176 260h110l131 -170l191 170h125l-269 -260h-112zM92 0l184 1049h99l-31 -213q122 233 361 233h71l-18 -111h-53q-133 0 -227.5 -77t-158.5 -242l-112 -639h-115z" />
    <glyph glyph-name="Sacute" unicode="&#x15a;" horiz-adv-x="1138" 
d="M623 1544l266 260h153l-294 -260h-125zM492 -25q-217 0 -332 81t-115 231q0 39 6 82h117q-6 -38 -6 -66q0 -219 334 -219q201 0 312.5 91t111.5 263q0 89 -77.5 140.5t-258.5 80.5q-215 35 -305.5 102t-90.5 191q0 220 145.5 342.5t387.5 122.5q202 0 305.5 -76
t103.5 -223q0 -38 -6 -84h-116q6 41 6 70q0 107 -72 156t-221 49q-191 0 -303.5 -89t-112.5 -249q0 -83 72 -128.5t250 -74.5q221 -37 315 -109t94 -206q0 -231 -144.5 -354.5t-399.5 -123.5z" />
    <glyph glyph-name="sacute" unicode="&#x15b;" horiz-adv-x="1015" 
d="M502 1223l266 260h154l-295 -260h-125zM412 -25q-181 0 -277 66.5t-96 191.5q0 29 6 64h109q-4 -32 -4 -49q0 -172 268 -172q160 0 255 62t95 175q0 76 -63.5 114.5t-217.5 57.5q-181 22 -259 78t-78 164q0 157 122.5 251.5t323.5 94.5q164 0 255 -66t91 -186
q0 -29 -6 -59h-111q4 16 4 47q0 81 -61.5 123.5t-177.5 42.5q-146 0 -237 -64.5t-91 -169.5q0 -67 60.5 -101.5t207.5 -51.5q188 -22 270.5 -82.5t82.5 -175.5q0 -169 -127.5 -262t-343.5 -93z" />
    <glyph glyph-name="Scircumflex" unicode="&#x15c;" horiz-adv-x="1138" 
d="M463 1544l266 260h113l176 -260h-111l-129 168l-190 -168h-125zM492 -25q-217 0 -332 81t-115 231q0 39 6 82h117q-6 -38 -6 -66q0 -219 334 -219q201 0 312.5 91t111.5 263q0 89 -77.5 140.5t-258.5 80.5q-215 35 -305.5 102t-90.5 191q0 220 145.5 342.5t387.5 122.5
q202 0 305.5 -76t103.5 -223q0 -38 -6 -84h-116q6 41 6 70q0 107 -72 156t-221 49q-191 0 -303.5 -89t-112.5 -249q0 -83 72 -128.5t250 -74.5q221 -37 315 -109t94 -206q0 -231 -144.5 -354.5t-399.5 -123.5z" />
    <glyph glyph-name="scircumflex" unicode="&#x15d;" horiz-adv-x="1015" 
d="M342 1223l266 260h113l176 -260h-111l-129 168l-190 -168h-125zM412 -25q-181 0 -277 66.5t-96 191.5q0 29 6 64h109q-4 -32 -4 -49q0 -172 268 -172q160 0 255 62t95 175q0 76 -63.5 114.5t-217.5 57.5q-181 22 -259 78t-78 164q0 157 122.5 251.5t323.5 94.5
q164 0 255 -66t91 -186q0 -29 -6 -59h-111q4 16 4 47q0 81 -61.5 123.5t-177.5 42.5q-146 0 -237 -64.5t-91 -169.5q0 -67 60.5 -101.5t207.5 -51.5q188 -22 270.5 -82.5t82.5 -175.5q0 -169 -127.5 -262t-343.5 -93z" />
    <glyph glyph-name="Scedilla" unicode="&#x15e;" horiz-adv-x="1138" 
d="M1124 1034h-116q6 41 6 70q0 107 -72 156t-221 49q-191 0 -303.5 -89t-112.5 -249q0 -83 72 -128.5t250 -74.5q221 -37 315 -109t94 -206q0 -222 -134 -344.5t-370 -133.5l-63 -114q83 0 121.5 -27t38.5 -86q0 -74 -60 -114t-170 -40q-108 0 -182 39l39 70
q52 -37 127 -37q65 0 102 23.5t37 64.5q0 26 -22.5 34.5t-89.5 8.5h-56l99 178q-198 7 -303 88.5t-105 223.5q0 39 6 82h117q-6 -38 -6 -66q0 -219 334 -219q201 0 312.5 91t111.5 263q0 89 -77.5 140.5t-258.5 80.5q-215 35 -305.5 102t-90.5 191q0 220 145.5 342.5
t387.5 122.5q202 0 305.5 -76t103.5 -223q0 -38 -6 -84z" />
    <glyph glyph-name="scedilla" unicode="&#x15f;" horiz-adv-x="1015" 
d="M936 762h-111q4 16 4 47q0 81 -61.5 123.5t-177.5 42.5q-146 0 -237 -64.5t-91 -169.5q0 -67 60.5 -101.5t207.5 -51.5q188 -22 270.5 -82.5t82.5 -175.5q0 -158 -113 -250t-307 -103l-64 -116q83 0 121.5 -27t38.5 -86q0 -74 -59.5 -114t-169.5 -40q-109 0 -183 39
l39 70q52 -37 127 -37q65 0 102.5 23.5t37.5 64.5q0 26 -23 34.5t-90 8.5h-55l96 178q-166 6 -254 72t-88 186q0 29 6 64h109q-4 -32 -4 -49q0 -172 268 -172q160 0 255 62t95 175q0 76 -63.5 114.5t-217.5 57.5q-181 22 -259 78t-78 164q0 157 122.5 251.5t323.5 94.5
q164 0 255 -66t91 -186q0 -29 -6 -59z" />
    <glyph glyph-name="Scaron" unicode="&#x160;" horiz-adv-x="1138" 
d="M686 1544l-176 260h111l131 -170l190 170h125l-268 -260h-113zM492 -25q-217 0 -332 81t-115 231q0 39 6 82h117q-6 -38 -6 -66q0 -219 334 -219q201 0 312.5 91t111.5 263q0 89 -77.5 140.5t-258.5 80.5q-215 35 -305.5 102t-90.5 191q0 220 145.5 342.5t387.5 122.5
q202 0 305.5 -76t103.5 -223q0 -38 -6 -84h-116q6 41 6 70q0 107 -72 156t-221 49q-191 0 -303.5 -89t-112.5 -249q0 -83 72 -128.5t250 -74.5q221 -37 315 -109t94 -206q0 -231 -144.5 -354.5t-399.5 -123.5z" />
    <glyph glyph-name="scaron" unicode="&#x161;" horiz-adv-x="1015" 
d="M565 1223l-176 260h111l131 -170l190 170h125l-268 -260h-113zM412 -25q-181 0 -277 66.5t-96 191.5q0 29 6 64h109q-4 -32 -4 -49q0 -172 268 -172q160 0 255 62t95 175q0 76 -63.5 114.5t-217.5 57.5q-181 22 -259 78t-78 164q0 157 122.5 251.5t323.5 94.5
q164 0 255 -66t91 -186q0 -29 -6 -59h-111q4 16 4 47q0 81 -61.5 123.5t-177.5 42.5q-146 0 -237 -64.5t-91 -169.5q0 -67 60.5 -101.5t207.5 -51.5q188 -22 270.5 -82.5t82.5 -175.5q0 -169 -127.5 -262t-343.5 -93z" />
    <glyph glyph-name="uni0162" unicode="&#x162;" horiz-adv-x="1026" 
d="M168 1393h995l-18 -109h-438l-228 -1284h-14l-80 -139q83 0 121.5 -27t38.5 -86q0 -74 -60 -114t-170 -40q-108 0 -182 39l39 70q52 -37 127 -37q65 0 102 23.5t37 64.5q0 26 -22.5 34.5t-89.5 8.5h-56l115 203h-23l228 1284h-440z" />
    <glyph glyph-name="uni0163" unicode="&#x163;" horiz-adv-x="679" 
d="M416 954l-113 -645q-10 -58 -10 -92q0 -65 33 -91t112 -26h127l-18 -100h-141q-22 0 -54 4l-78 -143q83 0 121.5 -27t38.5 -86q0 -74 -59.5 -114t-169.5 -40q-108 0 -182 39l38 70q52 -37 127 -37q65 0 102.5 23.5t37.5 64.5q0 26 -23 34.5t-90 8.5h-55l121 223
q-103 46 -103 189q0 48 10 106l113 639h-199l17 95h200l60 286h104l-51 -286h287l-19 -95h-284z" />
    <glyph glyph-name="Tcaron" unicode="&#x164;" horiz-adv-x="1026" 
d="M639 1544l-176 260h110l132 -170l190 170h125l-268 -260h-113zM362 0l228 1284h-440l18 109h995l-18 -109h-438l-228 -1284h-117z" />
    <glyph glyph-name="tcaron" unicode="&#x165;" horiz-adv-x="679" 
d="M557 1188l154 399h129l-193 -399h-90zM406 0q-117 0 -172.5 51.5t-55.5 157.5q0 48 10 106l113 639h-199l17 95h200l60 286h104l-51 -286h287l-19 -95h-284l-113 -645q-10 -58 -10 -92q0 -65 33 -91t112 -26h127l-18 -100h-141z" />
    <glyph glyph-name="Tbar" unicode="&#x166;" horiz-adv-x="1026" 
d="M1145 1284h-438l-91 -506h293l-18 -108h-293l-119 -670h-117l119 670h-295l19 108h295l90 506h-440l18 109h995z" />
    <glyph glyph-name="tbar" unicode="&#x167;" horiz-adv-x="679" 
d="M700 954h-284l-47 -264h266l-17 -94h-266l-49 -287q-10 -58 -10 -92q0 -65 33 -91t112 -26h127l-18 -100h-141q-117 0 -172.5 51.5t-55.5 157.5q0 48 10 106l50 281h-185l17 94h184l47 264h-199l17 95h200l60 286h104l-51 -286h287z" />
    <glyph glyph-name="Utilde" unicode="&#x168;" horiz-adv-x="1316" 
d="M967 1571q-67 0 -129 59q-48 45 -82 45q-35 0 -59.5 -25.5t-41.5 -80.5h-86q47 203 189 203q66 0 129 -60q47 -47 82 -47t59 25.5t41 81.5h86q-47 -201 -188 -201zM569 -27q-224 0 -328 82.5t-104 255.5q0 60 15 146l165 936h117l-166 -942q-12 -64 -12 -127
q0 -132 75.5 -187t241.5 -55q212 0 316 85t139 290l164 936h115l-166 -942q-43 -251 -175 -364.5t-397 -113.5z" />
    <glyph glyph-name="utilde" unicode="&#x169;" horiz-adv-x="1167" 
d="M825 1249q-66 0 -129 60q-48 45 -82 45q-35 0 -59 -25.5t-41 -81.5h-86q47 203 188 203q67 0 129 -59q48 -48 82 -48q68 0 101 107h86q-47 -201 -189 -201zM410 -25q-139 0 -210 70.5t-71 204.5q0 43 10 108l123 691h115l-121 -684q-10 -51 -10 -101q0 -93 46 -138.5
t142 -45.5q234 0 404 272l123 697h114l-184 -1049h-98l28 195q-172 -220 -411 -220z" />
    <glyph glyph-name="Umacron" unicode="&#x16a;" horiz-adv-x="1316" 
d="M635 1628l16 92h439l-17 -92h-438zM569 -27q-224 0 -328 82.5t-104 255.5q0 60 15 146l165 936h117l-166 -942q-12 -64 -12 -127q0 -132 75.5 -187t241.5 -55q212 0 316 85t139 290l164 936h115l-166 -942q-43 -251 -175 -364.5t-397 -113.5z" />
    <glyph glyph-name="umacron" unicode="&#x16b;" horiz-adv-x="1167" 
d="M494 1307l16 92h438l-16 -92h-438zM410 -25q-139 0 -210 70.5t-71 204.5q0 43 10 108l123 691h115l-121 -684q-10 -51 -10 -101q0 -93 46 -138.5t142 -45.5q234 0 404 272l123 697h114l-184 -1049h-98l28 195q-172 -220 -411 -220z" />
    <glyph glyph-name="Ubreve" unicode="&#x16c;" horiz-adv-x="1316" 
d="M848 1550q-105 0 -160 55.5t-55 151.5v31h90v-25q0 -118 129 -118q73 0 120.5 38t65.5 105h92q-25 -114 -97.5 -176t-184.5 -62zM569 -27q-224 0 -328 82.5t-104 255.5q0 60 15 146l165 936h117l-166 -942q-12 -64 -12 -127q0 -132 75.5 -187t241.5 -55q212 0 316 85
t139 290l164 936h115l-166 -942q-43 -251 -175 -364.5t-397 -113.5z" />
    <glyph glyph-name="ubreve" unicode="&#x16d;" horiz-adv-x="1167" 
d="M707 1229q-105 0 -160 55.5t-55 151.5v30h90v-24q0 -119 129 -119q73 0 120.5 38t65.5 105h92q-25 -113 -97.5 -175t-184.5 -62zM410 -25q-139 0 -210 70.5t-71 204.5q0 43 10 108l123 691h115l-121 -684q-10 -51 -10 -101q0 -93 46 -138.5t142 -45.5q234 0 404 272
l123 697h114l-184 -1049h-98l28 195q-172 -220 -411 -220z" />
    <glyph glyph-name="Uring" unicode="&#x16e;" horiz-adv-x="1316" 
d="M852 1520q-76 0 -124 46t-48 120q0 86 59.5 144t147.5 58q77 0 124.5 -46.5t47.5 -121.5q0 -85 -59.5 -142.5t-147.5 -57.5zM854 1602q50 0 83.5 34.5t33.5 85.5q0 38 -24.5 61t-63.5 23q-50 0 -83.5 -34.5t-33.5 -85.5q0 -38 24 -61t64 -23zM569 -27q-224 0 -328 82.5
t-104 255.5q0 60 15 146l165 936h117l-166 -942q-12 -64 -12 -127q0 -132 75.5 -187t241.5 -55q212 0 316 85t139 290l164 936h115l-166 -942q-43 -251 -175 -364.5t-397 -113.5z" />
    <glyph glyph-name="uring" unicode="&#x16f;" horiz-adv-x="1167" 
d="M711 1198q-76 0 -124 46t-48 120q0 86 59 144.5t147 58.5q77 0 125 -46.5t48 -121.5q0 -85 -59.5 -143t-147.5 -58zM713 1280q49 0 82.5 35t33.5 86q0 38 -24.5 61t-63.5 23q-49 0 -82.5 -35t-33.5 -86q0 -38 24 -61t64 -23zM410 -25q-139 0 -210 70.5t-71 204.5
q0 43 10 108l123 691h115l-121 -684q-10 -51 -10 -101q0 -93 46 -138.5t142 -45.5q234 0 404 272l123 697h114l-184 -1049h-98l28 195q-172 -220 -411 -220z" />
    <glyph glyph-name="Uhungarumlaut" unicode="&#x170;" horiz-adv-x="1316" 
d="M582 1544l221 260h149l-254 -260h-116zM907 1544l221 260h150l-254 -260h-117zM569 -27q-224 0 -328 82.5t-104 255.5q0 60 15 146l165 936h117l-166 -942q-12 -64 -12 -127q0 -132 75.5 -187t241.5 -55q212 0 316 85t139 290l164 936h115l-166 -942
q-43 -251 -175 -364.5t-397 -113.5z" />
    <glyph glyph-name="uhungarumlaut" unicode="&#x171;" horiz-adv-x="1167" 
d="M440 1223l222 260h149l-254 -260h-117zM766 1223l221 260h150l-254 -260h-117zM410 -25q-139 0 -210 70.5t-71 204.5q0 43 10 108l123 691h115l-121 -684q-10 -51 -10 -101q0 -93 46 -138.5t142 -45.5q234 0 404 272l123 697h114l-184 -1049h-98l28 195
q-172 -220 -411 -220z" />
    <glyph glyph-name="Uogonek" unicode="&#x172;" horiz-adv-x="1316" 
d="M1192 1393h115l-166 -942q-36 -204 -126.5 -315t-258.5 -146q-112 -46 -174 -107.5t-62 -126.5q0 -71 84 -71q61 0 123 34l-18 -96q-60 -29 -125 -29q-83 0 -126.5 36.5t-43.5 105.5q0 132 164 237h-9q-224 0 -328 82.5t-104 255.5q0 60 15 146l165 936h117l-166 -942
q-12 -64 -12 -127q0 -132 75.5 -187t241.5 -55q212 0 316 85t139 290z" />
    <glyph glyph-name="uogonek" unicode="&#x173;" horiz-adv-x="1167" 
d="M866 0q-109 -56 -170 -120.5t-61 -125.5q0 -69 84 -69q59 0 123 34l-19 -96q-63 -29 -127 -29q-82 0 -125 36t-43 104q0 169 271 309l22 152q-172 -220 -411 -220q-139 0 -210 70.5t-71 204.5q0 43 10 108l123 691h115l-121 -684q-10 -51 -10 -101q0 -93 46 -138.5
t142 -45.5q234 0 404 272l123 697h114l-184 -1049h-25z" />
    <glyph glyph-name="Wcircumflex" unicode="&#x174;" horiz-adv-x="1783" 
d="M795 1544l266 260h113l176 -260h-111l-129 168l-190 -168h-125zM330 0l-150 1393h117l125 -1207l561 1207h119l137 -1209l549 1209h123l-639 -1393h-121l-139 1204l-563 -1204h-119z" />
    <glyph glyph-name="wcircumflex" unicode="&#x175;" horiz-adv-x="1583" 
d="M637 1223l266 260h113l176 -260h-111l-129 168l-190 -168h-125zM285 0l-160 1049h117l129 -906l454 906h115l135 -906l447 906h120l-528 -1049h-123l-135 887l-446 -887h-125z" />
    <glyph glyph-name="Ycircumflex" unicode="&#x176;" horiz-adv-x="1105" 
d="M455 1544l266 260h113l176 -260h-111l-129 168l-190 -168h-125zM401 0l109 614l-363 779h132l307 -660l536 660h142l-637 -785l-109 -608h-117z" />
    <glyph glyph-name="ycircumflex" unicode="&#x177;" horiz-adv-x="950" 
d="M322 1223l266 260h112l177 -260h-111l-129 168l-191 -168h-124zM-41 -373l18 101h66q73 0 115 29t88 116l98 182l-219 994h119l182 -856l463 856h121l-658 -1205q-69 -125 -134.5 -171t-174.5 -46h-84z" />
    <glyph glyph-name="Ydieresis" unicode="&#x178;" horiz-adv-x="1105" 
d="M504 1591l28 162h130l-27 -162h-131zM848 1591l29 162h129l-27 -162h-131zM401 0l109 614l-363 779h132l307 -660l536 660h142l-637 -785l-109 -608h-117z" />
    <glyph glyph-name="Zacute" unicode="&#x179;" horiz-adv-x="1110" 
d="M625 1544l266 260h153l-294 -260h-125zM-27 0l19 98l1014 1186h-768l18 109h924l-17 -99l-1013 -1185h821l-19 -109h-979z" />
    <glyph glyph-name="zacute" unicode="&#x17a;" horiz-adv-x="931" 
d="M475 1223l266 260h154l-295 -260h-125zM-29 0l15 86l788 864h-592l19 99h743l-14 -86l-787 -863h643l-16 -100h-799z" />
    <glyph glyph-name="Zdotaccent" unicode="&#x17b;" horiz-adv-x="1110" 
d="M686 1591l29 162h129l-27 -162h-131zM-27 0l19 98l1014 1186h-768l18 109h924l-17 -99l-1013 -1185h821l-19 -109h-979z" />
    <glyph glyph-name="zdotaccent" unicode="&#x17c;" horiz-adv-x="931" 
d="M537 1270l28 162h129l-26 -162h-131zM-29 0l15 86l788 864h-592l19 99h743l-14 -86l-787 -863h643l-16 -100h-799z" />
    <glyph glyph-name="Zcaron" unicode="&#x17d;" horiz-adv-x="1110" 
d="M688 1544l-176 260h111l131 -170l190 170h125l-268 -260h-113zM-27 0l19 98l1014 1186h-768l18 109h924l-17 -99l-1013 -1185h821l-19 -109h-979z" />
    <glyph glyph-name="zcaron" unicode="&#x17e;" horiz-adv-x="931" 
d="M539 1223l-177 260h111l131 -170l191 170h125l-269 -260h-112zM-29 0l15 86l788 864h-592l19 99h743l-14 -86l-787 -863h643l-16 -100h-799z" />
    <glyph glyph-name="florin" unicode="&#x192;" horiz-adv-x="1230" 
d="M6 -123l27 100h110q103 0 166 54t101 182l186 623h-281l19 100h293l55 184q51 169 135.5 241.5t233.5 72.5h168l-27 -101h-133q-105 0 -166.5 -53t-99.5 -180l-50 -164h332l-18 -100h-344l-193 -646q-50 -167 -133.5 -240t-230.5 -73h-150z" />
    <glyph glyph-name="Aringacute" unicode="&#x1fa;" horiz-adv-x="1232" 
d="M745 1927l267 260h153l-295 -260h-125zM801 1483q-76 0 -124 46t-48 120q0 86 59.5 144t147.5 58q77 0 124.5 -46.5t47.5 -121.5q0 -85 -59.5 -142.5t-147.5 -57.5zM803 1565q49 0 83 35t34 86q0 38 -25 60.5t-64 22.5q-49 0 -82.5 -34.5t-33.5 -85.5q0 -38 24 -61
t64 -23zM-68 0l777 1393h120l287 -1393h-123l-78 393h-639l-219 -393h-125zM336 502h559l-150 747z" />
    <glyph glyph-name="aringacute" unicode="&#x1fb;" horiz-adv-x="1107" 
d="M608 1606l266 260h154l-295 -260h-125zM664 1161q-76 0 -124 46t-48 120q0 86 59 144.5t147 58.5q77 0 124.5 -46.5t47.5 -121.5q0 -85 -59 -143t-147 -58zM666 1243q49 0 82.5 35t33.5 86q0 38 -24.5 61t-63.5 23q-49 0 -82.5 -35t-33.5 -86q0 -38 24 -61t64 -23z
M356 -25q-145 0 -223 66.5t-78 200.5q0 177 129 269.5t355 92.5h307l16 94q8 50 8 80q0 195 -245 195q-137 0 -224.5 -59t-115.5 -171h-113q84 330 461 330q352 0 352 -285q0 -43 -8 -90l-123 -698h-98l24 166q-176 -191 -424 -191zM375 74q248 0 420 231l34 201h-292
q-175 0 -271 -64.5t-96 -193.5q0 -89 50.5 -131.5t154.5 -42.5z" />
    <glyph glyph-name="AEacute" unicode="&#x1fc;" horiz-adv-x="1835" 
d="M1001 1544l267 260h153l-295 -260h-125zM-98 0l1104 1393h884l-18 -109h-721l-92 -514h620l-18 -108h-621l-98 -553h744l-19 -109h-860l70 393h-527l-313 -393h-135zM434 502h461l135 762z" />
    <glyph glyph-name="aeacute" unicode="&#x1fd;" horiz-adv-x="1820" 
d="M903 1223l266 260h154l-295 -260h-125zM1360 1073q179 0 272.5 -83t93.5 -249q0 -58 -10 -114l-20 -127h-754l-12 -76q-10 -68 -10 -102q0 -126 65.5 -186t202.5 -60q142 0 232.5 61t121.5 170h111q-41 -163 -161.5 -247.5t-305.5 -84.5q-150 0 -243.5 56t-125.5 162
q-194 -218 -455 -218q-307 0 -307 267q0 175 129.5 267.5t354.5 92.5h307l16 98q8 50 8 82q0 191 -245 191q-138 0 -225 -58.5t-115 -171.5h-113q81 330 457 330q292 0 327 -211q126 211 404 211zM958 598h641l5 20q12 61 12 117q0 120 -64.5 179t-199.5 59q-164 0 -259 -87
t-130 -268zM379 74q248 0 424 245q0 47 12 109l14 78h-294q-172 0 -268.5 -64.5t-96.5 -193.5q0 -88 50.5 -131t158.5 -43z" />
    <glyph glyph-name="Oslashacute" unicode="&#x1fe;" horiz-adv-x="1337" 
d="M1149 1804l-295 -260h-125l266 260h154zM1346 1354l-117 -131q45 -83 45 -207q0 -70 -14 -144l-64 -360q-46 -265 -202 -401t-414 -136q-238 0 -353 115l-102 -115l-72 64l117 131q-45 83 -45 207q0 79 12 143l66 361q47 266 202.5 401t413.5 135q238 0 352 -114l103 114
zM242 387q0 -63 16 -119l834 944q-81 97 -279 97q-423 0 -498 -439l-61 -350q-12 -67 -12 -133zM1155 1006q0 67 -14 116l-836 -942q80 -96 279 -96q422 0 497 438l62 350q12 68 12 134z" />
    <glyph glyph-name="oslashacute" unicode="&#x1ff;" horiz-adv-x="1144" 
d="M995 1483l-295 -260h-125l267 260h153zM1102 1010l-96 -101q38 -69 38 -176q0 -64 -10 -115l-35 -192q-40 -221 -171 -336t-345 -115q-186 0 -288 91l-86 -91l-66 64l96 100q-39 71 -39 178q0 57 11 113l34 193q40 220 171 335t346 115q187 0 288 -90l86 90zM217 328
q0 -54 12 -95l641 666q-68 74 -213 74q-333 0 -399 -363l-33 -182q-8 -47 -8 -100zM928 721q0 50 -13 94l-641 -665q68 -74 213 -74q334 0 400 362l33 183q8 47 8 100z" />
    <glyph glyph-name="Scommaaccent" unicode="&#x218;" horiz-adv-x="1138" 
d="M492 -25q-217 0 -332 81t-115 231q0 39 6 82h117q-6 -38 -6 -66q0 -219 334 -219q201 0 312.5 91t111.5 263q0 89 -77.5 140.5t-258.5 80.5q-215 35 -305.5 102t-90.5 191q0 220 145.5 342.5t387.5 122.5q202 0 305.5 -76t103.5 -223q0 -38 -6 -84h-116q6 41 6 70
q0 107 -72 156t-221 49q-191 0 -303.5 -89t-112.5 -249q0 -83 72 -128.5t250 -74.5q221 -37 315 -109t94 -206q0 -231 -144.5 -354.5t-399.5 -123.5zM340 -461l10 66q38 0 59.5 22.5t30.5 71.5h-53l23 131h131l-21 -115q-16 -93 -53 -134t-127 -42z" />
    <glyph glyph-name="scommaaccent" unicode="&#x219;" horiz-adv-x="1015" 
d="M412 -25q-181 0 -277 66.5t-96 191.5q0 29 6 64h109q-4 -32 -4 -49q0 -172 268 -172q160 0 255 62t95 175q0 76 -63.5 114.5t-217.5 57.5q-181 22 -259 78t-78 164q0 157 122.5 251.5t323.5 94.5q164 0 255 -66t91 -186q0 -29 -6 -59h-111q4 16 4 47q0 81 -61.5 123.5
t-177.5 42.5q-146 0 -237 -64.5t-91 -169.5q0 -67 60.5 -101.5t207.5 -51.5q188 -22 270.5 -82.5t82.5 -175.5q0 -169 -127.5 -262t-343.5 -93zM270 -461l11 66q38 0 59.5 22.5t30.5 71.5h-54l23 131h131l-20 -115q-16 -93 -53.5 -134t-127.5 -42z" />
    <glyph glyph-name="uni021A" unicode="&#x21a;" horiz-adv-x="1026" 
d="M362 0l228 1284h-440l18 109h995l-18 -109h-438l-228 -1284h-117zM256 -461l10 66q38 0 59.5 22.5t30.5 71.5h-53l23 131h131l-21 -115q-16 -93 -53 -134t-127 -42z" />
    <glyph glyph-name="uni021B" unicode="&#x21b;" horiz-adv-x="679" 
d="M406 0q-117 0 -172.5 51.5t-55.5 157.5q0 48 10 106l113 639h-199l17 95h200l60 286h104l-51 -286h287l-19 -95h-284l-113 -645q-10 -58 -10 -92q0 -65 33 -91t112 -26h127l-18 -100h-141zM145 -461l11 66q38 0 59.5 22.5t30.5 71.5h-53l22 131h131l-20 -115
q-16 -93 -53.5 -134t-127.5 -42z" />
    <glyph glyph-name="uni0237" unicode="&#x237;" horiz-adv-x="483" 
d="M-166 -373l19 101h43q86 0 123.5 38t56.5 140l200 1143h115l-203 -1147q-26 -148 -91.5 -211.5t-192.5 -63.5h-70z" />
    <glyph glyph-name="uni02BC" unicode="&#x2bc;" horiz-adv-x="260" 
d="M170 1163l10 64q73 3 86 92l2 14h-49l25 148h131l-27 -148q-15 -85 -53 -127t-125 -43z" />
    <glyph glyph-name="circumflex" unicode="&#x2c6;" horiz-adv-x="1024" 
d="M356 1223l267 260h112l176 -260h-110l-129 168l-191 -168h-125z" />
    <glyph glyph-name="caron" unicode="&#x2c7;" horiz-adv-x="1024" 
d="M580 1223l-177 260h111l131 -170l191 170h125l-269 -260h-112z" />
    <glyph glyph-name="uni02C9" unicode="&#x2c9;" horiz-adv-x="1024" 
d="M430 1307l16 92h439l-17 -92h-438z" />
    <glyph glyph-name="breve" unicode="&#x2d8;" horiz-adv-x="1024" 
d="M643 1229q-105 0 -160 55.5t-55 151.5v30h90v-24q0 -119 129 -119q73 0 121 38.5t66 104.5h92q-25 -113 -98 -175t-185 -62z" />
    <glyph glyph-name="dotaccent" unicode="&#x2d9;" horiz-adv-x="1024" 
d="M578 1270l28 162h129l-26 -162h-131z" />
    <glyph glyph-name="ring" unicode="&#x2da;" horiz-adv-x="1024" 
d="M647 1198q-76 0 -124 46t-48 120q0 86 59.5 144.5t147.5 58.5q77 0 124.5 -46.5t47.5 -121.5q0 -85 -59.5 -143t-147.5 -58zM649 1280q49 0 83 35t34 86q0 38 -24.5 61t-63.5 23q-49 0 -83 -35t-34 -86q0 -38 24 -61t64 -23z" />
    <glyph glyph-name="ogonek" unicode="&#x2db;" horiz-adv-x="1024" 
d="M383 -406q-82 0 -125 36t-43 104q0 184 313 329l41 -55q-118 -57 -182.5 -123.5t-64.5 -130.5q0 -69 84 -69q58 0 122 34l-18 -96q-63 -29 -127 -29z" />
    <glyph glyph-name="tilde" unicode="&#x2dc;" horiz-adv-x="1024" 
d="M762 1249q-66 0 -129 60q-48 45 -82 45q-35 0 -59 -25.5t-41 -81.5h-86q47 203 188 203q67 0 129 -59q48 -48 82 -48q35 0 59 25.5t41 81.5h86q-47 -201 -188 -201z" />
    <glyph glyph-name="hungarumlaut" unicode="&#x2dd;" horiz-adv-x="1024" 
d="M377 1223l221 260h150l-254 -260h-117zM702 1223l222 260h149l-254 -260h-117z" />
    <glyph glyph-name="gravecomb" unicode="&#x300;" horiz-adv-x="0" 
d="M127 1223l-205 260h141l175 -260h-111z" />
    <glyph glyph-name="acutecomb" unicode="&#x301;" horiz-adv-x="0" 
d="M4 1223l266 260h154l-295 -260h-125z" />
    <glyph glyph-name="uni0302" unicode="&#x302;" horiz-adv-x="0" 
d="M-156 1223l267 260h112l176 -260h-110l-129 168l-191 -168h-125z" />
    <glyph glyph-name="tildecomb" unicode="&#x303;" horiz-adv-x="0" 
d="M250 1249q-66 0 -129 60q-48 45 -82 45q-35 0 -59 -25.5t-41 -81.5h-86q47 203 188 203q67 0 129 -59q48 -48 82 -48q35 0 59 25.5t41 81.5h86q-47 -201 -188 -201z" />
    <glyph glyph-name="uni0304" unicode="&#x304;" horiz-adv-x="0" 
d="M-82 1307l16 92h439l-17 -92h-438z" />
    <glyph glyph-name="uni0306" unicode="&#x306;" horiz-adv-x="0" 
d="M131 1229q-105 0 -160 55.5t-55 151.5v30h90v-24q0 -119 129 -119q73 0 121 38.5t66 104.5h92q-25 -113 -98 -175t-185 -62z" />
    <glyph glyph-name="uni0307" unicode="&#x307;" horiz-adv-x="0" 
d="M66 1270l28 162h129l-26 -162h-131z" />
    <glyph glyph-name="uni0308" unicode="&#x308;" horiz-adv-x="0" 
d="M-106 1270l28 162h129l-26 -162h-131zM238 1270l28 162h129l-26 -162h-131z" />
    <glyph glyph-name="uni030A" unicode="&#x30a;" horiz-adv-x="0" 
d="M135 1198q-76 0 -124 46t-48 120q0 86 59.5 144.5t147.5 58.5q77 0 124.5 -46.5t47.5 -121.5q0 -85 -59.5 -143t-147.5 -58zM137 1280q49 0 83 35t34 86q0 38 -24.5 61t-63.5 23q-49 0 -83 -35t-34 -86q0 -38 24 -61t64 -23z" />
    <glyph glyph-name="uni030B" unicode="&#x30b;" horiz-adv-x="0" 
d="M-135 1223l221 260h150l-254 -260h-117zM190 1223l222 260h149l-254 -260h-117z" />
    <glyph glyph-name="uni030C" unicode="&#x30c;" horiz-adv-x="0" 
d="M68 1223l-177 260h111l131 -170l191 170h125l-269 -260h-112z" />
    <glyph glyph-name="uni0312" unicode="&#x312;" horiz-adv-x="0" 
d="M57 1221l21 114q16 92 53 132.5t127 41.5l-10 -63q-38 -2 -59.5 -24t-28.5 -70h51l-23 -131h-131z" />
    <glyph glyph-name="uni0326" unicode="&#x326;" horiz-adv-x="0" 
d="M-258 -461l10 66q38 0 59.5 22.5t30.5 71.5h-53l23 131h131l-21 -115q-16 -93 -53 -134t-127 -42z" />
    <glyph glyph-name="uni0327" unicode="&#x327;" horiz-adv-x="0" 
d="M-199 -406q-108 0 -182 39l39 70q52 -37 127 -37q65 0 102 23.5t37 64.5q0 26 -22.5 34.5t-89.5 8.5h-56l127 234h80l-92 -170q83 0 121.5 -27t38.5 -86q0 -74 -60 -114t-170 -40z" />
    <glyph glyph-name="uni0328" unicode="&#x328;" horiz-adv-x="0" 
d="M-129 -406q-82 0 -125 36t-43 104q0 184 313 329l41 -55q-118 -57 -182.5 -123.5t-64.5 -130.5q0 -69 84 -69q58 0 122 34l-18 -96q-63 -29 -127 -29z" />
    <glyph glyph-name="uni0394" unicode="&#x394;" horiz-adv-x="1214" 
d="M-68 0l766 1393h123l277 -1393h-1166zM117 109h839l-223 1124z" />
    <glyph glyph-name="uni03A9" unicode="&#x3a9;" horiz-adv-x="1337" 
d="M55 0l19 109h198q-68 46 -104.5 128.5t-36.5 190.5q0 63 10 119l60 332q98 538 618 538q226 0 339.5 -102.5t113.5 -296.5q0 -68 -12 -148l-58 -331q-26 -149 -99 -260.5t-177 -169.5h190l-18 -109h-418l16 96q152 29 254 145t133 291l60 340q12 70 12 136
q0 152 -84.5 226.5t-257.5 74.5q-419 0 -498 -443l-59 -340q-10 -54 -10 -112q0 -270 243 -318l-16 -96h-418z" />
    <glyph glyph-name="uni03BC" unicode="&#x3bc;" horiz-adv-x="1185" 
d="M27 -373l252 1422h114l-121 -687q-10 -58 -10 -98q0 -93 45.5 -138.5t141.5 -45.5q234 0 409 287l121 682h115l-185 -1049h-98l31 203q-177 -228 -412 -228q-145 0 -211 84l-78 -432h-114z" />
    <glyph glyph-name="pi" unicode="&#x3c0;" horiz-adv-x="1200" 
d="M1026 948l-119 -667q-10 -48 -10 -80q0 -56 28.5 -78.5t92.5 -22.5h63l-18 -100h-88q-99 0 -146 43t-47 137q0 49 11 105l118 663h-489l-166 -948h-115l166 948h-207l19 101h1132l-18 -101h-207z" />
    <glyph glyph-name="Wgrave" unicode="&#x1e80;" horiz-adv-x="1783" 
d="M1077 1544l-205 260h142l174 -260h-111zM330 0l-150 1393h117l125 -1207l561 1207h119l137 -1209l549 1209h123l-639 -1393h-121l-139 1204l-563 -1204h-119z" />
    <glyph glyph-name="wgrave" unicode="&#x1e81;" horiz-adv-x="1583" 
d="M920 1223l-205 260h141l174 -260h-110zM285 0l-160 1049h117l129 -906l454 906h115l135 -906l447 906h120l-528 -1049h-123l-135 887l-446 -887h-125z" />
    <glyph glyph-name="Wacute" unicode="&#x1e82;" horiz-adv-x="1783" 
d="M954 1544l267 260h153l-295 -260h-125zM330 0l-150 1393h117l125 -1207l561 1207h119l137 -1209l549 1209h123l-639 -1393h-121l-139 1204l-563 -1204h-119z" />
    <glyph glyph-name="wacute" unicode="&#x1e83;" horiz-adv-x="1583" 
d="M797 1223l266 260h154l-295 -260h-125zM285 0l-160 1049h117l129 -906l454 906h115l135 -906l447 906h120l-528 -1049h-123l-135 887l-446 -887h-125z" />
    <glyph glyph-name="Wdieresis" unicode="&#x1e84;" horiz-adv-x="1783" 
d="M844 1591l28 162h129l-26 -162h-131zM1188 1591l29 162h129l-27 -162h-131zM330 0l-150 1393h117l125 -1207l561 1207h119l137 -1209l549 1209h123l-639 -1393h-121l-139 1204l-563 -1204h-119z" />
    <glyph glyph-name="wdieresis" unicode="&#x1e85;" horiz-adv-x="1583" 
d="M686 1270l29 162h129l-27 -162h-131zM1030 1270l29 162h129l-27 -162h-131zM285 0l-160 1049h117l129 -906l454 906h115l135 -906l447 906h120l-528 -1049h-123l-135 887l-446 -887h-125z" />
    <glyph glyph-name="uni1E9E" unicode="&#x1e9e;" horiz-adv-x="1280" 
d="M74 0l172 977q38 215 167 315.5t365 100.5h490l-19 -99l-471 -508q231 -1 328.5 -75t97.5 -248q0 -222 -136 -342.5t-388 -120.5h-246l19 109h227q196 0 300.5 89t104.5 255q0 127 -75 177t-267 50h-137l17 92l473 512h-320q-188 0 -286.5 -74.5t-127.5 -238.5l-172 -971
h-116z" />
    <glyph glyph-name="Ygrave" unicode="&#x1ef2;" horiz-adv-x="1105" 
d="M737 1544l-205 260h142l174 -260h-111zM401 0l109 614l-363 779h132l307 -660l536 660h142l-637 -785l-109 -608h-117z" />
    <glyph glyph-name="ygrave" unicode="&#x1ef3;" horiz-adv-x="950" 
d="M604 1223l-205 260h142l174 -260h-111zM-41 -373l18 101h66q73 0 115 29t88 116l98 182l-219 994h119l182 -856l463 856h121l-658 -1205q-69 -125 -134.5 -171t-174.5 -46h-84z" />
    <glyph glyph-name="uni2002" unicode="&#x2002;" horiz-adv-x="1024" 
 />
    <glyph glyph-name="uni2003" unicode="&#x2003;" horiz-adv-x="1843" 
 />
    <glyph glyph-name="uni2007" unicode="&#x2007;" horiz-adv-x="1230" 
 />
    <glyph glyph-name="uni2008" unicode="&#x2008;" horiz-adv-x="524" 
 />
    <glyph glyph-name="uni200B" unicode="&#x200b;" horiz-adv-x="0" 
 />
    <glyph glyph-name="figuredash" unicode="&#x2012;" horiz-adv-x="1230" 
d="M66 547l16 98h1108l-16 -98h-1108z" />
    <glyph glyph-name="endash" unicode="&#x2013;" horiz-adv-x="1024" 
d="M66 547l16 98h901l-16 -98h-901z" />
    <glyph glyph-name="emdash" unicode="&#x2014;" horiz-adv-x="1843" 
d="M66 547l16 98h1720l-16 -98h-1720z" />
    <glyph glyph-name="quoteleft" unicode="&#x2018;" horiz-adv-x="468" 
d="M244 987l35 197q20 115 70 171t138 62l-14 -78q-35 -5 -63.5 -39.5t-40.5 -93.5l-7 -35h56l-33 -184h-141z" />
    <glyph glyph-name="quoteright" unicode="&#x2019;" horiz-adv-x="468" 
d="M217 963l14 79q35 3 64 38t39 96l6 34h-53l32 183h142l-35 -197q-20 -115 -70.5 -170t-138.5 -63z" />
    <glyph glyph-name="quotesinglbase" unicode="&#x201a;" horiz-adv-x="468" 
d="M4 -248l14 80q36 3 64.5 38t38.5 95l6 35h-53l32 182h142l-35 -196q-20 -115 -70.5 -170.5t-138.5 -63.5z" />
    <glyph glyph-name="quotedblleft" unicode="&#x201c;" horiz-adv-x="823" 
d="M244 987l35 197q20 115 70 171t138 62l-14 -78q-35 -5 -63.5 -39.5t-40.5 -93.5l-7 -35h56l-33 -184h-141zM598 987l35 197q20 115 70.5 171t138.5 62l-15 -78q-35 -5 -63.5 -39.5t-40.5 -93.5l-6 -35h55l-33 -184h-141z" />
    <glyph glyph-name="quotedblright" unicode="&#x201d;" horiz-adv-x="823" 
d="M217 963l14 79q35 3 64 38t39 96l6 34h-53l32 183h142l-35 -197q-20 -115 -70.5 -170t-138.5 -63zM571 963l15 79q35 3 63.5 38t38.5 96l6 34h-53l33 183h141l-35 -197q-20 -115 -70.5 -170t-138.5 -63z" />
    <glyph glyph-name="quotedblbase" unicode="&#x201e;" horiz-adv-x="823" 
d="M4 -248l14 80q36 3 64.5 38t38.5 95l6 35h-53l32 182h142l-35 -196q-20 -115 -70.5 -170.5t-138.5 -63.5zM358 -248l15 80q35 3 63.5 37.5t38.5 95.5l6 35h-53l33 182h141l-35 -196q-20 -115 -70.5 -170.5t-138.5 -63.5z" />
    <glyph glyph-name="dagger" unicode="&#x2020;" horiz-adv-x="1196" 
d="M381 -373l201 1141l-461 -10l20 116l457 -10l94 529h115l-94 -529l463 10l-21 -116l-459 10l-200 -1141h-115z" />
    <glyph glyph-name="daggerdbl" unicode="&#x2021;" horiz-adv-x="1196" 
d="M381 -373l86 488l-461 -11l21 117l456 -10l107 598l-461 -10l21 116l456 -10l86 488h115l-86 -488l465 10l-21 -116l-460 10l-107 -598l465 10l-21 -117l-460 11l-86 -488h-115z" />
    <glyph glyph-name="bullet" unicode="&#x2022;" horiz-adv-x="1024" 
d="M297 397l70 398h387l-70 -398h-387z" />
    <glyph glyph-name="ellipsis" unicode="&#x2026;" horiz-adv-x="1843" 
d="M145 0l31 182h139l-30 -182h-140zM760 0l31 182h139l-31 -182h-139zM1374 0l31 182h139l-31 -182h-139z" />
    <glyph glyph-name="perthousand" unicode="&#x2030;" horiz-adv-x="2271" 
d="M410 651q-125 0 -190.5 54.5t-65.5 158.5q0 34 6 68l37 209q24 139 109 207.5t222 68.5q125 0 190.5 -54.5t65.5 -158.5q0 -32 -6 -67l-37 -209q-24 -139 -109.5 -208t-221.5 -69zM219 -25l1084 1442h106l-1081 -1442h-109zM414 741q192 0 229 199l35 195q4 18 4 61
q0 131 -156 131q-197 0 -231 -199l-33 -196q-6 -48 -6 -60q0 -131 158 -131zM1104 -25q-125 0 -190.5 54.5t-65.5 158.5q0 34 6 68l37 209q24 139 109.5 207.5t222.5 68.5q125 0 190.5 -54.5t65.5 -158.5q0 -32 -6 -67l-37 -209q-24 -138 -110 -207.5t-222 -69.5zM1806 -25
q-125 0 -190.5 54.5t-65.5 158.5q0 34 6 68l37 209q24 139 109.5 207.5t222.5 68.5q125 0 190.5 -54.5t65.5 -158.5q0 -32 -6 -67l-37 -209q-24 -138 -110 -207.5t-222 -69.5zM1106 66q192 0 229 198l35 197q4 32 4 59q0 131 -155 131q-198 0 -232 -198l-33 -195
q-6 -27 -6 -61q0 -131 158 -131zM1808 66q193 0 230 198l35 197q4 32 4 59q0 131 -156 131q-197 0 -231 -198l-33 -195q-6 -27 -6 -61q0 -131 157 -131z" />
    <glyph glyph-name="guilsinglleft" unicode="&#x2039;" horiz-adv-x="530" 
d="M293 168l-238 358l357 355h137l-367 -365l230 -348h-119z" />
    <glyph glyph-name="guilsinglright" unicode="&#x203a;" horiz-adv-x="530" 
d="M-20 168l368 364l-229 349h119l237 -361l-356 -352h-139z" />
    <glyph glyph-name="fraction" unicode="&#x2044;" horiz-adv-x="208" 
d="M-426 -25l1012 1442h108l-1011 -1442h-109z" />
    <glyph glyph-name="uni2070" unicode="&#x2070;" 
d="M436 827q-124 0 -188 55t-64 158q0 34 6 68l54 303q23 134 107 203t220 69q124 0 188 -55t64 -158q0 -32 -6 -67l-53 -303q-23 -134 -107.5 -203.5t-220.5 -69.5zM438 918q191 0 226 194l51 291q6 27 6 55q0 135 -154 135q-190 0 -225 -194l-51 -291q-6 -27 -6 -55
q0 -135 153 -135z" />
    <glyph glyph-name="uni2074" unicode="&#x2074;" 
d="M559 852l33 180h-442l16 94l528 533h109l-96 -537h104l-16 -90h-103l-33 -180h-100zM281 1122h325l74 408z" />
    <glyph glyph-name="uni2075" unicode="&#x2075;" 
d="M428 827q-119 0 -186.5 50t-67.5 137q0 21 2 33h96q-2 -10 -2 -21q0 -52 43 -80t119 -28q115 0 181.5 63.5t66.5 161.5q0 139 -154 139q-122 0 -209 -65h-79l102 442h491l-16 -92h-407l-58 -248q86 53 199 53q229 0 229 -221q0 -145 -94 -234.5t-256 -89.5z" />
    <glyph glyph-name="uni2076" unicode="&#x2076;" 
d="M442 827q-122 0 -187 55t-65 158q0 26 7 66l53 301q24 138 110 207t224 69q120 0 182.5 -48t62.5 -132q0 -25 -2 -35h-96q2 8 2 21q0 104 -149 104q-99 0 -160 -51t-76 -145l-22 -131q93 96 237 96q217 0 217 -215q0 -143 -90 -231.5t-248 -88.5zM451 918
q108 0 168.5 64.5t60.5 160.5q0 67 -33.5 98t-105.5 31q-153 0 -238 -133l-6 -33q-6 -27 -6 -53q0 -65 42 -100t118 -35z" />
    <glyph glyph-name="uni2077" unicode="&#x2077;" 
d="M276 852q91 417 463 715h-483l16 92h602l-18 -98q-385 -301 -473 -709h-107z" />
    <glyph glyph-name="uni2078" unicode="&#x2078;" 
d="M428 827q-272 0 -272 203q0 91 51 153t141 89v2q-96 39 -96 156t88 185t238 68q119 0 183 -48.5t64 -147.5q0 -159 -159 -213v-4q116 -44 116 -176q0 -128 -95.5 -197.5t-258.5 -69.5zM506 1311q103 0 162 46t59 122q0 116 -152 116q-105 0 -166 -47.5t-61 -124.5
q0 -57 38.5 -84.5t119.5 -27.5zM432 915q118 0 185 49t67 134q0 64 -42 94.5t-132 30.5q-116 0 -184 -49.5t-68 -135.5q0 -123 174 -123z" />
    <glyph glyph-name="uni2079" unicode="&#x2079;" 
d="M422 827q-120 0 -183 48.5t-63 132.5q0 24 2 34h96q-2 -8 -2 -20q0 -104 150 -104q99 0 159.5 51t75.5 145l23 131q-93 -96 -238 -96q-217 0 -217 215q0 143 90 231t248 88q122 0 187 -55t65 -158q0 -30 -6 -65l-53 -301q-24 -138 -110 -207.5t-224 -69.5zM465 1239
q152 0 237 133l7 33q6 27 6 53q0 65 -42 100t-118 35q-108 0 -168.5 -64.5t-60.5 -160.5q0 -67 33.5 -98t105.5 -31z" />
    <glyph glyph-name="uni2080" unicode="&#x2080;" 
d="M244 -270q-124 0 -188 55t-64 158q0 32 6 67l53 303q23 134 107.5 203.5t220.5 69.5q124 0 188 -55t64 -158q0 -33 -6 -68l-54 -303q-23 -134 -107 -203t-220 -69zM246 -180q190 0 225 194l51 291q6 27 6 55q0 136 -153 136q-190 0 -225 -195l-52 -291q-6 -27 -6 -55
q0 -135 154 -135z" />
    <glyph glyph-name="uni2081" unicode="&#x2081;" 
d="M47 -246l16 90h193l104 588q-103 -50 -229 -53l14 80q134 8 242 102h96l-127 -717h195l-14 -90h-490z" />
    <glyph glyph-name="uni2082" unicode="&#x2082;" 
d="M326 59q-123 -52 -177 -98.5t-73 -114.5h463l-17 -92h-565l10 64q19 113 94.5 189.5t233.5 142.5q125 53 181 107.5t56 123.5q0 115 -147 115q-90 0 -145.5 -43t-69.5 -123l-2 -13h-98l6 31q49 238 315 238q240 0 240 -199q0 -104 -72 -181.5t-233 -146.5z" />
    <glyph glyph-name="uni2083" unicode="&#x2083;" 
d="M244 -270q-126 0 -193 48t-67 132q0 25 4 49l4 23h96l-2 -13q-2 -12 -2 -32q0 -117 162 -117q110 0 170.5 50.5t60.5 135.5q0 62 -37 89.5t-129 27.5h-98l14 90h95q93 0 147.5 47.5t54.5 122.5q0 113 -145 113q-89 0 -145 -38t-68 -108l-2 -10h-96l2 16q20 112 102.5 171
t212.5 59q240 0 240 -197q0 -81 -42.5 -136t-117.5 -79v-2q113 -39 113 -170q0 -127 -90.5 -199.5t-243.5 -72.5z" />
    <glyph glyph-name="uni2084" unicode="&#x2084;" 
d="M367 -246l32 180h-442l16 95l529 532h108l-96 -536h104l-16 -91h-102l-33 -180h-100zM88 25h326l73 407z" />
    <glyph glyph-name="uni2085" unicode="&#x2085;" 
d="M236 -270q-119 0 -186.5 49.5t-67.5 136.5q0 21 2 33h96q-2 -10 -2 -21q0 -52 43 -80t119 -28q115 0 181 63.5t66 161.5q0 139 -153 139q-122 0 -209 -65h-80l102 442h492l-16 -92h-408l-57 -248q86 53 198 53q230 0 230 -221q0 -145 -94 -234t-256 -89z" />
    <glyph glyph-name="uni2086" unicode="&#x2086;" 
d="M250 -270q-122 0 -187 55t-65 158q0 31 6 65l53 301q24 138 110 207.5t224 69.5q120 0 183 -48t63 -132q0 -25 -2 -35h-96q2 8 2 20q0 105 -150 105q-99 0 -159.5 -51.5t-75.5 -145.5l-23 -131q93 96 238 96q217 0 217 -215q0 -143 -90 -231t-248 -88zM258 -180
q108 0 168.5 64.5t60.5 160.5q0 67 -33.5 98t-105.5 31q-152 0 -237 -133l-7 -33q-6 -27 -6 -53q0 -65 42 -100t118 -35z" />
    <glyph glyph-name="uni2087" unicode="&#x2087;" 
d="M84 -246q91 417 463 715h-484l17 92h602l-18 -98q-386 -302 -474 -709h-106z" />
    <glyph glyph-name="uni2088" unicode="&#x2088;" 
d="M236 -270q-273 0 -273 202q0 91 51.5 153t141.5 89v2q-97 40 -97 156q0 117 88.5 185.5t237.5 68.5q119 0 183.5 -49t64.5 -148q0 -80 -42 -134t-118 -79v-4q117 -45 117 -176q0 -128 -95.5 -197t-258.5 -69zM313 213q103 0 162.5 46t59.5 122q0 117 -152 117
q-105 0 -166 -47.5t-61 -124.5q0 -57 38 -85t119 -28zM240 -182q118 0 185 48.5t67 133.5q0 63 -42.5 94t-132.5 31q-116 0 -183.5 -49t-67.5 -135q0 -123 174 -123z" />
    <glyph glyph-name="uni2089" unicode="&#x2089;" 
d="M229 -270q-120 0 -182.5 48t-62.5 132q0 25 2 35h96q-2 -8 -2 -21q0 -104 149 -104q99 0 160 51t76 145l22 131q-93 -96 -237 -96q-217 0 -217 215q0 143 90 231.5t248 88.5q122 0 187 -55t65 -158q0 -26 -7 -66l-53 -301q-24 -138 -110 -207t-224 -69zM272 141
q153 0 238 133l6 33q6 27 6 53q0 65 -42 100.5t-118 35.5q-108 0 -168.5 -65t-60.5 -161q0 -67 33.5 -98t105.5 -31z" />
    <glyph glyph-name="Euro" unicode="&#x20ac;" horiz-adv-x="1230" 
d="M580 -25q-192 0 -295 90t-103 261q0 58 11 114l10 58h-119l16 96h119l37 205h-119l17 96h120l11 61q38 226 176 343.5t360 117.5q189 0 287 -86.5t98 -251.5q0 -41 -4 -61h-108q4 36 4 53q0 242 -283 242q-175 0 -283 -93.5t-137 -273.5l-8 -51h473l-33 -96h-458
l-35 -205h416l-31 -96h-402l-10 -58q-10 -58 -10 -100q0 -260 291 -260q154 0 253.5 74t137.5 221h111q-47 -196 -176.5 -298t-333.5 -102z" />
    <glyph glyph-name="uni20B9" unicode="&#x20b9;" horiz-adv-x="1230" 
d="M760 0l-586 596l16 86h256q190 0 307 74.5t146 214.5h-690l39 96h659q0 125 -72.5 177t-250.5 52h-318l39 97h995l-38 -97h-349q104 -70 107 -229h223l-39 -96h-190q-28 -184 -176.5 -284.5t-395.5 -100.5h-96l574 -586h-160z" />
    <glyph glyph-name="uni2113" unicode="&#x2113;" horiz-adv-x="942" 
d="M434 -25q-149 0 -226 71t-77 208q0 57 8 106l140 787q65 373 395 373q133 0 197.5 -62t64.5 -192q0 -118 -52 -237t-146 -225t-211 -199t-259 -177l-14 -80q-8 -41 -8 -80q0 -188 205 -188q138 0 276 96l37 -98q-156 -103 -330 -103zM291 561q154 94 270 201t189 236.5
t73 256.5q0 80 -34 120t-123 40q-112 0 -180.5 -67t-94.5 -211z" />
    <glyph glyph-name="uni2116" unicode="&#x2116;" horiz-adv-x="2222" 
d="M1255 1393h113l-244 -1393h-112l-570 1235l-217 -1235h-114l245 1393h136l552 -1200zM1737 272q-135 0 -207 60.5t-72 179.5q0 45 8 84l25 133q59 315 364 315q135 0 208 -60.5t73 -178.5q0 -45 -8 -84l-25 -133q-58 -316 -366 -316zM1739 360q110 0 177 60t87 176
l22 129q7 44 7 72q0 82 -44.5 119.5t-134.5 37.5q-221 0 -262 -233l-22 -129q-8 -50 -8 -72q0 -160 178 -160zM1368 0l16 90h625l-16 -90h-625z" />
    <glyph glyph-name="uni2117" unicode="&#x2117;" horiz-adv-x="1595" 
d="M827 -25q-205 0 -370 93t-258 258t-93 370t93 370t258 258t370 93t370 -93t258 -258t93 -370t-93 -370t-258 -258t-370 -93zM825 70q276 0 447.5 174.5t171.5 451.5q0 278 -171.5 452.5t-447.5 174.5q-274 0 -445 -174.5t-171 -452.5q0 -277 170.5 -451.5t445.5 -174.5z
M594 328v737h295q137 0 199.5 -54.5t62.5 -172.5q0 -120 -62.5 -175t-199.5 -55h-189v-280h-106zM700 700h181q88 0 127 32.5t39 105.5q0 72 -39 104.5t-127 32.5h-181v-275z" />
    <glyph glyph-name="uni2120" unicode="&#x2120;" horiz-adv-x="1409" 
d="M319 723q-102 0 -157.5 39t-55.5 112q0 9 5 44h96q-4 -20 -4 -31q0 -84 116 -84q79 0 124.5 33.5t45.5 93.5q0 40 -28 59.5t-111 38.5q-100 22 -140 57.5t-40 102.5q0 101 69 161t189 60q95 0 147 -38t52 -107q0 -17 -4 -45h-95q2 10 2 28q0 82 -106 82q-74 0 -117 -34
t-43 -89q0 -41 28 -61t111 -37q101 -20 142 -57t41 -105q0 -106 -70.5 -164.5t-196.5 -58.5zM694 739l115 654h135l105 -521l288 521h144l-115 -654h-96l94 535l-299 -535h-74l-110 537l-97 -537h-90z" />
    <glyph glyph-name="trademark" unicode="&#x2122;" horiz-adv-x="1357" 
d="M231 739l101 570h-193l15 84h481l-14 -84h-193l-100 -570h-97zM641 739l115 654h135l104 -521l289 521h146l-115 -654h-96l94 541l-301 -541h-74l-111 537l-96 -537h-90z" />
    <glyph glyph-name="uni2126" unicode="&#x2126;" horiz-adv-x="1337" 
d="M55 0l19 109h198q-68 46 -104.5 128.5t-36.5 190.5q0 63 10 119l60 332q98 538 618 538q226 0 339.5 -102.5t113.5 -296.5q0 -68 -12 -148l-58 -331q-26 -149 -99 -260.5t-177 -169.5h190l-18 -109h-418l16 96q152 29 254 145t133 291l60 340q12 70 12 136
q0 152 -84.5 226.5t-257.5 74.5q-419 0 -498 -443l-59 -340q-10 -54 -10 -112q0 -270 243 -318l-16 -96h-418z" />
    <glyph glyph-name="estimated" unicode="&#x212e;" horiz-adv-x="1646" 
d="M870 -25q-207 0 -381.5 96.5t-276 262.5t-101.5 362q0 195 101.5 361t276.5 263t381 97t381.5 -97t277 -263t101.5 -361v-18h-1231q-10 0 -10 -10v-392q0 -20 19 -43q87 -102 208 -158.5t258 -56.5q142 0 270.5 64.5t219.5 175.5h111q-106 -131 -265 -207t-340 -76z
M399 719h944q13 0 13 12v395q0 24 -21 45q-92 96 -211.5 149.5t-249.5 53.5q-136 0 -255.5 -55.5t-210.5 -155.5q-19 -23 -19 -45v-389q0 -10 10 -10z" />
    <glyph glyph-name="uni2153" unicode="&#x2153;" horiz-adv-x="1708" 
d="M324 -25l1011 1442h109l-1012 -1442h-108zM193 586l16 90h192l105 588q-105 -51 -230 -54l15 80q132 8 241 103h97l-127 -717h194l-14 -90h-489zM1245 -25q-126 0 -193 48t-67 133q0 25 4 49l4 22h97l-3 -12q-2 -12 -2 -33q0 -116 162 -116q110 0 171 50.5t61 135.5
q0 62 -37 89.5t-129 27.5h-99l15 90h94q93 0 148 47.5t55 122.5q0 112 -146 112q-89 0 -145 -37.5t-68 -107.5l-2 -10h-96l2 16q20 112 102.5 170.5t212.5 58.5q240 0 240 -196q0 -81 -42.5 -136t-117.5 -79v-2q113 -39 113 -170q0 -127 -90.5 -200t-243.5 -73z" />
    <glyph glyph-name="uni2154" unicode="&#x2154;" horiz-adv-x="1708" 
d="M473 891q-123 -52 -177 -98.5t-73 -114.5h463l-16 -92h-566l11 63q19 113 94 189.5t233 142.5q125 53 181.5 107.5t56.5 123.5q0 115 -148 115q-90 0 -145.5 -43t-69.5 -123l-2 -12h-98l6 31q49 237 316 237q239 0 239 -198q0 -104 -72 -181.5t-233 -146.5zM324 -25
l1011 1442h109l-1012 -1442h-108zM1245 -25q-126 0 -193 48t-67 133q0 25 4 49l4 22h97l-3 -12q-2 -12 -2 -33q0 -116 162 -116q110 0 171 50.5t61 135.5q0 62 -37 89.5t-129 27.5h-99l15 90h94q93 0 148 47.5t55 122.5q0 112 -146 112q-89 0 -145 -37.5t-68 -107.5l-2 -10
h-96l2 16q20 112 102.5 170.5t212.5 58.5q240 0 240 -196q0 -81 -42.5 -136t-117.5 -79v-2q113 -39 113 -170q0 -127 -90.5 -200t-243.5 -73z" />
    <glyph glyph-name="uni2155" unicode="&#x2155;" horiz-adv-x="1708" 
d="M324 -25l1011 1442h109l-1012 -1442h-108zM193 586l16 90h192l105 588q-105 -51 -230 -54l15 80q132 8 241 103h97l-127 -717h194l-14 -90h-489zM1237 -25q-119 0 -186.5 50t-67.5 137q0 21 2 33h96q-2 -10 -2 -21q0 -52 43 -80t119 -28q115 0 181.5 63.5t66.5 161.5
q0 139 -154 139q-122 0 -209 -65h-79l102 442h491l-16 -92h-407l-58 -248q86 53 199 53q229 0 229 -221q0 -145 -94 -234.5t-256 -89.5z" />
    <glyph glyph-name="uni2156" unicode="&#x2156;" horiz-adv-x="1708" 
d="M473 891q-123 -52 -177 -98.5t-73 -114.5h463l-16 -92h-566l11 63q19 113 94 189.5t233 142.5q125 53 181.5 107.5t56.5 123.5q0 115 -148 115q-90 0 -145.5 -43t-69.5 -123l-2 -12h-98l6 31q49 237 316 237q239 0 239 -198q0 -104 -72 -181.5t-233 -146.5zM324 -25
l1011 1442h109l-1012 -1442h-108zM1237 -25q-119 0 -186.5 50t-67.5 137q0 21 2 33h96q-2 -10 -2 -21q0 -52 43 -80t119 -28q115 0 181.5 63.5t66.5 161.5q0 139 -154 139q-122 0 -209 -65h-79l102 442h491l-16 -92h-407l-58 -248q86 53 199 53q229 0 229 -221
q0 -145 -94 -234.5t-256 -89.5z" />
    <glyph glyph-name="uni2157" unicode="&#x2157;" horiz-adv-x="1708" 
d="M389 561q-126 0 -193 48t-67 132q0 26 4 50l4 22h96l-2 -12q-2 -12 -2 -33q0 -117 162 -117q110 0 171 51t61 136q0 61 -37 88.5t-129 27.5h-99l15 90h94q93 0 148 47.5t55 122.5q0 113 -146 113q-89 0 -145 -37.5t-68 -107.5l-2 -11h-96l2 17q20 112 102.5 170.5
t212.5 58.5q240 0 240 -196q0 -81 -42.5 -136t-117.5 -79v-2q113 -39 113 -170q0 -127 -90.5 -200t-243.5 -73zM324 -25l1011 1442h109l-1012 -1442h-108zM1237 -25q-119 0 -186.5 50t-67.5 137q0 21 2 33h96q-2 -10 -2 -21q0 -52 43 -80t119 -28q115 0 181.5 63.5
t66.5 161.5q0 139 -154 139q-122 0 -209 -65h-79l102 442h491l-16 -92h-407l-58 -248q86 53 199 53q229 0 229 -221q0 -145 -94 -234.5t-256 -89.5z" />
    <glyph glyph-name="uni2158" unicode="&#x2158;" horiz-adv-x="1708" 
d="M324 -25l1011 1442h109l-1012 -1442h-108zM512 586l33 180h-443l17 94l528 533h109l-97 -537h105l-16 -90h-103l-33 -180h-100zM233 856h326l74 408zM1237 -25q-119 0 -186.5 50t-67.5 137q0 21 2 33h96q-2 -10 -2 -21q0 -52 43 -80t119 -28q115 0 181.5 63.5t66.5 161.5
q0 139 -154 139q-122 0 -209 -65h-79l102 442h491l-16 -92h-407l-58 -248q86 53 199 53q229 0 229 -221q0 -145 -94 -234.5t-256 -89.5z" />
    <glyph glyph-name="uni2159" unicode="&#x2159;" horiz-adv-x="1708" 
d="M324 -25l1011 1442h109l-1012 -1442h-108zM193 586l16 90h192l105 588q-105 -51 -230 -54l15 80q132 8 241 103h97l-127 -717h194l-14 -90h-489zM1251 -25q-122 0 -187 55t-65 158q0 26 7 66l53 301q24 138 110 207t224 69q120 0 182.5 -48t62.5 -132q0 -25 -2 -35h-96
q2 8 2 21q0 104 -149 104q-99 0 -160 -51t-76 -145l-22 -131q93 96 237 96q217 0 217 -215q0 -143 -90 -231.5t-248 -88.5zM1260 66q108 0 168.5 64.5t60.5 160.5q0 67 -33.5 98t-105.5 31q-153 0 -238 -133l-6 -33q-6 -27 -6 -53q0 -65 42 -100t118 -35z" />
    <glyph glyph-name="uni215A" unicode="&#x215a;" horiz-adv-x="1708" 
d="M324 -25l1011 1442h109l-1012 -1442h-108zM383 561q-119 0 -186.5 50t-67.5 137q0 20 2 32h96q-2 -10 -2 -20q0 -52 43 -80.5t119 -28.5q115 0 181.5 64t66.5 162q0 139 -154 139q-120 0 -209 -66h-79l102 443h491l-16 -93h-408l-57 -247q86 53 199 53q229 0 229 -221
q0 -145 -94 -234.5t-256 -89.5zM1251 -25q-122 0 -187 55t-65 158q0 26 7 66l53 301q24 138 110 207t224 69q120 0 182.5 -48t62.5 -132q0 -25 -2 -35h-96q2 8 2 21q0 104 -149 104q-99 0 -160 -51t-76 -145l-22 -131q93 96 237 96q217 0 217 -215q0 -143 -90 -231.5
t-248 -88.5zM1260 66q108 0 168.5 64.5t60.5 160.5q0 67 -33.5 98t-105.5 31q-153 0 -238 -133l-6 -33q-6 -27 -6 -53q0 -65 42 -100t118 -35z" />
    <glyph glyph-name="oneeighth" unicode="&#x215b;" horiz-adv-x="1708" 
d="M324 -25l1011 1442h109l-1012 -1442h-108zM193 586l16 90h192l105 588q-105 -51 -230 -54l15 80q132 8 241 103h97l-127 -717h194l-14 -90h-489zM1237 -25q-272 0 -272 203q0 91 51 153t141 89v2q-96 39 -96 156t87.5 185t237.5 68q119 0 183.5 -48.5t64.5 -147.5
q0 -159 -159 -213v-4q116 -44 116 -176q0 -128 -95.5 -197.5t-258.5 -69.5zM1315 459q103 0 162 46t59 122q0 116 -152 116q-105 0 -166 -47.5t-61 -124.5q0 -57 38.5 -84.5t119.5 -27.5zM1241 63q118 0 185 49t67 134q0 64 -42 94.5t-132 30.5q-116 0 -184 -49.5
t-68 -135.5q0 -123 174 -123z" />
    <glyph glyph-name="threeeighths" unicode="&#x215c;" horiz-adv-x="1708" 
d="M389 561q-126 0 -193 48t-67 132q0 26 4 50l4 22h96l-2 -12q-2 -12 -2 -33q0 -117 162 -117q110 0 171 51t61 136q0 61 -37 88.5t-129 27.5h-99l15 90h94q93 0 148 47.5t55 122.5q0 113 -146 113q-89 0 -145 -37.5t-68 -107.5l-2 -11h-96l2 17q20 112 102.5 170.5
t212.5 58.5q240 0 240 -196q0 -81 -42.5 -136t-117.5 -79v-2q113 -39 113 -170q0 -127 -90.5 -200t-243.5 -73zM324 -25l1011 1442h109l-1012 -1442h-108zM1237 -25q-272 0 -272 203q0 91 51 153t141 89v2q-96 39 -96 156t87.5 185t237.5 68q119 0 183.5 -48.5t64.5 -147.5
q0 -159 -159 -213v-4q116 -44 116 -176q0 -128 -95.5 -197.5t-258.5 -69.5zM1315 459q103 0 162 46t59 122q0 116 -152 116q-105 0 -166 -47.5t-61 -124.5q0 -57 38.5 -84.5t119.5 -27.5zM1241 63q118 0 185 49t67 134q0 64 -42 94.5t-132 30.5q-116 0 -184 -49.5
t-68 -135.5q0 -123 174 -123z" />
    <glyph glyph-name="fiveeighths" unicode="&#x215d;" horiz-adv-x="1708" 
d="M324 -25l1011 1442h109l-1012 -1442h-108zM383 561q-119 0 -186.5 50t-67.5 137q0 20 2 32h96q-2 -10 -2 -20q0 -52 43 -80.5t119 -28.5q115 0 181.5 64t66.5 162q0 139 -154 139q-120 0 -209 -66h-79l102 443h491l-16 -93h-408l-57 -247q86 53 199 53q229 0 229 -221
q0 -145 -94 -234.5t-256 -89.5zM1237 -25q-272 0 -272 203q0 91 51 153t141 89v2q-96 39 -96 156t87.5 185t237.5 68q119 0 183.5 -48.5t64.5 -147.5q0 -159 -159 -213v-4q116 -44 116 -176q0 -128 -95.5 -197.5t-258.5 -69.5zM1315 459q103 0 162 46t59 122q0 116 -152 116
q-105 0 -166 -47.5t-61 -124.5q0 -57 38.5 -84.5t119.5 -27.5zM1241 63q118 0 185 49t67 134q0 64 -42 94.5t-132 30.5q-116 0 -184 -49.5t-68 -135.5q0 -123 174 -123z" />
    <glyph glyph-name="seveneighths" unicode="&#x215e;" horiz-adv-x="1708" 
d="M256 -25l1012 1442h108l-1011 -1442h-109zM229 586q90 416 463 714h-483l16 93h602l-18 -99q-385 -301 -473 -708h-107zM1237 -25q-272 0 -272 203q0 91 51 153t141 89v2q-96 39 -96 156t87.5 185t237.5 68q119 0 183.5 -48.5t64.5 -147.5q0 -159 -159 -213v-4
q116 -44 116 -176q0 -128 -95.5 -197.5t-258.5 -69.5zM1315 459q103 0 162 46t59 122q0 116 -152 116q-105 0 -166 -47.5t-61 -124.5q0 -57 38.5 -84.5t119.5 -27.5zM1241 63q118 0 185 49t67 134q0 64 -42 94.5t-132 30.5q-116 0 -184 -49.5t-68 -135.5q0 -123 174 -123z
" />
    <glyph glyph-name="arrowleft" unicode="&#x2190;" horiz-adv-x="1638" 
d="M774 61l-633 635l633 635l70 -67l-516 -514h1228v-107h-1228l516 -514z" />
    <glyph glyph-name="arrowup" unicode="&#x2191;" horiz-adv-x="1638" 
d="M799 0v1231l-518 -522l-68 67l639 641l2 -2v2l639 -641l-68 -67l-518 522v-1231h-108z" />
    <glyph glyph-name="arrowright" unicode="&#x2192;" horiz-adv-x="1638" 
d="M924 66l-68 67l514 514h-1227v107h1227l-514 514l68 67l635 -635z" />
    <glyph glyph-name="arrowdown" unicode="&#x2193;" horiz-adv-x="1638" 
d="M846 -25l-639 641l67 68l519 -522v1231h108v-1231l518 522l68 -68l-639 -641v2z" />
    <glyph glyph-name="arrowboth" unicode="&#x2194;" horiz-adv-x="2048" 
d="M733 102l-592 594l592 594l70 -67l-475 -473h1452l-473 473l67 67l594 -594l-594 -594l-67 68l473 473h-1452l475 -473z" />
    <glyph glyph-name="arrowupdn" unicode="&#x2195;" horiz-adv-x="1638" 
d="M850 -172l-596 596l68 68l473 -478v1364l-473 -477l-68 68l596 596l594 -596l-68 -68l-473 477v-1364l473 478l68 -68z" />
    <glyph glyph-name="uni2196" unicode="&#x2196;" horiz-adv-x="1638" 
d="M1376 102l-975 973l5 -706h-101v876h877v-94l-709 2l977 -977z" />
    <glyph glyph-name="uni2197" unicode="&#x2197;" horiz-adv-x="1638" 
d="M317 102l-73 74l977 977l-711 -2v94h876v-876h-100l2 702z" />
    <glyph glyph-name="uni2198" unicode="&#x2198;" horiz-adv-x="1638" 
d="M518 147v95l711 -2l-977 977l74 73l970 -968l-2 702h101v-877h-877z" />
    <glyph glyph-name="uni2199" unicode="&#x2199;" horiz-adv-x="1638" 
d="M313 147v877h101l-4 -707l974 973l74 -73l-977 -977l709 2v-95h-877z" />
    <glyph glyph-name="partialdiff" unicode="&#x2202;" horiz-adv-x="1234" 
d="M434 -25q-174 0 -269 95.5t-95 269.5q0 157 73.5 296.5t208 226.5t297.5 87q141 0 237.5 -65t135.5 -183q41 169 41 334q0 97 -15 164.5t-51.5 118.5t-100.5 75.5t-159 24.5q-179 0 -317 -96l20 117q131 80 320 80q121 0 203.5 -31.5t129.5 -94.5t67 -146.5t20 -200.5
q0 -151 -30.5 -302t-93 -289.5t-149.5 -245.5t-209.5 -171t-263.5 -64zM449 76q92 0 174 36t146.5 100.5t115 146.5t88.5 182q-12 143 -99.5 225t-226.5 82q-131 0 -239 -74t-166 -188.5t-58 -239.5q0 -131 68.5 -200.5t196.5 -69.5z" />
    <glyph glyph-name="emptyset" unicode="&#x2205;" horiz-adv-x="1730" 
d="M244 -25l-70 70l172 172q-172 197 -172 479q0 204 93 369t258 258.5t370 93.5q283 0 477 -172l172 172l70 -69l-172 -172q172 -197 172 -480q0 -204 -93 -369t-257.5 -258.5t-368.5 -93.5q-282 0 -479 172zM420 291l880 883q-168 143 -405 143q-131 0 -245 -47t-195 -129
t-127.5 -197.5t-46.5 -247.5q0 -238 139 -405zM895 76q176 0 316.5 80t219 221.5t78.5 318.5q0 241 -139 408l-883 -883q167 -145 408 -145z" />
    <glyph glyph-name="uni2206" unicode="&#x2206;" horiz-adv-x="1214" 
d="M-68 0l766 1393h123l277 -1393h-1166zM117 109h839l-223 1124z" />
    <glyph glyph-name="product" unicode="&#x220f;" horiz-adv-x="1607" 
d="M55 -375l344 1954h1180l-344 -1954h-113l326 1852h-954l-326 -1852h-113z" />
    <glyph glyph-name="summation" unicode="&#x2211;" horiz-adv-x="1239" 
d="M-111 -375l19 109l837 868l-532 868l18 109h1147l-18 -102h-1020l545 -885l-836 -864h1006l-19 -103h-1147z" />
    <glyph glyph-name="minus" unicode="&#x2212;" horiz-adv-x="1230" 
d="M127 580l18 102h998l-19 -102h-997z" />
    <glyph glyph-name="uni2215" unicode="&#x2215;" horiz-adv-x="798" 
d="M-84 -25l907 1442h123l-907 -1442h-123z" />
    <glyph glyph-name="uni2219" unicode="&#x2219;" horiz-adv-x="524" 
d="M197 539l32 182h142l-33 -182h-141z" />
    <glyph glyph-name="radical" unicode="&#x221a;" horiz-adv-x="1230" 
d="M367 -375l-117 725h-164l18 101h230l112 -660l877 1788h113l-961 -1954h-108z" />
    <glyph glyph-name="infinity" unicode="&#x221e;" horiz-adv-x="1904" 
d="M471 221q-160 0 -248 92.5t-88 253.5q0 136 60 253.5t171 190t248 72.5q66 0 120.5 -18t92 -46.5t70 -73.5t53 -88t41.5 -101q121 173 236.5 250t253.5 77q161 0 247.5 -91.5t86.5 -252.5q0 -137 -59.5 -255t-170.5 -190.5t-248 -72.5q-66 0 -120.5 18.5t-92 46.5
t-69.5 73.5t-52.5 87.5t-41.5 100q-122 -170 -238.5 -248t-251.5 -78zM487 319q120 0 218 75t217 257q-18 52 -31.5 85t-34.5 76.5t-43.5 70t-52.5 52t-68 37t-84 11.5q-104 0 -190 -61t-132 -155.5t-46 -197.5q0 -118 63 -184t184 -66zM1343 322q105 0 190.5 60.5t131 155
t45.5 197.5q0 118 -64 183t-184 65t-218.5 -75t-215.5 -255q16 -44 27 -73t29 -67.5t34 -63t40 -51t50 -41.5t60.5 -25t74.5 -10z" />
    <glyph glyph-name="integral" unicode="&#x222b;" horiz-adv-x="608" 
d="M-59 -397q-66 0 -125 22l16 103q46 -25 102 -25q89 0 142 59.5t76 190.5l231 1321q30 176 106.5 255t206.5 79q54 0 127 -21l-18 -104q-47 24 -100 24q-91 0 -143 -58.5t-75 -188.5l-233 -1321q-31 -174 -106 -255t-207 -81z" />
    <glyph glyph-name="approxequal" unicode="&#x2248;" horiz-adv-x="1230" 
d="M877 688q-69 0 -122 24.5t-116 84.5q-54 53 -93.5 72.5t-90.5 19.5q-78 0 -133 -47.5t-80 -136.5h-92q32 138 113 211t202 73q70 0 122.5 -24.5t114.5 -83.5q54 -53 94 -73t91 -20q79 0 133.5 47.5t79.5 137.5h92q-31 -138 -112 -211.5t-203 -73.5zM797 233
q-69 0 -122 24.5t-116 84.5q-54 53 -93.5 72.5t-90.5 19.5q-78 0 -133 -47.5t-80 -136.5h-92q32 138 113 211.5t202 73.5q69 0 122 -24.5t116 -84.5q54 -53 93.5 -72.5t90.5 -19.5q79 0 133.5 47t79.5 137h92q-31 -138 -112 -211.5t-203 -73.5z" />
    <glyph glyph-name="notequal" unicode="&#x2260;" horiz-adv-x="1230" 
d="M1202 1210l-264 -301h244l-19 -102h-313l-309 -352h563l-19 -103h-632l-263 -299h-124l262 299h-240l18 103h312l307 352h-559l18 102h631l264 301h123z" />
    <glyph glyph-name="lessequal" unicode="&#x2264;" horiz-adv-x="1230" 
d="M1227 1163l-23 -116l-911 -353l786 -354l-16 -102l-924 413l17 97zM25 0l18 102h997l-18 -102h-997z" />
    <glyph glyph-name="greaterequal" unicode="&#x2265;" horiz-adv-x="1230" 
d="M66 238l20 114l915 355l-790 354l18 102l924 -413l-16 -97zM25 0l18 102h997l-18 -102h-997z" />
    <glyph glyph-name="lozenge" unicode="&#x25ca;" horiz-adv-x="1230" 
d="M514 -66l-416 762l680 762l416 -762zM537 106l536 603l-317 577l-535 -602z" />
    <glyph glyph-name="uniF8FF" unicode="&#xf8ff;" horiz-adv-x="1329" 
d="M567 102q-207 0 -334 125.5t-127 333.5q0 207 132 334t380 127h103v238h321v-238h271v-305h-271v-105q0 -237 -130 -373.5t-345 -136.5zM573 420q69 0 108.5 46.5t39.5 141.5v109h-100q-92 0 -137.5 -42t-45.5 -114q0 -66 35.5 -103.5t99.5 -37.5z" />
    <glyph glyph-name="Iacute_J.loclNLD" horiz-adv-x="1646" 
d="M324 1544l266 260h153l-294 -260h-125zM1483 1544l266 260h154l-295 -260h-125zM111 0l245 1393h117l-246 -1393h-116zM924 -25q-202 0 -297 82t-95 258q0 63 11 121l4 23h112l-2 -23q0 -5 -6 -51t-6 -68q0 -123 67.5 -178t215.5 -55q191 0 291 91.5t137 299.5l162 918
h116l-164 -936q-43 -248 -173.5 -365t-372.5 -117z" />
    <glyph glyph-name="iacute_j.loclNLD" horiz-adv-x="966" 
d="M246 1223l266 260h154l-295 -260h-125zM729 1223l266 260h154l-295 -260h-125zM92 0l184 1049h115l-184 -1049h-115zM317 -373l19 101h43q86 0 123.5 38t56.5 140l201 1143h114l-202 -1147q-26 -148 -92 -211.5t-193 -63.5h-70z" />
    <glyph glyph-name="i.loclTRK" horiz-adv-x="483" 
d="M309 1266l29 170h129l-29 -170h-129zM92 0l184 1049h115l-184 -1049h-115z" />
    <glyph glyph-name="germandbls.calt" horiz-adv-x="1280" 
d="M74 0l172 977q38 215 167 315.5t365 100.5h490l-19 -99l-471 -508q231 -1 328.5 -75t97.5 -248q0 -222 -136 -342.5t-388 -120.5h-246l19 109h227q196 0 300.5 89t104.5 255q0 127 -75 177t-267 50h-137l17 92l473 512h-320q-188 0 -286.5 -74.5t-127.5 -238.5l-172 -971
h-116z" />
    <glyph glyph-name="zero.pf" horiz-adv-x="1298" 
d="M559 -25q-198 0 -301.5 88.5t-103.5 258.5q0 64 10 120l92 519q40 225 177.5 340.5t365.5 115.5q198 0 301.5 -88t103.5 -258q0 -65 -10 -121l-90 -518q-40 -225 -178.5 -341t-366.5 -116zM563 80q362 0 428 371l88 499q8 41 8 105q0 258 -294 258q-360 0 -426 -371
l-88 -500q-11 -56 -11 -104q0 -258 295 -258z" />
    <glyph glyph-name="one.pf" horiz-adv-x="854" 
d="M420 0l219 1237q-167 -105 -416 -121l17 101q246 15 428 176h112l-245 -1393h-115z" />
    <glyph glyph-name="two.pf" horiz-adv-x="1171" 
d="M31 0l14 84q32 189 157 314t400 245q236 103 338 205t102 235q0 230 -290 230q-174 0 -279.5 -82t-134.5 -238l-4 -22h-111l8 45q34 191 171.5 296t359.5 105q194 0 293.5 -82t99.5 -243q0 -173 -120.5 -301t-395.5 -246q-235 -101 -341 -198.5t-134 -237.5h821l-18 -109
h-936z" />
    <glyph glyph-name="three.pf" horiz-adv-x="1222" 
d="M520 -25q-205 0 -313.5 81.5t-108.5 224.5q0 26 8 84l7 34h110l-4 -28q-6 -37 -6 -68q0 -112 80.5 -167.5t232.5 -55.5q202 0 318.5 94.5t116.5 257.5q0 121 -72.5 176.5t-237.5 55.5h-164l17 104h164q169 0 271.5 89t102.5 230q0 226 -282 226q-172 0 -278 -79.5
t-130 -217.5l-2 -12h-110l4 24q29 181 167.5 285t358.5 104q187 0 286 -80t99 -239q0 -138 -75 -235.5t-206 -137.5v-4q201 -59 201 -287q0 -211 -151 -335t-404 -124z" />
    <glyph glyph-name="four.pf" horiz-adv-x="1208" 
d="M758 0l59 332h-766l19 112l915 949h133l-168 -957h178l-18 -104h-178l-60 -332h-114zM205 436h629l141 797z" />
    <glyph glyph-name="five.pf" horiz-adv-x="1185" 
d="M496 -25q-195 0 -306.5 82.5t-111.5 221.5q0 25 4 61h113q-5 -35 -5 -45q0 -102 82 -158.5t226 -56.5q216 0 342.5 122.5t126.5 313.5q0 283 -305 283q-203 0 -373 -129h-101l172 723h816l-21 -109h-713l-114 -487q153 106 360 106q393 0 393 -375q0 -243 -159 -398
t-426 -155z" />
    <glyph glyph-name="six.pf" horiz-adv-x="1286" 
d="M573 -25q-198 0 -303.5 90t-105.5 263q0 58 10 114l90 514q39 227 182.5 344t372.5 117q189 0 291 -79.5t102 -221.5q0 -35 -4 -51h-110q2 10 2 33q0 215 -283 215q-374 0 -442 -379l-43 -244q170 187 430 187q180 0 274 -85.5t94 -246.5q0 -258 -149.5 -414t-407.5 -156
zM578 80q206 0 322 123.5t116 326.5q0 118 -69.5 180t-207.5 62q-280 0 -438 -260l-12 -68q-10 -58 -10 -102q0 -262 299 -262z" />
    <glyph glyph-name="seven.pf" horiz-adv-x="1097" 
d="M211 0q158 735 821 1282h-848l19 111h989l-21 -117q-682 -556 -837 -1276h-123z" />
    <glyph glyph-name="eight.pf" horiz-adv-x="1267" 
d="M532 -25q-440 0 -440 336q0 156 93 264t255 150v4q-186 58 -186 260q0 190 150 309t389 119q193 0 297 -82t104 -241q0 -138 -78 -233t-217 -134v-4q219 -65 219 -299q0 -208 -159 -328.5t-427 -120.5zM664 770q194 0 306.5 86t112.5 229q0 228 -295 228
q-192 0 -306.5 -90.5t-114.5 -231.5q0 -221 297 -221zM539 80q215 0 342 92t127 252q0 125 -83 184.5t-247 59.5q-216 0 -342.5 -91.5t-126.5 -252.5q0 -124 81 -184t249 -60z" />
    <glyph glyph-name="nine.pf" horiz-adv-x="1286" 
d="M526 -25q-189 0 -290 79.5t-101 221.5q0 36 2 52h111q-2 -10 -2 -33q0 -215 284 -215q375 0 443 379l43 243q-169 -186 -430 -186q-181 0 -275 85.5t-94 246.5q0 258 149 413.5t406 155.5q199 0 305.5 -89.5t106.5 -262.5q0 -59 -10 -115l-91 -514q-39 -227 -183 -344
t-374 -117zM608 621q284 0 441 264l10 63q10 58 10 103q0 262 -299 262q-206 0 -322 -124t-116 -327q0 -241 276 -241z" />
    <glyph glyph-name="zero.numr" 
d="M389 561q-124 0 -188 55t-64 158q0 34 6 68l54 303q23 134 107 203t220 69q124 0 188 -55t64 -158q0 -32 -6 -67l-53 -303q-23 -134 -107.5 -203.5t-220.5 -69.5zM391 651q190 0 225 195l52 291q6 27 6 55q0 135 -154 135q-190 0 -225 -194l-51 -291q-6 -27 -6 -56
q0 -135 153 -135z" />
    <glyph glyph-name="one.numr" 
d="M193 586l16 90h192l105 588q-105 -51 -230 -54l15 80q132 8 241 103h97l-127 -717h194l-14 -90h-489z" />
    <glyph glyph-name="two.numr" 
d="M473 891q-123 -52 -177 -98.5t-73 -114.5h463l-16 -92h-566l11 63q19 113 94 189.5t233 142.5q125 53 181.5 107.5t56.5 123.5q0 115 -148 115q-90 0 -145.5 -43t-69.5 -123l-2 -12h-98l6 31q49 237 316 237q239 0 239 -198q0 -104 -72 -181.5t-233 -146.5z" />
    <glyph glyph-name="three.numr" 
d="M389 561q-126 0 -193 48t-67 132q0 26 4 50l4 22h96l-2 -12q-2 -12 -2 -33q0 -117 162 -117q110 0 171 51t61 136q0 61 -37 88.5t-129 27.5h-99l15 90h94q93 0 148 47.5t55 122.5q0 113 -146 113q-89 0 -145 -37.5t-68 -107.5l-2 -11h-96l2 17q20 112 102.5 170.5
t212.5 58.5q240 0 240 -196q0 -81 -42.5 -136t-117.5 -79v-2q113 -39 113 -170q0 -127 -90.5 -200t-243.5 -73z" />
    <glyph glyph-name="four.numr" 
d="M512 586l33 180h-443l17 94l528 533h109l-97 -537h105l-16 -90h-103l-33 -180h-100zM233 856h326l74 408z" />
    <glyph glyph-name="five.numr" 
d="M383 561q-119 0 -186.5 50t-67.5 137q0 20 2 32h96q-2 -10 -2 -20q0 -52 43 -80.5t119 -28.5q115 0 181.5 64t66.5 162q0 139 -154 139q-120 0 -209 -66h-79l102 443h491l-16 -93h-408l-57 -247q86 53 199 53q229 0 229 -221q0 -145 -94 -234.5t-256 -89.5z" />
    <glyph glyph-name="six.numr" 
d="M395 561q-122 0 -187 55t-65 158q0 26 7 66l53 301q24 138 110 207t224 69q120 0 182.5 -48t62.5 -132q0 -25 -2 -35h-96q2 8 2 21q0 104 -149 104q-99 0 -160 -51.5t-76 -145.5l-22 -131q94 97 237 97q217 0 217 -215q0 -143 -90 -231.5t-248 -88.5zM403 651
q108 0 169 65t61 161q0 67 -33.5 98t-105.5 31q-152 0 -238 -134l-6 -32q-6 -27 -6 -54q0 -65 41.5 -100t117.5 -35z" />
    <glyph glyph-name="seven.numr" 
d="M229 586q90 416 463 714h-483l16 93h602l-18 -99q-385 -301 -473 -708h-107z" />
    <glyph glyph-name="eight.numr" 
d="M383 561q-272 0 -272 203q0 91 51 153t141 89v2q-96 39 -96 155q0 117 88 185.5t237 68.5q119 0 183.5 -48.5t64.5 -147.5q0 -159 -159 -213v-4q116 -44 116 -177q0 -128 -95.5 -197t-258.5 -69zM461 1044q103 0 162 46t59 122q0 117 -152 117q-105 0 -166 -47.5
t-61 -124.5q0 -113 158 -113zM387 649q118 0 185 48.5t67 133.5q0 64 -42 94.5t-132 30.5q-116 0 -184 -49t-68 -135q0 -123 174 -123z" />
    <glyph glyph-name="nine.numr" 
d="M375 561q-120 0 -183 48t-63 132q0 25 2 35h96q-2 -8 -2 -20q0 -105 150 -105q99 0 159.5 51.5t75.5 145.5l23 131q-93 -96 -238 -96q-217 0 -217 215q0 143 90 231t248 88q122 0 187 -55t65 -158q0 -30 -6 -65l-53 -301q-24 -138 -110 -207.5t-224 -69.5zM418 973
q152 0 237 133l7 33q6 27 6 53q0 65 -42 100t-118 35q-108 0 -168.5 -64.5t-60.5 -160.5q0 -67 33.5 -98t105.5 -31z" />
    <glyph glyph-name="zero.dnom" 
d="M287 -25q-124 0 -188 55t-64 158q0 34 6 68l53 303q23 134 107.5 203t220.5 69q124 0 188 -55t64 -158q0 -32 -6 -67l-54 -303q-23 -134 -107 -203.5t-220 -69.5zM289 66q190 0 225 194l51 291q6 27 6 55q0 135 -153 135q-190 0 -225 -194l-52 -291q-6 -27 -6 -55
q0 -135 154 -135z" />
    <glyph glyph-name="one.dnom" 
d="M90 0l16 90h193l104 588q-103 -50 -229 -53l14 80q134 8 242 102h96l-127 -717h195l-14 -90h-490z" />
    <glyph glyph-name="two.dnom" 
d="M369 305q-123 -52 -177 -98.5t-73 -114.5h463l-17 -92h-565l10 63q19 113 94.5 189.5t233.5 142.5q124 52 180.5 107.5t56.5 124.5q0 114 -147 114q-90 0 -145.5 -43t-69.5 -123l-2 -12h-98l6 31q49 237 315 237q240 0 240 -198q0 -104 -72 -181.5t-233 -146.5z" />
    <glyph glyph-name="three.dnom" 
d="M287 -25q-126 0 -193 48t-67 133q0 25 4 49l4 22h96l-2 -12q-2 -12 -2 -33q0 -116 162 -116q110 0 170.5 50.5t60.5 135.5q0 62 -37 89.5t-129 27.5h-98l14 90h95q93 0 147.5 47.5t54.5 122.5q0 112 -145 112q-89 0 -145 -37.5t-68 -107.5l-2 -10h-96l2 16
q20 112 102.5 170.5t212.5 58.5q240 0 240 -196q0 -81 -42.5 -136t-117.5 -79v-2q113 -39 113 -170q0 -127 -90.5 -200t-243.5 -73z" />
    <glyph glyph-name="four.dnom" 
d="M410 0l32 180h-442l16 94l529 533h108l-96 -537h105l-17 -90h-102l-33 -180h-100zM131 270h326l73 408z" />
    <glyph glyph-name="five.dnom" 
d="M279 -25q-119 0 -186.5 50t-67.5 137q0 21 2 33h96q-2 -10 -2 -21q0 -52 43 -80t119 -28q115 0 181 63.5t66 161.5q0 139 -153 139q-122 0 -209 -65h-80l102 442h492l-16 -92h-408l-57 -248q86 53 198 53q230 0 230 -221q0 -145 -94 -234.5t-256 -89.5z" />
    <glyph glyph-name="six.dnom" 
d="M293 -25q-122 0 -187 55t-65 158q0 32 6 66l53 301q24 138 110 207t224 69q120 0 183 -48t63 -132q0 -25 -2 -35h-96q2 8 2 21q0 104 -150 104q-99 0 -159.5 -51t-75.5 -145l-23 -131q93 96 238 96q217 0 217 -215q0 -143 -90 -231.5t-248 -88.5zM301 66
q108 0 168.5 64.5t60.5 160.5q0 67 -33.5 98t-105.5 31q-152 0 -237 -133l-7 -33q-6 -27 -6 -53q0 -65 42 -100t118 -35z" />
    <glyph glyph-name="seven.dnom" 
d="M127 0q91 417 463 715h-484l17 92h602l-18 -98q-386 -302 -474 -709h-106z" />
    <glyph glyph-name="eight.dnom" 
d="M279 -25q-273 0 -273 203q0 91 51.5 153t141.5 89v2q-97 40 -97 156q0 117 88 185t238 68q119 0 183.5 -48.5t64.5 -147.5q0 -80 -42 -134t-118 -79v-4q117 -45 117 -176q0 -128 -95.5 -197.5t-258.5 -69.5zM356 459q103 0 162.5 46t59.5 122q0 116 -152 116
q-105 0 -166 -47.5t-61 -124.5q0 -57 38 -84.5t119 -27.5zM283 63q118 0 185 49t67 134q0 63 -42.5 94t-132.5 31q-116 0 -183.5 -49.5t-67.5 -135.5q0 -123 174 -123z" />
    <glyph glyph-name="nine.dnom" 
d="M272 -25q-120 0 -182.5 48.5t-62.5 132.5q0 24 2 34h96q-2 -8 -2 -20q0 -104 149 -104q99 0 160 51t76 145l22 131q-93 -96 -237 -96q-217 0 -217 215q0 143 90 231t248 88q122 0 187 -55t65 -158q0 -25 -7 -65l-53 -301q-24 -138 -110 -207.5t-224 -69.5zM315 387
q153 0 238 133l6 33q6 27 6 53q0 65 -41.5 100t-117.5 35q-108 0 -169 -64.5t-61 -160.5q0 -67 33.5 -98t105.5 -31z" />
    <glyph glyph-name="exclamdown.case" horiz-adv-x="559" 
d="M330 1210l30 183h142l-33 -183h-139zM127 0l59 328l131 647h82l-98 -647l-55 -328h-119z" />
    <glyph glyph-name="questiondown.case" horiz-adv-x="866" 
d="M522 1210l31 183h141l-32 -183h-140zM348 -25q-161 0 -249.5 73.5t-88.5 205.5t58 220.5t196 168.5q109 64 159 126t69 155l10 51h98l-12 -62q-25 -122 -79 -196t-175 -146q-117 -69 -163 -137.5t-46 -171.5q0 -90 58.5 -137t172.5 -47q138 0 225.5 72.5t112.5 207.5h109
q-32 -185 -150 -284t-305 -99z" />
    <glyph glyph-name="at.case" horiz-adv-x="1556" 
d="M803 -37q-325 0 -511 173.5t-186 475.5q0 170 61 320.5t167.5 260t259.5 173.5t330 64q286 0 461.5 -157t175.5 -419q0 -96 -26 -188.5t-73.5 -168.5t-124 -122.5t-168.5 -46.5q-168 0 -180 145q-118 -145 -280 -145q-106 0 -163 55.5t-57 153.5q0 24 7 75l28 162
q50 277 297 277q169 0 240 -146l29 121h92l-82 -463q-4 -32 -4 -47q0 -90 90 -90q65 0 118 40.5t84 104.5t47.5 138t16.5 147q0 219 -143 346t-383 127q-156 0 -289 -56.5t-224 -153t-142.5 -227.5t-51.5 -278q0 -259 154 -405t426 -146q238 0 403 109l43 -98
q-181 -111 -442 -111zM731 426q144 0 262 166l35 203q-51 159 -192 159q-166 0 -201 -196l-25 -142q-6 -27 -6 -63q0 -127 127 -127z" />
    <glyph glyph-name="parenleft.case" horiz-adv-x="669" 
d="M498 -197q-163 68 -251.5 230t-88.5 416q0 177 43 354.5t122.5 334t206.5 277.5t283 174l-16 -98q-127 -57 -231 -176t-168.5 -267t-99 -308.5t-34.5 -313.5q0 -401 250 -532z" />
    <glyph glyph-name="parenright.case" horiz-adv-x="669" 
d="M-84 -197l16 99q127 57 231 176t168.5 267t99 308.5t34.5 313.5q0 401 -250 532l16 90q164 -68 252 -229.5t88 -415.5q0 -177 -43 -354.5t-122.5 -334.5t-206.5 -278t-283 -174z" />
    <glyph glyph-name="braceleft.case" horiz-adv-x="669" 
d="M412 -172q-121 0 -180.5 54.5t-59.5 168.5q0 38 10 103l60 340q6 34 6 59q0 56 -34.5 77t-119.5 21l17 90q97 0 141 35.5t61 126.5l62 340q31 171 110 246.5t226 75.5h98l-14 -90h-76q-97 0 -156.5 -54.5t-81.5 -181.5l-57 -328q-17 -100 -55 -151t-105 -64v-2
q90 -30 90 -143q0 -29 -6 -72l-59 -334q-8 -47 -8 -82q0 -77 36.5 -111t120.5 -34h82l-16 -90h-92z" />
    <glyph glyph-name="braceright.case" horiz-adv-x="669" 
d="M-80 -172l17 90h73q98 0 157 54.5t81 181.5l57 327q17 99 55.5 150t104.5 65v2q-90 30 -90 144q0 13 8 71l57 334q9 53 9 82q0 77 -37 111.5t-121 34.5h-82l18 90h90q122 0 182 -54.5t60 -169.5q0 -37 -10 -102l-62 -340q-6 -35 -6 -59q0 -56 34.5 -77.5t119.5 -21.5
l-14 -90q-98 0 -144 -36t-61 -126l-60 -339q-31 -171 -111 -246.5t-227 -75.5h-98z" />
    <glyph glyph-name="bracketleft.case" horiz-adv-x="669" 
d="M80 -172l307 1737h422l-14 -90h-316l-272 -1557h313l-16 -90h-424z" />
    <glyph glyph-name="bracketright.case" horiz-adv-x="669" 
d="M-80 -172l17 90h315l274 1557h-317l16 90h426l-305 -1737h-426z" />
    <glyph glyph-name="bar.case" horiz-adv-x="571" 
d="M82 -328l362 2048h105l-361 -2048h-106z" />
    <glyph glyph-name="brokenbar.case" horiz-adv-x="571" 
d="M299 901l145 819h105l-143 -819h-107zM82 -328l145 820h105l-144 -820h-106z" />
    <glyph glyph-name="periodcentered.case" horiz-adv-x="524" 
d="M209 604l33 182h141l-33 -182h-141z" />
    <glyph glyph-name="bullet.case" horiz-adv-x="1024" 
d="M315 498l70 397h387l-70 -397h-387z" />
    <glyph glyph-name="hyphen.case" horiz-adv-x="741" 
d="M92 641l19 111h600l-19 -111h-600z" />
    <glyph glyph-name="uni00AD.case" horiz-adv-x="741" 
d="M92 641l19 111h600l-19 -111h-600z" />
    <glyph glyph-name="figuredash.case" horiz-adv-x="1230" 
d="M84 647l16 98h1108l-16 -98h-1108z" />
    <glyph glyph-name="endash.case" horiz-adv-x="1024" 
d="M84 647l16 98h901l-16 -98h-901z" />
    <glyph glyph-name="emdash.case" horiz-adv-x="1843" 
d="M84 647l16 98h1721l-17 -98h-1720z" />
    <glyph glyph-name="guillemotleft.case" horiz-adv-x="929" 
d="M324 340l-238 358l356 355h138l-367 -365l229 -348h-118zM723 340l-238 358l357 355h137l-367 -365l230 -348h-119z" />
    <glyph glyph-name="guillemotright.case" horiz-adv-x="929" 
d="M8 340l369 365l-230 348h119l238 -361l-357 -352h-139zM408 340l368 365l-229 348h119l237 -361l-356 -352h-139z" />
    <glyph glyph-name="guilsinglleft.case" horiz-adv-x="530" 
d="M324 340l-238 358l356 355h138l-367 -365l229 -348h-118z" />
    <glyph glyph-name="guilsinglright.case" horiz-adv-x="530" 
d="M8 340l369 365l-230 348h119l238 -361l-357 -352h-139z" />
    <glyph glyph-name="caron.alt" horiz-adv-x="262" 
d="M141 1096l154 399h129l-193 -399h-90z" />
    <glyph glyph-name="ringacute" horiz-adv-x="1024" 
d="M584 1606l266 260h154l-295 -260h-125zM639 1161q-76 0 -124 46t-48 120q0 86 59.5 144.5t147.5 58.5q77 0 124.5 -46.5t47.5 -121.5q0 -85 -59.5 -143t-147.5 -58zM641 1243q49 0 83 35t34 86q0 38 -24.5 61t-63.5 23q-49 0 -83 -35t-34 -86q0 -38 24 -61t64 -23z" />
    <glyph glyph-name="NULL" horiz-adv-x="0" 
 />
    </font>
</defs>
</svg>
