<svg width="135" height="40" viewBox="0 0 135 40" fill="none" xmlns="http://www.w3.org/2000/svg">
<path d="M130.004 40H5.00391C2.20391 40 0.00390625 37.8 0.00390625 35V5C0.00390625 2.2 2.20391 0 5.00391 0H130.004C132.804 0 135.004 2.2 135.004 5V35C135.004 37.8 132.804 40 130.004 40Z" fill="white"/>
<path d="M130.004 0.8C132.304 0.8 134.204 2.7 134.204 5V35C134.204 37.3 132.304 39.2 130.004 39.2H5.00391C2.70391 39.2 0.803906 37.3 0.803906 35V5C0.803906 2.7 2.70391 0.8 5.00391 0.8H130.004ZM130.004 0H5.00391C2.20391 0 0.00390625 2.3 0.00390625 5V35C0.00390625 37.8 2.20391 40 5.00391 40H130.004C132.804 40 135.004 37.8 135.004 35V5C135.004 2.3 132.804 0 130.004 0Z" fill="white"/>
<path d="M47.4043 10.1999C47.4043 10.9999 47.2043 11.6999 46.7043 12.1999C46.1043 12.7999 45.4043 13.0999 44.5043 13.0999C43.6043 13.0999 42.9043 12.7999 42.3043 12.1999C41.7043 11.5999 41.4043 10.8999 41.4043 9.9999C41.4043 9.0999 41.7043 8.3999 42.3043 7.7999C42.9043 7.1999 43.6043 6.8999 44.5043 6.8999C44.9043 6.8999 45.3043 6.9999 45.7043 7.1999C46.1043 7.3999 46.4043 7.5999 46.6043 7.8999L46.1043 8.3999C45.7043 7.8999 45.2043 7.6999 44.5043 7.6999C43.9043 7.6999 43.3043 7.8999 42.9043 8.3999C42.4043 8.7999 42.2043 9.3999 42.2043 10.0999C42.2043 10.7999 42.4043 11.3999 42.9043 11.7999C43.4043 12.1999 43.9043 12.4999 44.5043 12.4999C45.2043 12.4999 45.7043 12.2999 46.2043 11.7999C46.5043 11.4999 46.7043 11.0999 46.7043 10.5999H44.5043V9.7999H47.4043V10.1999ZM52.0043 7.6999H49.3043V9.5999H51.8043V10.2999H49.3043V12.1999H52.0043V12.9999H48.5043V6.9999H52.0043V7.6999ZM55.3043 12.9999H54.5043V7.6999H52.8043V6.9999H57.0043V7.6999H55.3043V12.9999ZM59.9043 12.9999V6.9999H60.7043V12.9999H59.9043ZM64.1043 12.9999H63.3043V7.6999H61.6043V6.9999H65.7043V7.6999H64.0043V12.9999H64.1043ZM73.6043 12.1999C73.0043 12.7999 72.3043 13.0999 71.4043 13.0999C70.5043 13.0999 69.8043 12.7999 69.2043 12.1999C68.6043 11.5999 68.3043 10.8999 68.3043 9.9999C68.3043 9.0999 68.6043 8.3999 69.2043 7.7999C69.8043 7.1999 70.5043 6.8999 71.4043 6.8999C72.3043 6.8999 73.0043 7.1999 73.6043 7.7999C74.2043 8.3999 74.5043 9.0999 74.5043 9.9999C74.5043 10.8999 74.2043 11.5999 73.6043 12.1999ZM69.8043 11.6999C70.2043 12.0999 70.8043 12.3999 71.4043 12.3999C72.0043 12.3999 72.6043 12.1999 73.0043 11.6999C73.4043 11.2999 73.7043 10.6999 73.7043 9.9999C73.7043 9.2999 73.5043 8.6999 73.0043 8.2999C72.6043 7.8999 72.0043 7.5999 71.4043 7.5999C70.8043 7.5999 70.2043 7.7999 69.8043 8.2999C69.4043 8.6999 69.1043 9.2999 69.1043 9.9999C69.1043 10.6999 69.3043 11.2999 69.8043 11.6999ZM75.6043 12.9999V6.9999H76.5043L79.4043 11.6999V6.9999H80.2043V12.9999H79.4043L76.3043 8.0999V12.9999H75.6043Z" fill="black"/>
<path d="M68.1035 21.8001C65.7035 21.8001 63.8035 23.6001 63.8035 26.1001C63.8035 28.5001 65.7035 30.4001 68.1035 30.4001C70.5035 30.4001 72.4035 28.6001 72.4035 26.1001C72.4035 23.5001 70.5035 21.8001 68.1035 21.8001ZM68.1035 28.6001C66.8035 28.6001 65.7035 27.5001 65.7035 26.0001C65.7035 24.5001 66.8035 23.4001 68.1035 23.4001C69.4035 23.4001 70.5035 24.4001 70.5035 26.0001C70.5035 27.5001 69.4035 28.6001 68.1035 28.6001ZM58.8035 21.8001C56.4035 21.8001 54.5035 23.6001 54.5035 26.1001C54.5035 28.5001 56.4035 30.4001 58.8035 30.4001C61.2035 30.4001 63.1035 28.6001 63.1035 26.1001C63.1035 23.5001 61.2035 21.8001 58.8035 21.8001ZM58.8035 28.6001C57.5035 28.6001 56.4035 27.5001 56.4035 26.0001C56.4035 24.5001 57.5035 23.4001 58.8035 23.4001C60.1035 23.4001 61.2035 24.4001 61.2035 26.0001C61.2035 27.5001 60.1035 28.6001 58.8035 28.6001ZM47.7035 23.1001V24.9001H52.0035C51.9035 25.9001 51.5035 26.7001 51.0035 27.2001C50.4035 27.8001 49.4035 28.5001 47.7035 28.5001C45.0035 28.5001 43.0035 26.4001 43.0035 23.7001C43.0035 21.0001 45.1035 18.9001 47.7035 18.9001C49.1035 18.9001 50.2035 19.5001 51.0035 20.2001L52.3035 18.9001C51.2035 17.9001 49.8035 17.1001 47.8035 17.1001C44.2035 17.1001 41.1035 20.1001 41.1035 23.7001C41.1035 27.3001 44.2035 30.3001 47.8035 30.3001C49.8035 30.3001 51.2035 29.7001 52.4035 28.4001C53.6035 27.2001 54.0035 25.5001 54.0035 24.2001C54.0035 23.8001 54.0035 23.4001 53.9035 23.1001H47.7035ZM93.1035 24.5001C92.7035 23.5001 91.7035 21.8001 89.5035 21.8001C87.3035 21.8001 85.5035 23.5001 85.5035 26.1001C85.5035 28.5001 87.3035 30.4001 89.7035 30.4001C91.6035 30.4001 92.8035 29.2001 93.2035 28.5001L91.8035 27.5001C91.3035 28.2001 90.7035 28.7001 89.7035 28.7001C88.7035 28.7001 88.1035 28.3001 87.6035 27.4001L93.3035 25.0001L93.1035 24.5001ZM87.3035 25.9001C87.3035 24.3001 88.6035 23.4001 89.5035 23.4001C90.2035 23.4001 90.9035 23.8001 91.1035 24.3001L87.3035 25.9001ZM82.6035 30.0001H84.5035V17.5001H82.6035V30.0001ZM79.6035 22.7001C79.1035 22.2001 78.3035 21.7001 77.3035 21.7001C75.2035 21.7001 73.2035 23.6001 73.2035 26.0001C73.2035 28.4001 75.1035 30.2001 77.3035 30.2001C78.3035 30.2001 79.1035 29.7001 79.5035 29.2001H79.6035V29.8001C79.6035 31.4001 78.7035 32.3001 77.3035 32.3001C76.2035 32.3001 75.4035 31.5001 75.2035 30.8001L73.6035 31.5001C74.1035 32.6001 75.3035 34.0001 77.4035 34.0001C79.6035 34.0001 81.4035 32.7001 81.4035 29.6001V22.0001H79.6035V22.7001ZM77.4035 28.6001C76.1035 28.6001 75.0035 27.5001 75.0035 26.0001C75.0035 24.5001 76.1035 23.4001 77.4035 23.4001C78.7035 23.4001 79.7035 24.5001 79.7035 26.0001C79.7035 27.5001 78.7035 28.6001 77.4035 28.6001ZM101.804 17.5001H97.3035V30.0001H99.2035V25.3001H101.804C103.904 25.3001 105.904 23.8001 105.904 21.4001C105.904 19.0001 103.904 17.5001 101.804 17.5001ZM101.904 23.5001H99.2035V19.2001H101.904C103.304 19.2001 104.104 20.4001 104.104 21.3001C104.004 22.4001 103.204 23.5001 101.904 23.5001ZM113.404 21.7001C112.004 21.7001 110.604 22.3001 110.104 23.6001L111.804 24.3001C112.204 23.6001 112.804 23.4001 113.504 23.4001C114.504 23.4001 115.404 24.0001 115.504 25.0001V25.1001C115.204 24.9001 114.404 24.6001 113.604 24.6001C111.804 24.6001 110.004 25.6001 110.004 27.4001C110.004 29.1001 111.504 30.2001 113.104 30.2001C114.404 30.2001 115.004 29.6001 115.504 29.0001H115.604V30.0001H117.404V25.2001C117.204 23.0001 115.504 21.7001 113.404 21.7001ZM113.204 28.6001C112.604 28.6001 111.704 28.3001 111.704 27.5001C111.704 26.5001 112.804 26.2001 113.704 26.2001C114.504 26.2001 114.904 26.4001 115.404 26.6001C115.204 27.8001 114.204 28.6001 113.204 28.6001ZM123.704 22.0001L121.604 27.4001H121.504L119.304 22.0001H117.304L120.604 29.6001L118.704 33.8001H120.604L125.704 22.0001H123.704ZM106.904 30.0001H108.804V17.5001H106.904V30.0001Z" fill="black"/>
<path d="M10.4039 7.5C10.1039 7.8 10.0039 8.3 10.0039 8.9V31C10.0039 31.6 10.2039 32.1 10.5039 32.4L10.6039 32.5L23.0039 20.1V19.9L10.4039 7.5Z" fill="url(#paint0_linear_864_1486)"/>
<path d="M27.0043 24.3L22.9043 20.2V19.9L27.0043 15.8L27.1043 15.9L32.0043 18.7C33.4043 19.5 33.4043 20.8 32.0043 21.6L27.0043 24.3Z" fill="url(#paint1_linear_864_1486)"/>
<path d="M27.1043 24.2L22.9043 20L10.4043 32.5C10.9043 33 11.6043 33 12.5043 32.6L27.1043 24.2Z" fill="url(#paint2_linear_864_1486)"/>
<path d="M27.1043 15.8001L12.5043 7.50011C11.6043 7.00011 10.9043 7.10011 10.4043 7.60011L22.9043 20.0001L27.1043 15.8001Z" fill="url(#paint3_linear_864_1486)"/>
<path opacity="0.2" d="M27.0043 24.1001L12.5043 32.3001C11.7043 32.8001 11.0043 32.7001 10.5043 32.3001L10.4043 32.4001L10.5043 32.5001C11.0043 32.9001 11.7043 33.0001 12.5043 32.5001L27.0043 24.1001Z" fill="white"/>
<path opacity="0.12" d="M10.4039 32.3C10.1039 32 10.0039 31.5 10.0039 30.9V31C10.0039 31.6 10.2039 32.1 10.5039 32.4V32.3H10.4039ZM32.0039 21.3L27.0039 24.1L27.1039 24.2L32.0039 21.4C32.7039 21 33.0039 20.5 33.0039 20C33.0039 20.5 32.6039 20.9 32.0039 21.3Z" fill="white"/>
<path opacity="0.25" d="M12.5039 7.60003L32.0039 18.7C32.6039 19.1 33.0039 19.5 33.0039 20C33.0039 19.5 32.7039 19 32.0039 18.6L12.5039 7.50003C11.1039 6.70003 10.0039 7.30003 10.0039 8.90003V9.00003C10.0039 7.50003 11.1039 6.80003 12.5039 7.60003Z" fill="white"/>
<defs>
<linearGradient id="paint0_linear_864_1486" x1="21.8039" y1="8.71" x2="5.02091" y2="25.492" gradientUnits="userSpaceOnUse">
<stop stop-color="#00A0FF"/>
<stop offset="0.007" stop-color="#00A1FF"/>
<stop offset="0.26" stop-color="#00BEFF"/>
<stop offset="0.512" stop-color="#00D2FF"/>
<stop offset="0.76" stop-color="#00DFFF"/>
<stop offset="1" stop-color="#00E3FF"/>
</linearGradient>
<linearGradient id="paint1_linear_864_1486" x1="33.8383" y1="20.001" x2="9.6413" y2="20.001" gradientUnits="userSpaceOnUse">
<stop stop-color="#FFE000"/>
<stop offset="0.409" stop-color="#FFBD00"/>
<stop offset="0.775" stop-color="#FFA500"/>
<stop offset="1" stop-color="#FF9C00"/>
</linearGradient>
<linearGradient id="paint2_linear_864_1486" x1="24.8313" y1="22.296" x2="2.0733" y2="45.054" gradientUnits="userSpaceOnUse">
<stop stop-color="#FF3A44"/>
<stop offset="1" stop-color="#C31162"/>
</linearGradient>
<linearGradient id="paint3_linear_864_1486" x1="7.3013" y1="0.176112" x2="17.4643" y2="10.3391" gradientUnits="userSpaceOnUse">
<stop stop-color="#32A071"/>
<stop offset="0.069" stop-color="#2DA771"/>
<stop offset="0.476" stop-color="#15CF74"/>
<stop offset="0.801" stop-color="#06E775"/>
<stop offset="1" stop-color="#00F076"/>
</linearGradient>
</defs>
</svg>
