<svg width="40" height="40" viewBox="0 0 40 40" fill="none" xmlns="http://www.w3.org/2000/svg">
<path d="M11.667 23.3333V35M11.667 5V10" stroke="#4B4B4B" stroke-width="1.6" stroke-linecap="round"/>
<path d="M28.334 16.6667L28.334 5M28.334 35L28.334 30" stroke="#4B4B4B" stroke-width="1.6" stroke-linecap="round"/>
<path d="M6.66699 15C6.66699 13.4469 6.66699 12.6703 6.92073 12.0577C7.25904 11.241 7.90795 10.592 8.72471 10.2537C9.33728 10 10.1139 10 11.667 10C13.2201 10 13.9967 10 14.6093 10.2537C15.426 10.592 16.0749 11.241 16.4133 12.0577C16.667 12.6703 16.667 13.4469 16.667 15V18.3333C16.667 19.8865 16.667 20.663 16.4133 21.2756C16.0749 22.0924 15.426 22.7413 14.6093 23.0796C13.9967 23.3333 13.2201 23.3333 11.667 23.3333C10.1139 23.3333 9.33728 23.3333 8.72471 23.0796C7.90795 22.7413 7.25904 22.0924 6.92073 21.2756C6.66699 20.663 6.66699 19.8865 6.66699 18.3333V15Z" fill="url(#paint0_linear_224_2723)" fill-opacity="0.24" stroke="white" stroke-width="1.6"/>
<path d="M33.334 25C33.334 26.5532 33.334 27.3297 33.0802 27.9423C32.7419 28.7591 32.093 29.408 31.2763 29.7463C30.6637 30 29.8871 30 28.334 30C26.7808 30 26.0043 30 25.3917 29.7463C24.5749 29.408 23.926 28.7591 23.5877 27.9423C23.334 27.3297 23.334 26.5532 23.334 25L23.334 21.6667C23.334 20.1135 23.334 19.337 23.5877 18.7244C23.926 17.9076 24.5749 17.2587 25.3917 16.9204C26.0043 16.6667 26.7808 16.6667 28.334 16.6667C29.8871 16.6667 30.6637 16.6667 31.2763 16.9204C32.093 17.2587 32.7419 17.9076 33.0802 18.7244C33.334 19.337 33.334 20.1135 33.334 21.6667V25Z" fill="url(#paint1_linear_224_2723)" fill-opacity="0.24" stroke="white" stroke-width="1.6"/>
<defs>
<linearGradient id="paint0_linear_224_2723" x1="11.667" y1="10" x2="11.667" y2="23.3333" gradientUnits="userSpaceOnUse">
<stop stop-color="white" stop-opacity="0"/>
<stop offset="1" stop-color="white"/>
</linearGradient>
<linearGradient id="paint1_linear_224_2723" x1="28.334" y1="16.6667" x2="28.334" y2="30" gradientUnits="userSpaceOnUse">
<stop stop-color="white" stop-opacity="0"/>
<stop offset="1" stop-color="white"/>
</linearGradient>
</defs>
</svg>
