<?xml version="1.0" standalone="no"?>
<!DOCTYPE svg PUBLIC "-//W3C//DTD SVG 1.1//EN" "http://www.w3.org/Graphics/SVG/1.1/DTD/svg11.dtd" >
<svg xmlns="http://www.w3.org/2000/svg" xmlns:xlink="http://www.w3.org/1999/xlink" version="1.1">
<metadata>
Created by FontForge 20170731 at Mon May  8 10:35:17 2023
 By Aleksey,,,
Copyright (c) 2014-2015 by Ryoichi Tsunekawa. All rights reserved.
</metadata>
<defs>
<font id="BioSans-Regular" horiz-adv-x="749" >
  <font-face 
    font-family="Bio Sans"
    font-weight="400"
    font-stretch="normal"
    units-per-em="2048"
    panose-1="2 11 5 6 2 2 2 4 2 4"
    ascent="1638"
    descent="-410"
    x-height="1057"
    cap-height="1393"
    bbox="-340 -487 2189 2226"
    underline-thickness="102"
    underline-position="-307"
    unicode-range="U+000D-FB02"
  />
<missing-glyph horiz-adv-x="1411" 
d="M184 0v1393h1043v-1393h-1043zM707 809l315 463h-633zM305 225l322 471l-322 471v-942zM1106 225v942l-322 -471zM389 121h633l-315 463z" />
    <glyph glyph-name="fi" unicode="fi" horiz-adv-x="1218" 
d="M219 0v909h-192v148h192v108q0 330 293 330h170v-152h-131q-83 0 -117.5 -38.5t-34.5 -133.5v-114h275v-148h-275v-909h-180zM860 1247v201h197v-201h-197zM868 0v1057h181v-1057h-181z" />
    <glyph glyph-name="fl" unicode="fl" horiz-adv-x="1218" 
d="M219 0v909h-192v148h192v108q0 330 293 330h170v-152h-131q-83 0 -117.5 -38.5t-34.5 -133.5v-114h275v-148h-275v-909h-180zM868 0v1495h181v-1495h-181z" />
    <glyph glyph-name=".notdef" horiz-adv-x="1411" 
d="M184 0v1393h1043v-1393h-1043zM707 809l315 463h-633zM305 225l322 471l-322 471v-942zM1106 225v942l-322 -471zM389 121h633l-315 463z" />
    <glyph glyph-name=".null" horiz-adv-x="0" 
 />
    <glyph glyph-name="nonmarkingreturn" horiz-adv-x="682" 
 />
    <glyph glyph-name="CR" unicode="&#xd;" horiz-adv-x="540" 
 />
    <glyph glyph-name="space" unicode=" " horiz-adv-x="540" 
 />
    <glyph glyph-name="exclam" unicode="!" horiz-adv-x="598" 
d="M233 414l-24 610l-4 369h188l-4 -369l-24 -610h-132zM195 0v209h208v-209h-208z" />
    <glyph glyph-name="quotedbl" unicode="&#x22;" horiz-adv-x="827" 
d="M160 907l-27 486h195l-27 -486h-141zM526 907l-26 486h194l-26 -486h-142z" />
    <glyph glyph-name="numbersign" unicode="#" horiz-adv-x="1232" 
d="M221 0l45 360h-180v146h199l49 401h-178v146h196l43 340h162l-43 -340h293l43 340h162l-43 -340h178v-146h-197l-49 -401h176v-146h-194l-45 -360h-162l45 360h-293l-45 -360h-162zM446 506h293l49 401h-292z" />
    <glyph glyph-name="dollar" unicode="$" horiz-adv-x="1232" 
d="M539 -147v149q-412 27 -412 393h166q0 -208 246 -229v461q-213 37 -303.5 123t-90.5 251q0 174 100.5 273.5t293.5 116.5v149h153v-151q185 -15 279 -111t94 -270h-166q0 190 -207 217v-445q217 -35 310.5 -125t93.5 -262q0 -180 -101 -277t-303 -114v-149h-153zM539 809
v418q-215 -24 -215 -203q0 -85 50 -135.5t165 -79.5zM692 166q226 23 226 207q0 90 -52 143t-174 82v-432z" />
    <glyph glyph-name="percent" unicode="%" horiz-adv-x="1574" 
d="M381 643q-146 0 -222.5 71t-76.5 206v221q0 135 76.5 205.5t222.5 70.5t222.5 -70.5t76.5 -205.5v-221q0 -135 -76.5 -206t-222.5 -71zM299 -25l823 1442h156l-823 -1442h-156zM381 776q149 0 149 152v207q0 149 -149 149q-150 0 -150 -149v-207q0 -152 150 -152z
M1194 -25q-146 0 -222.5 71t-76.5 206v221q0 135 76.5 206t222.5 71t222.5 -71t76.5 -206v-221q0 -135 -76.5 -206t-222.5 -71zM1194 109q149 0 149 151v207q0 149 -149 149q-150 0 -150 -149v-207q0 -151 150 -151z" />
    <glyph glyph-name="ampersand" unicode="&#x26;" horiz-adv-x="1361" 
d="M563 -25q-219 0 -342 102.5t-123 282.5q0 128 66.5 225.5t216.5 184.5q-70 84 -99.5 154t-29.5 149q0 159 100 251.5t273 92.5q161 0 254.5 -81t93.5 -222q0 -120 -72.5 -206.5t-247.5 -174.5l310 -336q51 119 63 297h184q-18 -265 -120 -434l239 -260h-244l-108 119
q-162 -144 -414 -144zM545 854q140 67 197 125.5t57 132.5q0 69 -46.5 109.5t-131.5 40.5q-91 0 -141 -48t-50 -137q0 -55 24.5 -103t90.5 -120zM575 135q175 0 287 109l-373 407q-114 -65 -161 -128.5t-47 -147.5q0 -111 78.5 -175.5t215.5 -64.5z" />
    <glyph glyph-name="quotesingle" unicode="'" horiz-adv-x="460" 
d="M160 907l-27 486h195l-27 -486h-141z" />
    <glyph glyph-name="parenleft" unicode="(" horiz-adv-x="694" 
d="M651 -266q-245 77 -377.5 309t-132.5 584t132.5 584t377.5 309v-148q-167 -78 -252.5 -268t-85.5 -477t86 -477.5t252 -268.5v-147z" />
    <glyph glyph-name="parenright" unicode=")" horiz-adv-x="694" 
d="M43 -266v147q166 78 252 268.5t86 477.5t-85.5 477t-252.5 268v148q245 -77 377.5 -309t132.5 -584t-132.5 -584t-377.5 -309z" />
    <glyph glyph-name="asterisk" unicode="*" horiz-adv-x="833" 
d="M246 614l-119 88l199 256l-306 78l46 150l294 -117l-16 324h145l-16 -324l295 117l45 -150l-305 -78l199 -256l-119 -88l-170 275z" />
    <glyph glyph-name="plus" unicode="+" horiz-adv-x="1232" 
d="M537 109v446h-422v156h422v446h159v-446h422v-156h-422v-446h-159z" />
    <glyph glyph-name="comma" unicode="," horiz-adv-x="569" 
d="M162 -274v114q44 2 72 35t28 90v35h-82v209h209v-199q0 -278 -227 -284z" />
    <glyph glyph-name="hyphen" unicode="-" horiz-adv-x="757" 
d="M70 512v178h618v-178h-618z" />
    <glyph glyph-name="period" unicode="." horiz-adv-x="569" 
d="M180 0v209h209v-209h-209z" />
    <glyph glyph-name="slash" unicode="/" horiz-adv-x="911" 
d="M14 -287l711 1782h172l-711 -1782h-172z" />
    <glyph glyph-name="zero" unicode="0" horiz-adv-x="1232" 
d="M616 -25q-233 0 -356 118.5t-123 344.5v516q0 226 123 344.5t356 118.5t356.5 -118.5t123.5 -344.5v-516q0 -226 -123.5 -344.5t-356.5 -118.5zM616 139q299 0 299 312v491q0 311 -299 311t-299 -311v-491q0 -312 299 -312z" />
    <glyph glyph-name="one" unicode="1" horiz-adv-x="1232" 
d="M256 0v170h342v985q-79 -55 -171 -75.5t-212 -24.5v159q133 5 228 47.5t163 131.5h172v-1223h342v-170h-864z" />
    <glyph glyph-name="two" unicode="2" horiz-adv-x="1232" 
d="M137 0v104q0 194 102.5 322t346.5 240q184 85 258 163t74 187q0 112 -72 174.5t-213 62.5q-299 0 -299 -278v-29h-176v47q0 205 124.5 314.5t352.5 109.5q224 0 343.5 -105.5t119.5 -291.5q0 -166 -97 -279t-329 -217q-193 -87 -272 -164.5t-85 -189.5h779v-170h-957z
" />
    <glyph glyph-name="three" unicode="3" horiz-adv-x="1232" 
d="M623 -25q-239 0 -364.5 101t-125.5 293v51h176v-27q0 -254 314 -254q309 0 309 248q0 242 -314 242h-153v164h156q278 0 278 225q0 115 -72.5 175t-208.5 60q-141 0 -215.5 -65t-74.5 -187v-18h-174v31q0 192 123.5 297.5t347.5 105.5q216 0 334 -99.5t118 -283.5
q0 -229 -188 -309v-4q223 -75 223 -340q0 -202 -125 -304t-364 -102z" />
    <glyph glyph-name="four" unicode="4" horiz-adv-x="1232" 
d="M807 0v319h-717v175l692 899h205v-910h164v-164h-164v-319h-180zM293 483h514v676z" />
    <glyph glyph-name="five" unicode="5" horiz-adv-x="1232" 
d="M618 -25q-230 0 -355 101.5t-128 283.5h176q5 -104 85.5 -162.5t219.5 -58.5q157 0 239.5 76t82.5 227q0 148 -79 225.5t-228 77.5q-164 0 -285 -106h-166l47 754h828v-170h-666l-27 -412q122 98 310 98q213 0 329.5 -120t116.5 -343q0 -234 -129 -352.5t-371 -118.5z
" />
    <glyph glyph-name="six" unicode="6" horiz-adv-x="1232" 
d="M635 -25q-235 0 -361.5 121t-126.5 353v493q0 232 126.5 353.5t365.5 121.5q215 0 332.5 -96.5t124.5 -280.5h-176q-18 213 -279 213q-313 0 -313 -321v-197q129 150 360 150q204 0 315 -114t111 -331q0 -226 -122 -345.5t-357 -119.5zM635 139q297 0 297 297
q0 140 -70 212.5t-207 72.5q-238 0 -327 -221v-47q0 -314 307 -314z" />
    <glyph glyph-name="seven" unicode="7" horiz-adv-x="1232" 
d="M344 0q30 717 555 1221h-780v172h989v-179q-274 -263 -415 -560.5t-156 -653.5h-193z" />
    <glyph glyph-name="eight" unicode="8" horiz-adv-x="1232" 
d="M616 -25q-250 0 -382 103t-132 297q0 265 240 346v4q-199 77 -199 307q0 183 125 284t350 101t349.5 -101t124.5 -284q0 -230 -201 -307v-4q239 -83 239 -346q0 -194 -132 -297t-382 -103zM616 795q145 0 221 58.5t76 168.5q0 112 -77 171.5t-220 59.5q-141 0 -217.5 -59
t-76.5 -172q0 -111 75 -169t219 -58zM616 139q334 0 334 246t-334 246q-333 0 -333 -246t333 -246z" />
    <glyph glyph-name="nine" unicode="9" horiz-adv-x="1232" 
d="M594 -25q-215 0 -332.5 96.5t-124.5 280.5h176q18 -213 279 -213q313 0 313 322v196q-128 -149 -360 -149q-204 0 -315 114t-111 330q0 226 122 345.5t357 119.5t361 -120.5t126 -352.5v-493q0 -232 -126 -354t-365 -122zM578 672q238 0 327 221v47q0 313 -307 313
q-297 0 -297 -297q0 -140 69.5 -212t207.5 -72z" />
    <glyph glyph-name="colon" unicode=":" horiz-adv-x="569" 
d="M180 770v209h209v-209h-209zM180 0v209h209v-209h-209z" />
    <glyph glyph-name="semicolon" unicode=";" horiz-adv-x="569" 
d="M180 770v209h209v-209h-209zM162 -274v114q44 2 72 35t28 90v35h-82v209h209v-199q0 -278 -227 -284z" />
    <glyph glyph-name="less" unicode="&#x3c;" horiz-adv-x="1232" 
d="M1118 131l-1003 422v152l1003 421v-168l-790 -329l790 -330v-168z" />
    <glyph glyph-name="equal" unicode="=" horiz-adv-x="1232" 
d="M115 786v156h1003v-156h-1003zM115 324v155h1003v-155h-1003z" />
    <glyph glyph-name="greater" unicode="&#x3e;" horiz-adv-x="1232" 
d="M115 135v168l790 330l-790 330v167l1003 -421v-152z" />
    <glyph glyph-name="question" unicode="?" horiz-adv-x="892" 
d="M330 414v59q0 119 44 200t148 154q81 57 112.5 107t31.5 121q0 98 -59 151.5t-165 53.5q-116 0 -176.5 -63.5t-60.5 -184.5h-174q0 197 105 301t304 104q192 0 298 -94t106 -264q0 -107 -43.5 -181.5t-149.5 -146.5q-94 -63 -130 -120.5t-36 -143.5v-53h-155zM303 0v209
h209v-209h-209z" />
    <glyph glyph-name="at" unicode="@" horiz-adv-x="1552" 
d="M846 -139q-350 0 -561 201t-211 534q0 217 91.5 385t260.5 261t389 93q317 0 509 -184t192 -483q0 -204 -90.5 -317t-247.5 -113q-164 0 -213 127q-83 -127 -242 -127q-121 0 -184.5 71.5t-63.5 204.5v154q0 135 63.5 205.5t184.5 70.5q150 0 233 -115l9 91h141v-422
q0 -111 88 -111q72 0 112 69t40 199q0 247 -141 387t-386 140q-264 0 -416.5 -159.5t-152.5 -422.5q0 -269 160.5 -427.5t433.5 -158.5q221 0 377 103l57 -144q-166 -112 -432 -112zM764 387q108 0 166 117v174q-56 117 -168 117q-58 0 -84.5 -34.5t-26.5 -105.5v-133
q0 -69 27 -102t86 -33z" />
    <glyph glyph-name="A" unicode="A" horiz-adv-x="1239" 
d="M18 0l508 1393h187l508 -1393h-197l-127 356h-561l-127 -356h-191zM395 524h443l-222 633z" />
    <glyph glyph-name="B" unicode="B" horiz-adv-x="1310" 
d="M188 0v1393h539q225 0 333.5 -88t108.5 -273q0 -118 -44 -192t-138 -109v-4q119 -37 174.5 -120t55.5 -222q0 -197 -109.5 -291t-339.5 -94h-580zM373 795h342q147 0 209.5 49t62.5 164q0 117 -63.5 167t-210.5 50h-340v-430zM373 168h368q156 0 223.5 53.5t67.5 175.5
q0 125 -71.5 177.5t-241.5 52.5h-346v-459z" />
    <glyph glyph-name="C" unicode="C" horiz-adv-x="1257" 
d="M649 -25q-520 0 -520 551v340q0 551 520 551q490 0 508 -483h-180q-7 161 -87.5 238t-240.5 77q-175 0 -255.5 -93t-80.5 -294v-332q0 -201 80.5 -294t255.5 -93q160 0 240 77t88 237h180q-18 -482 -508 -482z" />
    <glyph glyph-name="D" unicode="D" horiz-adv-x="1323" 
d="M188 0v1393h480q273 0 400.5 -131t127.5 -410v-311q0 -279 -127.5 -410t-400.5 -131h-480zM373 168h272q197 0 282 87t85 288v307q0 201 -85 288t-282 87h-272v-1057z" />
    <glyph glyph-name="E" unicode="E" horiz-adv-x="1193" 
d="M188 0v1393h912v-168h-727v-428h624v-168h-624v-461h747v-168h-932z" />
    <glyph glyph-name="F" unicode="F" horiz-adv-x="1120" 
d="M188 0v1393h893v-168h-708v-428h606v-168h-606v-629h-185z" />
    <glyph glyph-name="G" unicode="G" horiz-adv-x="1302" 
d="M664 -25q-262 0 -398.5 137.5t-136.5 401.5v365q0 261 135 399.5t391 138.5q235 0 368 -116.5t142 -337.5h-180q-8 137 -91.5 211.5t-240.5 74.5q-172 0 -256 -94.5t-84 -286.5v-344q0 -195 86 -288t267 -93q173 0 253 87.5t80 277.5v76h-297v170h478v-246
q0 -533 -516 -533z" />
    <glyph glyph-name="H" unicode="H" horiz-adv-x="1419" 
d="M188 0v1393h185v-594h674v594h184v-1393h-184v627h-674v-627h-185z" />
    <glyph glyph-name="I" unicode="I" horiz-adv-x="561" 
d="M188 0v1393h185v-1393h-185z" />
    <glyph glyph-name="J" unicode="J" horiz-adv-x="1124" 
d="M500 -25q-240 0 -352.5 113t-112.5 356v33h178v-33q0 -158 67 -229.5t218 -71.5q154 0 221 77t67 251v922h185v-930q0 -252 -114 -370t-357 -118z" />
    <glyph glyph-name="K" unicode="K" horiz-adv-x="1263" 
d="M188 0v1393h185v-740l647 740h227l-495 -570l501 -823h-215l-413 682l-252 -281v-401h-185z" />
    <glyph glyph-name="L" unicode="L" horiz-adv-x="1058" 
d="M188 0v1393h185v-1223h671v-170h-856z" />
    <glyph glyph-name="M" unicode="M" horiz-adv-x="1767" 
d="M188 0v1393h277l420 -1094l420 1094h274v-1393h-184v1155l-447 -1155h-133l-448 1159v-1159h-179z" />
    <glyph glyph-name="N" unicode="N" horiz-adv-x="1415" 
d="M188 0v1393h220l641 -1059v1059h178v-1393h-180l-680 1122v-1122h-179z" />
    <glyph glyph-name="O" unicode="O" horiz-adv-x="1339" 
d="M670 -25q-541 0 -541 555v332q0 555 541 555q540 0 540 -555v-332q0 -555 -540 -555zM670 143q184 0 270 93.5t86 293.5v332q0 200 -86 293.5t-270 93.5t-270.5 -93.5t-86.5 -293.5v-332q0 -200 86.5 -293.5t270.5 -93.5z" />
    <glyph glyph-name="P" unicode="P" horiz-adv-x="1230" 
d="M188 0v1393h525q244 0 354.5 -102t110.5 -326t-110 -325t-355 -101h-340v-539h-185zM373 707h327q161 0 227 59t66 199t-66.5 200t-226.5 60h-327v-518z" />
    <glyph glyph-name="Q" unicode="Q" horiz-adv-x="1339" 
d="M1145 -139l-174 176q-121 -62 -301 -62q-541 0 -541 555v332q0 555 541 555q540 0 540 -555v-332q0 -235 -98 -372l164 -166zM670 143q102 0 178 31l-260 264l127 125l264 -270q47 84 47 237v332q0 200 -86 293.5t-270 93.5t-270.5 -93.5t-86.5 -293.5v-332
q0 -200 86.5 -293.5t270.5 -93.5z" />
    <glyph glyph-name="R" unicode="R" horiz-adv-x="1292" 
d="M188 0v1393h535q238 0 343 -97t105 -317q0 -180 -68.5 -276t-219.5 -125l340 -578h-213l-332 565h-305v-565h-185zM373 733h334q155 0 217.5 55.5t62.5 190.5t-62.5 190.5t-217.5 55.5h-334v-492z" />
    <glyph glyph-name="S" unicode="S" horiz-adv-x="1142" 
d="M575 -25q-501 0 -501 420h184q0 -252 320 -252q305 0 305 224q0 113 -77.5 170.5t-268.5 83.5q-239 32 -339 121.5t-100 269.5q0 199 124 302t360 103q462 0 462 -407h-184q0 121 -70 180t-215 59q-142 0 -218 -56.5t-76 -162.5q0 -105 72.5 -158.5t248.5 -76.5
q251 -32 357 -126.5t106 -285.5q0 -408 -490 -408z" />
    <glyph glyph-name="T" unicode="T" horiz-adv-x="1036" 
d="M426 0v1223h-412v170h1008v-170h-412v-1223h-184z" />
    <glyph glyph-name="U" unicode="U" horiz-adv-x="1310" 
d="M655 -25q-264 0 -382.5 115t-118.5 369v934h184v-932q0 -173 72 -245.5t247 -72.5q177 0 249.5 72t72.5 246v932h178v-934q0 -254 -119 -369t-383 -115z" />
    <glyph glyph-name="V" unicode="V" horiz-adv-x="1191" 
d="M500 0l-482 1393h195l387 -1131l385 1131h189l-482 -1393h-192z" />
    <glyph glyph-name="W" unicode="W" horiz-adv-x="1765" 
d="M395 0l-375 1393h191l285 -1090l299 1090h180l301 -1094l285 1094h184l-375 -1393h-188l-299 1079l-301 -1079h-187z" />
    <glyph glyph-name="X" unicode="X" horiz-adv-x="1161" 
d="M25 0l438 721l-424 672h215l340 -541l324 541h204l-424 -697l439 -696h-215l-353 565l-340 -565h-204z" />
    <glyph glyph-name="Y" unicode="Y" horiz-adv-x="1130" 
d="M473 0v594l-493 799h215l376 -609l375 609h205l-494 -799v-594h-184z" />
    <glyph glyph-name="Z" unicode="Z" horiz-adv-x="1124" 
d="M66 0v152l745 1073h-709v168h940v-150l-743 -1075h760v-168h-993z" />
    <glyph glyph-name="bracketleft" unicode="[" horiz-adv-x="694" 
d="M188 -242v1737h463v-141h-291v-1454h291v-142h-463z" />
    <glyph glyph-name="backslash" unicode="\" horiz-adv-x="911" 
d="M725 -287l-711 1782h172l711 -1782h-172z" />
    <glyph glyph-name="bracketright" unicode="]" horiz-adv-x="694" 
d="M43 -242v142h291v1454h-291v141h463v-1737h-463z" />
    <glyph glyph-name="asciicircum" unicode="^" horiz-adv-x="1232" 
d="M59 680l488 713h139l488 -713h-185l-373 547l-372 -547h-185z" />
    <glyph glyph-name="underscore" unicode="_" horiz-adv-x="1024" 
d="M0 -262v151h1024v-151h-1024z" />
    <glyph glyph-name="grave" unicode="`" horiz-adv-x="1024" 
d="M477 1217l-268 270h225l225 -270h-182z" />
    <glyph glyph-name="a" unicode="a" horiz-adv-x="1107" 
d="M442 -25q-164 0 -258 85t-94 239q0 161 108.5 245.5t327.5 84.5h254v57q0 123 -58 181.5t-181 58.5q-235 0 -244 -191h-176q27 346 426 346q209 0 311.5 -97t102.5 -294v-690h-154l-6 143q-133 -168 -359 -168zM469 131q214 0 311 199v149h-248q-137 0 -199.5 -43
t-62.5 -133q0 -84 50 -128t149 -44z" />
    <glyph glyph-name="b" unicode="b" horiz-adv-x="1191" 
d="M686 -25q-116 0 -202.5 46.5t-153.5 146.5l-6 -168h-154v1495h180v-577q124 163 336 163q186 0 287.5 -112.5t101.5 -327.5v-225q0 -215 -101.5 -328t-287.5 -113zM664 133q110 0 170.5 74.5t60.5 214.5v213q0 140 -60.5 214.5t-170.5 74.5q-100 0 -180.5 -62.5
t-133.5 -177.5v-311q53 -115 134 -177.5t180 -62.5z" />
    <glyph glyph-name="c" unicode="c" horiz-adv-x="1058" 
d="M557 -25q-215 0 -327.5 114.5t-112.5 334.5v209q0 220 112.5 334t327.5 114q200 0 308 -99.5t114 -291.5h-174q-9 124 -70.5 179t-175.5 55q-134 0 -198 -71.5t-64 -223.5v-201q0 -152 64 -223.5t198 -71.5q114 0 175.5 55t70.5 179h174q-6 -192 -114 -292t-308 -100z
" />
    <glyph glyph-name="d" unicode="d" horiz-adv-x="1191" 
d="M506 -25q-186 0 -287.5 113t-101.5 328v225q0 215 101.5 327.5t287.5 112.5q212 0 336 -163v577h180v-1495h-154l-6 168q-67 -100 -153.5 -146.5t-202.5 -46.5zM528 133q100 0 180.5 62.5t133.5 177.5v311q-53 115 -133.5 177.5t-180.5 62.5q-110 0 -170.5 -74.5
t-60.5 -214.5v-213q0 -140 60.5 -214.5t170.5 -74.5z" />
    <glyph glyph-name="e" unicode="e" horiz-adv-x="1122" 
d="M575 -25q-223 0 -340.5 115.5t-117.5 333.5v209q0 218 114.5 333t331.5 115t332 -115t115 -333v-154h-713v-47q0 -155 66.5 -228t207.5 -73q118 0 182.5 48t73.5 136h174q-10 -167 -121.5 -253.5t-304.5 -86.5zM297 629h539q0 152 -65.5 224.5t-203.5 72.5
q-139 0 -204.5 -72t-65.5 -225z" />
    <glyph glyph-name="f" unicode="f" horiz-adv-x="698" 
d="M219 0v909h-192v148h192v108q0 330 293 330h170v-152h-131q-83 0 -117.5 -38.5t-34.5 -133.5v-114h275v-148h-275v-909h-180z" />
    <glyph glyph-name="g" unicode="g" horiz-adv-x="1189" 
d="M569 -397q-202 0 -311 82.5t-119 244.5h168q14 -172 258 -172q142 0 208.5 64t66.5 201v174q-126 -162 -334 -162q-186 0 -287.5 112.5t-101.5 327.5v166q0 215 101.5 327.5t287.5 112.5q224 0 352 -188l8 164h154v-1034q0 -420 -451 -420zM528 193q99 0 179 61t133 174
v260q-53 114 -133 175t-179 61q-110 0 -170.5 -74.5t-60.5 -214.5v-154q0 -140 60.5 -214t170.5 -74z" />
    <glyph glyph-name="h" unicode="h" horiz-adv-x="1167" 
d="M170 0v1495h180v-577q127 163 332 163q165 0 248.5 -98t83.5 -289v-694h-180v678q0 123 -45.5 180t-139.5 57q-95 0 -168.5 -56t-130.5 -173v-686h-180z" />
    <glyph glyph-name="i" unicode="i" horiz-adv-x="520" 
d="M162 1247v201h196v-201h-196zM170 0v1057h180v-1057h-180z" />
    <glyph glyph-name="j" unicode="j" horiz-adv-x="520" 
d="M162 1247v201h196v-201h-196zM-4 -373v156h51q73 0 98 27.5t25 109.5v1137h180v-1131q0 -157 -62 -228t-200 -71h-92z" />
    <glyph glyph-name="k" unicode="k" horiz-adv-x="1079" 
d="M170 0v1495h180v-958l488 520h225l-406 -430l414 -627h-215l-324 496l-182 -191v-305h-180z" />
    <glyph glyph-name="l" unicode="l" horiz-adv-x="520" 
d="M170 0v1495h180v-1495h-180z" />
    <glyph glyph-name="m" unicode="m" horiz-adv-x="1765" 
d="M170 0v1057h154l6 -166q63 98 143.5 144t188.5 46q225 0 290 -184q124 184 332 184q158 0 243 -93t85 -267v-721h-180v707q0 208 -172 208q-166 0 -279 -223v-692h-180v707q0 208 -172 208q-86 0 -153.5 -55.5t-125.5 -177.5v-682h-180z" />
    <glyph glyph-name="n" unicode="n" horiz-adv-x="1167" 
d="M170 0v1057h154l6 -166q133 190 352 190q165 0 248.5 -98t83.5 -289v-694h-180v678q0 123 -46 180t-141 57q-185 0 -297 -229v-686h-180z" />
    <glyph glyph-name="o" unicode="o" horiz-adv-x="1146" 
d="M573 -25q-224 0 -340 118.5t-116 348.5v172q0 230 116 348.5t340 118.5q225 0 341 -118.5t116 -348.5v-172q0 -230 -116 -348.5t-341 -118.5zM573 133q140 0 208.5 78t68.5 238v161q0 159 -68.5 236.5t-208.5 77.5t-208 -77.5t-68 -236.5v-161q0 -160 68 -238t208 -78z
" />
    <glyph glyph-name="p" unicode="p" horiz-adv-x="1191" 
d="M170 -373v1430h154l6 -168q67 99 153.5 145.5t202.5 46.5q186 0 287.5 -112.5t101.5 -327.5v-225q0 -215 -101.5 -328t-287.5 -113q-211 0 -336 164v-512h-180zM664 133q110 0 170.5 74.5t60.5 214.5v213q0 140 -60.5 214.5t-170.5 74.5q-100 0 -180.5 -62.5
t-133.5 -177.5v-311q53 -115 133.5 -177.5t180.5 -62.5z" />
    <glyph glyph-name="q" unicode="q" horiz-adv-x="1191" 
d="M842 -373v512q-125 -164 -336 -164q-186 0 -287.5 113t-101.5 328v225q0 215 101.5 327.5t287.5 112.5q116 0 202 -46t152 -144l8 166h154v-1430h-180zM528 133q100 0 180.5 62.5t133.5 177.5v311q-53 115 -133.5 177.5t-180.5 62.5q-110 0 -170.5 -74.5t-60.5 -214.5
v-213q0 -140 60.5 -214.5t170.5 -74.5z" />
    <glyph glyph-name="r" unicode="r" horiz-adv-x="733" 
d="M170 0v1057h154l8 -197q40 112 113.5 164.5t189.5 52.5h72v-178h-54q-130 0 -203.5 -70t-99.5 -221v-608h-180z" />
    <glyph glyph-name="s" unicode="s" horiz-adv-x="1017" 
d="M512 -25q-434 0 -434 336h172q0 -182 262 -182q122 0 184 40t62 116q0 78 -61.5 116.5t-215.5 57.5q-207 25 -293 93.5t-86 209.5q0 154 105.5 236.5t302.5 82.5t299 -82.5t102 -242.5h-176q0 172 -227 172q-110 0 -169.5 -40t-59.5 -112t59.5 -106t206.5 -49
q212 -23 300.5 -97t88.5 -225q0 -160 -106.5 -242t-315.5 -82z" />
    <glyph glyph-name="t" unicode="t" horiz-adv-x="698" 
d="M498 0q-152 0 -220.5 78.5t-68.5 251.5v579h-182v148h186l14 278h162v-278h260v-148h-260v-581q0 -103 30.5 -137.5t121.5 -34.5h121v-156h-164z" />
    <glyph glyph-name="u" unicode="u" horiz-adv-x="1175" 
d="M489 -25q-167 0 -251 98t-84 289v695h180v-678q0 -124 46 -181t142 -57q188 0 303 230v686h181v-1057h-154l-6 168q-134 -193 -357 -193z" />
    <glyph glyph-name="v" unicode="v" horiz-adv-x="980" 
d="M393 0l-370 1057h192l279 -832l278 832h186l-370 -1057h-195z" />
    <glyph glyph-name="w" unicode="w" horiz-adv-x="1587" 
d="M352 0l-329 1057h190l240 -819l254 819h178l256 -824l239 824h185l-330 -1057h-193l-247 797l-250 -797h-193z" />
    <glyph glyph-name="x" unicode="x" horiz-adv-x="993" 
d="M8 0l371 557l-348 500h219l268 -387l252 387h201l-353 -531l367 -526h-219l-287 416l-270 -416h-201z" />
    <glyph glyph-name="y" unicode="y" horiz-adv-x="962" 
d="M119 -373v156h90q62 0 92.5 23.5t52.5 87.5l49 147l-380 1016h192l281 -781l260 781h184l-414 -1184q-50 -140 -115 -193t-186 -53h-106z" />
    <glyph glyph-name="z" unicode="z" horiz-adv-x="948" 
d="M61 0v135l582 768h-539v154h768v-135l-581 -768h592v-154h-822z" />
    <glyph glyph-name="braceleft" unicode="{" horiz-adv-x="694" 
d="M530 -242q-158 0 -230.5 80.5t-72.5 263.5v304q0 89 -34.5 120t-126.5 31v139q92 0 126.5 31.5t34.5 120.5v303q0 183 72.5 263.5t230.5 80.5h121v-141h-86q-94 0 -130 -43t-36 -154v-293q0 -199 -131 -235v-4q131 -39 131 -236v-293q0 -110 36 -153t130 -43h86v-142
h-121z" />
    <glyph glyph-name="bar" unicode="|" horiz-adv-x="593" 
d="M217 -463v2048h160v-2048h-160z" />
    <glyph glyph-name="braceright" unicode="}" horiz-adv-x="694" 
d="M43 -242v142h86q94 0 130 43t36 153v293q0 197 131 236v4q-131 36 -131 235v293q0 111 -36 154t-130 43h-86v141h121q158 0 230.5 -80.5t72.5 -263.5v-303q0 -89 35 -120.5t127 -31.5v-139q-93 0 -127.5 -31t-34.5 -120v-304q0 -183 -72.5 -263.5t-230.5 -80.5h-121z" />
    <glyph glyph-name="asciitilde" unicode="~" horiz-adv-x="1232" 
d="M836 459q-71 0 -130 24t-131 82q-59 47 -98.5 65.5t-83.5 18.5q-133 0 -145 -170h-142q4 155 80.5 240.5t210.5 85.5q70 0 129 -24t131 -83q58 -47 98.5 -65.5t84.5 -18.5q133 0 145 170h141q-4 -155 -80 -240t-210 -85z" />
    <glyph glyph-name="uni00A0" unicode="&#xa0;" horiz-adv-x="540" 
 />
    <glyph glyph-name="exclamdown" unicode="&#xa1;" horiz-adv-x="598" 
d="M195 848v209h208v-209h-208zM205 -336l4 369l24 610h132l24 -610l4 -369h-188z" />
    <glyph glyph-name="cent" unicode="&#xa2;" horiz-adv-x="1232" 
d="M557 -147v151q-373 35 -373 424v201q0 389 373 424v151h154v-151q171 -17 260.5 -111.5t95.5 -261.5h-174q-4 98 -49 149.5t-133 63.5v-729q90 12 133.5 63t48.5 150h174q-6 -166 -96 -261t-260 -112v-151h-154zM557 162v733q-101 -15 -146.5 -79t-45.5 -191v-193
q0 -126 45.5 -190.5t146.5 -79.5z" />
    <glyph glyph-name="sterling" unicode="&#xa3;" horiz-adv-x="1232" 
d="M172 0v156q91 58 131.5 126.5t40.5 180.5q0 64 -10 110h-205v164h152q-37 90 -52.5 152t-15.5 127q0 197 117.5 299t337.5 102q219 0 331.5 -102t112.5 -303h-176q0 241 -272 241q-136 0 -203.5 -59t-67.5 -186q0 -58 13 -110.5t53 -160.5h526v-164h-481q6 -49 6 -98
q0 -202 -115 -305h699v-170h-922z" />
    <glyph glyph-name="currency" unicode="&#xa4;" horiz-adv-x="1232" 
d="M195 162l-117 114l231 238q-49 84 -49 182q0 99 49 183l-231 237l117 115l229 -236q88 56 192 56q105 0 193 -56l229 236l117 -115l-231 -237q49 -84 49 -183q0 -98 -49 -182l231 -238l-117 -114l-229 235q-86 -55 -193 -55q-106 0 -192 55zM616 504q83 0 138 55t55 137
t-55 137.5t-138 55.5t-137.5 -55.5t-54.5 -137.5t54.5 -137t137.5 -55z" />
    <glyph glyph-name="yen" unicode="&#xa5;" horiz-adv-x="1232" 
d="M526 0v248h-370v141h370v139h-370v144h352l-449 721h211l351 -578l348 578h205l-449 -721h352v-144h-370v-139h370v-141h-370v-248h-181z" />
    <glyph glyph-name="brokenbar" unicode="&#xa6;" horiz-adv-x="593" 
d="M217 766v819h160v-819h-160zM217 -463v819h160v-819h-160z" />
    <glyph glyph-name="section" unicode="&#xa7;" horiz-adv-x="1216" 
d="M602 -401q-229 0 -347 92.5t-118 275.5h176q0 -215 289 -215q139 0 211 47.5t72 134.5q0 88 -75.5 139.5t-260.5 88.5q-233 46 -333.5 127.5t-100.5 224.5q0 200 184 291v4q-73 45 -106 107.5t-33 152.5q0 168 114 258t324 90q211 0 323.5 -91t112.5 -263h-176
q0 201 -260 201q-126 0 -194 -47t-68 -132q0 -86 74.5 -136t257.5 -87q236 -47 335 -127t99 -223q0 -198 -182 -287v-4q73 -47 107 -112t34 -158q0 -172 -117 -262t-342 -90zM758 291q168 48 168 186q0 90 -72.5 140t-259.5 88q-69 14 -139 34q-164 -52 -164 -192
q0 -91 72 -140t255 -83q83 -16 140 -33z" />
    <glyph glyph-name="dieresis" unicode="&#xa8;" horiz-adv-x="1024" 
d="M229 1247v201h201v-201h-201zM594 1247v201h201v-201h-201z" />
    <glyph glyph-name="copyright" unicode="&#xa9;" horiz-adv-x="1581" 
d="M791 -25q-206 0 -371 92.5t-257.5 257.5t-92.5 371t92.5 371t257.5 257.5t371 92.5q155 0 288.5 -54t228.5 -149t149 -229t54 -289t-54 -289t-149 -229t-228.5 -149t-288.5 -54zM791 117q256 0 410.5 159t154.5 420q0 262 -154.5 421t-410.5 159t-411 -159.5t-155 -420.5
t155 -420t411 -159zM786 309q-149 0 -220.5 73.5t-71.5 225.5v176q0 152 71.5 225.5t220.5 73.5q287 0 293 -272h-153q-3 73 -33.5 105t-101.5 32q-76 0 -107 -38.5t-31 -131.5v-164q0 -93 31 -131.5t107 -38.5q71 0 101.5 32.5t33.5 105.5h153q-6 -273 -293 -273z" />
    <glyph glyph-name="ordfeminine" unicode="&#xaa;" horiz-adv-x="872" 
d="M328 637q-122 0 -188 61t-66 168q0 115 74.5 175.5t213.5 60.5h218v47q0 137 -166 137q-79 0 -123.5 -28.5t-48.5 -83.5h-142q21 243 320 243q313 0 313 -272v-483h-131l-6 104q-97 -129 -268 -129zM354 768q154 0 226 133v86h-191q-81 0 -121.5 -27.5t-40.5 -87.5
q0 -54 31 -79t96 -25zM88 342v133h645v-133h-645z" />
    <glyph glyph-name="guillemotleft" unicode="&#xab;" horiz-adv-x="987" 
d="M326 168l-285 360l285 363h192l-285 -363l285 -360h-192zM754 168l-285 360l285 363h192l-284 -363l284 -360h-192z" />
    <glyph glyph-name="logicalnot" unicode="&#xac;" horiz-adv-x="1232" 
d="M958 252v446h-843v156h1003v-602h-160z" />
    <glyph glyph-name="uni00AD" unicode="&#xad;" horiz-adv-x="757" 
d="M70 512v178h618v-178h-618z" />
    <glyph glyph-name="registered" unicode="&#xae;" horiz-adv-x="1581" 
d="M791 -25q-206 0 -371 92.5t-257.5 257.5t-92.5 371t92.5 371t257.5 257.5t371 92.5q155 0 288.5 -54t228.5 -149t149 -229t54 -289t-54 -289t-149 -229t-228.5 -149t-288.5 -54zM791 117q256 0 410.5 159t154.5 420q0 262 -154.5 421t-410.5 159t-411 -159.5t-155 -420.5
t155 -420t411 -159zM504 330v733h317q141 0 206 -55.5t65 -176.5q0 -172 -138 -215l181 -286h-181l-163 270h-127v-270h-160zM664 729h137q73 0 102 22t29 78t-29 78.5t-102 22.5h-137v-201z" />
    <glyph glyph-name="macron" unicode="&#xaf;" horiz-adv-x="1024" 
d="M252 1280v143h520v-143h-520z" />
    <glyph glyph-name="degree" unicode="&#xb0;" horiz-adv-x="770" 
d="M385 817q-140 0 -231 91.5t-91 232.5q0 139 91 230t231 91t231 -91t91 -230q0 -141 -91 -232.5t-231 -91.5zM385 961q76 0 125 51t49 129q0 77 -49 127.5t-125 50.5t-125 -50.5t-49 -127.5q0 -78 49 -129t125 -51z" />
    <glyph glyph-name="plusminus" unicode="&#xb1;" horiz-adv-x="1232" 
d="M537 262v389h-422v156h422v405h159v-405h422v-156h-422v-389h-159zM115 0v156h1003v-156h-1003z" />
    <glyph glyph-name="uni00B2" unicode="&#xb2;" 
d="M86 852v80q0 115 60 192t198 140q95 43 133.5 82t38.5 92t-35.5 82.5t-99.5 29.5q-137 0 -137 -137v-12h-144v31q0 121 74 186t211 65q135 0 208 -62.5t73 -176.5q0 -98 -58.5 -167.5t-191.5 -129.5q-96 -42 -134.5 -77t-43.5 -81h428v-137h-580z" />
    <glyph glyph-name="uni00B3" unicode="&#xb3;" 
d="M381 827q-145 0 -221 59.5t-76 174.5v33h143v-13q0 -120 154 -120q147 0 147 118q0 61 -38 89t-117 28h-90v131h88q139 0 139 111q0 112 -133 112q-68 0 -103.5 -29.5t-35.5 -86.5v-11h-142v21q0 115 74.5 177t210.5 62q132 0 204 -59.5t72 -173.5q0 -130 -98 -176v-4
q119 -45 119 -195q0 -248 -297 -248z" />
    <glyph glyph-name="acute" unicode="&#xb4;" horiz-adv-x="1024" 
d="M365 1217l225 270h225l-268 -270h-182z" />
    <glyph glyph-name="uni00B5" unicode="&#xb5;" horiz-adv-x="1191" 
d="M170 -373v1430h180v-678q0 -124 46.5 -182t142.5 -58t169 57t134 181v680h180v-1057h-154l-6 172q-135 -197 -350 -197q-95 0 -162 37v-385h-180z" />
    <glyph glyph-name="paragraph" unicode="&#xb6;" horiz-adv-x="1216" 
d="M457 -375v950q-209 3 -306.5 101t-97.5 307q0 213 100.5 311.5t317.5 98.5h537v-1768h-181v1612h-190v-1612h-180z" />
    <glyph glyph-name="periodcentered" unicode="&#xb7;" horiz-adv-x="569" 
d="M180 496v209h209v-209h-209z" />
    <glyph glyph-name="cedilla" unicode="&#xb8;" horiz-adv-x="1024" 
d="M467 -418q-131 0 -205 43l37 99q64 -37 137 -37q103 0 103 59q0 26 -22.5 36.5t-88.5 10.5h-57l90 238h110l-57 -150q100 -1 147.5 -36.5t47.5 -106.5q0 -75 -55.5 -115.5t-186.5 -40.5z" />
    <glyph glyph-name="uni00B9" unicode="&#xb9;" 
d="M168 852v133h180v496q-76 -41 -205 -45v120q77 3 127.5 27t85.5 76h142v-674h180v-133h-510z" />
    <glyph glyph-name="ordmasculine" unicode="&#xba;" horiz-adv-x="860" 
d="M430 637q-163 0 -246.5 82t-83.5 242v133q0 160 83.5 241.5t246.5 81.5t246.5 -81.5t83.5 -241.5v-133q0 -160 -83.5 -242t-246.5 -82zM430 768q89 0 132.5 47.5t43.5 147.5v129q0 99 -43 146.5t-133 47.5t-133 -47.5t-43 -146.5v-129q0 -100 43.5 -147.5t132.5 -47.5z
M106 342v133h648v-133h-648z" />
    <glyph glyph-name="guillemotright" unicode="&#xbb;" horiz-adv-x="987" 
d="M41 166l285 362l-285 361h192l285 -361l-285 -362h-192zM469 166l285 362l-285 361h193l284 -361l-284 -362h-193z" />
    <glyph glyph-name="onequarter" unicode="&#xbc;" horiz-adv-x="1718" 
d="M487 -25l746 1442h153l-745 -1442h-154zM168 586v133h180v495q-76 -41 -205 -45v121q77 3 127.5 27t85.5 76h142v-674h180v-133h-510zM1425 0v176h-403v137l395 494h158v-500h96v-131h-96v-176h-150zM1182 307h243v314z" />
    <glyph glyph-name="onehalf" unicode="&#xbd;" horiz-adv-x="1718" 
d="M410 -25l745 1442h154l-746 -1442h-153zM168 586v133h180v495q-76 -41 -205 -45v121q77 3 127.5 27t85.5 76h142v-674h180v-133h-510zM1055 0v80q0 115 60 192t198 140q95 43 133.5 82t38.5 92t-35.5 82.5t-99.5 29.5q-138 0 -138 -137v-12h-143v31q0 121 74 186t211 65
q135 0 207.5 -62.5t72.5 -176.5q0 -98 -58.5 -167.5t-191.5 -129.5q-96 -42 -134.5 -77t-43.5 -81h428v-137h-579z" />
    <glyph glyph-name="threequarters" unicode="&#xbe;" horiz-adv-x="1718" 
d="M381 561q-145 0 -221 59.5t-76 174.5v32h143v-12q0 -121 154 -121q147 0 147 119q0 61 -38 89t-117 28h-90v131h88q139 0 139 110q0 113 -133 113q-68 0 -103.5 -30t-35.5 -87v-10h-142v21q0 115 74.5 177t210.5 62q132 0 204 -59.5t72 -173.5q0 -130 -98 -176v-4
q119 -45 119 -195q0 -248 -297 -248zM487 -25l746 1442h153l-745 -1442h-154zM1425 0v176h-403v137l395 494h158v-500h96v-131h-96v-176h-150zM1182 307h243v314z" />
    <glyph glyph-name="questiondown" unicode="&#xbf;" horiz-adv-x="892" 
d="M381 848v209h209v-209h-209zM453 -360q-192 0 -298 94t-106 264q0 107 43.5 181.5t149.5 146.5q94 63 130 120.5t36 143.5v53h155v-59q0 -119 -44 -200.5t-148 -154.5q-81 -57 -112.5 -106.5t-31.5 -120.5q0 -98 59 -151.5t165 -53.5q116 0 176.5 63.5t60.5 184.5h174
q0 -197 -105 -301t-304 -104z" />
    <glyph glyph-name="Agrave" unicode="&#xc0;" horiz-adv-x="1239" 
d="M584 1534l-269 270h226l225 -270h-182zM18 0l508 1393h187l508 -1393h-197l-127 356h-561l-127 -356h-191zM395 524h443l-222 633z" />
    <glyph glyph-name="Aacute" unicode="&#xc1;" horiz-adv-x="1239" 
d="M471 1534l225 270h226l-269 -270h-182zM18 0l508 1393h187l508 -1393h-197l-127 356h-561l-127 -356h-191zM395 524h443l-222 633z" />
    <glyph glyph-name="Acircumflex" unicode="&#xc2;" horiz-adv-x="1239" 
d="M297 1534l229 270h185l229 -270h-182l-140 141l-139 -141h-182zM18 0l508 1393h187l508 -1393h-197l-127 356h-561l-127 -356h-191zM395 524h443l-222 633z" />
    <glyph glyph-name="Atilde" unicode="&#xc3;" horiz-adv-x="1239" 
d="M735 1542q-37 0 -63.5 11t-79.5 46q-36 25 -52.5 32t-33.5 7q-31 0 -46 -21.5t-18 -70.5h-129q9 240 189 240q37 0 63.5 -11t79.5 -46q36 -25 52.5 -32t33.5 -7q31 0 46 21.5t18 70.5h129q-9 -240 -189 -240zM18 0l508 1393h187l508 -1393h-197l-127 356h-561l-127 -356
h-191zM395 524h443l-222 633z" />
    <glyph glyph-name="Adieresis" unicode="&#xc4;" horiz-adv-x="1239" 
d="M336 1565v200h201v-200h-201zM700 1565v200h201v-200h-201zM18 0l508 1393h187l508 -1393h-197l-127 356h-561l-127 -356h-191zM395 524h443l-222 633z" />
    <glyph glyph-name="Aring" unicode="&#xc5;" horiz-adv-x="1239" 
d="M618 1499q-96 0 -157.5 60t-61.5 153q0 92 62 152.5t157 60.5t157.5 -60.5t62.5 -152.5q0 -93 -62 -153t-158 -60zM618 1618q39 0 64 26t25 68q0 41 -25 66.5t-64 25.5t-63.5 -25.5t-24.5 -66.5q0 -42 24.5 -68t63.5 -26zM18 0l508 1393h187l508 -1393h-197l-127 356
h-561l-127 -356h-191zM395 524h443l-222 633z" />
    <glyph glyph-name="AE" unicode="&#xc6;" horiz-adv-x="1832" 
d="M-20 0l827 1393h932v-168h-674v-428h571v-168h-571v-461h694v-168h-878v356h-484l-211 -356h-206zM494 524h387v672z" />
    <glyph glyph-name="Ccedilla" unicode="&#xc7;" horiz-adv-x="1257" 
d="M649 143q160 0 240 77t88 237h180q-9 -226 -119 -345.5t-325 -134.5l-37 -96q100 -1 147 -36.5t47 -106.5q0 -76 -55 -116t-186 -40t-205 43l37 99q64 -37 137 -37q102 0 102 59q0 26 -22 36.5t-88 10.5h-58l70 184q-473 21 -473 549v340q0 551 520 551q490 0 508 -483
h-180q-7 161 -87.5 238t-240.5 77q-175 0 -255.5 -93t-80.5 -294v-332q0 -201 80.5 -294t255.5 -93z" />
    <glyph glyph-name="Egrave" unicode="&#xc8;" horiz-adv-x="1193" 
d="M608 1534l-268 270h225l226 -270h-183zM188 0v1393h912v-168h-727v-428h624v-168h-624v-461h747v-168h-932z" />
    <glyph glyph-name="Eacute" unicode="&#xc9;" horiz-adv-x="1193" 
d="M496 1534l225 270h225l-268 -270h-182zM188 0v1393h912v-168h-727v-428h624v-168h-624v-461h747v-168h-932z" />
    <glyph glyph-name="Ecircumflex" unicode="&#xca;" horiz-adv-x="1193" 
d="M322 1534l229 270h184l230 -270h-183l-139 141l-139 -141h-182zM188 0v1393h912v-168h-727v-428h624v-168h-624v-461h747v-168h-932z" />
    <glyph glyph-name="Edieresis" unicode="&#xcb;" horiz-adv-x="1193" 
d="M360 1565v200h201v-200h-201zM725 1565v200h201v-200h-201zM188 0v1393h912v-168h-727v-428h624v-168h-624v-461h747v-168h-932z" />
    <glyph glyph-name="Igrave" unicode="&#xcc;" horiz-adv-x="561" 
d="M246 1534l-269 270h226l225 -270h-182zM188 0v1393h185v-1393h-185z" />
    <glyph glyph-name="Iacute" unicode="&#xcd;" horiz-adv-x="561" 
d="M133 1534l225 270h226l-269 -270h-182zM188 0v1393h185v-1393h-185z" />
    <glyph glyph-name="Icircumflex" unicode="&#xce;" horiz-adv-x="561" 
d="M-29 1534l219 270h181l219 -270h-178l-131 139l-131 -139h-179zM188 0v1393h185v-1393h-185z" />
    <glyph glyph-name="Idieresis" unicode="&#xcf;" horiz-adv-x="561" 
d="M27 1565v200h200v-200h-200zM334 1565v200h201v-200h-201zM188 0v1393h185v-1393h-185z" />
    <glyph glyph-name="Eth" unicode="&#xd0;" horiz-adv-x="1343" 
d="M688 1393q273 0 401 -131t128 -410v-311q0 -279 -128 -410t-401 -131h-479v629h-154v168h154v596h479zM1032 543v307q0 201 -85 288t-281 87h-273v-428h318v-168h-318v-461h273q196 0 281 87t85 288z" />
    <glyph glyph-name="Ntilde" unicode="&#xd1;" horiz-adv-x="1415" 
d="M823 1542q-37 0 -63.5 11t-79.5 46q-36 25 -52.5 32t-33.5 7q-31 0 -46 -21.5t-18 -70.5h-129q9 240 189 240q37 0 63.5 -11t79.5 -46q36 -25 52.5 -32t33.5 -7q31 0 46 21.5t18 70.5h129q-9 -240 -189 -240zM188 0v1393h220l641 -1059v1059h178v-1393h-180l-680 1122
v-1122h-179z" />
    <glyph glyph-name="Ograve" unicode="&#xd2;" horiz-adv-x="1339" 
d="M635 1534l-268 270h225l225 -270h-182zM670 -25q-541 0 -541 555v332q0 555 541 555q540 0 540 -555v-332q0 -555 -540 -555zM670 143q184 0 270 93.5t86 293.5v332q0 200 -86 293.5t-270 93.5t-270.5 -93.5t-86.5 -293.5v-332q0 -200 86.5 -293.5t270.5 -93.5z" />
    <glyph glyph-name="Oacute" unicode="&#xd3;" horiz-adv-x="1339" 
d="M522 1534l226 270h225l-268 -270h-183zM670 -25q-541 0 -541 555v332q0 555 541 555q540 0 540 -555v-332q0 -555 -540 -555zM670 143q184 0 270 93.5t86 293.5v332q0 200 -86 293.5t-270 93.5t-270.5 -93.5t-86.5 -293.5v-332q0 -200 86.5 -293.5t270.5 -93.5z" />
    <glyph glyph-name="Ocircumflex" unicode="&#xd4;" horiz-adv-x="1339" 
d="M348 1534l230 270h184l229 -270h-182l-139 141l-140 -141h-182zM670 -25q-541 0 -541 555v332q0 555 541 555q540 0 540 -555v-332q0 -555 -540 -555zM670 143q184 0 270 93.5t86 293.5v332q0 200 -86 293.5t-270 93.5t-270.5 -93.5t-86.5 -293.5v-332
q0 -200 86.5 -293.5t270.5 -93.5z" />
    <glyph glyph-name="Otilde" unicode="&#xd5;" horiz-adv-x="1339" 
d="M786 1542q-37 0 -63.5 11t-79.5 46q-36 25 -52.5 32t-33.5 7q-31 0 -45.5 -21.5t-17.5 -70.5h-129q9 240 188 240q37 0 63.5 -11t79.5 -46q36 -25 52.5 -32t33.5 -7q31 0 46 21.5t18 70.5h129q-9 -240 -189 -240zM670 -25q-541 0 -541 555v332q0 555 541 555
q540 0 540 -555v-332q0 -555 -540 -555zM670 143q184 0 270 93.5t86 293.5v332q0 200 -86 293.5t-270 93.5t-270.5 -93.5t-86.5 -293.5v-332q0 -200 86.5 -293.5t270.5 -93.5z" />
    <glyph glyph-name="Odieresis" unicode="&#xd6;" horiz-adv-x="1339" 
d="M387 1565v200h201v-200h-201zM752 1565v200h200v-200h-200zM670 -25q-541 0 -541 555v332q0 555 541 555q540 0 540 -555v-332q0 -555 -540 -555zM670 143q184 0 270 93.5t86 293.5v332q0 200 -86 293.5t-270 93.5t-270.5 -93.5t-86.5 -293.5v-332q0 -200 86.5 -293.5
t270.5 -93.5z" />
    <glyph glyph-name="multiply" unicode="&#xd7;" horiz-adv-x="1232" 
d="M227 133l-108 109l389 391l-389 391l108 109l389 -392l390 392l108 -109l-389 -391l389 -391l-108 -109l-390 391z" />
    <glyph glyph-name="Oslash" unicode="&#xd8;" horiz-adv-x="1339" 
d="M1210 1325l-82 -115q82 -131 82 -348v-332q0 -555 -540 -555q-215 0 -348 91l-64 -91l-129 93l82 114q-82 131 -82 348v332q0 555 541 555q217 0 348 -90l63 90zM313 530q0 -98 21 -172l579 822q-84 69 -243 69q-184 0 -270.5 -93.5t-86.5 -293.5v-332zM1026 862
q0 102 -20 172l-580 -821q85 -70 244 -70q184 0 270 93.5t86 293.5v332z" />
    <glyph glyph-name="Ugrave" unicode="&#xd9;" horiz-adv-x="1310" 
d="M621 1534l-269 270h226l225 -270h-182zM655 -25q-264 0 -382.5 115t-118.5 369v934h184v-932q0 -173 72 -245.5t247 -72.5q177 0 249.5 72t72.5 246v932h178v-934q0 -254 -119 -369t-383 -115z" />
    <glyph glyph-name="Uacute" unicode="&#xda;" horiz-adv-x="1310" 
d="M508 1534l225 270h225l-268 -270h-182zM655 -25q-264 0 -382.5 115t-118.5 369v934h184v-932q0 -173 72 -245.5t247 -72.5q177 0 249.5 72t72.5 246v932h178v-934q0 -254 -119 -369t-383 -115z" />
    <glyph glyph-name="Ucircumflex" unicode="&#xdb;" horiz-adv-x="1310" 
d="M334 1534l229 270h185l229 -270h-182l-140 141l-139 -141h-182zM655 -25q-264 0 -382.5 115t-118.5 369v934h184v-932q0 -173 72 -245.5t247 -72.5q177 0 249.5 72t72.5 246v932h178v-934q0 -254 -119 -369t-383 -115z" />
    <glyph glyph-name="Udieresis" unicode="&#xdc;" horiz-adv-x="1310" 
d="M373 1565v200h200v-200h-200zM737 1565v200h201v-200h-201zM655 -25q-264 0 -382.5 115t-118.5 369v934h184v-932q0 -173 72 -245.5t247 -72.5q177 0 249.5 72t72.5 246v932h178v-934q0 -254 -119 -369t-383 -115z" />
    <glyph glyph-name="Yacute" unicode="&#xdd;" horiz-adv-x="1130" 
d="M418 1534l225 270h225l-268 -270h-182zM473 0v594l-493 799h215l376 -609l375 609h205l-494 -799v-594h-184z" />
    <glyph glyph-name="Thorn" unicode="&#xde;" horiz-adv-x="1230" 
d="M188 0v1393h185v-211h340q244 0 354.5 -102t110.5 -326t-110 -325t-355 -101h-340v-328h-185zM373 496h327q161 0 227 59t66 199t-66.5 200t-226.5 60h-327v-518z" />
    <glyph glyph-name="germandbls" unicode="&#xdf;" horiz-adv-x="1212" 
d="M219 0v909h-192v148h192v92q0 182 103 276.5t301 94.5q183 0 280.5 -80.5t97.5 -229.5q0 -79 -30.5 -143t-104.5 -139q-49 -49 -67.5 -80.5t-18.5 -65.5q0 -43 29 -71.5t109 -63.5q127 -57 179 -127t52 -184q0 -336 -422 -336h-121v156h119q246 0 246 166q0 60 -34.5 98
t-125.5 78q-116 50 -161.5 111.5t-45.5 160.5q0 78 28.5 137.5t98.5 126.5q53 51 73.5 88.5t20.5 81.5q0 75 -52 117.5t-150 42.5q-112 0 -168 -55t-56 -160v-1149h-180z" />
    <glyph glyph-name="agrave" unicode="&#xe0;" horiz-adv-x="1107" 
d="M506 1217l-268 270h225l225 -270h-182zM442 -25q-164 0 -258 85t-94 239q0 161 108.5 245.5t327.5 84.5h254v57q0 123 -58 181.5t-181 58.5q-235 0 -244 -191h-176q27 346 426 346q209 0 311.5 -97t102.5 -294v-690h-154l-6 143q-133 -168 -359 -168zM469 131
q214 0 311 199v149h-248q-137 0 -199.5 -43t-62.5 -133q0 -84 50 -128t149 -44z" />
    <glyph glyph-name="aacute" unicode="&#xe1;" horiz-adv-x="1107" 
d="M393 1217l225 270h226l-269 -270h-182zM442 -25q-164 0 -258 85t-94 239q0 161 108.5 245.5t327.5 84.5h254v57q0 123 -58 181.5t-181 58.5q-235 0 -244 -191h-176q27 346 426 346q209 0 311.5 -97t102.5 -294v-690h-154l-6 143q-133 -168 -359 -168zM469 131
q214 0 311 199v149h-248q-137 0 -199.5 -43t-62.5 -133q0 -84 50 -128t149 -44z" />
    <glyph glyph-name="acircumflex" unicode="&#xe2;" horiz-adv-x="1107" 
d="M219 1217l230 270h184l229 -270h-182l-139 141l-140 -141h-182zM442 -25q-164 0 -258 85t-94 239q0 161 108.5 245.5t327.5 84.5h254v57q0 123 -58 181.5t-181 58.5q-235 0 -244 -191h-176q27 346 426 346q209 0 311.5 -97t102.5 -294v-690h-154l-6 143
q-133 -168 -359 -168zM469 131q214 0 311 199v149h-248q-137 0 -199.5 -43t-62.5 -133q0 -84 50 -128t149 -44z" />
    <glyph glyph-name="atilde" unicode="&#xe3;" horiz-adv-x="1107" 
d="M657 1225q-37 0 -63.5 11t-79.5 46q-36 25 -52.5 32t-33.5 7q-31 0 -45.5 -21.5t-17.5 -70.5h-129q4 121 50.5 180t137.5 59q37 0 63.5 -11t79.5 -46q36 -25 52.5 -32t33.5 -7q31 0 46 21.5t18 70.5h129q-9 -239 -189 -239zM442 -25q-164 0 -258 85t-94 239
q0 161 108.5 245.5t327.5 84.5h254v57q0 123 -58 181.5t-181 58.5q-235 0 -244 -191h-176q27 346 426 346q209 0 311.5 -97t102.5 -294v-690h-154l-6 143q-133 -168 -359 -168zM469 131q214 0 311 199v149h-248q-137 0 -199.5 -43t-62.5 -133q0 -84 50 -128t149 -44z" />
    <glyph glyph-name="adieresis" unicode="&#xe4;" horiz-adv-x="1107" 
d="M258 1247v201h201v-201h-201zM623 1247v201h200v-201h-200zM442 -25q-164 0 -258 85t-94 239q0 161 108.5 245.5t327.5 84.5h254v57q0 123 -58 181.5t-181 58.5q-235 0 -244 -191h-176q27 346 426 346q209 0 311.5 -97t102.5 -294v-690h-154l-6 143q-133 -168 -359 -168z
M469 131q214 0 311 199v149h-248q-137 0 -199.5 -43t-62.5 -133q0 -84 50 -128t149 -44z" />
    <glyph glyph-name="aring" unicode="&#xe5;" horiz-adv-x="1107" 
d="M541 1182q-96 0 -157.5 60t-61.5 153q0 92 62 152.5t157 60.5t157 -60.5t62 -152.5q0 -93 -61.5 -153t-157.5 -60zM541 1300q39 0 63.5 26.5t24.5 68.5q0 41 -24.5 66.5t-63.5 25.5t-63.5 -25.5t-24.5 -66.5q0 -42 24.5 -68.5t63.5 -26.5zM442 -25q-164 0 -258 85
t-94 239q0 161 108.5 245.5t327.5 84.5h254v57q0 123 -58 181.5t-181 58.5q-235 0 -244 -191h-176q27 346 426 346q209 0 311.5 -97t102.5 -294v-690h-154l-6 143q-133 -168 -359 -168zM469 131q214 0 311 199v149h-248q-137 0 -199.5 -43t-62.5 -133q0 -84 50 -128t149 -44
z" />
    <glyph glyph-name="ae" unicode="&#xe6;" horiz-adv-x="1785" 
d="M446 -25q-166 0 -261 83.5t-95 238.5q0 161 108 246.5t326 85.5h256v59q0 122 -57.5 180t-181.5 58q-229 0 -244 -191h-176q30 346 411 346q272 0 353 -182q92 182 354 182q211 0 322.5 -114.5t111.5 -333.5v-154h-712v-47q0 -155 67.5 -228t208.5 -73q118 0 181.5 48
t72.5 136h174q-10 -166 -120 -253t-308 -87q-291 0 -397 189q-148 -189 -394 -189zM961 629h538q0 153 -64 225t-202 72q-139 0 -205.5 -72.5t-66.5 -224.5zM469 131q211 0 315 209q-4 54 -4 84v55h-250q-134 0 -197 -44t-63 -134q0 -83 50.5 -126.5t148.5 -43.5z" />
    <glyph glyph-name="ccedilla" unicode="&#xe7;" horiz-adv-x="1058" 
d="M559 133q114 0 175.5 55t70.5 179h174q-6 -177 -97.5 -276t-260.5 -114l-37 -96q100 -1 147 -36.5t47 -106.5q0 -76 -55 -116t-186 -40t-205 43l37 99q64 -37 137 -37q102 0 102 59q0 26 -22 36.5t-88 10.5h-58l70 184q-192 12 -292.5 126t-100.5 321v209
q0 220 112.5 334t327.5 114q200 0 308 -99.5t114 -291.5h-174q-9 124 -70.5 179t-175.5 55q-134 0 -198 -71.5t-64 -223.5v-201q0 -152 64 -223.5t198 -71.5z" />
    <glyph glyph-name="egrave" unicode="&#xe8;" horiz-adv-x="1122" 
d="M524 1217l-268 270h225l226 -270h-183zM575 -25q-223 0 -340.5 115.5t-117.5 333.5v209q0 218 114.5 333t331.5 115t332 -115t115 -333v-154h-713v-47q0 -155 66.5 -228t207.5 -73q118 0 182.5 48t73.5 136h174q-10 -167 -121.5 -253.5t-304.5 -86.5zM297 629h539
q0 152 -65.5 224.5t-203.5 72.5q-139 0 -204.5 -72t-65.5 -225z" />
    <glyph glyph-name="eacute" unicode="&#xe9;" horiz-adv-x="1122" 
d="M412 1217l225 270h225l-268 -270h-182zM575 -25q-223 0 -340.5 115.5t-117.5 333.5v209q0 218 114.5 333t331.5 115t332 -115t115 -333v-154h-713v-47q0 -155 66.5 -228t207.5 -73q118 0 182.5 48t73.5 136h174q-10 -167 -121.5 -253.5t-304.5 -86.5zM297 629h539
q0 152 -65.5 224.5t-203.5 72.5q-139 0 -204.5 -72t-65.5 -225z" />
    <glyph glyph-name="ecircumflex" unicode="&#xea;" horiz-adv-x="1122" 
d="M238 1217l229 270h184l230 -270h-183l-139 141l-139 -141h-182zM575 -25q-223 0 -340.5 115.5t-117.5 333.5v209q0 218 114.5 333t331.5 115t332 -115t115 -333v-154h-713v-47q0 -155 66.5 -228t207.5 -73q118 0 182.5 48t73.5 136h174q-10 -167 -121.5 -253.5
t-304.5 -86.5zM297 629h539q0 152 -65.5 224.5t-203.5 72.5q-139 0 -204.5 -72t-65.5 -225z" />
    <glyph glyph-name="edieresis" unicode="&#xeb;" horiz-adv-x="1122" 
d="M276 1247v201h201v-201h-201zM641 1247v201h201v-201h-201zM575 -25q-223 0 -340.5 115.5t-117.5 333.5v209q0 218 114.5 333t331.5 115t332 -115t115 -333v-154h-713v-47q0 -155 66.5 -228t207.5 -73q118 0 182.5 48t73.5 136h174q-10 -167 -121.5 -253.5t-304.5 -86.5z
M297 629h539q0 152 -65.5 224.5t-203.5 72.5q-139 0 -204.5 -72t-65.5 -225z" />
    <glyph glyph-name="igrave" unicode="&#xec;" horiz-adv-x="520" 
d="M225 1217l-268 270h225l226 -270h-183zM170 0v1057h180v-1057h-180z" />
    <glyph glyph-name="iacute" unicode="&#xed;" horiz-adv-x="520" 
d="M113 1217l225 270h225l-268 -270h-182zM170 0v1057h180v-1057h-180z" />
    <glyph glyph-name="icircumflex" unicode="&#xee;" horiz-adv-x="520" 
d="M-49 1217l219 270h180l219 -270h-178l-131 139l-131 -139h-178zM170 0v1057h180v-1057h-180z" />
    <glyph glyph-name="idieresis" unicode="&#xef;" horiz-adv-x="520" 
d="M6 1247v201h201v-201h-201zM313 1247v201h201v-201h-201zM170 0v1057h180v-1057h-180z" />
    <glyph glyph-name="eth" unicode="&#xf0;" horiz-adv-x="1136" 
d="M567 -25q-456 0 -456 467v111q0 218 100.5 333t290.5 115q189 0 301 -127q-60 162 -191 312l-290 -113l-54 137l232 90q-123 111 -271 195h269q92 -59 168 -129l200 78l54 -137l-144 -56q120 -142 184 -311t64 -348v-150q0 -467 -457 -467zM567 133q142 0 209.5 77.5
t67.5 240.5v149q-37 113 -115 178.5t-197 65.5q-241 0 -241 -295v-98q0 -163 67 -240.5t209 -77.5z" />
    <glyph glyph-name="ntilde" unicode="&#xf1;" horiz-adv-x="1167" 
d="M705 1225q-37 0 -64 11t-80 46q-36 25 -52.5 32t-33.5 7q-31 0 -45.5 -21.5t-17.5 -70.5h-129q4 121 50.5 180t137.5 59q37 0 63.5 -11t79.5 -46q36 -25 52.5 -32t33.5 -7q31 0 46 21.5t18 70.5h129q-4 -121 -50.5 -180t-137.5 -59zM170 0v1057h154l6 -166
q133 190 352 190q165 0 248.5 -98t83.5 -289v-694h-180v678q0 123 -46 180t-141 57q-185 0 -297 -229v-686h-180z" />
    <glyph glyph-name="ograve" unicode="&#xf2;" horiz-adv-x="1146" 
d="M539 1217l-269 270h226l225 -270h-182zM573 -25q-224 0 -340 118.5t-116 348.5v172q0 230 116 348.5t340 118.5q225 0 341 -118.5t116 -348.5v-172q0 -230 -116 -348.5t-341 -118.5zM573 133q140 0 208.5 78t68.5 238v161q0 159 -68.5 236.5t-208.5 77.5t-208 -77.5
t-68 -236.5v-161q0 -160 68 -238t208 -78z" />
    <glyph glyph-name="oacute" unicode="&#xf3;" horiz-adv-x="1146" 
d="M426 1217l225 270h226l-269 -270h-182zM573 -25q-224 0 -340 118.5t-116 348.5v172q0 230 116 348.5t340 118.5q225 0 341 -118.5t116 -348.5v-172q0 -230 -116 -348.5t-341 -118.5zM573 133q140 0 208.5 78t68.5 238v161q0 159 -68.5 236.5t-208.5 77.5t-208 -77.5
t-68 -236.5v-161q0 -160 68 -238t208 -78z" />
    <glyph glyph-name="ocircumflex" unicode="&#xf4;" horiz-adv-x="1146" 
d="M252 1217l229 270h185l229 -270h-182l-140 141l-139 -141h-182zM573 -25q-224 0 -340 118.5t-116 348.5v172q0 230 116 348.5t340 118.5q225 0 341 -118.5t116 -348.5v-172q0 -230 -116 -348.5t-341 -118.5zM573 133q140 0 208.5 78t68.5 238v161q0 159 -68.5 236.5
t-208.5 77.5t-208 -77.5t-68 -236.5v-161q0 -160 68 -238t208 -78z" />
    <glyph glyph-name="otilde" unicode="&#xf5;" horiz-adv-x="1146" 
d="M690 1225q-37 0 -63.5 11t-79.5 46q-36 25 -52.5 32t-33.5 7q-31 0 -46 -21.5t-18 -70.5h-129q9 239 189 239q37 0 63.5 -11t79.5 -46q36 -25 52.5 -32t33.5 -7q31 0 46 21.5t18 70.5h129q-9 -239 -189 -239zM573 -25q-224 0 -340 118.5t-116 348.5v172q0 230 116 348.5
t340 118.5q225 0 341 -118.5t116 -348.5v-172q0 -230 -116 -348.5t-341 -118.5zM573 133q140 0 208.5 78t68.5 238v161q0 159 -68.5 236.5t-208.5 77.5t-208 -77.5t-68 -236.5v-161q0 -160 68 -238t208 -78z" />
    <glyph glyph-name="odieresis" unicode="&#xf6;" horiz-adv-x="1146" 
d="M291 1247v201h201v-201h-201zM655 1247v201h201v-201h-201zM573 -25q-224 0 -340 118.5t-116 348.5v172q0 230 116 348.5t340 118.5q225 0 341 -118.5t116 -348.5v-172q0 -230 -116 -348.5t-341 -118.5zM573 133q140 0 208.5 78t68.5 238v161q0 159 -68.5 236.5
t-208.5 77.5t-208 -77.5t-68 -236.5v-161q0 -160 68 -238t208 -78z" />
    <glyph glyph-name="divide" unicode="&#xf7;" horiz-adv-x="1232" 
d="M514 956v205h205v-205h-205zM115 555v156h1003v-156h-1003zM514 104v205h205v-205h-205z" />
    <glyph glyph-name="oslash" unicode="&#xf8;" horiz-adv-x="1146" 
d="M1030 987l-67 -86q67 -110 67 -287v-172q0 -230 -116 -348.5t-341 -118.5q-172 0 -282 72l-58 -72l-116 95l67 86q-67 110 -67 286v172q0 230 116 348.5t340 118.5q174 0 283 -71l57 71zM297 449q0 -80 14 -132l441 557q-68 50 -179 50q-140 0 -208 -77.5t-68 -236.5
v-161zM850 610q0 77 -14 129l-439 -557q64 -49 176 -49q140 0 208.5 78t68.5 238v161z" />
    <glyph glyph-name="ugrave" unicode="&#xf9;" horiz-adv-x="1175" 
d="M545 1217l-269 270h226l225 -270h-182zM489 -25q-167 0 -251 98t-84 289v695h180v-678q0 -124 46 -181t142 -57q188 0 303 230v686h181v-1057h-154l-6 168q-134 -193 -357 -193z" />
    <glyph glyph-name="uacute" unicode="&#xfa;" horiz-adv-x="1175" 
d="M432 1217l225 270h226l-269 -270h-182zM489 -25q-167 0 -251 98t-84 289v695h180v-678q0 -124 46 -181t142 -57q188 0 303 230v686h181v-1057h-154l-6 168q-134 -193 -357 -193z" />
    <glyph glyph-name="ucircumflex" unicode="&#xfb;" horiz-adv-x="1175" 
d="M258 1217l229 270h185l229 -270h-182l-139 141l-140 -141h-182zM489 -25q-167 0 -251 98t-84 289v695h180v-678q0 -124 46 -181t142 -57q188 0 303 230v686h181v-1057h-154l-6 168q-134 -193 -357 -193z" />
    <glyph glyph-name="udieresis" unicode="&#xfc;" horiz-adv-x="1175" 
d="M297 1247v201h201v-201h-201zM662 1247v201h200v-201h-200zM489 -25q-167 0 -251 98t-84 289v695h180v-678q0 -124 46 -181t142 -57q188 0 303 230v686h181v-1057h-154l-6 168q-134 -193 -357 -193z" />
    <glyph glyph-name="yacute" unicode="&#xfd;" horiz-adv-x="962" 
d="M336 1217l225 270h225l-268 -270h-182zM119 -373v156h90q62 0 92.5 23.5t52.5 87.5l49 147l-380 1016h192l281 -781l260 781h184l-414 -1184q-50 -140 -115 -193t-186 -53h-106z" />
    <glyph glyph-name="thorn" unicode="&#xfe;" horiz-adv-x="1191" 
d="M170 -373v1868h180v-577q124 163 336 163q186 0 287.5 -112.5t101.5 -327.5v-225q0 -215 -101.5 -328t-287.5 -113q-211 0 -336 164v-512h-180zM664 133q110 0 170.5 74.5t60.5 214.5v213q0 140 -60.5 214.5t-170.5 74.5q-100 0 -180.5 -62.5t-133.5 -177.5v-311
q53 -115 133.5 -177.5t180.5 -62.5z" />
    <glyph glyph-name="ydieresis" unicode="&#xff;" horiz-adv-x="962" 
d="M201 1247v201h200v-201h-200zM565 1247v201h201v-201h-201zM119 -373v156h90q62 0 92.5 23.5t52.5 87.5l49 147l-380 1016h192l281 -781l260 781h184l-414 -1184q-50 -140 -115 -193t-186 -53h-106z" />
    <glyph glyph-name="Amacron" unicode="&#x100;" horiz-adv-x="1239" 
d="M358 1597v144h521v-144h-521zM18 0l508 1393h187l508 -1393h-197l-127 356h-561l-127 -356h-191zM395 524h443l-222 633z" />
    <glyph glyph-name="amacron" unicode="&#x101;" horiz-adv-x="1107" 
d="M281 1280v143h520v-143h-520zM442 -25q-164 0 -258 85t-94 239q0 161 108.5 245.5t327.5 84.5h254v57q0 123 -58 181.5t-181 58.5q-235 0 -244 -191h-176q27 346 426 346q209 0 311.5 -97t102.5 -294v-690h-154l-6 143q-133 -168 -359 -168zM469 131q214 0 311 199v149
h-248q-137 0 -199.5 -43t-62.5 -133q0 -84 50 -128t149 -44z" />
    <glyph glyph-name="Abreve" unicode="&#x102;" horiz-adv-x="1239" 
d="M618 1528q-130 0 -204.5 72.5t-79.5 197.5h141q3 -62 39.5 -95.5t103.5 -33.5t104 33.5t40 95.5h141q-5 -125 -80 -197.5t-205 -72.5zM18 0l508 1393h187l508 -1393h-197l-127 356h-561l-127 -356h-191zM395 524h443l-222 633z" />
    <glyph glyph-name="abreve" unicode="&#x103;" horiz-adv-x="1107" 
d="M541 1210q-130 0 -205 73t-80 198h141q3 -62 40 -95.5t104 -33.5t103.5 33.5t39.5 95.5h141q-5 -125 -79.5 -198t-204.5 -73zM442 -25q-164 0 -258 85t-94 239q0 161 108.5 245.5t327.5 84.5h254v57q0 123 -58 181.5t-181 58.5q-235 0 -244 -191h-176q27 346 426 346
q209 0 311.5 -97t102.5 -294v-690h-154l-6 143q-133 -168 -359 -168zM469 131q214 0 311 199v149h-248q-137 0 -199.5 -43t-62.5 -133q0 -84 50 -128t149 -44z" />
    <glyph glyph-name="Aogonek" unicode="&#x104;" horiz-adv-x="1239" 
d="M1018 -193q0 -81 92 -81q54 0 111 32v-145q-69 -27 -144 -27q-105 0 -163 46t-58 132q0 140 162 254l-121 338h-561l-127 -356h-191l508 1393h187l508 -1393h-47q-156 -97 -156 -193zM395 524h443l-222 633z" />
    <glyph glyph-name="aogonek" unicode="&#x105;" horiz-adv-x="1107" 
d="M913 0q-155 -96 -155 -193q0 -81 92 -81q54 0 111 32v-145q-69 -27 -144 -27q-105 0 -163 46t-58 132q0 158 209 287l-4 92q-133 -168 -359 -168q-164 0 -258 85t-94 239q0 161 108.5 245.5t327.5 84.5h254v57q0 123 -58 181.5t-181 58.5q-235 0 -244 -191h-176
q27 346 426 346q209 0 311.5 -97t102.5 -294v-690h-48zM780 330v149h-248q-137 0 -199.5 -43t-62.5 -133q0 -84 50 -128t149 -44q214 0 311 199z" />
    <glyph glyph-name="Cacute" unicode="&#x106;" horiz-adv-x="1257" 
d="M502 1534l225 270h225l-268 -270h-182zM649 -25q-520 0 -520 551v340q0 551 520 551q490 0 508 -483h-180q-7 161 -87.5 238t-240.5 77q-175 0 -255.5 -93t-80.5 -294v-332q0 -201 80.5 -294t255.5 -93q160 0 240 77t88 237h180q-18 -482 -508 -482z" />
    <glyph glyph-name="cacute" unicode="&#x107;" horiz-adv-x="1058" 
d="M403 1217l226 270h225l-268 -270h-183zM557 -25q-215 0 -327.5 114.5t-112.5 334.5v209q0 220 112.5 334t327.5 114q200 0 308 -99.5t114 -291.5h-174q-9 124 -70.5 179t-175.5 55q-134 0 -198 -71.5t-64 -223.5v-201q0 -152 64 -223.5t198 -71.5q114 0 175.5 55
t70.5 179h174q-6 -192 -114 -292t-308 -100z" />
    <glyph glyph-name="Ccircumflex" unicode="&#x108;" horiz-adv-x="1257" 
d="M328 1534l229 270h184l230 -270h-183l-139 141l-139 -141h-182zM649 -25q-520 0 -520 551v340q0 551 520 551q490 0 508 -483h-180q-7 161 -87.5 238t-240.5 77q-175 0 -255.5 -93t-80.5 -294v-332q0 -201 80.5 -294t255.5 -93q160 0 240 77t88 237h180
q-18 -482 -508 -482z" />
    <glyph glyph-name="ccircumflex" unicode="&#x109;" horiz-adv-x="1058" 
d="M229 1217l230 270h184l229 -270h-182l-139 141l-139 -141h-183zM557 -25q-215 0 -327.5 114.5t-112.5 334.5v209q0 220 112.5 334t327.5 114q200 0 308 -99.5t114 -291.5h-174q-9 124 -70.5 179t-175.5 55q-134 0 -198 -71.5t-64 -223.5v-201q0 -152 64 -223.5t198 -71.5
q114 0 175.5 55t70.5 179h174q-6 -192 -114 -292t-308 -100z" />
    <glyph glyph-name="Cdotaccent" unicode="&#x10a;" horiz-adv-x="1257" 
d="M549 1565v200h201v-200h-201zM649 -25q-520 0 -520 551v340q0 551 520 551q490 0 508 -483h-180q-7 161 -87.5 238t-240.5 77q-175 0 -255.5 -93t-80.5 -294v-332q0 -201 80.5 -294t255.5 -93q160 0 240 77t88 237h180q-18 -482 -508 -482z" />
    <glyph glyph-name="cdotaccent" unicode="&#x10b;" horiz-adv-x="1058" 
d="M451 1247v201h200v-201h-200zM557 -25q-215 0 -327.5 114.5t-112.5 334.5v209q0 220 112.5 334t327.5 114q200 0 308 -99.5t114 -291.5h-174q-9 124 -70.5 179t-175.5 55q-134 0 -198 -71.5t-64 -223.5v-201q0 -152 64 -223.5t198 -71.5q114 0 175.5 55t70.5 179h174
q-6 -192 -114 -292t-308 -100z" />
    <glyph glyph-name="Ccaron" unicode="&#x10c;" horiz-adv-x="1257" 
d="M557 1534l-229 270h182l139 -141l139 141h183l-230 -270h-184zM649 -25q-520 0 -520 551v340q0 551 520 551q490 0 508 -483h-180q-7 161 -87.5 238t-240.5 77q-175 0 -255.5 -93t-80.5 -294v-332q0 -201 80.5 -294t255.5 -93q160 0 240 77t88 237h180
q-18 -482 -508 -482z" />
    <glyph glyph-name="ccaron" unicode="&#x10d;" horiz-adv-x="1058" 
d="M459 1217l-230 270h183l139 -141l139 141h182l-229 -270h-184zM557 -25q-215 0 -327.5 114.5t-112.5 334.5v209q0 220 112.5 334t327.5 114q200 0 308 -99.5t114 -291.5h-174q-9 124 -70.5 179t-175.5 55q-134 0 -198 -71.5t-64 -223.5v-201q0 -152 64 -223.5t198 -71.5
q114 0 175.5 55t70.5 179h174q-6 -192 -114 -292t-308 -100z" />
    <glyph glyph-name="Dcaron" unicode="&#x10e;" horiz-adv-x="1323" 
d="M551 1534l-229 270h182l139 -141l139 141h183l-230 -270h-184zM188 0v1393h480q273 0 400.5 -131t127.5 -410v-311q0 -279 -127.5 -410t-400.5 -131h-480zM373 168h272q197 0 282 87t85 288v307q0 201 -85 288t-282 87h-272v-1057z" />
    <glyph glyph-name="dcaron" unicode="&#x10f;" horiz-adv-x="1191" 
d="M506 -25q-186 0 -287.5 113t-101.5 328v225q0 215 101.5 327.5t287.5 112.5q212 0 336 -163v577h180v-1495h-154l-6 168q-67 -100 -153.5 -146.5t-202.5 -46.5zM1104 1071l86 424h194l-145 -424h-135zM528 133q100 0 180.5 62.5t133.5 177.5v311q-53 115 -133.5 177.5
t-180.5 62.5q-110 0 -170.5 -74.5t-60.5 -214.5v-213q0 -140 60.5 -214.5t170.5 -74.5z" />
    <glyph glyph-name="Dcroat" unicode="&#x110;" horiz-adv-x="1343" 
d="M688 1393q273 0 401 -131t128 -410v-311q0 -279 -128 -410t-401 -131h-479v629h-154v168h154v596h479zM1032 543v307q0 201 -85 288t-281 87h-273v-428h318v-168h-318v-461h273q196 0 281 87t85 288z" />
    <glyph glyph-name="dcroat" unicode="&#x111;" horiz-adv-x="1208" 
d="M1192 1333v-145h-170v-1188h-154l-6 168q-67 -100 -153.5 -146.5t-202.5 -46.5q-186 0 -287.5 113t-101.5 328v225q0 215 101.5 327.5t287.5 112.5q212 0 336 -163v270h-275v145h275v162h180v-162h170zM842 373v311q-53 115 -133.5 177.5t-180.5 62.5
q-110 0 -170.5 -74.5t-60.5 -214.5v-213q0 -140 60.5 -214.5t170.5 -74.5q100 0 180.5 62.5t133.5 177.5z" />
    <glyph glyph-name="Emacron" unicode="&#x112;" horiz-adv-x="1193" 
d="M383 1597v144h520v-144h-520zM188 0v1393h912v-168h-727v-428h624v-168h-624v-461h747v-168h-932z" />
    <glyph glyph-name="emacron" unicode="&#x113;" horiz-adv-x="1122" 
d="M299 1280v143h520v-143h-520zM575 -25q-223 0 -340.5 115.5t-117.5 333.5v209q0 218 114.5 333t331.5 115t332 -115t115 -333v-154h-713v-47q0 -155 66.5 -228t207.5 -73q118 0 182.5 48t73.5 136h174q-10 -167 -121.5 -253.5t-304.5 -86.5zM297 629h539
q0 152 -65.5 224.5t-203.5 72.5q-139 0 -204.5 -72t-65.5 -225z" />
    <glyph glyph-name="Ebreve" unicode="&#x114;" horiz-adv-x="1193" 
d="M643 1528q-130 0 -205 72.5t-80 197.5h142q3 -62 39.5 -95.5t103.5 -33.5t103.5 33.5t39.5 95.5h142q-5 -125 -80 -197.5t-205 -72.5zM188 0v1393h912v-168h-727v-428h624v-168h-624v-461h747v-168h-932z" />
    <glyph glyph-name="ebreve" unicode="&#x115;" horiz-adv-x="1122" 
d="M559 1210q-130 0 -205 73t-80 198h142q3 -62 39.5 -95.5t103.5 -33.5t103.5 33.5t39.5 95.5h142q-5 -125 -80 -198t-205 -73zM575 -25q-223 0 -340.5 115.5t-117.5 333.5v209q0 218 114.5 333t331.5 115t332 -115t115 -333v-154h-713v-47q0 -155 66.5 -228t207.5 -73
q118 0 182.5 48t73.5 136h174q-10 -167 -121.5 -253.5t-304.5 -86.5zM297 629h539q0 152 -65.5 224.5t-203.5 72.5q-139 0 -204.5 -72t-65.5 -225z" />
    <glyph glyph-name="Edotaccent" unicode="&#x116;" horiz-adv-x="1193" 
d="M543 1565v200h200v-200h-200zM188 0v1393h912v-168h-727v-428h624v-168h-624v-461h747v-168h-932z" />
    <glyph glyph-name="edotaccent" unicode="&#x117;" horiz-adv-x="1122" 
d="M459 1247v201h200v-201h-200zM575 -25q-223 0 -340.5 115.5t-117.5 333.5v209q0 218 114.5 333t331.5 115t332 -115t115 -333v-154h-713v-47q0 -155 66.5 -228t207.5 -73q118 0 182.5 48t73.5 136h174q-10 -167 -121.5 -253.5t-304.5 -86.5zM297 629h539
q0 152 -65.5 224.5t-203.5 72.5q-139 0 -204.5 -72t-65.5 -225z" />
    <glyph glyph-name="Eogonek" unicode="&#x118;" horiz-adv-x="1193" 
d="M1073 0q-155 -96 -155 -193q0 -81 92 -81q53 0 110 32v-145q-69 -27 -143 -27q-105 0 -163 46t-58 132q0 127 135 236h-703v1393h912v-168h-727v-428h624v-168h-624v-461h747v-168h-47z" />
    <glyph glyph-name="eogonek" unicode="&#x119;" horiz-adv-x="1122" 
d="M1010 479h-713v-47q0 -155 66.5 -228t207.5 -73q118 0 182.5 48t73.5 136h174q-9 -159 -114 -247q-74 -63 -116 -131.5t-42 -126.5q0 -84 92 -84q59 0 111 32v-145q-58 -27 -144 -27q-108 0 -164.5 47t-56.5 138q0 102 84 209q-63 -5 -76 -5q-223 0 -340.5 115.5
t-117.5 333.5v209q0 218 114.5 333t331.5 115t332 -115t115 -333v-154zM567 926q-139 0 -204.5 -72t-65.5 -225h539q0 152 -65.5 224.5t-203.5 72.5z" />
    <glyph glyph-name="Ecaron" unicode="&#x11a;" horiz-adv-x="1193" 
d="M551 1534l-229 270h182l139 -141l139 141h183l-230 -270h-184zM188 0v1393h912v-168h-727v-428h624v-168h-624v-461h747v-168h-932z" />
    <glyph glyph-name="ecaron" unicode="&#x11b;" horiz-adv-x="1122" 
d="M467 1217l-229 270h182l139 -141l139 141h183l-230 -270h-184zM575 -25q-223 0 -340.5 115.5t-117.5 333.5v209q0 218 114.5 333t331.5 115t332 -115t115 -333v-154h-713v-47q0 -155 66.5 -228t207.5 -73q118 0 182.5 48t73.5 136h174q-10 -167 -121.5 -253.5
t-304.5 -86.5zM297 629h539q0 152 -65.5 224.5t-203.5 72.5q-139 0 -204.5 -72t-65.5 -225z" />
    <glyph glyph-name="Gcircumflex" unicode="&#x11c;" horiz-adv-x="1302" 
d="M330 1534l229 270h184l230 -270h-182l-140 141l-139 -141h-182zM664 -25q-262 0 -398.5 137.5t-136.5 401.5v365q0 261 135 399.5t391 138.5q235 0 368 -116.5t142 -337.5h-180q-8 137 -91.5 211.5t-240.5 74.5q-172 0 -256 -94.5t-84 -286.5v-344q0 -195 86 -288
t267 -93q173 0 253 87.5t80 277.5v76h-297v170h478v-246q0 -533 -516 -533z" />
    <glyph glyph-name="gcircumflex" unicode="&#x11d;" horiz-adv-x="1189" 
d="M252 1217l229 270h185l229 -270h-182l-140 141l-139 -141h-182zM569 -397q-202 0 -311 82.5t-119 244.5h168q14 -172 258 -172q142 0 208.5 64t66.5 201v174q-126 -162 -334 -162q-186 0 -287.5 112.5t-101.5 327.5v166q0 215 101.5 327.5t287.5 112.5q224 0 352 -188
l8 164h154v-1034q0 -420 -451 -420zM528 193q99 0 179 61t133 174v260q-53 114 -133 175t-179 61q-110 0 -170.5 -74.5t-60.5 -214.5v-154q0 -140 60.5 -214t170.5 -74z" />
    <glyph glyph-name="Gbreve" unicode="&#x11e;" horiz-adv-x="1302" 
d="M651 1528q-130 0 -204.5 72.5t-79.5 197.5h141q3 -62 39.5 -95.5t103.5 -33.5t104 33.5t40 95.5h141q-5 -125 -80 -197.5t-205 -72.5zM664 -25q-262 0 -398.5 137.5t-136.5 401.5v365q0 261 135 399.5t391 138.5q235 0 368 -116.5t142 -337.5h-180q-8 137 -91.5 211.5
t-240.5 74.5q-172 0 -256 -94.5t-84 -286.5v-344q0 -195 86 -288t267 -93q173 0 253 87.5t80 277.5v76h-297v170h478v-246q0 -533 -516 -533z" />
    <glyph glyph-name="gbreve" unicode="&#x11f;" horiz-adv-x="1189" 
d="M573 1210q-130 0 -204.5 73t-79.5 198h141q3 -62 39.5 -95.5t103.5 -33.5t104 33.5t40 95.5h141q-5 -125 -80 -198t-205 -73zM569 -397q-202 0 -311 82.5t-119 244.5h168q14 -172 258 -172q142 0 208.5 64t66.5 201v174q-126 -162 -334 -162q-186 0 -287.5 112.5
t-101.5 327.5v166q0 215 101.5 327.5t287.5 112.5q224 0 352 -188l8 164h154v-1034q0 -420 -451 -420zM528 193q99 0 179 61t133 174v260q-53 114 -133 175t-179 61q-110 0 -170.5 -74.5t-60.5 -214.5v-154q0 -140 60.5 -214t170.5 -74z" />
    <glyph glyph-name="Gdotaccent" unicode="&#x120;" horiz-adv-x="1302" 
d="M551 1565v200h201v-200h-201zM664 -25q-262 0 -398.5 137.5t-136.5 401.5v365q0 261 135 399.5t391 138.5q235 0 368 -116.5t142 -337.5h-180q-8 137 -91.5 211.5t-240.5 74.5q-172 0 -256 -94.5t-84 -286.5v-344q0 -195 86 -288t267 -93q173 0 253 87.5t80 277.5v76
h-297v170h478v-246q0 -533 -516 -533z" />
    <glyph glyph-name="gdotaccent" unicode="&#x121;" horiz-adv-x="1189" 
d="M473 1247v201h201v-201h-201zM569 -397q-202 0 -311 82.5t-119 244.5h168q14 -172 258 -172q142 0 208.5 64t66.5 201v174q-126 -162 -334 -162q-186 0 -287.5 112.5t-101.5 327.5v166q0 215 101.5 327.5t287.5 112.5q224 0 352 -188l8 164h154v-1034q0 -420 -451 -420z
M528 193q99 0 179 61t133 174v260q-53 114 -133 175t-179 61q-110 0 -170.5 -74.5t-60.5 -214.5v-154q0 -140 60.5 -214t170.5 -74z" />
    <glyph glyph-name="Gcommaaccent" unicode="&#x122;" horiz-adv-x="1302" 
d="M664 -25q-262 0 -398.5 137.5t-136.5 401.5v365q0 261 135 399.5t391 138.5q235 0 368 -116.5t142 -337.5h-180q-8 137 -91.5 211.5t-240.5 74.5q-172 0 -256 -94.5t-84 -286.5v-344q0 -195 86 -288t267 -93q173 0 253 87.5t80 277.5v76h-297v170h478v-246
q0 -533 -516 -533zM555 -487v86q55 0 75.5 22t20.5 68h-86v159h201v-122q0 -111 -43 -162t-168 -51z" />
    <glyph glyph-name="gcommaaccent" unicode="&#x123;" horiz-adv-x="1189" 
d="M684 1544v-86q-55 0 -75.5 -22t-20.5 -68h86v-160h-201v123q0 111 43 162t168 51zM569 -397q-202 0 -311 82.5t-119 244.5h168q14 -172 258 -172q142 0 208.5 64t66.5 201v174q-126 -162 -334 -162q-186 0 -287.5 112.5t-101.5 327.5v166q0 215 101.5 327.5t287.5 112.5
q224 0 352 -188l8 164h154v-1034q0 -420 -451 -420zM528 193q99 0 179 61t133 174v260q-53 114 -133 175t-179 61q-110 0 -170.5 -74.5t-60.5 -214.5v-154q0 -140 60.5 -214t170.5 -74z" />
    <glyph glyph-name="Hcircumflex" unicode="&#x124;" horiz-adv-x="1419" 
d="M387 1534l229 270h185l229 -270h-182l-139 141l-140 -141h-182zM188 0v1393h185v-594h674v594h184v-1393h-184v627h-674v-627h-185z" />
    <glyph glyph-name="hcircumflex" unicode="&#x125;" horiz-adv-x="1167" 
d="M-61 1636l229 271h184l230 -271h-183l-139 142l-139 -142h-182zM170 0v1495h180v-577q127 163 332 163q165 0 248.5 -98t83.5 -289v-694h-180v678q0 123 -45.5 180t-139.5 57q-95 0 -168.5 -56t-130.5 -173v-686h-180z" />
    <glyph glyph-name="Hbar" unicode="&#x126;" horiz-adv-x="1460" 
d="M1405 1153v-154h-154v-999h-184v627h-674v-627h-184v999h-154v154h154v240h184v-240h674v240h184v-240h154zM1067 799v200h-674v-200h674z" />
    <glyph glyph-name="hbar" unicode="&#x127;" horiz-adv-x="1183" 
d="M698 1081q165 0 248.5 -98t83.5 -289v-694h-180v678q0 123 -45.5 180t-138.5 57q-95 0 -168.5 -56t-130.5 -173v-686h-181v1188h-170v145h170v162h181v-162h274v-145h-274v-270q127 163 331 163z" />
    <glyph glyph-name="Itilde" unicode="&#x128;" horiz-adv-x="561" 
d="M387 1542q-32 0 -56.5 10.5t-74.5 46.5q-54 39 -82 39q-31 0 -44.5 -22.5t-16.5 -69.5h-125q6 240 180 240q34 0 58.5 -10t76.5 -47q57 -39 82 -39q30 0 44 22.5t17 69.5h125q-6 -240 -184 -240zM188 0v1393h185v-1393h-185z" />
    <glyph glyph-name="itilde" unicode="&#x129;" horiz-adv-x="520" 
d="M367 1225q-32 0 -56.5 10.5t-74.5 46.5q-54 39 -82 39q-31 0 -45 -22.5t-17 -69.5h-125q6 239 180 239q34 0 59 -10.5t77 -46.5q57 -39 82 -39q30 0 44 22.5t17 69.5h125q-3 -119 -47.5 -179t-136.5 -60zM170 0v1057h180v-1057h-180z" />
    <glyph glyph-name="Imacron" unicode="&#x12a;" horiz-adv-x="561" 
d="M45 1597v144h473v-144h-473zM188 0v1393h185v-1393h-185z" />
    <glyph glyph-name="imacron" unicode="&#x12b;" horiz-adv-x="520" 
d="M25 1280v143h473v-143h-473zM170 0v1057h180v-1057h-180z" />
    <glyph glyph-name="Ibreve" unicode="&#x12c;" horiz-adv-x="561" 
d="M281 1528q-125 0 -196.5 72.5t-76.5 197.5h139q3 -62 37.5 -95.5t96.5 -33.5t96 33.5t37 95.5h139q-5 -125 -76.5 -197.5t-195.5 -72.5zM188 0v1393h185v-1393h-185z" />
    <glyph glyph-name="ibreve" unicode="&#x12d;" horiz-adv-x="520" 
d="M260 1210q-124 0 -195.5 73t-76.5 198h139q3 -62 37 -95.5t96 -33.5t96 33.5t37 95.5h139q-5 -125 -76.5 -198t-195.5 -73zM170 0v1057h180v-1057h-180z" />
    <glyph glyph-name="Iogonek" unicode="&#x12e;" horiz-adv-x="561" 
d="M319 -274q57 0 111 32v-145q-69 -27 -145 -27q-103 0 -161 47t-58 131q0 128 141 236h-19v1393h185v-1393h-19q-129 -92 -129 -188q0 -41 24 -63.5t70 -22.5z" />
    <glyph glyph-name="iogonek" unicode="&#x12f;" horiz-adv-x="520" 
d="M358 1448v-201h-196v201h196zM297 -274q57 0 111 32v-145q-69 -27 -146 -27q-103 0 -161 47t-58 131q0 128 141 236h-14v1057h180v-1057h-18q-129 -92 -129 -188q0 -41 24 -63.5t70 -22.5z" />
    <glyph glyph-name="Idotaccent" unicode="&#x130;" horiz-adv-x="561" 
d="M180 1565v200h201v-200h-201zM188 0v1393h185v-1393h-185z" />
    <glyph glyph-name="dotlessi" unicode="&#x131;" horiz-adv-x="520" 
d="M170 0v1057h180v-1057h-180z" />
    <glyph glyph-name="IJ" unicode="&#x132;" horiz-adv-x="1685" 
d="M188 0v1393h185v-1393h-185zM1061 -25q-240 0 -352.5 113t-112.5 356v33h178v-33q0 -158 67 -229.5t218 -71.5q155 0 222 77t67 251v922h184v-930q0 -252 -114 -370t-357 -118z" />
    <glyph glyph-name="ij" unicode="&#x133;" horiz-adv-x="1040" 
d="M162 1247v201h196v-201h-196zM682 1247v201h197v-201h-197zM170 0v1057h180v-1057h-180zM516 -373v156h51q73 0 98 27.5t25 109.5v1137h180v-1131q0 -157 -62 -228t-200 -71h-92z" />
    <glyph glyph-name="Jcircumflex" unicode="&#x134;" horiz-adv-x="1124" 
d="M569 1534l219 270h181l219 -270h-178l-131 139l-131 -139h-179zM500 -25q-240 0 -352.5 113t-112.5 356v33h178v-33q0 -158 67 -229.5t218 -71.5q154 0 221 77t67 251v922h185v-930q0 -252 -114 -370t-357 -118z" />
    <glyph glyph-name="jcircumflex" unicode="&#x135;" horiz-adv-x="520" 
d="M-49 1217l219 270h180l219 -270h-178l-131 139l-131 -139h-178zM-4 -373v156h51q73 0 98 27.5t25 109.5v1137h180v-1131q0 -157 -62 -228t-200 -71h-92z" />
    <glyph glyph-name="Kcommaaccent" unicode="&#x136;" horiz-adv-x="1263" 
d="M188 0v1393h185v-740l647 740h227l-495 -570l501 -823h-215l-413 682l-252 -281v-401h-185zM582 -487v86q55 0 75.5 22t20.5 68h-86v159h201v-122q0 -111 -43 -162t-168 -51z" />
    <glyph glyph-name="kcommaaccent" unicode="&#x137;" horiz-adv-x="1079" 
d="M170 0v1495h180v-958l488 520h225l-406 -430l414 -627h-215l-324 496l-182 -191v-305h-180zM481 -487v86q55 0 76 22t21 68h-86v159h200v-122q0 -111 -43 -162t-168 -51z" />
    <glyph glyph-name="kgreenlandic" unicode="&#x138;" horiz-adv-x="1079" 
d="M170 0v1057h180v-520l488 520h225l-406 -430l414 -627h-215l-324 496l-182 -191v-305h-180z" />
    <glyph glyph-name="Lacute" unicode="&#x139;" horiz-adv-x="1058" 
d="M133 1534l225 270h226l-269 -270h-182zM188 0v1393h185v-1223h671v-170h-856z" />
    <glyph glyph-name="lacute" unicode="&#x13a;" horiz-adv-x="520" 
d="M113 1636l225 271h225l-268 -271h-182zM170 0v1495h180v-1495h-180z" />
    <glyph glyph-name="Lcommaaccent" unicode="&#x13b;" horiz-adv-x="1058" 
d="M188 0v1393h185v-1223h671v-170h-856zM506 -487v86q55 0 75.5 22t20.5 68h-86v159h201v-122q0 -111 -43 -162t-168 -51z" />
    <glyph glyph-name="lcommaaccent" unicode="&#x13c;" horiz-adv-x="520" 
d="M170 0v1495h180v-1495h-180zM150 -487v86q55 0 75.5 22t20.5 68h-86v159h200v-122q0 -55 -8.5 -91.5t-30.5 -65.5t-64 -42.5t-107 -13.5z" />
    <glyph glyph-name="Lcaron" unicode="&#x13d;" horiz-adv-x="1058" 
d="M188 0v1393h185v-1223h671v-170h-856zM494 969l86 424h194l-145 -424h-135z" />
    <glyph glyph-name="lcaron" unicode="&#x13e;" horiz-adv-x="520" 
d="M170 0v1495h180v-1495h-180zM432 1071l86 424h195l-146 -424h-135z" />
    <glyph glyph-name="Ldot" unicode="&#x13f;" horiz-adv-x="1058" 
d="M188 0v1393h185v-1223h671v-170h-856zM707 643v205h204v-205h-204z" />
    <glyph glyph-name="ldot" unicode="&#x140;" horiz-adv-x="569" 
d="M170 0v1495h180v-1495h-180zM444 647v180h199v-180h-199z" />
    <glyph glyph-name="Lslash" unicode="&#x141;" horiz-adv-x="1079" 
d="M393 170h672v-170h-856v408l-154 -107v191l154 106v795h184v-668l414 287v-189l-414 -286v-367z" />
    <glyph glyph-name="lslash" unicode="&#x142;" horiz-adv-x="573" 
d="M559 1047v-179l-182 -131v-737h-180v610l-183 -131v178l183 131v707h180v-580z" />
    <glyph glyph-name="Nacute" unicode="&#x143;" horiz-adv-x="1415" 
d="M559 1534l225 270h226l-269 -270h-182zM188 0v1393h220l641 -1059v1059h178v-1393h-180l-680 1122v-1122h-179z" />
    <glyph glyph-name="nacute" unicode="&#x144;" horiz-adv-x="1167" 
d="M440 1217l226 270h225l-268 -270h-183zM170 0v1057h154l6 -166q133 190 352 190q165 0 248.5 -98t83.5 -289v-694h-180v678q0 123 -46 180t-141 57q-185 0 -297 -229v-686h-180z" />
    <glyph glyph-name="Ncommaaccent" unicode="&#x145;" horiz-adv-x="1415" 
d="M188 0v1393h220l641 -1059v1059h178v-1393h-180l-680 1122v-1122h-179zM596 -487v86q55 0 75.5 22t20.5 68h-86v159h201v-122q0 -111 -43 -162t-168 -51z" />
    <glyph glyph-name="ncommaaccent" unicode="&#x146;" horiz-adv-x="1167" 
d="M170 0v1057h154l6 -166q133 190 352 190q165 0 248.5 -98t83.5 -289v-694h-180v678q0 123 -46 180t-141 57q-185 0 -297 -229v-686h-180zM481 -487v86q55 0 76 22t21 68h-86v159h200v-122q0 -111 -43 -162t-168 -51z" />
    <glyph glyph-name="Ncaron" unicode="&#x147;" horiz-adv-x="1415" 
d="M614 1534l-229 270h182l140 -141l139 141h182l-229 -270h-185zM188 0v1393h220l641 -1059v1059h178v-1393h-180l-680 1122v-1122h-179z" />
    <glyph glyph-name="ncaron" unicode="&#x148;" horiz-adv-x="1167" 
d="M496 1217l-230 270h183l139 -141l139 141h182l-229 -270h-184zM170 0v1057h154l6 -166q133 190 352 190q165 0 248.5 -98t83.5 -289v-694h-180v678q0 123 -46 180t-141 57q-185 0 -297 -229v-686h-180z" />
    <glyph glyph-name="napostrophe" unicode="&#x149;" horiz-adv-x="1167" 
d="M156 1145v86q49 0 68.5 21t21.5 63h-80v180h194v-137q0 -55 -8 -91.5t-30 -65.5t-62.5 -42.5t-103.5 -13.5zM170 0v1057h154l6 -166q133 190 352 190q165 0 248.5 -98t83.5 -289v-694h-180v678q0 123 -46 180t-141 57q-185 0 -297 -229v-686h-180z" />
    <glyph glyph-name="Eng" unicode="&#x14a;" horiz-adv-x="1415" 
d="M870 -373v156h56q73 0 98 27.5t25 109.5v78l-682 1124v-1122h-179v1393h220l641 -1059v1059h178v-1467q0 -157 -62 -228t-200 -71h-95z" />
    <glyph glyph-name="eng" unicode="&#x14b;" horiz-adv-x="1167" 
d="M682 1081q165 0 248.5 -98t83.5 -289v-768q0 -157 -62 -228t-200 -71h-93v154h52q74 0 98.5 28t24.5 111v758q0 123 -46 180t-141 57q-185 0 -297 -229v-686h-180v1057h154l6 -166q133 190 352 190z" />
    <glyph glyph-name="Omacron" unicode="&#x14c;" horiz-adv-x="1339" 
d="M410 1597v144h520v-144h-520zM670 -25q-541 0 -541 555v332q0 555 541 555q540 0 540 -555v-332q0 -555 -540 -555zM670 143q184 0 270 93.5t86 293.5v332q0 200 -86 293.5t-270 93.5t-270.5 -93.5t-86.5 -293.5v-332q0 -200 86.5 -293.5t270.5 -93.5z" />
    <glyph glyph-name="omacron" unicode="&#x14d;" horiz-adv-x="1146" 
d="M313 1280v143h521v-143h-521zM573 -25q-224 0 -340 118.5t-116 348.5v172q0 230 116 348.5t340 118.5q225 0 341 -118.5t116 -348.5v-172q0 -230 -116 -348.5t-341 -118.5zM573 133q140 0 208.5 78t68.5 238v161q0 159 -68.5 236.5t-208.5 77.5t-208 -77.5t-68 -236.5
v-161q0 -160 68 -238t208 -78z" />
    <glyph glyph-name="Obreve" unicode="&#x14e;" horiz-adv-x="1339" 
d="M670 1528q-130 0 -205 72.5t-80 197.5h141q3 -62 40 -95.5t104 -33.5t103.5 33.5t39.5 95.5h141q-5 -125 -79.5 -197.5t-204.5 -72.5zM670 -25q-541 0 -541 555v332q0 555 541 555q540 0 540 -555v-332q0 -555 -540 -555zM670 143q184 0 270 93.5t86 293.5v332
q0 200 -86 293.5t-270 93.5t-270.5 -93.5t-86.5 -293.5v-332q0 -200 86.5 -293.5t270.5 -93.5z" />
    <glyph glyph-name="obreve" unicode="&#x14f;" horiz-adv-x="1146" 
d="M573 1210q-130 0 -204.5 73t-79.5 198h141q3 -62 39.5 -95.5t103.5 -33.5t104 33.5t40 95.5h141q-5 -125 -80 -198t-205 -73zM573 -25q-224 0 -340 118.5t-116 348.5v172q0 230 116 348.5t340 118.5q225 0 341 -118.5t116 -348.5v-172q0 -230 -116 -348.5t-341 -118.5z
M573 133q140 0 208.5 78t68.5 238v161q0 159 -68.5 236.5t-208.5 77.5t-208 -77.5t-68 -236.5v-161q0 -160 68 -238t208 -78z" />
    <glyph glyph-name="Ohungarumlaut" unicode="&#x150;" horiz-adv-x="1339" 
d="M367 1534l176 270h219l-223 -270h-172zM735 1534l176 270h219l-223 -270h-172zM670 -25q-541 0 -541 555v332q0 555 541 555q540 0 540 -555v-332q0 -555 -540 -555zM670 143q184 0 270 93.5t86 293.5v332q0 200 -86 293.5t-270 93.5t-270.5 -93.5t-86.5 -293.5v-332
q0 -200 86.5 -293.5t270.5 -93.5z" />
    <glyph glyph-name="ohungarumlaut" unicode="&#x151;" horiz-adv-x="1146" 
d="M270 1217l176 270h220l-224 -270h-172zM639 1217l176 270h219l-223 -270h-172zM573 -25q-224 0 -340 118.5t-116 348.5v172q0 230 116 348.5t340 118.5q225 0 341 -118.5t116 -348.5v-172q0 -230 -116 -348.5t-341 -118.5zM573 133q140 0 208.5 78t68.5 238v161
q0 159 -68.5 236.5t-208.5 77.5t-208 -77.5t-68 -236.5v-161q0 -160 68 -238t208 -78z" />
    <glyph glyph-name="OE" unicode="&#x152;" horiz-adv-x="1863" 
d="M657 0q-275 0 -402.5 131t-127.5 410v311q0 279 127.5 410t402.5 131h1112v-168h-675v-428h573v-168h-573v-461h696v-168h-1133zM678 168h231v1057h-231q-195 0 -281 -87t-86 -288v-307q0 -201 86 -288t281 -87z" />
    <glyph glyph-name="oe" unicode="&#x153;" horiz-adv-x="1855" 
d="M565 -25q-219 0 -333.5 119.5t-114.5 347.5v172q0 228 114.5 347.5t333.5 119.5q272 0 373 -186q98 186 369 186q213 0 324.5 -114.5t111.5 -333.5v-154h-713v-47q0 -155 66 -228t207 -73q120 0 184.5 48t73.5 136h174q-10 -165 -119.5 -252.5t-300.5 -87.5
q-275 0 -377 187q-102 -187 -373 -187zM1030 629h539q0 153 -65.5 225t-205.5 72q-139 0 -203.5 -72t-64.5 -225zM571 133q279 0 279 316v161q0 314 -279 314q-139 0 -206.5 -77t-67.5 -237v-161q0 -160 67.5 -238t206.5 -78z" />
    <glyph glyph-name="Racute" unicode="&#x154;" horiz-adv-x="1292" 
d="M479 1534l226 270h225l-268 -270h-183zM188 0v1393h535q238 0 343 -97t105 -317q0 -180 -68.5 -276t-219.5 -125l340 -578h-213l-332 565h-305v-565h-185zM373 733h334q155 0 217.5 55.5t62.5 190.5t-62.5 190.5t-217.5 55.5h-334v-492z" />
    <glyph glyph-name="racute" unicode="&#x155;" horiz-adv-x="733" 
d="M262 1217l225 270h226l-269 -270h-182zM170 0v1057h154l8 -197q40 112 113.5 164.5t189.5 52.5h72v-178h-54q-130 0 -203.5 -70t-99.5 -221v-608h-180z" />
    <glyph glyph-name="Rcommaaccent" unicode="&#x156;" horiz-adv-x="1292" 
d="M188 0v1393h535q238 0 343 -97t105 -317q0 -180 -68.5 -276t-219.5 -125l340 -578h-213l-332 565h-305v-565h-185zM373 733h334q155 0 217.5 55.5t62.5 190.5t-62.5 190.5t-217.5 55.5h-334v-492zM573 -487v86q55 0 76 22t21 68h-86v159h200v-122q0 -111 -43 -162
t-168 -51z" />
    <glyph glyph-name="rcommaaccent" unicode="&#x157;" horiz-adv-x="733" 
d="M170 0v1057h154l8 -197q40 112 113.5 164.5t189.5 52.5h72v-178h-54q-130 0 -203.5 -70t-99.5 -221v-608h-180zM150 -487v86q55 0 75.5 22t20.5 68h-86v159h200v-122q0 -55 -8.5 -91.5t-30.5 -65.5t-64 -42.5t-107 -13.5z" />
    <glyph glyph-name="Rcaron" unicode="&#x158;" horiz-adv-x="1292" 
d="M535 1534l-230 270h182l140 -141l139 141h182l-229 -270h-184zM188 0v1393h535q238 0 343 -97t105 -317q0 -180 -68.5 -276t-219.5 -125l340 -578h-213l-332 565h-305v-565h-185zM373 733h334q155 0 217.5 55.5t62.5 190.5t-62.5 190.5t-217.5 55.5h-334v-492z" />
    <glyph glyph-name="rcaron" unicode="&#x159;" horiz-adv-x="733" 
d="M317 1217l-229 270h182l140 -141l139 141h182l-229 -270h-185zM170 0v1057h154l8 -197q40 112 113.5 164.5t189.5 52.5h72v-178h-54q-130 0 -203.5 -70t-99.5 -221v-608h-180z" />
    <glyph glyph-name="Sacute" unicode="&#x15a;" horiz-adv-x="1142" 
d="M410 1534l225 270h225l-268 -270h-182zM575 -25q-501 0 -501 420h184q0 -252 320 -252q305 0 305 224q0 113 -77.5 170.5t-268.5 83.5q-239 32 -339 121.5t-100 269.5q0 199 124 302t360 103q462 0 462 -407h-184q0 121 -70 180t-215 59q-142 0 -218 -56.5t-76 -162.5
q0 -105 72.5 -158.5t248.5 -76.5q251 -32 357 -126.5t106 -285.5q0 -408 -490 -408z" />
    <glyph glyph-name="sacute" unicode="&#x15b;" horiz-adv-x="1017" 
d="M354 1217l226 270h225l-268 -270h-183zM512 -25q-434 0 -434 336h172q0 -182 262 -182q122 0 184 40t62 116q0 78 -61.5 116.5t-215.5 57.5q-207 25 -293 93.5t-86 209.5q0 154 105.5 236.5t302.5 82.5t299 -82.5t102 -242.5h-176q0 172 -227 172q-110 0 -169.5 -40
t-59.5 -112t59.5 -106t206.5 -49q212 -23 300.5 -97t88.5 -225q0 -160 -106.5 -242t-315.5 -82z" />
    <glyph glyph-name="Scircumflex" unicode="&#x15c;" horiz-adv-x="1142" 
d="M236 1534l229 270h184l230 -270h-183l-139 141l-139 -141h-182zM575 -25q-501 0 -501 420h184q0 -252 320 -252q305 0 305 224q0 113 -77.5 170.5t-268.5 83.5q-239 32 -339 121.5t-100 269.5q0 199 124 302t360 103q462 0 462 -407h-184q0 121 -70 180t-215 59
q-142 0 -218 -56.5t-76 -162.5q0 -105 72.5 -158.5t248.5 -76.5q251 -32 357 -126.5t106 -285.5q0 -408 -490 -408z" />
    <glyph glyph-name="scircumflex" unicode="&#x15d;" horiz-adv-x="1017" 
d="M180 1217l230 270h184l229 -270h-182l-139 141l-140 -141h-182zM512 -25q-434 0 -434 336h172q0 -182 262 -182q122 0 184 40t62 116q0 78 -61.5 116.5t-215.5 57.5q-207 25 -293 93.5t-86 209.5q0 154 105.5 236.5t302.5 82.5t299 -82.5t102 -242.5h-176q0 172 -227 172
q-110 0 -169.5 -40t-59.5 -112t59.5 -106t206.5 -49q212 -23 300.5 -97t88.5 -225q0 -160 -106.5 -242t-315.5 -82z" />
    <glyph glyph-name="Scedilla" unicode="&#x15e;" horiz-adv-x="1142" 
d="M1065 383q0 -382 -430 -406l-37 -96q100 -1 147.5 -36.5t47.5 -106.5q0 -75 -55.5 -115.5t-186.5 -40.5t-205 43l37 99q64 -37 137 -37q103 0 103 59q0 26 -22.5 36.5t-88.5 10.5h-57l69 184q-450 18 -450 418h184q0 -252 320 -252q305 0 305 224q0 113 -77.5 170.5
t-268.5 83.5q-239 32 -339 121.5t-100 269.5q0 199 124 302t360 103q462 0 462 -407h-184q0 121 -70 180t-215 59q-142 0 -218 -56.5t-76 -162.5q0 -105 72.5 -158.5t248.5 -76.5q251 -32 357 -126.5t106 -285.5z" />
    <glyph glyph-name="scedilla" unicode="&#x15f;" horiz-adv-x="1017" 
d="M934 299q0 -149 -92.5 -230t-274.5 -92l-37 -96q100 -1 147.5 -36.5t47.5 -106.5q0 -75 -55.5 -115.5t-186.5 -40.5q-130 0 -204 43l36 99q64 -37 138 -37q102 0 102 59q0 26 -22.5 36.5t-88.5 10.5h-57l70 184q-379 18 -379 334h172q0 -182 262 -182q122 0 184 40
t62 116q0 78 -61.5 116.5t-215.5 57.5q-207 25 -293 93.5t-86 209.5q0 154 105.5 236.5t302.5 82.5t299 -82.5t102 -242.5h-176q0 172 -227 172q-110 0 -169.5 -40t-59.5 -112t59.5 -106t206.5 -49q212 -23 300.5 -97t88.5 -225z" />
    <glyph glyph-name="Scaron" unicode="&#x160;" horiz-adv-x="1142" 
d="M465 1534l-229 270h182l139 -141l139 141h183l-230 -270h-184zM575 -25q-501 0 -501 420h184q0 -252 320 -252q305 0 305 224q0 113 -77.5 170.5t-268.5 83.5q-239 32 -339 121.5t-100 269.5q0 199 124 302t360 103q462 0 462 -407h-184q0 121 -70 180t-215 59
q-142 0 -218 -56.5t-76 -162.5q0 -105 72.5 -158.5t248.5 -76.5q251 -32 357 -126.5t106 -285.5q0 -408 -490 -408z" />
    <glyph glyph-name="scaron" unicode="&#x161;" horiz-adv-x="1017" 
d="M410 1217l-230 270h182l140 -141l139 141h182l-229 -270h-184zM512 -25q-434 0 -434 336h172q0 -182 262 -182q122 0 184 40t62 116q0 78 -61.5 116.5t-215.5 57.5q-207 25 -293 93.5t-86 209.5q0 154 105.5 236.5t302.5 82.5t299 -82.5t102 -242.5h-176q0 172 -227 172
q-110 0 -169.5 -40t-59.5 -112t59.5 -106t206.5 -49q212 -23 300.5 -97t88.5 -225q0 -160 -106.5 -242t-315.5 -82z" />
    <glyph glyph-name="uni0162" unicode="&#x162;" horiz-adv-x="1036" 
d="M610 0h-35l-51 -119q98 -1 144.5 -36.5t46.5 -106.5q0 -75 -55.5 -115.5t-186.5 -40.5t-205 43l37 99q64 -37 137 -37q103 0 103 59q0 26 -22.5 36.5t-88.5 10.5h-57l88 207h-39v1223h-412v170h1008v-170h-412v-1223z" />
    <glyph glyph-name="uni0163" unicode="&#x163;" horiz-adv-x="698" 
d="M498 0q-27 0 -39 2l-45 -121q100 -1 147 -36.5t47 -106.5q0 -76 -55 -116t-186 -40t-205 43l37 99q64 -37 137 -37q102 0 102 59q0 26 -22 36.5t-88 10.5h-58l86 230q-76 31 -111.5 105.5t-35.5 201.5v579h-182v148h186l14 278h162v-278h260v-148h-260v-581
q0 -103 30.5 -137.5t121.5 -34.5h121v-156h-164z" />
    <glyph glyph-name="Tcaron" unicode="&#x164;" horiz-adv-x="1036" 
d="M426 1534l-229 270h182l139 -141l139 141h183l-230 -270h-184zM426 0v1223h-412v170h1008v-170h-412v-1223h-184z" />
    <glyph glyph-name="tcaron" unicode="&#x165;" horiz-adv-x="698" 
d="M459 1163l86 424h194l-145 -424h-135zM498 0q-152 0 -220.5 78.5t-68.5 251.5v579h-182v148h186l14 278h162v-278h260v-148h-260v-581q0 -103 30.5 -137.5t121.5 -34.5h121v-156h-164z" />
    <glyph glyph-name="Tbar" unicode="&#x166;" horiz-adv-x="1036" 
d="M1022 1223h-412v-426h277v-168h-277v-629h-184v629h-276v168h276v426h-412v170h1008v-170z" />
    <glyph glyph-name="tbar" unicode="&#x167;" horiz-adv-x="698" 
d="M541 156h121v-156h-164q-152 0 -220.5 78.5t-68.5 251.5v235h-168v146h168v198h-182v148h186l14 278h162v-278h260v-148h-260v-198h242v-146h-242v-237q0 -103 30.5 -137.5t121.5 -34.5z" />
    <glyph glyph-name="Utilde" unicode="&#x168;" horiz-adv-x="1310" 
d="M772 1542q-37 0 -63.5 11t-79.5 46q-36 25 -52.5 32t-33.5 7q-31 0 -46 -21.5t-18 -70.5h-129q9 240 189 240q37 0 63.5 -11t79.5 -46q36 -25 52.5 -32t33.5 -7q31 0 45.5 21.5t17.5 70.5h130q-9 -240 -189 -240zM655 -25q-264 0 -382.5 115t-118.5 369v934h184v-932
q0 -173 72 -245.5t247 -72.5q177 0 249.5 72t72.5 246v932h178v-934q0 -254 -119 -369t-383 -115z" />
    <glyph glyph-name="utilde" unicode="&#x169;" horiz-adv-x="1175" 
d="M696 1225q-37 0 -63.5 11t-79.5 46q-36 25 -52.5 32t-33.5 7q-31 0 -46 -21.5t-18 -70.5h-129q9 239 189 239q37 0 63.5 -11t79.5 -46q36 -25 52.5 -32t33.5 -7q31 0 46 21.5t18 70.5h129q-9 -239 -189 -239zM489 -25q-167 0 -251 98t-84 289v695h180v-678
q0 -124 46 -181t142 -57q188 0 303 230v686h181v-1057h-154l-6 168q-134 -193 -357 -193z" />
    <glyph glyph-name="Umacron" unicode="&#x16a;" horiz-adv-x="1310" 
d="M395 1597v144h520v-144h-520zM655 -25q-264 0 -382.5 115t-118.5 369v934h184v-932q0 -173 72 -245.5t247 -72.5q177 0 249.5 72t72.5 246v932h178v-934q0 -254 -119 -369t-383 -115z" />
    <glyph glyph-name="umacron" unicode="&#x16b;" horiz-adv-x="1175" 
d="M319 1280v143h521v-143h-521zM489 -25q-167 0 -251 98t-84 289v695h180v-678q0 -124 46 -181t142 -57q188 0 303 230v686h181v-1057h-154l-6 168q-134 -193 -357 -193z" />
    <glyph glyph-name="Ubreve" unicode="&#x16c;" horiz-adv-x="1310" 
d="M655 1528q-130 0 -204.5 72.5t-79.5 197.5h141q3 -62 39.5 -95.5t103.5 -33.5t104 33.5t40 95.5h141q-5 -125 -80 -197.5t-205 -72.5zM655 -25q-264 0 -382.5 115t-118.5 369v934h184v-932q0 -173 72 -245.5t247 -72.5q177 0 249.5 72t72.5 246v932h178v-934
q0 -254 -119 -369t-383 -115z" />
    <glyph glyph-name="ubreve" unicode="&#x16d;" horiz-adv-x="1175" 
d="M580 1210q-130 0 -205 73t-80 198h141q3 -62 40 -95.5t104 -33.5t103.5 33.5t39.5 95.5h141q-5 -125 -79.5 -198t-204.5 -73zM489 -25q-167 0 -251 98t-84 289v695h180v-678q0 -124 46 -181t142 -57q188 0 303 230v686h181v-1057h-154l-6 168q-134 -193 -357 -193z" />
    <glyph glyph-name="Uring" unicode="&#x16e;" horiz-adv-x="1310" 
d="M655 1499q-96 0 -157.5 60t-61.5 153q0 92 62 152.5t157 60.5t157 -60.5t62 -152.5q0 -93 -61.5 -153t-157.5 -60zM655 1618q39 0 63.5 26t24.5 68q0 41 -24.5 66.5t-63.5 25.5t-63.5 -25.5t-24.5 -66.5q0 -42 24.5 -68t63.5 -26zM655 -25q-264 0 -382.5 115t-118.5 369
v934h184v-932q0 -173 72 -245.5t247 -72.5q177 0 249.5 72t72.5 246v932h178v-934q0 -254 -119 -369t-383 -115z" />
    <glyph glyph-name="uring" unicode="&#x16f;" horiz-adv-x="1175" 
d="M580 1182q-96 0 -158 60t-62 153q0 92 62.5 152.5t157.5 60.5t157 -60.5t62 -152.5q0 -93 -61.5 -153t-157.5 -60zM580 1300q39 0 63.5 26.5t24.5 68.5q0 41 -24.5 66.5t-63.5 25.5t-63.5 -25.5t-24.5 -66.5q0 -42 24.5 -68.5t63.5 -26.5zM489 -25q-167 0 -251 98
t-84 289v695h180v-678q0 -124 46 -181t142 -57q188 0 303 230v686h181v-1057h-154l-6 168q-134 -193 -357 -193z" />
    <glyph glyph-name="Uhungarumlaut" unicode="&#x170;" horiz-adv-x="1310" 
d="M352 1534l176 270h220l-224 -270h-172zM721 1534l176 270h219l-223 -270h-172zM655 -25q-264 0 -382.5 115t-118.5 369v934h184v-932q0 -173 72 -245.5t247 -72.5q177 0 249.5 72t72.5 246v932h178v-934q0 -254 -119 -369t-383 -115z" />
    <glyph glyph-name="uhungarumlaut" unicode="&#x171;" horiz-adv-x="1175" 
d="M276 1217l177 270h219l-223 -270h-173zM645 1217l176 270h219l-223 -270h-172zM489 -25q-167 0 -251 98t-84 289v695h180v-678q0 -124 46 -181t142 -57q188 0 303 230v686h181v-1057h-154l-6 168q-134 -193 -357 -193z" />
    <glyph glyph-name="Uogonek" unicode="&#x172;" horiz-adv-x="1310" 
d="M979 1393h178v-934q0 -196 -69.5 -307.5t-219.5 -151.5q-91 -38 -138.5 -87.5t-47.5 -105.5q0 -81 94 -81q51 0 109 32v-145q-58 -27 -142 -27q-106 0 -164.5 46.5t-58.5 131.5q0 120 117 211q-253 3 -368 118.5t-115 365.5v934h184v-932q0 -173 72 -245.5t247 -72.5
q177 0 249.5 72t72.5 246v932z" />
    <glyph glyph-name="uogonek" unicode="&#x173;" horiz-adv-x="1175" 
d="M958 0q-155 -96 -155 -193q0 -81 92 -81q54 0 111 32v-145q-69 -27 -144 -27q-105 0 -163 46t-58 132q0 158 209 287l-4 117q-134 -193 -357 -193q-167 0 -251 98t-84 289v695h180v-678q0 -124 46 -181t142 -57q188 0 303 230v686h181v-1057h-48z" />
    <glyph glyph-name="Wcircumflex" unicode="&#x174;" horiz-adv-x="1765" 
d="M561 1534l230 270h184l229 -270h-182l-139 141l-140 -141h-182zM395 0l-375 1393h191l285 -1090l299 1090h180l301 -1094l285 1094h184l-375 -1393h-188l-299 1079l-301 -1079h-187z" />
    <glyph glyph-name="wcircumflex" unicode="&#x175;" horiz-adv-x="1587" 
d="M473 1217l229 270h185l229 -270h-182l-139 141l-140 -141h-182zM352 0l-329 1057h190l240 -819l254 819h178l256 -824l239 824h185l-330 -1057h-193l-247 797l-250 -797h-193z" />
    <glyph glyph-name="Ycircumflex" unicode="&#x176;" horiz-adv-x="1130" 
d="M244 1534l229 270h184l230 -270h-182l-140 141l-139 -141h-182zM473 0v594l-493 799h215l376 -609l375 609h205l-494 -799v-594h-184z" />
    <glyph glyph-name="ycircumflex" unicode="&#x177;" horiz-adv-x="962" 
d="M162 1217l229 270h184l230 -270h-182l-140 141l-139 -141h-182zM119 -373v156h90q62 0 92.5 23.5t52.5 87.5l49 147l-380 1016h192l281 -781l260 781h184l-414 -1184q-50 -140 -115 -193t-186 -53h-106z" />
    <glyph glyph-name="Ydieresis" unicode="&#x178;" horiz-adv-x="1130" 
d="M283 1565v200h200v-200h-200zM647 1565v200h201v-200h-201zM473 0v594l-493 799h215l376 -609l375 609h205l-494 -799v-594h-184z" />
    <glyph glyph-name="Zacute" unicode="&#x179;" horiz-adv-x="1124" 
d="M424 1534l225 270h225l-268 -270h-182zM66 0v152l745 1073h-709v168h940v-150l-743 -1075h760v-168h-993z" />
    <glyph glyph-name="zacute" unicode="&#x17a;" horiz-adv-x="948" 
d="M332 1217l225 270h225l-268 -270h-182zM61 0v135l582 768h-539v154h768v-135l-581 -768h592v-154h-822z" />
    <glyph glyph-name="Zdotaccent" unicode="&#x17b;" horiz-adv-x="1124" 
d="M471 1565v200h201v-200h-201zM66 0v152l745 1073h-709v168h940v-150l-743 -1075h760v-168h-993z" />
    <glyph glyph-name="zdotaccent" unicode="&#x17c;" horiz-adv-x="948" 
d="M379 1247v201h201v-201h-201zM61 0v135l582 768h-539v154h768v-135l-581 -768h592v-154h-822z" />
    <glyph glyph-name="Zcaron" unicode="&#x17d;" horiz-adv-x="1124" 
d="M479 1534l-229 270h182l139 -141l140 141h182l-229 -270h-185zM66 0v152l745 1073h-709v168h940v-150l-743 -1075h760v-168h-993z" />
    <glyph glyph-name="zcaron" unicode="&#x17e;" horiz-adv-x="948" 
d="M387 1217l-229 270h182l139 -141l139 141h183l-230 -270h-184zM61 0v135l582 768h-539v154h768v-135l-581 -768h592v-154h-822z" />
    <glyph glyph-name="florin" unicode="&#x192;" horiz-adv-x="1232" 
d="M121 -123l16 154h113q92 0 136.5 44.5t57.5 153.5l68 559h-260v156h280l19 158q22 178 98.5 255t231.5 77h192l-16 -154h-133q-92 0 -137 -45t-58 -154l-16 -137h301v-156h-320l-71 -579q-22 -178 -98.5 -255t-231.5 -77h-172z" />
    <glyph glyph-name="Aringacute" unicode="&#x1fa;" horiz-adv-x="1239" 
d="M471 1956l225 270h226l-269 -270h-182zM618 1468q-96 0 -157.5 60t-61.5 153q0 92 62 152.5t157 60.5t157.5 -60.5t62.5 -152.5q0 -93 -62 -153t-158 -60zM618 1587q39 0 64 26t25 68q0 41 -25 67t-64 26q-38 0 -63 -26t-25 -67q0 -42 24.5 -68t63.5 -26zM18 0l508 1393
h187l508 -1393h-197l-127 356h-561l-127 -356h-191zM395 524h443l-222 633z" />
    <glyph glyph-name="aringacute" unicode="&#x1fb;" horiz-adv-x="1107" 
d="M393 1638l225 271h226l-269 -271h-182zM541 1151q-96 0 -157.5 60t-61.5 153q0 92 62 152.5t157 60.5t157 -60.5t62 -152.5q0 -93 -61.5 -153t-157.5 -60zM541 1270q39 0 63.5 26t24.5 68q0 41 -24.5 66.5t-63.5 25.5t-63.5 -25.5t-24.5 -66.5q0 -42 24.5 -68t63.5 -26z
M442 -25q-164 0 -258 85t-94 239q0 161 108.5 245.5t327.5 84.5h254v57q0 123 -58 181.5t-181 58.5q-235 0 -244 -191h-176q27 346 426 346q209 0 311.5 -97t102.5 -294v-690h-154l-6 143q-133 -168 -359 -168zM469 131q214 0 311 199v149h-248q-137 0 -199.5 -43
t-62.5 -133q0 -84 50 -128t149 -44z" />
    <glyph glyph-name="AEacute" unicode="&#x1fc;" horiz-adv-x="1832" 
d="M791 1534l225 270h225l-268 -270h-182zM-20 0l827 1393h932v-168h-674v-428h571v-168h-571v-461h694v-168h-878v356h-484l-211 -356h-206zM494 524h387v672z" />
    <glyph glyph-name="aeacute" unicode="&#x1fd;" horiz-adv-x="1785" 
d="M733 1217l225 270h226l-269 -270h-182zM446 -25q-166 0 -261 83.5t-95 238.5q0 161 108 246.5t326 85.5h256v59q0 122 -57.5 180t-181.5 58q-229 0 -244 -191h-176q30 346 411 346q272 0 353 -182q92 182 354 182q211 0 322.5 -114.5t111.5 -333.5v-154h-712v-47
q0 -155 67.5 -228t208.5 -73q118 0 181.5 48t72.5 136h174q-10 -166 -120 -253t-308 -87q-291 0 -397 189q-148 -189 -394 -189zM961 629h538q0 153 -64 225t-202 72q-139 0 -205.5 -72.5t-66.5 -224.5zM469 131q211 0 315 209q-4 54 -4 84v55h-250q-134 0 -197 -44
t-63 -134q0 -83 50.5 -126.5t148.5 -43.5z" />
    <glyph glyph-name="Oslashacute" unicode="&#x1fe;" horiz-adv-x="1339" 
d="M973 1804l-268 -270h-183l226 270h225zM1210 1325l-82 -115q82 -131 82 -348v-332q0 -555 -540 -555q-215 0 -348 91l-64 -91l-129 93l82 114q-82 131 -82 348v332q0 555 541 555q217 0 348 -90l63 90zM313 530q0 -98 21 -172l579 822q-84 69 -243 69
q-184 0 -270.5 -93.5t-86.5 -293.5v-332zM1026 862q0 102 -20 172l-580 -821q85 -70 244 -70q184 0 270 93.5t86 293.5v332z" />
    <glyph glyph-name="oslashacute" unicode="&#x1ff;" horiz-adv-x="1146" 
d="M877 1487l-269 -270h-182l225 270h226zM1030 987l-67 -86q67 -110 67 -287v-172q0 -230 -116 -348.5t-341 -118.5q-172 0 -282 72l-58 -72l-116 95l67 86q-67 110 -67 286v172q0 230 116 348.5t340 118.5q174 0 283 -71l57 71zM297 449q0 -80 14 -132l441 557
q-68 50 -179 50q-140 0 -208 -77.5t-68 -236.5v-161zM850 610q0 77 -14 129l-439 -557q64 -49 176 -49q140 0 208.5 78t68.5 238v161z" />
    <glyph glyph-name="Scommaaccent" unicode="&#x218;" horiz-adv-x="1142" 
d="M575 -25q-501 0 -501 420h184q0 -252 320 -252q305 0 305 224q0 113 -77.5 170.5t-268.5 83.5q-239 32 -339 121.5t-100 269.5q0 199 124 302t360 103q462 0 462 -407h-184q0 121 -70 180t-215 59q-142 0 -218 -56.5t-76 -162.5q0 -105 72.5 -158.5t248.5 -76.5
q251 -32 357 -126.5t106 -285.5q0 -408 -490 -408zM485 -487v86q55 0 76 22t21 68h-86v159h200v-122q0 -111 -43 -162t-168 -51z" />
    <glyph glyph-name="scommaaccent" unicode="&#x219;" horiz-adv-x="1017" 
d="M512 -25q-434 0 -434 336h172q0 -182 262 -182q122 0 184 40t62 116q0 78 -61.5 116.5t-215.5 57.5q-207 25 -293 93.5t-86 209.5q0 154 105.5 236.5t302.5 82.5t299 -82.5t102 -242.5h-176q0 172 -227 172q-110 0 -169.5 -40t-59.5 -112t59.5 -106t206.5 -49
q212 -23 300.5 -97t88.5 -225q0 -160 -106.5 -242t-315.5 -82zM418 -487v86q55 0 75.5 22t20.5 68h-86v159h201v-122q0 -111 -43 -162t-168 -51z" />
    <glyph glyph-name="uni021A" unicode="&#x21a;" horiz-adv-x="1036" 
d="M426 0v1223h-412v170h1008v-170h-412v-1223h-184zM408 -487v86q55 0 75.5 22t20.5 68h-86v159h200v-122q0 -55 -8.5 -91.5t-30.5 -65.5t-64 -42.5t-107 -13.5z" />
    <glyph glyph-name="uni021B" unicode="&#x21b;" horiz-adv-x="698" 
d="M498 0q-152 0 -220.5 78.5t-68.5 251.5v579h-182v148h186l14 278h162v-278h260v-148h-260v-581q0 -103 30.5 -137.5t121.5 -34.5h121v-156h-164zM301 -487v86q55 0 75.5 22t20.5 68h-86v159h201v-122q0 -111 -43 -162t-168 -51z" />
    <glyph glyph-name="uni0237" unicode="&#x237;" horiz-adv-x="520" 
d="M-4 -373v156h51q73 0 98 27.5t25 109.5v1137h180v-1131q0 -157 -62 -228t-200 -71h-92z" />
    <glyph glyph-name="uni02BC" unicode="&#x2bc;" horiz-adv-x="303" 
d="M49 1145v86q49 0 68.5 21t21.5 63h-80v180h195v-137q0 -55 -8.5 -91.5t-30 -65.5t-62.5 -42.5t-104 -13.5z" />
    <glyph glyph-name="circumflex" unicode="&#x2c6;" horiz-adv-x="1024" 
d="M190 1217l230 270h184l230 -270h-183l-139 141l-139 -141h-183z" />
    <glyph glyph-name="caron" unicode="&#x2c7;" horiz-adv-x="1024" 
d="M420 1217l-230 270h183l139 -141l139 141h183l-230 -270h-184z" />
    <glyph glyph-name="uni02C9" unicode="&#x2c9;" horiz-adv-x="1024" 
d="M252 1280v143h520v-143h-520z" />
    <glyph glyph-name="breve" unicode="&#x2d8;" horiz-adv-x="1024" 
d="M512 1210q-130 0 -205 73t-80 198h142q3 -62 39.5 -95.5t103.5 -33.5t103.5 33.5t39.5 95.5h142q-5 -125 -80 -198t-205 -73z" />
    <glyph glyph-name="dotaccent" unicode="&#x2d9;" horiz-adv-x="1024" 
d="M412 1247v201h200v-201h-200z" />
    <glyph glyph-name="ring" unicode="&#x2da;" horiz-adv-x="1024" 
d="M512 1182q-96 0 -157.5 60t-61.5 153q0 92 62 152.5t157 60.5t157 -60.5t62 -152.5q0 -93 -61.5 -153t-157.5 -60zM512 1300q39 0 63.5 26.5t24.5 68.5q0 41 -24.5 66.5t-63.5 25.5t-63.5 -25.5t-24.5 -66.5q0 -42 24.5 -68.5t63.5 -26.5z" />
    <glyph glyph-name="ogonek" unicode="&#x2db;" horiz-adv-x="1024" 
d="M551 -414q-105 0 -163 46t-58 132q0 185 286 330l70 -71q-194 -110 -194 -216q0 -81 92 -81q53 0 110 32v-145q-69 -27 -143 -27z" />
    <glyph glyph-name="tilde" unicode="&#x2dc;" horiz-adv-x="1024" 
d="M629 1225q-37 0 -64 11t-80 46q-36 25 -52.5 32t-33.5 7q-31 0 -45.5 -21.5t-17.5 -70.5h-129q4 121 50.5 180t137.5 59q37 0 64 -11t80 -46q36 -25 52.5 -32t33.5 -7q31 0 45.5 21.5t17.5 70.5h129q-4 -121 -50.5 -180t-137.5 -59z" />
    <glyph glyph-name="hungarumlaut" unicode="&#x2dd;" horiz-adv-x="1024" 
d="M209 1217l176 270h219l-223 -270h-172zM578 1217l176 270h219l-223 -270h-172z" />
    <glyph glyph-name="gravecomb" unicode="&#x300;" horiz-adv-x="0" 
d="M-35 1217l-268 270h225l225 -270h-182z" />
    <glyph glyph-name="acutecomb" unicode="&#x301;" horiz-adv-x="0" 
d="M-147 1217l225 270h225l-268 -270h-182z" />
    <glyph glyph-name="uni0302" unicode="&#x302;" horiz-adv-x="0" 
d="M-322 1217l230 270h184l230 -270h-183l-139 141l-139 -141h-183z" />
    <glyph glyph-name="tildecomb" unicode="&#x303;" horiz-adv-x="0" 
d="M117 1225q-37 0 -64 11t-80 46q-36 25 -52.5 32t-33.5 7q-31 0 -45.5 -21.5t-17.5 -70.5h-129q4 121 50.5 180t137.5 59q37 0 64 -11t80 -46q36 -25 52.5 -32t33.5 -7q31 0 45.5 21.5t17.5 70.5h129q-4 -121 -50.5 -180t-137.5 -59z" />
    <glyph glyph-name="uni0304" unicode="&#x304;" horiz-adv-x="0" 
d="M-260 1280v143h520v-143h-520z" />
    <glyph glyph-name="uni0306" unicode="&#x306;" horiz-adv-x="0" 
d="M0 1210q-130 0 -205 73t-80 198h142q3 -62 39.5 -95.5t103.5 -33.5t103.5 33.5t39.5 95.5h142q-5 -125 -80 -198t-205 -73z" />
    <glyph glyph-name="uni0307" unicode="&#x307;" horiz-adv-x="0" 
d="M-100 1247v201h200v-201h-200z" />
    <glyph glyph-name="uni0308" unicode="&#x308;" horiz-adv-x="0" 
d="M-283 1247v201h201v-201h-201zM82 1247v201h201v-201h-201z" />
    <glyph glyph-name="uni030A" unicode="&#x30a;" horiz-adv-x="0" 
d="M0 1182q-96 0 -157.5 60t-61.5 153q0 92 62 152.5t157 60.5t157 -60.5t62 -152.5q0 -93 -61.5 -153t-157.5 -60zM0 1300q39 0 63.5 26.5t24.5 68.5q0 41 -24.5 66.5t-63.5 25.5t-63.5 -25.5t-24.5 -66.5q0 -42 24.5 -68.5t63.5 -26.5z" />
    <glyph glyph-name="uni030B" unicode="&#x30b;" horiz-adv-x="0" 
d="M-303 1217l176 270h219l-223 -270h-172zM66 1217l176 270h219l-223 -270h-172z" />
    <glyph glyph-name="uni030C" unicode="&#x30c;" horiz-adv-x="0" 
d="M-92 1217l-230 270h183l139 -141l139 141h183l-230 -270h-184z" />
    <glyph glyph-name="uni0312" unicode="&#x312;" horiz-adv-x="0" 
d="M-100 1208v123q0 111 43 162t168 51v-86q-55 0 -76 -22t-21 -68h86v-160h-200z" />
    <glyph glyph-name="uni0326" unicode="&#x326;" horiz-adv-x="0" 
d="M-111 -487v86q55 0 76 22t21 68h-86v159h200v-122q0 -111 -43 -162t-168 -51z" />
    <glyph glyph-name="uni0327" unicode="&#x327;" horiz-adv-x="0" 
d="M-45 -418q-131 0 -205 43l37 99q64 -37 137 -37q103 0 103 59q0 26 -22.5 36.5t-88.5 10.5h-57l90 238h110l-57 -150q100 -1 147.5 -36.5t47.5 -106.5q0 -75 -55.5 -115.5t-186.5 -40.5z" />
    <glyph glyph-name="uni0328" unicode="&#x328;" horiz-adv-x="0" 
d="M39 -414q-105 0 -163 46t-58 132q0 185 286 330l70 -71q-194 -110 -194 -216q0 -81 92 -81q53 0 110 32v-145q-69 -27 -143 -27z" />
    <glyph glyph-name="uni0394" unicode="&#x394;" horiz-adv-x="1220" 
d="M18 0l496 1393h193l495 -1393h-1184zM268 170h678l-338 963z" />
    <glyph glyph-name="uni03A9" unicode="&#x3a9;" horiz-adv-x="1339" 
d="M139 0v168h164q-84 60 -129 166t-45 246v282q0 555 541 555q540 0 540 -555v-282q0 -140 -45 -246t-129 -166h164v-168h-436v154q262 72 262 393v315q0 198 -86.5 292.5t-269.5 94.5t-270 -94.5t-87 -292.5v-315q0 -321 262 -393v-154h-436z" />
    <glyph glyph-name="uni03BC" unicode="&#x3bc;" horiz-adv-x="1191" 
d="M170 -373v1430h180v-678q0 -124 46.5 -182t142.5 -58t169 57t134 181v680h180v-1057h-154l-6 172q-135 -197 -350 -197q-95 0 -162 37v-385h-180z" />
    <glyph glyph-name="pi" unicode="&#x3c0;" horiz-adv-x="1212" 
d="M219 0v901h-192v156h1149v-156h-193v-600q0 -87 26.5 -116t100.5 -29h66v-156h-129q-132 0 -188 68.5t-56 228.5v604h-404v-901h-180z" />
    <glyph glyph-name="Wgrave" unicode="&#x1e80;" horiz-adv-x="1765" 
d="M848 1534l-268 270h225l225 -270h-182zM395 0l-375 1393h191l285 -1090l299 1090h180l301 -1094l285 1094h184l-375 -1393h-188l-299 1079l-301 -1079h-187z" />
    <glyph glyph-name="wgrave" unicode="&#x1e81;" horiz-adv-x="1587" 
d="M760 1217l-268 270h225l225 -270h-182zM352 0l-329 1057h190l240 -819l254 819h178l256 -824l239 824h185l-330 -1057h-193l-247 797l-250 -797h-193z" />
    <glyph glyph-name="Wacute" unicode="&#x1e82;" horiz-adv-x="1765" 
d="M735 1534l226 270h225l-268 -270h-183zM395 0l-375 1393h191l285 -1090l299 1090h180l301 -1094l285 1094h184l-375 -1393h-188l-299 1079l-301 -1079h-187z" />
    <glyph glyph-name="wacute" unicode="&#x1e83;" horiz-adv-x="1587" 
d="M647 1217l225 270h226l-269 -270h-182zM352 0l-329 1057h190l240 -819l254 819h178l256 -824l239 824h185l-330 -1057h-193l-247 797l-250 -797h-193z" />
    <glyph glyph-name="Wdieresis" unicode="&#x1e84;" horiz-adv-x="1765" 
d="M600 1565v200h201v-200h-201zM965 1565v200h200v-200h-200zM395 0l-375 1393h191l285 -1090l299 1090h180l301 -1094l285 1094h184l-375 -1393h-188l-299 1079l-301 -1079h-187z" />
    <glyph glyph-name="wdieresis" unicode="&#x1e85;" horiz-adv-x="1587" 
d="M512 1247v201h201v-201h-201zM877 1247v201h200v-201h-200zM352 0l-329 1057h190l240 -819l254 819h178l256 -824l239 824h185l-330 -1057h-193l-247 797l-250 -797h-193z" />
    <glyph glyph-name="uni1E9E" unicode="&#x1e9e;" horiz-adv-x="1294" 
d="M158 0v958q0 223 115 329t356 106h499v-152l-333 -444q231 -9 333.5 -103.5t102.5 -294.5q0 -211 -110.5 -305t-358.5 -94h-240v168h226q161 0 230 53t69 176q0 127 -75.5 180.5t-256.5 53.5h-148v145l336 449h-258q-160 0 -231.5 -64t-71.5 -205v-956h-184z" />
    <glyph glyph-name="Ygrave" unicode="&#x1ef2;" horiz-adv-x="1130" 
d="M530 1534l-268 270h225l226 -270h-183zM473 0v594l-493 799h215l376 -609l375 609h205l-494 -799v-594h-184z" />
    <glyph glyph-name="ygrave" unicode="&#x1ef3;" horiz-adv-x="962" 
d="M449 1217l-269 270h226l225 -270h-182zM119 -373v156h90q62 0 92.5 23.5t52.5 87.5l49 147l-380 1016h192l281 -781l260 781h184l-414 -1184q-50 -140 -115 -193t-186 -53h-106z" />
    <glyph glyph-name="uni2002" unicode="&#x2002;" horiz-adv-x="1024" 
 />
    <glyph glyph-name="uni2003" unicode="&#x2003;" horiz-adv-x="1843" 
 />
    <glyph glyph-name="uni2007" unicode="&#x2007;" horiz-adv-x="1232" 
 />
    <glyph glyph-name="uni2008" unicode="&#x2008;" horiz-adv-x="569" 
 />
    <glyph glyph-name="uni200B" unicode="&#x200b;" horiz-adv-x="0" 
 />
    <glyph glyph-name="figuredash" unicode="&#x2012;" horiz-adv-x="1232" 
d="M61 524v156h1110v-156h-1110z" />
    <glyph glyph-name="endash" unicode="&#x2013;" horiz-adv-x="1024" 
d="M61 524v156h902v-156h-902z" />
    <glyph glyph-name="emdash" unicode="&#x2014;" horiz-adv-x="1843" 
d="M61 524v156h1721v-156h-1721z" />
    <glyph glyph-name="quoteleft" unicode="&#x2018;" horiz-adv-x="520" 
d="M152 934v199q0 278 227 284v-114q-44 -2 -72 -35t-28 -90v-35h81v-209h-208z" />
    <glyph glyph-name="quoteright" unicode="&#x2019;" horiz-adv-x="520" 
d="M141 909v115q44 2 72.5 35t28.5 90v35h-82v209h209v-199q0 -279 -228 -285z" />
    <glyph glyph-name="quotesinglbase" unicode="&#x201a;" horiz-adv-x="520" 
d="M141 -274v114q44 2 72.5 35t28.5 90v35h-82v209h209v-199q0 -278 -228 -284z" />
    <glyph glyph-name="quotedblleft" unicode="&#x201c;" horiz-adv-x="911" 
d="M152 934v199q0 278 227 284v-114q-44 -2 -72 -35t-28 -90v-35h81v-209h-208zM543 934v199q0 278 227 284v-114q-44 -2 -72 -35t-28 -90v-35h82v-209h-209z" />
    <glyph glyph-name="quotedblright" unicode="&#x201d;" horiz-adv-x="911" 
d="M141 909v115q44 2 72.5 35t28.5 90v35h-82v209h209v-199q0 -279 -228 -285zM532 909v115q44 2 72.5 35t28.5 90v35h-82v209h209v-199q0 -279 -228 -285z" />
    <glyph glyph-name="quotedblbase" unicode="&#x201e;" horiz-adv-x="911" 
d="M141 -274v114q44 2 72.5 35t28.5 90v35h-82v209h209v-199q0 -278 -228 -284zM532 -274v114q44 2 72.5 35t28.5 90v35h-82v209h209v-199q0 -278 -228 -284z" />
    <glyph glyph-name="dagger" unicode="&#x2020;" horiz-adv-x="1216" 
d="M516 -373v1106l-438 -14v186l438 -14v502h180v-504l443 16v-186l-443 16v-1108h-180z" />
    <glyph glyph-name="daggerdbl" unicode="&#x2021;" horiz-adv-x="1216" 
d="M516 -373v461l-438 -14v186l438 -14v528l-438 -14v186l438 -14v461h180v-463l443 16v-186l-443 16v-532l443 16v-186l-443 16v-463h-180z" />
    <glyph glyph-name="bullet" unicode="&#x2022;" horiz-adv-x="1024" 
d="M297 377v448h430v-448h-430z" />
    <glyph glyph-name="ellipsis" unicode="&#x2026;" horiz-adv-x="1843" 
d="M203 0v209h209v-209h-209zM817 0v209h209v-209h-209zM1432 0v209h208v-209h-208z" />
    <glyph glyph-name="perthousand" unicode="&#x2030;" horiz-adv-x="2271" 
d="M381 643q-146 0 -222.5 71t-76.5 206v221q0 135 76.5 205.5t222.5 70.5t222.5 -70.5t76.5 -205.5v-221q0 -135 -76.5 -206t-222.5 -71zM299 -25l823 1442h156l-823 -1442h-156zM381 776q149 0 149 152v207q0 149 -149 149q-150 0 -150 -149v-207q0 -152 150 -152z
M1194 -25q-146 0 -222.5 71t-76.5 206v221q0 135 76.5 206t222.5 71t222.5 -71t76.5 -206v-221q0 -135 -76.5 -206t-222.5 -71zM1890 -25q-146 0 -222.5 71t-76.5 206v221q0 135 76.5 206t222.5 71t222.5 -71t76.5 -206v-221q0 -135 -76.5 -206t-222.5 -71zM1194 109
q149 0 149 151v207q0 149 -149 149q-150 0 -150 -149v-207q0 -151 150 -151zM1890 109q150 0 150 151v207q0 149 -150 149q-149 0 -149 -149v-207q0 -151 149 -151z" />
    <glyph glyph-name="guilsinglleft" unicode="&#x2039;" horiz-adv-x="559" 
d="M326 168l-285 360l285 363h192l-285 -363l285 -360h-192z" />
    <glyph glyph-name="guilsinglright" unicode="&#x203a;" horiz-adv-x="559" 
d="M41 166l285 362l-285 361h192l285 -361l-285 -362h-192z" />
    <glyph glyph-name="fraction" unicode="&#x2044;" horiz-adv-x="219" 
d="M-340 -25l746 1442h153l-745 -1442h-154z" />
    <glyph glyph-name="uni2070" unicode="&#x2070;" 
d="M375 827q-143 0 -218 71t-75 206v303q0 135 75 205.5t218 70.5t218 -70.5t75 -205.5v-303q0 -135 -75 -206t-218 -71zM375 961q143 0 143 151v289q0 149 -143 149q-144 0 -144 -149v-289q0 -151 144 -151z" />
    <glyph glyph-name="uni2074" unicode="&#x2074;" 
d="M457 852v176h-404v137l396 494h157v-500h96v-131h-96v-176h-149zM213 1159h244v314z" />
    <glyph glyph-name="uni2075" unicode="&#x2075;" 
d="M371 827q-138 0 -214 61t-77 173h143q1 -47 40.5 -73.5t107.5 -26.5q155 0 155 139q0 67 -37 102t-108 35q-43 0 -84.5 -12.5t-65.5 -34.5h-122l24 469h502v-137h-379l-10 -199q71 47 174 47q122 0 189 -68.5t67 -195.5q0 -137 -78 -208t-227 -71z" />
    <glyph glyph-name="uni2076" unicode="&#x2076;" 
d="M383 827q-143 0 -220 71.5t-77 203.5v301q0 137 77.5 208.5t225.5 71.5q137 0 206 -61.5t71 -171.5h-144q-2 48 -36 74t-97 26q-153 0 -153 -155v-103q70 76 192 76q119 0 184.5 -68t65.5 -194q0 -135 -75.5 -207t-219.5 -72zM385 961q143 0 143 143q0 133 -133 133
q-114 0 -159 -96v-31q0 -72 38.5 -110.5t110.5 -38.5z" />
    <glyph glyph-name="uni2077" unicode="&#x2077;" 
d="M197 852q18 404 313 668h-440v139h608v-146q-161 -140 -239 -299.5t-87 -361.5h-155z" />
    <glyph glyph-name="uni2078" unicode="&#x2078;" 
d="M377 827q-316 0 -316 238q0 153 129 205v4q-106 46 -106 178q0 111 74.5 171t216.5 60t216.5 -60t74.5 -171q0 -132 -107 -178v-4q129 -54 129 -207q0 -236 -311 -236zM375 1329q71 0 108 28.5t37 82.5q0 110 -145 110q-71 0 -108.5 -28t-37.5 -82t37.5 -82.5
t108.5 -28.5zM375 961q164 0 164 116q0 119 -164 119t-164 -119q0 -116 164 -116z" />
    <glyph glyph-name="uni2079" unicode="&#x2079;" 
d="M360 827q-137 0 -205.5 61.5t-70.5 172.5h143q2 -48 36 -74t97 -26q154 0 154 155v103q-70 -76 -192 -76q-119 0 -184.5 68t-65.5 194q0 135 75.5 206.5t219.5 71.5q143 0 220 -71t77 -203v-301q0 -137 -78 -209t-226 -72zM354 1274q115 0 160 96v31q0 72 -38.5 110.5
t-110.5 38.5q-144 0 -144 -143q0 -133 133 -133z" />
    <glyph glyph-name="uni2080" unicode="&#x2080;" 
d="M375 -270q-143 0 -218 70.5t-75 205.5v303q0 135 75 206t218 71t218 -71t75 -206v-303q0 -135 -75 -205.5t-218 -70.5zM375 -137q143 0 143 151v289q0 150 -143 150q-144 0 -144 -150v-289q0 -151 144 -151z" />
    <glyph glyph-name="uni2081" unicode="&#x2081;" 
d="M168 -246v133h180v496q-76 -41 -205 -45v121q78 3 128 26.5t85 75.5h142v-674h180v-133h-510z" />
    <glyph glyph-name="uni2082" unicode="&#x2082;" 
d="M86 -246v80q0 115 60 192t198 140q95 43 133.5 82t38.5 92t-35.5 83t-99.5 30q-137 0 -137 -138v-12h-144v31q0 121 74 186.5t211 65.5q135 0 208 -63t73 -177q0 -98 -58.5 -167.5t-191.5 -129.5q-96 -42 -134.5 -77t-43.5 -81h428v-137h-580z" />
    <glyph glyph-name="uni2083" unicode="&#x2083;" 
d="M381 -270q-145 0 -221 59t-76 174v33h143v-12q0 -121 154 -121q147 0 147 119q0 61 -38 88.5t-117 27.5h-90v131h88q139 0 139 111q0 113 -133 113q-68 0 -103.5 -30t-35.5 -87v-10h-142v20q0 115 74.5 177.5t210.5 62.5q132 0 204 -60t72 -174q0 -130 -98 -176v-4
q119 -45 119 -195q0 -247 -297 -247z" />
    <glyph glyph-name="uni2084" unicode="&#x2084;" 
d="M457 -246v176h-404v138l396 493h157v-500h96v-131h-96v-176h-149zM213 61h244v314z" />
    <glyph glyph-name="uni2085" unicode="&#x2085;" 
d="M371 -270q-138 0 -214 60.5t-77 172.5h143q1 -47 40.5 -73.5t107.5 -26.5q155 0 155 139q0 67 -37 102t-108 35q-43 0 -84.5 -12.5t-65.5 -34.5h-122l24 469h502v-137h-379l-10 -199q71 47 174 47q122 0 189 -68.5t67 -195.5q0 -136 -78 -207t-227 -71z" />
    <glyph glyph-name="uni2086" unicode="&#x2086;" 
d="M383 -270q-143 0 -220 71t-77 203v301q0 137 77.5 209t225.5 72q137 0 206 -61.5t71 -172.5h-144q-2 48 -36.5 74.5t-96.5 26.5q-153 0 -153 -156v-102q69 75 192 75q119 0 184.5 -68t65.5 -194q0 -135 -75.5 -206.5t-219.5 -71.5zM385 -137q143 0 143 143
q0 133 -133 133q-114 0 -159 -96v-31q0 -72 38.5 -110.5t110.5 -38.5z" />
    <glyph glyph-name="uni2087" unicode="&#x2087;" 
d="M197 -246q18 404 313 668h-440v139h608v-145q-161 -139 -239 -299.5t-87 -362.5h-155z" />
    <glyph glyph-name="uni2088" unicode="&#x2088;" 
d="M377 -270q-316 0 -316 237q0 153 129 205v4q-106 46 -106 178q0 111 75 171.5t216 60.5t216 -60.5t75 -171.5q0 -132 -107 -178v-4q129 -54 129 -207q0 -235 -311 -235zM375 231q71 0 108 28.5t37 82.5t-37 82.5t-108 28.5t-108.5 -28.5t-37.5 -82.5t37.5 -82.5
t108.5 -28.5zM375 -137q164 0 164 117q0 118 -164 118t-164 -118q0 -117 164 -117z" />
    <glyph glyph-name="uni2089" unicode="&#x2089;" 
d="M360 -270q-137 0 -205.5 61t-70.5 172h143q2 -48 36 -74t97 -26q154 0 154 155v103q-70 -76 -192 -76q-119 0 -184.5 68t-65.5 194q0 135 75.5 207t219.5 72q143 0 220 -71.5t77 -203.5v-301q0 -136 -78 -208t-226 -72zM354 176q115 0 160 96v31q0 72 -38.5 111
t-110.5 39q-71 0 -107.5 -36.5t-36.5 -107.5q0 -133 133 -133z" />
    <glyph glyph-name="Euro" unicode="&#x20ac;" horiz-adv-x="1232" 
d="M672 -25q-229 0 -351 120.5t-122 346.5v29h-109v143h109v164h-109v144h109v28q0 226 121.5 346.5t351.5 120.5q214 0 329.5 -107t124.5 -317h-174q-12 260 -280 260q-293 0 -293 -307v-24h430l-25 -144h-405v-164h373l-21 -143h-352v-25q0 -307 293 -307q268 0 280 260
h174q-9 -206 -122.5 -315t-331.5 -109z" />
    <glyph glyph-name="uni20B9" unicode="&#x20b9;" horiz-adv-x="1232" 
d="M770 0l-614 553v135h243q171 0 253.5 52t95.5 171h-625l31 148h589q-19 99 -95 142.5t-228 43.5h-297l31 148h999l-31 -148h-307q89 -70 109 -186h229l-31 -148h-192q-13 -184 -136 -274.5t-360 -95.5l600 -541h-264z" />
    <glyph glyph-name="uni2113" unicode="&#x2113;" horiz-adv-x="962" 
d="M535 -25q-186 0 -281.5 103t-95.5 303v743q0 195 89.5 295.5t264.5 100.5q163 0 246.5 -87.5t83.5 -258.5q0 -206 -124 -387.5t-380 -348.5v-65q0 -232 223 -232q126 0 244 92l67 -143q-143 -115 -337 -115zM338 631q328 235 328 530q0 99 -38 146t-116 47
q-89 0 -131.5 -58t-42.5 -178v-487z" />
    <glyph glyph-name="uni2116" unicode="&#x2116;" horiz-adv-x="2213" 
d="M188 0v1393h220l641 -1059v1059h178v-1393h-180l-680 1122v-1122h-179zM1763 295q-163 0 -246 81.5t-83 241.5v134q0 160 83 241.5t246 81.5t246.5 -81.5t83.5 -241.5v-134q0 -160 -83.5 -241.5t-246.5 -81.5zM1763 426q89 0 132.5 47.5t43.5 147.5v129q0 99 -43 146.5
t-133 47.5t-133 -47.5t-43 -146.5v-129q0 -100 43.5 -147.5t132.5 -47.5zM1440 0v133h647v-133h-647z" />
    <glyph glyph-name="uni2117" unicode="&#x2117;" horiz-adv-x="1581" 
d="M791 -25q-206 0 -371 92.5t-257.5 257.5t-92.5 371t92.5 371t257.5 257.5t371 92.5q155 0 288.5 -54t228.5 -149t149 -229t54 -289t-54 -289t-149 -229t-228.5 -149t-288.5 -54zM791 117q256 0 410.5 159t154.5 420q0 262 -154.5 421t-410.5 159t-411 -159.5t-155 -420.5
t155 -420t411 -159zM539 330v733h309q145 0 209.5 -57t64.5 -183t-64.5 -182.5t-209.5 -56.5h-150v-254h-159zM698 719h133q71 0 101.5 23.5t30.5 80.5t-31 82t-101 25h-133v-211z" />
    <glyph glyph-name="uni2120" unicode="&#x2120;" horiz-adv-x="1443" 
d="M276 711q-125 0 -185 50.5t-60 156.5h135q0 -99 110 -99q54 0 82.5 22t28.5 62q0 41 -31.5 63.5t-115.5 39.5q-107 22 -153 66.5t-46 131.5q0 101 61 153t177 52q231 0 231 -203h-135q0 94 -99 94q-100 0 -100 -83q0 -40 31 -63t106 -36q113 -22 161 -69.5t48 -137.5
q0 -102 -60 -151t-186 -49zM657 727v666h201l154 -467l151 467h205v-666h-139v506l-170 -506h-105l-166 496v-496h-131z" />
    <glyph glyph-name="trademark" unicode="&#x2122;" horiz-adv-x="1398" 
d="M180 727v545h-180v121h500v-121h-181v-545h-139zM612 727v666h201l154 -467l151 467h205v-666h-139v506l-170 -506h-105l-166 496v-496h-131z" />
    <glyph glyph-name="uni2126" unicode="&#x2126;" horiz-adv-x="1339" 
d="M139 0v168h164q-84 60 -129 166t-45 246v282q0 555 541 555q540 0 540 -555v-282q0 -140 -45 -246t-129 -166h164v-168h-436v154q262 72 262 393v315q0 198 -86.5 292.5t-269.5 94.5t-270 -94.5t-87 -292.5v-315q0 -321 262 -393v-154h-436z" />
    <glyph glyph-name="estimated" unicode="&#x212e;" horiz-adv-x="1634" 
d="M834 -25q-155 0 -295.5 57t-242.5 153.5t-162 230t-60 280.5q0 195 101.5 361t277 263t381.5 97t381 -97t276.5 -263t101.5 -361v-18h-1231q-10 0 -10 -10v-392q0 -20 19 -43q87 -102 208.5 -158.5t258.5 -56.5q142 0 270 64.5t219 175.5h111q-106 -132 -264.5 -207.5
t-339.5 -75.5zM362 719h945q12 0 12 12v395q0 24 -21 45q-92 97 -211 150t-249 53q-136 0 -256 -55.5t-211 -155.5q-19 -23 -19 -45v-389q0 -10 10 -10z" />
    <glyph glyph-name="uni2153" unicode="&#x2153;" horiz-adv-x="1718" 
d="M410 -25l745 1442h154l-746 -1442h-153zM168 586v133h180v495q-76 -41 -205 -45v121q77 3 127.5 27t85.5 76h142v-674h180v-133h-510zM1350 -25q-145 0 -221 59.5t-76 174.5v33h143v-13q0 -120 154 -120q147 0 147 118q0 61 -38.5 89t-117.5 28h-90v131h88q140 0 140 111
q0 112 -133 112q-68 0 -104 -29.5t-36 -86.5v-11h-141v21q0 115 74.5 177t210.5 62q132 0 204 -59.5t72 -173.5q0 -130 -98 -176v-4q119 -45 119 -195q0 -248 -297 -248z" />
    <glyph glyph-name="uni2154" unicode="&#x2154;" horiz-adv-x="1718" 
d="M86 586v80q0 115 60 191.5t198 139.5q95 43 133.5 82t38.5 92t-35.5 83t-99.5 30q-137 0 -137 -137v-12h-144v30q0 121 74 186.5t211 65.5q135 0 208 -62.5t73 -176.5q0 -98 -58.5 -167.5t-191.5 -129.5q-96 -42 -134.5 -77t-43.5 -81h428v-137h-580zM410 -25l745 1442
h154l-746 -1442h-153zM1350 -25q-145 0 -221 59.5t-76 174.5v33h143v-13q0 -120 154 -120q147 0 147 118q0 61 -38.5 89t-117.5 28h-90v131h88q140 0 140 111q0 112 -133 112q-68 0 -104 -29.5t-36 -86.5v-11h-141v21q0 115 74.5 177t210.5 62q132 0 204 -59.5t72 -173.5
q0 -130 -98 -176v-4q119 -45 119 -195q0 -248 -297 -248z" />
    <glyph glyph-name="uni2155" unicode="&#x2155;" horiz-adv-x="1718" 
d="M410 -25l745 1442h154l-746 -1442h-153zM168 586v133h180v495q-76 -41 -205 -45v121q77 3 127.5 27t85.5 76h142v-674h180v-133h-510zM1339 -25q-138 0 -213 60.5t-77 173.5h143q1 -47 40 -73.5t107 -26.5q156 0 156 139q0 67 -37 102t-108 35q-43 0 -84.5 -12.5
t-65.5 -34.5h-123l25 469h502v-137h-379l-11 -199q71 47 175 47q122 0 189 -68.5t67 -195.5q0 -136 -78.5 -207.5t-227.5 -71.5z" />
    <glyph glyph-name="uni2156" unicode="&#x2156;" horiz-adv-x="1718" 
d="M86 586v80q0 115 60 191.5t198 139.5q95 43 133.5 82t38.5 92t-35.5 83t-99.5 30q-137 0 -137 -137v-12h-144v30q0 121 74 186.5t211 65.5q135 0 208 -62.5t73 -176.5q0 -98 -58.5 -167.5t-191.5 -129.5q-96 -42 -134.5 -77t-43.5 -81h428v-137h-580zM410 -25l745 1442
h154l-746 -1442h-153zM1339 -25q-138 0 -213 60.5t-77 173.5h143q1 -47 40 -73.5t107 -26.5q156 0 156 139q0 67 -37 102t-108 35q-43 0 -84.5 -12.5t-65.5 -34.5h-123l25 469h502v-137h-379l-11 -199q71 47 175 47q122 0 189 -68.5t67 -195.5q0 -136 -78.5 -207.5
t-227.5 -71.5z" />
    <glyph glyph-name="uni2157" unicode="&#x2157;" horiz-adv-x="1718" 
d="M381 561q-145 0 -221 59.5t-76 174.5v32h143v-12q0 -121 154 -121q147 0 147 119q0 61 -38 89t-117 28h-90v131h88q139 0 139 110q0 113 -133 113q-68 0 -103.5 -30t-35.5 -87v-10h-142v21q0 115 74.5 177t210.5 62q132 0 204 -59.5t72 -173.5q0 -130 -98 -176v-4
q119 -45 119 -195q0 -248 -297 -248zM410 -25l745 1442h154l-746 -1442h-153zM1339 -25q-138 0 -213 60.5t-77 173.5h143q1 -47 40 -73.5t107 -26.5q156 0 156 139q0 67 -37 102t-108 35q-43 0 -84.5 -12.5t-65.5 -34.5h-123l25 469h502v-137h-379l-11 -199q71 47 175 47
q122 0 189 -68.5t67 -195.5q0 -136 -78.5 -207.5t-227.5 -71.5z" />
    <glyph glyph-name="uni2158" unicode="&#x2158;" horiz-adv-x="1718" 
d="M410 -25l745 1442h154l-746 -1442h-153zM457 586v176h-404v137l396 494h157v-500h96v-131h-96v-176h-149zM213 893h244v313zM1339 -25q-138 0 -213 60.5t-77 173.5h143q1 -47 40 -73.5t107 -26.5q156 0 156 139q0 67 -37 102t-108 35q-43 0 -84.5 -12.5t-65.5 -34.5h-123
l25 469h502v-137h-379l-11 -199q71 47 175 47q122 0 189 -68.5t67 -195.5q0 -136 -78.5 -207.5t-227.5 -71.5z" />
    <glyph glyph-name="uni2159" unicode="&#x2159;" horiz-adv-x="1718" 
d="M410 -25l745 1442h154l-746 -1442h-153zM168 586v133h180v495q-76 -41 -205 -45v121q77 3 127.5 27t85.5 76h142v-674h180v-133h-510zM1352 -25q-143 0 -220 71.5t-77 203.5v301q0 137 77.5 208.5t225.5 71.5q137 0 205.5 -61t70.5 -172h-143q-2 48 -36 74t-97 26
q-154 0 -154 -155v-103q70 76 193 76q119 0 184.5 -68t65.5 -194q0 -135 -75.5 -207t-219.5 -72zM1354 109q143 0 143 143q0 133 -133 133q-115 0 -160 -96v-31q0 -72 39 -110.5t111 -38.5z" />
    <glyph glyph-name="uni215A" unicode="&#x215a;" horiz-adv-x="1718" 
d="M410 -25l745 1442h154l-746 -1442h-153zM371 561q-138 0 -214 61t-77 173h143q1 -47 40.5 -74t107.5 -27q155 0 155 140q0 67 -37 102t-108 35q-43 0 -84.5 -12.5t-65.5 -34.5h-122l24 469h502v-138h-379l-10 -198q71 47 174 47q122 0 189 -68.5t67 -195.5
q0 -137 -78 -208t-227 -71zM1352 -25q-143 0 -220 71.5t-77 203.5v301q0 137 77.5 208.5t225.5 71.5q137 0 205.5 -61t70.5 -172h-143q-2 48 -36 74t-97 26q-154 0 -154 -155v-103q70 76 193 76q119 0 184.5 -68t65.5 -194q0 -135 -75.5 -207t-219.5 -72zM1354 109
q143 0 143 143q0 133 -133 133q-115 0 -160 -96v-31q0 -72 39 -110.5t111 -38.5z" />
    <glyph glyph-name="oneeighth" unicode="&#x215b;" horiz-adv-x="1718" 
d="M410 -25l745 1442h154l-746 -1442h-153zM168 586v133h180v495q-76 -41 -205 -45v121q77 3 127.5 27t85.5 76h142v-674h180v-133h-510zM1346 -25q-316 0 -316 238q0 153 129 205v4q-106 46 -106 178q0 111 74.5 171t215.5 60q142 0 216.5 -60t74.5 -171q0 -132 -106 -178
v-4q129 -54 129 -207q0 -236 -311 -236zM1343 477q71 0 108.5 28.5t37.5 82.5t-37.5 82t-108.5 28q-145 0 -145 -110q0 -54 37 -82.5t108 -28.5zM1343 109q164 0 164 116q0 119 -164 119q-163 0 -163 -119q0 -116 163 -116z" />
    <glyph glyph-name="threeeighths" unicode="&#x215c;" horiz-adv-x="1718" 
d="M381 561q-145 0 -221 59.5t-76 174.5v32h143v-12q0 -121 154 -121q147 0 147 119q0 61 -38 89t-117 28h-90v131h88q139 0 139 110q0 113 -133 113q-68 0 -103.5 -30t-35.5 -87v-10h-142v21q0 115 74.5 177t210.5 62q132 0 204 -59.5t72 -173.5q0 -130 -98 -176v-4
q119 -45 119 -195q0 -248 -297 -248zM410 -25l745 1442h154l-746 -1442h-153zM1346 -25q-316 0 -316 238q0 153 129 205v4q-106 46 -106 178q0 111 74.5 171t215.5 60q142 0 216.5 -60t74.5 -171q0 -132 -106 -178v-4q129 -54 129 -207q0 -236 -311 -236zM1343 477
q71 0 108.5 28.5t37.5 82.5t-37.5 82t-108.5 28q-145 0 -145 -110q0 -54 37 -82.5t108 -28.5zM1343 109q164 0 164 116q0 119 -164 119q-163 0 -163 -119q0 -116 163 -116z" />
    <glyph glyph-name="fiveeighths" unicode="&#x215d;" horiz-adv-x="1718" 
d="M410 -25l745 1442h154l-746 -1442h-153zM371 561q-138 0 -214 61t-77 173h143q1 -47 40.5 -74t107.5 -27q155 0 155 140q0 67 -37 102t-108 35q-43 0 -84.5 -12.5t-65.5 -34.5h-122l24 469h502v-138h-379l-10 -198q71 47 174 47q122 0 189 -68.5t67 -195.5
q0 -137 -78 -208t-227 -71zM1346 -25q-316 0 -316 238q0 153 129 205v4q-106 46 -106 178q0 111 74.5 171t215.5 60q142 0 216.5 -60t74.5 -171q0 -132 -106 -178v-4q129 -54 129 -207q0 -236 -311 -236zM1343 477q71 0 108.5 28.5t37.5 82.5t-37.5 82t-108.5 28
q-145 0 -145 -110q0 -54 37 -82.5t108 -28.5zM1343 109q164 0 164 116q0 119 -164 119q-163 0 -163 -119q0 -116 163 -116z" />
    <glyph glyph-name="seveneighths" unicode="&#x215e;" horiz-adv-x="1718" 
d="M354 -25l746 1442h153l-745 -1442h-154zM197 586q18 403 313 667h-440v140h608v-146q-161 -140 -239 -299.5t-87 -361.5h-155zM1346 -25q-316 0 -316 238q0 153 129 205v4q-106 46 -106 178q0 111 74.5 171t215.5 60q142 0 216.5 -60t74.5 -171q0 -132 -106 -178v-4
q129 -54 129 -207q0 -236 -311 -236zM1343 477q71 0 108.5 28.5t37.5 82.5t-37.5 82t-108.5 28q-145 0 -145 -110q0 -54 37 -82.5t108 -28.5zM1343 109q164 0 164 116q0 119 -164 119q-163 0 -163 -119q0 -116 163 -116z" />
    <glyph glyph-name="arrowleft" unicode="&#x2190;" horiz-adv-x="1638" 
d="M752 53l-641 643l641 643l102 -102l-461 -459h1135v-164h-1135l461 -458z" />
    <glyph glyph-name="arrowup" unicode="&#x2191;" horiz-adv-x="1638" 
d="M735 0v1133l-465 -471l-102 102l651 653l651 -653l-102 -102l-465 471v-1133h-168z" />
    <glyph glyph-name="arrowright" unicode="&#x2192;" horiz-adv-x="1638" 
d="M887 57l-103 103l461 458h-1134v164h1134l-461 459l103 102l641 -643z" />
    <glyph glyph-name="arrowdown" unicode="&#x2193;" horiz-adv-x="1638" 
d="M819 -25l-651 654l102 102l465 -471v1133h168v-1133l465 471l102 -102z" />
    <glyph glyph-name="arrowboth" unicode="&#x2194;" horiz-adv-x="2048" 
d="M711 94l-600 602l600 602l102 -102l-420 -418h1262l-420 418l102 102l600 -602l-600 -602l-102 103l420 417h-1262l420 -417z" />
    <glyph glyph-name="arrowupdn" unicode="&#x2195;" horiz-adv-x="1638" 
d="M819 -172l-602 602l102 102l416 -419v1167l-416 -420l-102 103l602 602l602 -602l-102 -103l-416 420v-1167l416 419l102 -102z" />
    <glyph glyph-name="uni2196" unicode="&#x2196;" horiz-adv-x="1638" 
d="M1311 96l-887 887l2 -639h-150v901h898v-141l-644 2l895 -895z" />
    <glyph glyph-name="uni2197" unicode="&#x2197;" horiz-adv-x="1638" 
d="M328 96l-115 115l895 895l-643 -2v141h897v-901h-150l2 639z" />
    <glyph glyph-name="uni2198" unicode="&#x2198;" horiz-adv-x="1638" 
d="M465 147v142l643 -2l-895 895l115 114l886 -886l-2 639h150v-902h-897z" />
    <glyph glyph-name="uni2199" unicode="&#x2199;" horiz-adv-x="1638" 
d="M276 147v900h150l-2 -637l887 886l114 -114l-895 -895l644 2v-142h-898z" />
    <glyph glyph-name="partialdiff" unicode="&#x2202;" horiz-adv-x="1236" 
d="M535 -25q-210 0 -327.5 122.5t-117.5 338.5q0 234 134 378t356 144q232 0 352 -163v14q0 285 -86 419t-293 134q-168 0 -281 -88v170q125 76 316 76q271 0 397.5 -168t126.5 -529q0 -406 -149 -627t-428 -221zM545 133q149 0 241.5 106.5t126.5 309.5
q-35 117 -118.5 184.5t-202.5 67.5q-145 0 -233.5 -100.5t-88.5 -264.5q0 -143 72 -223t203 -80z" />
    <glyph glyph-name="emptyset" unicode="&#x2205;" horiz-adv-x="1716" 
d="M246 -25l-109 109l154 154q-154 197 -154 458q0 204 93.5 369t258.5 258.5t369 93.5q263 0 459 -153l153 153l109 -108l-154 -154q154 -197 154 -459q0 -204 -93.5 -369t-258.5 -258.5t-369 -93.5q-262 0 -459 154zM403 350l801 801q-142 111 -346 111
q-246 0 -403.5 -159t-157.5 -407q0 -199 106 -346zM858 131q246 0 403.5 158.5t157.5 406.5q0 199 -106 346l-801 -800q142 -111 346 -111z" />
    <glyph glyph-name="uni2206" unicode="&#x2206;" horiz-adv-x="1220" 
d="M18 0l496 1393h193l495 -1393h-1184zM268 170h678l-338 963z" />
    <glyph glyph-name="product" unicode="&#x220f;" horiz-adv-x="1597" 
d="M199 -375v1954h1200v-1954h-176v1794h-848v-1794h-176z" />
    <glyph glyph-name="summation" unicode="&#x2211;" horiz-adv-x="1257" 
d="M49 -375v168l645 809l-645 809v168h1161v-160h-946l649 -817l-649 -817h946v-160h-1161z" />
    <glyph glyph-name="minus" unicode="&#x2212;" horiz-adv-x="1232" 
d="M115 555v156h1003v-156h-1003z" />
    <glyph glyph-name="uni2215" unicode="&#x2215;" horiz-adv-x="815" 
d="M-6 -25l653 1442h174l-653 -1442h-174z" />
    <glyph glyph-name="uni2219" unicode="&#x2219;" horiz-adv-x="569" 
d="M180 526v209h209v-209h-209z" />
    <glyph glyph-name="radical" unicode="&#x221a;" horiz-adv-x="1232" 
d="M500 -375l-219 699h-166v155h282l187 -594l508 1694h168l-590 -1954h-170z" />
    <glyph glyph-name="infinity" unicode="&#x221e;" horiz-adv-x="1890" 
d="M512 215q-179 0 -288 120t-109 316q0 197 110.5 318t292.5 121q67 0 125 -16t101 -41t82.5 -64t67.5 -77.5t58 -88.5q89 153 189 220t239 67q178 0 287 -120t109 -317t-110.5 -317.5t-291.5 -120.5q-83 0 -151 22t-120 64.5t-90 89.5t-75 111q-87 -153 -187 -220
t-239 -67zM1364 371q116 0 184 79t68 207q0 127 -69.5 203t-188.5 76q-106 0 -180.5 -58.5t-151.5 -205.5q31 -58 51.5 -94t53.5 -80t64.5 -68.5t75 -41.5t93.5 -17zM535 369q105 0 178.5 58t152.5 206q-31 58 -51.5 94t-53.5 80t-64.5 68.5t-75 41.5t-93.5 17
q-116 0 -185 -80t-69 -207t70 -202.5t191 -75.5z" />
    <glyph glyph-name="integral" unicode="&#x222b;" horiz-adv-x="624" 
d="M104 -397q-68 0 -127 22v154q58 -23 103 -23q79 0 115 52.5t36 168.5v1264q0 188 70 277.5t217 89.5q62 0 129 -21v-155q-58 22 -104 22q-79 0 -115.5 -52.5t-36.5 -168.5v-1264q0 -188 -69.5 -277t-217.5 -89z" />
    <glyph glyph-name="approxequal" unicode="&#x2248;" horiz-adv-x="1232" 
d="M836 672q-71 0 -130 24t-131 82q-59 47 -98.5 65.5t-83.5 18.5q-133 0 -145 -170h-142q4 155 80.5 240.5t210.5 85.5q70 0 129 -24t131 -83q58 -47 98.5 -65.5t84.5 -18.5q133 0 145 170h141q-4 -155 -80 -240t-210 -85zM836 205q-71 0 -130 24t-131 82
q-59 47 -98.5 65.5t-83.5 18.5q-133 0 -145 -170h-142q4 155 80.5 240.5t210.5 85.5q70 0 129 -24t131 -83q58 -47 98.5 -65.5t84.5 -18.5q133 0 145 170h141q-4 -155 -80 -240t-210 -85z" />
    <glyph glyph-name="notequal" unicode="&#x2260;" horiz-adv-x="1232" 
d="M1118 786h-313l-203 -307h516v-155h-618l-185 -281h-174l185 281h-211v155h313l203 307h-516v156h618l185 279h174l-185 -279h211v-156z" />
    <glyph glyph-name="lessequal" unicode="&#x2264;" horiz-adv-x="1232" 
d="M1118 266l-1003 383v152l1003 383v-168l-772 -291l772 -291v-168zM115 0v156h1003v-156h-1003z" />
    <glyph glyph-name="greaterequal" unicode="&#x2265;" horiz-adv-x="1232" 
d="M115 266v168l772 291l-772 291v168l1003 -383v-152zM115 0v156h1003v-156h-1003z" />
    <glyph glyph-name="lozenge" unicode="&#x25ca;" horiz-adv-x="1232" 
d="M616 -66l-550 762l550 762l551 -762zM616 197l363 499l-363 500l-362 -500z" />
    <glyph glyph-name="uniF8FF" unicode="&#xf8ff;" horiz-adv-x="1329" 
d="M539 102q-207 0 -334 125.5t-127 333.5q0 207 132 334t380 127h102v238h322v-238h270v-305h-270v-105q0 -237 -130 -373.5t-345 -136.5zM545 420q69 0 108 46.5t39 141.5v109h-100q-92 0 -137 -42t-45 -114q0 -66 35.5 -103.5t99.5 -37.5z" />
    <glyph glyph-name="Iacute_J.loclNLD" horiz-adv-x="1685" 
d="M133 1534l225 270h226l-269 -270h-182zM1292 1534l226 270h225l-268 -270h-183zM188 0v1393h185v-1393h-185zM1061 -25q-240 0 -352.5 113t-112.5 356v33h178v-33q0 -158 67 -229.5t218 -71.5q155 0 222 77t67 251v922h184v-930q0 -252 -114 -370t-357 -118z" />
    <glyph glyph-name="iacute_j.loclNLD" horiz-adv-x="1040" 
d="M113 1217l225 270h225l-268 -270h-182zM633 1217l225 270h225l-268 -270h-182zM170 0v1057h180v-1057h-180zM516 -373v156h51q73 0 98 27.5t25 109.5v1137h180v-1131q0 -157 -62 -228t-200 -71h-92z" />
    <glyph glyph-name="i.loclTRK" horiz-adv-x="520" 
d="M162 1247v201h196v-201h-196zM170 0v1057h180v-1057h-180z" />
    <glyph glyph-name="germandbls.calt" horiz-adv-x="1294" 
d="M158 0v958q0 223 115 329t356 106h499v-152l-333 -444q231 -9 333.5 -103.5t102.5 -294.5q0 -211 -110.5 -305t-358.5 -94h-240v168h226q161 0 230 53t69 176q0 127 -75.5 180.5t-256.5 53.5h-148v145l336 449h-258q-160 0 -231.5 -64t-71.5 -205v-956h-184z" />
    <glyph glyph-name="zero.pf" horiz-adv-x="1286" 
d="M643 -25q-233 0 -356 118.5t-123 344.5v516q0 226 123 344.5t356 118.5t356 -118.5t123 -344.5v-516q0 -226 -123 -344.5t-356 -118.5zM643 139q299 0 299 312v491q0 311 -299 311t-299 -311v-491q0 -312 299 -312z" />
    <glyph glyph-name="one.pf" horiz-adv-x="876" 
d="M485 0v1155q-79 -55 -171 -75.5t-212 -24.5v159q133 5 228.5 48t163.5 131h172v-1393h-181z" />
    <glyph glyph-name="two.pf" horiz-adv-x="1169" 
d="M113 0v104q0 194 102 322t346 240q184 85 258 163t74 187q0 112 -72 174.5t-213 62.5q-299 0 -299 -278v-29h-176v47q0 205 124.5 314.5t352.5 109.5q224 0 343.5 -105.5t119.5 -291.5q0 -166 -97 -279t-329 -217q-193 -87 -271.5 -164.5t-84.5 -189.5h778v-170h-956z
" />
    <glyph glyph-name="three.pf" horiz-adv-x="1228" 
d="M621 -25q-239 0 -364.5 101t-125.5 293v51h176v-27q0 -254 314 -254q309 0 309 248q0 242 -314 242h-153v164h155q279 0 279 225q0 115 -72.5 175t-208.5 60q-141 0 -215.5 -65t-74.5 -187v-18h-174v31q0 192 123.5 297.5t347.5 105.5q216 0 334 -99.5t118 -283.5
q0 -229 -188 -309v-4q223 -75 223 -340q0 -202 -125 -304t-364 -102z" />
    <glyph glyph-name="four.pf" horiz-adv-x="1214" 
d="M797 0v319h-717v175l692 899h205v-910h164v-164h-164v-319h-180zM283 483h514v676z" />
    <glyph glyph-name="five.pf" horiz-adv-x="1175" 
d="M590 -25q-230 0 -355.5 101.5t-128.5 283.5h177q5 -104 85.5 -162.5t219.5 -58.5q157 0 239 76t82 227q0 148 -79 225.5t-228 77.5q-164 0 -285 -106h-165l47 754h827v-170h-666l-26 -412q122 98 309 98q213 0 330 -120t117 -343q0 -234 -129 -352.5t-371 -118.5z" />
    <glyph glyph-name="six.pf" horiz-adv-x="1282" 
d="M659 -25q-235 0 -361 121t-126 353v493q0 232 126.5 353.5t365.5 121.5q215 0 332 -96.5t124 -280.5h-176q-18 213 -278 213q-314 0 -314 -321v-197q129 150 361 150q204 0 315 -114t111 -331q0 -225 -122.5 -345t-357.5 -120zM659 139q297 0 297 297q0 140 -69.5 212.5
t-206.5 72.5q-239 0 -328 -221v-47q0 -314 307 -314z" />
    <glyph glyph-name="seven.pf" horiz-adv-x="1105" 
d="M279 0q30 717 555 1221h-781v172h989v-179q-274 -263 -415 -560.5t-156 -653.5h-192z" />
    <glyph glyph-name="eight.pf" horiz-adv-x="1265" 
d="M633 -25q-250 0 -382 103t-132 297q0 266 239 346v4q-198 77 -198 307q0 183 125 284t350 101q224 0 348.5 -101t124.5 -284q0 -230 -201 -307v-4q240 -84 240 -346q0 -194 -132 -297t-382 -103zM633 795q145 0 221 58.5t76 168.5q0 112 -77 171.5t-220 59.5
q-141 0 -218 -59t-77 -172q0 -111 75.5 -169t219.5 -58zM633 139q334 0 334 246t-334 246t-334 -246t334 -246z" />
    <glyph glyph-name="nine.pf" horiz-adv-x="1282" 
d="M618 -25q-215 0 -332 96.5t-124 280.5h176q18 -213 278 -213q314 0 314 322v196q-128 -149 -361 -149q-204 0 -315 114t-111 330q0 225 122.5 345t357.5 120t361 -120.5t126 -352.5v-493q0 -232 -126.5 -354t-365.5 -122zM602 672q239 0 328 221v47q0 313 -307 313
q-297 0 -297 -297q0 -284 276 -284z" />
    <glyph glyph-name="zero.numr" 
d="M375 561q-143 0 -218 71t-75 206v303q0 135 75 205.5t218 70.5t218 -70.5t75 -205.5v-303q0 -135 -75 -206t-218 -71zM375 694q143 0 143 152v289q0 149 -143 149q-144 0 -144 -149v-289q0 -152 144 -152z" />
    <glyph glyph-name="one.numr" 
d="M168 586v133h180v495q-76 -41 -205 -45v121q77 3 127.5 27t85.5 76h142v-674h180v-133h-510z" />
    <glyph glyph-name="two.numr" 
d="M86 586v80q0 115 60 191.5t198 139.5q95 43 133.5 82t38.5 92t-35.5 83t-99.5 30q-137 0 -137 -137v-12h-144v30q0 121 74 186.5t211 65.5q135 0 208 -62.5t73 -176.5q0 -98 -58.5 -167.5t-191.5 -129.5q-96 -42 -134.5 -77t-43.5 -81h428v-137h-580z" />
    <glyph glyph-name="three.numr" 
d="M381 561q-145 0 -221 59.5t-76 174.5v32h143v-12q0 -121 154 -121q147 0 147 119q0 61 -38 89t-117 28h-90v131h88q139 0 139 110q0 113 -133 113q-68 0 -103.5 -30t-35.5 -87v-10h-142v21q0 115 74.5 177t210.5 62q132 0 204 -59.5t72 -173.5q0 -130 -98 -176v-4
q119 -45 119 -195q0 -248 -297 -248z" />
    <glyph glyph-name="four.numr" 
d="M457 586v176h-404v137l396 494h157v-500h96v-131h-96v-176h-149zM213 893h244v313z" />
    <glyph glyph-name="five.numr" 
d="M371 561q-138 0 -214 61t-77 173h143q1 -47 40.5 -74t107.5 -27q155 0 155 140q0 67 -37 102t-108 35q-43 0 -84.5 -12.5t-65.5 -34.5h-122l24 469h502v-138h-379l-10 -198q71 47 174 47q122 0 189 -68.5t67 -195.5q0 -137 -78 -208t-227 -71z" />
    <glyph glyph-name="six.numr" 
d="M383 561q-143 0 -220 71.5t-77 203.5v301q0 137 77.5 208.5t225.5 71.5q137 0 206 -61.5t71 -171.5h-144q-2 48 -36 74t-97 26q-153 0 -153 -156v-102q70 76 192 76q119 0 184.5 -68t65.5 -194q0 -135 -75.5 -207t-219.5 -72zM385 694q143 0 143 144q0 133 -133 133
q-113 0 -159 -97v-30q0 -72 38.5 -111t110.5 -39z" />
    <glyph glyph-name="seven.numr" 
d="M197 586q18 403 313 667h-440v140h608v-146q-161 -140 -239 -299.5t-87 -361.5h-155z" />
    <glyph glyph-name="eight.numr" 
d="M377 561q-316 0 -316 238q0 152 129 205v4q-106 46 -106 178q0 111 74.5 171t216.5 60t216.5 -60t74.5 -171q0 -132 -107 -178v-4q129 -54 129 -207q0 -236 -311 -236zM375 1063q71 0 108 28.5t37 82.5q0 110 -145 110q-71 0 -108.5 -28t-37.5 -82t37.5 -82.5
t108.5 -28.5zM375 694q164 0 164 117q0 119 -164 119t-164 -119q0 -117 164 -117z" />
    <glyph glyph-name="nine.numr" 
d="M360 561q-137 0 -205.5 61.5t-70.5 172.5h143q2 -48 36.5 -74.5t96.5 -26.5q154 0 154 156v102q-69 -75 -192 -75q-119 0 -184.5 68t-65.5 194q0 135 75.5 206.5t219.5 71.5q143 0 220 -71t77 -203v-301q0 -137 -78 -209t-226 -72zM354 1008q115 0 160 96v31
q0 72 -38.5 110.5t-110.5 38.5q-144 0 -144 -143q0 -133 133 -133z" />
    <glyph glyph-name="zero.dnom" 
d="M375 -25q-143 0 -218 71t-75 206v303q0 135 75 205.5t218 70.5t218 -70.5t75 -205.5v-303q0 -135 -75 -206t-218 -71zM375 109q143 0 143 151v289q0 149 -143 149q-144 0 -144 -149v-289q0 -151 144 -151z" />
    <glyph glyph-name="one.dnom" 
d="M168 0v133h180v496q-76 -41 -205 -45v121q78 3 128 26.5t85 75.5h142v-674h180v-133h-510z" />
    <glyph glyph-name="two.dnom" 
d="M86 0v80q0 115 60 192t198 140q95 43 133.5 82t38.5 92t-35.5 82.5t-99.5 29.5q-137 0 -137 -137v-12h-144v31q0 121 74 186t211 65q135 0 208 -62.5t73 -176.5q0 -98 -58.5 -167.5t-191.5 -129.5q-96 -42 -134.5 -77t-43.5 -81h428v-137h-580z" />
    <glyph glyph-name="three.dnom" 
d="M381 -25q-145 0 -221 59.5t-76 174.5v33h143v-13q0 -120 154 -120q147 0 147 118q0 61 -38 89t-117 28h-90v131h88q139 0 139 111q0 112 -133 112q-68 0 -103.5 -29.5t-35.5 -86.5v-11h-142v21q0 115 74.5 177t210.5 62q132 0 204 -59.5t72 -173.5q0 -130 -98 -176v-4
q119 -45 119 -195q0 -248 -297 -248z" />
    <glyph glyph-name="four.dnom" 
d="M457 0v176h-404v137l396 494h157v-500h96v-131h-96v-176h-149zM213 307h244v314z" />
    <glyph glyph-name="five.dnom" 
d="M371 -25q-138 0 -214 61t-77 173h143q1 -47 40.5 -73.5t107.5 -26.5q155 0 155 139q0 67 -37 102t-108 35q-43 0 -84.5 -12.5t-65.5 -34.5h-122l24 469h502v-137h-379l-10 -199q71 47 174 47q122 0 189 -68.5t67 -195.5q0 -137 -78 -208t-227 -71z" />
    <glyph glyph-name="six.dnom" 
d="M383 -25q-143 0 -220 71.5t-77 203.5v301q0 137 77.5 208.5t225.5 71.5q137 0 206 -61.5t71 -171.5h-144q-2 48 -36 74t-97 26q-153 0 -153 -155v-103q70 76 192 76q119 0 184.5 -68t65.5 -194q0 -135 -75.5 -207t-219.5 -72zM385 109q143 0 143 143q0 133 -133 133
q-114 0 -159 -96v-31q0 -72 38.5 -110.5t110.5 -38.5z" />
    <glyph glyph-name="seven.dnom" 
d="M197 0q18 404 313 668h-440v139h608v-145q-161 -139 -239 -299.5t-87 -362.5h-155z" />
    <glyph glyph-name="eight.dnom" 
d="M377 -25q-316 0 -316 238q0 153 129 205v4q-106 46 -106 178q0 111 74.5 171t216.5 60t216.5 -60t74.5 -171q0 -132 -107 -178v-4q129 -54 129 -207q0 -236 -311 -236zM375 477q71 0 108 28.5t37 82.5q0 110 -145 110q-71 0 -108.5 -28t-37.5 -82t37.5 -82.5t108.5 -28.5
zM375 109q164 0 164 116q0 119 -164 119t-164 -119q0 -116 164 -116z" />
    <glyph glyph-name="nine.dnom" 
d="M360 -25q-137 0 -205.5 61.5t-70.5 172.5h143q2 -48 36 -74t97 -26q154 0 154 155v103q-70 -76 -192 -76q-119 0 -184.5 68t-65.5 194q0 135 75.5 206.5t219.5 71.5q143 0 220 -71t77 -203v-301q0 -137 -78 -209t-226 -72zM354 422q115 0 160 96v31q0 72 -38.5 110.5
t-110.5 38.5q-144 0 -144 -143q0 -133 133 -133z" />
    <glyph glyph-name="exclamdown.case" horiz-adv-x="598" 
d="M195 1184v209h208v-209h-208zM205 0l4 369l24 610h132l24 -610l4 -369h-188z" />
    <glyph glyph-name="questiondown.case" horiz-adv-x="892" 
d="M381 1184v209h209v-209h-209zM453 -25q-192 0 -298 94.5t-106 264.5q0 107 43.5 181.5t149.5 146.5q94 63 130 120.5t36 143.5v53h155v-59q0 -119 -44 -200.5t-148 -154.5q-81 -57 -112.5 -106.5t-31.5 -120.5q0 -98 59 -151.5t165 -53.5q116 0 176.5 63.5t60.5 184.5
h174q0 -197 -105 -301.5t-304 -104.5z" />
    <glyph glyph-name="at.case" horiz-adv-x="1552" 
d="M846 -41q-350 0 -561 201t-211 534q0 217 91.5 385t260.5 261.5t389 93.5q317 0 509 -184.5t192 -483.5q0 -204 -90.5 -317t-247.5 -113q-164 0 -213 127q-83 -127 -242 -127q-121 0 -184.5 71.5t-63.5 204.5v154q0 135 63.5 205.5t184.5 70.5q151 0 233 -114l9 90h141
v-422q0 -111 88 -111q72 0 112 69.5t40 199.5q0 247 -141 386.5t-386 139.5q-264 0 -416.5 -159.5t-152.5 -422.5q0 -269 160.5 -427t433.5 -158q222 0 377 102l57 -143q-168 -113 -432 -113zM764 485q108 0 166 117v174q-56 117 -168 117q-58 0 -84.5 -34t-26.5 -105v-133
q0 -69 27 -102.5t86 -33.5z" />
    <glyph glyph-name="parenleft.case" horiz-adv-x="694" 
d="M651 -197q-245 77 -377.5 309t-132.5 584t132.5 584t377.5 309v-147q-166 -78 -252 -268.5t-86 -477.5t85.5 -477t252.5 -268v-148z" />
    <glyph glyph-name="parenright.case" horiz-adv-x="694" 
d="M43 -197v148q167 78 252.5 268t85.5 477t-86 477.5t-252 268.5v147q245 -77 377.5 -309t132.5 -584t-132.5 -584t-377.5 -309z" />
    <glyph glyph-name="braceleft.case" horiz-adv-x="694" 
d="M530 -172q-158 0 -230.5 80.5t-72.5 263.5v303q0 89 -34.5 120.5t-126.5 31.5v139q92 0 126.5 31.5t34.5 120.5v303q0 183 72.5 263.5t230.5 80.5h121v-142h-86q-94 0 -130 -43t-36 -153v-293q0 -200 -131 -236v-4q131 -39 131 -235v-293q0 -111 36 -154t130 -43h86v-141
h-121z" />
    <glyph glyph-name="braceright.case" horiz-adv-x="694" 
d="M43 -172v141h86q94 0 130 43t36 154v293q0 196 131 235v4q-131 36 -131 236v293q0 110 -36 153t-130 43h-86v142h121q158 0 230.5 -80.5t72.5 -263.5v-303q0 -89 35 -120.5t127 -31.5v-139q-92 0 -127 -31.5t-35 -120.5v-303q0 -183 -72.5 -263.5t-230.5 -80.5h-121z" />
    <glyph glyph-name="bracketleft.case" horiz-adv-x="694" 
d="M188 -172v1737h463v-142h-291v-1454h291v-141h-463z" />
    <glyph glyph-name="bracketright.case" horiz-adv-x="694" 
d="M43 -172v141h291v1454h-291v142h463v-1737h-463z" />
    <glyph glyph-name="bar.case" horiz-adv-x="593" 
d="M217 -328v2048h160v-2048h-160z" />
    <glyph glyph-name="brokenbar.case" horiz-adv-x="593" 
d="M217 901v819h160v-819h-160zM217 -328v820h160v-820h-160z" />
    <glyph glyph-name="periodcentered.case" horiz-adv-x="569" 
d="M180 592v209h209v-209h-209z" />
    <glyph glyph-name="bullet.case" horiz-adv-x="1024" 
d="M297 471v449h430v-449h-430z" />
    <glyph glyph-name="hyphen.case" horiz-adv-x="757" 
d="M70 606v178h618v-178h-618z" />
    <glyph glyph-name="uni00AD.case" horiz-adv-x="757" 
d="M70 606v178h618v-178h-618z" />
    <glyph glyph-name="figuredash.case" horiz-adv-x="1232" 
d="M61 618v156h1110v-156h-1110z" />
    <glyph glyph-name="endash.case" horiz-adv-x="1024" 
d="M61 618v156h902v-156h-902z" />
    <glyph glyph-name="emdash.case" horiz-adv-x="1843" 
d="M61 618v156h1721v-156h-1721z" />
    <glyph glyph-name="guillemotleft.case" horiz-adv-x="987" 
d="M326 334l-285 360l285 363h192l-285 -363l285 -360h-192zM754 334l-285 360l285 363h192l-284 -363l284 -360h-192z" />
    <glyph glyph-name="guillemotright.case" horiz-adv-x="987" 
d="M41 334l285 362l-285 361h192l285 -361l-285 -362h-192zM469 334l285 362l-285 361h193l284 -361l-284 -362h-193z" />
    <glyph glyph-name="guilsinglleft.case" horiz-adv-x="559" 
d="M326 334l-285 360l285 363h192l-285 -363l285 -360h-192z" />
    <glyph glyph-name="guilsinglright.case" horiz-adv-x="559" 
d="M41 334l285 362l-285 361h192l285 -361l-285 -362h-192z" />
    <glyph glyph-name="caron.alt" horiz-adv-x="307" 
d="M35 1071l86 424h194l-145 -424h-135z" />
    <glyph glyph-name="ringacute" horiz-adv-x="1024" 
d="M365 1638l225 271h225l-268 -271h-182zM512 1151q-96 0 -157.5 60t-61.5 153q0 92 62 152.5t157 60.5t157 -60.5t62 -152.5q0 -93 -61.5 -153t-157.5 -60zM512 1270q39 0 63.5 26t24.5 68q0 41 -24.5 66.5t-63.5 25.5t-63.5 -25.5t-24.5 -66.5q0 -42 24.5 -68t63.5 -26z
" />
    <glyph glyph-name="NULL" horiz-adv-x="0" 
 />
    </font>
</defs>
</svg>
