<?xml version="1.0" standalone="no"?>
<!DOCTYPE svg PUBLIC "-//W3C//DTD SVG 1.1//EN" "http://www.w3.org/Graphics/SVG/1.1/DTD/svg11.dtd" >
<svg xmlns="http://www.w3.org/2000/svg" xmlns:xlink="http://www.w3.org/1999/xlink" version="1.1">
<metadata>
Created by FontForge 20170731 at Mon May  8 10:35:16 2023
 By Aleksey,,,
Copyright (c) 2014-2015 by Ryoichi Tsunekawa. All rights reserved.
</metadata>
<defs>
<font id="BioSans-Light" horiz-adv-x="1230" >
  <font-face 
    font-family="Bio Sans Light"
    font-weight="300"
    font-stretch="normal"
    units-per-em="2048"
    panose-1="2 11 4 6 2 2 2 4 2 4"
    ascent="1638"
    descent="-410"
    x-height="1049"
    cap-height="1393"
    bbox="-328 -463 2183 2187"
    underline-thickness="73"
    underline-position="-277"
    unicode-range="U+000D-FB02"
  />
<missing-glyph horiz-adv-x="1421" 
d="M201 0v1393h1022v-1393h-1022zM711 774l364 535h-729zM289 162l366 534l-366 535v-1069zM1135 162v1069l-367 -535zM346 84h729l-364 534z" />
    <glyph glyph-name="fi" unicode="fi" horiz-adv-x="1163" 
d="M236 0v954h-207v95h207v135q0 311 272 311h154v-98h-136q-94 0 -135 -49.5t-41 -161.5v-137h305v-95h-305v-954h-114zM858 1266v170h127v-170h-127zM864 0v1049h115v-1049h-115z" />
    <glyph glyph-name="fl" unicode="fl" horiz-adv-x="1163" 
d="M236 0v954h-207v95h207v135q0 311 272 311h154v-98h-136q-94 0 -135 -49.5t-41 -161.5v-137h305v-95h-305v-954h-114zM864 0v1495h115v-1495h-115z" />
    <glyph glyph-name=".notdef" horiz-adv-x="1421" 
d="M201 0v1393h1022v-1393h-1022zM711 774l364 535h-729zM289 162l366 534l-366 535v-1069zM1135 162v1069l-367 -535zM346 84h729l-364 534z" />
    <glyph glyph-name=".null" horiz-adv-x="0" 
 />
    <glyph glyph-name="nonmarkingreturn" horiz-adv-x="682" 
 />
    <glyph glyph-name="CR" unicode="&#xd;" horiz-adv-x="552" 
 />
    <glyph glyph-name="space" unicode=" " horiz-adv-x="552" 
 />
    <glyph glyph-name="exclam" unicode="!" horiz-adv-x="559" 
d="M238 418l-17 647l-2 328h119l-2 -328l-17 -647h-81zM209 0v182h139v-182h-139z" />
    <glyph glyph-name="quotedbl" unicode="&#x22;" horiz-adv-x="747" 
d="M160 973l-21 420h131l-20 -420h-90zM500 973l-21 420h131l-20 -420h-90z" />
    <glyph glyph-name="numbersign" unicode="#" 
d="M240 0l47 379h-203v96h215l59 463h-202v96h215l45 359h106l-45 -359h363l45 359h106l-45 -359h199v-96h-211l-60 -463h199v-96h-211l-47 -379h-106l47 379h-363l-47 -379h-106zM406 475h362l59 463h-362z" />
    <glyph glyph-name="dollar" unicode="$" 
d="M569 -147v147q-214 9 -325 104t-111 271h107q0 -256 329 -271v555q-225 35 -319 117t-94 242q0 172 105.5 268t307.5 105v149h101v-149q190 -10 289.5 -103t99.5 -260h-107q0 239 -282 260v-534q227 -35 322 -120.5t95 -252.5q0 -358 -417 -379v-149h-101zM569 770v518
q-301 -15 -301 -256q0 -110 69 -170.5t232 -91.5zM670 104q305 18 305 263q0 116 -69.5 179t-235.5 95v-537z" />
    <glyph glyph-name="percent" unicode="%" horiz-adv-x="1568" 
d="M379 651q-141 0 -216 71t-75 206v211q0 135 75 206.5t216 71.5t216 -71.5t75 -206.5v-211q0 -135 -75 -206t-216 -71zM317 -25l828 1442h106l-827 -1442h-107zM379 741q190 0 190 195v199q0 192 -190 192q-191 0 -191 -192v-199q0 -195 191 -195zM1190 -25
q-141 0 -216 72t-75 207v211q0 135 75 205.5t216 70.5t216 -70.5t75 -205.5v-211q0 -135 -75 -207t-216 -72zM1190 66q190 0 190 194v199q0 192 -190 192q-191 0 -191 -192v-199q0 -194 191 -194z" />
    <glyph glyph-name="ampersand" unicode="&#x26;" horiz-adv-x="1347" 
d="M565 -25q-213 0 -336 100.5t-123 272.5q0 129 72 226t236 186q-84 93 -119 165.5t-35 155.5q0 152 99.5 244t263.5 92q154 0 246 -80t92 -211q0 -120 -83 -207.5t-284 -181.5l395 -405q68 136 80 338h115q-15 -249 -113 -422l242 -248h-156l-151 156q-161 -181 -441 -181
zM520 813q183 82 256.5 151t73.5 160q0 86 -62 139.5t-167 53.5q-114 0 -181 -62.5t-67 -171.5q0 -68 32 -126t115 -144zM569 78q228 0 359 158l-443 448q-142 -76 -203 -152.5t-61 -175.5q0 -129 93.5 -203.5t254.5 -74.5z" />
    <glyph glyph-name="quotesingle" unicode="'" horiz-adv-x="409" 
d="M160 973l-21 420h131l-20 -420h-90z" />
    <glyph glyph-name="parenleft" unicode="(" horiz-adv-x="669" 
d="M627 -266q-226 85 -350.5 318t-124.5 575t124.5 575t350.5 318v-95q-177 -86 -271 -292t-94 -506t94 -506.5t271 -292.5v-94z" />
    <glyph glyph-name="parenright" unicode=")" horiz-adv-x="669" 
d="M43 -266v94q177 86 271 292.5t94 506.5t-94 506t-271 292v95q226 -85 350.5 -318t124.5 -575t-124.5 -575t-350.5 -318z" />
    <glyph glyph-name="asterisk" unicode="*" horiz-adv-x="808" 
d="M215 643l-80 57l207 275l-324 92l31 98l318 -114l-11 342h97l-11 -342l318 114l31 -98l-324 -92l207 -275l-80 -57l-188 287z" />
    <glyph glyph-name="plus" unicode="+" 
d="M563 115v465h-446v102h446v467h107v-467h444v-102h-444v-465h-107z" />
    <glyph glyph-name="comma" unicode="," horiz-adv-x="524" 
d="M166 -246v78q80 10 80 131v37h-53v182h141v-190q0 -226 -168 -238z" />
    <glyph glyph-name="hyphen" unicode="-" horiz-adv-x="741" 
d="M72 541v110h600v-110h-600z" />
    <glyph glyph-name="period" unicode="." horiz-adv-x="524" 
d="M193 0v182h139v-182h-139z" />
    <glyph glyph-name="slash" unicode="/" horiz-adv-x="882" 
d="M20 -287l732 1782h112l-731 -1782h-113z" />
    <glyph glyph-name="zero" unicode="0" 
d="M616 -25q-230 0 -350.5 118t-120.5 341v524q0 223 120.5 341t350.5 118q228 0 348.5 -118t120.5 -341v-524q0 -223 -120.5 -341t-348.5 -118zM616 80q355 0 355 364v504q0 365 -355 365q-356 0 -356 -365v-504q0 -364 356 -364z" />
    <glyph glyph-name="one" unicode="1" 
d="M283 0v109h352v1130q-152 -107 -393 -123v101q249 15 397 176h111v-1284h352v-109h-819z" />
    <glyph glyph-name="two" unicode="2" 
d="M145 0v78q0 190 104 317.5t353 243.5q203 94 285 181.5t82 211.5q0 132 -87.5 206.5t-252.5 74.5q-170 0 -260 -81.5t-90 -238.5v-22h-111v35q0 197 121.5 304t343.5 107q217 0 332.5 -102.5t115.5 -280.5q0 -160 -95.5 -269.5t-326.5 -215.5q-219 -100 -309.5 -199
t-91.5 -241h823v-109h-936z" />
    <glyph glyph-name="three" unicode="3" 
d="M621 -25q-233 0 -357.5 100.5t-124.5 286.5v37h113v-22q0 -297 369 -297q364 0 364 297q0 287 -356 287h-162v104h166q154 0 235.5 68t81.5 198q0 133 -87 206t-247 73q-165 0 -255.5 -77.5t-90.5 -217.5v-14h-110v22q0 182 123.5 286.5t339.5 104.5q207 0 323.5 -99
t116.5 -276q0 -245 -219 -317v-2q256 -73 256 -350q0 -196 -123.5 -297t-355.5 -101z" />
    <glyph glyph-name="four" unicode="4" 
d="M864 0v332h-766v112l750 949h131v-957h178v-104h-178v-332h-115zM225 436h639v813z" />
    <glyph glyph-name="five" unicode="5" 
d="M614 -25q-220 0 -345 97.5t-130 267.5h113q5 -122 100 -191t260 -69q186 0 284.5 91t98.5 269t-96.5 268.5t-265.5 90.5q-205 0 -346 -129h-101l45 723h816v-109h-713l-33 -496q142 115 350 115q218 0 338.5 -119.5t120.5 -341.5q0 -228 -129.5 -347.5t-366.5 -119.5z
" />
    <glyph glyph-name="six" unicode="6" 
d="M635 -25q-229 0 -352 119t-123 346v508q0 228 124.5 348.5t358.5 120.5q204 0 318.5 -91.5t125.5 -260.5h-112q-10 122 -95 185t-235 63q-371 0 -371 -375v-252q137 191 406 191q206 0 317 -113t111 -328q0 -222 -121 -341.5t-352 -119.5zM635 80q178 0 268 89.5
t90 262.5q0 168 -84 254t-247 86q-276 0 -388 -256v-70q0 -366 361 -366z" />
    <glyph glyph-name="seven" unicode="7" 
d="M371 0q15 365 167 688.5t433 593.5h-854v111h987v-117q-581 -546 -610 -1276h-123z" />
    <glyph glyph-name="eight" unicode="8" 
d="M616 -25q-247 0 -377 101.5t-130 292.5q0 137 70 227t204 127v4q-114 35 -172.5 114.5t-58.5 198.5q0 178 122.5 277.5t341.5 99.5q220 0 342.5 -99.5t122.5 -277.5q0 -242 -233 -313v-2q274 -78 274 -356q0 -191 -130 -292.5t-376 -101.5zM616 770q172 0 262.5 69
t90.5 199q0 132 -92.5 203.5t-260.5 71.5t-260 -71.5t-92 -203.5q0 -131 89.5 -199.5t262.5 -68.5zM616 80q193 0 292.5 75t99.5 218q0 145 -99.5 220t-292.5 75q-194 0 -293.5 -75t-99.5 -220q0 -143 99.5 -218t293.5 -75z" />
    <glyph glyph-name="nine" unicode="9" 
d="M590 -25q-205 0 -320.5 92t-124.5 261h111q10 -122 95 -185t237 -63q368 0 368 375v252q-137 -191 -403 -191q-206 0 -318 112.5t-112 327.5q0 222 121 341.5t352 119.5q229 0 352 -119t123 -346v-508q0 -228 -124.5 -348.5t-356.5 -120.5zM569 621q275 0 387 256v69
q0 367 -360 367q-178 0 -268 -89.5t-90 -262.5q0 -168 84 -254t247 -86z" />
    <glyph glyph-name="colon" unicode=":" horiz-adv-x="524" 
d="M193 786v183h139v-183h-139zM193 0v182h139v-182h-139z" />
    <glyph glyph-name="semicolon" unicode=";" horiz-adv-x="524" 
d="M193 786v183h139v-183h-139zM166 -246v78q80 10 80 131v37h-53v182h141v-190q0 -226 -168 -238z" />
    <glyph glyph-name="less" unicode="&#x3c;" 
d="M1114 150l-997 430v100l997 430v-109l-860 -370l860 -373v-108z" />
    <glyph glyph-name="equal" unicode="=" 
d="M117 807v102h997v-102h-997zM117 352v103h997v-103h-997z" />
    <glyph glyph-name="greater" unicode="&#x3e;" 
d="M117 1112l997 -430v-100l-997 -430v108l860 373l-860 371v108z" />
    <glyph glyph-name="question" unicode="?" horiz-adv-x="866" 
d="M346 418v55q0 119 44.5 197t148.5 145q91 58 126 113.5t35 138.5q0 120 -71 185t-203 65q-136 0 -209.5 -73.5t-73.5 -209.5h-110q0 183 103 283t292 100q183 0 284 -92t101 -258q0 -106 -43 -176.5t-147 -134.5q-100 -61 -139.5 -124.5t-39.5 -160.5v-53h-98zM326 0v182
h139v-182h-139z" />
    <glyph glyph-name="at" unicode="@" horiz-adv-x="1556" 
d="M842 -139q-229 0 -402 90t-266.5 255.5t-93.5 383.5q0 216 91.5 383.5t259 260.5t384.5 93q315 0 505.5 -185.5t190.5 -484.5q0 -200 -86 -316t-233 -116q-159 0 -195 148q-94 -148 -262 -148q-121 0 -187.5 74.5t-66.5 208.5v160q0 134 66.5 207t187.5 73
q165 0 258 -137l6 113h93v-455q0 -145 112 -145q92 0 145.5 85.5t53.5 239.5q0 265 -158.5 421.5t-427.5 156.5q-285 0 -454.5 -174t-169.5 -459q0 -290 176 -461.5t473 -171.5q231 0 393 107l41 -93q-166 -114 -434 -114zM756 324q140 0 223 159v209q-85 160 -225 160
q-78 0 -119 -49.5t-41 -145.5v-143q0 -94 41 -142t121 -48z" />
    <glyph glyph-name="A" unicode="A" 
d="M25 0l532 1393h119l530 -1393h-125l-149 393h-637l-150 -393h-120zM336 502h555l-277 745z" />
    <glyph glyph-name="B" unicode="B" horiz-adv-x="1306" 
d="M203 0v1393h532q217 0 322.5 -88t105.5 -269q0 -250 -205 -313v-4q130 -32 192 -115.5t62 -226.5q0 -192 -107.5 -284.5t-330.5 -92.5h-571zM319 764h420q159 0 233.5 62t74.5 196q0 137 -76.5 199.5t-243.5 62.5h-408v-520zM319 109h441q177 0 255.5 66t78.5 208
q0 146 -83.5 209t-271.5 63h-420v-546z" />
    <glyph glyph-name="C" unicode="C" horiz-adv-x="1257" 
d="M651 -25q-252 0 -382 136t-130 403v365q0 267 129 402.5t383 135.5q234 0 361 -115t137 -337h-115q-21 344 -383 344q-200 0 -297.5 -108.5t-97.5 -330.5v-348q0 -222 97.5 -330t297.5 -108q362 0 383 342h115q-10 -221 -137.5 -336t-360.5 -115z" />
    <glyph glyph-name="D" unicode="D" horiz-adv-x="1325" 
d="M203 0v1393h461q269 0 396.5 -130t127.5 -405v-323q0 -276 -127.5 -405.5t-396.5 -129.5h-461zM319 109h334q220 0 319 100.5t99 327.5v319q0 227 -99 327.5t-319 100.5h-334v-1175z" />
    <glyph glyph-name="E" unicode="E" horiz-adv-x="1191" 
d="M203 0v1393h893v-109h-777v-514h674v-108h-674v-553h797v-109h-913z" />
    <glyph glyph-name="F" unicode="F" horiz-adv-x="1116" 
d="M203 0v1393h876v-109h-760v-514h658v-108h-658v-662h-116z" />
    <glyph glyph-name="G" unicode="G" horiz-adv-x="1304" 
d="M666 -25q-254 0 -390.5 135.5t-136.5 391.5v389q0 250 136 388t384 138q227 0 358 -115.5t140 -328.5h-115q-9 161 -107.5 248.5t-277.5 87.5q-196 0 -298.5 -109.5t-102.5 -318.5v-369q0 -428 412 -428q197 0 293 102t96 312v102h-340v109h454v-213
q0 -256 -127.5 -388.5t-377.5 -132.5z" />
    <glyph glyph-name="H" unicode="H" horiz-adv-x="1425" 
d="M203 0v1393h116v-623h787v623h117v-1393h-117v662h-787v-662h-116z" />
    <glyph glyph-name="I" unicode="I" horiz-adv-x="522" 
d="M203 0v1393h116v-1393h-116z" />
    <glyph glyph-name="J" unicode="J" horiz-adv-x="1122" 
d="M494 -25q-234 0 -345.5 111t-111.5 344v29h113v-23q0 -186 81 -269t261 -83q187 0 268.5 91t81.5 298v920h116v-930q0 -251 -112.5 -369.5t-351.5 -118.5z" />
    <glyph glyph-name="K" unicode="K" horiz-adv-x="1263" 
d="M203 0v1393h116v-813l764 813h148l-531 -566l539 -827h-139l-482 739l-299 -313v-426h-116z" />
    <glyph glyph-name="L" unicode="L" horiz-adv-x="1064" 
d="M203 0v1393h116v-1284h732v-109h-848z" />
    <glyph glyph-name="M" unicode="M" horiz-adv-x="1763" 
d="M203 0v1393h168l512 -1211l512 1211h166v-1393h-117v1229l-520 -1229h-86l-521 1229v-1229h-114z" />
    <glyph glyph-name="N" unicode="N" horiz-adv-x="1419" 
d="M203 0v1393h143l756 -1184v1184h115v-1393h-115l-785 1229v-1229h-114z" />
    <glyph glyph-name="O" unicode="O" horiz-adv-x="1339" 
d="M670 -25q-260 0 -395.5 138t-135.5 403v361q0 265 135.5 402.5t395.5 137.5t395 -137.5t135 -402.5v-361q0 -265 -135 -403t-395 -138zM672 84q208 0 309.5 108t101.5 330v348q0 222 -102 330.5t-309 108.5q-209 0 -311.5 -108t-102.5 -331v-348q0 -222 102 -330
t312 -108z" />
    <glyph glyph-name="P" unicode="P" horiz-adv-x="1226" 
d="M203 0v1393h514q236 0 344 -99t108 -313t-108 -312t-344 -98h-398v-571h-116zM319 680h394q183 0 260.5 69.5t77.5 231.5q0 163 -77.5 233t-260.5 70h-394v-604z" />
    <glyph glyph-name="Q" unicode="Q" horiz-adv-x="1337" 
d="M1178 -127l-183 184q-125 -82 -325 -82q-260 0 -395.5 138t-135.5 403v361q0 265 135.5 402.5t395.5 137.5t395 -137.5t135 -402.5v-361q0 -248 -117 -383l177 -178zM672 84q154 0 246 57l-279 281l80 80l282 -287q82 107 82 307v348q0 222 -102 330.5t-309 108.5
q-209 0 -311.5 -108t-102.5 -331v-348q0 -222 102 -330t312 -108z" />
    <glyph glyph-name="R" unicode="R" horiz-adv-x="1288" 
d="M203 0v1393h522q230 0 333 -94.5t103 -305.5q0 -181 -76 -275.5t-243 -117.5l370 -600h-139l-364 594h-390v-594h-116zM319 702h398q179 0 252 66t73 225t-73 225t-252 66h-398v-582z" />
    <glyph glyph-name="S" unicode="S" horiz-adv-x="1138" 
d="M575 -25q-241 0 -368 101t-127 293h117q0 -140 98 -212.5t285 -72.5q360 0 360 274q0 136 -88 203t-305 96q-240 32 -340.5 116.5t-100.5 254.5q0 189 122.5 289t351.5 100q224 0 339 -97t115 -286h-116q0 275 -340 275q-173 0 -264 -68.5t-91 -198.5q0 -126 84 -188
t287 -88q253 -32 358 -122.5t105 -274.5q0 -195 -122 -294.5t-360 -99.5z" />
    <glyph glyph-name="T" unicode="T" horiz-adv-x="1026" 
d="M455 0v1284h-439v109h996v-109h-441v-1284h-116z" />
    <glyph glyph-name="U" unicode="U" horiz-adv-x="1316" 
d="M659 -25q-261 0 -378 113.5t-117 364.5v940h117v-938q0 -203 86 -287t295 -84q207 0 292.5 84t85.5 287v938h113v-940q0 -251 -117.5 -364.5t-376.5 -113.5z" />
    <glyph glyph-name="V" unicode="V" horiz-adv-x="1181" 
d="M530 0l-505 1393h125l444 -1231l442 1231h121l-504 -1393h-123z" />
    <glyph glyph-name="W" unicode="W" horiz-adv-x="1783" 
d="M420 0l-393 1393h120l338 -1209l349 1209h118l351 -1213l337 1213h117l-393 -1393h-123l-350 1200l-350 -1200h-121z" />
    <glyph glyph-name="X" unicode="X" horiz-adv-x="1153" 
d="M37 0l463 717l-447 676h137l396 -598l383 598h133l-449 -693l463 -700h-137l-410 623l-399 -623h-133z" />
    <glyph glyph-name="Y" unicode="Y" horiz-adv-x="1105" 
d="M494 0v612l-500 781h139l422 -660l422 660h133l-500 -781v-612h-116z" />
    <glyph glyph-name="Z" unicode="Z" horiz-adv-x="1110" 
d="M66 0v98l815 1186h-779v109h924v-99l-815 -1185h833v-109h-978z" />
    <glyph glyph-name="bracketleft" unicode="[" horiz-adv-x="669" 
d="M203 -242v1737h424v-90h-314v-1557h314v-90h-424z" />
    <glyph glyph-name="backslash" unicode="\" horiz-adv-x="882" 
d="M752 -287l-732 1782h113l731 -1782h-112z" />
    <glyph glyph-name="bracketright" unicode="]" horiz-adv-x="669" 
d="M43 -242v90h315v1557h-315v90h426v-1737h-426z" />
    <glyph glyph-name="asciicircum" unicode="^" 
d="M61 682l506 711h99l505 -711h-122l-433 608l-432 -608h-123z" />
    <glyph glyph-name="underscore" unicode="_" horiz-adv-x="1024" 
d="M0 -236v99h1024v-99h-1024z" />
    <glyph glyph-name="grave" unicode="`" horiz-adv-x="1024" 
d="M510 1223l-250 260h148l221 -260h-119z" />
    <glyph glyph-name="a" unicode="a" horiz-adv-x="1110" 
d="M444 -25q-161 0 -251.5 81t-90.5 231q0 317 430 317h299v94q0 139 -71.5 207t-218.5 68q-137 0 -212.5 -58t-82.5 -172h-113q15 163 119 246.5t293 83.5q401 0 401 -375v-698h-98l-4 174q-146 -199 -400 -199zM459 74q240 0 372 225v207h-292q-169 0 -245.5 -52
t-76.5 -163q0 -106 62 -161.5t180 -55.5z" />
    <glyph glyph-name="b" unicode="b" horiz-adv-x="1191" 
d="M682 -25q-254 0 -395 234l-4 -209h-99v1495h115v-635q137 213 383 213q181 0 281 -112t100 -318v-235q0 -208 -100 -320.5t-281 -112.5zM670 76q134 0 206 87t72 251v221q0 164 -72 251t-206 87q-241 0 -371 -279v-338q63 -137 157.5 -208.5t213.5 -71.5z" />
    <glyph glyph-name="c" unicode="c" horiz-adv-x="1052" 
d="M557 -25q-206 0 -317 114.5t-111 330.5v209q0 216 110 330t316 114q190 0 296 -94.5t114 -267.5h-111q-18 262 -295 262q-159 0 -237 -86.5t-78 -263.5v-197q0 -177 78 -263.5t237 -86.5q277 0 295 262h111q-8 -171 -113 -267t-295 -96z" />
    <glyph glyph-name="d" unicode="d" horiz-adv-x="1191" 
d="M510 -25q-181 0 -281 112.5t-100 320.5v235q0 206 100 318t281 112q246 0 383 -213v635h115v-1495h-99l-4 209q-141 -234 -395 -234zM522 76q242 0 371 280v338q-130 279 -371 279q-134 0 -206 -87t-72 -251v-221q0 -164 72 -251t206 -87z" />
    <glyph glyph-name="e" unicode="e" horiz-adv-x="1118" 
d="M573 -25q-215 0 -329.5 114.5t-114.5 330.5v209q0 216 111.5 330t322.5 114t321.5 -113.5t110.5 -330.5v-129h-751v-72q0 -178 80.5 -265t244.5 -87q140 0 219.5 60.5t88.5 170.5h110q-10 -160 -118.5 -246t-295.5 -86zM244 598h641v23q0 178 -79.5 265t-242.5 87
t-241 -86.5t-78 -265.5v-23z" />
    <glyph glyph-name="f" unicode="f" horiz-adv-x="679" 
d="M236 0v954h-207v95h207v135q0 311 272 311h154v-98h-136q-94 0 -135 -49.5t-41 -161.5v-137h305v-95h-305v-954h-114z" />
    <glyph glyph-name="g" unicode="g" horiz-adv-x="1191" 
d="M571 -397q-194 0 -300 79t-117 230h108q18 -209 305 -209q168 0 247 75.5t79 235.5v219q-142 -213 -383 -213q-181 0 -281 112.5t-100 320.5v190q0 206 100 318t281 112q253 0 395 -231l4 207h99v-1035q0 -411 -437 -411zM522 123q243 0 371 278v293q-130 279 -371 279
q-134 0 -206 -87t-72 -251v-174q0 -165 72 -251.5t206 -86.5z" />
    <glyph glyph-name="h" unicode="h" horiz-adv-x="1159" 
d="M184 0v1495h115v-631q130 209 365 209q162 0 244.5 -96t82.5 -283v-694h-114v682q0 145 -57 216t-175 71q-225 0 -346 -273v-696h-115z" />
    <glyph glyph-name="i" unicode="i" horiz-adv-x="483" 
d="M178 1266v170h127v-170h-127zM184 0v1049h115v-1049h-115z" />
    <glyph glyph-name="j" unicode="j" horiz-adv-x="483" 
d="M178 1266v170h127v-170h-127zM-6 -373v101h45q86 0 115.5 36.5t29.5 139.5v1145h115v-1143q0 -148 -56.5 -213.5t-183.5 -65.5h-65z" />
    <glyph glyph-name="k" unicode="k" horiz-adv-x="1067" 
d="M184 0v1495h115v-1030l586 584h147l-430 -428l438 -621h-139l-381 539l-221 -217v-322h-115z" />
    <glyph glyph-name="l" unicode="l" horiz-adv-x="483" 
d="M184 0v1495h115v-1495h-115z" />
    <glyph glyph-name="m" unicode="m" horiz-adv-x="1781" 
d="M184 0v1049h99l4 -193q126 217 352 217q242 0 299 -219q64 112 151.5 165.5t204.5 53.5q154 0 237 -91.5t83 -264.5v-717h-115v707q0 130 -55.5 196t-163.5 66q-106 0 -185 -65t-141 -199v-705h-114v707q0 262 -217 262q-106 0 -184.5 -65.5t-139.5 -201.5v-702h-115z
" />
    <glyph glyph-name="n" unicode="n" horiz-adv-x="1159" 
d="M184 0v1049h99l4 -203q133 227 377 227q162 0 244.5 -96t82.5 -283v-694h-114v682q0 145 -57 216t-175 71q-225 0 -346 -273v-696h-115z" />
    <glyph glyph-name="o" unicode="o" horiz-adv-x="1146" 
d="M573 -25q-216 0 -330 116.5t-114 336.5v193q0 220 113.5 336t330.5 116q216 0 330.5 -116.5t114.5 -335.5v-193q0 -220 -115 -336.5t-330 -116.5zM573 76q330 0 330 360v178q0 177 -83 268t-247 91q-329 0 -329 -359v-178q0 -360 329 -360z" />
    <glyph glyph-name="p" unicode="p" horiz-adv-x="1191" 
d="M184 -373v1422h99l4 -207q139 231 395 231q181 0 281 -112t100 -318v-235q0 -208 -100 -320.5t-281 -112.5q-245 0 -383 215v-563h-115zM670 76q134 0 206 87t72 251v221q0 164 -72 251t-206 87q-241 0 -371 -279v-338q129 -280 371 -280z" />
    <glyph glyph-name="q" unicode="q" horiz-adv-x="1191" 
d="M893 -373v563q-138 -215 -383 -215q-181 0 -281 112.5t-100 320.5v235q0 206 100 318t281 112q253 0 393 -229l6 205h99v-1422h-115zM522 76q242 0 371 280v338q-130 279 -371 279q-134 0 -206 -87t-72 -251v-221q0 -164 72 -251t206 -87z" />
    <glyph glyph-name="r" unicode="r" horiz-adv-x="708" 
d="M184 0v1049h99l4 -215q44 121 124 178t201 57h68v-111h-55q-135 0 -214 -77t-112 -244v-637h-115z" />
    <glyph glyph-name="s" unicode="s" horiz-adv-x="1015" 
d="M508 -25q-207 0 -314.5 82t-107.5 240h111q0 -221 309 -221q148 0 224.5 52t76.5 151q0 95 -71.5 141t-248.5 65q-204 22 -289 86.5t-85 196.5q0 146 102 225.5t291 79.5t289 -79.5t100 -231.5h-113q0 103 -70 158t-204 55q-135 0 -210 -52.5t-75 -146.5q0 -87 68.5 -129
t236.5 -59q213 -22 302.5 -91t89.5 -210q0 -153 -105 -232.5t-307 -79.5z" />
    <glyph glyph-name="t" unicode="t" horiz-adv-x="679" 
d="M494 0q-141 0 -205 73.5t-64 237.5v643h-196v95h198l11 286h102v-286h287v-95h-287v-643q0 -120 38 -165.5t138 -45.5h123v-100h-145z" />
    <glyph glyph-name="u" unicode="u" horiz-adv-x="1169" 
d="M500 -25q-164 0 -248 96.5t-84 282.5v695h115v-682q0 -145 57.5 -216t177.5 -71q232 0 352 278v691h115v-1049h-98l-4 207q-134 -232 -383 -232z" />
    <glyph glyph-name="v" unicode="v" horiz-adv-x="966" 
d="M420 0l-389 1049h123l331 -916l332 916h119l-389 -1049h-127z" />
    <glyph glyph-name="w" unicode="w" horiz-adv-x="1581" 
d="M375 0l-344 1049h121l288 -906l295 906h115l293 -906l289 906h116l-344 -1049h-123l-290 887l-291 -887h-125z" />
    <glyph glyph-name="x" unicode="x" horiz-adv-x="991" 
d="M27 0l393 545l-373 504h139l322 -435l311 435h129l-375 -523l390 -526h-140l-340 459l-327 -459h-129z" />
    <glyph glyph-name="y" unicode="y" horiz-adv-x="944" 
d="M117 -373v101h69q72 0 107.5 29t66.5 112l66 178l-395 1002h123l333 -859l310 859h116l-442 -1196q-47 -129 -106 -177.5t-168 -48.5h-80z" />
    <glyph glyph-name="z" unicode="z" horiz-adv-x="931" 
d="M66 0v86l643 864h-600v99h743v-86l-641 -863h651v-100h-796z" />
    <glyph glyph-name="braceleft" unicode="{" horiz-adv-x="669" 
d="M530 -242q-147 0 -215.5 77.5t-68.5 246.5v340q0 92 -37 126t-137 34v90q100 0 137 33.5t37 125.5v340q0 169 68.5 246.5t215.5 77.5h97v-90h-80q-102 0 -146.5 -53t-44.5 -176v-332q0 -186 -123 -215v-4q64 -17 93.5 -69.5t29.5 -145.5v-332q0 -123 45 -176.5t146 -53.5
h80v-90h-97z" />
    <glyph glyph-name="bar" unicode="|" horiz-adv-x="571" 
d="M233 -463v2048h107v-2048h-107z" />
    <glyph glyph-name="braceright" unicode="}" horiz-adv-x="669" 
d="M43 -242v90h78q102 0 147 53.5t45 176.5v332q0 182 121 215v4q-121 29 -121 215v332q0 122 -45 175.5t-147 53.5h-78v90h94q147 0 216 -77.5t69 -246.5v-340q0 -92 38 -125.5t138 -33.5v-90q-100 0 -138 -34t-38 -126v-340q0 -169 -69 -246.5t-216 -77.5h-94z" />
    <glyph glyph-name="asciitilde" unicode="~" 
d="M842 481q-69 0 -126 24.5t-126 84.5q-60 53 -104.5 72.5t-98.5 19.5q-78 0 -123.5 -47t-52.5 -137h-92q7 136 78 210t194 74q69 0 125.5 -24t126.5 -84q63 -52 106.5 -72t96.5 -20q158 0 176 184h92q-8 -137 -78.5 -211t-193.5 -74z" />
    <glyph glyph-name="uni00A0" unicode="&#xa0;" horiz-adv-x="552" 
 />
    <glyph glyph-name="exclamdown" unicode="&#xa1;" horiz-adv-x="559" 
d="M209 866v183h139v-183h-139zM219 -344l2 328l17 647h81l17 -647l2 -328h-119z" />
    <glyph glyph-name="cent" unicode="&#xa2;" 
d="M586 -147v149q-191 11 -290 118.5t-99 303.5v201q0 198 98 305t291 117v149h100v-149q172 -12 265.5 -102t101.5 -245h-111q-15 225 -256 246v-844q123 10 185.5 71t70.5 175h111q-8 -156 -101.5 -245t-265.5 -101v-149h-100zM586 102v844q-142 -10 -208.5 -89.5
t-66.5 -238.5v-188q0 -157 66.5 -237.5t208.5 -90.5z" />
    <glyph glyph-name="sterling" unicode="&#xa3;" 
d="M174 0v100q97 62 140.5 141t43.5 197q0 90 -24 166h-203v105h166q-80 174 -80 311q0 195 115 296t330 101q213 0 326.5 -99t113.5 -286h-111q0 138 -84 209.5t-250 71.5q-163 0 -245 -72t-82 -223q0 -66 16.5 -127t65.5 -182h561v-105h-529q21 -82 21 -160
q0 -221 -143 -335h761v-109h-909z" />
    <glyph glyph-name="currency" unicode="&#xa4;" 
d="M170 176l-78 76l248 252q-59 85 -59 192q0 108 59 193l-248 252l78 76l246 -250q85 63 198 63q110 0 199 -63l248 250l78 -76l-250 -252q59 -85 59 -193q0 -107 -59 -192l250 -252l-78 -76l-248 250q-90 -64 -199 -64q-112 0 -198 64zM616 467q97 0 161.5 65.5
t64.5 163.5t-64.5 164t-161.5 66q-98 0 -162.5 -65.5t-64.5 -164.5q0 -98 64.5 -163.5t162.5 -65.5z" />
    <glyph glyph-name="yen" unicode="&#xa5;" 
d="M557 0v287h-401v94h401v194h-401v95h389l-471 723h135l407 -633l410 633h131l-471 -723h389v-95h-403v-194h403v-94h-403v-287h-115z" />
    <glyph glyph-name="brokenbar" unicode="&#xa6;" horiz-adv-x="571" 
d="M233 766v819h107v-819h-107zM233 -463v819h107v-819h-107z" />
    <glyph glyph-name="section" unicode="&#xa7;" horiz-adv-x="1196" 
d="M590 -401q-217 0 -333 90.5t-116 263.5h111q0 -126 86 -190t252 -64q164 0 249 60.5t85 170.5q0 106 -85 165.5t-292 97.5q-234 43 -332 120t-98 217q0 202 205 293v4q-82 42 -119 104t-37 152q0 159 110 246.5t310 87.5q201 0 311.5 -89t110.5 -253h-113
q0 119 -78 180.5t-229 61.5q-149 0 -229 -58.5t-80 -164.5q0 -103 83 -161t285 -95q235 -43 333.5 -120.5t98.5 -217.5q0 -202 -202 -289v-4q84 -44 120.5 -107.5t36.5 -158.5q0 -165 -113.5 -253.5t-330.5 -88.5zM766 256q203 57 203 225q0 105 -81.5 162.5t-287.5 95.5
q-103 20 -168 39q-96 -29 -149.5 -87t-53.5 -144q0 -103 80.5 -159t282.5 -91q109 -20 174 -41z" />
    <glyph glyph-name="dieresis" unicode="&#xa8;" horiz-adv-x="1024" 
d="M274 1270v162h132v-162h-132zM618 1270v162h132v-162h-132z" />
    <glyph glyph-name="copyright" unicode="&#xa9;" horiz-adv-x="1595" 
d="M797 -25q-205 0 -370 93t-258 258t-93 370t93 370t258 258t370 93t370 -93t258 -258t93 -370t-93 -370t-258 -258t-370 -93zM797 70q276 0 447 174t171 452q0 183 -77 325.5t-218 222t-323 79.5q-275 0 -446 -175t-171 -452t171 -451.5t446 -174.5zM795 307
q-291 0 -291 293v191q0 294 291 294q136 0 210 -64t78 -190h-102q-9 164 -182 164q-97 0 -143 -51t-46 -158v-178q0 -109 46 -160t143 -51q173 0 182 164h102q-4 -126 -78 -190t-210 -64z" />
    <glyph glyph-name="ordfeminine" unicode="&#xaa;" horiz-adv-x="870" 
d="M332 645q-119 0 -184.5 58t-65.5 161q0 112 73.5 170t209.5 58h249v67q0 168 -200 168q-94 0 -148 -36t-63 -105h-94q9 113 88 172t221 59q149 0 224 -66t75 -194v-487h-88l-6 114q-110 -139 -291 -139zM348 733q174 0 266 154v125h-233q-197 0 -197 -144
q0 -135 164 -135zM94 373v90h625v-90h-625z" />
    <glyph glyph-name="guillemotleft" unicode="&#xab;" horiz-adv-x="929" 
d="M350 168l-297 356l297 357h129l-297 -357l297 -356h-129zM750 168l-297 356l297 357h129l-297 -357l297 -356h-129z" />
    <glyph glyph-name="logicalnot" unicode="&#xac;" 
d="M1008 258v467h-891v100h997v-567h-106z" />
    <glyph glyph-name="uni00AD" unicode="&#xad;" horiz-adv-x="741" 
d="M72 541v110h600v-110h-600z" />
    <glyph glyph-name="registered" unicode="&#xae;" horiz-adv-x="1595" 
d="M797 -25q-205 0 -370 93t-258 258t-93 370t93 370t258 258t370 93t370 -93t258 -258t93 -370t-93 -370t-258 -258t-370 -93zM797 70q276 0 447 174t171 452q0 183 -77 325.5t-218 222t-323 79.5q-275 0 -446 -175t-171 -452t171 -451.5t446 -174.5zM522 328v737h309
q134 0 196.5 -52t62.5 -167q0 -92 -39 -144t-121 -69l203 -305h-121l-195 297h-188v-297h-107zM629 713h190q89 0 127.5 31t38.5 100q0 70 -38.5 100.5t-127.5 30.5h-190v-262z" />
    <glyph glyph-name="macron" unicode="&#xaf;" horiz-adv-x="1024" 
d="M293 1307v92h438v-92h-438z" />
    <glyph glyph-name="degree" unicode="&#xb0;" horiz-adv-x="743" 
d="M373 848q-132 0 -219.5 87.5t-87.5 219.5t87.5 219.5t219.5 87.5t219.5 -87.5t87.5 -219.5t-87.5 -219.5t-219.5 -87.5zM371 942q90 0 148.5 60t58.5 153t-58.5 153t-148.5 60t-148.5 -60t-58.5 -153t58.5 -153t148.5 -60z" />
    <glyph glyph-name="plusminus" unicode="&#xb1;" 
d="M563 203v438h-446v102h446v449h107v-449h444v-102h-444v-438h-107zM117 0v102h997v-102h-997z" />
    <glyph glyph-name="uni00B2" unicode="&#xb2;" horiz-adv-x="749" 
d="M92 852v59q0 114 60.5 190t205.5 142q109 50 154 96.5t45 110.5q0 67 -45 105t-129 38q-87 0 -133.5 -43t-46.5 -123v-12h-97v25q0 117 73 180t208 63q130 0 200 -61t70 -170q0 -94 -56.5 -159.5t-190.5 -127.5q-118 -54 -166 -103t-51 -118h464v-92h-565z" />
    <glyph glyph-name="uni00B3" unicode="&#xb3;" horiz-adv-x="749" 
d="M381 827q-142 0 -217.5 59t-75.5 169v24h96v-12q0 -149 197 -149q190 0 190 153q0 150 -190 150h-96v90h96q170 0 170 139q0 70 -45 106.5t-129 36.5q-86 0 -133 -38.5t-47 -108.5v-8h-97v14q0 108 75 169.5t206 61.5q127 0 197.5 -59.5t70.5 -167.5q0 -141 -121 -182v-2
q144 -43 144 -205q0 -240 -291 -240z" />
    <glyph glyph-name="acute" unicode="&#xb4;" horiz-adv-x="1024" 
d="M395 1223l221 260h148l-250 -260h-119z" />
    <glyph glyph-name="uni00B5" unicode="&#xb5;" horiz-adv-x="1183" 
d="M184 -373v1422h115v-682q0 -145 56.5 -216t174.5 -71q116 0 203 67t152 211v691h114v-1049h-98l-4 211q-136 -236 -379 -236q-141 0 -219 78v-426h-115z" />
    <glyph glyph-name="paragraph" unicode="&#xb6;" horiz-adv-x="1196" 
d="M973 1393v-1768h-115v1667h-268v-1667h-115v975h-8q-212 0 -311 95.5t-99 299.5q0 206 99 302t311 96h506z" />
    <glyph glyph-name="periodcentered" unicode="&#xb7;" horiz-adv-x="524" 
d="M193 504v182h139v-182h-139z" />
    <glyph glyph-name="cedilla" unicode="&#xb8;" horiz-adv-x="1024" 
d="M473 -406q-113 0 -184 39l28 70q58 -37 140 -37q114 0 114 72q0 33 -25.5 46t-94.5 13h-54l86 234h78l-63 -170h4q92 0 136 -31t44 -96q0 -140 -209 -140z" />
    <glyph glyph-name="uni00B9" unicode="&#xb9;" horiz-adv-x="749" 
d="M182 852v90h193v592q-94 -54 -217 -57v79q75 5 128.5 29.5t94.5 73.5h94v-717h197v-90h-490z" />
    <glyph glyph-name="ordmasculine" unicode="&#xba;" horiz-adv-x="858" 
d="M428 645q-157 0 -238 81.5t-81 238.5v133q0 156 81.5 237.5t237.5 81.5t238 -81.5t82 -237.5v-133q0 -157 -81.5 -238.5t-238.5 -81.5zM430 733q217 0 217 236v125q0 233 -217 233t-217 -233v-125q0 -236 217 -236zM117 373v90h624v-90h-624z" />
    <glyph glyph-name="guillemotright" unicode="&#xbb;" horiz-adv-x="929" 
d="M53 168l297 356l-297 357h129l297 -357l-297 -356h-129zM453 168l297 356l-297 357h129l297 -357l-297 -356h-129z" />
    <glyph glyph-name="onequarter" unicode="&#xbc;" horiz-adv-x="1708" 
d="M506 -25l758 1442h104l-756 -1442h-106zM182 586v90h193v592q-96 -55 -217 -58v80q75 5 128.5 29.5t94.5 73.5h94v-717h197v-90h-490zM1458 0v180h-438v94l432 533h109v-537h104v-90h-104v-180h-103zM1130 270h328v410z" />
    <glyph glyph-name="onehalf" unicode="&#xbd;" horiz-adv-x="1708" 
d="M422 -25l758 1442h104l-756 -1442h-106zM182 586v90h193v592q-96 -55 -217 -58v80q75 5 128.5 29.5t94.5 73.5h94v-717h197v-90h-490zM1051 0v59q0 114 60.5 190t205.5 142q109 50 154 96.5t45 110.5q0 67 -45.5 105t-129.5 38q-87 0 -133.5 -43t-46.5 -123v-12h-96v25
q0 117 73 180t208 63q130 0 200 -61t70 -170q0 -94 -57 -159.5t-191 -127.5q-118 -54 -166 -103t-51 -118h465v-92h-565z" />
    <glyph glyph-name="threequarters" unicode="&#xbe;" horiz-adv-x="1708" 
d="M381 561q-142 0 -217.5 58.5t-75.5 168.5v25h96v-12q0 -74 50 -112t147 -38q190 0 190 154q0 149 -190 149h-96v90h96q170 0 170 140q0 70 -45 106.5t-129 36.5q-86 0 -133 -38.5t-47 -108.5v-9h-97v15q0 108 75 169.5t206 61.5q127 0 197.5 -59.5t70.5 -167.5
q0 -141 -121 -182v-2q144 -43 144 -205q0 -240 -291 -240zM506 -25l758 1442h104l-756 -1442h-106zM1458 0v180h-438v94l432 533h109v-537h104v-90h-104v-180h-103zM1130 270h328v410z" />
    <glyph glyph-name="questiondown" unicode="&#xbf;" horiz-adv-x="866" 
d="M401 866v183h140v-183h-140zM438 -369q-183 0 -284 92.5t-101 258.5q0 106 44 177.5t151 137.5q97 60 135.5 122t38.5 159v53h98v-56q0 -118 -44.5 -197t-147.5 -145q-91 -59 -126.5 -113.5t-35.5 -137.5q0 -120 71 -184t203 -64q137 0 210 72t73 208h111
q0 -183 -103.5 -283t-292.5 -100z" />
    <glyph glyph-name="Agrave" unicode="&#xc0;" 
d="M614 1544l-249 260h147l221 -260h-119zM25 0l532 1393h119l530 -1393h-125l-149 393h-637l-150 -393h-120zM336 502h555l-277 745z" />
    <glyph glyph-name="Aacute" unicode="&#xc1;" 
d="M500 1544l221 260h147l-250 -260h-118zM25 0l532 1393h119l530 -1393h-125l-149 393h-637l-150 -393h-120zM336 502h555l-277 745z" />
    <glyph glyph-name="Acircumflex" unicode="&#xc2;" 
d="M338 1544l221 260h113l223 -260h-119l-160 168l-159 -168h-119zM25 0l532 1393h119l530 -1393h-125l-149 393h-637l-150 -393h-120zM336 502h555l-277 745z" />
    <glyph glyph-name="Atilde" unicode="&#xc3;" 
d="M727 1571q-35 0 -62 12t-71 47q-35 27 -52.5 36t-37.5 9q-34 0 -52 -25t-26 -81h-84q12 203 164 203q34 0 60.5 -12.5t72.5 -47.5q39 -29 55 -38t35 -9q66 0 78 107h84q-12 -201 -164 -201zM25 0l532 1393h119l530 -1393h-125l-149 393h-637l-150 -393h-120zM336 502h555
l-277 745z" />
    <glyph glyph-name="Adieresis" unicode="&#xc4;" 
d="M379 1591v162h131v-162h-131zM723 1591v162h131v-162h-131zM25 0l532 1393h119l530 -1393h-125l-149 393h-637l-150 -393h-120zM336 502h555l-277 745z" />
    <glyph glyph-name="Aring" unicode="&#xc5;" 
d="M616 1520q-82 0 -135 52t-53 132t53 132t135 52t135.5 -52t53.5 -132t-53.5 -132t-135.5 -52zM616 1602q43 0 71 28.5t28 73.5t-28 73.5t-71 28.5q-44 0 -72 -28t-28 -74t28 -74t72 -28zM25 0l532 1393h119l530 -1393h-125l-149 393h-637l-150 -393h-120zM336 502h555
l-277 745z" />
    <glyph glyph-name="AE" unicode="&#xc6;" horiz-adv-x="1835" 
d="M-6 0l858 1393h887v-109h-723v-514h620v-108h-620v-553h743v-109h-860v393h-530l-244 -393h-131zM434 502h465v766z" />
    <glyph glyph-name="Ccedilla" unicode="&#xc7;" horiz-adv-x="1257" 
d="M651 84q362 0 383 342h115q-11 -208 -123.5 -322.5t-320.5 -126.5l-43 -116h4q92 0 136 -31t44 -96q0 -140 -209 -140q-113 0 -184 39l28 70q58 -37 140 -37q114 0 114 72q0 33 -26 46t-95 13h-53l66 178q-240 6 -364 142.5t-124 396.5v365q0 267 129 402.5t383 135.5
q234 0 361 -115t137 -337h-115q-21 344 -383 344q-200 0 -297.5 -108.5t-97.5 -330.5v-348q0 -222 97.5 -330t297.5 -108z" />
    <glyph glyph-name="Egrave" unicode="&#xc8;" horiz-adv-x="1191" 
d="M647 1544l-250 260h148l221 -260h-119zM203 0v1393h893v-109h-777v-514h674v-108h-674v-553h797v-109h-913z" />
    <glyph glyph-name="Eacute" unicode="&#xc9;" horiz-adv-x="1191" 
d="M532 1544l222 260h147l-250 -260h-119zM203 0v1393h893v-109h-777v-514h674v-108h-674v-553h797v-109h-913z" />
    <glyph glyph-name="Ecircumflex" unicode="&#xca;" horiz-adv-x="1191" 
d="M371 1544l221 260h113l223 -260h-119l-160 168l-160 -168h-118zM203 0v1393h893v-109h-777v-514h674v-108h-674v-553h797v-109h-913z" />
    <glyph glyph-name="Edieresis" unicode="&#xcb;" horiz-adv-x="1191" 
d="M412 1591v162h131v-162h-131zM756 1591v162h131v-162h-131zM203 0v1393h893v-109h-777v-514h674v-108h-674v-553h797v-109h-913z" />
    <glyph glyph-name="Igrave" unicode="&#xcc;" horiz-adv-x="522" 
d="M260 1544l-250 260h148l221 -260h-119zM203 0v1393h116v-1393h-116z" />
    <glyph glyph-name="Iacute" unicode="&#xcd;" horiz-adv-x="522" 
d="M145 1544l222 260h147l-250 -260h-119zM203 0v1393h116v-1393h-116z" />
    <glyph glyph-name="Icircumflex" unicode="&#xce;" horiz-adv-x="522" 
d="M-6 1544l211 260h114l211 -260h-116l-152 168l-151 -168h-117zM203 0v1393h116v-1393h-116z" />
    <glyph glyph-name="Idieresis" unicode="&#xcf;" horiz-adv-x="522" 
d="M55 1591v162h131v-162h-131zM340 1591v162h131v-162h-131zM203 0v1393h116v-1393h-116z" />
    <glyph glyph-name="Eth" unicode="&#xd0;" horiz-adv-x="1345" 
d="M684 1393q269 0 396.5 -130t127.5 -405v-323q0 -276 -127.5 -405.5t-396.5 -129.5h-461v662h-164v108h164v623h461zM1092 537v319q0 227 -99 327.5t-319 100.5h-334v-514h371v-108h-371v-553h334q220 0 319 100.5t99 327.5z" />
    <glyph glyph-name="Ntilde" unicode="&#xd1;" horiz-adv-x="1419" 
d="M819 1571q-35 0 -62 12t-71 47q-35 27 -52.5 36t-37.5 9q-34 0 -52 -25t-26 -81h-84q12 203 164 203q34 0 60.5 -12.5t72.5 -47.5q39 -29 55 -38t35 -9q66 0 78 107h84q-12 -201 -164 -201zM203 0v1393h143l756 -1184v1184h115v-1393h-115l-785 1229v-1229h-114z" />
    <glyph glyph-name="Ograve" unicode="&#xd2;" horiz-adv-x="1339" 
d="M668 1544l-250 260h147l221 -260h-118zM670 -25q-260 0 -395.5 138t-135.5 403v361q0 265 135.5 402.5t395.5 137.5t395 -137.5t135 -402.5v-361q0 -265 -135 -403t-395 -138zM672 84q208 0 309.5 108t101.5 330v348q0 222 -102 330.5t-309 108.5q-209 0 -311.5 -108
t-102.5 -331v-348q0 -222 102 -330t312 -108z" />
    <glyph glyph-name="Oacute" unicode="&#xd3;" horiz-adv-x="1339" 
d="M553 1544l221 260h148l-250 -260h-119zM670 -25q-260 0 -395.5 138t-135.5 403v361q0 265 135.5 402.5t395.5 137.5t395 -137.5t135 -402.5v-361q0 -265 -135 -403t-395 -138zM672 84q208 0 309.5 108t101.5 330v348q0 222 -102 330.5t-309 108.5q-209 0 -311.5 -108
t-102.5 -331v-348q0 -222 102 -330t312 -108z" />
    <glyph glyph-name="Ocircumflex" unicode="&#xd4;" horiz-adv-x="1339" 
d="M391 1544l221 260h113l223 -260h-119l-159 168l-160 -168h-119zM670 -25q-260 0 -395.5 138t-135.5 403v361q0 265 135.5 402.5t395.5 137.5t395 -137.5t135 -402.5v-361q0 -265 -135 -403t-395 -138zM672 84q208 0 309.5 108t101.5 330v348q0 222 -102 330.5t-309 108.5
q-209 0 -311.5 -108t-102.5 -331v-348q0 -222 102 -330t312 -108z" />
    <glyph glyph-name="Otilde" unicode="&#xd5;" horiz-adv-x="1339" 
d="M780 1571q-35 0 -62 12t-71 47q-35 27 -52.5 36t-37.5 9q-34 0 -52 -25t-26 -81h-84q12 203 164 203q34 0 60.5 -12.5t72.5 -47.5q39 -29 55 -38t35 -9q66 0 78 107h84q-12 -201 -164 -201zM670 -25q-260 0 -395.5 138t-135.5 403v361q0 265 135.5 402.5t395.5 137.5
t395 -137.5t135 -402.5v-361q0 -265 -135 -403t-395 -138zM672 84q208 0 309.5 108t101.5 330v348q0 222 -102 330.5t-309 108.5q-209 0 -311.5 -108t-102.5 -331v-348q0 -222 102 -330t312 -108z" />
    <glyph glyph-name="Odieresis" unicode="&#xd6;" horiz-adv-x="1339" 
d="M432 1591v162h131v-162h-131zM776 1591v162h131v-162h-131zM670 -25q-260 0 -395.5 138t-135.5 403v361q0 265 135.5 402.5t395.5 137.5t395 -137.5t135 -402.5v-361q0 -265 -135 -403t-395 -138zM672 84q208 0 309.5 108t101.5 330v348q0 222 -102 330.5t-309 108.5
q-209 0 -311.5 -108t-102.5 -331v-348q0 -222 102 -330t312 -108z" />
    <glyph glyph-name="multiply" unicode="&#xd7;" 
d="M1096 1042l-410 -409l410 -410l-70 -71l-410 409l-409 -409l-72 71l410 410l-410 409l72 72l409 -409l410 409z" />
    <glyph glyph-name="Oslash" unicode="&#xd8;" horiz-adv-x="1339" 
d="M1200 1358l-92 -131q92 -130 92 -350v-361q0 -265 -135 -403t-395 -138q-236 0 -367 113l-80 -113l-84 60l92 131q-92 130 -92 350v361q0 265 135.5 402.5t395.5 137.5q236 0 366 -112l80 112zM258 522q0 -152 47 -252l666 942q-105 97 -299 97q-209 0 -311.5 -108
t-102.5 -331v-348zM1083 870q0 153 -49 254l-665 -942q104 -98 303 -98q208 0 309.5 108t101.5 330v348z" />
    <glyph glyph-name="Ugrave" unicode="&#xd9;" horiz-adv-x="1316" 
d="M657 1544l-249 260h147l221 -260h-119zM659 -25q-261 0 -378 113.5t-117 364.5v940h117v-938q0 -203 86 -287t295 -84q207 0 292.5 84t85.5 287v938h113v-940q0 -251 -117.5 -364.5t-376.5 -113.5z" />
    <glyph glyph-name="Uacute" unicode="&#xda;" horiz-adv-x="1316" 
d="M543 1544l221 260h147l-249 -260h-119zM659 -25q-261 0 -378 113.5t-117 364.5v940h117v-938q0 -203 86 -287t295 -84q207 0 292.5 84t85.5 287v938h113v-940q0 -251 -117.5 -364.5t-376.5 -113.5z" />
    <glyph glyph-name="Ucircumflex" unicode="&#xdb;" horiz-adv-x="1316" 
d="M381 1544l221 260h113l223 -260h-119l-160 168l-159 -168h-119zM659 -25q-261 0 -378 113.5t-117 364.5v940h117v-938q0 -203 86 -287t295 -84q207 0 292.5 84t85.5 287v938h113v-940q0 -251 -117.5 -364.5t-376.5 -113.5z" />
    <glyph glyph-name="Udieresis" unicode="&#xdc;" horiz-adv-x="1316" 
d="M422 1591v162h131v-162h-131zM766 1591v162h131v-162h-131zM659 -25q-261 0 -378 113.5t-117 364.5v940h117v-938q0 -203 86 -287t295 -84q207 0 292.5 84t85.5 287v938h113v-940q0 -251 -117.5 -364.5t-376.5 -113.5z" />
    <glyph glyph-name="Yacute" unicode="&#xdd;" horiz-adv-x="1105" 
d="M436 1544l221 260h148l-250 -260h-119zM494 0v612l-500 781h139l422 -660l422 660h133l-500 -781v-612h-116z" />
    <glyph glyph-name="Thorn" unicode="&#xde;" horiz-adv-x="1226" 
d="M203 0v1393h116v-228h398q236 0 344 -98.5t108 -312.5t-108 -312t-344 -98h-398v-344h-116zM319 451h394q182 0 260 70.5t78 232.5t-78 232.5t-260 70.5h-394v-606z" />
    <glyph glyph-name="germandbls" unicode="&#xdf;" horiz-adv-x="1206" 
d="M236 0v954h-207v95h207v116q0 172 99.5 263.5t291.5 91.5q177 0 270.5 -76t93.5 -215q0 -76 -30.5 -135t-106.5 -129q-61 -55 -83.5 -94t-22.5 -87q0 -58 33.5 -93.5t129.5 -78.5q126 -57 178 -123.5t52 -173.5q0 -156 -104 -235.5t-306 -79.5h-110v100h108
q297 0 297 207q0 74 -40.5 121.5t-143.5 91.5q-115 49 -161 106t-46 150q0 75 29.5 131.5t107.5 128.5q59 55 83 97.5t24 95.5q0 91 -64 140.5t-186 49.5q-139 0 -209 -65.5t-70 -188.5v-1165h-114z" />
    <glyph glyph-name="agrave" unicode="&#xe0;" horiz-adv-x="1110" 
d="M535 1223l-250 260h147l221 -260h-118zM444 -25q-161 0 -251.5 81t-90.5 231q0 317 430 317h299v94q0 139 -71.5 207t-218.5 68q-137 0 -212.5 -58t-82.5 -172h-113q15 163 119 246.5t293 83.5q401 0 401 -375v-698h-98l-4 174q-146 -199 -400 -199zM459 74
q240 0 372 225v207h-292q-169 0 -245.5 -52t-76.5 -163q0 -106 62 -161.5t180 -55.5z" />
    <glyph glyph-name="aacute" unicode="&#xe1;" horiz-adv-x="1110" 
d="M420 1223l221 260h147l-249 -260h-119zM444 -25q-161 0 -251.5 81t-90.5 231q0 317 430 317h299v94q0 139 -71.5 207t-218.5 68q-137 0 -212.5 -58t-82.5 -172h-113q15 163 119 246.5t293 83.5q401 0 401 -375v-698h-98l-4 174q-146 -199 -400 -199zM459 74
q240 0 372 225v207h-292q-169 0 -245.5 -52t-76.5 -163q0 -106 62 -161.5t180 -55.5z" />
    <glyph glyph-name="acircumflex" unicode="&#xe2;" horiz-adv-x="1110" 
d="M258 1223l221 260h113l223 -260h-119l-159 168l-160 -168h-119zM444 -25q-161 0 -251.5 81t-90.5 231q0 317 430 317h299v94q0 139 -71.5 207t-218.5 68q-137 0 -212.5 -58t-82.5 -172h-113q15 163 119 246.5t293 83.5q401 0 401 -375v-698h-98l-4 174
q-146 -199 -400 -199zM459 74q240 0 372 225v207h-292q-169 0 -245.5 -52t-76.5 -163q0 -106 62 -161.5t180 -55.5z" />
    <glyph glyph-name="atilde" unicode="&#xe3;" horiz-adv-x="1110" 
d="M647 1249q-35 0 -61.5 12t-71.5 48q-35 27 -52.5 36t-37.5 9q-34 0 -52 -25.5t-26 -81.5h-84q12 203 164 203q34 0 60.5 -12t72.5 -47q30 -22 40 -29t23.5 -13t26.5 -6q66 0 78 107h84q-12 -201 -164 -201zM444 -25q-161 0 -251.5 81t-90.5 231q0 317 430 317h299v94
q0 139 -71.5 207t-218.5 68q-137 0 -212.5 -58t-82.5 -172h-113q15 163 119 246.5t293 83.5q401 0 401 -375v-698h-98l-4 174q-146 -199 -400 -199zM459 74q240 0 372 225v207h-292q-169 0 -245.5 -52t-76.5 -163q0 -106 62 -161.5t180 -55.5z" />
    <glyph glyph-name="adieresis" unicode="&#xe4;" horiz-adv-x="1110" 
d="M299 1270v162h131v-162h-131zM643 1270v162h131v-162h-131zM444 -25q-161 0 -251.5 81t-90.5 231q0 317 430 317h299v94q0 139 -71.5 207t-218.5 68q-137 0 -212.5 -58t-82.5 -172h-113q15 163 119 246.5t293 83.5q401 0 401 -375v-698h-98l-4 174q-146 -199 -400 -199z
M459 74q240 0 372 225v207h-292q-169 0 -245.5 -52t-76.5 -163q0 -106 62 -161.5t180 -55.5z" />
    <glyph glyph-name="aring" unicode="&#xe5;" horiz-adv-x="1110" 
d="M537 1198q-82 0 -135.5 52t-53.5 132t53.5 132.5t135.5 52.5t135 -52.5t53 -132.5t-53 -132t-135 -52zM537 1280q43 0 70.5 28.5t27.5 73.5q0 46 -27.5 74.5t-70.5 28.5q-44 0 -72.5 -28.5t-28.5 -74.5t28 -74t73 -28zM444 -25q-161 0 -251.5 81t-90.5 231q0 317 430 317
h299v94q0 139 -71.5 207t-218.5 68q-137 0 -212.5 -58t-82.5 -172h-113q15 163 119 246.5t293 83.5q401 0 401 -375v-698h-98l-4 174q-146 -199 -400 -199zM459 74q240 0 372 225v207h-292q-169 0 -245.5 -52t-76.5 -163q0 -106 62 -161.5t180 -55.5z" />
    <glyph glyph-name="ae" unicode="&#xe6;" horiz-adv-x="1820" 
d="M451 -25q-164 0 -256.5 80.5t-92.5 229.5q0 156 106.5 237.5t321.5 81.5h301v94q0 139 -71 207t-219 68q-277 0 -295 -230h-113q15 162 118.5 246t287.5 84q291 0 362 -211q90 211 371 211q206 0 316 -114t110 -330v-129h-752v-72q0 -178 81.5 -265t246.5 -87
q138 0 217 60.5t88 170.5h111q-10 -161 -118 -246.5t-298 -85.5q-303 0 -400 220q-159 -220 -423 -220zM946 598h641v23q0 178 -79 265t-240 87q-163 0 -242.5 -87t-79.5 -265v-23zM463 74q243 0 377 239q-9 49 -9 107v86h-292q-167 0 -244.5 -53t-77.5 -164
q0 -104 63 -159.5t183 -55.5z" />
    <glyph glyph-name="ccedilla" unicode="&#xe7;" horiz-adv-x="1052" 
d="M559 76q277 0 295 262h111q-8 -159 -98.5 -253.5t-254.5 -107.5l-43 -116h4q181 0 181 -127q0 -140 -209 -140q-114 0 -185 39l29 70q58 -37 139 -37q115 0 115 72q0 33 -26 46t-95 13h-53l66 178q-196 6 -301 120.5t-105 324.5v209q0 216 110 330t316 114
q190 0 296 -94.5t114 -267.5h-111q-18 262 -295 262q-159 0 -237 -86.5t-78 -263.5v-197q0 -177 78 -263.5t237 -86.5z" />
    <glyph glyph-name="egrave" unicode="&#xe8;" horiz-adv-x="1118" 
d="M559 1223l-250 260h148l221 -260h-119zM573 -25q-215 0 -329.5 114.5t-114.5 330.5v209q0 216 111.5 330t322.5 114t321.5 -113.5t110.5 -330.5v-129h-751v-72q0 -178 80.5 -265t244.5 -87q140 0 219.5 60.5t88.5 170.5h110q-10 -160 -118.5 -246t-295.5 -86zM244 598
h641v23q0 178 -79.5 265t-242.5 87t-241 -86.5t-78 -265.5v-23z" />
    <glyph glyph-name="eacute" unicode="&#xe9;" horiz-adv-x="1118" 
d="M444 1223l222 260h147l-250 -260h-119zM573 -25q-215 0 -329.5 114.5t-114.5 330.5v209q0 216 111.5 330t322.5 114t321.5 -113.5t110.5 -330.5v-129h-751v-72q0 -178 80.5 -265t244.5 -87q140 0 219.5 60.5t88.5 170.5h110q-10 -160 -118.5 -246t-295.5 -86zM244 598
h641v23q0 178 -79.5 265t-242.5 87t-241 -86.5t-78 -265.5v-23z" />
    <glyph glyph-name="ecircumflex" unicode="&#xea;" horiz-adv-x="1118" 
d="M283 1223l221 260h112l224 -260h-119l-160 168l-160 -168h-118zM573 -25q-215 0 -329.5 114.5t-114.5 330.5v209q0 216 111.5 330t322.5 114t321.5 -113.5t110.5 -330.5v-129h-751v-72q0 -178 80.5 -265t244.5 -87q140 0 219.5 60.5t88.5 170.5h110q-10 -160 -118.5 -246
t-295.5 -86zM244 598h641v23q0 178 -79.5 265t-242.5 87t-241 -86.5t-78 -265.5v-23z" />
    <glyph glyph-name="edieresis" unicode="&#xeb;" horiz-adv-x="1118" 
d="M324 1270v162h131v-162h-131zM668 1270v162h131v-162h-131zM573 -25q-215 0 -329.5 114.5t-114.5 330.5v209q0 216 111.5 330t322.5 114t321.5 -113.5t110.5 -330.5v-129h-751v-72q0 -178 80.5 -265t244.5 -87q140 0 219.5 60.5t88.5 170.5h110q-10 -160 -118.5 -246
t-295.5 -86zM244 598h641v23q0 178 -79.5 265t-242.5 87t-241 -86.5t-78 -265.5v-23z" />
    <glyph glyph-name="igrave" unicode="&#xec;" horiz-adv-x="483" 
d="M240 1223l-250 260h147l221 -260h-118zM184 0v1049h115v-1049h-115z" />
    <glyph glyph-name="iacute" unicode="&#xed;" horiz-adv-x="483" 
d="M125 1223l221 260h148l-250 -260h-119zM184 0v1049h115v-1049h-115z" />
    <glyph glyph-name="icircumflex" unicode="&#xee;" horiz-adv-x="483" 
d="M-27 1223l211 260h115l211 -260h-117l-151 168l-152 -168h-117zM184 0v1049h115v-1049h-115z" />
    <glyph glyph-name="idieresis" unicode="&#xef;" horiz-adv-x="483" 
d="M35 1270v162h131v-162h-131zM319 1270v162h132v-162h-132zM184 0v1049h115v-1049h-115z" />
    <glyph glyph-name="eth" unicode="&#xf0;" horiz-adv-x="1134" 
d="M567 -25q-218 0 -331 115.5t-113 337.5v133q0 208 104.5 322t290.5 114q215 0 344 -163q-69 207 -237 387l-297 -117l-35 88l258 102q-132 120 -293 201h180q108 -61 219 -160l205 80l35 -88l-168 -65q134 -147 208.5 -322.5t74.5 -351.5v-160q0 -221 -113.5 -337
t-331.5 -116zM567 76q330 0 330 360v187q-109 272 -362 272q-143 0 -220 -86t-77 -254v-119q0 -360 329 -360z" />
    <glyph glyph-name="ntilde" unicode="&#xf1;" horiz-adv-x="1159" 
d="M694 1249q-35 0 -61.5 12t-71.5 48q-35 27 -52.5 36t-37.5 9q-34 0 -52 -25.5t-26 -81.5h-84q12 203 164 203q34 0 60.5 -12t72.5 -47q30 -22 40 -29t23.5 -13t26.5 -6q66 0 78 107h84q-12 -201 -164 -201zM184 0v1049h99l4 -203q133 227 377 227q162 0 244.5 -96
t82.5 -283v-694h-114v682q0 145 -57 216t-175 71q-225 0 -346 -273v-696h-115z" />
    <glyph glyph-name="ograve" unicode="&#xf2;" horiz-adv-x="1146" 
d="M569 1223l-250 260h148l221 -260h-119zM573 -25q-216 0 -330 116.5t-114 336.5v193q0 220 113.5 336t330.5 116q216 0 330.5 -116.5t114.5 -335.5v-193q0 -220 -115 -336.5t-330 -116.5zM573 76q330 0 330 360v178q0 177 -83 268t-247 91q-329 0 -329 -359v-178
q0 -360 329 -360z" />
    <glyph glyph-name="oacute" unicode="&#xf3;" horiz-adv-x="1146" 
d="M455 1223l221 260h147l-250 -260h-118zM573 -25q-216 0 -330 116.5t-114 336.5v193q0 220 113.5 336t330.5 116q216 0 330.5 -116.5t114.5 -335.5v-193q0 -220 -115 -336.5t-330 -116.5zM573 76q330 0 330 360v178q0 177 -83 268t-247 91q-329 0 -329 -359v-178
q0 -360 329 -360z" />
    <glyph glyph-name="ocircumflex" unicode="&#xf4;" horiz-adv-x="1146" 
d="M293 1223l221 260h113l223 -260h-119l-160 168l-159 -168h-119zM573 -25q-216 0 -330 116.5t-114 336.5v193q0 220 113.5 336t330.5 116q216 0 330.5 -116.5t114.5 -335.5v-193q0 -220 -115 -336.5t-330 -116.5zM573 76q330 0 330 360v178q0 177 -83 268t-247 91
q-329 0 -329 -359v-178q0 -360 329 -360z" />
    <glyph glyph-name="otilde" unicode="&#xf5;" horiz-adv-x="1146" 
d="M682 1249q-35 0 -61.5 12t-71.5 48q-35 27 -52.5 36t-37.5 9q-34 0 -52 -25.5t-26 -81.5h-84q12 203 164 203q34 0 60.5 -12t72.5 -47q30 -22 40 -29t23.5 -13t26.5 -6q66 0 78 107h84q-12 -201 -164 -201zM573 -25q-216 0 -330 116.5t-114 336.5v193q0 220 113.5 336
t330.5 116q216 0 330.5 -116.5t114.5 -335.5v-193q0 -220 -115 -336.5t-330 -116.5zM573 76q330 0 330 360v178q0 177 -83 268t-247 91q-329 0 -329 -359v-178q0 -360 329 -360z" />
    <glyph glyph-name="odieresis" unicode="&#xf6;" horiz-adv-x="1146" 
d="M334 1270v162h131v-162h-131zM678 1270v162h131v-162h-131zM573 -25q-216 0 -330 116.5t-114 336.5v193q0 220 113.5 336t330.5 116q216 0 330.5 -116.5t114.5 -335.5v-193q0 -220 -115 -336.5t-330 -116.5zM573 76q330 0 330 360v178q0 177 -83 268t-247 91
q-329 0 -329 -359v-178q0 -360 329 -360z" />
    <glyph glyph-name="divide" unicode="&#xf7;" 
d="M551 961v172h131v-172h-131zM117 580v102h997v-102h-997zM551 131v172h131v-172h-131z" />
    <glyph glyph-name="oslash" unicode="&#xf8;" horiz-adv-x="1146" 
d="M1018 1012l-78 -101q78 -110 78 -290v-193q0 -220 -115 -336.5t-330 -116.5q-185 0 -299 88l-69 -88l-76 62l78 98q-78 113 -78 293v193q0 220 113.5 336t330.5 116q185 0 299 -88l70 88zM244 436q0 -126 39 -203l522 664q-82 76 -232 76q-329 0 -329 -359v-178zM903 614
q0 124 -39 203l-522 -665q82 -76 231 -76q330 0 330 360v178z" />
    <glyph glyph-name="ugrave" unicode="&#xf9;" horiz-adv-x="1169" 
d="M573 1223l-249 260h147l221 -260h-119zM500 -25q-164 0 -248 96.5t-84 282.5v695h115v-682q0 -145 57.5 -216t177.5 -71q232 0 352 278v691h115v-1049h-98l-4 207q-134 -232 -383 -232z" />
    <glyph glyph-name="uacute" unicode="&#xfa;" horiz-adv-x="1169" 
d="M459 1223l221 260h147l-249 -260h-119zM500 -25q-164 0 -248 96.5t-84 282.5v695h115v-682q0 -145 57.5 -216t177.5 -71q232 0 352 278v691h115v-1049h-98l-4 207q-134 -232 -383 -232z" />
    <glyph glyph-name="ucircumflex" unicode="&#xfb;" horiz-adv-x="1169" 
d="M297 1223l221 260h113l223 -260h-119l-160 168l-159 -168h-119zM500 -25q-164 0 -248 96.5t-84 282.5v695h115v-682q0 -145 57.5 -216t177.5 -71q232 0 352 278v691h115v-1049h-98l-4 207q-134 -232 -383 -232z" />
    <glyph glyph-name="udieresis" unicode="&#xfc;" horiz-adv-x="1169" 
d="M338 1270v162h131v-162h-131zM682 1270v162h131v-162h-131zM500 -25q-164 0 -248 96.5t-84 282.5v695h115v-682q0 -145 57.5 -216t177.5 -71q232 0 352 278v691h115v-1049h-98l-4 207q-134 -232 -383 -232z" />
    <glyph glyph-name="yacute" unicode="&#xfd;" horiz-adv-x="944" 
d="M358 1223l222 260h147l-250 -260h-119zM117 -373v101h69q72 0 107.5 29t66.5 112l66 178l-395 1002h123l333 -859l310 859h116l-442 -1196q-47 -129 -106 -177.5t-168 -48.5h-80z" />
    <glyph glyph-name="thorn" unicode="&#xfe;" horiz-adv-x="1191" 
d="M184 -373v1868h115v-635q137 213 383 213q181 0 281 -112t100 -318v-235q0 -208 -100 -320.5t-281 -112.5q-245 0 -383 215v-563h-115zM670 76q134 0 206 87t72 251v221q0 164 -72 251t-206 87q-241 0 -371 -279v-338q129 -280 371 -280z" />
    <glyph glyph-name="ydieresis" unicode="&#xff;" horiz-adv-x="944" 
d="M238 1270v162h131v-162h-131zM582 1270v162h131v-162h-131zM117 -373v101h69q72 0 107.5 29t66.5 112l66 178l-395 1002h123l333 -859l310 859h116l-442 -1196q-47 -129 -106 -177.5t-168 -48.5h-80z" />
    <glyph glyph-name="Amacron" unicode="&#x100;" 
d="M397 1628v92h439v-92h-439zM25 0l532 1393h119l530 -1393h-125l-149 393h-637l-150 -393h-120zM336 502h555l-277 745z" />
    <glyph glyph-name="amacron" unicode="&#x101;" horiz-adv-x="1110" 
d="M317 1307v92h439v-92h-439zM444 -25q-161 0 -251.5 81t-90.5 231q0 317 430 317h299v94q0 139 -71.5 207t-218.5 68q-137 0 -212.5 -58t-82.5 -172h-113q15 163 119 246.5t293 83.5q401 0 401 -375v-698h-98l-4 174q-146 -199 -400 -199zM459 74q240 0 372 225v207h-292
q-169 0 -245.5 -52t-76.5 -163q0 -106 62 -161.5t180 -55.5z" />
    <glyph glyph-name="Abreve" unicode="&#x102;" 
d="M616 1550q113 0 177.5 63.5t72.5 174.5h-94q-5 -67 -44.5 -105t-111.5 -38t-111 37.5t-44 105.5h-92q8 -111 71.5 -174.5t175.5 -63.5zM25 0l532 1393h119l530 -1393h-125l-149 393h-637l-150 -393h-120zM336 502h555l-277 745z" />
    <glyph glyph-name="abreve" unicode="&#x103;" horiz-adv-x="1110" 
d="M537 1229q113 0 177 63t72 174h-94q-5 -68 -44 -105.5t-111 -37.5t-111.5 38t-44.5 105h-92q8 -111 72 -174t176 -63zM444 -25q-161 0 -251.5 81t-90.5 231q0 317 430 317h299v94q0 139 -71.5 207t-218.5 68q-137 0 -212.5 -58t-82.5 -172h-113q15 163 119 246.5
t293 83.5q401 0 401 -375v-698h-98l-4 174q-146 -199 -400 -199zM459 74q240 0 372 225v207h-292q-169 0 -245.5 -52t-76.5 -163q0 -106 62 -161.5t180 -55.5z" />
    <glyph glyph-name="Aogonek" unicode="&#x104;" 
d="M1098 -317q57 0 110 34v-96q-63 -29 -129 -29q-89 0 -137.5 43t-48.5 121q0 147 182 262l-143 375h-637l-150 -393h-120l532 1393h119l530 -1393h-24q-187 -105 -187 -221q0 -47 26.5 -71.5t76.5 -24.5zM336 502h555l-277 745z" />
    <glyph glyph-name="aogonek" unicode="&#x105;" horiz-adv-x="1110" 
d="M915 0q-182 -104 -182 -219q0 -47 26.5 -71.5t76.5 -24.5q57 0 110 34v-96q-63 -29 -129 -29q-89 0 -137.5 43t-48.5 121q0 159 217 283l-4 133q-146 -199 -400 -199q-161 0 -251.5 81t-90.5 231q0 317 430 317h299v94q0 139 -71.5 207t-218.5 68q-137 0 -212.5 -58
t-82.5 -172h-113q15 163 119 246.5t293 83.5q401 0 401 -375v-698h-31zM831 299v207h-292q-169 0 -245.5 -52t-76.5 -163q0 -106 62 -161.5t180 -55.5q240 0 372 225z" />
    <glyph glyph-name="Cacute" unicode="&#x106;" horiz-adv-x="1257" 
d="M532 1544l222 260h147l-250 -260h-119zM651 -25q-252 0 -382 136t-130 403v365q0 267 129 402.5t383 135.5q234 0 361 -115t137 -337h-115q-21 344 -383 344q-200 0 -297.5 -108.5t-97.5 -330.5v-348q0 -222 97.5 -330t297.5 -108q362 0 383 342h115
q-10 -221 -137.5 -336t-360.5 -115z" />
    <glyph glyph-name="cacute" unicode="&#x107;" horiz-adv-x="1052" 
d="M432 1223l221 260h148l-250 -260h-119zM557 -25q-206 0 -317 114.5t-111 330.5v209q0 216 110 330t316 114q190 0 296 -94.5t114 -267.5h-111q-18 262 -295 262q-159 0 -237 -86.5t-78 -263.5v-197q0 -177 78 -263.5t237 -86.5q277 0 295 262h111q-8 -171 -113 -267
t-295 -96z" />
    <glyph glyph-name="Ccircumflex" unicode="&#x108;" horiz-adv-x="1257" 
d="M371 1544l221 260h113l223 -260h-119l-160 168l-160 -168h-118zM651 -25q-252 0 -382 136t-130 403v365q0 267 129 402.5t383 135.5q234 0 361 -115t137 -337h-115q-21 344 -383 344q-200 0 -297.5 -108.5t-97.5 -330.5v-348q0 -222 97.5 -330t297.5 -108q362 0 383 342
h115q-10 -221 -137.5 -336t-360.5 -115z" />
    <glyph glyph-name="ccircumflex" unicode="&#x109;" horiz-adv-x="1052" 
d="M270 1223l222 260h112l223 -260h-118l-160 168l-160 -168h-119zM557 -25q-206 0 -317 114.5t-111 330.5v209q0 216 110 330t316 114q190 0 296 -94.5t114 -267.5h-111q-18 262 -295 262q-159 0 -237 -86.5t-78 -263.5v-197q0 -177 78 -263.5t237 -86.5q277 0 295 262h111
q-8 -171 -113 -267t-295 -96z" />
    <glyph glyph-name="Cdotaccent" unicode="&#x10a;" horiz-adv-x="1257" 
d="M584 1591v162h131v-162h-131zM651 -25q-252 0 -382 136t-130 403v365q0 267 129 402.5t383 135.5q234 0 361 -115t137 -337h-115q-21 344 -383 344q-200 0 -297.5 -108.5t-97.5 -330.5v-348q0 -222 97.5 -330t297.5 -108q362 0 383 342h115q-10 -221 -137.5 -336
t-360.5 -115z" />
    <glyph glyph-name="cdotaccent" unicode="&#x10b;" horiz-adv-x="1052" 
d="M483 1270v162h131v-162h-131zM557 -25q-206 0 -317 114.5t-111 330.5v209q0 216 110 330t316 114q190 0 296 -94.5t114 -267.5h-111q-18 262 -295 262q-159 0 -237 -86.5t-78 -263.5v-197q0 -177 78 -263.5t237 -86.5q277 0 295 262h111q-8 -171 -113 -267t-295 -96z" />
    <glyph glyph-name="Ccaron" unicode="&#x10c;" horiz-adv-x="1257" 
d="M592 1544l-221 260h118l160 -168l160 168h119l-223 -260h-113zM651 -25q-252 0 -382 136t-130 403v365q0 267 129 402.5t383 135.5q234 0 361 -115t137 -337h-115q-21 344 -383 344q-200 0 -297.5 -108.5t-97.5 -330.5v-348q0 -222 97.5 -330t297.5 -108q362 0 383 342
h115q-10 -221 -137.5 -336t-360.5 -115z" />
    <glyph glyph-name="ccaron" unicode="&#x10d;" horiz-adv-x="1052" 
d="M492 1223l-222 260h119l160 -168l160 168h118l-223 -260h-112zM557 -25q-206 0 -317 114.5t-111 330.5v209q0 216 110 330t316 114q190 0 296 -94.5t114 -267.5h-111q-18 262 -295 262q-159 0 -237 -86.5t-78 -263.5v-197q0 -177 78 -263.5t237 -86.5q277 0 295 262h111
q-8 -171 -113 -267t-295 -96z" />
    <glyph glyph-name="Dcaron" unicode="&#x10e;" horiz-adv-x="1325" 
d="M588 1544l-221 260h118l160 -168l160 168h119l-224 -260h-112zM203 0v1393h461q269 0 396.5 -130t127.5 -405v-323q0 -276 -127.5 -405.5t-396.5 -129.5h-461zM319 109h334q220 0 319 100.5t99 327.5v319q0 227 -99 327.5t-319 100.5h-334v-1175z" />
    <glyph glyph-name="dcaron" unicode="&#x10f;" horiz-adv-x="1191" 
d="M510 -25q-181 0 -281 112.5t-100 320.5v235q0 206 100 318t281 112q246 0 383 -213v635h115v-1495h-99l-4 209q-141 -234 -395 -234zM1108 1096l84 399h125l-121 -399h-88zM522 76q242 0 371 280v338q-130 279 -371 279q-134 0 -206 -87t-72 -251v-221q0 -164 72 -251
t206 -87z" />
    <glyph glyph-name="Dcroat" unicode="&#x110;" horiz-adv-x="1345" 
d="M684 1393q269 0 396.5 -130t127.5 -405v-323q0 -276 -127.5 -405.5t-396.5 -129.5h-461v662h-164v108h164v623h461zM1092 537v319q0 227 -99 327.5t-319 100.5h-334v-514h371v-108h-371v-553h334q220 0 319 100.5t99 327.5z" />
    <glyph glyph-name="dcroat" unicode="&#x111;" horiz-adv-x="1208" 
d="M1188 1300v-94h-180v-1206h-99l-4 209q-141 -234 -395 -234q-181 0 -281 112.5t-100 320.5v235q0 206 100 318t281 112q246 0 383 -213v346h-285v94h285v195h115v-195h180zM893 356v338q-130 279 -371 279q-134 0 -206 -87t-72 -251v-221q0 -164 72 -251t206 -87
q242 0 371 280z" />
    <glyph glyph-name="Emacron" unicode="&#x112;" horiz-adv-x="1191" 
d="M430 1628v92h438v-92h-438zM203 0v1393h893v-109h-777v-514h674v-108h-674v-553h797v-109h-913z" />
    <glyph glyph-name="emacron" unicode="&#x113;" horiz-adv-x="1118" 
d="M342 1307v92h438v-92h-438zM573 -25q-215 0 -329.5 114.5t-114.5 330.5v209q0 216 111.5 330t322.5 114t321.5 -113.5t110.5 -330.5v-129h-751v-72q0 -178 80.5 -265t244.5 -87q140 0 219.5 60.5t88.5 170.5h110q-10 -160 -118.5 -246t-295.5 -86zM244 598h641v23
q0 178 -79.5 265t-242.5 87t-241 -86.5t-78 -265.5v-23z" />
    <glyph glyph-name="Ebreve" unicode="&#x114;" horiz-adv-x="1191" 
d="M649 1550q113 0 177.5 63.5t72.5 174.5h-94q-5 -67 -44.5 -105t-111.5 -38t-111 37.5t-44 105.5h-93q8 -111 72 -174.5t176 -63.5zM203 0v1393h893v-109h-777v-514h674v-108h-674v-553h797v-109h-913z" />
    <glyph glyph-name="ebreve" unicode="&#x115;" horiz-adv-x="1118" 
d="M561 1229q114 0 178 63t72 174h-94q-5 -67 -44.5 -105t-111.5 -38t-111 37.5t-44 105.5h-93q8 -111 72 -174t176 -63zM573 -25q-215 0 -329.5 114.5t-114.5 330.5v209q0 216 111.5 330t322.5 114t321.5 -113.5t110.5 -330.5v-129h-751v-72q0 -178 80.5 -265t244.5 -87
q140 0 219.5 60.5t88.5 170.5h110q-10 -160 -118.5 -246t-295.5 -86zM244 598h641v23q0 178 -79.5 265t-242.5 87t-241 -86.5t-78 -265.5v-23z" />
    <glyph glyph-name="Edotaccent" unicode="&#x116;" horiz-adv-x="1191" 
d="M584 1591v162h131v-162h-131zM203 0v1393h893v-109h-777v-514h674v-108h-674v-553h797v-109h-913z" />
    <glyph glyph-name="edotaccent" unicode="&#x117;" horiz-adv-x="1118" 
d="M496 1270v162h131v-162h-131zM573 -25q-215 0 -329.5 114.5t-114.5 330.5v209q0 216 111.5 330t322.5 114t321.5 -113.5t110.5 -330.5v-129h-751v-72q0 -178 80.5 -265t244.5 -87q140 0 219.5 60.5t88.5 170.5h110q-10 -160 -118.5 -246t-295.5 -86zM244 598h641v23
q0 178 -79.5 265t-242.5 87t-241 -86.5t-78 -265.5v-23z" />
    <glyph glyph-name="Eogonek" unicode="&#x118;" horiz-adv-x="1191" 
d="M1085 0q-182 -104 -182 -219q0 -47 26.5 -71.5t76.5 -24.5q57 0 110 34v-96q-63 -29 -129 -29q-89 0 -137.5 43t-48.5 121q0 132 151 242h-749v1393h893v-109h-777v-514h674v-108h-674v-553h797v-109h-31z" />
    <glyph glyph-name="eogonek" unicode="&#x119;" horiz-adv-x="1118" 
d="M995 500h-751v-72q0 -178 80.5 -265t244.5 -87q140 0 219.5 60.5t88.5 170.5h110q-12 -165 -123 -250q-157 -154 -157 -274q0 -98 102 -98q58 0 111 34v-96q-51 -29 -127 -29q-92 0 -140.5 43t-48.5 125q0 111 94 224q-72 -11 -125 -11q-215 0 -329.5 114.5t-114.5 330.5
v209q0 216 111.5 330t322.5 114t321.5 -113.5t110.5 -330.5v-129zM244 621v-23h641v23q0 178 -79.5 265t-242.5 87t-241 -86.5t-78 -265.5z" />
    <glyph glyph-name="Ecaron" unicode="&#x11a;" horiz-adv-x="1191" 
d="M592 1544l-221 260h118l160 -168l160 168h119l-223 -260h-113zM203 0v1393h893v-109h-777v-514h674v-108h-674v-553h797v-109h-913z" />
    <glyph glyph-name="ecaron" unicode="&#x11b;" horiz-adv-x="1118" 
d="M504 1223l-221 260h118l160 -168l160 168h119l-224 -260h-112zM573 -25q-215 0 -329.5 114.5t-114.5 330.5v209q0 216 111.5 330t322.5 114t321.5 -113.5t110.5 -330.5v-129h-751v-72q0 -178 80.5 -265t244.5 -87q140 0 219.5 60.5t88.5 170.5h110q-10 -160 -118.5 -246
t-295.5 -86zM244 598h641v23q0 178 -79.5 265t-242.5 87t-241 -86.5t-78 -265.5v-23z" />
    <glyph glyph-name="Gcircumflex" unicode="&#x11c;" horiz-adv-x="1304" 
d="M377 1544l221 260h113l223 -260h-119l-160 168l-159 -168h-119zM666 -25q-254 0 -390.5 135.5t-136.5 391.5v389q0 250 136 388t384 138q227 0 358 -115.5t140 -328.5h-115q-9 161 -107.5 248.5t-277.5 87.5q-196 0 -298.5 -109.5t-102.5 -318.5v-369q0 -428 412 -428
q197 0 293 102t96 312v102h-340v109h454v-213q0 -256 -127.5 -388.5t-377.5 -132.5z" />
    <glyph glyph-name="gcircumflex" unicode="&#x11d;" horiz-adv-x="1191" 
d="M293 1223l221 260h113l223 -260h-119l-160 168l-159 -168h-119zM571 -397q-194 0 -300 79t-117 230h108q18 -209 305 -209q168 0 247 75.5t79 235.5v219q-142 -213 -383 -213q-181 0 -281 112.5t-100 320.5v190q0 206 100 318t281 112q253 0 395 -231l4 207h99v-1035
q0 -411 -437 -411zM522 123q243 0 371 278v293q-130 279 -371 279q-134 0 -206 -87t-72 -251v-174q0 -165 72 -251.5t206 -86.5z" />
    <glyph glyph-name="Gbreve" unicode="&#x11e;" horiz-adv-x="1304" 
d="M655 1550q113 0 177.5 63.5t72.5 174.5h-94q-5 -67 -44.5 -105t-111.5 -38t-111 37.5t-44 105.5h-92q8 -111 71.5 -174.5t175.5 -63.5zM666 -25q-254 0 -390.5 135.5t-136.5 391.5v389q0 250 136 388t384 138q227 0 358 -115.5t140 -328.5h-115q-9 161 -107.5 248.5
t-277.5 87.5q-196 0 -298.5 -109.5t-102.5 -318.5v-369q0 -428 412 -428q197 0 293 102t96 312v102h-340v109h454v-213q0 -256 -127.5 -388.5t-377.5 -132.5z" />
    <glyph glyph-name="gbreve" unicode="&#x11f;" horiz-adv-x="1191" 
d="M571 1229q114 0 178 63t72 174h-94q-5 -67 -44.5 -105t-111.5 -38t-111 37.5t-44 105.5h-92q8 -111 71.5 -174t175.5 -63zM571 -397q-194 0 -300 79t-117 230h108q18 -209 305 -209q168 0 247 75.5t79 235.5v219q-142 -213 -383 -213q-181 0 -281 112.5t-100 320.5v190
q0 206 100 318t281 112q253 0 395 -231l4 207h99v-1035q0 -411 -437 -411zM522 123q243 0 371 278v293q-130 279 -371 279q-134 0 -206 -87t-72 -251v-174q0 -165 72 -251.5t206 -86.5z" />
    <glyph glyph-name="Gdotaccent" unicode="&#x120;" horiz-adv-x="1304" 
d="M590 1591v162h131v-162h-131zM666 -25q-254 0 -390.5 135.5t-136.5 391.5v389q0 250 136 388t384 138q227 0 358 -115.5t140 -328.5h-115q-9 161 -107.5 248.5t-277.5 87.5q-196 0 -298.5 -109.5t-102.5 -318.5v-369q0 -428 412 -428q197 0 293 102t96 312v102h-340v109
h454v-213q0 -256 -127.5 -388.5t-377.5 -132.5z" />
    <glyph glyph-name="gdotaccent" unicode="&#x121;" horiz-adv-x="1191" 
d="M506 1270v162h131v-162h-131zM571 -397q-194 0 -300 79t-117 230h108q18 -209 305 -209q168 0 247 75.5t79 235.5v219q-142 -213 -383 -213q-181 0 -281 112.5t-100 320.5v190q0 206 100 318t281 112q253 0 395 -231l4 207h99v-1035q0 -411 -437 -411zM522 123
q243 0 371 278v293q-130 279 -371 279q-134 0 -206 -87t-72 -251v-174q0 -165 72 -251.5t206 -86.5z" />
    <glyph glyph-name="Gcommaaccent" unicode="&#x122;" horiz-adv-x="1304" 
d="M666 -25q-254 0 -390.5 135.5t-136.5 391.5v389q0 250 136 388t384 138q227 0 358 -115.5t140 -328.5h-115q-9 161 -107.5 248.5t-277.5 87.5q-196 0 -298.5 -109.5t-102.5 -318.5v-369q0 -428 412 -428q197 0 293 102t96 312v102h-340v109h454v-213
q0 -256 -127.5 -388.5t-377.5 -132.5zM582 -461v66q42 0 57.5 23.5t15.5 70.5h-53v131h131v-117q0 -86 -33 -129.5t-118 -44.5z" />
    <glyph glyph-name="gcommaaccent" unicode="&#x123;" horiz-adv-x="1191" 
d="M657 1509v-65q-42 0 -57.5 -23.5t-15.5 -70.5h53v-131h-131v116q0 86 33 129.5t118 44.5zM571 -397q-194 0 -300 79t-117 230h108q18 -209 305 -209q168 0 247 75.5t79 235.5v219q-142 -213 -383 -213q-181 0 -281 112.5t-100 320.5v190q0 206 100 318t281 112
q253 0 395 -231l4 207h99v-1035q0 -411 -437 -411zM522 123q243 0 371 278v293q-130 279 -371 279q-134 0 -206 -87t-72 -251v-174q0 -165 72 -251.5t206 -86.5z" />
    <glyph glyph-name="Hcircumflex" unicode="&#x124;" horiz-adv-x="1425" 
d="M434 1544l221 260h113l223 -260h-119l-159 168l-160 -168h-119zM203 0v1393h116v-623h787v623h117v-1393h-117v662h-787v-662h-116z" />
    <glyph glyph-name="hcircumflex" unicode="&#x125;" horiz-adv-x="1159" 
d="M-37 1647l221 260h113l223 -260h-119l-159 168l-160 -168h-119zM184 0v1495h115v-631q130 209 365 209q162 0 244.5 -96t82.5 -283v-694h-114v682q0 145 -57 216t-175 71q-225 0 -346 -273v-696h-115z" />
    <glyph glyph-name="Hbar" unicode="&#x126;" horiz-adv-x="1466" 
d="M1407 1112v-100h-164v-1012h-117v662h-786v-662h-117v1012h-164v100h164v281h117v-281h786v281h117v-281h164zM1126 770v242h-786v-242h786z" />
    <glyph glyph-name="hbar" unicode="&#x127;" horiz-adv-x="1175" 
d="M680 1073q162 0 245 -96t83 -283v-694h-115v682q0 145 -56.5 216t-174.5 71q-226 0 -347 -273v-696h-114v1206h-183v94h183v195h114v-195h283v-94h-283v-342q130 209 365 209z" />
    <glyph glyph-name="Itilde" unicode="&#x128;" horiz-adv-x="522" 
d="M365 1571q-30 0 -55 11.5t-70 47.5q-34 28 -49.5 36.5t-34.5 8.5q-65 0 -74 -106h-84q13 203 158 203q31 0 55.5 -11.5t71.5 -48.5q38 -30 53 -38.5t31 -8.5q64 0 73 107h84q-13 -201 -159 -201zM203 0v1393h116v-1393h-116z" />
    <glyph glyph-name="itilde" unicode="&#x129;" horiz-adv-x="483" 
d="M344 1249q-30 0 -55 12t-70 48q-34 28 -49.5 36.5t-34.5 8.5q-65 0 -74 -107h-84q13 203 158 203q31 0 55.5 -11.5t71.5 -47.5q39 -30 53.5 -39t30.5 -9q65 0 74 107h84q-13 -201 -160 -201zM184 0v1049h115v-1049h-115z" />
    <glyph glyph-name="Imacron" unicode="&#x12a;" horiz-adv-x="522" 
d="M59 1628v92h406v-92h-406zM203 0v1393h116v-1393h-116z" />
    <glyph glyph-name="imacron" unicode="&#x12b;" horiz-adv-x="483" 
d="M39 1307v92h405v-92h-405zM184 0v1049h115v-1049h-115z" />
    <glyph glyph-name="Ibreve" unicode="&#x12c;" horiz-adv-x="522" 
d="M262 1550q-108 0 -169.5 63.5t-67.5 174.5h92q3 -68 39.5 -105.5t105.5 -37.5q68 0 105.5 38t40.5 105h92q-6 -111 -68 -174.5t-170 -63.5zM203 0v1393h116v-1393h-116z" />
    <glyph glyph-name="ibreve" unicode="&#x12d;" horiz-adv-x="483" 
d="M242 1229q-109 0 -170.5 63t-67.5 174h92q3 -68 40 -105.5t106 -37.5q68 0 105 38t40 105h92q-6 -111 -67.5 -174t-169.5 -63zM184 0v1049h115v-1049h-115z" />
    <glyph glyph-name="Iogonek" unicode="&#x12e;" horiz-adv-x="522" 
d="M283 -315q62 0 112 34v-96q-66 -29 -129 -29q-90 0 -139 43.5t-49 120.5q0 126 131 242h-6v1393h116v-1393h-6q-133 -112 -133 -217q0 -47 26.5 -72.5t76.5 -25.5z" />
    <glyph glyph-name="iogonek" unicode="&#x12f;" horiz-adv-x="483" 
d="M305 1436v-170h-127v170h127zM260 -315q63 0 113 34v-96q-66 -29 -129 -29q-90 0 -139.5 43.5t-49.5 120.5q0 126 131 242h-2v1049h115v-1049h-8q-133 -112 -133 -217q0 -47 26.5 -72.5t75.5 -25.5z" />
    <glyph glyph-name="Idotaccent" unicode="&#x130;" horiz-adv-x="522" 
d="M197 1591v162h131v-162h-131zM203 0v1393h116v-1393h-116z" />
    <glyph glyph-name="dotlessi" unicode="&#x131;" horiz-adv-x="483" 
d="M184 0v1049h115v-1049h-115z" />
    <glyph glyph-name="IJ" unicode="&#x132;" horiz-adv-x="1644" 
d="M203 0v1393h116v-1393h-116zM1016 -25q-234 0 -345.5 111t-111.5 344v29h113v-23q0 -186 81 -269t261 -83q187 0 268.5 91t81.5 298v920h117v-930q0 -251 -113 -369.5t-352 -118.5z" />
    <glyph glyph-name="ij" unicode="&#x133;" horiz-adv-x="966" 
d="M178 1266v170h127v-170h-127zM662 1266v170h126v-170h-126zM184 0v1049h115v-1049h-115zM477 -373v101h45q86 0 116 36.5t30 139.5v1145h114v-1143q0 -148 -56 -213.5t-183 -65.5h-66z" />
    <glyph glyph-name="Jcircumflex" unicode="&#x134;" horiz-adv-x="1122" 
d="M631 1544l211 260h114l211 -260h-116l-152 168l-151 -168h-117zM494 -25q-234 0 -345.5 111t-111.5 344v29h113v-23q0 -186 81 -269t261 -83q187 0 268.5 91t81.5 298v920h116v-930q0 -251 -112.5 -369.5t-351.5 -118.5z" />
    <glyph glyph-name="jcircumflex" unicode="&#x135;" horiz-adv-x="483" 
d="M-27 1223l211 260h115l211 -260h-117l-151 168l-152 -168h-117zM-6 -373v101h45q86 0 115.5 36.5t29.5 139.5v1145h115v-1143q0 -148 -56.5 -213.5t-183.5 -65.5h-65z" />
    <glyph glyph-name="Kcommaaccent" unicode="&#x136;" horiz-adv-x="1263" 
d="M203 0v1393h116v-813l764 813h148l-531 -566l539 -827h-139l-482 739l-299 -313v-426h-116zM602 -461v66q42 0 58 24t16 70h-53v131h131v-117q0 -85 -33.5 -129t-118.5 -45z" />
    <glyph glyph-name="kcommaaccent" unicode="&#x137;" horiz-adv-x="1067" 
d="M184 0v1495h115v-1030l586 584h147l-430 -428l438 -621h-139l-381 539l-221 -217v-322h-115zM502 -461v66q42 0 57.5 23.5t15.5 70.5h-53v131h131v-117q0 -86 -33 -129.5t-118 -44.5z" />
    <glyph glyph-name="kgreenlandic" unicode="&#x138;" horiz-adv-x="1067" 
d="M184 0v1049h115v-584l586 584h147l-430 -428l438 -621h-139l-381 539l-221 -217v-322h-115z" />
    <glyph glyph-name="Lacute" unicode="&#x139;" horiz-adv-x="1064" 
d="M145 1544l222 260h147l-250 -260h-119zM203 0v1393h116v-1284h732v-109h-848z" />
    <glyph glyph-name="lacute" unicode="&#x13a;" horiz-adv-x="483" 
d="M125 1647l221 260h148l-250 -260h-119zM184 0v1495h115v-1495h-115z" />
    <glyph glyph-name="Lcommaaccent" unicode="&#x13b;" horiz-adv-x="1064" 
d="M203 0v1393h116v-1284h732v-109h-848zM539 -461v66q42 0 57.5 23.5t15.5 70.5h-53v131h131v-117q0 -86 -33 -129.5t-118 -44.5z" />
    <glyph glyph-name="lcommaaccent" unicode="&#x13c;" horiz-adv-x="483" 
d="M184 0v1495h115v-1495h-115zM156 -461v66q42 0 57.5 23.5t15.5 70.5h-53v131h131v-117q0 -86 -33 -129.5t-118 -44.5z" />
    <glyph glyph-name="Lcaron" unicode="&#x13d;" horiz-adv-x="1064" 
d="M203 0v1393h116v-1284h732v-109h-848zM457 993l84 400h125l-121 -400h-88z" />
    <glyph glyph-name="lcaron" unicode="&#x13e;" horiz-adv-x="481" 
d="M184 0v1495h115v-1495h-115zM397 1096l84 399h125l-121 -399h-88z" />
    <glyph glyph-name="Ldot" unicode="&#x13f;" horiz-adv-x="1064" 
d="M203 0v1393h116v-1284h732v-109h-848zM723 635v168h139v-168h-139z" />
    <glyph glyph-name="ldot" unicode="&#x140;" horiz-adv-x="503" 
d="M184 0v1495h115v-1495h-115zM424 657v160h135v-160h-135z" />
    <glyph glyph-name="Lslash" unicode="&#x141;" horiz-adv-x="1085" 
d="M340 109h731v-109h-848v446l-164 -114v123l164 114v824h117v-742l453 320v-123l-453 -320v-419z" />
    <glyph glyph-name="lslash" unicode="&#x142;" horiz-adv-x="528" 
d="M512 1010v-115l-190 -147v-748h-115v657l-191 -147v117l191 147v721h115v-633z" />
    <glyph glyph-name="Nacute" unicode="&#x143;" horiz-adv-x="1419" 
d="M592 1544l221 260h148l-250 -260h-119zM203 0v1393h143l756 -1184v1184h115v-1393h-115l-785 1229v-1229h-114z" />
    <glyph glyph-name="nacute" unicode="&#x144;" horiz-adv-x="1159" 
d="M467 1223l221 260h148l-250 -260h-119zM184 0v1049h99l4 -203q133 227 377 227q162 0 244.5 -96t82.5 -283v-694h-114v682q0 145 -57 216t-175 71q-225 0 -346 -273v-696h-115z" />
    <glyph glyph-name="Ncommaaccent" unicode="&#x145;" horiz-adv-x="1419" 
d="M203 0v1393h143l756 -1184v1184h115v-1393h-115l-785 1229v-1229h-114zM623 -461v66q42 0 57.5 23.5t15.5 70.5h-53v131h131v-117q0 -86 -33 -129.5t-118 -44.5z" />
    <glyph glyph-name="ncommaaccent" unicode="&#x146;" horiz-adv-x="1159" 
d="M184 0v1049h99l4 -203q133 227 377 227q162 0 244.5 -96t82.5 -283v-694h-114v682q0 145 -57 216t-175 71q-225 0 -346 -273v-696h-115zM502 -461v66q42 0 57.5 23.5t15.5 70.5h-53v131h131v-117q0 -86 -33 -129.5t-118 -44.5z" />
    <glyph glyph-name="Ncaron" unicode="&#x147;" horiz-adv-x="1419" 
d="M651 1544l-221 260h119l160 -168l159 168h119l-223 -260h-113zM203 0v1393h143l756 -1184v1184h115v-1393h-115l-785 1229v-1229h-114z" />
    <glyph glyph-name="ncaron" unicode="&#x148;" horiz-adv-x="1159" 
d="M526 1223l-221 260h119l160 -168l159 168h119l-223 -260h-113zM184 0v1049h99l4 -203q133 227 377 227q162 0 244.5 -96t82.5 -283v-694h-114v682q0 145 -57 216t-175 71q-225 0 -346 -273v-696h-115z" />
    <glyph glyph-name="napostrophe" unicode="&#x149;" horiz-adv-x="1159" 
d="M158 1163v64q38 1 53.5 23.5t15.5 66.5v16h-49v148h127v-144q0 -85 -32 -129t-115 -45zM184 0v1049h99l4 -203q133 227 377 227q162 0 244.5 -96t82.5 -283v-694h-114v682q0 145 -57 216t-175 71q-225 0 -346 -273v-696h-115z" />
    <glyph glyph-name="Eng" unicode="&#x14a;" horiz-adv-x="1419" 
d="M905 -373v101h51q86 0 116 36.5t30 139.5v98l-785 1227v-1229h-114v1393h143l756 -1184v1184h115v-1487q0 -148 -56.5 -213.5t-183.5 -65.5h-72z" />
    <glyph glyph-name="eng" unicode="&#x14b;" horiz-adv-x="1159" 
d="M664 1073q162 0 244.5 -96t82.5 -283v-788q0 -148 -55.5 -213.5t-181.5 -65.5h-72v99h49q86 0 116 37t30 141v778q0 145 -57 216t-175 71q-225 0 -346 -273v-696h-115v1049h99l4 -203q133 227 377 227z" />
    <glyph glyph-name="Omacron" unicode="&#x14c;" horiz-adv-x="1339" 
d="M451 1628v92h438v-92h-438zM670 -25q-260 0 -395.5 138t-135.5 403v361q0 265 135.5 402.5t395.5 137.5t395 -137.5t135 -402.5v-361q0 -265 -135 -403t-395 -138zM672 84q208 0 309.5 108t101.5 330v348q0 222 -102 330.5t-309 108.5q-209 0 -311.5 -108t-102.5 -331
v-348q0 -222 102 -330t312 -108z" />
    <glyph glyph-name="omacron" unicode="&#x14d;" horiz-adv-x="1146" 
d="M352 1307v92h439v-92h-439zM573 -25q-216 0 -330 116.5t-114 336.5v193q0 220 113.5 336t330.5 116q216 0 330.5 -116.5t114.5 -335.5v-193q0 -220 -115 -336.5t-330 -116.5zM573 76q330 0 330 360v178q0 177 -83 268t-247 91q-329 0 -329 -359v-178q0 -360 329 -360z
" />
    <glyph glyph-name="Obreve" unicode="&#x14e;" horiz-adv-x="1339" 
d="M670 1550q113 0 177.5 63.5t72.5 174.5h-95q-5 -68 -44 -105.5t-111 -37.5t-111.5 38t-44.5 105h-92q8 -111 72 -174.5t176 -63.5zM670 -25q-260 0 -395.5 138t-135.5 403v361q0 265 135.5 402.5t395.5 137.5t395 -137.5t135 -402.5v-361q0 -265 -135 -403t-395 -138z
M672 84q208 0 309.5 108t101.5 330v348q0 222 -102 330.5t-309 108.5q-209 0 -311.5 -108t-102.5 -331v-348q0 -222 102 -330t312 -108z" />
    <glyph glyph-name="obreve" unicode="&#x14f;" horiz-adv-x="1146" 
d="M571 1229q114 0 178 63t72 174h-94q-5 -67 -44.5 -105t-111.5 -38t-111 37.5t-44 105.5h-92q8 -111 71.5 -174t175.5 -63zM573 -25q-216 0 -330 116.5t-114 336.5v193q0 220 113.5 336t330.5 116q216 0 330.5 -116.5t114.5 -335.5v-193q0 -220 -115 -336.5t-330 -116.5z
M573 76q330 0 330 360v178q0 177 -83 268t-247 91q-329 0 -329 -359v-178q0 -360 329 -360z" />
    <glyph glyph-name="Ohungarumlaut" unicode="&#x150;" horiz-adv-x="1339" 
d="M416 1544l174 260h143l-207 -260h-110zM739 1544l176 260h142l-207 -260h-111zM670 -25q-260 0 -395.5 138t-135.5 403v361q0 265 135.5 402.5t395.5 137.5t395 -137.5t135 -402.5v-361q0 -265 -135 -403t-395 -138zM672 84q208 0 309.5 108t101.5 330v348
q0 222 -102 330.5t-309 108.5q-209 0 -311.5 -108t-102.5 -331v-348q0 -222 102 -330t312 -108z" />
    <glyph glyph-name="ohungarumlaut" unicode="&#x151;" horiz-adv-x="1146" 
d="M317 1223l175 260h143l-207 -260h-111zM641 1223l176 260h141l-206 -260h-111zM573 -25q-216 0 -330 116.5t-114 336.5v193q0 220 113.5 336t330.5 116q216 0 330.5 -116.5t114.5 -335.5v-193q0 -220 -115 -336.5t-330 -116.5zM573 76q330 0 330 360v178q0 177 -83 268
t-247 91q-329 0 -329 -359v-178q0 -360 329 -360z" />
    <glyph glyph-name="OE" unicode="&#x152;" horiz-adv-x="1890" 
d="M664 0q-270 0 -398.5 129.5t-128.5 405.5v323q0 275 129 405t398 130h1130v-109h-723v-514h621v-108h-621v-553h744v-109h-1151zM674 109h280v1175h-280q-221 0 -320.5 -101t-99.5 -327v-319q0 -226 99.5 -327t320.5 -101z" />
    <glyph glyph-name="oe" unicode="&#x153;" horiz-adv-x="1890" 
d="M569 -25q-212 0 -326 117.5t-114 335.5v193q0 218 114 335t326 117q296 0 389 -225q87 225 381 225q207 0 317.5 -114t110.5 -330v-129h-751v-72q0 -178 81 -265t244 -87q140 0 219.5 60.5t88.5 170.5h110q-10 -160 -117.5 -246t-293.5 -86q-299 0 -390 226
q-94 -226 -389 -226zM571 76q164 0 248 91t84 269v178q0 177 -84 268t-248 91q-162 0 -244.5 -91t-82.5 -268v-178q0 -360 327 -360zM1016 598h641v23q0 178 -79.5 265t-242.5 87q-161 0 -240 -87t-79 -265v-23z" />
    <glyph glyph-name="Racute" unicode="&#x154;" horiz-adv-x="1288" 
d="M512 1544l221 260h148l-250 -260h-119zM203 0v1393h522q230 0 333 -94.5t103 -305.5q0 -181 -76 -275.5t-243 -117.5l370 -600h-139l-364 594h-390v-594h-116zM319 702h398q179 0 252 66t73 225t-73 225t-252 66h-398v-582z" />
    <glyph glyph-name="racute" unicode="&#x155;" horiz-adv-x="708" 
d="M276 1223l222 260h147l-250 -260h-119zM184 0v1049h99l4 -215q44 121 124 178t201 57h68v-111h-55q-135 0 -214 -77t-112 -244v-637h-115z" />
    <glyph glyph-name="Rcommaaccent" unicode="&#x156;" horiz-adv-x="1288" 
d="M203 0v1393h522q230 0 333 -94.5t103 -305.5q0 -181 -76 -275.5t-243 -117.5l370 -600h-139l-364 594h-390v-594h-116zM319 702h398q179 0 252 66t73 225t-73 225t-252 66h-398v-582zM596 -461v66q42 0 58 24t16 70h-54v131h132v-117q0 -85 -33.5 -129t-118.5 -45z" />
    <glyph glyph-name="rcommaaccent" unicode="&#x157;" horiz-adv-x="708" 
d="M184 0v1049h99l4 -215q44 121 124 178t201 57h68v-111h-55q-135 0 -214 -77t-112 -244v-637h-115zM156 -461v66q42 0 57.5 23.5t15.5 70.5h-53v131h131v-117q0 -86 -33 -129.5t-118 -44.5z" />
    <glyph glyph-name="Rcaron" unicode="&#x158;" horiz-adv-x="1288" 
d="M571 1544l-221 260h119l160 -168l159 168h119l-223 -260h-113zM203 0v1393h522q230 0 333 -94.5t103 -305.5q0 -181 -76 -275.5t-243 -117.5l370 -600h-139l-364 594h-390v-594h-116zM319 702h398q179 0 252 66t73 225t-73 225t-252 66h-398v-582z" />
    <glyph glyph-name="rcaron" unicode="&#x159;" horiz-adv-x="708" 
d="M336 1223l-221 260h118l160 -168l160 168h119l-223 -260h-113zM184 0v1049h99l4 -215q44 121 124 178t201 57h68v-111h-55q-135 0 -214 -77t-112 -244v-637h-115z" />
    <glyph glyph-name="Sacute" unicode="&#x15a;" horiz-adv-x="1138" 
d="M444 1544l222 260h147l-250 -260h-119zM575 -25q-241 0 -368 101t-127 293h117q0 -140 98 -212.5t285 -72.5q360 0 360 274q0 136 -88 203t-305 96q-240 32 -340.5 116.5t-100.5 254.5q0 189 122.5 289t351.5 100q224 0 339 -97t115 -286h-116q0 275 -340 275
q-173 0 -264 -68.5t-91 -198.5q0 -126 84 -188t287 -88q253 -32 358 -122.5t105 -274.5q0 -195 -122 -294.5t-360 -99.5z" />
    <glyph glyph-name="sacute" unicode="&#x15b;" horiz-adv-x="1015" 
d="M381 1223l221 260h148l-250 -260h-119zM508 -25q-207 0 -314.5 82t-107.5 240h111q0 -221 309 -221q148 0 224.5 52t76.5 151q0 95 -71.5 141t-248.5 65q-204 22 -289 86.5t-85 196.5q0 146 102 225.5t291 79.5t289 -79.5t100 -231.5h-113q0 103 -70 158t-204 55
q-135 0 -210 -52.5t-75 -146.5q0 -87 68.5 -129t236.5 -59q213 -22 302.5 -91t89.5 -210q0 -153 -105 -232.5t-307 -79.5z" />
    <glyph glyph-name="Scircumflex" unicode="&#x15c;" horiz-adv-x="1138" 
d="M283 1544l221 260h112l224 -260h-119l-160 168l-160 -168h-118zM575 -25q-241 0 -368 101t-127 293h117q0 -140 98 -212.5t285 -72.5q360 0 360 274q0 136 -88 203t-305 96q-240 32 -340.5 116.5t-100.5 254.5q0 189 122.5 289t351.5 100q224 0 339 -97t115 -286h-116
q0 275 -340 275q-173 0 -264 -68.5t-91 -198.5q0 -126 84 -188t287 -88q253 -32 358 -122.5t105 -274.5q0 -195 -122 -294.5t-360 -99.5z" />
    <glyph glyph-name="scircumflex" unicode="&#x15d;" horiz-adv-x="1015" 
d="M219 1223l221 260h113l223 -260h-119l-159 168l-160 -168h-119zM508 -25q-207 0 -314.5 82t-107.5 240h111q0 -221 309 -221q148 0 224.5 52t76.5 151q0 95 -71.5 141t-248.5 65q-204 22 -289 86.5t-85 196.5q0 146 102 225.5t291 79.5t289 -79.5t100 -231.5h-113
q0 103 -70 158t-204 55q-135 0 -210 -52.5t-75 -146.5q0 -87 68.5 -129t236.5 -59q213 -22 302.5 -91t89.5 -210q0 -153 -105 -232.5t-307 -79.5z" />
    <glyph glyph-name="Scedilla" unicode="&#x15e;" horiz-adv-x="1138" 
d="M1057 369q0 -185 -108.5 -284t-321.5 -108l-43 -116h4q92 0 136 -31t44 -96q0 -140 -209 -140q-113 0 -184 39l28 70q58 -37 140 -37q114 0 114 72q0 33 -25.5 46t-94.5 13h-54l66 178q-229 6 -349 106.5t-120 287.5h117q0 -140 98 -212.5t285 -72.5q360 0 360 274
q0 136 -88 203t-305 96q-240 32 -340.5 116.5t-100.5 254.5q0 189 122.5 289t351.5 100q224 0 339 -97t115 -286h-116q0 275 -340 275q-173 0 -264 -68.5t-91 -198.5q0 -126 84 -188t287 -88q253 -32 358 -122.5t105 -274.5z" />
    <glyph glyph-name="scedilla" unicode="&#x15f;" horiz-adv-x="1015" 
d="M920 287q0 -143 -92.5 -222t-270.5 -88l-43 -116h4q92 0 136 -31t44 -96q0 -140 -209 -140q-113 0 -184 39l29 70q58 -37 139 -37q115 0 115 72q0 33 -26 46t-95 13h-53l65 178q-193 6 -293 88t-100 234h111q0 -221 309 -221q148 0 224.5 52t76.5 151q0 95 -71.5 141
t-248.5 65q-204 22 -289 86.5t-85 196.5q0 146 102 225.5t291 79.5t289 -79.5t100 -231.5h-113q0 103 -70 158t-204 55q-135 0 -210 -52.5t-75 -146.5q0 -87 68.5 -129t236.5 -59q213 -22 302.5 -91t89.5 -210z" />
    <glyph glyph-name="Scaron" unicode="&#x160;" horiz-adv-x="1138" 
d="M504 1544l-221 260h118l160 -168l160 168h119l-224 -260h-112zM575 -25q-241 0 -368 101t-127 293h117q0 -140 98 -212.5t285 -72.5q360 0 360 274q0 136 -88 203t-305 96q-240 32 -340.5 116.5t-100.5 254.5q0 189 122.5 289t351.5 100q224 0 339 -97t115 -286h-116
q0 275 -340 275q-173 0 -264 -68.5t-91 -198.5q0 -126 84 -188t287 -88q253 -32 358 -122.5t105 -274.5q0 -195 -122 -294.5t-360 -99.5z" />
    <glyph glyph-name="scaron" unicode="&#x161;" horiz-adv-x="1015" 
d="M440 1223l-221 260h119l160 -168l159 168h119l-223 -260h-113zM508 -25q-207 0 -314.5 82t-107.5 240h111q0 -221 309 -221q148 0 224.5 52t76.5 151q0 95 -71.5 141t-248.5 65q-204 22 -289 86.5t-85 196.5q0 146 102 225.5t291 79.5t289 -79.5t100 -231.5h-113
q0 103 -70 158t-204 55q-135 0 -210 -52.5t-75 -146.5q0 -87 68.5 -129t236.5 -59q213 -22 302.5 -91t89.5 -210q0 -153 -105 -232.5t-307 -79.5z" />
    <glyph glyph-name="uni0162" unicode="&#x162;" horiz-adv-x="1026" 
d="M571 0h-16l-53 -139h2q92 0 136 -31t44 -96q0 -140 -209 -140q-113 0 -184 39l28 70q58 -37 140 -37q114 0 114 72q0 33 -25.5 46t-94.5 13h-54l76 203h-20v1284h-439v109h996v-109h-441v-1284z" />
    <glyph glyph-name="uni0163" unicode="&#x163;" horiz-adv-x="679" 
d="M494 0q-36 0 -52 2l-53 -141h4q92 0 136 -31t44 -96q0 -140 -208 -140q-114 0 -185 39l29 70q58 -37 139 -37q115 0 115 72q0 33 -26 46t-95 13h-53l82 221q-75 28 -110.5 99t-35.5 194v643h-196v95h198l11 286h102v-286h287v-95h-287v-643q0 -120 38 -165.5t138 -45.5
h123v-100h-145z" />
    <glyph glyph-name="Tcaron" unicode="&#x164;" horiz-adv-x="1026" 
d="M457 1544l-221 260h118l160 -168l160 168h119l-224 -260h-112zM455 0v1284h-439v109h996v-109h-441v-1284h-116z" />
    <glyph glyph-name="tcaron" unicode="&#x165;" horiz-adv-x="679" 
d="M440 1188l84 399h125l-121 -399h-88zM494 0q-141 0 -205 73.5t-64 237.5v643h-196v95h198l11 286h102v-286h287v-95h-287v-643q0 -120 38 -165.5t138 -45.5h123v-100h-145z" />
    <glyph glyph-name="Tbar" unicode="&#x166;" horiz-adv-x="1026" 
d="M1012 1284h-441v-506h295v-108h-295v-670h-116v670h-293v108h293v506h-439v109h996v-109z" />
    <glyph glyph-name="tbar" unicode="&#x167;" horiz-adv-x="679" 
d="M516 100h123v-100h-145q-141 0 -205 73.5t-64 237.5v285h-182v94h182v264h-196v95h198l11 286h102v-286h287v-95h-287v-264h268v-94h-268v-285q0 -120 38 -165.5t138 -45.5z" />
    <glyph glyph-name="Utilde" unicode="&#x168;" horiz-adv-x="1316" 
d="M770 1571q-35 0 -62 12t-71 47q-35 27 -52.5 36t-37.5 9q-34 0 -52 -25t-26 -81h-84q12 203 164 203q34 0 60.5 -12.5t72.5 -47.5q39 -29 55 -38t35 -9q66 0 78 107h84q-12 -201 -164 -201zM659 -25q-261 0 -378 113.5t-117 364.5v940h117v-938q0 -203 86 -287t295 -84
q207 0 292.5 84t85.5 287v938h113v-940q0 -251 -117.5 -364.5t-376.5 -113.5z" />
    <glyph glyph-name="utilde" unicode="&#x169;" horiz-adv-x="1169" 
d="M686 1249q-35 0 -61.5 12t-71.5 48q-35 27 -52.5 36t-37.5 9q-34 0 -52 -25.5t-26 -81.5h-84q12 203 164 203q34 0 60.5 -12t72.5 -47q30 -22 40 -29t23.5 -13t26.5 -6q66 0 78 107h84q-12 -201 -164 -201zM500 -25q-164 0 -248 96.5t-84 282.5v695h115v-682
q0 -145 57.5 -216t177.5 -71q232 0 352 278v691h115v-1049h-98l-4 207q-134 -232 -383 -232z" />
    <glyph glyph-name="Umacron" unicode="&#x16a;" horiz-adv-x="1316" 
d="M440 1628v92h439v-92h-439zM659 -25q-261 0 -378 113.5t-117 364.5v940h117v-938q0 -203 86 -287t295 -84q207 0 292.5 84t85.5 287v938h113v-940q0 -251 -117.5 -364.5t-376.5 -113.5z" />
    <glyph glyph-name="umacron" unicode="&#x16b;" horiz-adv-x="1169" 
d="M356 1307v92h439v-92h-439zM500 -25q-164 0 -248 96.5t-84 282.5v695h115v-682q0 -145 57.5 -216t177.5 -71q232 0 352 278v691h115v-1049h-98l-4 207q-134 -232 -383 -232z" />
    <glyph glyph-name="Ubreve" unicode="&#x16c;" horiz-adv-x="1316" 
d="M659 1550q113 0 177.5 63.5t72.5 174.5h-94q-5 -67 -44.5 -105t-111.5 -38t-111 37.5t-44 105.5h-92q8 -111 71.5 -174.5t175.5 -63.5zM659 -25q-261 0 -378 113.5t-117 364.5v940h117v-938q0 -203 86 -287t295 -84q207 0 292.5 84t85.5 287v938h113v-940
q0 -251 -117.5 -364.5t-376.5 -113.5z" />
    <glyph glyph-name="ubreve" unicode="&#x16d;" horiz-adv-x="1169" 
d="M575 1229q114 0 178 63t72 174h-94q-5 -67 -44.5 -105t-111.5 -38t-111 37.5t-44 105.5h-92q8 -111 71.5 -174t175.5 -63zM500 -25q-164 0 -248 96.5t-84 282.5v695h115v-682q0 -145 57.5 -216t177.5 -71q232 0 352 278v691h115v-1049h-98l-4 207q-134 -232 -383 -232z
" />
    <glyph glyph-name="Uring" unicode="&#x16e;" horiz-adv-x="1316" 
d="M659 1520q-82 0 -135 52t-53 132t53 132t135 52t135.5 -52t53.5 -132t-53.5 -132t-135.5 -52zM659 1602q43 0 71 28.5t28 73.5t-28 73.5t-71 28.5q-44 0 -72 -28t-28 -74t28 -74t72 -28zM659 -25q-261 0 -378 113.5t-117 364.5v940h117v-938q0 -203 86 -287t295 -84
q207 0 292.5 84t85.5 287v938h113v-940q0 -251 -117.5 -364.5t-376.5 -113.5z" />
    <glyph glyph-name="uring" unicode="&#x16f;" horiz-adv-x="1169" 
d="M575 1198q-82 0 -135 52t-53 132t53 132.5t135 52.5t135.5 -52.5t53.5 -132.5t-53.5 -132t-135.5 -52zM575 1280q43 0 71 28.5t28 73.5t-28 74t-71 29q-44 0 -72 -28.5t-28 -74.5t28 -74t72 -28zM500 -25q-164 0 -248 96.5t-84 282.5v695h115v-682q0 -145 57.5 -216
t177.5 -71q232 0 352 278v691h115v-1049h-98l-4 207q-134 -232 -383 -232z" />
    <glyph glyph-name="Uhungarumlaut" unicode="&#x170;" horiz-adv-x="1316" 
d="M406 1544l174 260h143l-207 -260h-110zM729 1544l176 260h142l-207 -260h-111zM659 -25q-261 0 -378 113.5t-117 364.5v940h117v-938q0 -203 86 -287t295 -84q207 0 292.5 84t85.5 287v938h113v-940q0 -251 -117.5 -364.5t-376.5 -113.5z" />
    <glyph glyph-name="uhungarumlaut" unicode="&#x171;" horiz-adv-x="1169" 
d="M322 1223l174 260h143l-207 -260h-110zM645 1223l176 260h142l-207 -260h-111zM500 -25q-164 0 -248 96.5t-84 282.5v695h115v-682q0 -145 57.5 -216t177.5 -71q232 0 352 278v691h115v-1049h-98l-4 207q-134 -232 -383 -232z" />
    <glyph glyph-name="Uogonek" unicode="&#x172;" horiz-adv-x="1316" 
d="M1040 1393h113v-940q0 -197 -71 -308t-224 -149q-205 -87 -205 -215q0 -47 26.5 -71.5t76.5 -24.5q54 0 110 34v-96q-51 -29 -127 -29q-90 0 -139 43t-49 121q0 126 129 217h-21q-261 0 -378 113.5t-117 364.5v940h117v-938q0 -203 86 -287t295 -84q207 0 292.5 84
t85.5 287v938z" />
    <glyph glyph-name="uogonek" unicode="&#x173;" horiz-adv-x="1169" 
d="M954 0q-182 -104 -182 -219q0 -96 102 -96q58 0 111 34v-96q-63 -29 -129 -29q-89 0 -137.5 43t-48.5 121q0 159 217 283l-4 166q-134 -232 -383 -232q-164 0 -248 96.5t-84 282.5v695h115v-682q0 -145 57.5 -216t177.5 -71q232 0 352 278v691h115v-1049h-31z" />
    <glyph glyph-name="Wcircumflex" unicode="&#x174;" horiz-adv-x="1783" 
d="M614 1544l222 260h112l223 -260h-118l-160 168l-160 -168h-119zM420 0l-393 1393h120l338 -1209l349 1209h118l351 -1213l337 1213h117l-393 -1393h-123l-350 1200l-350 -1200h-121z" />
    <glyph glyph-name="wcircumflex" unicode="&#x175;" horiz-adv-x="1581" 
d="M512 1223l221 260h113l223 -260h-119l-159 168l-160 -168h-119zM375 0l-344 1049h121l288 -906l295 906h115l293 -906l289 906h116l-344 -1049h-123l-290 887l-291 -887h-125z" />
    <glyph glyph-name="Ycircumflex" unicode="&#x176;" horiz-adv-x="1105" 
d="M274 1544l222 260h112l223 -260h-118l-160 168l-160 -168h-119zM494 0v612l-500 781h139l422 -660l422 660h133l-500 -781v-612h-116z" />
    <glyph glyph-name="ycircumflex" unicode="&#x177;" horiz-adv-x="944" 
d="M197 1223l221 260h112l224 -260h-119l-160 168l-160 -168h-118zM117 -373v101h69q72 0 107.5 29t66.5 112l66 178l-395 1002h123l333 -859l310 859h116l-442 -1196q-47 -129 -106 -177.5t-168 -48.5h-80z" />
    <glyph glyph-name="Ydieresis" unicode="&#x178;" horiz-adv-x="1105" 
d="M315 1591v162h131v-162h-131zM659 1591v162h132v-162h-132zM494 0v612l-500 781h139l422 -660l422 660h133l-500 -781v-612h-116z" />
    <glyph glyph-name="Zacute" unicode="&#x179;" horiz-adv-x="1110" 
d="M446 1544l222 260h147l-250 -260h-119zM66 0v98l815 1186h-779v109h924v-99l-815 -1185h833v-109h-978z" />
    <glyph glyph-name="zacute" unicode="&#x17a;" horiz-adv-x="931" 
d="M354 1223l221 260h148l-250 -260h-119zM66 0v86l643 864h-600v99h743v-86l-641 -863h651v-100h-796z" />
    <glyph glyph-name="Zdotaccent" unicode="&#x17b;" horiz-adv-x="1110" 
d="M498 1591v162h131v-162h-131zM66 0v98l815 1186h-779v109h924v-99l-815 -1185h833v-109h-978z" />
    <glyph glyph-name="zdotaccent" unicode="&#x17c;" horiz-adv-x="931" 
d="M406 1270v162h131v-162h-131zM66 0v86l643 864h-600v99h743v-86l-641 -863h651v-100h-796z" />
    <glyph glyph-name="Zcaron" unicode="&#x17d;" horiz-adv-x="1110" 
d="M506 1544l-221 260h118l160 -168l160 168h119l-224 -260h-112zM66 0v98l815 1186h-779v109h924v-99l-815 -1185h833v-109h-978z" />
    <glyph glyph-name="zcaron" unicode="&#x17e;" horiz-adv-x="931" 
d="M414 1223l-221 260h118l160 -168l160 168h119l-224 -260h-112zM66 0v86l643 864h-600v99h743v-86l-641 -863h651v-100h-796z" />
    <glyph glyph-name="florin" unicode="&#x192;" 
d="M119 -123l10 100h113q106 0 157 52.5t66 179.5l78 627h-283v100h295l23 180q22 169 95 243.5t220 74.5h164l-10 -101h-134q-107 0 -157.5 -51.5t-65.5 -179.5l-20 -166h331v-100h-344l-77 -641q-20 -168 -94.5 -243t-221.5 -75h-145z" />
    <glyph glyph-name="Aringacute" unicode="&#x1fa;" 
d="M500 1927l221 260h147l-250 -260h-118zM616 1483q-82 0 -135 52t-53 132t53 132t135 52t135.5 -52t53.5 -132t-53.5 -132t-135.5 -52zM616 1565q43 0 71 28.5t28 73.5t-28 73.5t-71 28.5q-44 0 -72 -28t-28 -74t28 -74t72 -28zM25 0l532 1393h119l530 -1393h-125
l-149 393h-637l-150 -393h-120zM336 502h555l-277 745z" />
    <glyph glyph-name="aringacute" unicode="&#x1fb;" horiz-adv-x="1110" 
d="M420 1606l221 260h147l-249 -260h-119zM537 1161q-82 0 -135.5 52.5t-53.5 132.5t53.5 132t135.5 52t135 -52t53 -132t-53 -132.5t-135 -52.5zM537 1243q43 0 70.5 28.5t27.5 74.5q0 45 -27.5 73.5t-70.5 28.5q-45 0 -73 -28t-28 -74t28.5 -74.5t72.5 -28.5zM444 -25
q-161 0 -251.5 81t-90.5 231q0 317 430 317h299v94q0 139 -71.5 207t-218.5 68q-137 0 -212.5 -58t-82.5 -172h-113q15 163 119 246.5t293 83.5q401 0 401 -375v-698h-98l-4 174q-146 -199 -400 -199zM459 74q240 0 372 225v207h-292q-169 0 -245.5 -52t-76.5 -163
q0 -106 62 -161.5t180 -55.5z" />
    <glyph glyph-name="AEacute" unicode="&#x1fc;" horiz-adv-x="1835" 
d="M823 1544l221 260h148l-250 -260h-119zM-6 0l858 1393h887v-109h-723v-514h620v-108h-620v-553h743v-109h-860v393h-530l-244 -393h-131zM434 502h465v766z" />
    <glyph glyph-name="aeacute" unicode="&#x1fd;" horiz-adv-x="1820" 
d="M782 1223l222 260h147l-250 -260h-119zM451 -25q-164 0 -256.5 80.5t-92.5 229.5q0 156 106.5 237.5t321.5 81.5h301v94q0 139 -71 207t-219 68q-277 0 -295 -230h-113q15 162 118.5 246t287.5 84q291 0 362 -211q90 211 371 211q206 0 316 -114t110 -330v-129h-752v-72
q0 -178 81.5 -265t246.5 -87q138 0 217 60.5t88 170.5h111q-10 -161 -118 -246.5t-298 -85.5q-303 0 -400 220q-159 -220 -423 -220zM946 598h641v23q0 178 -79 265t-240 87q-163 0 -242.5 -87t-79.5 -265v-23zM463 74q243 0 377 239q-9 49 -9 107v86h-292
q-167 0 -244.5 -53t-77.5 -164q0 -104 63 -159.5t183 -55.5z" />
    <glyph glyph-name="Oslashacute" unicode="&#x1fe;" horiz-adv-x="1339" 
d="M922 1804l-250 -260h-119l221 260h148zM1200 1358l-92 -131q92 -130 92 -350v-361q0 -265 -135 -403t-395 -138q-236 0 -367 113l-80 -113l-84 60l92 131q-92 130 -92 350v361q0 265 135.5 402.5t395.5 137.5q236 0 366 -112l80 112zM258 522q0 -152 47 -252l666 942
q-105 97 -299 97q-209 0 -311.5 -108t-102.5 -331v-348zM1083 870q0 153 -49 254l-665 -942q104 -98 303 -98q208 0 309.5 108t101.5 330v348z" />
    <glyph glyph-name="oslashacute" unicode="&#x1ff;" horiz-adv-x="1146" 
d="M823 1483l-250 -260h-118l221 260h147zM1018 1012l-78 -101q78 -110 78 -290v-193q0 -220 -115 -336.5t-330 -116.5q-185 0 -299 88l-69 -88l-76 62l78 98q-78 113 -78 293v193q0 220 113.5 336t330.5 116q185 0 299 -88l70 88zM244 436q0 -126 39 -203l522 664
q-82 76 -232 76q-329 0 -329 -359v-178zM903 614q0 124 -39 203l-522 -665q82 -76 231 -76q330 0 330 360v178z" />
    <glyph glyph-name="Scommaaccent" unicode="&#x218;" horiz-adv-x="1138" 
d="M575 -25q-241 0 -368 101t-127 293h117q0 -140 98 -212.5t285 -72.5q360 0 360 274q0 136 -88 203t-305 96q-240 32 -340.5 116.5t-100.5 254.5q0 189 122.5 289t351.5 100q224 0 339 -97t115 -286h-116q0 275 -340 275q-173 0 -264 -68.5t-91 -198.5q0 -126 84 -188
t287 -88q253 -32 358 -122.5t105 -274.5q0 -195 -122 -294.5t-360 -99.5zM512 -461v66q42 0 58 24t16 70h-54v131h132v-117q0 -85 -33.5 -129t-118.5 -45z" />
    <glyph glyph-name="scommaaccent" unicode="&#x219;" horiz-adv-x="1015" 
d="M508 -25q-207 0 -314.5 82t-107.5 240h111q0 -221 309 -221q148 0 224.5 52t76.5 151q0 95 -71.5 141t-248.5 65q-204 22 -289 86.5t-85 196.5q0 146 102 225.5t291 79.5t289 -79.5t100 -231.5h-113q0 103 -70 158t-204 55q-135 0 -210 -52.5t-75 -146.5q0 -87 68.5 -129
t236.5 -59q213 -22 302.5 -91t89.5 -210q0 -153 -105 -232.5t-307 -79.5zM442 -461v66q42 0 58 24t16 70h-53v131h131v-117q0 -85 -33.5 -129t-118.5 -45z" />
    <glyph glyph-name="uni021A" unicode="&#x21a;" horiz-adv-x="1026" 
d="M455 0v1284h-439v109h996v-109h-441v-1284h-116zM428 -461v66q42 0 58 24t16 70h-53v131h131v-117q0 -85 -33.5 -129t-118.5 -45z" />
    <glyph glyph-name="uni021B" unicode="&#x21b;" horiz-adv-x="679" 
d="M494 0q-141 0 -205 73.5t-64 237.5v643h-196v95h198l11 286h102v-286h287v-95h-287v-643q0 -120 38 -165.5t138 -45.5h123v-100h-145zM317 -461v66q42 0 58 24t16 70h-53v131h131v-117q0 -85 -33.5 -129t-118.5 -45z" />
    <glyph glyph-name="uni0237" unicode="&#x237;" horiz-adv-x="483" 
d="M-6 -373v101h45q86 0 115.5 36.5t29.5 139.5v1145h115v-1143q0 -148 -56.5 -213.5t-183.5 -65.5h-65z" />
    <glyph glyph-name="uni02BC" unicode="&#x2bc;" horiz-adv-x="260" 
d="M55 1163v64q38 1 54 24t16 66v16h-49v148h127v-144q0 -85 -32.5 -129t-115.5 -45z" />
    <glyph glyph-name="circumflex" unicode="&#x2c6;" horiz-adv-x="1024" 
d="M233 1223l222 260h112l224 -260h-119l-160 168l-160 -168h-119z" />
    <glyph glyph-name="caron" unicode="&#x2c7;" horiz-adv-x="1024" 
d="M455 1223l-222 260h119l160 -168l160 168h119l-224 -260h-112z" />
    <glyph glyph-name="uni02C9" unicode="&#x2c9;" horiz-adv-x="1024" 
d="M293 1307v92h438v-92h-438z" />
    <glyph glyph-name="breve" unicode="&#x2d8;" horiz-adv-x="1024" 
d="M512 1229q114 0 178 63t72 174h-94q-5 -67 -44.5 -105t-111.5 -38t-111.5 38t-44.5 105h-92q8 -111 72 -174t176 -63z" />
    <glyph glyph-name="dotaccent" unicode="&#x2d9;" horiz-adv-x="1024" 
d="M446 1270v162h132v-162h-132z" />
    <glyph glyph-name="ring" unicode="&#x2da;" horiz-adv-x="1024" 
d="M512 1198q-82 0 -135 52t-53 132t53 132.5t135 52.5t135 -52.5t53 -132.5t-53 -132t-135 -52zM512 1280q43 0 70.5 28.5t27.5 73.5q0 46 -27.5 74.5t-70.5 28.5q-44 0 -72 -28.5t-28 -74.5t28 -74t72 -28z" />
    <glyph glyph-name="ogonek" unicode="&#x2db;" horiz-adv-x="1024" 
d="M541 -406q-89 0 -138 43t-49 121q0 175 260 308l48 -54q-205 -111 -205 -231q0 -96 102 -96q58 0 111 34v-96q-63 -29 -129 -29z" />
    <glyph glyph-name="tilde" unicode="&#x2dc;" horiz-adv-x="1024" 
d="M623 1249q-35 0 -62 12.5t-72 47.5q-35 27 -52.5 36t-37.5 9q-33 0 -51 -25.5t-26 -81.5h-84q12 203 163 203q34 0 61.5 -12t72.5 -47q30 -22 40 -29t23.5 -13t26.5 -6q34 0 52.5 26t24.5 81h84q-12 -201 -163 -201z" />
    <glyph glyph-name="hungarumlaut" unicode="&#x2dd;" horiz-adv-x="1024" 
d="M258 1223l174 260h143l-206 -260h-111zM582 1223l176 260h141l-207 -260h-110z" />
    <glyph glyph-name="gravecomb" unicode="&#x300;" horiz-adv-x="0" 
d="M-2 1223l-250 260h148l221 -260h-119z" />
    <glyph glyph-name="acutecomb" unicode="&#x301;" horiz-adv-x="0" 
d="M-117 1223l221 260h148l-250 -260h-119z" />
    <glyph glyph-name="uni0302" unicode="&#x302;" horiz-adv-x="0" 
d="M-279 1223l222 260h112l224 -260h-119l-160 168l-160 -168h-119z" />
    <glyph glyph-name="tildecomb" unicode="&#x303;" horiz-adv-x="0" 
d="M111 1249q-35 0 -62 12.5t-72 47.5q-35 27 -52.5 36t-37.5 9q-33 0 -51 -25.5t-26 -81.5h-84q12 203 163 203q34 0 61.5 -12t72.5 -47q30 -22 40 -29t23.5 -13t26.5 -6q34 0 52.5 26t24.5 81h84q-12 -201 -163 -201z" />
    <glyph glyph-name="uni0304" unicode="&#x304;" horiz-adv-x="0" 
d="M-219 1307v92h438v-92h-438z" />
    <glyph glyph-name="uni0306" unicode="&#x306;" horiz-adv-x="0" 
d="M0 1229q114 0 178 63t72 174h-94q-5 -67 -44.5 -105t-111.5 -38t-111.5 38t-44.5 105h-92q8 -111 72 -174t176 -63z" />
    <glyph glyph-name="uni0307" unicode="&#x307;" horiz-adv-x="0" 
d="M-66 1270v162h132v-162h-132z" />
    <glyph glyph-name="uni0308" unicode="&#x308;" horiz-adv-x="0" 
d="M-238 1270v162h132v-162h-132zM106 1270v162h132v-162h-132z" />
    <glyph glyph-name="uni030A" unicode="&#x30a;" horiz-adv-x="0" 
d="M0 1198q-82 0 -135 52t-53 132t53 132.5t135 52.5t135 -52.5t53 -132.5t-53 -132t-135 -52zM0 1280q43 0 70.5 28.5t27.5 73.5q0 46 -27.5 74.5t-70.5 28.5q-44 0 -72 -28.5t-28 -74.5t28 -74t72 -28z" />
    <glyph glyph-name="uni030B" unicode="&#x30b;" horiz-adv-x="0" 
d="M-254 1223l174 260h143l-206 -260h-111zM70 1223l176 260h141l-207 -260h-110z" />
    <glyph glyph-name="uni030C" unicode="&#x30c;" horiz-adv-x="0" 
d="M-57 1223l-222 260h119l160 -168l160 168h119l-224 -260h-112z" />
    <glyph glyph-name="uni0312" unicode="&#x312;" horiz-adv-x="0" 
d="M-66 1221v114q0 85 33.5 129t118.5 45v-63q-42 -1 -57 -24t-15 -70h52v-131h-132z" />
    <glyph glyph-name="uni0326" unicode="&#x326;" horiz-adv-x="0" 
d="M-86 -461v66q42 0 58 24t16 70h-54v131h132v-117q0 -85 -33.5 -129t-118.5 -45z" />
    <glyph glyph-name="uni0327" unicode="&#x327;" horiz-adv-x="0" 
d="M-39 -406q-113 0 -184 39l28 70q58 -37 140 -37q114 0 114 72q0 33 -25.5 46t-94.5 13h-54l86 234h78l-63 -170h4q92 0 136 -31t44 -96q0 -140 -209 -140z" />
    <glyph glyph-name="uni0328" unicode="&#x328;" horiz-adv-x="0" 
d="M29 -406q-89 0 -138 43t-49 121q0 175 260 308l48 -54q-205 -111 -205 -231q0 -96 102 -96q58 0 111 34v-96q-63 -29 -129 -29z" />
    <glyph glyph-name="uni0394" unicode="&#x394;" horiz-adv-x="1216" 
d="M25 0l522 1393h123l522 -1393h-1167zM186 109h838l-418 1124z" />
    <glyph glyph-name="uni03A9" unicode="&#x3a9;" horiz-adv-x="1339" 
d="M150 0v109h194q-97 59 -151 172t-54 262v334q0 265 135.5 402.5t395.5 137.5t395 -137.5t135 -402.5v-334q0 -149 -54 -262t-151 -172h195v-109h-418v96q149 28 230 140t81 292v342q0 223 -102 331t-311 108t-311.5 -108t-102.5 -331v-342q0 -180 81 -292t230 -140v-96
h-417z" />
    <glyph glyph-name="uni03BC" unicode="&#x3bc;" horiz-adv-x="1183" 
d="M184 -373v1422h115v-682q0 -145 56.5 -216t174.5 -71q116 0 203 67t152 211v691h114v-1049h-98l-4 211q-136 -236 -379 -236q-141 0 -219 78v-426h-115z" />
    <glyph glyph-name="pi" unicode="&#x3c0;" horiz-adv-x="1202" 
d="M236 0v948h-207v101h1132v-101h-209v-663q0 -105 32 -145t114 -40h61v-100h-92q-123 0 -176 65t-53 216v667h-488v-948h-114z" />
    <glyph glyph-name="Wgrave" unicode="&#x1e80;" horiz-adv-x="1783" 
d="M891 1544l-250 260h147l222 -260h-119zM420 0l-393 1393h120l338 -1209l349 1209h118l351 -1213l337 1213h117l-393 -1393h-123l-350 1200l-350 -1200h-121z" />
    <glyph glyph-name="wgrave" unicode="&#x1e81;" horiz-adv-x="1581" 
d="M788 1223l-249 260h147l221 -260h-119zM375 0l-344 1049h121l288 -906l295 906h115l293 -906l289 906h116l-344 -1049h-123l-290 887l-291 -887h-125z" />
    <glyph glyph-name="Wacute" unicode="&#x1e82;" horiz-adv-x="1783" 
d="M776 1544l221 260h148l-250 -260h-119zM420 0l-393 1393h120l338 -1209l349 1209h118l351 -1213l337 1213h117l-393 -1393h-123l-350 1200l-350 -1200h-121z" />
    <glyph glyph-name="wacute" unicode="&#x1e83;" horiz-adv-x="1581" 
d="M674 1223l221 260h147l-249 -260h-119zM375 0l-344 1049h121l288 -906l295 906h115l293 -906l289 906h116l-344 -1049h-123l-290 887l-291 -887h-125z" />
    <glyph glyph-name="Wdieresis" unicode="&#x1e84;" horiz-adv-x="1783" 
d="M655 1591v162h131v-162h-131zM999 1591v162h131v-162h-131zM420 0l-393 1393h120l338 -1209l349 1209h118l351 -1213l337 1213h117l-393 -1393h-123l-350 1200l-350 -1200h-121z" />
    <glyph glyph-name="wdieresis" unicode="&#x1e85;" horiz-adv-x="1581" 
d="M553 1270v162h131v-162h-131zM897 1270v162h131v-162h-131zM375 0l-344 1049h121l288 -906l295 906h115l293 -906l289 906h116l-344 -1049h-123l-290 887l-291 -887h-125z" />
    <glyph glyph-name="uni1E9E" unicode="&#x1e9e;" horiz-adv-x="1280" 
d="M166 0v975q0 214 113.5 316t351.5 102h483v-99l-385 -508q259 -1 374.5 -94.5t115.5 -300.5q0 -205 -108 -298t-343 -93h-242v109h232q183 0 262.5 64.5t79.5 215.5q0 156 -89 223.5t-298 67.5h-131v92l387 512h-330q-188 0 -272 -73.5t-84 -237.5v-973h-117z" />
    <glyph glyph-name="Ygrave" unicode="&#x1ef2;" horiz-adv-x="1105" 
d="M551 1544l-250 260h148l221 -260h-119zM494 0v612l-500 781h139l422 -660l422 660h133l-500 -781v-612h-116z" />
    <glyph glyph-name="ygrave" unicode="&#x1ef3;" horiz-adv-x="944" 
d="M473 1223l-250 260h148l221 -260h-119zM117 -373v101h69q72 0 107.5 29t66.5 112l66 178l-395 1002h123l333 -859l310 859h116l-442 -1196q-47 -129 -106 -177.5t-168 -48.5h-80z" />
    <glyph glyph-name="uni2002" unicode="&#x2002;" horiz-adv-x="1024" 
 />
    <glyph glyph-name="uni2003" unicode="&#x2003;" horiz-adv-x="1843" 
 />
    <glyph glyph-name="uni2007" unicode="&#x2007;" 
 />
    <glyph glyph-name="uni2008" unicode="&#x2008;" horiz-adv-x="524" 
 />
    <glyph glyph-name="uni200B" unicode="&#x200b;" horiz-adv-x="0" 
 />
    <glyph glyph-name="figuredash" unicode="&#x2012;" 
d="M61 547v98h1108v-98h-1108z" />
    <glyph glyph-name="endash" unicode="&#x2013;" horiz-adv-x="1024" 
d="M61 547v98h902v-98h-902z" />
    <glyph glyph-name="emdash" unicode="&#x2014;" horiz-adv-x="1843" 
d="M61 547v98h1721v-98h-1721z" />
    <glyph glyph-name="quoteleft" unicode="&#x2018;" horiz-adv-x="468" 
d="M164 987v193q0 225 168 237v-78q-80 -10 -80 -133v-35h51v-184h-139z" />
    <glyph glyph-name="quoteright" unicode="&#x2019;" horiz-adv-x="468" 
d="M139 963v79q80 7 80 132v36h-53v183h141v-193q0 -222 -168 -237z" />
    <glyph glyph-name="quotesinglbase" unicode="&#x201a;" horiz-adv-x="468" 
d="M139 -248v80q80 7 80 131v37h-53v182h141v-192q0 -223 -168 -238z" />
    <glyph glyph-name="quotedblleft" unicode="&#x201c;" horiz-adv-x="823" 
d="M164 987v193q0 225 168 237v-78q-80 -10 -80 -133v-35h51v-184h-139zM518 987v193q0 225 168 237v-78q-80 -10 -80 -133v-35h51v-184h-139z" />
    <glyph glyph-name="quotedblright" unicode="&#x201d;" horiz-adv-x="823" 
d="M139 963v79q80 7 80 132v36h-53v183h141v-193q0 -222 -168 -237zM494 963v79q79 7 79 132v36h-53v183h142v-193q0 -222 -168 -237z" />
    <glyph glyph-name="quotedblbase" unicode="&#x201e;" horiz-adv-x="823" 
d="M139 -248v80q80 7 80 131v37h-53v182h141v-192q0 -223 -168 -238zM494 -248v80q79 7 79 131v37h-53v182h142v-192q0 -223 -168 -238z" />
    <glyph glyph-name="dagger" unicode="&#x2020;" horiz-adv-x="1196" 
d="M541 -373v1141l-461 -10v116l461 -10v529h114v-529l461 10v-116l-461 10v-1141h-114z" />
    <glyph glyph-name="daggerdbl" unicode="&#x2021;" horiz-adv-x="1196" 
d="M541 -373v488l-461 -11v117l461 -10v598l-461 -10v116l461 -10v488h114v-488l461 10v-116l-461 10v-598l461 10v-117l-461 11v-488h-114z" />
    <glyph glyph-name="bullet" unicode="&#x2022;" horiz-adv-x="1024" 
d="M317 397v398h388v-398h-388z" />
    <glyph glyph-name="ellipsis" unicode="&#x2026;" horiz-adv-x="1843" 
d="M238 0v182h139v-182h-139zM852 0v182h139v-182h-139zM1466 0v182h140v-182h-140z" />
    <glyph glyph-name="perthousand" unicode="&#x2030;" horiz-adv-x="2271" 
d="M379 651q-141 0 -216 71t-75 206v211q0 135 75 206.5t216 71.5t216 -71.5t75 -206.5v-211q0 -135 -75 -206t-216 -71zM317 -25l828 1442h106l-827 -1442h-107zM379 741q190 0 190 195v199q0 192 -190 192q-191 0 -191 -192v-199q0 -195 191 -195zM1190 -25
q-141 0 -216 72t-75 207v211q0 135 75 205.5t216 70.5t216 -70.5t75 -205.5v-211q0 -135 -75 -207t-216 -72zM1892 -25q-141 0 -215.5 72t-74.5 207v211q0 135 74.5 205.5t215.5 70.5t216 -70.5t75 -205.5v-211q0 -135 -75 -207t-216 -72zM1190 66q190 0 190 194v199
q0 192 -190 192q-191 0 -191 -192v-199q0 -194 191 -194zM1892 66q191 0 191 194v199q0 192 -191 192q-190 0 -190 -192v-199q0 -194 190 -194z" />
    <glyph glyph-name="guilsinglleft" unicode="&#x2039;" horiz-adv-x="530" 
d="M350 168l-297 356l297 357h129l-297 -357l297 -356h-129z" />
    <glyph glyph-name="guilsinglright" unicode="&#x203a;" horiz-adv-x="530" 
d="M53 168l297 356l-297 357h129l297 -357l-297 -356h-129z" />
    <glyph glyph-name="fraction" unicode="&#x2044;" horiz-adv-x="208" 
d="M-328 -25l758 1442h105l-756 -1442h-107z" />
    <glyph glyph-name="uni2070" unicode="&#x2070;" horiz-adv-x="749" 
d="M375 827q-139 0 -213 72t-74 207v299q0 135 74 206.5t213 71.5t213 -71.5t74 -206.5v-299q0 -135 -74 -207t-213 -72zM375 918q186 0 186 194v289q0 192 -186 192q-187 0 -187 -192v-289q0 -194 187 -194z" />
    <glyph glyph-name="uni2074" unicode="&#x2074;" horiz-adv-x="749" 
d="M500 852v180h-439v94l433 533h108v-537h105v-90h-105v-180h-102zM172 1122h328v410z" />
    <glyph glyph-name="uni2075" unicode="&#x2075;" horiz-adv-x="749" 
d="M373 827q-132 0 -208 58.5t-79 161.5h96q1 -60 52.5 -94.5t136.5 -34.5q99 0 150.5 47t51.5 137q0 87 -48 133.5t-140 46.5q-117 0 -188 -65h-82l24 442h494v-92h-412l-16 -258q81 63 203 63q126 0 196 -70.5t70 -197.5q0 -135 -78 -206t-223 -71z" />
    <glyph glyph-name="uni2076" unicode="&#x2076;" horiz-adv-x="749" 
d="M387 827q-141 0 -217 71.5t-76 203.5v303q0 134 76.5 206t220.5 72q128 0 197 -56.5t74 -158.5h-97q-5 60 -50 92.5t-124 32.5q-196 0 -196 -196v-137q79 102 225 102q122 0 188 -68t66 -194q0 -134 -73 -203.5t-214 -69.5zM387 918q186 0 186 180q0 174 -172 174
q-145 0 -206 -131v-33q0 -92 49 -141t143 -49z" />
    <glyph glyph-name="uni2077" unicode="&#x2077;" horiz-adv-x="749" 
d="M219 852q18 421 346 715h-493v92h602v-98q-168 -150 -253.5 -324.5t-94.5 -384.5h-107z" />
    <glyph glyph-name="uni2078" unicode="&#x2078;" horiz-adv-x="749" 
d="M375 827q-152 0 -230.5 59.5t-78.5 176.5q0 159 149 209v4q-125 40 -125 182q0 107 74.5 166t210.5 59t209 -58.5t73 -166.5q0 -142 -122 -182v-4q149 -51 149 -211q0 -115 -78.5 -174.5t-230.5 -59.5zM375 1311q91 0 138.5 36t47.5 105t-47.5 106t-138.5 37
q-89 0 -138 -37t-49 -106t48 -105t139 -36zM375 915q102 0 154.5 39.5t52.5 114.5t-52.5 114.5t-154.5 39.5q-209 0 -209 -154t209 -154z" />
    <glyph glyph-name="uni2079" unicode="&#x2079;" horiz-adv-x="749" 
d="M358 827q-129 0 -198 57t-72 158h96q3 -60 47.5 -92t126.5 -32q195 0 195 196v135q-80 -100 -225 -100q-122 0 -188 68t-66 194q0 133 73 202.5t213 69.5q142 0 217.5 -71t75.5 -203v-303q0 -134 -75.5 -206.5t-219.5 -72.5zM348 1239q144 0 205 131v33q0 93 -49 141.5
t-144 48.5q-92 0 -139 -46t-47 -134q0 -174 174 -174z" />
    <glyph glyph-name="uni2080" unicode="&#x2080;" horiz-adv-x="749" 
d="M375 -270q-139 0 -213 71.5t-74 206.5v299q0 135 74 207t213 72t213 -72t74 -207v-299q0 -135 -74 -206.5t-213 -71.5zM375 -180q186 0 186 194v289q0 193 -186 193q-187 0 -187 -193v-289q0 -194 187 -194z" />
    <glyph glyph-name="uni2081" unicode="&#x2081;" horiz-adv-x="749" 
d="M182 -246v90h193v592q-94 -54 -217 -57v80q76 5 129 29t94 73h94v-717h197v-90h-490z" />
    <glyph glyph-name="uni2082" unicode="&#x2082;" horiz-adv-x="749" 
d="M92 -246v60q0 114 60.5 189.5t205.5 141.5q109 50 154 96.5t45 110.5q0 67 -45 105.5t-129 38.5q-87 0 -133.5 -43t-46.5 -123v-13h-97v25q0 117 73 180.5t208 63.5q130 0 200 -61t70 -171q0 -94 -56.5 -159t-190.5 -127q-118 -54 -166 -103.5t-51 -118.5h464v-92h-565z
" />
    <glyph glyph-name="uni2083" unicode="&#x2083;" horiz-adv-x="749" 
d="M381 -270q-142 0 -217.5 58.5t-75.5 168.5v25h96v-13q0 -149 197 -149q190 0 190 153q0 150 -190 150h-96v90h96q170 0 170 139q0 70 -45 107t-129 37q-86 0 -133 -38.5t-47 -109.5v-8h-97v14q0 109 75 170.5t206 61.5q126 0 197 -60t71 -168q0 -141 -121 -182v-2
q144 -43 144 -205q0 -239 -291 -239z" />
    <glyph glyph-name="uni2084" unicode="&#x2084;" horiz-adv-x="749" 
d="M500 -246v180h-439v95l433 532h108v-536h105v-91h-105v-180h-102zM172 25h328v409z" />
    <glyph glyph-name="uni2085" unicode="&#x2085;" horiz-adv-x="749" 
d="M373 -270q-132 0 -208 58t-79 161h96q1 -60 52.5 -94.5t136.5 -34.5q99 0 150.5 47t51.5 137q0 87 -48 133.5t-140 46.5q-117 0 -188 -65h-82l24 442h494v-92h-412l-16 -258q81 63 203 63q126 0 196 -70.5t70 -197.5q0 -134 -78 -205t-223 -71z" />
    <glyph glyph-name="uni2086" unicode="&#x2086;" horiz-adv-x="749" 
d="M387 -270q-141 0 -217 71t-76 203v303q0 134 76.5 206.5t220.5 72.5q128 0 197 -56.5t74 -158.5h-97q-5 60 -50 92.5t-124 32.5q-196 0 -196 -197v-137q79 102 225 102q122 0 188 -68t66 -194q0 -134 -73 -203t-214 -69zM387 -180q186 0 186 180q0 174 -172 174
q-145 0 -206 -131v-33q0 -92 49 -141t143 -49z" />
    <glyph glyph-name="uni2087" unicode="&#x2087;" horiz-adv-x="749" 
d="M219 -246q18 421 346 715h-493v92h602v-98q-168 -150 -253.5 -324.5t-94.5 -384.5h-107z" />
    <glyph glyph-name="uni2088" unicode="&#x2088;" horiz-adv-x="749" 
d="M375 -270q-309 0 -309 235q0 159 149 209v4q-125 40 -125 182q0 107 74.5 166.5t210.5 59.5t209 -59t73 -167q0 -142 -122 -182v-4q149 -51 149 -211q0 -115 -78.5 -174t-230.5 -59zM375 213q91 0 138.5 36t47.5 105t-48 106.5t-138 37.5q-89 0 -138 -37.5t-49 -106.5
t48 -105t139 -36zM375 -182q207 0 207 153q0 75 -52.5 114.5t-154.5 39.5q-209 0 -209 -154q0 -153 209 -153z" />
    <glyph glyph-name="uni2089" unicode="&#x2089;" horiz-adv-x="749" 
d="M358 -270q-129 0 -198 57t-72 158h96q3 -60 48 -92.5t126 -32.5q195 0 195 196v136q-81 -101 -225 -101q-122 0 -188 68t-66 194q0 133 73 203t213 70q142 0 217.5 -71.5t75.5 -203.5v-303q0 -134 -75.5 -206t-219.5 -72zM348 141q144 0 205 131v33q0 93 -49 142t-144 49
q-92 0 -139 -46.5t-47 -134.5q0 -174 174 -174z" />
    <glyph glyph-name="Euro" unicode="&#x20ac;" 
d="M672 -25q-224 0 -344.5 119.5t-120.5 341.5v62h-119v96h119v205h-119v96h119v61q0 222 120.5 341.5t344.5 119.5q204 0 317 -102t127 -297h-110q-21 295 -334 295q-173 0 -261.5 -92t-88.5 -271v-55h471l-15 -96h-456v-205h415l-14 -96h-401v-56q0 -179 88.5 -270.5
t261.5 -91.5q313 0 334 295h110q-14 -193 -127 -296.5t-317 -103.5z" />
    <glyph glyph-name="uni20B9" unicode="&#x20b9;" 
d="M842 0l-680 596v86h260q197 0 291.5 68.5t101.5 220.5h-684l23 96h657q-19 121 -106 175t-261 54h-313l23 97h993l-23 -97h-344q122 -68 146 -229h221l-23 -96h-194q-6 -196 -130 -290.5t-372 -94.5h-84l668 -586h-170z" />
    <glyph glyph-name="uni2113" unicode="&#x2113;" horiz-adv-x="942" 
d="M524 -25q-172 0 -263 97t-91 284v787q0 186 84 281.5t250 95.5q152 0 230.5 -81.5t78.5 -244.5q0 -416 -528 -760v-82q0 -272 252 -272q138 0 256 92l47 -90q-136 -107 -316 -107zM285 557q413 282 413 629q0 119 -48 174t-146 55q-112 0 -165.5 -67.5t-53.5 -206.5v-584
z" />
    <glyph glyph-name="uni2116" unicode="&#x2116;" horiz-adv-x="2222" 
d="M203 0v1393h143l756 -1184v1184h115v-1393h-115l-785 1229v-1229h-114zM1774 272q-157 0 -238.5 81.5t-81.5 238.5v133q0 155 82 237t238 82t237.5 -81.5t81.5 -237.5v-133q0 -157 -81 -238.5t-238 -81.5zM1776 360q217 0 217 236v125q0 233 -217 233t-217 -233v-125
q0 -236 217 -236zM1462 0v90h625v-90h-625z" />
    <glyph glyph-name="uni2117" unicode="&#x2117;" horiz-adv-x="1595" 
d="M797 -25q-205 0 -370 93t-258 258t-93 370t93 370t258 258t370 93t370 -93t258 -258t93 -370t-93 -370t-258 -258t-370 -93zM797 70q276 0 447 174t171 452q0 183 -77 325.5t-218 222t-323 79.5q-275 0 -446 -175t-171 -452t171 -451.5t446 -174.5zM563 328v737h297
q137 0 199.5 -54.5t62.5 -172.5q0 -120 -62.5 -175t-199.5 -55h-190v-280h-107zM670 700h182q88 0 127 32.5t39 105.5q0 72 -39 104.5t-127 32.5h-182v-275z" />
    <glyph glyph-name="uni2120" unicode="&#x2120;" horiz-adv-x="1409" 
d="M279 723q-238 0 -238 195h96q0 -115 142 -115q139 0 139 106q0 52 -36 79t-128 42q-110 19 -156.5 61.5t-46.5 125.5q0 94 58.5 143t169.5 49q221 0 221 -190h-94q0 110 -132 110q-129 0 -129 -104q0 -51 35 -77.5t123 -39.5q114 -19 162.5 -63t48.5 -130
q0 -192 -235 -192zM655 739v654h142l196 -523l197 523h139v-654h-96v535l-205 -535h-76l-207 541v-541h-90z" />
    <glyph glyph-name="trademark" unicode="&#x2122;" horiz-adv-x="1357" 
d="M195 739v570h-193v84h481v-84h-192v-570h-96zM604 739v654h139l197 -523l197 523h141v-654h-96v541l-207 -541h-76l-205 535v-535h-90z" />
    <glyph glyph-name="uni2126" unicode="&#x2126;" horiz-adv-x="1339" 
d="M150 0v109h194q-97 59 -151 172t-54 262v334q0 265 135.5 402.5t395.5 137.5t395 -137.5t135 -402.5v-334q0 -149 -54 -262t-151 -172h195v-109h-418v96q149 28 230 140t81 292v342q0 223 -102 331t-311 108t-311.5 -108t-102.5 -331v-342q0 -180 81 -292t230 -140v-96
h-417z" />
    <glyph glyph-name="estimated" unicode="&#x212e;" horiz-adv-x="1646" 
d="M842 -25q-155 0 -295.5 57t-242.5 153.5t-162 230t-60 280.5q0 195 101.5 361t277 263t381.5 97t381.5 -97t277 -263t101.5 -361v-18h-1231q-11 0 -11 -10v-392q0 -20 19 -43q87 -102 208.5 -158.5t258.5 -56.5q142 0 270 64.5t219 175.5h111q-106 -132 -264.5 -207.5
t-339.5 -75.5zM371 719h944q12 0 12 12v395q0 25 -20 45q-92 96 -211.5 149.5t-249.5 53.5q-136 0 -256 -55.5t-211 -155.5q-19 -23 -19 -45v-389q0 -10 11 -10z" />
    <glyph glyph-name="uni2153" unicode="&#x2153;" horiz-adv-x="1708" 
d="M422 -25l758 1442h104l-756 -1442h-106zM182 586v90h193v592q-96 -55 -217 -58v80q75 5 128.5 29.5t94.5 73.5h94v-717h197v-90h-490zM1339 -25q-142 0 -217 58.5t-75 169.5v24h96v-12q0 -149 196 -149q191 0 191 153q0 150 -191 150h-96v90h96q170 0 170 139
q0 70 -45 106.5t-129 36.5q-86 0 -133 -38.5t-47 -108.5v-8h-96v14q0 108 74.5 169.5t205.5 61.5q127 0 198 -59.5t71 -167.5q0 -141 -121 -182v-2q143 -42 143 -205q0 -240 -291 -240z" />
    <glyph glyph-name="uni2154" unicode="&#x2154;" horiz-adv-x="1708" 
d="M92 586v59q0 114 60.5 190t205.5 142q109 50 154 96.5t45 110.5q0 67 -45 105t-129 38q-87 0 -133.5 -43t-46.5 -123v-12h-97v25q0 117 73 180t208 63q130 0 200 -61t70 -170q0 -94 -56.5 -159.5t-190.5 -127.5q-118 -54 -166 -103t-51 -118h464v-92h-565zM422 -25
l758 1442h104l-756 -1442h-106zM1339 -25q-142 0 -217 58.5t-75 169.5v24h96v-12q0 -149 196 -149q191 0 191 153q0 150 -191 150h-96v90h96q170 0 170 139q0 70 -45 106.5t-129 36.5q-86 0 -133 -38.5t-47 -108.5v-8h-96v14q0 108 74.5 169.5t205.5 61.5q127 0 198 -59.5
t71 -167.5q0 -141 -121 -182v-2q143 -42 143 -205q0 -240 -291 -240z" />
    <glyph glyph-name="uni2155" unicode="&#x2155;" horiz-adv-x="1708" 
d="M422 -25l758 1442h104l-756 -1442h-106zM182 586v90h193v592q-96 -55 -217 -58v80q75 5 128.5 29.5t94.5 73.5h94v-717h197v-90h-490zM1331 -25q-132 0 -208 58.5t-79 161.5h97q1 -60 52 -94.5t136 -34.5q99 0 151 47t52 137q0 87 -48.5 133.5t-140.5 46.5
q-117 0 -188 -65h-82l25 442h493v-92h-411l-17 -258q81 63 203 63q126 0 196 -70.5t70 -197.5q0 -135 -78 -206t-223 -71z" />
    <glyph glyph-name="uni2156" unicode="&#x2156;" horiz-adv-x="1708" 
d="M92 586v59q0 114 60.5 190t205.5 142q109 50 154 96.5t45 110.5q0 67 -45 105t-129 38q-87 0 -133.5 -43t-46.5 -123v-12h-97v25q0 117 73 180t208 63q130 0 200 -61t70 -170q0 -94 -56.5 -159.5t-190.5 -127.5q-118 -54 -166 -103t-51 -118h464v-92h-565zM422 -25
l758 1442h104l-756 -1442h-106zM1331 -25q-132 0 -208 58.5t-79 161.5h97q1 -60 52 -94.5t136 -34.5q99 0 151 47t52 137q0 87 -48.5 133.5t-140.5 46.5q-117 0 -188 -65h-82l25 442h493v-92h-411l-17 -258q81 63 203 63q126 0 196 -70.5t70 -197.5q0 -135 -78 -206
t-223 -71z" />
    <glyph glyph-name="uni2157" unicode="&#x2157;" horiz-adv-x="1708" 
d="M381 561q-142 0 -217.5 58.5t-75.5 168.5v25h96v-12q0 -74 50 -112t147 -38q190 0 190 154q0 149 -190 149h-96v90h96q170 0 170 140q0 70 -45 106.5t-129 36.5q-86 0 -133 -38.5t-47 -108.5v-9h-97v15q0 108 75 169.5t206 61.5q127 0 197.5 -59.5t70.5 -167.5
q0 -141 -121 -182v-2q144 -43 144 -205q0 -240 -291 -240zM422 -25l758 1442h104l-756 -1442h-106zM1331 -25q-132 0 -208 58.5t-79 161.5h97q1 -60 52 -94.5t136 -34.5q99 0 151 47t52 137q0 87 -48.5 133.5t-140.5 46.5q-117 0 -188 -65h-82l25 442h493v-92h-411l-17 -258
q81 63 203 63q126 0 196 -70.5t70 -197.5q0 -135 -78 -206t-223 -71z" />
    <glyph glyph-name="uni2158" unicode="&#x2158;" horiz-adv-x="1708" 
d="M422 -25l758 1442h104l-756 -1442h-106zM500 586v180h-439v94l433 533h108v-537h105v-90h-105v-180h-102zM172 856h328v410zM1331 -25q-132 0 -208 58.5t-79 161.5h97q1 -60 52 -94.5t136 -34.5q99 0 151 47t52 137q0 87 -48.5 133.5t-140.5 46.5q-117 0 -188 -65h-82
l25 442h493v-92h-411l-17 -258q81 63 203 63q126 0 196 -70.5t70 -197.5q0 -135 -78 -206t-223 -71z" />
    <glyph glyph-name="uni2159" unicode="&#x2159;" horiz-adv-x="1708" 
d="M422 -25l758 1442h104l-756 -1442h-106zM182 586v90h193v592q-96 -55 -217 -58v80q75 5 128.5 29.5t94.5 73.5h94v-717h197v-90h-490zM1346 -25q-141 0 -217 71.5t-76 203.5v303q0 134 76.5 206t220.5 72q128 0 196.5 -56.5t73.5 -158.5h-96q-5 60 -50 92.5t-124 32.5
q-197 0 -197 -196v-137q79 102 225 102q122 0 188 -68t66 -194q0 -134 -72.5 -203.5t-213.5 -69.5zM1346 66q186 0 186 180q0 174 -172 174q-146 0 -207 -131v-33q0 -92 49.5 -141t143.5 -49z" />
    <glyph glyph-name="uni215A" unicode="&#x215a;" horiz-adv-x="1708" 
d="M422 -25l758 1442h104l-756 -1442h-106zM373 561q-132 0 -208 58t-79 161h96q1 -60 52.5 -94.5t136.5 -34.5q98 0 150 47t52 138q0 87 -48 133.5t-140 46.5q-116 0 -188 -66h-82l24 443h494v-93h-412l-16 -258q83 64 203 64q126 0 196 -70.5t70 -197.5q0 -135 -78 -206
t-223 -71zM1346 -25q-141 0 -217 71.5t-76 203.5v303q0 134 76.5 206t220.5 72q128 0 196.5 -56.5t73.5 -158.5h-96q-5 60 -50 92.5t-124 32.5q-197 0 -197 -196v-137q79 102 225 102q122 0 188 -68t66 -194q0 -134 -72.5 -203.5t-213.5 -69.5zM1346 66q186 0 186 180
q0 174 -172 174q-146 0 -207 -131v-33q0 -92 49.5 -141t143.5 -49z" />
    <glyph glyph-name="oneeighth" unicode="&#x215b;" horiz-adv-x="1708" 
d="M422 -25l758 1442h104l-756 -1442h-106zM182 586v90h193v592q-96 -55 -217 -58v80q75 5 128.5 29.5t94.5 73.5h94v-717h197v-90h-490zM1333 -25q-152 0 -230.5 59.5t-78.5 176.5q0 158 150 209v4q-125 40 -125 182q0 107 74 166t210 59t209.5 -58.5t73.5 -166.5
q0 -142 -123 -182v-4q149 -51 149 -211q0 -115 -78.5 -174.5t-230.5 -59.5zM1333 459q91 0 139 36t48 105t-48 106t-139 37q-89 0 -137.5 -37t-48.5 -106t47.5 -105t138.5 -36zM1333 63q102 0 154.5 39.5t52.5 114.5t-52.5 114.5t-154.5 39.5q-209 0 -209 -154t209 -154z
" />
    <glyph glyph-name="threeeighths" unicode="&#x215c;" horiz-adv-x="1708" 
d="M381 561q-142 0 -217.5 58.5t-75.5 168.5v25h96v-12q0 -74 50 -112t147 -38q190 0 190 154q0 149 -190 149h-96v90h96q170 0 170 140q0 70 -45 106.5t-129 36.5q-86 0 -133 -38.5t-47 -108.5v-9h-97v15q0 108 75 169.5t206 61.5q127 0 197.5 -59.5t70.5 -167.5
q0 -141 -121 -182v-2q144 -43 144 -205q0 -240 -291 -240zM422 -25l758 1442h104l-756 -1442h-106zM1333 -25q-152 0 -230.5 59.5t-78.5 176.5q0 158 150 209v4q-125 40 -125 182q0 107 74 166t210 59t209.5 -58.5t73.5 -166.5q0 -142 -123 -182v-4q149 -51 149 -211
q0 -115 -78.5 -174.5t-230.5 -59.5zM1333 459q91 0 139 36t48 105t-48 106t-139 37q-89 0 -137.5 -37t-48.5 -106t47.5 -105t138.5 -36zM1333 63q102 0 154.5 39.5t52.5 114.5t-52.5 114.5t-154.5 39.5q-209 0 -209 -154t209 -154z" />
    <glyph glyph-name="fiveeighths" unicode="&#x215d;" horiz-adv-x="1708" 
d="M422 -25l758 1442h104l-756 -1442h-106zM373 561q-132 0 -208 58t-79 161h96q1 -60 52.5 -94.5t136.5 -34.5q98 0 150 47t52 138q0 87 -48 133.5t-140 46.5q-116 0 -188 -66h-82l24 443h494v-93h-412l-16 -258q83 64 203 64q126 0 196 -70.5t70 -197.5q0 -135 -78 -206
t-223 -71zM1333 -25q-152 0 -230.5 59.5t-78.5 176.5q0 158 150 209v4q-125 40 -125 182q0 107 74 166t210 59t209.5 -58.5t73.5 -166.5q0 -142 -123 -182v-4q149 -51 149 -211q0 -115 -78.5 -174.5t-230.5 -59.5zM1333 459q91 0 139 36t48 105t-48 106t-139 37
q-89 0 -137.5 -37t-48.5 -106t47.5 -105t138.5 -36zM1333 63q102 0 154.5 39.5t52.5 114.5t-52.5 114.5t-154.5 39.5q-209 0 -209 -154t209 -154z" />
    <glyph glyph-name="seveneighths" unicode="&#x215e;" horiz-adv-x="1708" 
d="M354 -25l758 1442h105l-756 -1442h-107zM219 586q18 420 346 714h-493v93h602v-99q-168 -150 -253.5 -324t-94.5 -384h-107zM1333 -25q-152 0 -230.5 59.5t-78.5 176.5q0 158 150 209v4q-125 40 -125 182q0 107 74 166t210 59t209.5 -58.5t73.5 -166.5q0 -142 -123 -182
v-4q149 -51 149 -211q0 -115 -78.5 -174.5t-230.5 -59.5zM1333 459q91 0 139 36t48 105t-48 106t-139 37q-89 0 -137.5 -37t-48.5 -106t47.5 -105t138.5 -36zM1333 63q102 0 154.5 39.5t52.5 114.5t-52.5 114.5t-154.5 39.5q-209 0 -209 -154t209 -154z" />
    <glyph glyph-name="arrowleft" unicode="&#x2190;" horiz-adv-x="1638" 
d="M743 61l-632 635l632 635l70 -67l-516 -514h1229v-107h-1229l516 -514z" />
    <glyph glyph-name="arrowup" unicode="&#x2191;" horiz-adv-x="1638" 
d="M764 0v1229l-516 -520l-68 67l639 641l639 -641l-67 -67l-519 522v-1231h-108z" />
    <glyph glyph-name="arrowright" unicode="&#x2192;" horiz-adv-x="1638" 
d="M893 66l-68 67l514 514h-1228v107h1228l-514 514l68 67l635 -635z" />
    <glyph glyph-name="arrowdown" unicode="&#x2193;" horiz-adv-x="1638" 
d="M819 -25l-639 641l68 68l516 -520v1229h108v-1231l519 522l67 -68z" />
    <glyph glyph-name="arrowboth" unicode="&#x2194;" horiz-adv-x="2048" 
d="M702 102l-591 594l591 594l70 -67l-475 -473h1452l-473 473l67 67l594 -594l-594 -594l-67 68l473 473h-1452l475 -473z" />
    <glyph glyph-name="arrowupdn" unicode="&#x2195;" horiz-adv-x="1638" 
d="M819 -172l-596 596l68 68l473 -478v1364l-473 -477l-68 68l596 596l594 -596l-67 -68l-474 477v-1364l474 478l67 -68z" />
    <glyph glyph-name="uni2196" unicode="&#x2196;" horiz-adv-x="1638" 
d="M1350 102l-975 973l4 -706h-100v876h876v-94l-709 2l977 -977z" />
    <glyph glyph-name="uni2197" unicode="&#x2197;" horiz-adv-x="1638" 
d="M291 102l-74 74l977 977l-711 -2v94h877v-876h-100l2 702z" />
    <glyph glyph-name="uni2198" unicode="&#x2198;" horiz-adv-x="1638" 
d="M483 147v95l711 -2l-977 977l74 73l971 -968l-2 702h100v-877h-877z" />
    <glyph glyph-name="uni2199" unicode="&#x2199;" horiz-adv-x="1638" 
d="M279 147v877h100l-4 -707l975 973l73 -73l-977 -977l709 2v-95h-876z" />
    <glyph glyph-name="partialdiff" unicode="&#x2202;" horiz-adv-x="1234" 
d="M532 -25q-206 0 -322 122t-116 333q0 231 134 375.5t352 144.5q136 0 240.5 -60t164.5 -171q2 31 2 96q0 313 -98 458.5t-318 145.5q-176 0 -295 -96v117q124 80 314 80q263 0 387.5 -168t124.5 -527q0 -405 -147.5 -627.5t-422.5 -222.5zM537 76q173 0 282 120.5
t148 348.5q-39 140 -140.5 221.5t-242.5 81.5q-168 0 -271.5 -115t-103.5 -301q0 -167 86 -261.5t242 -94.5z" />
    <glyph glyph-name="emptyset" unicode="&#x2205;" horiz-adv-x="1730" 
d="M215 -25l-70 70l172 172q-172 197 -172 479q0 204 93 369t258 258.5t370 93.5q283 0 477 -172l173 172l69 -69l-172 -172q172 -197 172 -480q0 -204 -93 -369t-257.5 -258.5t-368.5 -93.5q-282 0 -479 172zM389 289l883 885q-168 143 -408 143q-131 0 -245 -47t-195 -129
t-127.5 -197.5t-46.5 -247.5q0 -235 139 -407zM864 76q176 0 316.5 80t219.5 221.5t79 318.5q0 237 -140 406l-880 -883q168 -143 405 -143z" />
    <glyph glyph-name="uni2206" unicode="&#x2206;" horiz-adv-x="1216" 
d="M25 0l522 1393h123l522 -1393h-1167zM186 109h838l-418 1124z" />
    <glyph glyph-name="product" unicode="&#x220f;" horiz-adv-x="1607" 
d="M215 -375v1954h1178v-1954h-113v1852h-952v-1852h-113z" />
    <glyph glyph-name="summation" unicode="&#x2211;" horiz-adv-x="1239" 
d="M47 -375v109l686 868l-686 868v109h1147v-102h-1014l694 -875l-694 -874h1014v-103h-1147z" />
    <glyph glyph-name="minus" unicode="&#x2212;" 
d="M117 580v102h997v-102h-997z" />
    <glyph glyph-name="uni2215" unicode="&#x2215;" horiz-adv-x="798" 
d="M12 -25l660 1442h114l-661 -1442h-113z" />
    <glyph glyph-name="uni2219" unicode="&#x2219;" horiz-adv-x="524" 
d="M193 539v182h139v-182h-139z" />
    <glyph glyph-name="radical" unicode="&#x221a;" 
d="M524 -375l-243 725h-164v101h235l226 -660l563 1788h108l-616 -1954h-109z" />
    <glyph glyph-name="infinity" unicode="&#x221e;" horiz-adv-x="1904" 
d="M510 221q-173 0 -281 118.5t-108 309.5q0 194 108.5 314t286.5 120q68 0 127.5 -18.5t102.5 -47t83.5 -74t68 -87.5t58.5 -100q92 176 194 251.5t247 75.5q173 0 280 -118.5t107 -309.5q0 -194 -108 -314t-285 -120q-85 0 -154 25.5t-122 75.5t-89 101.5t-76 125.5
q-91 -177 -193.5 -252.5t-246.5 -75.5zM522 319q123 0 206.5 71t172.5 251q-25 48 -40 75.5t-40.5 68.5t-46 65t-50 53t-59 44t-67.5 25.5t-80 10.5q-130 0 -210.5 -94.5t-80.5 -241.5t81 -237.5t214 -90.5zM1389 322q130 0 209 93t79 242q0 145 -80.5 235.5t-212.5 90.5
q-124 0 -207.5 -70t-170.5 -249q28 -54 46.5 -87.5t47.5 -78.5t56.5 -72t63 -53.5t78 -38.5t91.5 -12z" />
    <glyph glyph-name="integral" unicode="&#x222b;" horiz-adv-x="608" 
d="M94 -397q-62 0 -121 22v103q58 -25 109 -25q88 0 128 58t40 188v1319q0 174 63.5 257t198.5 83q52 0 123 -21v-104q-62 24 -113 24q-88 0 -127 -57.5t-39 -187.5v-1319q0 -174 -63.5 -257t-198.5 -83z" />
    <glyph glyph-name="approxequal" unicode="&#x2248;" 
d="M842 688q-69 0 -126 24.5t-126 84.5q-60 53 -104.5 72.5t-98.5 19.5q-78 0 -123.5 -47t-52.5 -137h-92q7 136 78 210t194 74q69 0 125.5 -24t126.5 -84q63 -53 107 -73t96 -20q78 0 122.5 47t53.5 138h92q-8 -137 -78.5 -211t-193.5 -74zM842 233q-69 0 -126 24.5
t-126 84.5q-60 53 -104.5 72.5t-98.5 19.5q-78 0 -123.5 -47t-52.5 -137h-92q8 137 78.5 211t193.5 74q69 0 125 -24.5t127 -84.5q63 -52 106.5 -72t96.5 -20q158 0 176 184h92q-8 -137 -78.5 -211t-193.5 -74z" />
    <glyph glyph-name="notequal" unicode="&#x2260;" 
d="M1114 807h-317l-248 -352h565v-103h-637l-211 -299h-116l210 299h-243v103h315l248 352h-563v102h635l211 301h116l-211 -301h246v-102z" />
    <glyph glyph-name="lessequal" unicode="&#x2264;" 
d="M1114 238l-997 415v97l997 413v-108l-852 -355l852 -352v-110zM117 0v102h997v-102h-997z" />
    <glyph glyph-name="greaterequal" unicode="&#x2265;" 
d="M117 238v110l852 352l-852 355v108l997 -413v-97zM117 0v102h997v-102h-997z" />
    <glyph glyph-name="lozenge" unicode="&#x25ca;" 
d="M614 -66l-546 762l546 762l547 -762zM614 106l424 590l-424 590l-424 -590z" />
    <glyph glyph-name="uniF8FF" unicode="&#xf8ff;" horiz-adv-x="1329" 
d="M539 102q-207 0 -334 125.5t-127 333.5q0 207 132 334t380 127h102v238h322v-238h270v-305h-270v-105q0 -237 -130 -373.5t-345 -136.5zM545 420q69 0 108 46.5t39 141.5v109h-100q-92 0 -137 -42t-45 -114q0 -66 35.5 -103.5t99.5 -37.5z" />
    <glyph glyph-name="Iacute_J.loclNLD" horiz-adv-x="1644" 
d="M145 1544l222 260h147l-250 -260h-119zM1305 1544l221 260h147l-250 -260h-118zM203 0v1393h116v-1393h-116zM1016 -25q-234 0 -345.5 111t-111.5 344v29h113v-23q0 -186 81 -269t261 -83q187 0 268.5 91t81.5 298v920h117v-930q0 -251 -113 -369.5t-352 -118.5z" />
    <glyph glyph-name="iacute_j.loclNLD" horiz-adv-x="966" 
d="M125 1223l221 260h148l-250 -260h-119zM608 1223l221 260h148l-250 -260h-119zM184 0v1049h115v-1049h-115zM477 -373v101h45q86 0 116 36.5t30 139.5v1145h114v-1143q0 -148 -56 -213.5t-183 -65.5h-66z" />
    <glyph glyph-name="i.loclTRK" horiz-adv-x="483" 
d="M178 1266v170h127v-170h-127zM184 0v1049h115v-1049h-115z" />
    <glyph glyph-name="germandbls.calt" horiz-adv-x="1280" 
d="M166 0v975q0 214 113.5 316t351.5 102h483v-99l-385 -508q259 -1 374.5 -94.5t115.5 -300.5q0 -205 -108 -298t-343 -93h-242v109h232q183 0 262.5 64.5t79.5 215.5q0 156 -89 223.5t-298 67.5h-131v92l387 512h-330q-188 0 -272 -73.5t-84 -237.5v-973h-117z" />
    <glyph glyph-name="zero.pf" horiz-adv-x="1298" 
d="M649 -25q-230 0 -350.5 118t-120.5 341v524q0 223 120.5 341t350.5 118q228 0 348.5 -118t120.5 -341v-524q0 -223 -120.5 -341t-348.5 -118zM649 80q355 0 355 364v504q0 365 -355 365q-356 0 -356 -365v-504q0 -364 356 -364z" />
    <glyph glyph-name="one.pf" horiz-adv-x="854" 
d="M512 0v1239q-152 -107 -393 -123v101q249 15 397 176h111v-1393h-115z" />
    <glyph glyph-name="two.pf" horiz-adv-x="1171" 
d="M123 0v78q0 190 104 317.5t353 243.5q203 94 284.5 181.5t81.5 211.5q0 132 -87.5 206.5t-252.5 74.5q-170 0 -260 -81.5t-90 -238.5v-22h-111v35q0 197 121.5 304t343.5 107q217 0 333 -102.5t116 -280.5q0 -160 -95.5 -269.5t-326.5 -215.5q-219 -100 -309.5 -199
t-91.5 -241h823v-109h-936z" />
    <glyph glyph-name="three.pf" horiz-adv-x="1222" 
d="M614 -25q-233 0 -357 100.5t-124 286.5v37h113v-22q0 -297 368 -297q365 0 365 297q0 287 -356 287h-162v104h166q154 0 235.5 68t81.5 198q0 133 -87 206t-247 73q-165 0 -255.5 -77.5t-90.5 -217.5v-14h-110v22q0 182 123 286.5t339 104.5q207 0 324 -99t117 -276
q0 -245 -219 -317v-2q256 -73 256 -350q0 -196 -124 -297t-356 -101z" />
    <glyph glyph-name="four.pf" horiz-adv-x="1208" 
d="M850 0v332h-766v112l750 949h131v-957h178v-104h-178v-332h-115zM211 436h639v813z" />
    <glyph glyph-name="five.pf" horiz-adv-x="1185" 
d="M590 -25q-220 0 -345 97.5t-130 267.5h112q5 -122 100.5 -191t260.5 -69q186 0 284.5 91t98.5 269t-97 268.5t-266 90.5q-205 0 -346 -129h-100l45 723h815v-109h-713l-33 -496q142 115 351 115q218 0 338 -119.5t120 -341.5q0 -228 -129 -347.5t-366 -119.5z" />
    <glyph glyph-name="six.pf" horiz-adv-x="1286" 
d="M662 -25q-229 0 -352.5 119t-123.5 346v508q0 228 125 348.5t359 120.5q204 0 318.5 -91.5t125.5 -260.5h-113q-10 122 -94.5 185t-234.5 63q-371 0 -371 -375v-252q137 191 406 191q206 0 317 -113t111 -328q0 -222 -121 -341.5t-352 -119.5zM662 80q178 0 268 89.5
t90 262.5q0 168 -84.5 254t-247.5 86q-275 0 -387 -256v-70q0 -366 361 -366z" />
    <glyph glyph-name="seven.pf" horiz-adv-x="1097" 
d="M303 0q15 365 167 688.5t433 593.5h-854v111h987v-117q-581 -546 -610 -1276h-123z" />
    <glyph glyph-name="eight.pf" horiz-adv-x="1267" 
d="M635 -25q-247 0 -377.5 101.5t-130.5 292.5q0 137 70 227t204 127v4q-114 35 -172.5 114.5t-58.5 198.5q0 178 123 277.5t342 99.5q220 0 342.5 -99.5t122.5 -277.5q0 -119 -59.5 -198.5t-174.5 -114.5v-2q275 -78 275 -356q0 -191 -130 -292.5t-376 -101.5zM635 770
q172 0 262 68.5t90 199.5q0 132 -92 203.5t-260 71.5t-260 -71.5t-92 -203.5q0 -131 89.5 -199.5t262.5 -68.5zM635 80q193 0 292 75t99 218q0 145 -99 220t-292 75q-194 0 -293.5 -75t-99.5 -220q0 -143 99.5 -218t293.5 -75z" />
    <glyph glyph-name="nine.pf" horiz-adv-x="1286" 
d="M618 -25q-205 0 -320 92t-124 261h111q10 -122 95 -185t236 -63q183 0 276 94.5t93 280.5v252q-137 -191 -403 -191q-206 0 -318 112.5t-112 327.5q0 222 121 341.5t352 119.5q229 0 352 -119t123 -346v-508q0 -228 -124.5 -348.5t-357.5 -120.5zM598 621q275 0 387 256
v69q0 367 -360 367q-178 0 -268.5 -89.5t-90.5 -262.5q0 -168 84.5 -254t247.5 -86z" />
    <glyph glyph-name="zero.numr" horiz-adv-x="749" 
d="M375 561q-139 0 -213 72t-74 207v299q0 135 74 206.5t213 71.5t213 -71.5t74 -206.5v-299q0 -135 -74 -207t-213 -72zM375 651q186 0 186 195v289q0 192 -186 192q-187 0 -187 -192v-289q0 -195 187 -195z" />
    <glyph glyph-name="one.numr" horiz-adv-x="749" 
d="M182 586v90h193v592q-96 -55 -217 -58v80q75 5 128.5 29.5t94.5 73.5h94v-717h197v-90h-490z" />
    <glyph glyph-name="two.numr" horiz-adv-x="749" 
d="M92 586v59q0 114 60.5 190t205.5 142q109 50 154 96.5t45 110.5q0 67 -45 105t-129 38q-87 0 -133.5 -43t-46.5 -123v-12h-97v25q0 117 73 180t208 63q130 0 200 -61t70 -170q0 -94 -56.5 -159.5t-190.5 -127.5q-118 -54 -166 -103t-51 -118h464v-92h-565z" />
    <glyph glyph-name="three.numr" horiz-adv-x="749" 
d="M381 561q-142 0 -217.5 58.5t-75.5 168.5v25h96v-12q0 -74 50 -112t147 -38q190 0 190 154q0 149 -190 149h-96v90h96q170 0 170 140q0 70 -45 106.5t-129 36.5q-86 0 -133 -38.5t-47 -108.5v-9h-97v15q0 108 75 169.5t206 61.5q127 0 197.5 -59.5t70.5 -167.5
q0 -141 -121 -182v-2q144 -43 144 -205q0 -240 -291 -240z" />
    <glyph glyph-name="four.numr" horiz-adv-x="749" 
d="M500 586v180h-439v94l433 533h108v-537h105v-90h-105v-180h-102zM172 856h328v410z" />
    <glyph glyph-name="five.numr" horiz-adv-x="749" 
d="M373 561q-132 0 -208 58t-79 161h96q1 -60 52.5 -94.5t136.5 -34.5q98 0 150 47t52 138q0 87 -48 133.5t-140 46.5q-116 0 -188 -66h-82l24 443h494v-93h-412l-16 -258q83 64 203 64q126 0 196 -70.5t70 -197.5q0 -135 -78 -206t-223 -71z" />
    <glyph glyph-name="six.numr" horiz-adv-x="749" 
d="M387 561q-141 0 -217 71.5t-76 203.5v303q0 134 76.5 206t220.5 72q128 0 197 -56.5t74 -158.5h-97q-5 60 -50 92.5t-124 32.5q-196 0 -196 -197v-137q80 103 225 103q122 0 188 -68t66 -194q0 -134 -73 -203.5t-214 -69.5zM387 651q186 0 186 180q0 175 -172 175
q-145 0 -206 -132v-32q0 -92 49.5 -141.5t142.5 -49.5z" />
    <glyph glyph-name="seven.numr" horiz-adv-x="749" 
d="M219 586q18 420 346 714h-493v93h602v-99q-168 -150 -253.5 -324t-94.5 -384h-107z" />
    <glyph glyph-name="eight.numr" horiz-adv-x="749" 
d="M375 561q-152 0 -230.5 59.5t-78.5 176.5q0 159 149 209v4q-125 40 -125 182q0 107 74.5 166t210.5 59t209 -58.5t73 -166.5q0 -142 -122 -182v-4q149 -51 149 -211q0 -115 -78.5 -174.5t-230.5 -59.5zM375 1044q91 0 138.5 36.5t47.5 105.5t-47.5 106t-138.5 37
q-89 0 -138 -37t-49 -106t48 -105.5t139 -36.5zM375 649q102 0 154.5 39.5t52.5 114.5q0 153 -207 153q-209 0 -209 -153q0 -154 209 -154z" />
    <glyph glyph-name="nine.numr" horiz-adv-x="749" 
d="M358 561q-129 0 -198 57t-72 158h96q3 -60 48 -92.5t126 -32.5q195 0 195 197v135q-80 -100 -225 -100q-122 0 -188 68t-66 194q0 133 73 202.5t213 69.5q142 0 217.5 -71t75.5 -203v-303q0 -134 -75.5 -206.5t-219.5 -72.5zM348 973q144 0 205 131v33q0 93 -49 141.5
t-144 48.5q-92 0 -139 -46t-47 -134q0 -174 174 -174z" />
    <glyph glyph-name="zero.dnom" horiz-adv-x="749" 
d="M375 -25q-139 0 -213 72t-74 207v299q0 135 74 206.5t213 71.5t213 -71.5t74 -206.5v-299q0 -135 -74 -207t-213 -72zM375 66q186 0 186 194v289q0 192 -186 192q-187 0 -187 -192v-289q0 -194 187 -194z" />
    <glyph glyph-name="one.dnom" horiz-adv-x="749" 
d="M182 0v90h193v592q-94 -54 -217 -57v80q76 5 129 29t94 73h94v-717h197v-90h-490z" />
    <glyph glyph-name="two.dnom" horiz-adv-x="749" 
d="M92 0v59q0 114 60.5 190t205.5 142q109 50 154 96.5t45 110.5q0 67 -45 105t-129 38q-87 0 -133.5 -43t-46.5 -123v-12h-97v25q0 117 73 180t208 63q130 0 200 -61t70 -170q0 -94 -56.5 -159.5t-190.5 -127.5q-118 -54 -166 -103t-51 -118h464v-92h-565z" />
    <glyph glyph-name="three.dnom" horiz-adv-x="749" 
d="M381 -25q-142 0 -217.5 59t-75.5 169v24h96v-12q0 -149 197 -149q190 0 190 153q0 150 -190 150h-96v90h96q170 0 170 139q0 70 -45 106.5t-129 36.5q-86 0 -133 -38.5t-47 -108.5v-8h-97v14q0 108 75 169.5t206 61.5q127 0 197.5 -59.5t70.5 -167.5q0 -141 -121 -182v-2
q144 -43 144 -205q0 -240 -291 -240z" />
    <glyph glyph-name="four.dnom" horiz-adv-x="749" 
d="M500 0v180h-439v94l433 533h108v-537h105v-90h-105v-180h-102zM172 270h328v410z" />
    <glyph glyph-name="five.dnom" horiz-adv-x="749" 
d="M373 -25q-132 0 -208 58.5t-79 161.5h96q1 -60 52.5 -94.5t136.5 -34.5q99 0 150.5 47t51.5 137q0 87 -48 133.5t-140 46.5q-117 0 -188 -65h-82l24 442h494v-92h-412l-16 -258q81 63 203 63q126 0 196 -70.5t70 -197.5q0 -135 -78 -206t-223 -71z" />
    <glyph glyph-name="six.dnom" horiz-adv-x="749" 
d="M387 -25q-141 0 -217 71.5t-76 203.5v303q0 134 76.5 206t220.5 72q128 0 197 -56.5t74 -158.5h-97q-5 60 -50 92.5t-124 32.5q-196 0 -196 -196v-137q79 102 225 102q122 0 188 -68t66 -194q0 -134 -73 -203.5t-214 -69.5zM387 66q186 0 186 180q0 174 -172 174
q-145 0 -206 -131v-33q0 -92 49 -141t143 -49z" />
    <glyph glyph-name="seven.dnom" horiz-adv-x="749" 
d="M219 0q18 421 346 715h-493v92h602v-98q-168 -150 -253.5 -324.5t-94.5 -384.5h-107z" />
    <glyph glyph-name="eight.dnom" horiz-adv-x="749" 
d="M375 -25q-152 0 -230.5 59.5t-78.5 176.5q0 159 149 209v4q-125 40 -125 182q0 107 74.5 166t210.5 59t209 -58.5t73 -166.5q0 -142 -122 -182v-4q149 -51 149 -211q0 -115 -78.5 -174.5t-230.5 -59.5zM375 459q91 0 138.5 36t47.5 105t-47.5 106t-138.5 37
q-89 0 -138 -37t-49 -106t48 -105t139 -36zM375 63q102 0 154.5 39.5t52.5 114.5t-52.5 114.5t-154.5 39.5q-209 0 -209 -154t209 -154z" />
    <glyph glyph-name="nine.dnom" horiz-adv-x="749" 
d="M358 -25q-129 0 -198 57t-72 158h96q3 -60 47.5 -92t126.5 -32q195 0 195 196v135q-80 -100 -225 -100q-122 0 -188 68t-66 194q0 133 73 202.5t213 69.5q142 0 217.5 -71t75.5 -203v-303q0 -134 -75.5 -206.5t-219.5 -72.5zM348 387q144 0 205 131v33q0 93 -49 141.5
t-144 48.5q-92 0 -139 -46t-47 -134q0 -174 174 -174z" />
    <glyph glyph-name="exclamdown.case" horiz-adv-x="559" 
d="M209 1210v183h139v-183h-139zM219 0l2 328l17 647h81l17 -647l2 -328h-119z" />
    <glyph glyph-name="questiondown.case" horiz-adv-x="866" 
d="M401 1210v183h140v-183h-140zM438 -25q-183 0 -284 92.5t-101 258.5q0 106 44 177.5t151 137.5q97 60 135.5 122t38.5 159v53h98v-55q0 -118 -44.5 -197t-147.5 -145q-91 -59 -126.5 -114t-35.5 -138q0 -120 71 -184t203 -64q137 0 210 72t73 208h111q0 -183 -103.5 -283
t-292.5 -100z" />
    <glyph glyph-name="at.case" horiz-adv-x="1556" 
d="M842 -37q-229 0 -402 90t-266.5 255.5t-93.5 383.5q0 216 91.5 384t259 261t384.5 93q315 0 505.5 -185.5t190.5 -484.5q0 -200 -86 -316t-233 -116q-159 0 -195 147q-93 -147 -262 -147q-121 0 -187.5 74t-66.5 208v160q0 134 66.5 207.5t187.5 73.5q164 0 258 -138
l6 113h93v-455q0 -145 112 -145q92 0 145.5 86t53.5 240q0 264 -158 420.5t-428 156.5q-285 0 -454.5 -174t-169.5 -459q0 -290 176 -461.5t473 -171.5q231 0 393 107l41 -92q-168 -115 -434 -115zM756 426q139 0 223 160v209q-84 159 -225 159q-160 0 -160 -194v-144
q0 -94 41 -142t121 -48z" />
    <glyph glyph-name="parenleft.case" horiz-adv-x="669" 
d="M627 -197q-226 85 -350.5 318t-124.5 575t124.5 575t350.5 318v-94q-177 -86 -271 -292.5t-94 -506.5t94 -506t271 -292v-95z" />
    <glyph glyph-name="parenright.case" horiz-adv-x="669" 
d="M43 -197v95q177 86 271 292t94 506t-94 506.5t-271 292.5v94q226 -85 350.5 -318t124.5 -575t-124.5 -575t-350.5 -318z" />
    <glyph glyph-name="braceleft.case" horiz-adv-x="669" 
d="M530 -172q-147 0 -215.5 77.5t-68.5 246.5v340q0 92 -37 125.5t-137 33.5v90q100 0 137 34t37 126v340q0 169 68.5 246.5t215.5 77.5h97v-90h-80q-101 0 -146 -53.5t-45 -176.5v-332q0 -186 -123 -215v-4q64 -17 93.5 -69.5t29.5 -145.5v-332q0 -123 44.5 -176t146.5 -53
h80v-90h-97z" />
    <glyph glyph-name="braceright.case" horiz-adv-x="669" 
d="M43 -172v90h78q102 0 147 53.5t45 175.5v332q0 182 121 215v4q-121 29 -121 215v332q0 123 -45 176.5t-147 53.5h-78v90h94q147 0 216 -77.5t69 -246.5v-340q0 -92 38 -126t138 -34v-90q-100 0 -138 -33.5t-38 -125.5v-340q0 -169 -69 -246.5t-216 -77.5h-94z" />
    <glyph glyph-name="bracketleft.case" horiz-adv-x="669" 
d="M203 -172v1737h424v-90h-314v-1557h314v-90h-424z" />
    <glyph glyph-name="bracketright.case" horiz-adv-x="669" 
d="M43 -172v90h315v1557h-315v90h426v-1737h-426z" />
    <glyph glyph-name="bar.case" horiz-adv-x="571" 
d="M233 -328v2048h107v-2048h-107z" />
    <glyph glyph-name="brokenbar.case" horiz-adv-x="571" 
d="M233 901v819h107v-819h-107zM233 -328v820h107v-820h-107z" />
    <glyph glyph-name="periodcentered.case" horiz-adv-x="524" 
d="M193 604v182h139v-182h-139z" />
    <glyph glyph-name="bullet.case" horiz-adv-x="1024" 
d="M317 498v397h388v-397h-388z" />
    <glyph glyph-name="hyphen.case" horiz-adv-x="741" 
d="M72 641v111h600v-111h-600z" />
    <glyph glyph-name="uni00AD.case" horiz-adv-x="741" 
d="M72 641v111h600v-111h-600z" />
    <glyph glyph-name="figuredash.case" 
d="M61 647v98h1108v-98h-1108z" />
    <glyph glyph-name="endash.case" horiz-adv-x="1024" 
d="M61 647v98h902v-98h-902z" />
    <glyph glyph-name="emdash.case" horiz-adv-x="1843" 
d="M61 647v98h1721v-98h-1721z" />
    <glyph glyph-name="guillemotleft.case" horiz-adv-x="929" 
d="M350 340l-297 356l297 357h129l-297 -357l297 -356h-129zM750 340l-297 356l297 357h129l-297 -357l297 -356h-129z" />
    <glyph glyph-name="guillemotright.case" horiz-adv-x="929" 
d="M53 340l297 356l-297 357h129l297 -357l-297 -356h-129zM453 340l297 356l-297 357h129l297 -357l-297 -356h-129z" />
    <glyph glyph-name="guilsinglleft.case" horiz-adv-x="530" 
d="M350 340l-297 356l297 357h129l-297 -357l297 -356h-129z" />
    <glyph glyph-name="guilsinglright.case" horiz-adv-x="530" 
d="M53 340l297 356l-297 357h129l297 -357l-297 -356h-129z" />
    <glyph glyph-name="caron.alt" horiz-adv-x="262" 
d="M41 1096l84 399h125l-121 -399h-88z" />
    <glyph glyph-name="ringacute" horiz-adv-x="1024" 
d="M395 1606l221 260h148l-250 -260h-119zM512 1161q-82 0 -135 52.5t-53 132.5t53 132t135 52t135 -52t53 -132t-53 -132.5t-135 -52.5zM512 1243q43 0 70.5 28.5t27.5 74.5q0 45 -27.5 73.5t-70.5 28.5q-44 0 -72 -28t-28 -74t28 -74.5t72 -28.5z" />
    <glyph glyph-name="NULL" horiz-adv-x="0" 
 />
    </font>
</defs>
</svg>
