<svg width="874" height="911" viewBox="0 0 874 911" fill="none" xmlns="http://www.w3.org/2000/svg">
<g filter="url(#filter0_f_224_1379)">
<rect opacity="0.5" width="317.46" height="151.712" rx="75.8561" transform="matrix(-0.981939 -0.189196 -0.189196 0.981939 668.436 231.469)" fill="#2CD095" fill-opacity="0.3"/>
<rect opacity="0.5" width="320.801" height="221.553" rx="110.777" transform="matrix(-0.981939 -0.189196 -0.189196 0.981939 759.317 210.184)" fill="#3861FB" fill-opacity="0.5"/>
</g>
<path fill-rule="evenodd" clip-rule="evenodd" d="M153.633 698.487C312.633 753.498 484.4 674.181 537.286 521.327C590.171 368.473 504.148 199.964 345.148 144.952C186.149 89.9405 14.3815 169.258 -38.504 322.112C-91.3894 474.966 -5.36659 643.475 153.633 698.487ZM552.848 526.711C497.104 687.828 316.052 771.432 148.457 713.447C-19.1373 655.462 -109.81 477.844 -54.0658 316.728C1.67826 155.611 182.73 72.0065 350.325 129.992C517.919 187.977 608.592 365.595 552.848 526.711ZM162.436 673.057C214.144 690.948 269.791 693.696 322.339 680.954C374.888 668.212 421.978 640.553 457.656 601.474C493.333 562.395 515.995 513.651 522.775 461.407C529.556 409.162 520.151 355.764 495.749 307.964C471.347 260.164 433.045 220.109 385.686 192.865C338.327 165.62 284.038 152.41 229.685 154.905C175.331 157.399 123.354 175.487 80.3267 206.879C37.2991 238.271 5.15348 281.559 -12.0452 331.269C-35.0208 397.931 -29.5539 471.353 3.15633 535.429C35.8665 599.504 93.1487 649 162.436 673.057ZM328.071 194.325C374.854 210.512 415.973 239.671 446.226 278.116C476.48 316.562 494.511 362.566 498.038 410.312C501.565 458.058 490.43 505.4 466.041 546.353C441.652 587.306 405.105 620.03 361.021 640.387C316.937 660.744 267.297 667.819 218.377 660.718C169.456 653.616 123.454 632.658 86.1867 600.492C48.9193 568.327 22.0609 526.399 9.00775 480.011C-4.04538 433.623 -2.70697 384.858 12.8538 339.883C33.7822 279.618 78.7239 230.447 137.819 203.159C196.913 175.871 265.335 172.694 328.071 194.325ZM468.46 387.479L194.786 614.415C193.015 615.704 190.933 616.542 188.724 616.856C186.515 617.169 184.247 616.948 182.12 616.213C179.994 615.477 178.074 614.249 176.531 612.637C174.988 611.026 173.869 609.08 173.273 606.972L98.3611 259.43C97.8983 257.234 98.0364 254.974 98.7615 252.875C99.4866 250.775 100.773 248.911 102.492 247.47C104.211 246.028 106.302 245.059 108.555 244.661C110.808 244.262 113.144 244.448 115.329 245.199L463.915 365.805C466.097 366.564 468.048 367.862 469.573 369.568C471.098 371.274 472.143 373.328 472.604 375.523C473.064 377.719 472.924 379.979 472.196 382.078C471.469 384.176 470.181 386.039 468.46 387.479ZM207.925 371.043L231.414 473.74L313.347 407.517L207.925 371.043ZM345.63 414.935L234.671 504.617L213.871 564.734L411.273 401.115L345.63 414.935ZM197.781 340.731L340.054 389.956L412.234 374.726L150.446 284.151L197.781 340.731ZM209.772 496.003L177.96 356.923L134.894 305.492L188.972 556.119L209.772 496.003Z" fill="url(#paint0_linear_224_1379)" fill-opacity="0.4"/>
<g filter="url(#filter1_f_224_1379)">
<rect x="-189" y="222" width="553" height="467.469" rx="197.589" fill="url(#paint1_linear_224_1379)" fill-opacity="0.2"/>
</g>
<defs>
<filter id="filter0_f_224_1379" x="207.479" y="34.932" width="666.395" height="507.362" filterUnits="userSpaceOnUse" color-interpolation-filters="sRGB">
<feFlood flood-opacity="0" result="BackgroundImageFix"/>
<feBlend mode="normal" in="SourceGraphic" in2="BackgroundImageFix" result="shape"/>
<feGaussianBlur stdDeviation="66.7475" result="effect1_foregroundBlur_224_1379"/>
</filter>
<filter id="filter1_f_224_1379" x="-410.2" y="0.800018" width="995.4" height="909.869" filterUnits="userSpaceOnUse" color-interpolation-filters="sRGB">
<feFlood flood-opacity="0" result="BackgroundImageFix"/>
<feBlend mode="normal" in="SourceGraphic" in2="BackgroundImageFix" result="shape"/>
<feGaussianBlur stdDeviation="110.6" result="effect1_foregroundBlur_224_1379"/>
</filter>
<linearGradient id="paint0_linear_224_1379" x1="572.161" y1="262.662" x2="187.081" y2="430.814" gradientUnits="userSpaceOnUse">
<stop stop-color="#59174E" stop-opacity="0.2"/>
<stop offset="1" stop-color="#683E5F" stop-opacity="0.7"/>
</linearGradient>
<linearGradient id="paint1_linear_224_1379" x1="265.049" y1="222" x2="265.049" y2="845.292" gradientUnits="userSpaceOnUse">
<stop offset="0.204986" stop-color="#FF0DD3"/>
<stop offset="0.949981" stop-color="#FF00D1" stop-opacity="0"/>
</linearGradient>
</defs>
</svg>
