<svg width="567" height="112" viewBox="0 0 567 112" fill="none" xmlns="http://www.w3.org/2000/svg">
<circle cx="35.7" cy="66.3" r="35.7" fill="white"/>
<circle cx="81.5998" cy="20.4" r="15.3" fill="white"/>
<mask id="path-3-outside-1_1621_824" maskUnits="userSpaceOnUse" x="112.1" y="18" width="458" height="96" fill="black">
<rect fill="white" x="112.1" y="18" width="458" height="96"/>
<path d="M174.524 21.436H183.092V91H175.544V35.41L152.288 91H145.148L122.912 35.614V91H115.262V21.436H124.646L149.024 82.432L174.524 21.436ZM227.686 92.632C223.13 92.632 219.05 91.544 215.446 89.368C211.842 87.192 209.02 84.166 206.98 80.29C204.94 76.346 203.92 71.926 203.92 67.03C203.92 62.134 204.906 57.782 206.878 53.974C208.918 50.098 211.706 47.072 215.242 44.896C218.846 42.72 222.926 41.632 227.482 41.632C232.038 41.632 236.118 42.72 239.722 44.896C243.326 47.072 246.148 50.098 248.188 53.974C250.228 57.85 251.248 62.236 251.248 67.132C251.248 72.028 250.228 76.414 248.188 80.29C246.216 84.166 243.428 87.192 239.824 89.368C236.288 91.544 232.242 92.632 227.686 92.632ZM227.482 86.308C230.746 86.308 233.636 85.492 236.152 83.86C238.736 82.228 240.742 79.95 242.17 77.026C243.598 74.102 244.312 70.804 244.312 67.132C244.312 63.46 243.598 60.162 242.17 57.238C240.742 54.314 238.736 52.036 236.152 50.404C233.636 48.772 230.746 47.956 227.482 47.956C224.286 47.956 221.43 48.772 218.914 50.404C216.398 52.036 214.426 54.314 212.998 57.238C211.57 60.094 210.856 63.358 210.856 67.03C210.856 70.77 211.57 74.102 212.998 77.026C214.426 79.95 216.398 82.228 218.914 83.86C221.43 85.492 224.286 86.308 227.482 86.308ZM291.053 92.632C286.497 92.632 282.417 91.544 278.813 89.368C275.209 87.192 272.387 84.166 270.347 80.29C268.307 76.346 267.287 71.926 267.287 67.03C267.287 62.134 268.273 57.782 270.245 53.974C272.285 50.098 275.073 47.072 278.609 44.896C282.213 42.72 286.293 41.632 290.849 41.632C295.405 41.632 299.485 42.72 303.089 44.896C306.693 47.072 309.515 50.098 311.555 53.974C313.595 57.85 314.615 62.236 314.615 67.132C314.615 72.028 313.595 76.414 311.555 80.29C309.583 84.166 306.795 87.192 303.191 89.368C299.655 91.544 295.609 92.632 291.053 92.632ZM290.849 86.308C294.113 86.308 297.003 85.492 299.519 83.86C302.103 82.228 304.109 79.95 305.537 77.026C306.965 74.102 307.679 70.804 307.679 67.132C307.679 63.46 306.965 60.162 305.537 57.238C304.109 54.314 302.103 52.036 299.519 50.404C297.003 48.772 294.113 47.956 290.849 47.956C287.653 47.956 284.797 48.772 282.281 50.404C279.765 52.036 277.793 54.314 276.365 57.238C274.937 60.094 274.223 63.358 274.223 67.03C274.223 70.77 274.937 74.102 276.365 77.026C277.793 79.95 279.765 82.228 282.281 83.86C284.797 85.492 287.653 86.308 290.849 86.308ZM356.359 41.632C359.691 41.632 362.751 42.312 365.539 43.672C368.395 45.032 370.639 47.038 372.271 49.69C373.971 52.342 374.821 55.47 374.821 59.074V91H367.885V62.134C367.885 52.682 363.669 47.956 355.237 47.956C350.341 47.956 346.669 49.69 344.221 53.158C341.773 56.626 340.549 61.284 340.549 67.132V91H333.613V43.264H340.549V51.22C342.181 48.16 344.323 45.814 346.975 44.182C349.695 42.482 352.823 41.632 356.359 41.632ZM399.312 21.436H422.568C428.824 21.436 433.822 23.34 437.562 27.148C441.302 30.956 443.172 36.226 443.172 42.958C443.172 49.622 441.2 54.858 437.256 58.666C433.38 62.474 428.212 64.378 421.752 64.378H406.962V91H399.312V21.436ZM421.548 58.054C426.104 58.054 429.572 56.796 431.952 54.28C434.332 51.696 435.522 47.922 435.522 42.958C435.522 37.994 434.332 34.22 431.952 31.636C429.572 29.052 426.104 27.76 421.548 27.76H406.962V58.054H421.548ZM504.718 43.264V91H497.782V83.962C495.81 86.682 493.396 88.824 490.54 90.388C487.684 91.884 484.556 92.632 481.156 92.632C476.6 92.632 472.52 91.544 468.916 89.368C465.312 87.192 462.49 84.166 460.45 80.29C458.41 76.414 457.39 71.994 457.39 67.03C457.39 62.134 458.376 57.782 460.348 53.974C462.388 50.098 465.176 47.072 468.712 44.896C472.316 42.72 476.396 41.632 480.952 41.632C484.42 41.632 487.582 42.414 490.438 43.978C493.362 45.474 495.81 47.616 497.782 50.404V43.264H504.718ZM480.952 86.308C484.216 86.308 487.106 85.492 489.622 83.86C492.206 82.228 494.212 79.95 495.64 77.026C497.068 74.102 497.782 70.804 497.782 67.132C497.782 63.46 497.068 60.162 495.64 57.238C494.212 54.314 492.206 52.036 489.622 50.404C487.106 48.772 484.216 47.956 480.952 47.956C477.756 47.956 474.9 48.772 472.384 50.404C469.868 52.036 467.896 54.314 466.468 57.238C465.04 60.094 464.326 63.358 464.326 67.03C464.326 70.77 465.04 74.102 466.468 77.026C467.896 79.95 469.868 82.228 472.384 83.86C474.9 85.492 477.756 86.308 480.952 86.308ZM559.547 43.264H566.075L540.269 111.4H533.333L540.881 91.918L521.297 43.264H528.539L544.349 82.84L559.547 43.264Z"/>
</mask>
<path d="M174.524 21.436H183.092V91H175.544V35.41L152.288 91H145.148L122.912 35.614V91H115.262V21.436H124.646L149.024 82.432L174.524 21.436ZM227.686 92.632C223.13 92.632 219.05 91.544 215.446 89.368C211.842 87.192 209.02 84.166 206.98 80.29C204.94 76.346 203.92 71.926 203.92 67.03C203.92 62.134 204.906 57.782 206.878 53.974C208.918 50.098 211.706 47.072 215.242 44.896C218.846 42.72 222.926 41.632 227.482 41.632C232.038 41.632 236.118 42.72 239.722 44.896C243.326 47.072 246.148 50.098 248.188 53.974C250.228 57.85 251.248 62.236 251.248 67.132C251.248 72.028 250.228 76.414 248.188 80.29C246.216 84.166 243.428 87.192 239.824 89.368C236.288 91.544 232.242 92.632 227.686 92.632ZM227.482 86.308C230.746 86.308 233.636 85.492 236.152 83.86C238.736 82.228 240.742 79.95 242.17 77.026C243.598 74.102 244.312 70.804 244.312 67.132C244.312 63.46 243.598 60.162 242.17 57.238C240.742 54.314 238.736 52.036 236.152 50.404C233.636 48.772 230.746 47.956 227.482 47.956C224.286 47.956 221.43 48.772 218.914 50.404C216.398 52.036 214.426 54.314 212.998 57.238C211.57 60.094 210.856 63.358 210.856 67.03C210.856 70.77 211.57 74.102 212.998 77.026C214.426 79.95 216.398 82.228 218.914 83.86C221.43 85.492 224.286 86.308 227.482 86.308ZM291.053 92.632C286.497 92.632 282.417 91.544 278.813 89.368C275.209 87.192 272.387 84.166 270.347 80.29C268.307 76.346 267.287 71.926 267.287 67.03C267.287 62.134 268.273 57.782 270.245 53.974C272.285 50.098 275.073 47.072 278.609 44.896C282.213 42.72 286.293 41.632 290.849 41.632C295.405 41.632 299.485 42.72 303.089 44.896C306.693 47.072 309.515 50.098 311.555 53.974C313.595 57.85 314.615 62.236 314.615 67.132C314.615 72.028 313.595 76.414 311.555 80.29C309.583 84.166 306.795 87.192 303.191 89.368C299.655 91.544 295.609 92.632 291.053 92.632ZM290.849 86.308C294.113 86.308 297.003 85.492 299.519 83.86C302.103 82.228 304.109 79.95 305.537 77.026C306.965 74.102 307.679 70.804 307.679 67.132C307.679 63.46 306.965 60.162 305.537 57.238C304.109 54.314 302.103 52.036 299.519 50.404C297.003 48.772 294.113 47.956 290.849 47.956C287.653 47.956 284.797 48.772 282.281 50.404C279.765 52.036 277.793 54.314 276.365 57.238C274.937 60.094 274.223 63.358 274.223 67.03C274.223 70.77 274.937 74.102 276.365 77.026C277.793 79.95 279.765 82.228 282.281 83.86C284.797 85.492 287.653 86.308 290.849 86.308ZM356.359 41.632C359.691 41.632 362.751 42.312 365.539 43.672C368.395 45.032 370.639 47.038 372.271 49.69C373.971 52.342 374.821 55.47 374.821 59.074V91H367.885V62.134C367.885 52.682 363.669 47.956 355.237 47.956C350.341 47.956 346.669 49.69 344.221 53.158C341.773 56.626 340.549 61.284 340.549 67.132V91H333.613V43.264H340.549V51.22C342.181 48.16 344.323 45.814 346.975 44.182C349.695 42.482 352.823 41.632 356.359 41.632ZM399.312 21.436H422.568C428.824 21.436 433.822 23.34 437.562 27.148C441.302 30.956 443.172 36.226 443.172 42.958C443.172 49.622 441.2 54.858 437.256 58.666C433.38 62.474 428.212 64.378 421.752 64.378H406.962V91H399.312V21.436ZM421.548 58.054C426.104 58.054 429.572 56.796 431.952 54.28C434.332 51.696 435.522 47.922 435.522 42.958C435.522 37.994 434.332 34.22 431.952 31.636C429.572 29.052 426.104 27.76 421.548 27.76H406.962V58.054H421.548ZM504.718 43.264V91H497.782V83.962C495.81 86.682 493.396 88.824 490.54 90.388C487.684 91.884 484.556 92.632 481.156 92.632C476.6 92.632 472.52 91.544 468.916 89.368C465.312 87.192 462.49 84.166 460.45 80.29C458.41 76.414 457.39 71.994 457.39 67.03C457.39 62.134 458.376 57.782 460.348 53.974C462.388 50.098 465.176 47.072 468.712 44.896C472.316 42.72 476.396 41.632 480.952 41.632C484.42 41.632 487.582 42.414 490.438 43.978C493.362 45.474 495.81 47.616 497.782 50.404V43.264H504.718ZM480.952 86.308C484.216 86.308 487.106 85.492 489.622 83.86C492.206 82.228 494.212 79.95 495.64 77.026C497.068 74.102 497.782 70.804 497.782 67.132C497.782 63.46 497.068 60.162 495.64 57.238C494.212 54.314 492.206 52.036 489.622 50.404C487.106 48.772 484.216 47.956 480.952 47.956C477.756 47.956 474.9 48.772 472.384 50.404C469.868 52.036 467.896 54.314 466.468 57.238C465.04 60.094 464.326 63.358 464.326 67.03C464.326 70.77 465.04 74.102 466.468 77.026C467.896 79.95 469.868 82.228 472.384 83.86C474.9 85.492 477.756 86.308 480.952 86.308ZM559.547 43.264H566.075L540.269 111.4H533.333L540.881 91.918L521.297 43.264H528.539L544.349 82.84L559.547 43.264Z" fill="white"/>
<path d="M174.524 21.436V18.886H172.826L172.171 20.4524L174.524 21.436ZM183.092 21.436H185.642V18.886H183.092V21.436ZM183.092 91V93.55H185.642V91H183.092ZM175.544 91H172.994V93.55H175.544V91ZM175.544 35.41H178.094L173.191 34.4259L175.544 35.41ZM152.288 91V93.55H153.985L154.64 91.9841L152.288 91ZM145.148 91L142.781 91.9501L143.424 93.55H145.148V91ZM122.912 35.614L125.278 34.6639L120.362 35.614H122.912ZM122.912 91V93.55H125.462V91H122.912ZM115.262 91H112.712V93.55H115.262V91ZM115.262 21.436V18.886H112.712V21.436H115.262ZM124.646 21.436L127.013 20.4896L126.373 18.886H124.646V21.436ZM149.024 82.432L146.656 83.3784L148.97 89.1702L151.376 83.4156L149.024 82.432ZM174.524 23.986H183.092V18.886H174.524V23.986ZM180.542 21.436V91H185.642V21.436H180.542ZM183.092 88.45H175.544V93.55H183.092V88.45ZM178.094 91V35.41H172.994V91H178.094ZM173.191 34.4259L149.935 90.0159L154.64 91.9841L177.896 36.3941L173.191 34.4259ZM152.288 88.45H145.148V93.55H152.288V88.45ZM147.514 90.0499L125.278 34.6639L120.545 36.564L142.781 91.9501L147.514 90.0499ZM120.362 35.614V91H125.462V35.614H120.362ZM122.912 88.45H115.262V93.55H122.912V88.45ZM117.812 91V21.436H112.712V91H117.812ZM115.262 23.986H124.646V18.886H115.262V23.986ZM122.278 22.3824L146.656 83.3784L151.391 81.4856L127.013 20.4896L122.278 22.3824ZM151.376 83.4156L176.876 22.4196L172.171 20.4524L146.671 81.4484L151.376 83.4156ZM215.446 89.368L214.128 91.551L215.446 89.368ZM206.98 80.29L204.715 81.4615L204.719 81.4696L204.723 81.4777L206.98 80.29ZM206.878 53.974L204.621 52.7863L204.617 52.7938L204.613 52.8014L206.878 53.974ZM215.242 44.896L213.924 42.713L213.914 42.7186L213.905 42.7243L215.242 44.896ZM248.188 53.974L245.931 55.1617L248.188 53.974ZM248.188 80.29L245.931 79.1023L245.923 79.118L245.915 79.1337L248.188 80.29ZM239.824 89.368L238.505 87.185L238.496 87.1906L238.487 87.1963L239.824 89.368ZM236.152 83.86L234.79 81.704L234.777 81.7122L234.764 81.7206L236.152 83.86ZM242.17 77.026L239.878 75.907L242.17 77.026ZM242.17 57.238L244.461 56.119V56.119L242.17 57.238ZM236.152 50.404L234.764 52.5433L234.777 52.5518L234.79 52.56L236.152 50.404ZM218.914 50.404L217.526 48.2646L218.914 50.404ZM212.998 57.238L215.278 58.3784L215.284 58.3677L215.289 58.357L212.998 57.238ZM212.998 77.026L210.706 78.145L212.998 77.026ZM218.914 83.86L217.526 85.9994L218.914 83.86ZM227.686 90.082C223.555 90.082 219.937 89.1013 216.764 87.185L214.128 91.551C218.162 93.9867 222.705 95.182 227.686 95.182V90.082ZM216.764 87.185C213.574 85.2591 211.069 82.5847 209.236 79.1023L204.723 81.4777C206.97 85.7473 210.109 89.1249 214.128 91.551L216.764 87.185ZM209.244 79.1185C207.41 75.5726 206.47 71.5609 206.47 67.03H201.37C201.37 72.2911 202.469 77.1194 204.715 81.4615L209.244 79.1185ZM206.47 67.03C206.47 62.4838 207.383 58.5438 209.142 55.1466L204.613 52.8014C202.428 57.0202 201.37 61.7842 201.37 67.03H206.47ZM209.134 55.1617C210.973 51.6671 213.453 48.9908 216.578 47.0677L213.905 42.7243C209.958 45.1532 206.862 48.5289 204.621 52.7863L209.134 55.1617ZM216.56 47.079C219.733 45.1627 223.351 44.182 227.482 44.182V39.082C222.501 39.082 217.958 40.2773 213.924 42.713L216.56 47.079ZM227.482 44.182C231.613 44.182 235.23 45.1627 238.404 47.079L241.04 42.713C237.005 40.2773 232.463 39.082 227.482 39.082V44.182ZM238.404 47.079C241.593 49.0049 244.098 51.6793 245.931 55.1617L250.444 52.7863C248.197 48.5167 245.058 45.1391 241.04 42.713L238.404 47.079ZM245.931 55.1617C247.756 58.63 248.698 62.6004 248.698 67.132H253.798C253.798 61.8716 252.699 57.07 250.444 52.7863L245.931 55.1617ZM248.698 67.132C248.698 71.6636 247.756 75.634 245.931 79.1023L250.444 81.4777C252.699 77.194 253.798 72.3924 253.798 67.132H248.698ZM245.915 79.1337C244.151 82.5997 241.688 85.2637 238.505 87.185L241.142 91.551C245.167 89.1203 248.28 85.7323 250.46 81.4463L245.915 79.1337ZM238.487 87.1963C235.392 89.1012 231.817 90.082 227.686 90.082V95.182C232.666 95.182 237.183 93.9868 241.16 91.5397L238.487 87.1963ZM227.482 88.858C231.193 88.858 234.574 87.923 237.539 85.9994L234.764 81.7206C232.697 83.061 230.298 83.758 227.482 83.758V88.858ZM237.513 86.016C240.523 84.1148 242.839 81.4655 244.461 78.145L239.878 75.907C238.644 78.4345 236.948 80.3412 234.79 81.704L237.513 86.016ZM244.461 78.145C246.08 74.8301 246.862 71.1417 246.862 67.132H241.762C241.762 70.4663 241.115 73.3739 239.878 75.907L244.461 78.145ZM246.862 67.132C246.862 63.1223 246.08 59.4339 244.461 56.119L239.878 58.357C241.115 60.8901 241.762 63.7977 241.762 67.132H246.862ZM244.461 56.119C242.839 52.7985 240.523 50.1492 237.513 48.248L234.79 52.56C236.948 53.9228 238.644 55.8295 239.878 58.357L244.461 56.119ZM237.539 48.2646C234.574 46.341 231.193 45.406 227.482 45.406V50.506C230.298 50.506 232.697 51.203 234.764 52.5433L237.539 48.2646ZM227.482 45.406C223.827 45.406 220.483 46.3468 217.526 48.2646L220.301 52.5433C222.376 51.1972 224.744 50.506 227.482 50.506V45.406ZM217.526 48.2646C214.589 50.1697 212.319 52.8158 210.706 56.119L215.289 58.357C216.532 55.8122 218.206 53.9023 220.301 52.5433L217.526 48.2646ZM210.717 56.0976C209.087 59.3573 208.306 63.0217 208.306 67.03H213.406C213.406 63.6943 214.052 60.8307 215.278 58.3784L210.717 56.0976ZM208.306 67.03C208.306 71.0998 209.084 74.8239 210.706 78.145L215.289 75.907C214.055 73.3801 213.406 70.4402 213.406 67.03H208.306ZM210.706 78.145C212.319 81.4482 214.589 84.0943 217.526 85.9994L220.301 81.7206C218.206 80.3617 216.532 78.4518 215.289 75.907L210.706 78.145ZM217.526 85.9994C220.483 87.9172 223.827 88.858 227.482 88.858V83.758C224.744 83.758 222.376 83.0668 220.301 81.7206L217.526 85.9994ZM278.813 89.368L277.495 91.551L278.813 89.368ZM270.347 80.29L268.082 81.4615L268.086 81.4696L268.09 81.4777L270.347 80.29ZM270.245 53.974L267.988 52.7863L267.985 52.7938L267.981 52.8014L270.245 53.974ZM278.609 44.896L277.291 42.713L277.282 42.7186L277.273 42.7243L278.609 44.896ZM311.555 53.974L309.298 55.1617L311.555 53.974ZM311.555 80.29L309.298 79.1023L309.29 79.118L309.282 79.1337L311.555 80.29ZM303.191 89.368L301.873 87.185L301.864 87.1906L301.855 87.1963L303.191 89.368ZM299.519 83.86L298.157 81.704L298.144 81.7122L298.131 81.7206L299.519 83.86ZM305.537 77.026L303.246 75.907L305.537 77.026ZM305.537 57.238L307.828 56.119V56.119L305.537 57.238ZM299.519 50.404L298.131 52.5433L298.144 52.5518L298.157 52.56L299.519 50.404ZM282.281 50.404L280.893 48.2646L282.281 50.404ZM276.365 57.238L278.646 58.3784L278.651 58.3677L278.656 58.357L276.365 57.238ZM276.365 77.026L274.074 78.145L276.365 77.026ZM282.281 83.86L280.893 85.9994L282.281 83.86ZM291.053 90.082C286.922 90.082 283.305 89.1013 280.131 87.185L277.495 91.551C281.529 93.9867 286.072 95.182 291.053 95.182V90.082ZM280.131 87.185C276.941 85.2591 274.436 82.5847 272.604 79.1023L268.09 81.4777C270.338 85.7473 273.477 89.1249 277.495 91.551L280.131 87.185ZM272.612 79.1185C270.778 75.5726 269.837 71.5609 269.837 67.03H264.737C264.737 72.2911 265.836 77.1194 268.082 81.4615L272.612 79.1185ZM269.837 67.03C269.837 62.4838 270.75 58.5438 272.509 55.1466L267.981 52.8014C265.796 57.0202 264.737 61.7842 264.737 67.03H269.837ZM272.502 55.1617C274.341 51.6671 276.821 48.9908 279.945 47.0677L277.273 42.7243C273.326 45.1532 270.229 48.5289 267.988 52.7863L272.502 55.1617ZM279.927 47.079C283.101 45.1627 286.718 44.182 290.849 44.182V39.082C285.868 39.082 281.325 40.2773 277.291 42.713L279.927 47.079ZM290.849 44.182C294.98 44.182 298.597 45.1627 301.771 47.079L304.407 42.713C300.373 40.2773 295.83 39.082 290.849 39.082V44.182ZM301.771 47.079C304.961 49.0049 307.466 51.6793 309.298 55.1617L313.812 52.7863C311.564 48.5167 308.425 45.1391 304.407 42.713L301.771 47.079ZM309.298 55.1617C311.124 58.63 312.065 62.6004 312.065 67.132H317.165C317.165 61.8716 316.066 57.07 313.812 52.7863L309.298 55.1617ZM312.065 67.132C312.065 71.6636 311.124 75.634 309.298 79.1023L313.812 81.4777C316.066 77.194 317.165 72.3924 317.165 67.132H312.065ZM309.282 79.1337C307.519 82.5997 305.055 85.2637 301.873 87.185L304.509 91.551C308.535 89.1203 311.647 85.7323 313.828 81.4463L309.282 79.1337ZM301.855 87.1963C298.759 89.1012 295.185 90.082 291.053 90.082V95.182C296.033 95.182 300.551 93.9868 304.527 91.5397L301.855 87.1963ZM290.849 88.858C294.56 88.858 297.941 87.923 300.907 85.9994L298.131 81.7206C296.065 83.061 293.666 83.758 290.849 83.758V88.858ZM300.881 86.016C303.891 84.1148 306.207 81.4655 307.828 78.145L303.246 75.907C302.011 78.4345 300.315 80.3412 298.157 81.704L300.881 86.016ZM307.828 78.145C309.447 74.8301 310.229 71.1417 310.229 67.132H305.129C305.129 70.4663 304.483 73.3739 303.246 75.907L307.828 78.145ZM310.229 67.132C310.229 63.1223 309.447 59.4339 307.828 56.119L303.246 58.357C304.483 60.8901 305.129 63.7977 305.129 67.132H310.229ZM307.828 56.119C306.207 52.7985 303.891 50.1492 300.881 48.248L298.157 52.56C300.315 53.9228 302.011 55.8295 303.246 58.357L307.828 56.119ZM300.907 48.2646C297.941 46.341 294.56 45.406 290.849 45.406V50.506C293.666 50.506 296.065 51.203 298.131 52.5433L300.907 48.2646ZM290.849 45.406C287.194 45.406 283.85 46.3468 280.893 48.2646L283.669 52.5433C285.744 51.1972 288.112 50.506 290.849 50.506V45.406ZM280.893 48.2646C277.956 50.1697 275.687 52.8158 274.074 56.119L278.656 58.357C279.899 55.8122 281.574 53.9023 283.669 52.5433L280.893 48.2646ZM274.084 56.0976C272.454 59.3573 271.673 63.0217 271.673 67.03H276.773C276.773 63.6943 277.42 60.8307 278.646 58.3784L274.084 56.0976ZM271.673 67.03C271.673 71.0998 272.452 74.8239 274.074 78.145L278.656 75.907C277.422 73.3801 276.773 70.4402 276.773 67.03H271.673ZM274.074 78.145C275.687 81.4482 277.956 84.0943 280.893 85.9994L283.669 81.7206C281.574 80.3617 279.899 78.4518 278.656 75.907L274.074 78.145ZM280.893 85.9994C283.85 87.9172 287.194 88.858 290.849 88.858V83.758C288.112 83.758 285.744 83.0668 283.669 81.7206L280.893 85.9994ZM365.539 43.672L364.421 45.9639L364.431 45.9691L364.442 45.9743L365.539 43.672ZM372.271 49.69L370.099 51.0264L370.111 51.0464L370.124 51.0661L372.271 49.69ZM374.821 91V93.55H377.371V91H374.821ZM367.885 91H365.335V93.55H367.885V91ZM340.549 91V93.55H343.099V91H340.549ZM333.613 91H331.063V93.55H333.613V91ZM333.613 43.264V40.714H331.063V43.264H333.613ZM340.549 43.264H343.099V40.714H340.549V43.264ZM340.549 51.22H337.999L342.799 52.42L340.549 51.22ZM346.975 44.182L348.311 46.3537L348.319 46.3491L348.326 46.3444L346.975 44.182ZM356.359 44.182C359.332 44.182 362.006 44.7861 364.421 45.9639L366.656 41.3801C363.495 39.8379 360.049 39.082 356.359 39.082V44.182ZM364.442 45.9743C366.862 47.1264 368.729 48.8004 370.099 51.0264L374.442 48.3535C372.548 45.2756 369.928 42.9376 366.635 41.3697L364.442 45.9743ZM370.124 51.0661C371.524 53.2507 372.271 55.8857 372.271 59.074H377.371C377.371 55.0542 376.417 51.4333 374.417 48.3139L370.124 51.0661ZM372.271 59.074V91H377.371V59.074H372.271ZM374.821 88.45H367.885V93.55H374.821V88.45ZM370.435 91V62.134H365.335V91H370.435ZM370.435 62.134C370.435 57.0821 369.314 52.817 366.625 49.803C363.887 46.7335 359.926 45.406 355.237 45.406V50.506C358.979 50.506 361.342 51.5415 362.82 53.198C364.347 54.91 365.335 57.7338 365.335 62.134H370.435ZM355.237 45.406C349.658 45.406 345.142 47.4313 342.137 51.6875L346.304 54.6285C348.195 51.9487 351.023 50.506 355.237 50.506V45.406ZM342.137 51.6875C339.29 55.7208 337.999 60.9512 337.999 67.132H343.099C343.099 61.6168 344.255 57.5312 346.304 54.6285L342.137 51.6875ZM337.999 67.132V91H343.099V67.132H337.999ZM340.549 88.45H333.613V93.55H340.549V88.45ZM336.163 91V43.264H331.063V91H336.163ZM333.613 45.814H340.549V40.714H333.613V45.814ZM337.999 43.264V51.22H343.099V43.264H337.999ZM342.799 52.42C344.242 49.7127 346.087 47.7224 348.311 46.3537L345.638 42.0103C342.558 43.9056 340.119 46.6073 338.299 50.02L342.799 52.42ZM348.326 46.3444C350.6 44.9232 353.25 44.182 356.359 44.182V39.082C352.395 39.082 348.789 40.0408 345.623 42.0196L348.326 46.3444ZM399.312 21.436V18.886H396.762V21.436H399.312ZM437.562 27.148L435.742 28.9348L437.562 27.148ZM437.256 58.666L435.484 56.8315L435.476 56.8392L435.469 56.847L437.256 58.666ZM406.962 64.378V61.828H404.412V64.378H406.962ZM406.962 91V93.55H409.512V91H406.962ZM399.312 91H396.762V93.55H399.312V91ZM431.952 54.28L433.804 56.0324L433.816 56.02L433.827 56.0076L431.952 54.28ZM431.952 31.636L430.076 33.3636V33.3636L431.952 31.636ZM406.962 27.76V25.21H404.412V27.76H406.962ZM406.962 58.054H404.412V60.604H406.962V58.054ZM399.312 23.986H422.568V18.886H399.312V23.986ZM422.568 23.986C428.267 23.986 432.564 25.6989 435.742 28.9348L439.381 25.3612C435.079 20.9811 429.381 18.886 422.568 18.886V23.986ZM435.742 28.9348C438.9 32.1494 440.622 36.711 440.622 42.958H445.722C445.722 35.741 443.704 29.7626 439.381 25.3612L435.742 28.9348ZM440.622 42.958C440.622 49.09 438.826 53.6048 435.484 56.8315L439.027 60.5005C443.573 56.1112 445.722 50.154 445.722 42.958H440.622ZM435.469 56.847C432.158 60.0996 427.678 61.828 421.752 61.828V66.928C428.745 66.928 434.601 64.8484 439.043 60.485L435.469 56.847ZM421.752 61.828H406.962V66.928H421.752V61.828ZM404.412 64.378V91H409.512V64.378H404.412ZM406.962 88.45H399.312V93.55H406.962V88.45ZM401.862 91V21.436H396.762V91H401.862ZM421.548 60.604C426.573 60.604 430.804 59.2043 433.804 56.0324L430.099 52.5276C428.34 54.3877 425.634 55.504 421.548 55.504V60.604ZM433.827 56.0076C436.792 52.7891 438.072 48.298 438.072 42.958H432.972C432.972 47.546 431.872 50.6029 430.076 52.5524L433.827 56.0076ZM438.072 42.958C438.072 37.618 436.792 33.1269 433.827 29.9084L430.076 33.3636C431.872 35.3131 432.972 38.37 432.972 42.958H438.072ZM433.827 29.9084C430.831 26.6557 426.593 25.21 421.548 25.21V30.31C425.615 30.31 428.312 31.4483 430.076 33.3636L433.827 29.9084ZM421.548 25.21H406.962V30.31H421.548V25.21ZM404.412 27.76V58.054H409.512V27.76H404.412ZM406.962 60.604H421.548V55.504H406.962V60.604ZM504.717 43.264H507.268V40.714H504.717V43.264ZM504.717 91V93.55H507.268V91H504.717ZM497.782 91H495.232V93.55H497.782V91ZM497.782 83.962H500.332V76.1004L495.717 82.4652L497.782 83.962ZM490.54 90.388L491.723 92.6469L491.744 92.6359L491.764 92.6246L490.54 90.388ZM468.915 89.368L467.598 91.551L468.915 89.368ZM460.45 80.29L462.706 79.1023L460.45 80.29ZM460.348 53.974L458.091 52.7863L458.087 52.7938L458.083 52.8014L460.348 53.974ZM468.712 44.896L467.393 42.713L467.384 42.7186L467.375 42.7243L468.712 44.896ZM490.438 43.978L489.213 46.2146L489.244 46.2318L489.276 46.2481L490.438 43.978ZM497.782 50.404L495.7 51.8765L500.332 58.425V50.404H497.782ZM497.782 43.264V40.714H495.232V43.264H497.782ZM489.622 83.86L488.26 81.704L488.247 81.7122L488.234 81.7206L489.622 83.86ZM495.639 77.026L493.348 75.907L495.639 77.026ZM495.639 57.238L497.931 56.119V56.119L495.639 57.238ZM489.622 50.404L488.234 52.5433L488.247 52.5518L488.26 52.56L489.622 50.404ZM472.384 50.404L470.996 48.2646L472.384 50.404ZM466.467 57.238L468.748 58.3784L468.754 58.3677L468.759 58.357L466.467 57.238ZM466.467 77.026L464.176 78.145L466.467 77.026ZM472.384 83.86L470.996 85.9994L472.384 83.86ZM502.168 43.264V91H507.268V43.264H502.168ZM504.717 88.45H497.782V93.55H504.717V88.45ZM500.332 91V83.962H495.232V91H500.332ZM495.717 82.4652C493.959 84.8895 491.829 86.7746 489.315 88.1514L491.764 92.6246C494.962 90.8734 497.66 88.4745 499.846 85.4588L495.717 82.4652ZM489.356 88.1291C486.885 89.4234 484.167 90.082 481.156 90.082V95.182C484.944 95.182 488.482 94.3446 491.723 92.6469L489.356 88.1291ZM481.156 90.082C477.025 90.082 473.407 89.1013 470.234 87.185L467.598 91.551C471.632 93.9867 476.174 95.182 481.156 95.182V90.082ZM470.234 87.185C467.044 85.2591 464.539 82.5847 462.706 79.1023L458.193 81.4777C460.44 85.7473 463.579 89.1249 467.598 91.551L470.234 87.185ZM462.706 79.1023C460.883 75.6389 459.94 71.6359 459.94 67.03H454.84C454.84 72.3521 455.936 77.1891 458.193 81.4777L462.706 79.1023ZM459.94 67.03C459.94 62.4838 460.853 58.5438 462.612 55.1466L458.083 52.8014C455.898 57.0202 454.84 61.7842 454.84 67.03H459.94ZM462.604 55.1617C464.443 51.6671 466.923 48.9908 470.048 47.0677L467.375 42.7243C463.428 45.1532 460.332 48.5289 458.091 52.7863L462.604 55.1617ZM470.03 47.079C473.203 45.1627 476.821 44.182 480.952 44.182V39.082C475.97 39.082 471.428 40.2773 467.393 42.713L470.03 47.079ZM480.952 44.182C484.02 44.182 486.757 44.8696 489.213 46.2146L491.662 41.7414C488.406 39.9584 484.819 39.082 480.952 39.082V44.182ZM489.276 46.2481C491.819 47.5489 493.956 49.411 495.7 51.8765L499.863 48.9315C497.663 45.821 494.904 43.3991 491.599 41.7079L489.276 46.2481ZM500.332 50.404V43.264H495.232V50.404H500.332ZM497.782 45.814H504.717V40.714H497.782V45.814ZM480.952 88.858C484.663 88.858 488.044 87.923 491.009 85.9994L488.234 81.7206C486.167 83.061 483.768 83.758 480.952 83.758V88.858ZM490.983 86.016C493.993 84.1148 496.309 81.4655 497.931 78.145L493.348 75.907C492.114 78.4345 490.418 80.3412 488.26 81.704L490.983 86.016ZM497.931 78.145C499.55 74.8301 500.332 71.1417 500.332 67.132H495.232C495.232 70.4663 494.585 73.3739 493.348 75.907L497.931 78.145ZM500.332 67.132C500.332 63.1223 499.55 59.4339 497.931 56.119L493.348 58.357C494.585 60.8901 495.232 63.7977 495.232 67.132H500.332ZM497.931 56.119C496.309 52.7985 493.993 50.1492 490.983 48.248L488.26 52.56C490.418 53.9228 492.114 55.8295 493.348 58.357L497.931 56.119ZM491.009 48.2646C488.044 46.341 484.663 45.406 480.952 45.406V50.506C483.768 50.506 486.167 51.203 488.234 52.5433L491.009 48.2646ZM480.952 45.406C477.297 45.406 473.953 46.3468 470.996 48.2646L473.771 52.5433C475.846 51.1972 478.214 50.506 480.952 50.506V45.406ZM470.996 48.2646C468.059 50.1697 465.789 52.8158 464.176 56.119L468.759 58.357C470.002 55.8122 471.676 53.9023 473.771 52.5433L470.996 48.2646ZM464.187 56.0976C462.557 59.3573 461.776 63.0217 461.776 67.03H466.876C466.876 63.6943 467.522 60.8307 468.748 58.3784L464.187 56.0976ZM461.776 67.03C461.776 71.0998 462.554 74.8239 464.176 78.145L468.759 75.907C467.525 73.3801 466.876 70.4402 466.876 67.03H461.776ZM464.176 78.145C465.789 81.4482 468.059 84.0943 470.996 85.9994L473.771 81.7206C471.676 80.3617 470.002 78.4518 468.759 75.907L464.176 78.145ZM470.996 85.9994C473.953 87.9172 477.297 88.858 480.952 88.858V83.758C478.214 83.758 475.846 83.0668 473.771 81.7206L470.996 85.9994ZM559.547 43.264V40.714H557.795L557.167 42.3498L559.547 43.264ZM566.075 43.264L568.46 44.1672L569.768 40.714H566.075V43.264ZM540.269 111.4V113.95H542.03L542.654 112.303L540.269 111.4ZM533.333 111.4L530.956 110.479L529.611 113.95H533.333V111.4ZM540.881 91.918L543.259 92.8392L543.623 91.9001L543.247 90.9658L540.881 91.918ZM521.297 43.264V40.714H517.522L518.932 44.2162L521.297 43.264ZM528.539 43.264L530.907 42.318L530.267 40.714H528.539V43.264ZM544.349 82.84L541.981 83.786L544.396 89.831L546.73 83.7542L544.349 82.84ZM559.547 45.814H566.075V40.714H559.547V45.814ZM563.691 42.3608L537.885 110.497L542.654 112.303L568.46 44.1672L563.691 42.3608ZM540.269 108.85H533.333V113.95H540.269V108.85ZM535.711 112.321L543.259 92.8392L538.504 90.9968L530.956 110.479L535.711 112.321ZM543.247 90.9658L523.663 42.3118L518.932 44.2162L538.516 92.8702L543.247 90.9658ZM521.297 45.814H528.539V40.714H521.297V45.814ZM526.171 44.21L541.981 83.786L546.717 81.894L530.907 42.318L526.171 44.21ZM546.73 83.7542L561.928 44.1782L557.167 42.3498L541.969 81.9258L546.73 83.7542Z" fill="white" mask="url(#path-3-outside-1_1621_824)"/>
</svg>
