<svg width="441" height="86" viewBox="0 0 441 86" fill="none" xmlns="http://www.w3.org/2000/svg">
<path fill-rule="evenodd" clip-rule="evenodd" d="M121.475 1.67111V64.8854H109.919V1.67111H121.475ZM11.5564 83.9554V65.8565L10.8507 59.4997H11.5564C12.7326 61.442 14.5117 63.0605 16.8936 64.3555C19.2755 65.6503 21.9955 66.2978 25.0536 66.2978C29.1116 66.2978 32.802 65.2825 36.1249 63.2518C39.4476 61.2213 42.05 58.396 43.932 54.7762C45.8141 51.1565 46.7551 47.0216 46.7551 42.3718C46.7551 37.7808 45.8141 33.6607 43.932 30.0113C42.05 26.3622 39.4476 23.5223 36.1249 21.4917C32.802 19.461 29.1116 18.4457 25.0536 18.4457C21.9955 18.4457 19.2902 19.1079 16.9377 20.4321C14.5852 21.7564 12.7915 23.3899 11.5564 25.3321H10.8507V19.8583H0V83.9554H11.5564ZM23.025 55.6157C20.9077 55.6157 18.9081 55.0564 17.0262 53.9382C15.1442 52.8198 13.6445 51.26 12.5271 49.2589C11.4097 47.2577 10.851 44.9623 10.851 42.3723C10.851 39.7826 11.4097 37.4872 12.5271 35.4859C13.6445 33.4847 15.1442 31.9396 17.0262 30.8508C18.9081 29.762 20.9077 29.2176 23.025 29.2176C25.2009 29.2176 27.2299 29.762 29.1118 30.8508C30.9939 31.9396 32.4935 33.4847 33.6109 35.4859C34.7284 37.4872 35.287 39.7826 35.287 42.3723C35.287 44.9623 34.7284 47.2577 33.6109 49.2589C32.4935 51.26 30.9939 52.8198 29.1118 53.9382C27.2299 55.0564 25.2009 55.6157 23.025 55.6157ZM89.5399 63.1636C85.8937 65.2531 81.777 66.2978 77.1897 66.2978C72.5435 66.2978 68.3974 65.2531 64.7511 63.1636C61.1047 61.0742 58.2671 58.2195 56.2381 54.5997C54.2092 50.9799 53.1947 46.9039 53.1947 42.3718C53.1947 37.8984 54.2092 33.8373 56.2381 30.1879C58.2671 26.5387 61.1047 23.6693 64.7511 21.5799C68.3974 19.4904 72.5435 18.4457 77.1897 18.4457C81.777 18.4457 85.8937 19.4904 89.5399 21.5799C93.1864 23.6693 96.024 26.5387 98.0529 30.1879C100.082 33.8373 101.096 37.8984 101.096 42.3718C101.096 46.9039 100.082 50.9799 98.0529 54.5997C96.024 58.2195 93.1864 61.0742 89.5399 63.1636ZM77.1897 55.6157C74.9548 55.6157 72.8965 55.086 71.0145 54.0264C69.1326 52.9669 67.6181 51.4219 66.4714 49.3912C65.3244 47.3608 64.7511 45.0211 64.7511 42.3723C64.7511 39.7238 65.3244 37.3988 66.4714 35.3977C67.6181 33.3965 69.1326 31.8661 71.0145 30.8067C72.8965 29.7473 74.9548 29.2176 77.1897 29.2176C79.4245 29.2176 81.483 29.7473 83.3649 30.8067C85.2469 31.8661 86.7466 33.3965 87.864 35.3977C88.9813 37.3988 89.5401 39.7238 89.5401 42.3723C89.5401 45.0799 88.9813 47.4343 87.864 49.4355C86.7466 51.4366 85.2469 52.9669 83.3649 54.0264C81.483 55.086 79.4245 55.6157 77.1897 55.6157ZM149.706 83.9559L177.494 19.8586H164.615L153.411 47.846H152.706L141.061 19.8586H127.917L146.883 62.7667L137.268 83.9559H149.706ZM216.75 82.4987C213.28 84.4116 209.22 85.368 204.574 85.368C198.871 85.368 194.136 84.0879 190.372 81.5275C186.608 78.9671 184.08 75.8918 182.786 72.3014L193.637 67.8869C194.577 70.1236 196.018 71.8894 197.959 73.1842C199.9 74.4792 202.105 75.1267 204.574 75.1267C208.222 75.1267 211.118 74.0083 213.265 71.7717C215.411 69.535 216.485 66.3568 216.485 62.2365V58.7051H215.779C214.367 60.7063 212.514 62.2365 210.22 63.2961C207.928 64.3555 205.309 64.8852 202.369 64.8852C198.664 64.8852 195.209 63.9287 192.004 62.0158C188.799 60.1029 186.225 57.3954 184.285 53.8934C182.345 50.3912 181.374 46.3154 181.374 41.6654C181.374 37.0156 182.345 32.9396 184.285 29.4375C186.225 25.9355 188.799 23.228 192.004 21.3151C195.209 19.4021 198.664 18.4457 202.369 18.4457C205.309 18.4457 207.928 18.9754 210.22 20.0348C212.514 21.0943 214.367 22.6246 215.779 24.6258H216.485V19.8583H227.6V61.7952C227.6 66.6215 226.659 70.8004 224.777 74.332C222.895 77.8636 220.22 80.5859 216.75 82.4987ZM204.752 54.3809C201.458 54.3809 198.665 53.2627 196.372 51.026C194.078 48.7892 192.931 45.6698 192.931 41.6674C192.931 37.6651 194.078 34.5454 196.372 32.3088C198.665 30.0722 201.458 28.954 204.752 28.954C208.044 28.954 210.824 30.0575 213.089 32.2647C215.352 34.4719 216.485 37.6061 216.485 41.6674C216.485 45.611 215.338 48.7157 213.044 50.9818C210.75 53.2478 207.986 54.3809 204.752 54.3809ZM272.765 63.1636C269.119 65.2531 265.003 66.2978 260.416 66.2978C255.77 66.2978 251.623 65.2531 247.977 63.1636C244.331 61.0742 241.494 58.2195 239.465 54.5997C237.436 50.9799 236.42 46.9039 236.42 42.3718C236.42 37.8984 237.436 33.8373 239.465 30.1879C241.494 26.5387 244.331 23.6693 247.977 21.5799C251.623 19.4904 255.77 18.4457 260.416 18.4457C265.003 18.4457 269.119 19.4904 272.765 21.5799C276.413 23.6693 279.25 26.5387 281.279 30.1879C283.308 33.8373 284.322 37.8984 284.322 42.3718C284.322 46.9039 283.308 50.9799 281.279 54.5997C279.25 58.2195 276.413 61.0742 272.765 63.1636ZM260.417 55.6157C258.183 55.6157 256.124 55.086 254.242 54.0264C252.36 52.9669 250.845 51.4219 249.7 49.3912C248.553 47.3608 247.979 45.0211 247.979 42.3723C247.979 39.7238 248.553 37.3988 249.7 35.3977C250.845 33.3965 252.36 31.8661 254.242 30.8067C256.124 29.7473 258.183 29.2176 260.417 29.2176C262.653 29.2176 264.711 29.7473 266.593 30.8067C268.475 31.8661 269.974 33.3965 271.092 35.3977C272.21 37.3988 272.769 39.7238 272.769 42.3723C272.769 45.0799 272.21 47.4343 271.092 49.4355C269.974 51.4366 268.475 52.9669 266.593 54.0264C264.711 55.086 262.653 55.6157 260.417 55.6157ZM304.7 41.9303V64.8852H293.145V19.8583H303.996V25.5087H304.7C306.054 23.3309 307.965 21.6093 310.435 20.3439C312.905 19.0785 315.582 18.4457 318.464 18.4457C323.874 18.4457 327.99 20.0936 330.813 23.3899C333.637 26.6859 335.047 31.1885 335.047 36.898V64.8852H323.491V38.3105C323.491 35.4264 322.756 33.1898 321.286 31.6007C319.816 30.0114 317.758 29.2169 315.11 29.2169C311.994 29.2169 309.48 30.4235 307.569 32.8367C305.658 35.2498 304.7 38.2811 304.7 41.9303Z" fill="#F5F5F7"/>
<path fill-rule="evenodd" clip-rule="evenodd" d="M377.747 14.9201C379.807 14.9201 381.555 14.1844 382.996 12.7128C384.437 11.2415 385.159 9.47559 385.159 7.41554C385.159 5.35549 384.437 3.60448 382.996 2.16251C381.555 0.720372 379.807 -0.000610352 377.747 -0.000610352C375.689 -0.000610352 373.925 0.720372 372.455 2.16251C370.985 3.60448 370.25 5.35549 370.25 7.41554C370.25 9.47559 370.985 11.2415 372.455 12.7128C373.925 14.1844 375.689 14.9201 377.747 14.9201ZM352.957 65.4204C355.075 65.4204 356.883 64.67 358.382 63.1691C359.883 61.6681 360.632 59.8583 360.632 57.7393C360.632 55.6204 359.883 53.8252 358.382 52.3538C356.883 50.8822 355.075 50.1466 352.957 50.1466C350.841 50.1466 349.032 50.8822 347.532 52.3538C346.033 53.8252 345.282 55.6204 345.282 57.7393C345.282 59.8583 346.033 61.6681 347.532 63.1691C349.032 64.67 350.841 65.4204 352.957 65.4204ZM383.483 19.8634V64.8903H371.927V19.8634H383.483ZM417.093 66.3026C421.68 66.3026 425.797 65.2578 429.443 63.1684C433.089 61.0789 435.927 58.2242 437.955 54.6044C439.984 50.9846 441 46.9086 441 42.3766C441 37.9033 439.984 33.842 437.955 30.1929C435.927 26.5435 433.089 23.6741 429.443 21.5846C425.797 19.4952 421.68 18.4505 417.093 18.4505C412.448 18.4505 408.301 19.4952 404.655 21.5846C401.007 23.6741 398.17 26.5435 396.141 30.1929C394.112 33.842 393.098 37.9033 393.098 42.3766C393.098 46.9086 394.112 50.9846 396.141 54.6044C398.17 58.2242 401.007 61.0789 404.655 63.1684C408.301 65.2578 412.448 66.3026 417.093 66.3026ZM410.918 54.0313C412.8 55.0907 414.858 55.6204 417.093 55.6204C419.328 55.6204 421.386 55.0907 423.267 54.0313C425.149 52.9717 426.65 51.4414 427.766 49.4403C428.884 47.439 429.443 45.0846 429.443 42.3771C429.443 39.7285 428.884 37.4035 427.766 35.4025C426.65 33.4012 425.149 31.8709 423.267 30.8115C421.386 29.752 419.328 29.2223 417.093 29.2223C414.858 29.2223 412.8 29.752 410.918 30.8115C409.036 31.8709 407.521 33.4012 406.374 35.4025C405.227 37.4035 404.655 39.7285 404.655 42.3771C404.655 45.0258 405.227 47.3655 406.374 49.396C407.521 51.4267 409.036 52.9717 410.918 54.0313Z" fill="#D4D6E0"/>
</svg>
