<svg width="889" height="1190" viewBox="0 0 889 1190" fill="none" xmlns="http://www.w3.org/2000/svg">
<path d="M502.076 470.518C558.733 496.399 556.464 538.955 528.153 586.479L514.701 579.581C535.532 538.952 509.966 508.421 488.353 497.34C475.787 490.898 455.766 500.774 443.452 503.545L434.336 498.872L421.715 478.236C453.285 459.099 488.472 464.32 502.076 470.518Z" fill="url(#paint0_linear_224_1394)"/>
<path d="M512.779 476.003C556.05 498.189 569.825 545.803 541.397 593.267L527.409 586.095C548.24 545.465 521.344 514.253 499.009 502.802C480.358 493.239 455.428 499.942 443.406 503.52L430.185 480.036C462.347 461.353 498.649 469.566 512.779 476.003Z" fill="url(#paint1_radial_224_1394)"/>
<path d="M510.668 476.133C509.134 397.887 444.459 335.7 366.213 337.235C287.967 338.769 225.781 403.444 227.315 481.69C228.85 559.936 293.525 622.123 371.77 620.588C450.016 619.053 512.203 554.379 510.668 476.133Z" fill="#202433"/>
<g filter="url(#filter0_i_224_1394)">
<path d="M358.507 337.228C432.41 335.778 493.939 398.282 495.476 476.613C497.012 554.943 438.321 619.805 364.077 621.261C341.94 621.695 320.712 616.32 302.127 606.804C258.755 584.146 228.19 537.048 227.115 482.217C225.966 423.639 258.694 372.574 306.286 349.836C322.487 342.022 340.116 337.588 358.507 337.228Z" fill="#4C5573"/>
</g>
<path d="M358.975 361.067C360.678 361.034 362.721 360.994 364.424 360.961L364.764 360.954C423.743 362.863 471.756 413.708 472.992 476.713C474.234 540.059 428.245 592.406 369.386 596.627L369.046 596.633C367.343 596.667 365.3 596.707 363.597 596.74C301.954 597.949 250.855 546.143 249.573 480.754C248.644 416.04 297.332 362.276 358.975 361.067Z" fill="#202433"/>
<g filter="url(#filter1_d_224_1394)">
<path d="M364.423 360.962C423.742 362.864 471.756 413.709 472.992 476.714C474.234 540.06 428.244 592.407 369.386 596.628L369.045 596.634C359.496 596.14 350.267 594.618 341.7 592.06C295.77 577.97 261.86 534.004 260.818 480.875C259.716 424.682 295.582 377.302 345.064 364.067C351.508 362.578 357.959 361.429 364.423 360.962Z" fill="url(#paint2_radial_224_1394)"/>
</g>
<g filter="url(#filter2_ii_224_1394)">
<path fill-rule="evenodd" clip-rule="evenodd" d="M286.205 489.242C292.456 534.013 333.817 565.241 378.588 558.991C423.359 552.741 454.587 511.38 448.337 466.608C442.087 421.837 400.726 390.609 355.954 396.859C311.183 403.11 279.955 444.471 286.205 489.242ZM379.2 563.373C332.008 569.961 288.411 537.045 281.824 489.854C275.236 442.662 308.151 399.065 355.343 392.478C402.534 385.89 446.131 418.805 452.719 465.997C459.307 513.188 426.391 556.785 379.2 563.373ZM293.653 488.206C295.685 502.766 301.99 516.396 311.769 527.373C321.548 538.35 334.363 546.18 348.592 549.874C362.822 553.568 377.827 552.96 391.711 548.126C405.594 543.292 417.733 534.45 426.591 522.717C435.449 510.984 440.629 496.888 441.476 482.212C442.323 467.535 438.799 452.937 431.349 440.263C423.9 427.589 412.859 417.409 399.624 411.01C386.388 404.611 371.552 402.28 356.993 404.313C337.478 407.059 319.85 417.435 307.976 433.162C296.102 448.89 290.951 468.685 293.653 488.206ZM433.875 468.631C435.714 481.804 433.605 495.227 427.815 507.202C422.026 519.177 412.815 529.166 401.348 535.906C389.882 542.646 376.674 545.835 363.395 545.068C350.116 544.302 337.362 539.615 326.747 531.601C316.132 523.586 308.131 512.604 303.758 500.042C299.384 487.481 298.834 473.905 302.176 461.031C305.518 448.156 312.603 436.562 322.534 427.714C332.466 418.867 344.798 413.163 357.971 411.324C375.633 408.878 393.543 413.538 407.773 424.282C422.003 435.025 431.39 450.975 433.875 468.631ZM403.331 526.021L312.347 488.688C311.803 488.424 311.333 488.03 310.977 487.542C310.621 487.053 310.391 486.484 310.308 485.885C310.224 485.286 310.289 484.676 310.498 484.108C310.706 483.541 311.051 483.033 311.502 482.63L388.783 421.808C389.273 421.426 389.854 421.18 390.469 421.094C391.084 421.008 391.71 421.085 392.286 421.317C392.861 421.55 393.365 421.929 393.748 422.418C394.13 422.907 394.377 423.488 394.465 424.103L408.167 522.258C408.252 522.873 408.173 523.499 407.939 524.074C407.705 524.649 407.324 525.152 406.834 525.534C406.344 525.915 405.763 526.16 405.148 526.246C404.533 526.331 403.907 526.254 403.331 526.021ZM374.705 461.763L352.038 480.059L378.849 491.448L374.705 461.763ZM381.054 500.075L344.745 484.651L327.137 487.109L392.747 514.046L381.054 500.075ZM380.992 455.596L386.584 495.658L399.45 511.016L389.159 437.302L380.992 455.596ZM343.767 477.64L374.463 452.862L381.883 436.223L326.158 480.098L343.767 477.64Z" fill="#4C5573"/>
</g>
<path d="M599.399 581.554L564.433 649.752C563.685 651.174 562.669 652.436 561.441 653.467C560.214 654.499 558.801 655.278 557.281 655.762C555.762 656.246 554.167 656.424 552.587 656.286C551.007 656.149 549.472 655.698 548.072 654.961L528.838 645.099C525.975 643.671 523.805 641.149 522.803 638.086C521.801 635.023 522.049 631.67 523.494 628.762L558.459 560.564C559.989 557.716 562.566 555.579 565.628 554.619C568.69 553.659 571.989 553.954 574.807 555.439L594.042 565.3C596.89 566.721 599.052 569.227 600.056 572.273C601.06 575.318 600.824 578.655 599.399 581.554Z" fill="url(#paint3_radial_224_1394)"/>
<path d="M574.418 630.276L786.577 739.052L778.085 755.616L567.381 644.001L574.418 630.276Z" fill="url(#paint4_linear_224_1394)"/>
<path d="M581.675 616.126L595.967 588.25L811.269 690.897L793.835 724.901" fill="url(#paint5_linear_224_1394)"/>
<path d="M789.04 734.366L791.466 729.633L579.284 620.846L576.857 625.578L789.04 734.366Z" fill="url(#paint6_linear_224_1394)"/>
<path d="M417.336 635.803C471.384 666.771 504.651 640.018 526.701 589.315L513.249 582.418C492.43 623.024 452.766 619.99 431.153 608.909C418.587 602.467 414.921 580.445 409.983 568.829L400.867 564.155L376.684 566.071C379.585 602.85 404.362 628.374 417.336 635.803Z" fill="url(#paint7_linear_224_1394)"/>
<path d="M428.038 641.29C471.309 663.475 518.011 646.867 539.945 596.104L525.957 588.932C505.138 629.539 464.144 625.824 441.809 614.372C423.158 604.81 414.049 580.655 409.937 568.805L383.152 571.777C386.705 608.892 414.551 633.598 428.038 641.29Z" fill="url(#paint8_radial_224_1394)"/>
<path d="M574.418 630.276L786.577 739.052L778.085 755.616L567.381 644.001L574.418 630.276Z" fill="url(#paint9_linear_224_1394)"/>
<path d="M817.97 660.938L903.361 544.041L989.196 623.453L903.293 727.955L817.97 660.938Z" fill="url(#paint10_radial_224_1394)"/>
<path d="M817.063 662.092L902.454 545.195L988.272 624.627L902.386 729.109L817.063 662.092Z" fill="url(#paint11_linear_224_1394)"/>
<path d="M788.306 783.426C819.213 807.702 863.657 802.696 887.575 772.245C911.493 741.794 905.827 697.429 874.919 673.153C844.012 648.877 799.568 653.883 775.65 684.334C751.732 714.785 757.398 759.15 788.306 783.426Z" fill="url(#paint12_radial_224_1394)"/>
<path d="M788.306 783.426C819.213 807.702 863.657 802.696 887.575 772.245C911.493 741.794 905.827 697.429 874.919 673.153C844.012 648.877 799.568 653.883 775.65 684.334C751.732 714.785 757.398 759.15 788.306 783.426Z" fill="url(#paint13_linear_224_1394)"/>
<path d="M797.011 772.341C821.704 791.736 857.213 787.737 876.322 763.407C895.432 739.078 890.905 703.633 866.211 684.238C841.518 664.842 806.009 668.842 786.9 693.171C767.791 717.5 772.318 752.945 797.011 772.341Z" fill="url(#paint14_radial_224_1394)"/>
<path d="M797.011 772.341C821.704 791.736 857.213 787.737 876.322 763.407C895.432 739.078 890.905 703.633 866.211 684.238C841.518 664.842 806.009 668.842 786.9 693.171C767.791 717.5 772.318 752.945 797.011 772.341Z" fill="url(#paint15_linear_224_1394)"/>
<path d="M374.889 276.036C377.96 276.079 380.964 277.446 383.879 280.061C386.796 282.678 389.607 286.531 392.278 291.508C397.619 301.461 402.364 315.845 406.274 333.621C414.092 369.166 418.555 418.201 417.803 472.296C417.051 526.391 411.226 575.283 402.421 610.597C398.018 628.257 392.875 642.503 387.259 652.304C384.452 657.205 381.534 660.979 378.546 663.513C375.559 666.046 372.518 667.329 369.447 667.286C366.377 667.243 363.372 665.877 360.458 663.262C357.541 660.645 354.729 656.791 352.059 651.814C346.718 641.861 341.973 627.477 338.063 609.702C330.244 574.156 325.781 525.122 326.534 471.027C327.286 416.931 333.111 368.04 341.916 332.725C346.318 315.066 351.462 300.819 357.077 291.018C359.885 286.118 362.803 282.344 365.791 279.809C368.778 277.276 371.819 275.994 374.889 276.036Z" stroke="url(#paint16_linear_224_1394)" stroke-width="0.671162"/>
<path d="M182.855 565.445C181.357 562.765 181.039 559.479 181.846 555.647C182.653 551.813 184.585 547.451 187.56 542.65C193.509 533.048 203.593 521.747 217.033 509.473C243.907 484.929 284.14 456.547 331.364 430.151C378.588 403.755 423.842 384.354 458.827 374.321C476.323 369.304 491.232 366.636 502.528 366.598C508.176 366.58 512.903 367.219 516.592 368.54C520.279 369.86 522.91 371.853 524.408 374.533C525.907 377.213 526.225 380.499 525.418 384.331C524.61 388.165 522.679 392.526 519.704 397.328C513.754 406.93 503.67 418.231 490.231 430.505C463.357 455.049 423.123 483.431 375.899 509.827C328.676 536.223 283.422 555.624 248.436 565.657C230.941 570.673 216.032 573.342 204.736 573.379C199.088 573.398 194.361 572.759 190.672 571.438C186.985 570.118 184.353 568.125 182.855 565.445Z" stroke="url(#paint17_linear_224_1394)" stroke-width="0.671162"/>
<circle cx="225.618" cy="502.973" r="6.71162" transform="rotate(120.797 225.618 502.973)" fill="#49336B"/>
<circle cx="515.173" cy="368.494" r="3.35581" transform="rotate(120.797 515.173 368.494)" fill="#0B51C3"/>
<circle cx="341.758" cy="621.422" r="6.71162" transform="rotate(120.797 341.758 621.422)" fill="#F46C3D"/>
<circle cx="339.551" cy="338.043" r="6.71162" transform="rotate(120.797 339.551 338.043)" fill="#32C183"/>
<circle cx="395.787" cy="399.689" r="10.0674" transform="rotate(120.797 395.787 399.689)" fill="#FFD200"/>
<defs>
<filter id="filter0_i_224_1394" x="227.086" y="337.203" width="268.419" height="284.083" filterUnits="userSpaceOnUse" color-interpolation-filters="sRGB">
<feFlood flood-opacity="0" result="BackgroundImageFix"/>
<feBlend mode="normal" in="SourceGraphic" in2="BackgroundImageFix" result="shape"/>
<feColorMatrix in="SourceAlpha" type="matrix" values="0 0 0 0 0 0 0 0 0 0 0 0 0 0 0 0 0 0 127 0" result="hardAlpha"/>
<feOffset dx="1.63392" dy="1.63392"/>
<feComposite in2="hardAlpha" operator="arithmetic" k2="-1" k3="1"/>
<feColorMatrix type="matrix" values="0 0 0 0 1 0 0 0 0 1 0 0 0 0 1 0 0 0 0.65 0"/>
<feBlend mode="normal" in2="shape" result="effect1_innerShadow_224_1394"/>
</filter>
<filter id="filter1_d_224_1394" x="260.793" y="360.961" width="212.223" height="237.307" filterUnits="userSpaceOnUse" color-interpolation-filters="sRGB">
<feFlood flood-opacity="0" result="BackgroundImageFix"/>
<feColorMatrix in="SourceAlpha" type="matrix" values="0 0 0 0 0 0 0 0 0 0 0 0 0 0 0 0 0 0 127 0" result="hardAlpha"/>
<feOffset dy="1.63392"/>
<feComposite in2="hardAlpha" operator="out"/>
<feColorMatrix type="matrix" values="0 0 0 0 1 0 0 0 0 1 0 0 0 0 1 0 0 0 0.57 0"/>
<feBlend mode="normal" in2="BackgroundImageFix" result="effect1_dropShadow_224_1394"/>
<feBlend mode="normal" in="SourceGraphic" in2="effect1_dropShadow_224_1394" result="shape"/>
</filter>
<filter id="filter2_ii_224_1394" x="280.984" y="391.638" width="172.574" height="172.574" filterUnits="userSpaceOnUse" color-interpolation-filters="sRGB">
<feFlood flood-opacity="0" result="BackgroundImageFix"/>
<feBlend mode="normal" in="SourceGraphic" in2="BackgroundImageFix" result="shape"/>
<feColorMatrix in="SourceAlpha" type="matrix" values="0 0 0 0 0 0 0 0 0 0 0 0 0 0 0 0 0 0 127 0" result="hardAlpha"/>
<feOffset dx="4.08479" dy="0.816958"/>
<feComposite in2="hardAlpha" operator="arithmetic" k2="-1" k3="1"/>
<feColorMatrix type="matrix" values="0 0 0 0 0.0892882 0 0 0 0 0.105508 0 0 0 0 0.154167 0 0 0 1 0"/>
<feBlend mode="normal" in2="shape" result="effect1_innerShadow_224_1394"/>
<feColorMatrix in="SourceAlpha" type="matrix" values="0 0 0 0 0 0 0 0 0 0 0 0 0 0 0 0 0 0 127 0" result="hardAlpha"/>
<feOffset dy="-2.45087"/>
<feComposite in2="hardAlpha" operator="arithmetic" k2="-1" k3="1"/>
<feColorMatrix type="matrix" values="0 0 0 0 0.184722 0 0 0 0 0.209402 0 0 0 0 0.291667 0 0 0 1 0"/>
<feBlend mode="normal" in2="effect1_innerShadow_224_1394" result="effect2_innerShadow_224_1394"/>
</filter>
<linearGradient id="paint0_linear_224_1394" x1="563.245" y1="546.668" x2="433.457" y2="479.781" gradientUnits="userSpaceOnUse">
<stop stop-color="#1B1C3A"/>
<stop offset="1" stop-color="#282A59"/>
</linearGradient>
<radialGradient id="paint1_radial_224_1394" cx="0" cy="0" r="1" gradientUnits="userSpaceOnUse" gradientTransform="translate(-75772.1 1.55859e+07) rotate(-152.736) scale(5233.45 7612.02)">
<stop stop-color="#111123"/>
<stop offset="0.47" stop-color="#074794"/>
<stop offset="1" stop-color="#064E9A"/>
</radialGradient>
<radialGradient id="paint2_radial_224_1394" cx="0" cy="0" r="1" gradientUnits="userSpaceOnUse" gradientTransform="translate(366.905 478.795) rotate(-1.12357) scale(106.107 117.859)">
<stop stop-color="#737C9A"/>
<stop offset="1" stop-color="#4C5573"/>
</radialGradient>
<radialGradient id="paint3_radial_224_1394" cx="0" cy="0" r="1" gradientUnits="userSpaceOnUse" gradientTransform="translate(560.59 606.589) rotate(-152.855) scale(23.2482 50.9481)">
<stop stop-color="#181830"/>
<stop offset="1" stop-color="#2C3687"/>
</radialGradient>
<linearGradient id="paint4_linear_224_1394" x1="763.98" y1="741.139" x2="553.833" y2="633.277" gradientUnits="userSpaceOnUse">
<stop stop-color="#121124"/>
<stop offset="1" stop-color="#222B57"/>
</linearGradient>
<linearGradient id="paint5_linear_224_1394" x1="-63654.5" y1="-31469.6" x2="-63905" y2="-30981" gradientUnits="userSpaceOnUse">
<stop stop-color="#121124"/>
<stop offset="1" stop-color="#222B57"/>
</linearGradient>
<linearGradient id="paint6_linear_224_1394" x1="-362999" y1="1.40017e+06" x2="-363427" y2="1.39995e+06" gradientUnits="userSpaceOnUse">
<stop stop-color="#121124"/>
<stop offset="1" stop-color="#222B57"/>
</linearGradient>
<linearGradient id="paint7_linear_224_1394" x1="-16265.3" y1="1.49387e+07" x2="-20736.7" y2="1.49365e+07" gradientUnits="userSpaceOnUse">
<stop stop-color="#1B1C3A"/>
<stop offset="1" stop-color="#282A59"/>
</linearGradient>
<radialGradient id="paint8_radial_224_1394" cx="0" cy="0" r="1" gradientUnits="userSpaceOnUse" gradientTransform="translate(-22547.6 1.55732e+07) rotate(-152.975) scale(5231.93 7612.02)">
<stop stop-color="#111123"/>
<stop offset="0.47" stop-color="#074794"/>
<stop offset="1" stop-color="#064E9A"/>
</radialGradient>
<linearGradient id="paint9_linear_224_1394" x1="704.469" y1="696.15" x2="691.545" y2="718.889" gradientUnits="userSpaceOnUse">
<stop stop-color="#B17F49" stop-opacity="0"/>
<stop offset="0.58" stop-color="#B2804A" stop-opacity="0.03"/>
<stop offset="1" stop-color="#DC985A"/>
</linearGradient>
<radialGradient id="paint10_radial_224_1394" cx="0" cy="0" r="1" gradientUnits="userSpaceOnUse" gradientTransform="translate(944.679 579.255) rotate(127.819) scale(103.922 149.691)">
<stop stop-color="#111123"/>
<stop offset="0.22" stop-color="#20244A"/>
<stop offset="1" stop-color="#263065"/>
</radialGradient>
<linearGradient id="paint11_linear_224_1394" x1="844.329" y1="586.472" x2="937.415" y2="697.923" gradientUnits="userSpaceOnUse">
<stop offset="0.77" stop-color="#C99D66" stop-opacity="0"/>
<stop offset="1" stop-color="#DC5A5A"/>
</linearGradient>
<radialGradient id="paint12_radial_224_1394" cx="0" cy="0" r="1" gradientUnits="userSpaceOnUse" gradientTransform="translate(823.444 728.119) rotate(128.148) scale(70.8293 71.89)">
<stop stop-color="#181830"/>
<stop offset="1" stop-color="#2F3A6C"/>
</radialGradient>
<linearGradient id="paint13_linear_224_1394" x1="834.449" y1="658.446" x2="812.844" y2="797.271" gradientUnits="userSpaceOnUse">
<stop offset="0.78" stop-color="#C99D66" stop-opacity="0"/>
<stop offset="1" stop-color="#DC5A5A"/>
</linearGradient>
<radialGradient id="paint14_radial_224_1394" cx="0" cy="0" r="1" gradientUnits="userSpaceOnUse" gradientTransform="translate(833.645 733.771) rotate(38.1478) scale(56.2617 55.9409)">
<stop stop-color="#2D2E82"/>
<stop offset="1" stop-color="#20335D"/>
</radialGradient>
<linearGradient id="paint15_linear_224_1394" x1="-115551" y1="30589.3" x2="-115563" y2="30669.9" gradientUnits="userSpaceOnUse">
<stop offset="0.78" stop-color="#C99D66" stop-opacity="0"/>
<stop offset="1" stop-color="#DC985A"/>
</linearGradient>
<linearGradient id="paint16_linear_224_1394" x1="326.198" y1="471.022" x2="416.767" y2="470.015" gradientUnits="userSpaceOnUse">
<stop stop-color="white"/>
<stop offset="0.949032" stop-color="#070754" stop-opacity="0"/>
</linearGradient>
<linearGradient id="paint17_linear_224_1394" x1="375.905" y1="509.729" x2="331.201" y2="429.858" gradientUnits="userSpaceOnUse">
<stop offset="0.100706" stop-color="#F46C3D" stop-opacity="0"/>
<stop offset="0.478297" stop-color="white"/>
</linearGradient>
</defs>
</svg>
