<svg width="250" height="74" viewBox="0 0 250 74" fill="none" xmlns="http://www.w3.org/2000/svg">
<g filter="url(#filter0_b_925_1302)">
<rect width="250" height="74" rx="37" fill="white" fill-opacity="0.2"/>
<rect x="1" y="1" width="248" height="72" rx="36" stroke="url(#paint0_linear_925_1302)" stroke-width="2"/>
</g>
<g clip-path="url(#clip0_925_1302)">
<mask id="mask0_925_1302" style="mask-type:luminance" maskUnits="userSpaceOnUse" x="100" y="4" width="50" height="58">
<path d="M100 4H150V62H100V4Z" fill="white"/>
</mask>
<g mask="url(#mask0_925_1302)">
<path fill-rule="evenodd" clip-rule="evenodd" d="M100 52.9534H150V59.0097H100L100 52.9534Z" fill="#FF322E"/>
</g>
<path fill-rule="evenodd" clip-rule="evenodd" d="M111.51 20L103.105 45.2669H109.191L114.899 27.4074L117.761 36.3362H114.059L112.581 41.4331H119.394L120.622 45.2669H126.882L118.478 20H111.51Z" fill="white"/>
<path fill-rule="evenodd" clip-rule="evenodd" d="M136.444 20H127.707V45.2669H133.749V25.0971H136.183C139.008 25.0971 140.617 26.4472 140.617 28.8869C140.617 31.2829 139.008 32.677 136.183 32.677H135.792V37.774H136.444C142.964 37.774 146.789 34.4846 146.789 28.8869C146.789 23.1801 142.964 20 136.444 20Z" fill="white"/>
</g>
<defs>
<filter id="filter0_b_925_1302" x="-38.9" y="-38.9" width="327.8" height="151.8" filterUnits="userSpaceOnUse" color-interpolation-filters="sRGB">
<feFlood flood-opacity="0" result="BackgroundImageFix"/>
<feGaussianBlur in="BackgroundImageFix" stdDeviation="19.45"/>
<feComposite in2="SourceAlpha" operator="in" result="effect1_backgroundBlur_925_1302"/>
<feBlend mode="normal" in="SourceGraphic" in2="effect1_backgroundBlur_925_1302" result="shape"/>
</filter>
<linearGradient id="paint0_linear_925_1302" x1="250" y1="0" x2="129.992" y2="167.265" gradientUnits="userSpaceOnUse">
<stop stop-color="white" stop-opacity="0"/>
<stop offset="0.427249" stop-color="white"/>
<stop offset="1" stop-color="white" stop-opacity="0"/>
</linearGradient>
<clipPath id="clip0_925_1302">
<rect width="50" height="58" fill="white" transform="translate(100 4)"/>
</clipPath>
</defs>
</svg>
