
<svg width="226" height="67" viewBox="0 0 226 67" fill="none" xmlns="http://www.w3.org/2000/svg">
    <g filter="url(#filter0_b_1682_615)">
        <rect width="225.752" height="66.8225" rx="33.4113" fill="white" fill-opacity="0.2"/>
        <rect x="1" y="1" width="223.752" height="64.8225" rx="32.4113" stroke="url(#paint0_linear_1682_615)" stroke-width="2"/>
    </g>
    <g clip-path="url(#clip0_1682_615)">
        <path d="M164.929 40.7674C158.085 40.7674 155.785 32.7393 160.125 28.3666C161.541 26.9412 163.052 26.2238 165.141 26.2238H172.206V40.3408C172.206 43.1817 170.887 45.402 168.51 46.7109C166.296 47.9229 163.206 47.6805 160.598 47.6805V45.1306C162.638 45.1306 165.978 45.3148 167.451 44.4615C168.808 43.6859 169.501 42.4254 169.501 40.6511V28.7738H165.141C158.932 28.7738 158.913 38.2271 164.929 38.2271C166.248 38.2271 166.992 38.0603 167.992 37.3331V40.0577C166.915 40.6685 166.171 40.7674 164.929 40.7674Z" fill="#7F8FD1" stroke="#7F8FD1" stroke-width="0.739655"/>
        <path d="M133.691 34.9121V19.6316H136.367V34.9121C136.367 37.53 137.445 38.0924 139.784 38.0924V40.6036C135.52 40.6036 133.691 39.1976 133.691 34.9121Z" fill="#7F8FD1" stroke="#7F8FD1" stroke-width="0.739655"/>
        <path d="M126.683 26.2247H129.571L125.971 32.4882C129.802 33.5256 129.629 37.1809 129.629 40.6036H127.011C127.011 38.5771 127.27 36.6477 125.836 35.3193C124.652 34.2141 122.843 34.0977 121.091 34.311V40.6036H118.473V19.6316H121.091V31.9452C121.928 31.8289 122.756 31.8289 123.593 31.9452L126.683 26.2247Z" fill="#5165C8" stroke="#5165C8" stroke-width="0.739655"/>
        <path d="M107.26 40.6026V32.4291C107.26 29.4913 107.876 27.4745 110.051 26.6698C111.784 26.0299 113.747 26.2238 115.817 26.2238V28.7447C114.566 28.7447 112.227 28.5701 111.216 28.9774C110.07 29.4428 109.878 30.6451 109.878 32.4291V40.6026H107.26Z" fill="#5165C8" stroke="#5165C8" stroke-width="0.739655"/>
        <path d="M92.5729 28.3373C96.9333 23.8772 104.874 26.9023 104.874 33.4275C104.874 41.3684 94.0071 43.327 91.0617 36.2296C89.974 33.6021 90.4938 30.4025 92.5729 28.3373ZM97.6936 28.7736C91.7644 28.7736 91.7644 38.0815 97.6936 38.0815C103.633 38.0815 103.633 28.7736 97.6936 28.7736Z" fill="#5165C8" stroke="#5165C8" stroke-width="0.739655"/>
        <path d="M88.8545 28.7449H85.4277V40.6029H82.7519V28.7449H80.7305L81.924 26.224H82.7519C82.7519 21.9482 85.9861 19.6018 90.0384 19.6018V22.1227C86.9678 22.1227 85.4277 23.4898 85.4277 26.224H88.8545V28.7449Z" fill="#5165C8" stroke="#5165C8" stroke-width="0.739655"/>
        <path fill-rule="evenodd" clip-rule="evenodd" d="M71.4137 38.8438C70.1816 38.776 68.9399 38.8923 67.7078 38.5918C66.0522 38.1652 64.6372 37.3119 63.2897 36.3424C62.2597 35.5861 61.2395 34.8104 60.1903 34.093C58.2267 32.7064 55.5508 32.8616 53 32.8131C53 32.1732 53.0193 31.5332 53.0193 30.8933C53.0193 30.2437 53 29.6038 53 28.9639C55.5508 28.9154 58.2267 29.0705 60.1903 27.684C61.2395 26.9665 62.2597 26.1909 63.2897 25.4346C64.6372 24.465 66.0522 23.6118 67.7078 23.1852C68.9399 22.8846 70.1816 23.001 71.4137 22.9331C70.8168 22.2059 70.2201 21.6242 69.5559 20.9552C69.373 20.7709 69.219 20.5576 69.373 20.2861C69.4886 20.0728 69.7003 20.0147 69.9313 20.0147C70.7206 20.005 71.4811 19.9662 72.2704 19.9662C72.8863 19.9662 73.3965 20.1989 73.8296 20.6352C74.9655 21.7987 76.1013 22.9331 77.2275 24.0966C77.8339 24.7171 77.8146 25.1825 77.1986 25.8224C76.0821 26.9665 74.927 28.101 73.8008 29.2644C73.3869 29.6813 72.8959 29.8947 72.3184 29.9141C71.5677 29.9335 70.8168 29.9335 70.0661 29.9335C69.7869 29.9335 69.5078 29.885 69.373 29.5941C69.1998 29.2741 69.4404 29.0802 69.6329 28.8766C70.2393 28.2852 70.8362 27.7034 71.5484 27.015C69.6714 26.792 68.0736 26.9762 66.6586 27.9555C65.4073 28.8281 64.1753 29.7298 62.895 30.6219C62.7507 30.7188 62.6641 30.8061 62.6544 30.8933C62.6641 30.9709 62.7507 31.0581 62.895 31.1551C64.1753 32.0472 65.4073 32.9488 66.6586 33.8215C68.0736 34.8007 69.6714 34.9849 71.5484 34.7619C70.8362 34.0736 70.2393 33.4918 69.6329 32.9003C69.4404 32.6967 69.1998 32.5028 69.373 32.1829C69.5078 31.892 69.7869 31.8435 70.0661 31.8435C70.8168 31.8435 71.5677 31.8435 72.3184 31.8629C72.8959 31.8823 73.3869 32.0956 73.8008 32.5125C74.927 33.6761 76.0821 34.8104 77.1986 35.9545C77.8146 36.5944 77.8339 37.0598 77.2275 37.6804C76.1013 38.8438 74.9655 39.9783 73.8296 41.1418C73.3965 41.5781 72.8863 41.8108 72.2704 41.8108C71.4811 41.8108 70.7206 41.772 69.9313 41.7623C69.7003 41.7623 69.4886 41.7041 69.373 41.4908C69.219 41.2194 69.373 41.006 69.5559 40.8218C70.2201 40.1528 70.8168 39.5711 71.4137 38.8438Z" fill="#DDA641"/>
        <path d="M143.668 28.3373C148.029 23.8772 155.97 26.9023 155.97 33.4275C155.97 41.3684 145.103 43.327 142.157 36.2296C141.07 33.6021 141.599 30.4025 143.668 28.3373ZM148.799 28.7736C142.859 28.7736 142.859 38.0815 148.799 38.0815C154.728 38.0815 154.728 28.7736 148.799 28.7736Z" fill="#7F8FD1" stroke="#7F8FD1" stroke-width="0.739655"/>
    </g>
    <defs>
        <filter id="filter0_b_1682_615" x="-38.9" y="-38.9" width="303.552" height="144.623" filterUnits="userSpaceOnUse" color-interpolation-filters="sRGB">
            <feFlood flood-opacity="0" result="BackgroundImageFix"/>
            <feGaussianBlur in="BackgroundImageFix" stdDeviation="19.45"/>
            <feComposite in2="SourceAlpha" operator="in" result="effect1_backgroundBlur_1682_615"/>
            <feBlend mode="normal" in="SourceGraphic" in2="effect1_backgroundBlur_1682_615" result="shape"/>
        </filter>
        <linearGradient id="paint0_linear_1682_615" x1="225.752" y1="0" x2="117.383" y2="151.042" gradientUnits="userSpaceOnUse">
            <stop stop-color="white" stop-opacity="0"/>
            <stop offset="0.427249" stop-color="white"/>
            <stop offset="1" stop-color="white" stop-opacity="0"/>
        </linearGradient>
        <clipPath id="clip0_1682_615">
            <rect width="120" height="29.404" fill="white" transform="translate(53 19)"/>
        </clipPath>
    </defs>
</svg>
