<svg width="250" height="74" viewBox="0 0 250 74" fill="none" xmlns="http://www.w3.org/2000/svg">
<g filter="url(#filter0_b_1276_422)">
<rect width="250" height="74" rx="37" fill="white" fill-opacity="0.2"/>
<rect x="1" y="1" width="248" height="72" rx="36" stroke="url(#paint0_linear_1276_422)" stroke-width="2"/>
</g>
<g clip-path="url(#clip0_1276_422)">
<mask id="mask0_1276_422" style="mask-type:luminance" maskUnits="userSpaceOnUse" x="38" y="17" width="174" height="40">
<path d="M38 17H212V57H38V17Z" fill="white"/>
</mask>
<g mask="url(#mask0_1276_422)">
<path d="M63.6467 46.1057L56.2729 49.2021V48.8921C54.851 49.2436 53.2762 49.4464 51.784 49.5114C44.8503 49.4464 39.3467 45.9414 39.2823 41.7707V40.2214C41.5597 43.42 46.1963 45.5629 51.784 45.4857C53.6754 45.5629 55.6091 45.2743 57.2343 44.8664L57.8755 43.3179C55.9483 43.8736 53.8442 44.26 51.7847 44.2464C44.8503 44.26 39.3467 40.755 39.2831 36.5064V35.2679C41.5597 38.225 46.186 40.3679 51.7847 40.2221C54.3034 40.3686 56.7664 39.8564 58.8369 38.9829L59.1585 37.435C57.1349 38.4657 54.5125 39.0643 51.7847 38.9829C44.8503 39.0643 39.3467 35.5593 39.2831 31.2421V30.0036C41.5597 33.0293 46.1963 35.1729 51.7847 35.2679C54.9606 35.1729 57.972 34.3621 60.4409 33.1L60.7611 31.2421C58.521 32.8457 55.2501 33.8793 51.7847 34.0286C44.8503 33.8793 39.3474 30.3736 39.2831 25.9786C39.3467 21.7986 44.8503 18.2929 51.7847 18.2379C55.9183 18.2936 59.7573 19.6936 62.0434 21.9536L62.2664 22.3114L63.8821 22.3186L63.6467 21.9536C61.373 18.97 56.8256 17 51.7847 17C44.1119 17 38 21.0843 38 25.9793V42.08C38.2698 46.8586 44.2421 50.7493 51.7847 50.7493C56.7664 50.7493 61.2436 48.8564 63.6467 46.1057Z" fill="white"/>
<path d="M60.6469 57L63.2349 46.375L55.7946 49.5L60.3244 31.0629H51.5879L53.8521 22H81.6767L79.4118 31.0629H70.3536L68.4118 36.0629L78.4409 32L60.6469 57ZM65.1767 44.1871L63.8827 50.4371L74.5588 34.8129L65.823 38.5629L69.7058 29.8129H78.4409L80.0588 23.25H54.8222L53.2043 29.8129H61.9409L57.7342 47.3128L65.176 44.1886L65.1767 44.1871ZM95.2487 27.955C95.1698 29.0314 94.7699 29.8779 94.0468 30.4979C93.3245 31.1157 92.3726 31.4243 91.1912 31.4243C89.8993 31.4243 88.8816 30.9929 88.1418 30.1293C87.4012 29.2664 87.0305 28.0814 87.0305 26.5743V25.9621C87.0305 25.0007 87.2009 24.1536 87.5423 23.42C87.8844 22.6879 88.3728 22.125 89.0067 21.7343C89.6413 21.3414 90.3789 21.1464 91.219 21.1464C92.3814 21.1464 93.3194 21.4557 94.03 22.0743C94.7406 22.6921 95.1515 23.56 95.2626 24.6779H93.1856C93.1344 24.0321 92.9531 23.5636 92.6424 23.2729C92.3302 22.9821 91.8557 22.8371 91.219 22.8371C90.5266 22.8371 90.0083 23.0829 89.6646 23.575C89.321 24.0679 89.1441 24.8314 89.1346 25.8664V26.6221C89.1346 27.7029 89.3006 28.4936 89.6296 28.9921C89.9607 29.4921 90.4806 29.7414 91.1919 29.7414C91.8331 29.7414 92.3119 29.5957 92.6278 29.3057C92.9443 29.0143 93.1249 28.5643 93.1717 27.9557H95.248L95.2487 27.955ZM105.974 26.5121C105.974 27.4979 105.798 28.3607 105.447 29.1021C105.097 29.845 104.595 30.4164 103.941 30.82C103.289 31.2229 102.54 31.4243 101.695 31.4243C100.86 31.4243 100.114 31.2257 99.4584 30.8271C98.8033 30.4279 98.2952 29.8593 97.9355 29.12C97.5751 28.38 97.393 27.5293 97.3886 26.5664V26.0721C97.3886 25.0871 97.567 24.2207 97.9253 23.4721C98.2835 22.7236 98.788 22.1486 99.4415 21.7471C100.094 21.3471 100.842 21.1464 101.682 21.1464C102.522 21.1464 103.268 21.3471 103.921 21.7471C104.574 22.1486 105.08 22.7236 105.437 23.4721C105.795 24.2207 105.974 25.085 105.974 26.065V26.5121ZM103.869 26.0586C103.869 25.0093 103.68 24.2129 103.302 23.6679C102.923 23.1229 102.383 22.85 101.682 22.85C100.984 22.85 100.446 23.1193 100.067 23.6571C99.6894 24.1957 99.4971 24.9843 99.4935 26.025V26.5129C99.4935 27.5343 99.6828 28.3264 100.061 28.8893C100.439 29.4529 100.984 29.735 101.695 29.735C102.392 29.735 102.927 29.4636 103.302 28.9207C103.675 28.3779 103.865 27.5864 103.869 26.5464V26.0586ZM110.771 31.2871H108.695V21.2836H110.771V31.2871ZM121.975 31.2871H119.898L115.854 24.7057V31.2871H113.777V21.2836H115.854L119.905 27.8793V21.2836H121.975V31.2871ZM132.257 22.9536H129.17V31.2871H127.093V22.9536H124.046V21.2836H132.257V22.9536ZM140.587 26.9521H136.599V29.6314H141.28V31.2871H134.522V21.2836H141.266V22.9536H136.599V25.3371H140.587V26.9521ZM145.655 29.6314H150.066V31.2871H143.578V21.2836H145.655V29.6314ZM158.403 26.9514H154.415V29.6314H159.095V31.2871H152.338V21.2836H159.081V22.9536H154.415V25.3371H158.403V26.9514ZM169.371 30.0229C168.997 30.4671 168.468 30.8121 167.785 31.0564C167.102 31.3021 166.345 31.425 165.514 31.425C164.641 31.425 163.876 31.2357 163.218 30.8579C162.561 30.4793 162.053 29.9314 161.696 29.2121C161.337 28.4929 161.155 27.6479 161.145 26.6771V25.9964C161.145 24.9979 161.315 24.1336 161.654 23.4036C161.993 22.6736 162.483 22.1136 163.121 21.7271C163.761 21.34 164.51 21.1464 165.369 21.1464C166.564 21.1464 167.499 21.4293 168.173 21.995C168.847 22.5607 169.246 23.3843 169.371 24.465H167.348C167.256 23.8921 167.052 23.4736 166.736 23.2079C166.42 22.9421 165.984 22.8093 165.431 22.8093C164.724 22.8093 164.187 23.0729 163.817 23.5993C163.448 24.1257 163.261 24.9093 163.256 25.9493V26.5879C163.256 27.6371 163.457 28.4286 163.859 28.965C164.26 29.5007 164.849 29.7686 165.624 29.7686C166.405 29.7686 166.962 29.6043 167.293 29.2743V27.55H165.403V26.0314H169.371V30.0229ZM175.865 27.6257H174.211V31.2871H172.133V21.2836H175.879C177.07 21.2836 177.989 21.5471 178.634 22.0743C179.281 22.6007 179.604 23.3443 179.604 24.3064C179.604 24.9893 179.455 25.5586 179.158 26.0136C178.86 26.47 178.408 26.8329 177.804 27.1029L179.985 31.1907V31.2871H177.755L175.865 27.6257ZM174.211 25.9557H175.885C176.407 25.9557 176.811 25.8236 177.097 25.5607C177.384 25.2964 177.527 24.9343 177.527 24.4714C177.527 24 177.392 23.6286 177.122 23.3586C176.852 23.0886 176.438 22.9536 175.879 22.9536H174.21L174.211 25.9557ZM187.955 29.2257H184.313L183.62 31.2871H181.412L185.164 21.2836H187.089L190.862 31.2871H188.654L187.955 29.2257ZM184.873 27.5571H187.393L186.126 23.8114L184.873 27.5571ZM194.962 27.7629V31.2871H192.885V21.2836H196.817C197.574 21.2836 198.24 21.4207 198.815 21.6964C199.39 21.9707 199.832 22.3607 200.141 22.8679C200.45 23.3736 200.604 23.9493 200.604 24.5957C200.604 25.5757 200.267 26.3486 199.59 26.9136C198.914 27.48 197.978 27.7629 196.783 27.7629H194.962ZM194.962 26.0929H196.817C197.367 26.0929 197.785 25.965 198.074 25.7086C198.363 25.4514 198.507 25.085 198.507 24.6093C198.507 24.1193 198.361 23.7221 198.07 23.42C197.78 23.1186 197.378 22.9629 196.865 22.9536H194.962V26.0929ZM211.316 31.2871H209.238V27H205.189V31.2871H203.111V21.2836H205.189V25.3371H209.238V21.2836H211.316V31.2871Z" fill="#FABF2C"/>
<path d="M88.6938 42.1721V40.1071H91.9684V39.1621H87.4795V46.0429H88.6931V43.1129H91.5663V42.1714H88.6931L88.6938 42.1721ZM94.2509 42.5479V46.0429H93.0855V40.9286H94.1975L94.2304 41.5293C94.3542 41.3164 94.531 41.1376 94.7444 41.0093C94.9439 40.8921 95.175 40.8343 95.436 40.8343C95.5069 40.8343 95.5822 40.8407 95.6633 40.8529C95.7474 40.8657 95.8096 40.88 95.852 40.8957L95.8425 41.9543C95.6858 41.9296 95.5274 41.9169 95.3687 41.9164C95.1684 41.9164 94.9929 41.945 94.8409 42.0014C94.6966 42.0502 94.5657 42.1309 94.4585 42.2371C94.3705 42.3272 94.3001 42.433 94.2509 42.5479Z" fill="white"/>
<path fill-rule="evenodd" clip-rule="evenodd" d="M99.6338 45.6836C99.6856 45.6372 99.7354 45.5886 99.7829 45.5378L99.7887 45.575C99.8209 45.7636 99.864 45.92 99.9189 46.0428H101.114V45.9671C101.044 45.8147 100.994 45.6545 100.964 45.49C100.93 45.2822 100.914 45.0719 100.915 44.8614V42.5879C100.915 42.1971 100.827 41.8736 100.649 41.6143C100.475 41.3527 100.224 41.1486 99.9291 41.0286C99.6257 40.9 99.2777 40.835 98.8836 40.835C98.5547 40.835 98.2586 40.8778 97.9939 40.9621C97.7293 41.0478 97.5019 41.1643 97.3118 41.3121C97.1217 41.46 96.9762 41.6286 96.8768 41.8178C96.7791 41.9984 96.7277 42.1994 96.7269 42.4036H97.8879C97.8879 42.2678 97.9266 42.1464 98.0034 42.0393C98.0809 41.9321 98.1891 41.8478 98.328 41.785C98.4669 41.7214 98.6307 41.69 98.8208 41.69C99.0277 41.69 99.1987 41.7264 99.334 41.7986C99.4729 41.8714 99.5753 41.9736 99.6433 42.1057C99.7112 42.2386 99.7456 42.3957 99.7456 42.5786V42.9328H98.9999C98.6197 42.9328 98.2812 42.9707 97.9837 43.0471C97.6876 43.1186 97.4361 43.2257 97.2299 43.3678C97.0267 43.51 96.8717 43.6864 96.7657 43.8971C96.6586 44.122 96.6056 44.3678 96.6107 44.6157C96.6107 44.9057 96.6867 45.1657 96.8373 45.395C96.9894 45.6221 97.1992 45.8036 97.4668 45.9386C97.7344 46.0707 98.0392 46.1371 98.3807 46.1371C98.842 46.1458 99.2896 45.9838 99.6338 45.6836ZM99.6579 44.7386C99.6922 44.6914 99.7215 44.645 99.7456 44.5993V43.6371H99.0876C98.8712 43.6371 98.6811 43.6578 98.5166 43.6986C98.3695 43.7289 98.2298 43.7866 98.105 43.8686C97.9954 43.9443 97.9135 44.0357 97.8587 44.1428C97.8038 44.25 97.776 44.3714 97.776 44.5071C97.776 44.6428 97.8082 44.7664 97.8733 44.88C97.9389 44.9913 98.0361 45.0817 98.1533 45.14C98.279 45.2028 98.4311 45.2343 98.608 45.2343C98.8471 45.2343 99.0547 45.1871 99.2324 45.0929C99.413 44.995 99.5548 44.8771 99.6579 44.7386Z" fill="white"/>
<path d="M103.677 42.4086V46.0429H102.512V40.9286H103.61L103.648 41.545C103.83 41.3179 104.064 41.1359 104.331 41.0136C104.597 40.8916 104.888 40.8303 105.182 40.8343C105.433 40.8343 105.661 40.8686 105.864 40.9379C106.07 41.0043 106.246 41.1129 106.391 41.2643C106.539 41.4157 106.652 41.6122 106.729 41.855C106.807 42.0943 106.846 42.3886 106.846 42.7386V46.0422H105.675V42.7343C105.675 42.4879 105.639 42.2943 105.564 42.1529C105.502 42.0162 105.39 41.9068 105.25 41.8457C105.09 41.7777 104.916 41.7453 104.742 41.7507C104.541 41.7507 104.363 41.7922 104.204 41.8736C104.046 41.9557 103.912 42.0679 103.803 42.2093C103.757 42.2714 103.715 42.3386 103.677 42.4086ZM110.56 45.23C110.75 45.23 110.921 45.1943 111.073 45.1214C111.227 45.0457 111.351 44.9414 111.445 44.8093C111.541 44.6771 111.595 44.5236 111.604 44.3507H112.702C112.699 44.6745 112.594 44.9894 112.403 45.2536C112.21 45.525 111.953 45.74 111.634 45.9007C111.315 46.0579 110.961 46.1372 110.574 46.1372C110.174 46.1372 109.826 46.0707 109.529 45.9386C109.243 45.8105 108.989 45.6199 108.79 45.3814C108.589 45.1389 108.438 44.8613 108.344 44.5636C108.246 44.2415 108.197 43.9069 108.2 43.5707V43.4057C108.2 43.0529 108.248 42.7221 108.344 42.4129C108.445 42.1014 108.593 41.8272 108.79 41.5914C108.986 41.355 109.233 41.17 109.529 41.0379C109.826 40.9022 110.173 40.835 110.57 40.835C110.989 40.835 111.356 40.9164 111.672 41.0807C111.988 41.2414 112.237 41.4664 112.417 41.7564C112.601 42.0429 112.697 42.3772 112.702 42.7586H111.604C111.598 42.5796 111.548 42.4046 111.46 42.2479C111.377 42.0952 111.253 41.9676 111.101 41.8793C110.936 41.7844 110.747 41.7369 110.555 41.7422C110.32 41.7422 110.124 41.7893 109.97 41.8836C109.816 41.9746 109.69 42.1056 109.607 42.2622C109.519 42.4193 109.457 42.5979 109.418 42.7964C109.382 42.9976 109.364 43.2015 109.365 43.4057V43.5707C109.365 43.7822 109.383 43.9871 109.418 44.185C109.454 44.3843 109.515 44.5621 109.602 44.7193C109.693 44.8736 109.815 44.9979 109.97 45.0929C110.125 45.1843 110.321 45.23 110.56 45.23Z" fill="white"/>
<path fill-rule="evenodd" clip-rule="evenodd" d="M115.242 45.9529C115.554 46.0757 115.904 46.1371 116.291 46.1371C116.633 46.1371 116.933 46.0914 117.191 46C117.431 45.9201 117.655 45.8003 117.854 45.6457C118.034 45.4978 118.181 45.3436 118.294 45.1829L117.68 44.6014C117.518 44.8028 117.328 44.9586 117.109 45.0693C116.876 45.1824 116.619 45.2391 116.359 45.2343C116.136 45.2343 115.938 45.195 115.764 45.1164C115.593 45.0371 115.441 44.9226 115.319 44.7807C115.194 44.6346 115.098 44.4663 115.038 44.285C114.991 44.1359 114.962 43.982 114.952 43.8264H118.386V43.3393C118.386 42.9707 118.339 42.6336 118.246 42.3278C118.164 42.0397 118.023 41.7712 117.83 41.5393C117.643 41.3139 117.404 41.1355 117.133 41.0193C116.852 40.8964 116.525 40.835 116.151 40.835C115.827 40.8321 115.506 40.8949 115.208 41.0193C114.919 41.1408 114.662 41.323 114.453 41.5529C114.24 41.7829 114.074 42.06 113.955 42.385C113.831 42.7345 113.771 43.1024 113.776 43.4721V43.6607C113.776 44.0107 113.834 44.3364 113.95 44.6393C114.066 44.9414 114.232 45.2043 114.448 45.4286C114.668 45.6521 114.932 45.8271 115.242 45.9529ZM114.976 43.0086C114.989 42.9214 115.005 42.8379 115.024 42.7586C115.078 42.5443 115.156 42.3614 115.256 42.21C115.348 42.066 115.476 41.9473 115.628 41.865C115.78 41.7829 115.953 41.7421 116.146 41.7421C116.404 41.7421 116.61 41.7971 116.765 41.9078C116.92 42.0178 117.034 42.1629 117.109 42.3421C117.186 42.5221 117.228 42.7136 117.234 42.9186V43.0086H114.976Z" fill="white"/>
</g>
</g>
<defs>
<filter id="filter0_b_1276_422" x="-38.9" y="-38.9" width="327.8" height="151.8" filterUnits="userSpaceOnUse" color-interpolation-filters="sRGB">
<feFlood flood-opacity="0" result="BackgroundImageFix"/>
<feGaussianBlur in="BackgroundImageFix" stdDeviation="19.45"/>
<feComposite in2="SourceAlpha" operator="in" result="effect1_backgroundBlur_1276_422"/>
<feBlend mode="normal" in="SourceGraphic" in2="effect1_backgroundBlur_1276_422" result="shape"/>
</filter>
<linearGradient id="paint0_linear_1276_422" x1="250" y1="0" x2="129.992" y2="167.265" gradientUnits="userSpaceOnUse">
<stop stop-color="white" stop-opacity="0"/>
<stop offset="0.427249" stop-color="white"/>
<stop offset="1" stop-color="white" stop-opacity="0"/>
</linearGradient>
<clipPath id="clip0_1276_422">
<rect width="174" height="40" fill="white" transform="translate(38 17)"/>
</clipPath>
</defs>
</svg>
