<svg width="250" height="74" viewBox="0 0 250 74" fill="none" xmlns="http://www.w3.org/2000/svg">
<g filter="url(#filter0_b_925_1320)">
<rect width="250" height="74" rx="37" fill="white" fill-opacity="0.2"/>
<rect x="1" y="1" width="248" height="72" rx="36" stroke="url(#paint0_linear_925_1320)" stroke-width="2"/>
</g>
<path d="M41.5113 44.0083C41.4195 44.799 41.2482 45.5784 41 46.3347C41.8948 47.3061 43.991 47.843 45.2693 47.843C48.8483 47.843 51.7498 45.6189 51.7498 41.8609C51.7498 36.2751 43.4925 38.218 43.4925 33.3863C43.4925 31.5329 44.988 30.3186 46.7903 30.3186C48.337 30.3186 49.5002 31.1878 50.0498 32.6066H50.3054C50.5227 31.8652 50.7017 31.1367 51.0212 30.4592C49.9529 29.615 48.6247 29.1677 47.2633 29.1938C44.1189 29.1938 41.4474 30.8554 41.4474 34.2299C41.4474 40.1609 49.6535 38.0007 49.6535 42.8835C49.6535 44.9542 48.1325 46.7182 46.0106 46.7182C43.9655 46.7182 42.7895 45.67 41.7669 43.9828H41.5113V44.0083ZM55.9935 39.8158C56.1469 37.6044 57.2206 35.2525 59.7004 35.2525C62.2824 35.2525 62.9215 37.5278 62.9726 39.8158H55.9935ZM64.417 44.4174C63.4002 45.4953 62.0104 46.1445 60.5312 46.2324C57.3612 46.2324 55.7634 43.7143 55.9935 40.7744H59.7004C61.4515 40.7744 63.2282 40.8 65.0177 40.8639C65.2734 36.4796 62.6019 34.4345 59.6876 34.4345C55.789 34.4345 53.6799 37.2465 53.6799 40.8895C53.6799 44.9542 56.2619 47.3317 59.8793 47.3317C61.4771 47.3317 63.1004 46.7054 64.3786 45.7978L64.417 44.4174ZM69.4276 39.8158C69.581 37.6044 70.6547 35.2525 73.1344 35.2525C75.7164 35.2525 76.3556 37.5278 76.4067 39.8158H69.4276ZM77.8383 44.4174C76.8255 45.4934 75.4403 46.1426 73.9653 46.2324C70.7953 46.2324 69.1847 43.7143 69.4276 40.7744H73.1344C74.8856 40.7744 76.6623 40.8 78.4518 40.8639C78.7075 36.4796 76.0232 34.4345 73.1217 34.4345C69.2231 34.4345 67.114 37.2465 67.114 40.8895C67.114 44.9542 69.696 47.3317 73.3134 47.3317C74.9112 47.3317 76.5345 46.7054 77.8255 45.7978L77.8383 44.4174ZM82.6572 27.711C82.2609 27.7494 81.9414 27.8005 81.5963 27.8005C81.2384 27.8005 80.8932 27.7494 80.5481 27.711V47.4084C80.8932 47.3828 81.2384 47.3317 81.5963 47.3317C81.9414 47.3317 82.2609 47.3828 82.6572 47.4084V42.0654C82.6572 40.9278 83.0151 40.8511 83.5903 41.5158C85.2775 43.4331 87.3482 45.7595 88.6009 47.4084C89.0227 47.3828 89.4445 47.3317 89.9175 47.3317C90.3393 47.3317 90.6972 47.3828 91.1957 47.4084V47.2806C89.125 44.9159 86.9264 42.2955 85.0347 40.1225C87.4633 37.8345 89.7641 36.0067 90.8122 35.0608V34.8818C90.416 34.8946 90.0964 34.9585 89.7896 34.9585C89.4062 34.9585 89.0738 34.8946 88.7415 34.8818L86.6964 37.1315L85.0602 38.7932C84.7279 39.1255 83.3346 40.621 82.785 40.3271C82.5421 40.1992 82.6572 39.8158 82.6572 39.4706V27.711ZM95.9123 30.5487C95.9123 29.8073 95.2732 29.2065 94.583 29.2065C94.227 29.2065 93.8856 29.3479 93.6339 29.5996C93.3822 29.8513 93.2408 30.1927 93.2408 30.5487C93.2408 30.9046 93.3822 31.246 93.6339 31.4977C93.8856 31.7494 94.227 31.8908 94.583 31.8908C95.286 31.8908 95.9123 31.2773 95.9123 30.5487ZM95.6311 35.0224C95.2349 35.0608 94.9153 35.1119 94.583 35.1119C94.1995 35.1119 93.8672 35.0608 93.522 35.0352V47.5618C93.8672 47.5362 94.2123 47.4851 94.583 47.4851C94.9153 47.4851 95.2221 47.5362 95.6311 47.5618V35.0352V35.0224ZM97.7146 47.1272C98.0597 47.1016 98.4048 47.0505 98.7627 47.0505C99.1079 47.0505 99.4274 47.1016 99.8109 47.1272V41.0429C99.8109 37.809 100.501 35.8022 103.262 35.8022C105.716 35.8022 106.164 37.7195 106.164 40.1481V47.1272C106.496 47.1016 106.841 47.0505 107.212 47.0505C107.544 47.0505 107.864 47.1016 108.26 47.1272V39.5346C108.26 36.0834 107.084 34.4217 104.042 34.4217C102.176 34.4217 100.731 35.3676 99.8237 36.9653V34.5751C99.4274 34.6006 99.1079 34.6518 98.7627 34.6518C98.4048 34.6518 98.0597 34.6006 97.7146 34.5751V47.1016V47.1272ZM112.043 38.5887C112.043 36.5947 113.117 35.1375 115.009 35.1375C117.08 35.1375 117.821 36.6969 117.821 38.7165C117.821 40.506 116.811 42.1549 114.907 42.1549C112.989 42.1549 111.967 40.4421 112.043 38.5759V38.5887ZM120.863 34.5239C120.25 34.6262 119.623 34.6518 118.984 34.5751L115.341 34.4472C111.519 34.3194 110.049 36.0706 110.049 38.6142C110.049 40.5443 111.021 41.6308 112.593 42.3594C111.571 42.8068 110.791 43.3564 110.791 44.6219C110.791 46.2196 111.622 46.6031 112.389 46.7437V46.9482C110.752 47.2422 109.653 48.2265 109.653 50.1182C109.653 52.8792 112.248 53.9784 114.408 53.9784C118.409 53.9784 121.055 51.8822 121.055 48.8144C121.055 46.5775 119.623 45.3249 116.53 45.3249H114.843C113.271 45.3249 112.325 45.1715 112.325 44.0595C112.325 42.5384 113.91 42.8068 114.216 42.8068C117.259 42.8068 119.802 41.5925 119.802 38.7421C119.802 37.2721 119.074 36.1217 118 35.2909L120.876 35.5209V34.5239H120.863ZM115.316 46.9227C117.284 46.9227 119.176 47.1016 119.176 49.837C119.176 52.304 116.913 53.1859 115.034 53.1859C112.862 53.1859 111.264 52.1378 111.264 50.016C111.264 47.8941 112.593 46.8971 115.316 46.9227ZM139.806 39.3556H134.054L136.905 32.645L139.819 39.3556H139.806ZM137.851 29.2065H137.25L129.069 47.5362C129.351 47.5106 129.645 47.4595 129.977 47.4595C130.296 47.4595 130.578 47.5106 130.948 47.5362C131.69 45.0692 132.636 42.7685 133.543 40.4549H140.203C141.213 42.7792 142.134 45.1414 142.964 47.5362C143.411 47.5106 143.858 47.4595 144.357 47.4595C144.791 47.4595 145.213 47.5106 145.712 47.5362L137.851 29.2065ZM147.731 47.4084C148.064 47.3828 148.396 47.3317 148.767 47.3317C149.112 47.3317 149.419 47.3828 149.815 47.4084V27.7238C149.431 27.7494 149.112 27.8005 148.767 27.8005C148.396 27.8005 148.064 27.7494 147.719 27.711V47.4084H147.731ZM154.289 44.8136H154.34C155.209 46.4497 156.5 47.3317 158.379 47.3317C161.741 47.3317 164.041 44.7369 164.041 40.4293C164.041 37.2977 162.162 34.4217 158.775 34.4217C155.605 34.4217 154.787 36.339 154.34 37.2338H154.289V34.5878C153.905 34.6134 153.586 34.6645 153.24 34.6645C152.883 34.6645 152.537 34.6134 152.192 34.5878V53.8506C152.537 53.8251 152.883 53.7739 153.24 53.7739C153.586 53.7739 153.905 53.8251 154.289 53.8506V44.8264V44.8136ZM154.289 41.1962C154.289 38.7676 155.081 35.3164 158.123 35.3164C160.948 35.3164 161.741 37.9751 161.741 40.5444C161.741 43.5865 160.795 46.2324 158.149 46.2324C155.465 46.2324 154.289 44.0083 154.289 41.1962ZM166.381 47.4084C166.713 47.3828 167.058 47.3317 167.429 47.3317C167.761 47.3317 168.081 47.3828 168.477 47.4084V40.2759C168.477 37.5533 169.551 36.0834 171.902 36.0834C174.139 36.0834 174.817 37.5278 174.817 40.4293V47.4084C175.162 47.3828 175.494 47.3317 175.865 47.3317C176.21 47.3317 176.53 47.3828 176.913 47.4084V39.8285C176.913 36.5307 175.737 34.7157 172.695 34.7157C170.842 34.7157 169.397 35.6616 168.477 37.2721V27.6982C168.081 27.7366 167.761 27.7877 167.429 27.7877C167.058 27.7877 166.713 27.7366 166.381 27.6982V47.3956V47.4084ZM185.848 44.4174C185.848 44.6091 185.324 45.0565 185.132 45.2354C184.634 45.7467 183.752 46.2324 183.036 46.2324C181.438 46.2324 180.479 45.4271 180.479 43.7655C180.479 41.388 183.138 41.1195 184.928 40.7744L185.848 40.5955V44.4301V44.4174ZM187.944 38.8443C187.944 35.8788 186.449 34.4345 183.688 34.4345C182.154 34.4345 180.735 35.0097 179.47 35.8788V37.3488H179.764C179.942 36.7736 180.965 35.5337 182.882 35.5337C184.851 35.5337 185.95 36.6586 185.95 38.6015C185.95 39.8669 185.234 40.0075 183.164 40.3654C180.697 40.7489 178.306 41.1451 178.306 44.1361C178.306 46.079 179.942 47.3317 181.809 47.3317C183.381 47.3317 184.582 46.7821 185.682 45.6828L185.925 45.4527C186.129 46.9866 187.267 47.2039 188.622 46.9738C188.916 46.9227 189.222 46.7821 189.414 46.7182V46.1302C187.867 46.4753 187.944 45.9512 187.944 44.9286V38.8443Z" fill="white"/>
<path d="M190.269 28.8227C190.755 21.1662 196.788 21 196.788 21C201.134 21.0256 202.374 25.6655 202.374 25.6655C202.425 25.9211 204.956 21.3196 204.956 21.3196H206.387C203.473 27.6467 203.588 30.2415 203.588 30.2415C203.345 33.6416 205.263 34.8048 205.263 34.8048C207.052 35.9552 207.167 32.619 207.167 32.619C207.551 32.4656 207.806 32.3378 207.806 32.3378C208.752 36.965 205.902 36.6454 205.902 36.6454C203.678 36.8755 202.732 33.2709 202.732 33.2709C199.587 37.4123 195.957 36.5176 195.957 36.5176C189.758 35.7251 190.269 28.8227 190.269 28.8227ZM192.864 28.8227C192.864 32.4017 194.653 35.3416 197.031 35.2777C200.38 35.1755 201.351 32.3762 201.351 28.7844C201.351 25.2053 199.421 22.2654 197.031 22.3038C194.091 22.3421 192.864 25.2437 192.864 28.8227Z" fill="white"/>
<defs>
<filter id="filter0_b_925_1320" x="-38.9" y="-38.9" width="327.8" height="151.8" filterUnits="userSpaceOnUse" color-interpolation-filters="sRGB">
<feFlood flood-opacity="0" result="BackgroundImageFix"/>
<feGaussianBlur in="BackgroundImageFix" stdDeviation="19.45"/>
<feComposite in2="SourceAlpha" operator="in" result="effect1_backgroundBlur_925_1320"/>
<feBlend mode="normal" in="SourceGraphic" in2="effect1_backgroundBlur_925_1320" result="shape"/>
</filter>
<linearGradient id="paint0_linear_925_1320" x1="250" y1="0" x2="129.992" y2="167.265" gradientUnits="userSpaceOnUse">
<stop stop-color="white" stop-opacity="0"/>
<stop offset="0.427249" stop-color="white"/>
<stop offset="1" stop-color="white" stop-opacity="0"/>
</linearGradient>
</defs>
</svg>
