<svg width="250" height="74" viewBox="0 0 250 74" fill="none" xmlns="http://www.w3.org/2000/svg">
<g filter="url(#filter0_b_925_1262)">
<rect width="250" height="74" rx="37" fill="white" fill-opacity="0.2"/>
<rect x="1" y="1" width="248" height="72" rx="36" stroke="url(#paint0_linear_925_1262)" stroke-width="2"/>
</g>
<g clip-path="url(#clip0_925_1262)">
<path d="M146.824 37.55C146.824 42.075 144.238 44.775 139.985 44.775C135.732 44.775 133.146 42.075 133.146 37.55C133.146 33.025 135.757 30.325 139.985 30.325C144.238 30.325 146.824 33.025 146.824 37.55ZM136.851 37.55C136.851 40.425 137.946 41.9 139.985 41.9C142.024 41.9 143.094 40.4 143.094 37.55C143.094 34.7 141.999 33.2 139.985 33.2C137.97 33.2 136.851 34.675 136.851 37.55ZM163.463 44.55H159.434L155.106 36.975L154.062 34.85H154.037L154.111 37.475V44.55H150.903V30.525H154.086C154.609 30.525 155.106 30.825 155.38 31.275L159.284 38.1L160.329 40.225H160.354L160.279 37.6V30.525H163.487L163.463 44.55ZM179.255 41.725V44.55H168.611V30.525H172.242V41.725H179.255ZM187.04 44.55H183.409V30.525H187.04V44.55ZM204.623 44.55H200.594L196.267 36.975L195.222 34.85H195.197L195.272 37.475V44.55H192.064V30.525H195.222C195.744 30.525 196.242 30.825 196.515 31.275L200.42 38.1L201.465 40.225H201.49L201.415 37.6V30.525H204.623V44.55ZM220.739 41.725V44.55H209.597V30.525H220.466V33.35H213.228V36.2H218.973V38.85H213.228V41.725H220.739Z" fill="white"/>
<path fill-rule="evenodd" clip-rule="evenodd" d="M53.3979 38.625C53 38.65 52.7016 38.775 52.4529 39C52.2041 39.2 52.0301 39.475 51.9306 39.875C51.8311 40.25 51.8062 40.7 51.8062 41.25C51.8062 41.7 51.8311 42.05 51.9057 42.375C51.9554 42.675 52.0549 42.925 52.1544 43.075C52.2539 43.175 52.428 43.25 52.6269 43.25C52.9254 43.25 53.1741 43.125 53.3979 42.875C53.6218 42.625 53.771 42.275 53.8953 41.825C54.0197 41.375 54.0694 40.85 54.0694 40.25V38.55L53.3979 38.625ZM103.611 35.3C103.512 34.75 103.388 34.3 103.213 34C103.039 33.7 102.791 33.55 102.517 33.55C102.244 33.55 101.97 33.7 101.721 34C101.497 34.3 101.323 34.7 101.174 35.275C101.05 35.825 100.975 36.5 100.975 37.325H103.736C103.761 36.525 103.711 35.875 103.611 35.3ZM113.808 35.3C113.709 34.75 113.584 34.3 113.41 34C113.236 33.7 112.988 33.55 112.714 33.55C112.44 33.55 112.167 33.7 111.918 34C111.694 34.3 111.52 34.7 111.371 35.275C111.247 35.825 111.172 36.5 111.172 37.325H113.933C113.958 36.525 113.908 35.875 113.808 35.3ZM29 24V49H128.482V24H29ZM47.6528 33.725C47.5036 33.825 47.3544 34 47.2549 34.25C47.1306 34.5 47.0062 34.875 46.8819 35.375L44.4446 44.575H42.1813L40.3907 37.025L38.5005 44.575H36.2124L33.8497 34.825C33.7751 34.5 33.6756 34.25 33.5513 34.075C33.4518 33.9 33.3026 33.8 33.1534 33.725C32.9793 33.65 32.7803 33.6 32.5316 33.6H32.4819V32.4H38.3513V33.6H38.1275C37.7544 33.6 37.4808 33.675 37.2819 33.8C37.1078 33.925 37.0083 34.175 37.0083 34.55C37.0083 34.675 37.0332 34.825 37.058 35.025C37.1078 35.2 37.1326 35.375 37.1824 35.55L37.7295 38.475C37.8041 38.85 37.8788 39.2 37.9285 39.6C38.0031 39.975 38.0528 40.35 38.1026 40.7C38.1523 41.025 38.2021 41.325 38.2269 41.55H38.3016C38.3264 41.3 38.3762 41.05 38.4259 40.75C38.4756 40.45 38.5503 40.15 38.6249 39.85C38.6995 39.55 38.7741 39.275 38.8238 39L40.6891 32.525H41.9326L43.6736 39.225C43.7233 39.4 43.7731 39.575 43.7979 39.8C43.8477 40 43.8725 40.225 43.9223 40.45C43.9472 40.65 43.972 40.875 43.9969 41.075C44.0218 41.25 44.0466 41.425 44.0715 41.575H44.1461C44.171 41.325 44.1959 41.1 44.2456 40.85C44.2953 40.6 44.3451 40.35 44.3699 40.075C44.4197 39.775 44.4694 39.5 44.544 39.2L45.315 35.875C45.3648 35.675 45.3896 35.475 45.4394 35.25C45.4642 35.025 45.4891 34.85 45.4891 34.725C45.4891 34.325 45.3896 34.05 45.1658 33.875C44.9668 33.7 44.6684 33.6 44.2705 33.6H44.1461V32.4H48.5233V33.6H48.2746C48.0259 33.6 47.8269 33.65 47.6528 33.725ZM58.0238 44.625H54.6912L54.2684 43.05H54.0943C53.7959 43.45 53.5471 43.8 53.2984 44.075C53.0497 44.325 52.7762 44.525 52.4777 44.65C52.1544 44.75 51.7813 44.825 51.3337 44.825C50.7865 44.825 50.2891 44.7 49.8415 44.45C49.3938 44.175 49.0456 43.775 48.772 43.225C48.5233 42.675 48.399 41.975 48.399 41.125C48.399 39.875 48.7471 38.975 49.4187 38.4C50.115 37.8 51.1596 37.475 52.5275 37.425L54.0694 37.35V36.1C54.0694 35.55 54.0197 35.075 53.9451 34.7C53.8705 34.3 53.7461 34 53.572 33.825C53.4228 33.625 53.2238 33.525 52.9503 33.525C52.7016 33.525 52.4777 33.625 52.3285 33.825C52.1793 34 52.0549 34.275 51.9554 34.675C51.8808 35.05 51.8311 35.475 51.8311 36C50.9109 36 50.2145 35.875 49.7668 35.625C49.3192 35.375 49.1202 35 49.1202 34.475C49.1202 33.95 49.2943 33.525 49.6674 33.175C50.0404 32.825 50.5378 32.575 51.1596 32.4C51.7813 32.225 52.4529 32.15 53.2238 32.15C54.5917 32.15 55.6363 32.45 56.3326 33.025C57.029 33.6 57.4021 34.6 57.4021 36.025V41.825C57.4021 42.25 57.4269 42.575 57.5016 42.8C57.5762 43.025 57.7005 43.2 57.8746 43.3L58.0238 43.375V44.625ZM71.7523 44.575H58.8446V43.4H59.0933C59.3171 43.4 59.5161 43.35 59.715 43.275C59.914 43.2 60.0383 43.025 60.1378 42.8C60.2373 42.55 60.287 42.225 60.287 41.775V29.925C60.287 29.525 60.2124 29.225 60.0632 29.025C59.914 28.825 59.7399 28.7 59.5409 28.65C59.3668 28.6 59.1927 28.55 59.0684 28.55H58.8446V27.35H63.6446V41.75C63.6446 42.2 63.6943 42.525 63.7938 42.775C63.8933 43 64.0425 43.15 64.2166 43.25C64.4155 43.35 64.6394 43.375 64.8632 43.375H65.8083C66.0321 43.375 66.2311 43.325 66.43 43.25C66.629 43.175 66.7534 43 66.8528 42.775C66.9523 42.525 67.0021 42.2 67.0021 41.75V29.925C67.0021 29.525 66.9275 29.225 66.7782 29.025C66.629 28.825 66.4549 28.7 66.256 28.65C66.0819 28.6 65.9078 28.55 65.7834 28.55H65.5596V27.35H70.3596V41.75C70.3596 42.2 70.4093 42.525 70.5088 42.775C70.6083 43 70.7575 43.15 70.9316 43.25C71.1306 43.35 71.3544 43.375 71.5782 43.375H71.7523V44.575ZM79.313 43.8C78.6414 44.5 77.5969 44.85 76.2041 44.85C75.2342 44.85 74.4383 44.75 73.8414 44.525C73.2694 44.3 72.8715 44 72.6228 43.625C72.3741 43.25 72.2497 42.8 72.2497 42.275C72.2497 41.875 72.3243 41.55 72.4984 41.325C72.6725 41.075 72.8715 40.9 73.1451 40.8C73.4435 40.7 73.742 40.65 74.0653 40.65C74.0653 41.275 74.1648 41.8 74.3389 42.225C74.513 42.65 74.7617 42.975 75.085 43.175C75.4083 43.375 75.7813 43.5 76.2041 43.5C76.8259 43.5 77.2487 43.35 77.5223 43.05C77.771 42.75 77.8953 42.375 77.8953 41.925C77.8953 41.6 77.8207 41.3 77.6466 41.075C77.4974 40.85 77.2736 40.625 76.9503 40.45C76.6269 40.25 76.229 40.025 75.7067 39.825C74.9606 39.5 74.3389 39.175 73.8414 38.85C73.3689 38.5 72.9959 38.1 72.7223 37.625C72.4736 37.15 72.3492 36.525 72.3492 35.8C72.3492 34.6 72.7223 33.675 73.4933 33.1C74.2891 32.5 75.3088 32.2 76.5772 32.2C77.3979 32.2 78.0446 32.3 78.542 32.525C79.0394 32.725 79.4124 32.975 79.6363 33.325C79.885 33.65 80.0093 34 80.0093 34.375C80.0093 34.875 79.8601 35.25 79.5617 35.5C79.2632 35.75 78.7658 35.875 78.1192 35.875C78.1192 35.125 77.9451 34.55 77.5969 34.15C77.2487 33.75 76.8259 33.55 76.3036 33.55C76.03 33.55 75.7813 33.6 75.5824 33.7C75.3834 33.8 75.2093 33.975 75.085 34.175C74.9855 34.375 74.9357 34.625 74.9357 34.9C74.9357 35.25 74.9855 35.525 75.1098 35.775C75.2342 36 75.4829 36.225 75.7813 36.4C76.1047 36.6 76.5772 36.825 77.1492 37.05C77.8207 37.325 78.3927 37.625 78.8902 37.95C79.3876 38.275 79.7606 38.675 80.0093 39.15C80.2829 39.625 80.4073 40.225 80.4073 40.975C80.4073 42.15 80.0342 43.075 79.313 43.8ZM96.9461 35.7C96.4736 36.025 95.8269 36.175 95.0311 36.175C95.0311 35.75 95.0062 35.4 94.9565 35.125C94.9316 34.85 94.857 34.65 94.7326 34.5C94.6083 34.35 94.4342 34.275 94.1855 34.275C93.9617 34.275 93.7627 34.4 93.5637 34.65C93.3896 34.875 93.2653 35.2 93.1409 35.575C93.0166 35.95 92.942 36.375 92.8674 36.875C92.8176 37.35 92.7679 37.825 92.7679 38.275V41.85C92.7679 42.3 92.8176 42.625 92.8922 42.85C92.9917 43.05 93.1409 43.2 93.2902 43.275C93.4642 43.325 93.6881 43.375 93.9119 43.375H94.5337V44.575H88.1668V43.4C88.3907 43.4 88.5648 43.35 88.7389 43.275C88.9378 43.2 89.1119 43.05 89.2114 42.825C89.3358 42.575 89.3855 42.225 89.3855 41.75V35.375C89.3855 34.925 89.3358 34.575 89.2363 34.375C89.1368 34.15 89.0124 34 88.8383 33.95C88.6642 33.875 88.4404 33.825 88.1668 33.825H85.4311V40.95C85.4311 41.625 85.5057 42.125 85.6549 42.45C85.829 42.75 86.1275 42.9 86.5503 42.9C86.6746 42.9 86.8238 42.9 86.9482 42.875V44.575C86.9233 44.575 86.8984 44.6 86.8736 44.6C86.4259 44.75 85.829 44.825 85.1078 44.825C84.1627 44.825 83.4166 44.55 82.8694 44.025C82.3223 43.5 82.0487 42.575 82.0487 41.225V33.85H80.6808V32.775C81.1782 32.75 81.601 32.625 81.9244 32.425C82.2477 32.225 82.5212 31.975 82.6953 31.75C82.8694 31.55 83.0187 31.25 83.1679 30.9C83.3171 30.55 83.4415 30.1 83.5409 29.575H85.4311V32.4H92.2207L92.5938 34.65H92.7181C92.9171 34.1 93.1409 33.65 93.3896 33.275C93.6632 32.9 93.9865 32.625 94.3347 32.425C94.7078 32.225 95.1306 32.125 95.628 32.125C96.3243 32.125 96.8466 32.325 97.1699 32.7C97.4933 33.075 97.6425 33.575 97.6425 34.175C97.6425 34.85 97.4187 35.375 96.9461 35.7ZM107.044 38.75H100.95C100.975 39.775 101.075 40.6 101.274 41.275C101.473 41.925 101.746 42.4 102.144 42.725C102.517 43.05 102.99 43.2 103.512 43.2C103.96 43.2 104.308 43.125 104.631 42.95C104.93 42.775 105.203 42.525 105.427 42.225C105.651 41.925 105.825 41.6 105.974 41.225C106.173 41.275 106.347 41.4 106.496 41.575C106.646 41.75 106.72 41.95 106.72 42.225C106.72 42.6 106.596 43 106.322 43.4C106.049 43.8 105.626 44.15 105.029 44.425C104.407 44.7 103.636 44.825 102.666 44.825C100.975 44.825 99.6819 44.275 98.8363 43.2C97.9907 42.1 97.5679 40.55 97.5679 38.575C97.5679 36.45 97.9907 34.825 98.8363 33.75C99.7067 32.65 100.901 32.125 102.442 32.125C103.885 32.125 105.004 32.6 105.8 33.525C106.621 34.45 107.044 35.825 107.044 37.625V38.75ZM117.216 38.75H111.122C111.147 39.775 111.247 40.6 111.446 41.275C111.645 41.925 111.918 42.4 112.316 42.725C112.689 43.05 113.162 43.2 113.684 43.2C114.132 43.2 114.48 43.125 114.803 42.95C115.102 42.775 115.375 42.525 115.599 42.225C115.823 41.925 115.997 41.6 116.146 41.225C116.345 41.275 116.519 41.4 116.668 41.575C116.818 41.75 116.892 41.95 116.892 42.225C116.892 42.6 116.768 43 116.494 43.4C116.221 43.8 115.798 44.15 115.201 44.425C114.579 44.7 113.808 44.825 112.838 44.825C111.147 44.825 109.854 44.275 109.008 43.2C108.163 42.1 107.74 40.55 107.74 38.575C107.74 36.45 108.163 34.825 109.008 33.75C109.879 32.65 111.073 32.125 112.615 32.125C114.057 32.125 115.176 32.6 115.972 33.525C116.793 34.45 117.216 35.825 117.216 37.625V38.75ZM124.478 44.225C124.254 44.325 123.906 44.45 123.408 44.6C122.961 44.75 122.364 44.825 121.642 44.825C120.697 44.825 119.951 44.55 119.404 44.025C118.857 43.5 118.583 42.575 118.583 41.225V33.85H117.216V32.775C117.713 32.75 118.136 32.625 118.459 32.425C118.782 32.225 119.056 31.975 119.23 31.75C119.404 31.55 119.553 31.25 119.703 30.9C119.852 30.55 119.976 30.1 120.076 29.575H121.966V32.4H124.328V33.825H121.966V40.95C121.966 41.625 122.04 42.125 122.19 42.45C122.364 42.75 122.662 42.9 123.085 42.9C123.334 42.9 123.582 42.875 123.831 42.85C124.08 42.8 124.279 42.75 124.478 42.7V44.225Z" fill="white"/>
</g>
<defs>
<filter id="filter0_b_925_1262" x="-38.9" y="-38.9" width="327.8" height="151.8" filterUnits="userSpaceOnUse" color-interpolation-filters="sRGB">
<feFlood flood-opacity="0" result="BackgroundImageFix"/>
<feGaussianBlur in="BackgroundImageFix" stdDeviation="19.45"/>
<feComposite in2="SourceAlpha" operator="in" result="effect1_backgroundBlur_925_1262"/>
<feBlend mode="normal" in="SourceGraphic" in2="effect1_backgroundBlur_925_1262" result="shape"/>
</filter>
<linearGradient id="paint0_linear_925_1262" x1="250" y1="0" x2="129.992" y2="167.265" gradientUnits="userSpaceOnUse">
<stop stop-color="white" stop-opacity="0"/>
<stop offset="0.427249" stop-color="white"/>
<stop offset="1" stop-color="white" stop-opacity="0"/>
</linearGradient>
<clipPath id="clip0_925_1262">
<rect width="192" height="25" fill="white" transform="translate(29 24)"/>
</clipPath>
</defs>
</svg>
