<svg width="250" height="74" viewBox="0 0 250 74" fill="none" xmlns="http://www.w3.org/2000/svg">
<g filter="url(#filter0_b_925_1267)">
<rect width="250" height="74" rx="37" fill="white" fill-opacity="0.2"/>
<rect x="1" y="1" width="248" height="72" rx="36" stroke="url(#paint0_linear_925_1267)" stroke-width="2"/>
</g>
<g clip-path="url(#clip0_925_1267)">
<path fill-rule="evenodd" clip-rule="evenodd" d="M55 26.7305H58.4966V47.2758H55V26.7305ZM83.3296 39.87L69.1247 26.4138V47.2753H72.4867V33.9094L86.6916 47.593V26.7305H83.3296V39.87ZM104.94 35.8317L101.612 34.6267C99.8971 34.0254 98.9215 33.4222 98.9215 31.917C98.9215 30.2441 100.469 29.4407 102.553 29.4407C104.973 29.4407 106.856 30.344 108.57 31.6494V28.0684C106.924 26.9982 104.806 26.3955 102.485 26.3955C98.6862 26.3955 95.5261 28.3695 95.5261 31.9835C95.5261 35.3628 97.6104 36.8354 100.367 37.8392L103.359 38.9103C105.208 39.6129 106.251 40.2491 106.251 41.8546C106.251 43.6948 104.603 44.5318 102.25 44.5318C99.8298 44.5318 97.5765 43.6623 95.6936 42.1558V45.8032C97.1398 46.8074 99.4928 47.6104 102.25 47.6104C106.453 47.6104 109.646 45.535 109.646 41.7877C109.646 38.8099 108.168 37.0027 104.94 35.8317ZM117.523 26.7305H121.02V47.2758H117.523V26.7305ZM139.74 26.731H131.822V47.2758H139.74C145.825 47.2758 149.759 43.2603 149.759 37.0027C149.759 30.746 145.825 26.731 139.74 26.731ZM139.605 44.1646H135.319V29.8092H139.605C143.941 29.8092 146.261 32.5862 146.261 37.0027C146.261 41.3858 143.941 44.1646 139.605 44.1646ZM157.694 47.2758H170.217V44.1646H161.123V37.7975H169.275V34.7523H161.123V29.8087H170.217V26.7305H157.694V47.2758ZM188.363 38.8099C191.624 38.308 193.162 36.3335 193.162 32.8869C193.162 28.8719 190.406 26.7305 186.135 26.7305H178.647V47.2758H182.143V38.9438H184.631L191.818 47.2758H195.785L188.363 38.8099ZM182.144 36.0324V29.7418H186.068C188.388 29.7418 189.699 30.9798 189.699 32.8869C189.699 34.7945 188.388 36.0324 186.068 36.0324H182.144Z" fill="#111111"/>
</g>
<defs>
<filter id="filter0_b_925_1267" x="-38.9" y="-38.9" width="327.8" height="151.8" filterUnits="userSpaceOnUse" color-interpolation-filters="sRGB">
<feFlood flood-opacity="0" result="BackgroundImageFix"/>
<feGaussianBlur in="BackgroundImageFix" stdDeviation="19.45"/>
<feComposite in2="SourceAlpha" operator="in" result="effect1_backgroundBlur_925_1267"/>
<feBlend mode="normal" in="SourceGraphic" in2="effect1_backgroundBlur_925_1267" result="shape"/>
</filter>
<linearGradient id="paint0_linear_925_1267" x1="250" y1="0" x2="129.992" y2="167.265" gradientUnits="userSpaceOnUse">
<stop stop-color="white" stop-opacity="0"/>
<stop offset="0.427249" stop-color="white"/>
<stop offset="1" stop-color="white" stop-opacity="0"/>
</linearGradient>
<clipPath id="clip0_925_1267">
<rect width="141" height="22" fill="white" transform="translate(55 26)"/>
</clipPath>
</defs>
</svg>
