<?xml version="1.0" standalone="no"?>
<!DOCTYPE svg PUBLIC "-//W3C//DTD SVG 1.1//EN" "http://www.w3.org/Graphics/SVG/1.1/DTD/svg11.dtd" >
<svg xmlns="http://www.w3.org/2000/svg" xmlns:xlink="http://www.w3.org/1999/xlink" version="1.1">
<metadata>
Created by FontForge 20170731 at Mon May  8 10:35:14 2023
 By Aleksey,,,
Copyright (c) 2014-2015 by Ryoichi Tsunekawa. All rights reserved.
</metadata>
<defs>
<font id="BioSans-ExtraBoldItalic" horiz-adv-x="749" >
  <font-face 
    font-family="Bio Sans ExtraBold"
    font-weight="800"
    font-style="italic"
    font-stretch="normal"
    units-per-em="2048"
    panose-1="2 11 8 4 2 2 2 11 2 4"
    ascent="1638"
    descent="-410"
    x-height="1075"
    cap-height="1393"
    bbox="-477 -539 2304 2310"
    underline-thickness="159"
    underline-position="-363"
    slope="-10"
    unicode-range="U+000D-FB02"
  />
<missing-glyph horiz-adv-x="1384" 
d="M37 0l246 1393h1122l-246 -1393h-1122zM750 905l235 289h-373zM311 367l277 340l-152 319zM1004 367l124 659l-276 -340zM457 199h372l-137 288z" />
    <glyph glyph-name="fi" unicode="fi" horiz-adv-x="1343" 
d="M70 0l143 811h-147l45 264h149l12 74q32 183 120.5 264.5t252.5 81.5h275l-48 -270h-124q-50 0 -75 -23t-34 -78l-8 -49h207l-45 -264h-209l-144 -811h-370zM977 1204l51 291h379l-51 -291h-379zM770 0l191 1075h370l-190 -1075h-371z" />
    <glyph glyph-name="fl" unicode="fl" horiz-adv-x="1343" 
d="M70 0l143 811h-147l45 264h149l12 74q32 183 120.5 264.5t252.5 81.5h275l-48 -270h-124q-50 0 -75 -23t-34 -78l-8 -49h207l-45 -264h-209l-144 -811h-370zM770 0l264 1495h371l-264 -1495h-371z" />
    <glyph glyph-name=".notdef" horiz-adv-x="1384" 
d="M37 0l246 1393h1122l-246 -1393h-1122zM750 905l235 289h-373zM311 367l277 340l-152 319zM1004 367l124 659l-276 -340zM457 199h372l-137 288z" />
    <glyph glyph-name=".null" horiz-adv-x="0" 
 />
    <glyph glyph-name="nonmarkingreturn" horiz-adv-x="682" 
 />
    <glyph glyph-name="CR" unicode="&#xd;" horiz-adv-x="462" 
 />
    <glyph glyph-name="space" unicode=" " horiz-adv-x="462" 
 />
    <glyph glyph-name="exclam" unicode="!" horiz-adv-x="659" 
d="M184 483l39 496l64 414h389l-80 -414l-141 -496h-271zM47 0l57 334h377l-57 -334h-377z" />
    <glyph glyph-name="quotedbl" unicode="&#x22;" horiz-adv-x="991" 
d="M162 764l67 629h344l-147 -629h-264zM649 764l68 629h344l-148 -629h-264z" />
    <glyph glyph-name="numbersign" unicode="#" horiz-adv-x="1216" 
d="M41 0l96 324h-102l41 241h135l84 283h-102l43 244h133l90 301h307l-90 -301h160l90 301h307l-90 -301h100l-43 -244h-131l-84 -283h98l-41 -241h-131l-96 -324h-307l96 324h-160l-96 -324h-307zM518 565h160l84 283h-160z" />
    <glyph glyph-name="dollar" unicode="$" horiz-adv-x="1216" 
d="M358 -147l27 155q-309 45 -309 316q0 48 10 116h342q-6 -35 -6 -59q0 -58 33 -85.5t104 -27.5q91 0 140 39.5t49 108.5q0 57 -41 84t-177 61q-201 51 -274.5 124.5t-73.5 225.5q0 199 117 322t330 151l26 156h273l-27 -160q279 -53 279 -317q0 -43 -9 -98h-340q5 45 5 51
q0 108 -119 108q-79 0 -123.5 -42t-44.5 -105q0 -57 43.5 -86t173.5 -60q198 -46 273 -122t75 -232q0 -201 -118 -321t-339 -148l-26 -155h-273z" />
    <glyph glyph-name="percent" unicode="%" horiz-adv-x="1630" 
d="M412 631q-141 0 -218 57t-77 166q0 30 6 64l41 231q25 144 111.5 206t234.5 62q141 0 218 -57t77 -166q0 -30 -6 -64l-41 -231q-25 -144 -111.5 -206t-234.5 -62zM170 -25l1096 1442h252l-1096 -1442h-252zM426 827q36 0 56 20.5t28 63.5l39 222q4 24 4 36q0 52 -57 52
q-36 0 -56 -20.5t-28 -63.5l-39 -222q-4 -24 -4 -36q0 -52 57 -52zM1178 -25q-141 0 -218 57.5t-77 166.5q0 28 6 63l41 232q25 144 111.5 206t234.5 62q141 0 218 -57t77 -166q0 -29 -6 -64l-41 -231q-25 -144 -111.5 -206.5t-234.5 -62.5zM1192 172q36 0 56 20.5t28 63.5
l39 221q4 24 4 37q0 51 -57 51q-36 0 -56 -20.5t-28 -63.5l-39 -221q-4 -24 -4 -37q0 -51 57 -51z" />
    <glyph glyph-name="ampersand" unicode="&#x26;" horiz-adv-x="1402" 
d="M459 -25q-201 0 -314.5 90.5t-113.5 268.5q0 146 81 258t253 203q-62 114 -62 219q0 182 129.5 292.5t337.5 110.5q167 0 254.5 -76t87.5 -215q0 -126 -76 -221.5t-243 -177.5l125 -186q37 81 69 202h332q-80 -270 -227 -456l192 -287h-432l-37 59q-166 -84 -356 -84z
M659 926q83 41 120.5 81.5t37.5 88.5q0 35 -21.5 56.5t-62.5 21.5q-56 0 -88.5 -38.5t-32.5 -91.5q0 -50 47 -118zM555 244q65 0 129 28l-188 303q-105 -78 -105 -186q0 -70 42 -107.5t122 -37.5z" />
    <glyph glyph-name="quotesingle" unicode="'" horiz-adv-x="518" 
d="M160 764l71 629h359l-154 -629h-276z" />
    <glyph glyph-name="parenleft" unicode="(" horiz-adv-x="698" 
d="M537 -266q-449 98 -449 678q0 154 31 303t95 284t153.5 242.5t214.5 181t270 97.5l-45 -250q-97 -50 -177 -160.5t-128 -245.5t-73.5 -275t-25.5 -265q0 -155 41.5 -245.5t128.5 -135.5z" />
    <glyph glyph-name="parenright" unicode=")" horiz-adv-x="698" 
d="M-123 -266l45 250q97 50 177 160.5t128 245.5t73.5 275t25.5 265q0 155 -41.5 245.5t-128.5 135.5l37 209q448 -98 448 -678q0 -154 -31 -303t-95 -284t-153.5 -242.5t-214.5 -181t-270 -97.5z" />
    <glyph glyph-name="asterisk" unicode="*" horiz-adv-x="892" 
d="M328 561l-185 158l201 207l-242 63l84 234l246 -107l33 277h250l-64 -267l236 95l63 -240l-272 -68l153 -235l-221 -117l-104 230z" />
    <glyph glyph-name="plus" unicode="+" horiz-adv-x="1216" 
d="M389 111l68 383h-363l49 278h363l67 383h287l-67 -383h362l-49 -278h-363l-67 -383h-287z" />
    <glyph glyph-name="comma" unicode="," horiz-adv-x="612" 
d="M-51 -418l33 193q139 0 165 155l13 70h-140l68 379h381l-70 -395q-39 -222 -138 -312t-312 -90z" />
    <glyph glyph-name="hyphen" unicode="-" horiz-adv-x="798" 
d="M53 457l56 311h663l-55 -311h-664z" />
    <glyph glyph-name="period" unicode="." horiz-adv-x="612" 
d="M20 0l68 379h381l-68 -379h-381z" />
    <glyph glyph-name="slash" unicode="/" horiz-adv-x="980" 
d="M-147 -287l987 1782h311l-987 -1782h-311z" />
    <glyph glyph-name="zero" unicode="0" horiz-adv-x="1216" 
d="M532 -25q-227 0 -346.5 94.5t-119.5 276.5q0 55 10 113l88 499q81 459 575 459q227 0 347 -94t120 -276q0 -55 -10 -113l-88 -500q-81 -459 -576 -459zM563 268q75 0 117.5 44.5t60.5 148.5l84 475q6 34 6 68q0 62 -28.5 91t-93.5 29q-75 0 -118 -44t-61 -148l-84 -475
q-6 -34 -6 -68q0 -62 29 -91.5t94 -29.5z" />
    <glyph glyph-name="one" unicode="1" horiz-adv-x="1216" 
d="M66 0l51 295h327l117 655h-368l45 262q142 1 243.5 46.5t177.5 134.5h351l-195 -1098h328l-51 -295h-1026z" />
    <glyph glyph-name="two" unicode="2" horiz-adv-x="1216" 
d="M-16 0l30 174q37 204 152 329t362 228q163 67 234.5 133t71.5 148q0 112 -127 112q-77 0 -122.5 -44.5t-62.5 -139.5l-8 -47h-348l14 82q39 222 176.5 332t384.5 110q459 0 459 -375q0 -195 -127.5 -336.5t-408.5 -256.5q-123 -51 -177.5 -84t-74.5 -70h661l-51 -295
h-1038z" />
    <glyph glyph-name="three" unicode="3" horiz-adv-x="1216" 
d="M522 -25q-232 0 -350.5 85t-118.5 245q0 43 8 90l13 70h356l-6 -35q-4 -24 -4 -47q0 -115 137 -115q90 0 138 48.5t48 121.5q0 63 -39.5 93t-128.5 30h-122l49 275h110q98 0 150.5 46t52.5 134q0 57 -25 82.5t-83 25.5q-146 0 -172 -151l-7 -35h-352l12 70
q37 207 174.5 308t382.5 101q227 0 337 -86.5t110 -263.5q0 -258 -236 -348v-4q83 -36 119.5 -103t36.5 -170q0 -224 -154.5 -345.5t-435.5 -121.5z" />
    <glyph glyph-name="four" unicode="4" horiz-adv-x="1216" 
d="M578 0l47 274h-613l54 299l739 820h389l-150 -844h132l-50 -275h-129l-49 -274h-370zM401 549h273l69 395z" />
    <glyph glyph-name="five" unicode="5" horiz-adv-x="1216" 
d="M520 -25q-228 0 -343.5 88.5t-115.5 251.5q0 42 9 91h352v-23q0 -57 35 -86t98 -29q101 0 155 66.5t54 161.5q0 71 -33.5 104t-103.5 33q-107 0 -170 -60h-320l199 820h889l-54 -295h-585l-58 -238q99 58 242 58q188 0 275.5 -93.5t87.5 -283.5q0 -265 -157 -415.5
t-456 -150.5z" />
    <glyph glyph-name="six" unicode="6" horiz-adv-x="1216" 
d="M545 -25q-233 0 -352 93.5t-119 273.5q0 59 10 115l86 487q43 240 190 356.5t402 116.5q225 0 340 -87t115 -251q0 -43 -9 -92h-350v25q0 58 -30 85t-95 27q-81 0 -129 -46.5t-67 -159.5l-17 -97q108 80 258 80q170 0 261 -88t91 -254q0 -280 -151 -432t-434 -152z
M573 268q92 0 137.5 68t45.5 172q0 108 -105 108q-115 0 -188 -120l-6 -33q-6 -38 -6 -70q0 -65 30 -95t92 -30z" />
    <glyph glyph-name="seven" unicode="7" horiz-adv-x="1216" 
d="M150 0q149 694 686 1087h-658l53 306h1045l-55 -316q-285 -237 -443.5 -490t-232.5 -587h-395z" />
    <glyph glyph-name="eight" unicode="8" horiz-adv-x="1216" 
d="M518 -25q-483 0 -483 369q0 146 72 243t206 142v4q-135 70 -135 252q0 204 156 318t418 114q221 0 339.5 -87t118.5 -267q0 -255 -237 -342v-4q157 -73 157 -281q0 -221 -164.5 -341t-447.5 -120zM659 840q82 0 131.5 54.5t49.5 127.5q0 111 -123 111q-85 0 -132.5 -49.5
t-47.5 -122.5q0 -60 31.5 -90.5t90.5 -30.5zM555 260q100 0 153.5 48.5t53.5 127.5q0 129 -146 129q-100 0 -153 -54.5t-53 -131.5q0 -60 35 -89.5t110 -29.5z" />
    <glyph glyph-name="nine" unicode="9" horiz-adv-x="1216" 
d="M510 -25q-225 0 -340 87t-115 251q0 49 8 93h351v-25q0 -58 30 -85.5t95 -27.5q81 0 129 46.5t67 160.5l17 96q-106 -79 -258 -79q-170 0 -261.5 88t-91.5 254q0 279 151.5 431t434.5 152q234 0 352.5 -93.5t118.5 -272.5q0 -59 -10 -115l-86 -487q-43 -240 -190 -357
t-402 -117zM621 776q114 0 188 121l6 33q6 37 6 69q0 65 -30.5 95t-92.5 30q-92 0 -137 -67.5t-45 -171.5q0 -109 105 -109z" />
    <glyph glyph-name="colon" unicode=":" horiz-adv-x="612" 
d="M139 676l68 379h381l-68 -379h-381zM20 0l68 379h381l-68 -379h-381z" />
    <glyph glyph-name="semicolon" unicode=";" horiz-adv-x="612" 
d="M141 676l68 379h381l-68 -379h-381zM-51 -418l33 193q139 0 165 155l13 70h-140l68 379h381l-70 -395q-39 -222 -138 -312t-312 -90z" />
    <glyph glyph-name="less" unicode="&#x3c;" horiz-adv-x="1216" 
d="M1038 104l-944 390l47 270l1082 393l-56 -315l-649 -224l572 -223z" />
    <glyph glyph-name="equal" unicode="=" horiz-adv-x="1216" 
d="M135 729l49 279h1012l-49 -279h-1012zM53 258l49 279h1012l-49 -279h-1012z" />
    <glyph glyph-name="greater" unicode="&#x3e;" horiz-adv-x="1216" 
d="M27 104l55 316l649 223l-571 223l51 291l944 -389l-47 -270z" />
    <glyph glyph-name="question" unicode="?" horiz-adv-x="991" 
d="M279 483l8 47q20 116 73.5 190.5t165.5 141.5q83 49 115.5 91.5t32.5 101.5q0 69 -84 69q-62 0 -97.5 -38.5t-48.5 -122.5h-346q41 236 165.5 345t352.5 109q206 0 317 -81.5t111 -233.5q0 -143 -61 -238t-205 -174q-85 -46 -123 -87t-47 -97l-4 -23h-325zM170 0l57 334
h375l-57 -334h-375z" />
    <glyph glyph-name="at" unicode="@" horiz-adv-x="1544" 
d="M788 -139q-339 0 -533 179t-194 495q0 169 57.5 317.5t161.5 258t257.5 172.5t336.5 63q197 0 349.5 -71t238.5 -207.5t86 -319.5q0 -100 -26.5 -188.5t-77.5 -157.5t-133.5 -109.5t-186.5 -40.5q-172 0 -225 106q-48 -57 -103 -81.5t-126 -24.5q-104 0 -158.5 50
t-54.5 144q0 43 8 93l24 139q24 136 88.5 198t174.5 62q139 0 202 -102l25 77h203l-66 -372q-4 -24 -4 -47q0 -48 45 -48q37 0 66 30t45 77t24 96.5t8 95.5q0 176 -115 278.5t-311 102.5q-129 0 -234.5 -46.5t-173.5 -126t-105 -184.5t-37 -224q0 -221 123.5 -343
t343.5 -122q215 0 366 110l78 -225q-192 -104 -447 -104zM762 446q54 0 92 60l33 178q-15 59 -72 59q-62 0 -76 -77l-24 -140q-2 -12 -2 -20q0 -32 11 -46t38 -14z" />
    <glyph glyph-name="A" unicode="A" horiz-adv-x="1280" 
d="M-94 0l684 1393h403l193 -1393h-389l-23 248h-373l-112 -248h-383zM526 539h226l-33 452z" />
    <glyph glyph-name="B" unicode="B" horiz-adv-x="1302" 
d="M39 0l246 1393h557q234 0 337 -76t103 -248q0 -134 -61.5 -217t-192.5 -121v-4q99 -33 142.5 -101.5t43.5 -183.5q0 -217 -140.5 -329.5t-409.5 -112.5h-625zM565 844h125q211 0 211 168q0 57 -29.5 78.5t-107.5 21.5h-152zM465 281h168q106 0 157.5 41.5t51.5 128.5
q0 69 -38.5 93.5t-144.5 24.5h-143z" />
    <glyph glyph-name="C" unicode="C" horiz-adv-x="1239" 
d="M567 -25q-249 0 -368 102t-119 316q0 86 14 166l53 303q51 288 201 421.5t432 133.5q245 0 363.5 -99.5t118.5 -303.5q0 -62 -13 -148h-356q10 65 10 103q0 76 -35.5 107.5t-115.5 31.5q-104 0 -153 -57.5t-77 -214.5l-49 -279q-14 -80 -14 -133q0 -77 33 -108t112 -31
q103 0 151.5 52t75.5 187h359q-56 -293 -204.5 -421t-418.5 -128z" />
    <glyph glyph-name="D" unicode="D" horiz-adv-x="1310" 
d="M39 0l246 1393h528q477 0 477 -396q0 -72 -16 -166l-51 -290q-51 -286 -201 -413.5t-434 -127.5h-549zM467 295h113q131 0 186 57.5t82 208.5l47 266q12 70 12 115q0 86 -42.5 121t-143.5 35h-111z" />
    <glyph glyph-name="E" unicode="E" horiz-adv-x="1208" 
d="M39 0l246 1393h977l-56 -306h-598l-41 -233h496l-51 -295h-498l-45 -254h621l-54 -305h-997z" />
    <glyph glyph-name="F" unicode="F" horiz-adv-x="1142" 
d="M39 0l246 1393h962l-55 -306h-584l-45 -247h484l-54 -305h-483l-94 -535h-377z" />
    <glyph glyph-name="G" unicode="G" horiz-adv-x="1302" 
d="M582 -25q-504 0 -504 414q0 78 16 172l56 313q51 282 204.5 412.5t427.5 130.5q245 0 371.5 -99.5t126.5 -291.5q0 -40 -6 -86h-356q2 16 2 33q0 73 -36.5 104t-119.5 31q-106 0 -160 -56.5t-82 -215.5l-49 -279q-12 -71 -12 -123q0 -81 36.5 -115t123.5 -34
q102 0 154.5 50.5t78.5 176.5h-192l49 276h549l-48 -266q-51 -287 -202 -417t-428 -130z" />
    <glyph glyph-name="H" unicode="H" horiz-adv-x="1388" 
d="M39 0l246 1393h377l-95 -531h369l94 531h377l-246 -1393h-377l97 551h-369l-96 -551h-377z" />
    <glyph glyph-name="I" unicode="I" horiz-adv-x="643" 
d="M39 0l246 1393h377l-246 -1393h-377z" />
    <glyph glyph-name="J" unicode="J" horiz-adv-x="1140" 
d="M455 -25q-232 0 -340.5 90.5t-108.5 276.5q0 63 14 143l7 35h358l-8 -47q-8 -47 -8 -78q0 -59 24.5 -84.5t81.5 -25.5q72 0 109.5 44.5t56.5 147.5l162 916h377l-166 -940q-45 -252 -175.5 -365t-383.5 -113z" />
    <glyph glyph-name="K" unicode="K" horiz-adv-x="1286" 
d="M39 0l246 1393h377l-93 -523l465 523h434l-536 -582l287 -811h-402l-178 535l-162 -185l-61 -350h-377z" />
    <glyph glyph-name="L" unicode="L" horiz-adv-x="1060" 
d="M39 0l246 1393h377l-191 -1082h539l-56 -311h-915z" />
    <glyph glyph-name="M" unicode="M" horiz-adv-x="1832" 
d="M39 0l246 1393h522l98 -815l385 815h561l-245 -1393h-377l174 983l-473 -983h-244l-129 1001l-176 -1001h-342z" />
    <glyph glyph-name="N" unicode="N" horiz-adv-x="1376" 
d="M39 0l246 1393h364l264 -789l140 789h342l-246 -1393h-342l-279 831l-147 -831h-342z" />
    <glyph glyph-name="O" unicode="O" horiz-adv-x="1335" 
d="M588 -25q-265 0 -386.5 103t-121.5 315q0 86 14 166l53 303q52 293 208 424t448 131q265 0 386.5 -103t121.5 -315q0 -80 -15 -165l-53 -304q-52 -293 -207.5 -424t-447.5 -131zM627 285q112 0 163 60.5t78 211.5l50 279q12 71 12 118q0 81 -37.5 117.5t-128.5 36.5
q-112 0 -163.5 -60.5t-78.5 -211.5l-49 -279q-12 -70 -12 -119q0 -81 37.5 -117t128.5 -36z" />
    <glyph glyph-name="P" unicode="P" horiz-adv-x="1263" 
d="M39 0l246 1393h555q250 0 354 -88t104 -299q0 -270 -153 -410.5t-451 -140.5h-198l-80 -455h-377zM549 750h151q105 0 162.5 56.5t57.5 158.5q0 74 -35 103.5t-123 29.5h-152z" />
    <glyph glyph-name="Q" unicode="Q" horiz-adv-x="1335" 
d="M803 1417q265 0 386.5 -103t121.5 -315q0 -80 -15 -165l-53 -304q-37 -211 -129 -337l125 -148l-285 -235l-155 186q-91 -21 -211 -21q-265 0 -386.5 103t-121.5 315q0 86 14 166l53 303q52 293 208 424t448 131zM461 438q0 -81 37.5 -117t128.5 -36q112 0 163 60.5
t78 211.5l50 279q12 71 12 118q0 81 -37.5 117.5t-128.5 36.5q-112 0 -163.5 -60.5t-78.5 -211.5l-49 -279q-12 -70 -12 -119z" />
    <glyph glyph-name="R" unicode="R" horiz-adv-x="1296" 
d="M39 0l246 1393h573q239 0 338.5 -86t99.5 -291q0 -391 -319 -496l192 -520h-403l-148 485h-116l-86 -485h-377zM553 780h166q96 0 147.5 51.5t51.5 147.5q0 66 -31.5 92.5t-112.5 26.5h-164z" />
    <glyph glyph-name="S" unicode="S" horiz-adv-x="1171" 
d="M504 -25q-248 0 -362.5 84.5t-114.5 257.5q0 45 10 117h369q-7 -44 -7 -65q0 -60 33 -86.5t103 -26.5q89 0 133.5 42t44.5 118q0 49 -47.5 80.5t-167.5 60.5q-189 46 -273 125.5t-84 212.5q0 253 153.5 387.5t428.5 134.5q457 0 457 -338q0 -35 -11 -106h-366q6 34 6 61
q0 54 -27 78.5t-86 24.5q-78 0 -123 -43t-45 -109q0 -51 47 -81.5t168 -59.5q189 -46 273 -125.5t84 -214.5q0 -266 -153 -397.5t-443 -131.5z" />
    <glyph glyph-name="T" unicode="T" horiz-adv-x="1101" 
d="M268 0l191 1081h-350l55 312h1077l-55 -312h-350l-191 -1081h-377z" />
    <glyph glyph-name="U" unicode="U" horiz-adv-x="1288" 
d="M567 -25q-248 0 -362.5 89t-114.5 278q0 65 14 145l160 906h377l-160 -906q-8 -47 -8 -84q0 -64 31.5 -91t103.5 -27q91 0 136 45t65 157l160 906h358l-164 -928q-45 -262 -185.5 -376t-410.5 -114z" />
    <glyph glyph-name="V" unicode="V" horiz-adv-x="1228" 
d="M322 0l-170 1393h387l71 -906l391 906h379l-661 -1393h-397z" />
    <glyph glyph-name="W" unicode="W" horiz-adv-x="1824" 
d="M233 0l-75 1393h381l14 -881l362 881h306l51 -881l325 881h373l-567 -1393h-387l-47 823l-338 -823h-398z" />
    <glyph glyph-name="X" unicode="X" horiz-adv-x="1212" 
d="M-102 0l516 737l-250 656h407l131 -383l248 383h418l-500 -713l258 -680h-407l-137 410l-267 -410h-417z" />
    <glyph glyph-name="Y" unicode="Y" horiz-adv-x="1124" 
d="M276 0l105 588l-287 805h408l131 -435l282 435h418l-581 -826l-101 -567h-375z" />
    <glyph glyph-name="Z" unicode="Z" horiz-adv-x="1155" 
d="M-45 0l49 276l711 811h-533l54 306h1003l-49 -275l-713 -813h588l-53 -305h-1057z" />
    <glyph glyph-name="bracketleft" unicode="[" horiz-adv-x="698" 
d="M-6 -242l305 1737h547l-41 -242h-221l-219 -1253h219l-43 -242h-547z" />
    <glyph glyph-name="backslash" unicode="\" horiz-adv-x="980" 
d="M539 -287l-369 1782h295l369 -1782h-295z" />
    <glyph glyph-name="bracketright" unicode="]" horiz-adv-x="698" 
d="M-117 -242l41 242h221l220 1253h-220l43 242h547l-305 -1737h-547z" />
    <glyph glyph-name="asciicircum" unicode="^" horiz-adv-x="1216" 
d="M72 682l540 711h287l287 -711h-314l-155 403l-301 -403h-344z" />
    <glyph glyph-name="underscore" unicode="_" horiz-adv-x="1024" 
d="M-147 -295l38 217h1024l-38 -217h-1024z" />
    <glyph glyph-name="grave" unicode="`" horiz-adv-x="1024" 
d="M555 1204l-256 291h365l182 -291h-291z" />
    <glyph glyph-name="a" unicode="a" horiz-adv-x="1093" 
d="M301 -25q-297 0 -297 291q0 194 128 292.5t360 98.5h161l6 33q9 53 9 66q0 78 -84 78q-96 0 -125 -105h-353q44 197 166.5 284t348.5 87q216 0 316.5 -76.5t100.5 -239.5q0 -54 -10 -108l-119 -676h-315l10 109q-117 -134 -303 -134zM453 242q79 0 141 82l27 141h-82
q-85 0 -129.5 -34.5t-44.5 -96.5q0 -44 22.5 -68t65.5 -24z" />
    <glyph glyph-name="b" unicode="b" horiz-adv-x="1173" 
d="M645 -25q-199 0 -287 150l-30 -125h-316l264 1495h371l-82 -465q97 70 232 70q161 0 247 -86t86 -242q0 -50 -12 -117l-45 -256q-74 -424 -428 -424zM571 256q56 0 88.5 36.5t45.5 115.5l45 254q6 37 6 63q0 94 -86 94q-101 0 -164 -121l-57 -321q21 -121 122 -121z" />
    <glyph glyph-name="c" unicode="c" horiz-adv-x="1077" 
d="M479 -25q-432 0 -432 355q0 60 10 119l37 208q40 226 172 334.5t365 108.5q214 0 321 -86.5t107 -253.5q0 -47 -10 -115h-355q8 62 8 80q0 51 -22 72.5t-72 21.5q-62 0 -95 -39t-50 -135l-37 -209q-8 -47 -8 -78q0 -55 22 -78.5t72 -23.5q63 0 94.5 38.5t50.5 135.5h355
q-42 -240 -171.5 -347.5t-361.5 -107.5z" />
    <glyph glyph-name="d" unicode="d" horiz-adv-x="1175" 
d="M377 -25q-162 0 -248 86t-86 242q0 49 12 117l45 256q74 424 428 424q164 0 250 -99l88 494h371l-264 -1495h-316l9 94q-119 -119 -289 -119zM504 256q101 0 164 121l57 321q-21 121 -123 121q-56 0 -88 -36t-45 -115l-45 -254q-6 -37 -6 -64q0 -94 86 -94z" />
    <glyph glyph-name="e" unicode="e" horiz-adv-x="1128" 
d="M504 -25q-232 0 -344.5 92t-112.5 263q0 63 10 119l37 208q78 443 549 443q219 0 330.5 -91.5t111.5 -263.5q0 -60 -10 -116l-33 -187h-616l-4 -28q-6 -37 -6 -70q0 -54 25.5 -79t82.5 -25q114 0 142 102h354q-41 -191 -168.5 -279t-347.5 -88zM465 651h264l2 13
q8 46 8 71q0 101 -110 101q-71 0 -109.5 -41.5t-52.5 -130.5z" />
    <glyph glyph-name="f" unicode="f" horiz-adv-x="757" 
d="M70 0l143 811h-147l45 264h149l12 74q32 183 120.5 264.5t252.5 81.5h275l-48 -270h-124q-50 0 -75 -23t-34 -78l-8 -49h207l-45 -264h-209l-144 -811h-370z" />
    <glyph glyph-name="g" unicode="g" horiz-adv-x="1173" 
d="M428 -397q-212 0 -326 78t-114 233q0 27 4 59h350v-16q0 -47 24.5 -68.5t77.5 -21.5q73 0 111 42t55 138l15 86q-99 -72 -234 -72q-162 0 -248 86t-86 242q0 44 13 117l30 170q78 424 428 424q198 0 287 -150l31 125h315l-184 -1044q-39 -218 -172 -323t-377 -105z
M518 342q103 0 166 123l41 233q-21 121 -123 121q-55 0 -86.5 -35.5t-46.5 -115.5l-31 -168q-6 -38 -6 -64q0 -94 86 -94z" />
    <glyph glyph-name="h" unicode="h" horiz-adv-x="1159" 
d="M12 0l264 1495h371l-82 -467q103 72 236 72q149 0 224 -74.5t75 -212.5q0 -61 -10 -117l-123 -696h-371l119 674q4 20 4 51q0 70 -68 70q-88 0 -145 -103l-123 -692h-371z" />
    <glyph glyph-name="i" unicode="i" horiz-adv-x="585" 
d="M219 1204l51 291h379l-51 -291h-379zM12 0l191 1075h370l-190 -1075h-371z" />
    <glyph glyph-name="j" unicode="j" horiz-adv-x="585" 
d="M219 1204l51 291h379l-51 -291h-379zM-172 -373l47 275h45q43 0 62 18.5t28 67.5l193 1087h370l-200 -1132q-31 -173 -108 -244.5t-234 -71.5h-203z" />
    <glyph glyph-name="k" unicode="k" horiz-adv-x="1150" 
d="M12 0l264 1495h371l-137 -778l340 358h428l-447 -450l254 -625h-405l-137 385l-113 -123l-47 -262h-371z" />
    <glyph glyph-name="l" unicode="l" horiz-adv-x="585" 
d="M12 0l264 1495h371l-264 -1495h-371z" />
    <glyph glyph-name="m" unicode="m" horiz-adv-x="1755" 
d="M12 0l191 1075h315l-10 -98q123 123 297 123q202 0 270 -133q71 71 146 102t168 31q149 0 229 -71t80 -208q0 -53 -8 -102l-127 -719h-371l121 684q4 20 4 43q0 32 -19.5 50t-54.5 18q-79 0 -147 -105l-123 -690h-371l121 684q2 12 2 31q0 80 -72 80q-78 0 -149 -103
l-121 -692h-371z" />
    <glyph glyph-name="n" unicode="n" horiz-adv-x="1159" 
d="M12 0l191 1075h315l-10 -94q125 119 293 119q149 0 224 -74.5t75 -212.5q0 -61 -10 -117l-123 -696h-371l119 674q4 20 4 51q0 70 -68 70q-88 0 -145 -103l-123 -692h-371z" />
    <glyph glyph-name="o" unicode="o" horiz-adv-x="1150" 
d="M496 -25q-223 0 -336 90t-113 265q0 62 10 116l37 211q40 228 176.5 335.5t384.5 107.5q223 0 336 -90t113 -265q0 -62 -10 -116l-37 -211q-40 -228 -176.5 -335.5t-384.5 -107.5zM526 256q70 0 108 41.5t56 142.5l35 197q8 58 8 76q0 57 -26.5 81.5t-81.5 24.5
q-70 0 -108 -41.5t-56 -142.5l-35 -197q-8 -58 -8 -76q0 -57 26.5 -81.5t81.5 -24.5z" />
    <glyph glyph-name="p" unicode="p" horiz-adv-x="1173" 
d="M-53 -373l256 1448h315l-8 -92q117 117 287 117q161 0 247 -86t86 -242q0 -50 -12 -117l-45 -256q-74 -424 -428 -424q-164 0 -250 99l-78 -447h-370zM571 256q56 0 88.5 36.5t45.5 115.5l45 254q6 37 6 63q0 94 -86 94q-101 0 -164 -121l-57 -323q21 -119 122 -119z" />
    <glyph glyph-name="q" unicode="q" horiz-adv-x="1173" 
d="M537 -373l73 420q-99 -72 -233 -72q-162 0 -248 86t-86 242q0 49 12 117l45 256q74 424 428 424q198 0 287 -150l31 125h315l-256 -1448h-368zM504 256q101 0 164 121l57 321q-21 121 -123 121q-56 0 -88 -36t-45 -115l-45 -254q-6 -37 -6 -64q0 -94 86 -94z" />
    <glyph glyph-name="r" unicode="r" horiz-adv-x="792" 
d="M12 0l191 1075h315l-16 -162q45 97 111 140t167 43h94l-59 -332h-59q-108 0 -171 -39t-98 -127l-104 -598h-371z" />
    <glyph glyph-name="s" unicode="s" horiz-adv-x="1048" 
d="M442 -25q-218 0 -325 72.5t-107 220.5q0 36 6 80h353q-4 -24 -4 -45q0 -44 25 -65t79 -21q58 0 91.5 23t33.5 67q0 43 -40.5 67.5t-141.5 43.5q-166 31 -240 99t-74 192q0 188 137.5 289.5t372.5 101.5q204 0 308 -77t104 -214q0 -33 -6 -68h-352q4 24 4 43q0 74 -80 74
q-55 0 -85 -27.5t-30 -70.5q0 -38 39 -61t137 -42q170 -32 244 -100.5t74 -194.5q0 -197 -138 -292t-385 -95z" />
    <glyph glyph-name="t" unicode="t" horiz-adv-x="768" 
d="M395 0q-143 0 -211.5 61.5t-68.5 190.5q0 56 10 115l78 444h-137l45 264h147l64 260h346l-47 -260h200l-45 -264h-201l-77 -432q-4 -20 -4 -43q0 -34 18 -48t59 -14h117l-47 -274h-246z" />
    <glyph glyph-name="u" unicode="u" horiz-adv-x="1167" 
d="M365 -25q-150 0 -228 74t-78 211q0 54 9 107l125 708h370l-119 -674q-4 -23 -4 -49q0 -71 72 -71q89 0 152 106l120 688h371l-190 -1075h-314l11 98q-66 -66 -137 -94.5t-160 -28.5z" />
    <glyph glyph-name="v" unicode="v" horiz-adv-x="1056" 
d="M225 0l-137 1075h381l35 -684l272 684h381l-514 -1075h-418z" />
    <glyph glyph-name="w" unicode="w" horiz-adv-x="1662" 
d="M190 0l-94 1075h375l12 -665l287 665h309l56 -665l243 665h377l-471 -1075h-399l-47 569l-248 -569h-400z" />
    <glyph glyph-name="x" unicode="x" horiz-adv-x="1058" 
d="M-127 0l430 569l-221 506h401l109 -278l186 278h404l-414 -549l229 -526h-401l-119 301l-201 -301h-403z" />
    <glyph glyph-name="y" unicode="y" horiz-adv-x="1048" 
d="M-33 -373l47 275h144q38 0 55.5 11.5t36.5 49.5l18 37l-180 1075h385l49 -608l246 608h381l-553 -1161q-59 -124 -111.5 -183t-122 -81.5t-192.5 -22.5h-203z" />
    <glyph glyph-name="z" unicode="z" horiz-adv-x="974" 
d="M-57 0l41 242l520 561h-377l47 272h848l-41 -241l-520 -562h430l-47 -272h-901z" />
    <glyph glyph-name="braceleft" unicode="{" horiz-adv-x="698" 
d="M369 -242q-151 0 -224 65t-73 202q0 57 12 131l37 209q6 30 6 51q0 51 -26 70.5t-83 19.5l43 242q73 0 106.5 34t47.5 115l39 223q36 210 128.5 292.5t270.5 82.5h193l-41 -242h-90q-68 0 -95.5 -31t-44.5 -128l-34 -195q-23 -129 -76.5 -193t-153.5 -81v-4
q138 -35 138 -203q0 -38 -9 -88l-28 -164q-11 -64 -11 -90q0 -42 20.5 -59t72.5 -17h90l-43 -242h-172z" />
    <glyph glyph-name="bar" unicode="|" horiz-adv-x="593" 
d="M-23 -463l361 2048h287l-361 -2048h-287z" />
    <glyph glyph-name="braceright" unicode="}" horiz-adv-x="698" 
d="M-117 -242l41 242h90q67 0 95 31.5t45 128.5l34 194q23 129 76.5 193.5t153.5 81.5v4q-137 35 -137 203q0 44 8 88l28 163q11 64 11 91q0 42 -20 58.5t-72 16.5h-91l43 242h172q152 0 224.5 -64.5t72.5 -201.5q0 -57 -12 -131l-37 -209q-6 -30 -6 -51q0 -51 26 -70.5
t83 -19.5l-43 -242q-73 0 -106.5 -34t-47.5 -116l-39 -223q-36 -210 -128.5 -292.5t-270.5 -82.5h-193z" />
    <glyph glyph-name="asciitilde" unicode="~" horiz-adv-x="1216" 
d="M805 410q-77 0 -138.5 23.5t-127.5 80.5q-41 35 -67.5 48t-55.5 13q-46 0 -79 -35.5t-46 -101.5h-240q37 206 136.5 311t258.5 105q76 0 137.5 -23.5t127.5 -80.5q41 -35 67.5 -48.5t55.5 -13.5q46 0 78.5 35.5t45.5 101.5h240q-37 -206 -136 -310.5t-257 -104.5z" />
    <glyph glyph-name="uni00A0" unicode="&#xa0;" horiz-adv-x="462" 
 />
    <glyph glyph-name="exclamdown" unicode="&#xa1;" horiz-adv-x="659" 
d="M178 741l58 334h376l-57 -334h-377zM-16 -317l79 413l142 496h270l-39 -496l-63 -413h-389z" />
    <glyph glyph-name="cent" unicode="&#xa2;" horiz-adv-x="1216" 
d="M377 -147l29 159q-302 55 -302 324q0 49 11 113l35 198q33 190 140.5 295.5t301.5 126.5l26 154h261l-29 -160q285 -54 285 -322q0 -38 -11 -106h-356q6 38 6 65q0 52 -24 74.5t-80 22.5q-71 0 -104 -37t-48 -127l-35 -197q-6 -38 -6 -63q0 -51 24.5 -72.5t80.5 -21.5
q67 0 100.5 35.5t52.5 125.5h357q-37 -204 -140 -308t-288 -126l-27 -153h-260z" />
    <glyph glyph-name="sterling" unicode="&#xa3;" horiz-adv-x="1216" 
d="M37 0l47 274q78 32 129 96t74 148h-203l49 270h146q-27 98 -27 160q0 225 147.5 347t399.5 122q214 0 317 -82.5t103 -247.5q0 -59 -11 -118h-342q6 30 6 53q0 53 -26.5 77.5t-83.5 24.5q-160 0 -160 -237q0 -43 6 -99h443l-50 -270h-399q-30 -143 -129 -223h602
l-51 -295h-987z" />
    <glyph glyph-name="currency" unicode="&#xa4;" horiz-adv-x="1216" 
d="M250 139l-178 178l209 209q-39 80 -39 170t39 170l-209 209l178 178l211 -211q82 37 174 37t174 -37l211 211l178 -178l-209 -209q39 -80 39 -170t-39 -170l209 -209l-178 -178l-211 211q-82 -37 -174 -37t-174 37zM635 563q58 0 94.5 37t36.5 96t-36.5 96t-94.5 37
t-94.5 -37t-36.5 -96t36.5 -96t94.5 -37z" />
    <glyph glyph-name="yen" unicode="&#xa5;" horiz-adv-x="1216" 
d="M330 0l37 213h-285l31 174h284l19 102h-285l31 175h266l-276 729h401l125 -420l272 420h426l-534 -729h260l-31 -175h-285l-18 -102h285l-31 -174h-285l-37 -213h-370z" />
    <glyph glyph-name="brokenbar" unicode="&#xa6;" horiz-adv-x="593" 
d="M195 766l143 819h287l-144 -819h-286zM-23 -463l144 819h287l-144 -819h-287z" />
    <glyph glyph-name="section" unicode="&#xa7;" horiz-adv-x="1265" 
d="M479 -401q-231 0 -352 79t-121 234q0 26 8 88h355q-4 -28 -4 -43q0 -109 141 -109q77 0 123.5 29.5t46.5 85.5q0 51 -46.5 81.5t-185.5 70.5q-206 60 -286 132.5t-80 198.5q0 219 223 328v4q-49 40 -69.5 93t-20.5 130q0 200 147.5 308t399.5 108q218 0 334 -80.5
t116 -230.5q0 -34 -6 -72h-352q4 28 4 41q0 46 -30 71t-87 25q-70 0 -112.5 -35t-42.5 -87q0 -50 46 -79.5t181 -66.5q206 -57 287.5 -130t81.5 -202q0 -216 -224 -327v-4q50 -40 71.5 -95t21.5 -133q0 -205 -150 -309t-418 -104zM713 354q45 27 71.5 65.5t26.5 80.5
q0 54 -47 85t-184 68l-45 13q-43 -27 -67 -68.5t-24 -81.5q0 -52 47 -82.5t187 -68.5z" />
    <glyph glyph-name="dieresis" unicode="&#xa8;" horiz-adv-x="1024" 
d="M244 1204l51 291h317l-51 -291h-317zM696 1204l52 291h317l-51 -291h-318z" />
    <glyph glyph-name="copyright" unicode="&#xa9;" horiz-adv-x="1548" 
d="M801 -25q-204 0 -369 93.5t-258.5 258.5t-93.5 369t93.5 369t258.5 258.5t369 93.5t369 -93.5t258.5 -258.5t93.5 -369t-93.5 -369t-258.5 -258.5t-369 -93.5zM801 162q230 0 370 147t140 387t-140 387.5t-370 147.5t-370 -147.5t-140 -387.5t140 -387t370 -147zM803 313
q-157 0 -228 72.5t-71 232.5v156q0 160 71 232.5t228 72.5q155 0 227 -72t74 -229h-207q-3 67 -23 95t-65 28q-46 0 -66 -30t-20 -103v-143q0 -73 20 -103t66 -30q45 0 65 27.5t23 94.5h207q-2 -157 -74 -229t-227 -72z" />
    <glyph glyph-name="ordfeminine" unicode="&#xaa;" horiz-adv-x="851" 
d="M324 623q-115 0 -175.5 55.5t-60.5 161.5q0 128 88 196t254 68h160l4 26q2 8 2 23q0 66 -72 66q-80 0 -98 -68h-262q29 138 120.5 202t258.5 64q327 0 327 -235q0 -34 -6 -72l-82 -463h-235l6 66q-87 -90 -229 -90zM428 821q71 0 121 56l16 88h-88q-59 0 -92 -22t-33 -62
q0 -60 76 -60zM10 287l39 215h709l-39 -215h-709z" />
    <glyph glyph-name="guillemotleft" unicode="&#xab;" horiz-adv-x="1161" 
d="M233 168l-208 383l323 358h359l-351 -389l191 -352h-314zM754 168l-209 383l323 358h359l-350 -389l190 -352h-313z" />
    <glyph glyph-name="logicalnot" unicode="&#xac;" horiz-adv-x="1216" 
d="M778 254l68 383h-725l49 278h1012l-117 -661h-287z" />
    <glyph glyph-name="uni00AD" unicode="&#xad;" horiz-adv-x="798" 
d="M53 457l56 311h663l-55 -311h-664z" />
    <glyph glyph-name="registered" unicode="&#xae;" horiz-adv-x="1548" 
d="M801 -25q-204 0 -369 93.5t-258.5 258.5t-93.5 369t93.5 369t258.5 258.5t369 93.5t369 -93.5t258.5 -258.5t93.5 -369t-93.5 -369t-258.5 -258.5t-369 -93.5zM801 162q230 0 370 147t140 387t-140 387.5t-370 147.5t-370 -147.5t-140 -387.5t140 -387t370 -147zM502 334
v725h329q151 0 220 -58t69 -184q0 -85 -30 -137t-95 -78l168 -268h-248l-131 244h-63v-244h-219zM721 739h86q50 0 72 17t22 55q0 40 -22.5 58t-71.5 18h-86v-148z" />
    <glyph glyph-name="macron" unicode="&#xaf;" horiz-adv-x="1024" 
d="M311 1233l41 233h647l-41 -233h-647z" />
    <glyph glyph-name="degree" unicode="&#xb0;" horiz-adv-x="872" 
d="M500 717q-155 0 -252.5 92t-97.5 244q0 172 119 290.5t298 118.5q155 0 253 -92t98 -244q0 -172 -119.5 -290.5t-298.5 -118.5zM512 946q66 0 110 51.5t44 120.5q0 55 -31 85t-80 30q-66 0 -110 -51.5t-44 -120.5q0 -55 31 -85t80 -30z" />
    <glyph glyph-name="plusminus" unicode="&#xb1;" horiz-adv-x="1216" 
d="M434 369l47 266h-362l49 278h362l56 306h286l-55 -306h363l-50 -278h-362l-47 -266h-287zM8 0l49 279h1012l-49 -279h-1012z" />
    <glyph glyph-name="uni00B2" unicode="&#xb2;" 
d="M102 852l21 117q20 118 93 195t212 130q89 34 126.5 66t37.5 74q0 53 -60 53q-71 0 -86 -86l-4 -23h-233l8 47q24 135 108 196.5t226 61.5q141 0 216 -58t75 -173q0 -235 -332 -348q-92 -32 -113 -53h377l-35 -199h-637z" />
    <glyph glyph-name="uni00B3" unicode="&#xb3;" 
d="M444 827q-146 0 -222.5 53.5t-76.5 145.5q0 19 5 49l6 35h239l-2 -12q-2 -12 -2 -21q0 -57 64 -57q47 0 70.5 24.5t23.5 63.5q0 30 -18.5 45.5t-69.5 15.5h-74l31 170h63q55 0 83 27t28 70q0 29 -13 42t-42 13q-66 0 -78 -72l-2 -12h-238l6 35q22 123 100.5 182t229.5 59
q147 0 217 -54t70 -163q0 -153 -140 -200v-4q93 -43 93 -166q0 -128 -93 -198.5t-258 -70.5z" />
    <glyph glyph-name="acute" unicode="&#xb4;" horiz-adv-x="1024" 
d="M395 1204l285 291h397l-358 -291h-324z" />
    <glyph glyph-name="uni00B5" unicode="&#xb5;" horiz-adv-x="1175" 
d="M-53 -373l256 1448h370l-120 -678q-4 -32 -4 -41q0 -75 69 -75q91 0 154 106l121 688h370l-190 -1075h-314l11 98q-123 -123 -285 -123h-6l-62 -348h-370z" />
    <glyph glyph-name="paragraph" unicode="&#xb6;" horiz-adv-x="1265" 
d="M248 -375l160 903q-158 17 -228.5 99t-70.5 247q0 255 133.5 387t392.5 132h637l-311 -1768h-275l266 1512h-159l-269 -1512h-276z" />
    <glyph glyph-name="periodcentered" unicode="&#xb7;" horiz-adv-x="612" 
d="M96 424l68 379h381l-68 -379h-381z" />
    <glyph glyph-name="cedilla" unicode="&#xb8;" horiz-adv-x="1024" 
d="M311 -438q-77 0 -134.5 10.5t-127.5 38.5l70 125q69 -35 129 -35q92 0 92 53q0 23 -23.5 32t-85.5 9h-26l133 236h154l-76 -137q205 -3 205 -152q0 -92 -76.5 -136t-233.5 -44z" />
    <glyph glyph-name="uni00B9" unicode="&#xb9;" 
d="M164 852l33 192h190l59 334h-215l31 176q94 0 151 24t97 81h235l-108 -615h186l-32 -192h-627z" />
    <glyph glyph-name="ordmasculine" unicode="&#xba;" horiz-adv-x="839" 
d="M459 623q-330 0 -330 260q0 43 8 84l23 127q30 172 124 247.5t267 75.5q330 0 330 -260q0 -37 -9 -84l-22 -127q-30 -172 -124 -247.5t-267 -75.5zM473 831q44 0 68.5 27t36.5 94l24 140q4 18 4 49q0 36 -15.5 51.5t-53.5 15.5q-44 0 -68.5 -27t-36.5 -94l-24 -139
q-5 -22 -5 -49q0 -36 16 -52t54 -16zM20 287l39 215h709l-39 -215h-709z" />
    <glyph glyph-name="guillemotright" unicode="&#xbb;" horiz-adv-x="1161" 
d="M-66 168l351 389l-191 352h314l208 -383l-323 -358h-359zM455 168l350 389l-191 352h314l209 -383l-324 -358h-358z" />
    <glyph glyph-name="onequarter" unicode="&#xbc;" horiz-adv-x="1740" 
d="M334 -25l1012 1442h241l-1012 -1442h-241zM117 586l33 192h190l59 334h-215l31 176q94 0 151 24t97 81h235l-108 -615h186l-33 -192h-626zM1294 0l29 160h-356l37 198l419 449h263l-82 -465h73l-32 -182h-72l-29 -160h-250zM1210 342h144l35 199z" />
    <glyph glyph-name="onehalf" unicode="&#xbd;" horiz-adv-x="1740" 
d="M1284 1417h242l-1012 -1442h-242l428 611h-583l33 192h190l59 334h-215l31 176q94 0 151 24t97 81h235l-108 -615h186l-18 -112zM1352 252q-92 -32 -113 -53h377l-35 -199h-637l21 117q20 118 93 195t212 130q89 34 126.5 66t37.5 74q0 53 -60 53q-71 0 -86 -86l-4 -23
h-233l8 47q24 135 108 196.5t226 61.5q141 0 215.5 -57.5t74.5 -173.5q0 -235 -331 -348z" />
    <glyph glyph-name="threequarters" unicode="&#xbe;" horiz-adv-x="1740" 
d="M397 561q-146 0 -222.5 53.5t-76.5 145.5q0 25 4 49l7 35h239l-2 -13q-2 -12 -2 -20q0 -57 64 -57q47 0 70.5 24.5t23.5 63.5q0 30 -18.5 45.5t-69.5 15.5h-74l31 170h63q55 0 83 26.5t28 69.5q0 56 -56 56q-65 0 -77 -72l-2 -12h-238l6 35q22 123 100.5 182t229.5 59
q147 0 217 -54t70 -163q0 -154 -140 -201v-4q93 -43 93 -166q0 -128 -93 -198t-258 -70zM334 -25l1012 1442h241l-1012 -1442h-241zM1294 0l29 160h-356l37 198l419 449h263l-82 -465h73l-32 -182h-72l-29 -160h-250zM1210 342h144l35 199z" />
    <glyph glyph-name="questiondown" unicode="&#xbf;" horiz-adv-x="991" 
d="M389 741l57 334h375l-57 -334h-375zM375 -342q-206 0 -317 81.5t-111 233.5q0 143 61 238t205 174q85 46 123 87t47 97l4 23h326l-8 -47q-20 -116 -74 -190.5t-166 -141.5q-83 -49 -115.5 -91.5t-32.5 -101.5q0 -69 84 -69q62 0 97.5 39t48.5 123h346
q-41 -236 -166 -345.5t-352 -109.5z" />
    <glyph glyph-name="Agrave" unicode="&#xc0;" horiz-adv-x="1280" 
d="M739 1513l-256 291h365l182 -291h-291zM-94 0l684 1393h403l193 -1393h-389l-23 248h-373l-112 -248h-383zM526 539h226l-33 452z" />
    <glyph glyph-name="Aacute" unicode="&#xc1;" horiz-adv-x="1280" 
d="M580 1513l284 291h398l-359 -291h-323zM-94 0l684 1393h403l193 -1393h-389l-23 248h-373l-112 -248h-383zM526 539h226l-33 452z" />
    <glyph glyph-name="Acircumflex" unicode="&#xc2;" horiz-adv-x="1280" 
d="M389 1513l313 291h316l211 -291h-291l-94 105l-131 -105h-324zM-94 0l684 1393h403l193 -1393h-389l-23 248h-373l-112 -248h-383zM526 539h226l-33 452z" />
    <glyph glyph-name="Atilde" unicode="&#xc3;" horiz-adv-x="1280" 
d="M963 1491q-85 0 -177 57q-47 31 -75 31q-50 0 -72 -76h-190q31 159 96.5 236.5t169.5 77.5q83 0 176 -58q46 -30 76 -30q50 0 71 75h191q-31 -158 -96.5 -235.5t-169.5 -77.5zM-94 0l684 1393h403l193 -1393h-389l-23 248h-373l-112 -248h-383zM526 539h226l-33 452z" />
    <glyph glyph-name="Adieresis" unicode="&#xc4;" horiz-adv-x="1280" 
d="M428 1513l51 291h318l-52 -291h-317zM881 1513l51 291h317l-51 -291h-317zM-94 0l684 1393h403l193 -1393h-389l-23 248h-373l-112 -248h-383zM526 539h226l-33 452z" />
    <glyph glyph-name="Aring" unicode="&#xc5;" horiz-adv-x="1280" 
d="M821 1470q-111 0 -180.5 66.5t-69.5 173.5q0 114 81 189t204 75q111 0 180.5 -66t69.5 -173q0 -114 -81 -189.5t-204 -75.5zM829 1634q41 0 65 29.5t24 75.5q0 35 -18.5 53t-51.5 18q-41 0 -64.5 -29t-23.5 -75q0 -35 18 -53.5t51 -18.5zM-94 0l684 1393h403l193 -1393
h-389l-23 248h-373l-112 -248h-383zM526 539h226l-33 452z" />
    <glyph glyph-name="AE" unicode="&#xc6;" horiz-adv-x="1875" 
d="M-152 0l994 1393h1087l-55 -306h-547l-43 -239h447l-54 -295h-444l-45 -248h569l-53 -305h-946l43 248h-365l-176 -248h-412zM627 539h225l90 503z" />
    <glyph glyph-name="Ccedilla" unicode="&#xc7;" horiz-adv-x="1239" 
d="M1249 866h-356q10 65 10 103q0 76 -35.5 107.5t-115.5 31.5q-104 0 -153 -57.5t-77 -214.5l-49 -279q-14 -80 -14 -133q0 -77 33 -108t112 -31q103 0 151.5 52t75.5 187h359q-54 -280 -190.5 -409t-383.5 -138l-45 -83q205 -3 205 -152q0 -92 -76 -136t-233 -44
q-77 0 -134.5 10.5t-127.5 38.5l69 125q69 -35 129 -35q93 0 93 53q0 23 -23.5 32t-85.5 9h-27l105 185q-196 20 -290.5 121t-94.5 292q0 86 14 166l53 303q51 288 201 421.5t432 133.5q245 0 363.5 -99.5t118.5 -303.5q0 -62 -13 -148z" />
    <glyph glyph-name="Egrave" unicode="&#xc8;" horiz-adv-x="1208" 
d="M721 1513l-256 291h364l183 -291h-291zM39 0l246 1393h977l-56 -306h-598l-41 -233h496l-51 -295h-498l-45 -254h621l-54 -305h-997z" />
    <glyph glyph-name="Eacute" unicode="&#xc9;" horiz-adv-x="1208" 
d="M561 1513l285 291h397l-358 -291h-324zM39 0l246 1393h977l-56 -306h-598l-41 -233h496l-51 -295h-498l-45 -254h621l-54 -305h-997z" />
    <glyph glyph-name="Ecircumflex" unicode="&#xca;" horiz-adv-x="1208" 
d="M371 1513l313 291h315l211 -291h-290l-95 105l-131 -105h-323zM39 0l246 1393h977l-56 -306h-598l-41 -233h496l-51 -295h-498l-45 -254h621l-54 -305h-997z" />
    <glyph glyph-name="Edieresis" unicode="&#xcb;" horiz-adv-x="1208" 
d="M410 1513l51 291h317l-51 -291h-317zM862 1513l51 291h318l-51 -291h-318zM39 0l246 1393h977l-56 -306h-598l-41 -233h496l-51 -295h-498l-45 -254h621l-54 -305h-997z" />
    <glyph glyph-name="Igrave" unicode="&#xcc;" horiz-adv-x="643" 
d="M420 1513l-256 291h364l183 -291h-291zM39 0l246 1393h377l-246 -1393h-377z" />
    <glyph glyph-name="Iacute" unicode="&#xcd;" horiz-adv-x="643" 
d="M260 1513l285 291h397l-358 -291h-324zM39 0l246 1393h377l-246 -1393h-377z" />
    <glyph glyph-name="Icircumflex" unicode="&#xce;" horiz-adv-x="643" 
d="M90 1513l287 291h328l184 -291h-279l-84 111l-125 -111h-311zM39 0l246 1393h377l-246 -1393h-377z" />
    <glyph glyph-name="Idieresis" unicode="&#xcf;" horiz-adv-x="643" 
d="M129 1513l51 291h307l-51 -291h-307zM549 1513l51 291h307l-51 -291h-307zM39 0l246 1393h377l-246 -1393h-377z" />
    <glyph glyph-name="Eth" unicode="&#xd0;" horiz-adv-x="1331" 
d="M834 1393q477 0 477 -396q0 -66 -17 -166l-51 -290q-51 -286 -201 -413.5t-434 -127.5h-549l99 559h-115l51 295h117l94 539h529zM915 827q13 76 13 115q0 85 -43 120.5t-144 35.5h-110l-43 -244h182l-51 -295h-184l-48 -264h113q131 0 186 57.5t82 208.5z" />
    <glyph glyph-name="Ntilde" unicode="&#xd1;" horiz-adv-x="1376" 
d="M1010 1491q-84 0 -176 57q-47 31 -76 31q-50 0 -72 -76h-190q31 159 96.5 236.5t169.5 77.5q83 0 176 -58q46 -30 76 -30q50 0 71 75h191q-31 -158 -96.5 -235.5t-169.5 -77.5zM39 0l246 1393h364l264 -789l140 789h342l-246 -1393h-342l-279 831l-147 -831h-342z" />
    <glyph glyph-name="Ograve" unicode="&#xd2;" horiz-adv-x="1335" 
d="M766 1513l-256 291h364l183 -291h-291zM588 -25q-265 0 -386.5 103t-121.5 315q0 86 14 166l53 303q52 293 208 424t448 131q265 0 386.5 -103t121.5 -315q0 -80 -15 -165l-53 -304q-52 -293 -207.5 -424t-447.5 -131zM627 285q112 0 163 60.5t78 211.5l50 279
q12 71 12 118q0 81 -37.5 117.5t-128.5 36.5q-112 0 -163.5 -60.5t-78.5 -211.5l-49 -279q-12 -70 -12 -119q0 -81 37.5 -117t128.5 -36z" />
    <glyph glyph-name="Oacute" unicode="&#xd3;" horiz-adv-x="1335" 
d="M606 1513l285 291h397l-358 -291h-324zM588 -25q-265 0 -386.5 103t-121.5 315q0 86 14 166l53 303q52 293 208 424t448 131q265 0 386.5 -103t121.5 -315q0 -80 -15 -165l-53 -304q-52 -293 -207.5 -424t-447.5 -131zM627 285q112 0 163 60.5t78 211.5l50 279
q12 71 12 118q0 81 -37.5 117.5t-128.5 36.5q-112 0 -163.5 -60.5t-78.5 -211.5l-49 -279q-12 -70 -12 -119q0 -81 37.5 -117t128.5 -36z" />
    <glyph glyph-name="Ocircumflex" unicode="&#xd4;" horiz-adv-x="1335" 
d="M416 1513l313 291h315l211 -291h-290l-95 105l-131 -105h-323zM588 -25q-265 0 -386.5 103t-121.5 315q0 86 14 166l53 303q52 293 208 424t448 131q265 0 386.5 -103t121.5 -315q0 -80 -15 -165l-53 -304q-52 -293 -207.5 -424t-447.5 -131zM627 285q112 0 163 60.5
t78 211.5l50 279q12 71 12 118q0 81 -37.5 117.5t-128.5 36.5q-112 0 -163.5 -60.5t-78.5 -211.5l-49 -279q-12 -70 -12 -119q0 -81 37.5 -117t128.5 -36z" />
    <glyph glyph-name="Otilde" unicode="&#xd5;" horiz-adv-x="1335" 
d="M989 1491q-84 0 -176 57q-47 31 -76 31q-49 0 -71 -76h-191q31 159 96.5 236.5t169.5 77.5q84 0 177 -58q46 -30 75 -30q51 0 72 75h190q-31 -158 -96.5 -235.5t-169.5 -77.5zM588 -25q-265 0 -386.5 103t-121.5 315q0 86 14 166l53 303q52 293 208 424t448 131
q265 0 386.5 -103t121.5 -315q0 -80 -15 -165l-53 -304q-52 -293 -207.5 -424t-447.5 -131zM627 285q112 0 163 60.5t78 211.5l50 279q12 71 12 118q0 81 -37.5 117.5t-128.5 36.5q-112 0 -163.5 -60.5t-78.5 -211.5l-49 -279q-12 -70 -12 -119q0 -81 37.5 -117t128.5 -36z
" />
    <glyph glyph-name="Odieresis" unicode="&#xd6;" horiz-adv-x="1335" 
d="M455 1513l51 291h317l-51 -291h-317zM907 1513l51 291h318l-51 -291h-318zM588 -25q-265 0 -386.5 103t-121.5 315q0 86 14 166l53 303q52 293 208 424t448 131q265 0 386.5 -103t121.5 -315q0 -80 -15 -165l-53 -304q-52 -293 -207.5 -424t-447.5 -131zM627 285
q112 0 163 60.5t78 211.5l50 279q12 71 12 118q0 81 -37.5 117.5t-128.5 36.5q-112 0 -163.5 -60.5t-78.5 -211.5l-49 -279q-12 -70 -12 -119q0 -81 37.5 -117t128.5 -36z" />
    <glyph glyph-name="multiply" unicode="&#xd7;" horiz-adv-x="1216" 
d="M225 109l-176 206l387 334l-270 334l211 174l266 -330l381 330l178 -207l-387 -334l270 -333l-213 -174l-266 329z" />
    <glyph glyph-name="Oslash" unicode="&#xd8;" horiz-adv-x="1335" 
d="M1372 1280l-90 -98q29 -82 29 -183q0 -80 -15 -165l-53 -304q-52 -293 -207.5 -424t-447.5 -131q-225 0 -350 78l-72 -78l-148 138l91 98q-29 82 -29 182q0 86 14 166l53 303q52 293 208 424t448 131q227 0 352 -78l72 78zM522 836l-39 -222l416 451q-37 43 -135 43
q-112 0 -163.5 -60.5t-78.5 -211.5zM868 557l39 219l-415 -448q40 -43 135 -43q112 0 163 60.5t78 211.5z" />
    <glyph glyph-name="Ugrave" unicode="&#xd9;" horiz-adv-x="1288" 
d="M743 1513l-256 291h365l182 -291h-291zM567 -25q-248 0 -362.5 89t-114.5 278q0 65 14 145l160 906h377l-160 -906q-8 -47 -8 -84q0 -64 31.5 -91t103.5 -27q91 0 136 45t65 157l160 906h358l-164 -928q-45 -262 -185.5 -376t-410.5 -114z" />
    <glyph glyph-name="Uacute" unicode="&#xda;" horiz-adv-x="1288" 
d="M584 1513l284 291h398l-359 -291h-323zM567 -25q-248 0 -362.5 89t-114.5 278q0 65 14 145l160 906h377l-160 -906q-8 -47 -8 -84q0 -64 31.5 -91t103.5 -27q91 0 136 45t65 157l160 906h358l-164 -928q-45 -262 -185.5 -376t-410.5 -114z" />
    <glyph glyph-name="Ucircumflex" unicode="&#xdb;" horiz-adv-x="1288" 
d="M393 1513l314 291h315l211 -291h-291l-94 105l-131 -105h-324zM567 -25q-248 0 -362.5 89t-114.5 278q0 65 14 145l160 906h377l-160 -906q-8 -47 -8 -84q0 -64 31.5 -91t103.5 -27q91 0 136 45t65 157l160 906h358l-164 -928q-45 -262 -185.5 -376t-410.5 -114z" />
    <glyph glyph-name="Udieresis" unicode="&#xdc;" horiz-adv-x="1288" 
d="M432 1513l51 291h318l-51 -291h-318zM885 1513l51 291h317l-51 -291h-317zM567 -25q-248 0 -362.5 89t-114.5 278q0 65 14 145l160 906h377l-160 -906q-8 -47 -8 -84q0 -64 31.5 -91t103.5 -27q91 0 136 45t65 157l160 906h358l-164 -928q-45 -262 -185.5 -376
t-410.5 -114z" />
    <glyph glyph-name="Yacute" unicode="&#xdd;" horiz-adv-x="1124" 
d="M500 1513l284 291h398l-359 -291h-323zM276 0l105 588l-287 805h408l131 -435l282 435h418l-581 -826l-101 -567h-375z" />
    <glyph glyph-name="Thorn" unicode="&#xde;" horiz-adv-x="1263" 
d="M39 0l246 1393h377l-31 -174h178q250 0 354.5 -88.5t104.5 -299.5q0 -269 -153 -409.5t-451 -140.5h-199l-49 -281h-377zM518 575h152q105 0 162 57t57 159q0 74 -35 103.5t-123 29.5h-151z" />
    <glyph glyph-name="germandbls" unicode="&#xdf;" horiz-adv-x="1271" 
d="M70 0l143 811h-147l45 264h149l8 51q35 201 160.5 297.5t351.5 96.5q207 0 317.5 -77t110.5 -226q0 -164 -149 -310q-46 -45 -63 -73t-17 -56q0 -29 19 -51.5t67 -52.5q86 -54 116.5 -104.5t30.5 -141.5q0 -200 -137 -314t-391 -114h-164l47 274h156q55 0 86 26.5
t31 70.5q0 31 -18 54.5t-68 57.5q-73 49 -102 98.5t-29 123.5q0 144 129 282q52 57 73 97t21 83q0 84 -82 84q-53 0 -84 -33.5t-43 -103.5l-197 -1114h-370z" />
    <glyph glyph-name="agrave" unicode="&#xe0;" horiz-adv-x="1093" 
d="M582 1204l-256 291h364l182 -291h-290zM301 -25q-297 0 -297 291q0 194 128 292.5t360 98.5h161l6 33q9 53 9 66q0 78 -84 78q-96 0 -125 -105h-353q44 197 166.5 284t348.5 87q216 0 316.5 -76.5t100.5 -239.5q0 -54 -10 -108l-119 -676h-315l10 109
q-117 -134 -303 -134zM453 242q79 0 141 82l27 141h-82q-85 0 -129.5 -34.5t-44.5 -96.5q0 -44 22.5 -68t65.5 -24z" />
    <glyph glyph-name="aacute" unicode="&#xe1;" horiz-adv-x="1093" 
d="M422 1204l285 291h397l-359 -291h-323zM301 -25q-297 0 -297 291q0 194 128 292.5t360 98.5h161l6 33q9 53 9 66q0 78 -84 78q-96 0 -125 -105h-353q44 197 166.5 284t348.5 87q216 0 316.5 -76.5t100.5 -239.5q0 -54 -10 -108l-119 -676h-315l10 109
q-117 -134 -303 -134zM453 242q79 0 141 82l27 141h-82q-85 0 -129.5 -34.5t-44.5 -96.5q0 -44 22.5 -68t65.5 -24z" />
    <glyph glyph-name="acircumflex" unicode="&#xe2;" horiz-adv-x="1093" 
d="M231 1204l314 291h315l211 -291h-291l-94 105l-131 -105h-324zM301 -25q-297 0 -297 291q0 194 128 292.5t360 98.5h161l6 33q9 53 9 66q0 78 -84 78q-96 0 -125 -105h-353q44 197 166.5 284t348.5 87q216 0 316.5 -76.5t100.5 -239.5q0 -54 -10 -108l-119 -676h-315
l10 109q-117 -134 -303 -134zM453 242q79 0 141 82l27 141h-82q-85 0 -129.5 -34.5t-44.5 -96.5q0 -44 22.5 -68t65.5 -24z" />
    <glyph glyph-name="atilde" unicode="&#xe3;" horiz-adv-x="1093" 
d="M805 1182q-84 0 -176 57q-47 31 -76 31q-50 0 -72 -76h-190q31 158 96.5 235.5t169.5 77.5q84 0 176 -57q47 -31 76 -31q50 0 72 76h190q-31 -158 -96.5 -235.5t-169.5 -77.5zM301 -25q-297 0 -297 291q0 194 128 292.5t360 98.5h161l6 33q9 53 9 66q0 78 -84 78
q-96 0 -125 -105h-353q44 197 166.5 284t348.5 87q216 0 316.5 -76.5t100.5 -239.5q0 -54 -10 -108l-119 -676h-315l10 109q-117 -134 -303 -134zM453 242q79 0 141 82l27 141h-82q-85 0 -129.5 -34.5t-44.5 -96.5q0 -44 22.5 -68t65.5 -24z" />
    <glyph glyph-name="adieresis" unicode="&#xe4;" horiz-adv-x="1093" 
d="M270 1204l52 291h317l-51 -291h-318zM723 1204l51 291h318l-52 -291h-317zM301 -25q-297 0 -297 291q0 194 128 292.5t360 98.5h161l6 33q9 53 9 66q0 78 -84 78q-96 0 -125 -105h-353q44 197 166.5 284t348.5 87q216 0 316.5 -76.5t100.5 -239.5q0 -54 -10 -108
l-119 -676h-315l10 109q-117 -134 -303 -134zM453 242q79 0 141 82l27 141h-82q-85 0 -129.5 -34.5t-44.5 -96.5q0 -44 22.5 -68t65.5 -24z" />
    <glyph glyph-name="aring" unicode="&#xe5;" horiz-adv-x="1093" 
d="M664 1161q-111 0 -180.5 66.5t-69.5 173.5q0 114 80.5 189t203.5 75q111 0 180.5 -66.5t69.5 -173.5q0 -114 -80.5 -189t-203.5 -75zM672 1325q41 0 64.5 29t23.5 76q0 35 -18.5 53t-51.5 18q-41 0 -64.5 -29t-23.5 -75q0 -35 18.5 -53.5t51.5 -18.5zM301 -25
q-297 0 -297 291q0 194 128 292.5t360 98.5h161l6 33q9 53 9 66q0 78 -84 78q-96 0 -125 -105h-353q44 197 166.5 284t348.5 87q216 0 316.5 -76.5t100.5 -239.5q0 -54 -10 -108l-119 -676h-315l10 109q-117 -134 -303 -134zM453 242q79 0 141 82l27 141h-82
q-85 0 -129.5 -34.5t-44.5 -96.5q0 -44 22.5 -68t65.5 -24z" />
    <glyph glyph-name="ae" unicode="&#xe6;" horiz-adv-x="1689" 
d="M338 -25q-166 0 -249 72t-83 221q0 194 128.5 291.5t359.5 97.5h163l7 37q6 30 6 56q0 84 -84 84q-96 0 -125 -105h-352q78 371 477 371q234 0 319 -123q114 123 338 123q202 0 303 -90.5t101 -264.5q0 -54 -11 -116l-32 -187h-617l-4 -28q-6 -37 -6 -70q0 -54 25.5 -79
t82.5 -25q114 0 142 102h354q-42 -194 -170.5 -280.5t-347.5 -86.5q-285 0 -391 142q-67 -75 -146 -108.5t-188 -33.5zM1026 651h264l2 13q8 40 8 71q0 101 -110 101q-71 0 -109.5 -41.5t-52.5 -130.5zM455 242q87 0 153 98q0 46 10 100l5 25h-82q-86 0 -130 -34.5
t-44 -96.5q0 -44 22.5 -68t65.5 -24z" />
    <glyph glyph-name="ccedilla" unicode="&#xe7;" horiz-adv-x="1077" 
d="M1049 645h-355q8 62 8 80q0 51 -22 72.5t-72 21.5q-62 0 -95 -39t-50 -135l-37 -209q-8 -47 -8 -78q0 -55 22 -78.5t72 -23.5q63 0 94.5 38.5t50.5 135.5h355q-39 -227 -158 -335.5t-326 -117.5l-45 -83q205 -3 205 -152q0 -92 -76 -136t-233 -44q-77 0 -134.5 10.5
t-127.5 38.5l69 125q69 -35 129 -35q93 0 93 53q0 23 -23.5 32t-85.5 9h-27l105 187q-330 37 -330 348q0 60 10 119l37 208q40 226 172 334.5t365 108.5q214 0 321 -86.5t107 -253.5q0 -47 -10 -115z" />
    <glyph glyph-name="egrave" unicode="&#xe8;" horiz-adv-x="1128" 
d="M608 1204l-256 291h365l182 -291h-291zM504 -25q-232 0 -344.5 92t-112.5 263q0 63 10 119l37 208q78 443 549 443q219 0 330.5 -91.5t111.5 -263.5q0 -60 -10 -116l-33 -187h-616l-4 -28q-6 -37 -6 -70q0 -54 25.5 -79t82.5 -25q114 0 142 102h354q-41 -191 -168.5 -279
t-347.5 -88zM465 651h264l2 13q8 46 8 71q0 101 -110 101q-71 0 -109.5 -41.5t-52.5 -130.5z" />
    <glyph glyph-name="eacute" unicode="&#xe9;" horiz-adv-x="1128" 
d="M449 1204l284 291h397l-358 -291h-323zM504 -25q-232 0 -344.5 92t-112.5 263q0 63 10 119l37 208q78 443 549 443q219 0 330.5 -91.5t111.5 -263.5q0 -60 -10 -116l-33 -187h-616l-4 -28q-6 -37 -6 -70q0 -54 25.5 -79t82.5 -25q114 0 142 102h354q-41 -191 -168.5 -279
t-347.5 -88zM465 651h264l2 13q8 46 8 71q0 101 -110 101q-71 0 -109.5 -41.5t-52.5 -130.5z" />
    <glyph glyph-name="ecircumflex" unicode="&#xea;" horiz-adv-x="1128" 
d="M258 1204l313 291h316l211 -291h-291l-94 105l-131 -105h-324zM504 -25q-232 0 -344.5 92t-112.5 263q0 63 10 119l37 208q78 443 549 443q219 0 330.5 -91.5t111.5 -263.5q0 -60 -10 -116l-33 -187h-616l-4 -28q-6 -37 -6 -70q0 -54 25.5 -79t82.5 -25q114 0 142 102
h354q-41 -191 -168.5 -279t-347.5 -88zM465 651h264l2 13q8 46 8 71q0 101 -110 101q-71 0 -109.5 -41.5t-52.5 -130.5z" />
    <glyph glyph-name="edieresis" unicode="&#xeb;" horiz-adv-x="1128" 
d="M297 1204l51 291h318l-52 -291h-317zM750 1204l51 291h317l-51 -291h-317zM504 -25q-232 0 -344.5 92t-112.5 263q0 63 10 119l37 208q78 443 549 443q219 0 330.5 -91.5t111.5 -263.5q0 -60 -10 -116l-33 -187h-616l-4 -28q-6 -37 -6 -70q0 -54 25.5 -79t82.5 -25
q114 0 142 102h354q-41 -191 -168.5 -279t-347.5 -88zM465 651h264l2 13q8 46 8 71q0 101 -110 101q-71 0 -109.5 -41.5t-52.5 -130.5z" />
    <glyph glyph-name="igrave" unicode="&#xec;" horiz-adv-x="585" 
d="M336 1204l-256 291h364l183 -291h-291zM12 0l191 1075h370l-190 -1075h-371z" />
    <glyph glyph-name="iacute" unicode="&#xed;" horiz-adv-x="585" 
d="M176 1204l285 291h397l-358 -291h-324zM12 0l191 1075h370l-190 -1075h-371z" />
    <glyph glyph-name="icircumflex" unicode="&#xee;" horiz-adv-x="585" 
d="M6 1204l287 291h328l184 -291h-279l-84 111l-125 -111h-311zM12 0l191 1075h370l-190 -1075h-371z" />
    <glyph glyph-name="idieresis" unicode="&#xef;" horiz-adv-x="585" 
d="M45 1204l51 291h307l-51 -291h-307zM465 1204l51 291h307l-51 -291h-307zM12 0l191 1075h370l-190 -1075h-371z" />
    <glyph glyph-name="eth" unicode="&#xf0;" horiz-adv-x="1144" 
d="M494 -25q-451 0 -451 357q0 58 10 117l25 139q37 211 145 317.5t269 106.5q91 0 146 -36.5t95 -115.5q-14 133 -86 277l-264 -93l-57 164l225 78q-78 105 -201 209h430q44 -41 92 -96l187 65l57 -164l-139 -49q123 -215 123 -475q0 -83 -17 -182l-30 -174
q-40 -229 -176 -337t-383 -108zM524 256q67 0 104.5 39t55.5 143l33 189q-6 44 -35.5 70t-81.5 26q-58 0 -100 -38t-56 -120l-22 -129q-6 -38 -6 -69q0 -64 28 -87.5t80 -23.5z" />
    <glyph glyph-name="ntilde" unicode="&#xf1;" horiz-adv-x="1159" 
d="M846 1182q-84 0 -176 57q-47 31 -76 31q-50 0 -72 -76h-190q31 158 96.5 235.5t169.5 77.5q84 0 176 -57q47 -31 76 -31q50 0 72 76h190q-31 -158 -96.5 -235.5t-169.5 -77.5zM12 0l191 1075h315l-10 -94q125 119 293 119q149 0 224 -74.5t75 -212.5q0 -61 -10 -117
l-123 -696h-371l119 674q4 20 4 51q0 70 -68 70q-88 0 -145 -103l-123 -692h-371z" />
    <glyph glyph-name="ograve" unicode="&#xf2;" horiz-adv-x="1150" 
d="M618 1204l-256 291h365l182 -291h-291zM496 -25q-223 0 -336 90t-113 265q0 62 10 116l37 211q40 228 176.5 335.5t384.5 107.5q223 0 336 -90t113 -265q0 -62 -10 -116l-37 -211q-40 -228 -176.5 -335.5t-384.5 -107.5zM526 256q70 0 108 41.5t56 142.5l35 197
q8 58 8 76q0 57 -26.5 81.5t-81.5 24.5q-70 0 -108 -41.5t-56 -142.5l-35 -197q-8 -58 -8 -76q0 -57 26.5 -81.5t81.5 -24.5z" />
    <glyph glyph-name="oacute" unicode="&#xf3;" horiz-adv-x="1150" 
d="M459 1204l284 291h398l-359 -291h-323zM496 -25q-223 0 -336 90t-113 265q0 62 10 116l37 211q40 228 176.5 335.5t384.5 107.5q223 0 336 -90t113 -265q0 -62 -10 -116l-37 -211q-40 -228 -176.5 -335.5t-384.5 -107.5zM526 256q70 0 108 41.5t56 142.5l35 197
q8 58 8 76q0 57 -26.5 81.5t-81.5 24.5q-70 0 -108 -41.5t-56 -142.5l-35 -197q-8 -58 -8 -76q0 -57 26.5 -81.5t81.5 -24.5z" />
    <glyph glyph-name="ocircumflex" unicode="&#xf4;" horiz-adv-x="1150" 
d="M268 1204l314 291h315l211 -291h-291l-94 105l-131 -105h-324zM496 -25q-223 0 -336 90t-113 265q0 62 10 116l37 211q40 228 176.5 335.5t384.5 107.5q223 0 336 -90t113 -265q0 -62 -10 -116l-37 -211q-40 -228 -176.5 -335.5t-384.5 -107.5zM526 256q70 0 108 41.5
t56 142.5l35 197q8 58 8 76q0 57 -26.5 81.5t-81.5 24.5q-70 0 -108 -41.5t-56 -142.5l-35 -197q-8 -58 -8 -76q0 -57 26.5 -81.5t81.5 -24.5z" />
    <glyph glyph-name="otilde" unicode="&#xf5;" horiz-adv-x="1150" 
d="M842 1182q-84 0 -176 57q-47 31 -76 31q-50 0 -72 -76h-190q31 158 96.5 235.5t169.5 77.5q84 0 176 -57q47 -31 76 -31q50 0 72 76h190q-31 -158 -96.5 -235.5t-169.5 -77.5zM496 -25q-223 0 -336 90t-113 265q0 62 10 116l37 211q40 228 176.5 335.5t384.5 107.5
q223 0 336 -90t113 -265q0 -62 -10 -116l-37 -211q-40 -228 -176.5 -335.5t-384.5 -107.5zM526 256q70 0 108 41.5t56 142.5l35 197q8 58 8 76q0 57 -26.5 81.5t-81.5 24.5q-70 0 -108 -41.5t-56 -142.5l-35 -197q-8 -58 -8 -76q0 -57 26.5 -81.5t81.5 -24.5z" />
    <glyph glyph-name="odieresis" unicode="&#xf6;" horiz-adv-x="1150" 
d="M307 1204l51 291h318l-51 -291h-318zM760 1204l51 291h317l-51 -291h-317zM496 -25q-223 0 -336 90t-113 265q0 62 10 116l37 211q40 228 176.5 335.5t384.5 107.5q223 0 336 -90t113 -265q0 -62 -10 -116l-37 -211q-40 -228 -176.5 -335.5t-384.5 -107.5zM526 256
q70 0 108 41.5t56 142.5l35 197q8 58 8 76q0 57 -26.5 81.5t-81.5 24.5q-70 0 -108 -41.5t-56 -142.5l-35 -197q-8 -58 -8 -76q0 -57 26.5 -81.5t81.5 -24.5z" />
    <glyph glyph-name="divide" unicode="&#xf7;" horiz-adv-x="1216" 
d="M487 934l52 289h381l-52 -289h-381zM94 494l49 278h1012l-49 -278h-1012zM330 43l51 289h381l-51 -289h-381z" />
    <glyph glyph-name="oslash" unicode="&#xf8;" horiz-adv-x="1150" 
d="M1153 971l-76 -74q27 -64 27 -152q0 -62 -10 -116l-37 -211q-40 -228 -176.5 -335.5t-384.5 -107.5q-194 0 -306 68l-69 -68l-123 129l76 74q-27 64 -27 152q0 62 10 116l37 211q40 228 176.5 335.5t384.5 107.5q194 0 306 -68l69 68zM461 635l-19 -103l269 259
q-25 28 -86 28q-70 0 -108 -41.5t-56 -142.5zM690 440l19 103l-269 -258q26 -29 86 -29q70 0 108 41.5t56 142.5z" />
    <glyph glyph-name="ugrave" unicode="&#xf9;" horiz-adv-x="1167" 
d="M623 1204l-256 291h364l182 -291h-290zM365 -25q-150 0 -228 74t-78 211q0 54 9 107l125 708h370l-119 -674q-4 -23 -4 -49q0 -71 72 -71q89 0 152 106l120 688h371l-190 -1075h-314l11 98q-66 -66 -137 -94.5t-160 -28.5z" />
    <glyph glyph-name="uacute" unicode="&#xfa;" horiz-adv-x="1167" 
d="M463 1204l285 291h397l-359 -291h-323zM365 -25q-150 0 -228 74t-78 211q0 54 9 107l125 708h370l-119 -674q-4 -23 -4 -49q0 -71 72 -71q89 0 152 106l120 688h371l-190 -1075h-314l11 98q-66 -66 -137 -94.5t-160 -28.5z" />
    <glyph glyph-name="ucircumflex" unicode="&#xfb;" horiz-adv-x="1167" 
d="M272 1204l314 291h315l211 -291h-291l-94 105l-131 -105h-324zM365 -25q-150 0 -228 74t-78 211q0 54 9 107l125 708h370l-119 -674q-4 -23 -4 -49q0 -71 72 -71q89 0 152 106l120 688h371l-190 -1075h-314l11 98q-66 -66 -137 -94.5t-160 -28.5z" />
    <glyph glyph-name="udieresis" unicode="&#xfc;" horiz-adv-x="1167" 
d="M311 1204l51 291h318l-51 -291h-318zM764 1204l51 291h318l-52 -291h-317zM365 -25q-150 0 -228 74t-78 211q0 54 9 107l125 708h370l-119 -674q-4 -23 -4 -49q0 -71 72 -71q89 0 152 106l120 688h371l-190 -1075h-314l11 98q-66 -66 -137 -94.5t-160 -28.5z" />
    <glyph glyph-name="yacute" unicode="&#xfd;" horiz-adv-x="1048" 
d="M408 1204l284 291h398l-359 -291h-323zM-33 -373l47 275h144q38 0 55.5 11.5t36.5 49.5l18 37l-180 1075h385l49 -608l246 608h381l-553 -1161q-59 -124 -111.5 -183t-122 -81.5t-192.5 -22.5h-203z" />
    <glyph glyph-name="thorn" unicode="&#xfe;" horiz-adv-x="1173" 
d="M-53 -373l329 1868h369l-82 -467q99 72 234 72q161 0 247 -86t86 -242q0 -50 -12 -117l-45 -256q-74 -424 -428 -424q-164 0 -250 99l-78 -447h-370zM571 256q56 0 88.5 36.5t45.5 115.5l45 254q6 37 6 63q0 94 -86 94q-101 0 -164 -121l-57 -323q21 -119 122 -119z" />
    <glyph glyph-name="ydieresis" unicode="&#xff;" horiz-adv-x="1048" 
d="M256 1204l51 291h318l-52 -291h-317zM709 1204l51 291h317l-51 -291h-317zM-33 -373l47 275h144q38 0 55.5 11.5t36.5 49.5l18 37l-180 1075h385l49 -608l246 608h381l-553 -1161q-59 -124 -111.5 -183t-122 -81.5t-192.5 -22.5h-203z" />
    <glyph glyph-name="Amacron" unicode="&#x100;" horiz-adv-x="1280" 
d="M496 1542l41 234h647l-41 -234h-647zM-94 0l684 1393h403l193 -1393h-389l-23 248h-373l-112 -248h-383zM526 539h226l-33 452z" />
    <glyph glyph-name="amacron" unicode="&#x101;" horiz-adv-x="1093" 
d="M338 1233l41 233h647l-41 -233h-647zM301 -25q-297 0 -297 291q0 194 128 292.5t360 98.5h161l6 33q9 53 9 66q0 78 -84 78q-96 0 -125 -105h-353q44 197 166.5 284t348.5 87q216 0 316.5 -76.5t100.5 -239.5q0 -54 -10 -108l-119 -676h-315l10 109q-117 -134 -303 -134z
M453 242q79 0 141 82l27 141h-82q-85 0 -129.5 -34.5t-44.5 -96.5q0 -44 22.5 -68t65.5 -24z" />
    <glyph glyph-name="Abreve" unicode="&#x102;" horiz-adv-x="1280" 
d="M829 1489q-151 0 -237 79.5t-86 200.5q0 23 2 35h229v-8q0 -44 29.5 -69t81.5 -25q54 0 91.5 27.5t49.5 74.5h232q-29 -148 -135.5 -231.5t-256.5 -83.5zM-94 0l684 1393h403l193 -1393h-389l-23 248h-373l-112 -248h-383zM526 539h226l-33 452z" />
    <glyph glyph-name="abreve" unicode="&#x103;" horiz-adv-x="1093" 
d="M672 1180q-151 0 -237.5 80t-86.5 200q0 23 2 35h230v-8q0 -44 29 -69t81 -25q54 0 91.5 27.5t49.5 74.5h232q-29 -148 -135 -231.5t-256 -83.5zM301 -25q-297 0 -297 291q0 194 128 292.5t360 98.5h161l6 33q9 53 9 66q0 78 -84 78q-96 0 -125 -105h-353
q44 197 166.5 284t348.5 87q216 0 316.5 -76.5t100.5 -239.5q0 -54 -10 -108l-119 -676h-315l10 109q-117 -134 -303 -134zM453 242q79 0 141 82l27 141h-82q-85 0 -129.5 -34.5t-44.5 -96.5q0 -44 22.5 -68t65.5 -24z" />
    <glyph glyph-name="Aogonek" unicode="&#x104;" horiz-adv-x="1280" 
d="M965 -164q0 -61 73 -61q50 0 109 26l-37 -202q-55 -25 -147 -25q-134 0 -203.5 46.5t-69.5 137.5q0 135 168 242h-61l-23 248h-373l-112 -248h-383l684 1393h403l193 -1393h-82q-139 -73 -139 -164zM526 539h226l-33 452z" />
    <glyph glyph-name="aogonek" unicode="&#x105;" horiz-adv-x="1093" 
d="M621 1100q216 0 316.5 -76.5t100.5 -239.5q0 -54 -10 -108l-119 -676h-78q-139 -73 -139 -164q0 -61 74 -61q49 0 108 26l-36 -202q-55 -25 -148 -25q-134 0 -203 46.5t-69 137.5q0 137 176 248l10 103q-117 -134 -303 -134q-297 0 -297 291q0 194 128 292.5t360 98.5
h161l6 33q9 53 9 66q0 78 -84 78q-96 0 -125 -105h-353q44 197 166.5 284t348.5 87zM594 324l27 141h-82q-85 0 -129.5 -34.5t-44.5 -96.5q0 -44 22.5 -68t65.5 -24q79 0 141 82z" />
    <glyph glyph-name="Cacute" unicode="&#x106;" horiz-adv-x="1239" 
d="M580 1513l284 291h398l-359 -291h-323zM567 -25q-249 0 -368 102t-119 316q0 86 14 166l53 303q51 288 201 421.5t432 133.5q245 0 363.5 -99.5t118.5 -303.5q0 -62 -13 -148h-356q10 65 10 103q0 76 -35.5 107.5t-115.5 31.5q-104 0 -153 -57.5t-77 -214.5l-49 -279
q-14 -80 -14 -133q0 -77 33 -108t112 -31q103 0 151.5 52t75.5 187h359q-56 -293 -204.5 -421t-418.5 -128z" />
    <glyph glyph-name="cacute" unicode="&#x107;" horiz-adv-x="1077" 
d="M436 1204l285 291h397l-358 -291h-324zM479 -25q-432 0 -432 355q0 60 10 119l37 208q40 226 172 334.5t365 108.5q214 0 321 -86.5t107 -253.5q0 -47 -10 -115h-355q8 62 8 80q0 51 -22 72.5t-72 21.5q-62 0 -95 -39t-50 -135l-37 -209q-8 -47 -8 -78q0 -55 22 -78.5
t72 -23.5q63 0 94.5 38.5t50.5 135.5h355q-42 -240 -171.5 -347.5t-361.5 -107.5z" />
    <glyph glyph-name="Ccircumflex" unicode="&#x108;" horiz-adv-x="1239" 
d="M389 1513l313 291h316l211 -291h-291l-94 105l-131 -105h-324zM567 -25q-249 0 -368 102t-119 316q0 86 14 166l53 303q51 288 201 421.5t432 133.5q245 0 363.5 -99.5t118.5 -303.5q0 -62 -13 -148h-356q10 65 10 103q0 76 -35.5 107.5t-115.5 31.5q-104 0 -153 -57.5
t-77 -214.5l-49 -279q-14 -80 -14 -133q0 -77 33 -108t112 -31q103 0 151.5 52t75.5 187h359q-56 -293 -204.5 -421t-418.5 -128z" />
    <glyph glyph-name="ccircumflex" unicode="&#x109;" horiz-adv-x="1077" 
d="M246 1204l313 291h315l211 -291h-290l-95 105l-131 -105h-323zM479 -25q-432 0 -432 355q0 60 10 119l37 208q40 226 172 334.5t365 108.5q214 0 321 -86.5t107 -253.5q0 -47 -10 -115h-355q8 62 8 80q0 51 -22 72.5t-72 21.5q-62 0 -95 -39t-50 -135l-37 -209
q-8 -47 -8 -78q0 -55 22 -78.5t72 -23.5q63 0 94.5 38.5t50.5 135.5h355q-42 -240 -171.5 -347.5t-361.5 -107.5z" />
    <glyph glyph-name="Cdotaccent" unicode="&#x10a;" horiz-adv-x="1239" 
d="M643 1513l51 291h338l-51 -291h-338zM567 -25q-249 0 -368 102t-119 316q0 86 14 166l53 303q51 288 201 421.5t432 133.5q245 0 363.5 -99.5t118.5 -303.5q0 -62 -13 -148h-356q10 65 10 103q0 76 -35.5 107.5t-115.5 31.5q-104 0 -153 -57.5t-77 -214.5l-49 -279
q-14 -80 -14 -133q0 -77 33 -108t112 -31q103 0 151.5 52t75.5 187h359q-56 -293 -204.5 -421t-418.5 -128z" />
    <glyph glyph-name="cdotaccent" unicode="&#x10b;" horiz-adv-x="1077" 
d="M500 1204l51 291h338l-51 -291h-338zM479 -25q-432 0 -432 355q0 60 10 119l37 208q40 226 172 334.5t365 108.5q214 0 321 -86.5t107 -253.5q0 -47 -10 -115h-355q8 62 8 80q0 51 -22 72.5t-72 21.5q-62 0 -95 -39t-50 -135l-37 -209q-8 -47 -8 -78q0 -55 22 -78.5
t72 -23.5q63 0 94.5 38.5t50.5 135.5h355q-42 -240 -171.5 -347.5t-361.5 -107.5z" />
    <glyph glyph-name="Ccaron" unicode="&#x10c;" horiz-adv-x="1239" 
d="M659 1513l-210 291h290l95 -104l131 104h323l-313 -291h-316zM567 -25q-249 0 -368 102t-119 316q0 86 14 166l53 303q51 288 201 421.5t432 133.5q245 0 363.5 -99.5t118.5 -303.5q0 -62 -13 -148h-356q10 65 10 103q0 76 -35.5 107.5t-115.5 31.5q-104 0 -153 -57.5
t-77 -214.5l-49 -279q-14 -80 -14 -133q0 -77 33 -108t112 -31q103 0 151.5 52t75.5 187h359q-56 -293 -204.5 -421t-418.5 -128z" />
    <glyph glyph-name="ccaron" unicode="&#x10d;" horiz-adv-x="1077" 
d="M516 1204l-211 291h291l94 -104l131 104h324l-314 -291h-315zM479 -25q-432 0 -432 355q0 60 10 119l37 208q40 226 172 334.5t365 108.5q214 0 321 -86.5t107 -253.5q0 -47 -10 -115h-355q8 62 8 80q0 51 -22 72.5t-72 21.5q-62 0 -95 -39t-50 -135l-37 -209
q-8 -47 -8 -78q0 -55 22 -78.5t72 -23.5q63 0 94.5 38.5t50.5 135.5h355q-42 -240 -171.5 -347.5t-361.5 -107.5z" />
    <glyph glyph-name="Dcaron" unicode="&#x10e;" horiz-adv-x="1310" 
d="M645 1513l-211 291h291l94 -104l131 104h324l-313 -291h-316zM39 0l246 1393h528q477 0 477 -396q0 -72 -16 -166l-51 -290q-51 -286 -201 -413.5t-434 -127.5h-549zM467 295h113q131 0 186 57.5t82 208.5l47 266q12 70 12 115q0 86 -42.5 121t-143.5 35h-111z" />
    <glyph glyph-name="dcaron" unicode="&#x10f;" horiz-adv-x="1341" 
d="M377 -25q-162 0 -248 86t-86 242q0 49 12 117l45 256q74 424 428 424q164 0 250 -99l88 494h371l-264 -1495h-316l9 94q-119 -119 -289 -119zM1188 1026l153 469h334l-256 -469h-231zM504 256q101 0 164 121l57 321q-21 121 -123 121q-56 0 -88 -36t-45 -115l-45 -254
q-6 -37 -6 -64q0 -94 86 -94z" />
    <glyph glyph-name="Dcroat" unicode="&#x110;" horiz-adv-x="1331" 
d="M834 1393q477 0 477 -396q0 -66 -17 -166l-51 -290q-51 -286 -201 -413.5t-434 -127.5h-549l99 559h-115l51 295h117l94 539h529zM915 827q13 76 13 115q0 85 -43 120.5t-144 35.5h-110l-43 -244h182l-51 -295h-184l-48 -264h113q131 0 186 57.5t82 208.5z" />
    <glyph glyph-name="dcroat" unicode="&#x111;" horiz-adv-x="1189" 
d="M1333 1372l-35 -192h-116l-209 -1180h-316l9 94q-119 -119 -289 -119q-162 0 -248 86t-86 242q0 49 12 117l45 256q74 424 428 424q164 0 250 -99l33 179h-246l35 192h244l22 123h371l-23 -123h119zM668 377l57 321q-21 121 -123 121q-56 0 -88 -36t-45 -115l-45 -254
q-6 -37 -6 -64q0 -94 86 -94q101 0 164 121z" />
    <glyph glyph-name="Emacron" unicode="&#x112;" horiz-adv-x="1208" 
d="M477 1542l41 234h647l-41 -234h-647zM39 0l246 1393h977l-56 -306h-598l-41 -233h496l-51 -295h-498l-45 -254h621l-54 -305h-997z" />
    <glyph glyph-name="emacron" unicode="&#x113;" horiz-adv-x="1128" 
d="M365 1233l41 233h647l-41 -233h-647zM504 -25q-232 0 -344.5 92t-112.5 263q0 63 10 119l37 208q78 443 549 443q219 0 330.5 -91.5t111.5 -263.5q0 -60 -10 -116l-33 -187h-616l-4 -28q-6 -37 -6 -70q0 -54 25.5 -79t82.5 -25q114 0 142 102h354q-41 -191 -168.5 -279
t-347.5 -88zM465 651h264l2 13q8 46 8 71q0 101 -110 101q-71 0 -109.5 -41.5t-52.5 -130.5z" />
    <glyph glyph-name="Ebreve" unicode="&#x114;" horiz-adv-x="1208" 
d="M811 1489q-151 0 -237.5 80t-86.5 200q0 23 2 35h230v-8q0 -44 29 -69t81 -25q54 0 92 27.5t50 74.5h231q-29 -148 -135 -231.5t-256 -83.5zM39 0l246 1393h977l-56 -306h-598l-41 -233h496l-51 -295h-498l-45 -254h621l-54 -305h-997z" />
    <glyph glyph-name="ebreve" unicode="&#x115;" horiz-adv-x="1128" 
d="M698 1180q-151 0 -237 79.5t-86 200.5q0 23 2 35h229v-8q0 -44 29.5 -69t81.5 -25q54 0 91.5 27.5t49.5 74.5h232q-29 -148 -135.5 -231.5t-256.5 -83.5zM504 -25q-232 0 -344.5 92t-112.5 263q0 63 10 119l37 208q78 443 549 443q219 0 330.5 -91.5t111.5 -263.5
q0 -60 -10 -116l-33 -187h-616l-4 -28q-6 -37 -6 -70q0 -54 25.5 -79t82.5 -25q114 0 142 102h354q-41 -191 -168.5 -279t-347.5 -88zM465 651h264l2 13q8 46 8 71q0 101 -110 101q-71 0 -109.5 -41.5t-52.5 -130.5z" />
    <glyph glyph-name="Edotaccent" unicode="&#x116;" horiz-adv-x="1208" 
d="M625 1513l51 291h338l-51 -291h-338zM39 0l246 1393h977l-56 -306h-598l-41 -233h496l-51 -295h-498l-45 -254h621l-54 -305h-997z" />
    <glyph glyph-name="edotaccent" unicode="&#x117;" horiz-adv-x="1128" 
d="M512 1204l51 291h338l-51 -291h-338zM504 -25q-232 0 -344.5 92t-112.5 263q0 63 10 119l37 208q78 443 549 443q219 0 330.5 -91.5t111.5 -263.5q0 -60 -10 -116l-33 -187h-616l-4 -28q-6 -37 -6 -70q0 -54 25.5 -79t82.5 -25q114 0 142 102h354q-41 -191 -168.5 -279
t-347.5 -88zM465 651h264l2 13q8 46 8 71q0 101 -110 101q-71 0 -109.5 -41.5t-52.5 -130.5z" />
    <glyph glyph-name="Eogonek" unicode="&#x118;" horiz-adv-x="1208" 
d="M1206 1087h-598l-41 -233h496l-51 -295h-498l-45 -254h621l-54 -305h-78q-139 -73 -139 -164q0 -61 74 -61q49 0 108 26l-36 -202q-55 -25 -148 -25q-134 0 -203 46.5t-69 137.5q0 135 168 242h-674l246 1393h977z" />
    <glyph glyph-name="eogonek" unicode="&#x119;" horiz-adv-x="1128" 
d="M643 1100q219 0 330.5 -91.5t111.5 -263.5q0 -60 -10 -116l-33 -187h-616l-4 -28q-6 -37 -6 -70q0 -54 25.5 -79t82.5 -25q114 0 142 102h354q-46 -208 -197 -297q-170 -96 -170 -207q0 -33 17.5 -48t56.5 -15q50 0 109 26l-37 -202q-55 -25 -150 -25q-132 0 -201 47.5
t-69 138.5q0 114 113 215q-226 3 -335.5 94.5t-109.5 260.5q0 63 10 119l37 208q78 443 549 443zM731 664q8 46 8 71q0 101 -110 101q-71 0 -109.5 -41.5t-52.5 -130.5l-2 -13h264z" />
    <glyph glyph-name="Ecaron" unicode="&#x11a;" horiz-adv-x="1208" 
d="M641 1513l-211 291h291l94 -104l131 104h324l-314 -291h-315zM39 0l246 1393h977l-56 -306h-598l-41 -233h496l-51 -295h-498l-45 -254h621l-54 -305h-997z" />
    <glyph glyph-name="ecaron" unicode="&#x11b;" horiz-adv-x="1128" 
d="M528 1204l-211 291h291l94 -104l132 104h323l-313 -291h-316zM504 -25q-232 0 -344.5 92t-112.5 263q0 63 10 119l37 208q78 443 549 443q219 0 330.5 -91.5t111.5 -263.5q0 -60 -10 -116l-33 -187h-616l-4 -28q-6 -37 -6 -70q0 -54 25.5 -79t82.5 -25q114 0 142 102h354
q-41 -191 -168.5 -279t-347.5 -88zM465 651h264l2 13q8 46 8 71q0 101 -110 101q-71 0 -109.5 -41.5t-52.5 -130.5z" />
    <glyph glyph-name="Gcircumflex" unicode="&#x11c;" horiz-adv-x="1302" 
d="M391 1513l314 291h315l211 -291h-291l-94 105l-131 -105h-324zM582 -25q-504 0 -504 414q0 78 16 172l56 313q51 282 204.5 412.5t427.5 130.5q245 0 371.5 -99.5t126.5 -291.5q0 -40 -6 -86h-356q2 16 2 33q0 73 -36.5 104t-119.5 31q-106 0 -160 -56.5t-82 -215.5
l-49 -279q-12 -71 -12 -123q0 -81 36.5 -115t123.5 -34q102 0 154.5 50.5t78.5 176.5h-192l49 276h549l-48 -266q-51 -287 -202 -417t-428 -130z" />
    <glyph glyph-name="gcircumflex" unicode="&#x11d;" horiz-adv-x="1173" 
d="M270 1204l314 291h315l211 -291h-291l-94 105l-131 -105h-324zM428 -397q-212 0 -326 78t-114 233q0 27 4 59h350v-16q0 -47 24.5 -68.5t77.5 -21.5q73 0 111 42t55 138l15 86q-99 -72 -234 -72q-162 0 -248 86t-86 242q0 44 13 117l30 170q78 424 428 424
q198 0 287 -150l31 125h315l-184 -1044q-39 -218 -172 -323t-377 -105zM518 342q103 0 166 123l41 233q-21 121 -123 121q-55 0 -86.5 -35.5t-46.5 -115.5l-31 -168q-6 -38 -6 -64q0 -94 86 -94z" />
    <glyph glyph-name="Gbreve" unicode="&#x11e;" horiz-adv-x="1302" 
d="M831 1489q-151 0 -237 79.5t-86 200.5q0 23 2 35h229v-8q0 -44 29.5 -69t81.5 -25q54 0 91.5 27.5t49.5 74.5h232q-29 -148 -135.5 -231.5t-256.5 -83.5zM582 -25q-504 0 -504 414q0 78 16 172l56 313q51 282 204.5 412.5t427.5 130.5q245 0 371.5 -99.5t126.5 -291.5
q0 -40 -6 -86h-356q2 16 2 33q0 73 -36.5 104t-119.5 31q-106 0 -160 -56.5t-82 -215.5l-49 -279q-12 -71 -12 -123q0 -81 36.5 -115t123.5 -34q102 0 154.5 50.5t78.5 176.5h-192l49 276h549l-48 -266q-51 -287 -202 -417t-428 -130z" />
    <glyph glyph-name="gbreve" unicode="&#x11f;" horiz-adv-x="1173" 
d="M711 1180q-151 0 -237.5 80t-86.5 200q0 23 2 35h229v-8q0 -44 29.5 -69t81.5 -25q54 0 91.5 27.5t49.5 74.5h232q-29 -148 -135 -231.5t-256 -83.5zM428 -397q-212 0 -326 78t-114 233q0 27 4 59h350v-16q0 -47 24.5 -68.5t77.5 -21.5q73 0 111 42t55 138l15 86
q-99 -72 -234 -72q-162 0 -248 86t-86 242q0 44 13 117l30 170q78 424 428 424q198 0 287 -150l31 125h315l-184 -1044q-39 -218 -172 -323t-377 -105zM518 342q103 0 166 123l41 233q-21 121 -123 121q-55 0 -86.5 -35.5t-46.5 -115.5l-31 -168q-6 -38 -6 -64q0 -94 86 -94
z" />
    <glyph glyph-name="Gdotaccent" unicode="&#x120;" horiz-adv-x="1302" 
d="M645 1513l51 291h338l-51 -291h-338zM582 -25q-504 0 -504 414q0 78 16 172l56 313q51 282 204.5 412.5t427.5 130.5q245 0 371.5 -99.5t126.5 -291.5q0 -40 -6 -86h-356q2 16 2 33q0 73 -36.5 104t-119.5 31q-106 0 -160 -56.5t-82 -215.5l-49 -279q-12 -71 -12 -123
q0 -81 36.5 -115t123.5 -34q102 0 154.5 50.5t78.5 176.5h-192l49 276h549l-48 -266q-51 -287 -202 -417t-428 -130z" />
    <glyph glyph-name="gdotaccent" unicode="&#x121;" horiz-adv-x="1173" 
d="M524 1204l51 291h338l-51 -291h-338zM428 -397q-212 0 -326 78t-114 233q0 27 4 59h350v-16q0 -47 24.5 -68.5t77.5 -21.5q73 0 111 42t55 138l15 86q-99 -72 -234 -72q-162 0 -248 86t-86 242q0 44 13 117l30 170q78 424 428 424q198 0 287 -150l31 125h315l-184 -1044
q-39 -218 -172 -323t-377 -105zM518 342q103 0 166 123l41 233q-21 121 -123 121q-55 0 -86.5 -35.5t-46.5 -115.5l-31 -168q-6 -38 -6 -64q0 -94 86 -94z" />
    <glyph glyph-name="Gcommaaccent" unicode="&#x122;" horiz-adv-x="1302" 
d="M582 -25q-504 0 -504 414q0 78 16 172l56 313q51 282 204.5 412.5t427.5 130.5q245 0 371.5 -99.5t126.5 -291.5q0 -40 -6 -86h-356q2 16 2 33q0 73 -36.5 104t-119.5 31q-106 0 -160 -56.5t-82 -215.5l-49 -279q-12 -71 -12 -123q0 -81 36.5 -115t123.5 -34
q102 0 154.5 50.5t78.5 176.5h-192l49 276h549l-48 -266q-51 -287 -202 -417t-428 -130zM303 -539l23 123q75 0 108.5 20t44.5 68h-139l39 219h338l-27 -151q-11 -60 -23 -100.5t-32.5 -73.5t-46.5 -51.5t-67.5 -31.5t-92.5 -17.5t-125 -4.5z" />
    <glyph glyph-name="gcommaaccent" unicode="&#x123;" horiz-adv-x="1173" 
d="M936 1614l-23 -123q-75 0 -108.5 -20t-44.5 -68h139l-39 -219h-338l27 151q11 60 23 100.5t32.5 73.5t46.5 51.5t67.5 31.5t92.5 17.5t125 4.5zM428 -397q-212 0 -326 78t-114 233q0 27 4 59h350v-16q0 -47 24.5 -68.5t77.5 -21.5q73 0 111 42t55 138l15 86
q-99 -72 -234 -72q-162 0 -248 86t-86 242q0 44 13 117l30 170q78 424 428 424q198 0 287 -150l31 125h315l-184 -1044q-39 -218 -172 -323t-377 -105zM518 342q103 0 166 123l41 233q-21 121 -123 121q-55 0 -86.5 -35.5t-46.5 -115.5l-31 -168q-6 -38 -6 -64q0 -94 86 -94
z" />
    <glyph glyph-name="Hcircumflex" unicode="&#x124;" horiz-adv-x="1388" 
d="M442 1513l314 291h315l211 -291h-291l-94 105l-131 -105h-324zM39 0l246 1393h377l-95 -531h369l94 531h377l-246 -1393h-377l97 551h-369l-96 -551h-377z" />
    <glyph glyph-name="hcircumflex" unicode="&#x125;" horiz-adv-x="1159" 
d="M59 1616l314 291h315l211 -291h-291l-94 104l-131 -104h-324zM12 0l264 1495h371l-82 -467q103 72 236 72q149 0 224 -74.5t75 -212.5q0 -61 -10 -117l-123 -696h-371l119 674q4 20 4 51q0 70 -68 70q-88 0 -145 -103l-123 -692h-371z" />
    <glyph glyph-name="Hbar" unicode="&#x126;" horiz-adv-x="1429" 
d="M1513 1233l-43 -238h-112l-176 -995h-377l96 551h-369l-96 -551h-377l177 995h-117l43 238h114l29 160h377l-29 -160h369l29 160h376l-28 -160h114zM956 862l25 133h-369l-24 -133h368z" />
    <glyph glyph-name="hbar" unicode="&#x127;" horiz-adv-x="1175" 
d="M817 1100q149 0 224 -74.5t75 -212.5q0 -61 -10 -117l-123 -696h-371l119 674q4 20 4 51q0 70 -67 70q-89 0 -146 -103l-123 -692h-370l209 1180h-121l35 192h118l23 123h371l-23 -123h244l-35 -192h-242l-26 -152q103 72 235 72z" />
    <glyph glyph-name="Itilde" unicode="&#x128;" horiz-adv-x="643" 
d="M635 1491q-73 0 -160 57q-47 31 -72 31q-44 0 -65 -76h-188q32 163 92.5 238.5t158.5 75.5q71 0 160 -58q46 -30 72 -30q44 0 65 75h189q-32 -163 -93 -238t-159 -75zM39 0l246 1393h377l-246 -1393h-377z" />
    <glyph glyph-name="itilde" unicode="&#x129;" horiz-adv-x="585" 
d="M551 1182q-73 0 -160 57q-47 31 -72 31q-44 0 -65 -76h-188q32 163 92.5 238t158.5 75q73 0 160 -57q47 -31 72 -31q44 0 65 76h189q-32 -163 -93 -238t-159 -75zM12 0l191 1075h370l-190 -1075h-371z" />
    <glyph glyph-name="Imacron" unicode="&#x12a;" horiz-adv-x="643" 
d="M197 1542l41 234h604l-41 -234h-604zM39 0l246 1393h377l-246 -1393h-377z" />
    <glyph glyph-name="imacron" unicode="&#x12b;" horiz-adv-x="585" 
d="M113 1233l41 233h604l-41 -233h-604zM12 0l191 1075h370l-190 -1075h-371z" />
    <glyph glyph-name="Ibreve" unicode="&#x12c;" horiz-adv-x="643" 
d="M508 1489q-139 0 -222 77t-83 197q0 27 2 41h225v-12q0 -42 25.5 -66t70.5 -24q50 0 85.5 27.5t45.5 74.5h228q-26 -149 -129 -232t-248 -83zM39 0l246 1393h377l-246 -1393h-377z" />
    <glyph glyph-name="ibreve" unicode="&#x12d;" horiz-adv-x="585" 
d="M424 1180q-139 0 -222 77t-83 197q0 27 2 41h225v-12q0 -42 25.5 -66t70.5 -24q50 0 85.5 27.5t45.5 74.5h228q-26 -149 -129 -232t-248 -83zM12 0l191 1075h370l-190 -1075h-371z" />
    <glyph glyph-name="Iogonek" unicode="&#x12e;" horiz-adv-x="643" 
d="M373 0q-70 -25 -115 -71t-45 -93q0 -61 82 -61q58 0 111 26l-37 -202q-55 -25 -154 -25q-132 0 -203 47t-71 135q0 137 174 244h-76l246 1393h377l-246 -1393h-43z" />
    <glyph glyph-name="iogonek" unicode="&#x12f;" horiz-adv-x="585" 
d="M270 1495h379l-51 -291h-379zM12 0l191 1075h370l-190 -1075h-43q-70 -25 -115 -71t-45 -93q0 -61 82 -61q58 0 111 26l-37 -202q-55 -25 -154 -25q-132 0 -203 47t-71 135q0 137 174 244h-70z" />
    <glyph glyph-name="Idotaccent" unicode="&#x130;" horiz-adv-x="643" 
d="M324 1513l51 291h338l-51 -291h-338zM39 0l246 1393h377l-246 -1393h-377z" />
    <glyph glyph-name="dotlessi" unicode="&#x131;" horiz-adv-x="585" 
d="M12 0l191 1075h370l-190 -1075h-371z" />
    <glyph glyph-name="IJ" unicode="&#x132;" horiz-adv-x="1783" 
d="M39 0l246 1393h377l-246 -1393h-377zM1098 -25q-232 0 -340.5 90.5t-108.5 276.5q0 57 15 143l6 35h358l-8 -47q-8 -47 -8 -78q0 -59 24.5 -84.5t81.5 -25.5q72 0 109.5 44.5t56.5 147.5l162 916h377l-166 -940q-45 -252 -175.5 -365t-383.5 -113z" />
    <glyph glyph-name="ij" unicode="&#x133;" horiz-adv-x="1171" 
d="M219 1204l51 291h379l-51 -291h-379zM805 1204l51 291h379l-51 -291h-379zM12 0l191 1075h370l-190 -1075h-371zM414 -373l47 275h45q43 0 62 18.5t28 67.5l192 1087h371l-201 -1132q-31 -173 -108 -244.5t-234 -71.5h-202z" />
    <glyph glyph-name="Jcircumflex" unicode="&#x134;" horiz-adv-x="1140" 
d="M608 1513l287 291h328l184 -291h-279l-84 111l-124 -111h-312zM455 -25q-232 0 -340.5 90.5t-108.5 276.5q0 63 14 143l7 35h358l-8 -47q-8 -47 -8 -78q0 -59 24.5 -84.5t81.5 -25.5q72 0 109.5 44.5t56.5 147.5l162 916h377l-166 -940q-45 -252 -175.5 -365t-383.5 -113
z" />
    <glyph glyph-name="jcircumflex" unicode="&#x135;" horiz-adv-x="585" 
d="M6 1204l287 291h328l184 -291h-279l-84 111l-125 -111h-311zM-172 -373l47 275h45q43 0 62 18.5t28 67.5l193 1087h370l-200 -1132q-31 -173 -108 -244.5t-234 -71.5h-203z" />
    <glyph glyph-name="Kcommaaccent" unicode="&#x136;" horiz-adv-x="1286" 
d="M39 0l246 1393h377l-93 -523l465 523h434l-536 -582l287 -811h-402l-178 535l-162 -185l-61 -350h-377zM334 -539l22 123q75 0 109 20t45 68h-139l39 219h338l-27 -151q-11 -60 -23 -100.5t-32.5 -73.5t-46.5 -51.5t-67.5 -31.5t-92.5 -17.5t-125 -4.5z" />
    <glyph glyph-name="kcommaaccent" unicode="&#x137;" horiz-adv-x="1150" 
d="M12 0l264 1495h371l-137 -778l340 358h428l-447 -450l254 -625h-405l-137 385l-113 -123l-47 -262h-371zM254 -539l22 123q75 0 109 20t45 68h-139l39 219h338l-27 -151q-11 -60 -23 -100.5t-32.5 -73.5t-46.5 -51.5t-67.5 -31.5t-92.5 -17.5t-125 -4.5z" />
    <glyph glyph-name="kgreenlandic" unicode="&#x138;" horiz-adv-x="1150" 
d="M12 0l191 1075h370l-63 -358l340 358h428l-447 -450l254 -625h-405l-137 385l-113 -121l-47 -264h-371z" />
    <glyph glyph-name="Lacute" unicode="&#x139;" horiz-adv-x="1060" 
d="M260 1513l285 291h397l-358 -291h-324zM39 0l246 1393h377l-191 -1082h539l-56 -311h-915z" />
    <glyph glyph-name="lacute" unicode="&#x13a;" horiz-adv-x="585" 
d="M250 1616l285 291h397l-359 -291h-323zM12 0l264 1495h371l-264 -1495h-371z" />
    <glyph glyph-name="Lcommaaccent" unicode="&#x13b;" horiz-adv-x="1060" 
d="M39 0l246 1393h377l-191 -1082h539l-56 -311h-915zM231 -539l23 123q75 0 109 20t45 68h-140l39 219h338l-27 -151q-11 -60 -23 -100.5t-32.5 -73.5t-46.5 -51.5t-67.5 -31.5t-92.5 -17.5t-125 -4.5z" />
    <glyph glyph-name="lcommaaccent" unicode="&#x13c;" horiz-adv-x="585" 
d="M12 0l264 1495h371l-264 -1495h-371zM-66 -539l23 123q75 0 109 20t45 68h-140l39 219h338l-26 -151q-16 -90 -37 -141t-66 -84t-109.5 -43.5t-175.5 -10.5z" />
    <glyph glyph-name="Lcaron" unicode="&#x13d;" horiz-adv-x="1060" 
d="M39 0l246 1393h377l-191 -1082h539l-56 -311h-915zM651 924l154 469h334l-256 -469h-232z" />
    <glyph glyph-name="lcaron" unicode="&#x13e;" horiz-adv-x="757" 
d="M12 0l264 1495h371l-264 -1495h-371zM604 1026l154 469h334l-256 -469h-232z" />
    <glyph glyph-name="Ldot" unicode="&#x13f;" horiz-adv-x="1060" 
d="M39 0l246 1393h377l-191 -1082h539l-56 -311h-915zM707 647l59 326h328l-60 -326h-327z" />
    <glyph glyph-name="ldot" unicode="&#x140;" horiz-adv-x="880" 
d="M12 0l264 1495h371l-264 -1495h-371zM573 575l60 326h328l-60 -326h-328z" />
    <glyph glyph-name="Lslash" unicode="&#x141;" horiz-adv-x="1081" 
d="M492 311h538l-55 -311h-916l56 307l-129 -74l59 338l129 74l131 748h377l-88 -504l371 215l-60 -338l-370 -215z" />
    <glyph glyph-name="lslash" unicode="&#x142;" horiz-adv-x="657" 
d="M758 1130l-56 -311l-153 -88l-129 -731h-371l86 492l-155 -91l55 312l155 90l123 692h371l-80 -453z" />
    <glyph glyph-name="Nacute" unicode="&#x143;" horiz-adv-x="1376" 
d="M627 1513l284 291h398l-359 -291h-323zM39 0l246 1393h364l264 -789l140 789h342l-246 -1393h-342l-279 831l-147 -831h-342z" />
    <glyph glyph-name="nacute" unicode="&#x144;" horiz-adv-x="1159" 
d="M463 1204l285 291h397l-359 -291h-323zM12 0l191 1075h315l-10 -94q125 119 293 119q149 0 224 -74.5t75 -212.5q0 -61 -10 -117l-123 -696h-371l119 674q4 20 4 51q0 70 -68 70q-88 0 -145 -103l-123 -692h-371z" />
    <glyph glyph-name="Ncommaaccent" unicode="&#x145;" horiz-adv-x="1376" 
d="M39 0l246 1393h364l264 -789l140 789h342l-246 -1393h-342l-279 831l-147 -831h-342zM330 -539l22 123q75 0 109 20t45 68h-139l39 219h337l-26 -151q-11 -60 -23 -100.5t-32.5 -73.5t-46.5 -51.5t-67.5 -31.5t-92.5 -17.5t-125 -4.5z" />
    <glyph glyph-name="ncommaaccent" unicode="&#x146;" horiz-adv-x="1159" 
d="M12 0l191 1075h315l-10 -94q125 119 293 119q149 0 224 -74.5t75 -212.5q0 -61 -10 -117l-123 -696h-371l119 674q4 20 4 51q0 70 -68 70q-88 0 -145 -103l-123 -692h-371zM225 -539l23 123q75 0 108.5 20t44.5 68h-139l39 219h338l-27 -151q-11 -60 -23 -100.5
t-32.5 -73.5t-46.5 -51.5t-67.5 -31.5t-92.5 -17.5t-125 -4.5z" />
    <glyph glyph-name="Ncaron" unicode="&#x147;" horiz-adv-x="1376" 
d="M707 1513l-211 291h290l95 -104l131 104h323l-313 -291h-315zM39 0l246 1393h364l264 -789l140 789h342l-246 -1393h-342l-279 831l-147 -831h-342z" />
    <glyph glyph-name="ncaron" unicode="&#x148;" horiz-adv-x="1159" 
d="M543 1204l-211 291h291l94 -104l131 104h323l-313 -291h-315zM12 0l191 1075h315l-10 -94q125 119 293 119q149 0 224 -74.5t75 -212.5q0 -61 -10 -117l-123 -696h-371l119 674q4 20 4 51q0 70 -68 70q-88 0 -145 -103l-123 -692h-371z" />
    <glyph glyph-name="napostrophe" unicode="&#x149;" horiz-adv-x="1386" 
d="M72 944l26 158q74 0 111.5 25.5t48.5 78.5l2 11h-141l49 278h338l-43 -246q-20 -113 -60.5 -177t-119.5 -96t-211 -32zM240 0l190 1075h315l-10 -94q125 119 293 119q149 0 224 -74.5t75 -212.5q0 -61 -10 -117l-123 -696h-371l119 674q4 20 4 51q0 70 -67 70
q-89 0 -146 -103l-123 -692h-370z" />
    <glyph glyph-name="Eng" unicode="&#x14a;" horiz-adv-x="1376" 
d="M594 -373l49 275h74q42 0 60.5 18t27.5 68l2 12l-279 831l-147 -831h-342l246 1393h364l264 -789l140 789h342l-256 -1448q-31 -174 -108.5 -246t-233.5 -72h-203z" />
    <glyph glyph-name="eng" unicode="&#x14b;" horiz-adv-x="1159" 
d="M416 -373l47 275h43q42 0 60.5 18t27.5 68l121 686q4 20 4 51q0 70 -68 70q-88 0 -145 -103l-123 -692h-371l191 1075h315l-10 -94q125 119 293 119q149 0 224 -74.5t75 -212.5q0 -61 -10 -117l-134 -753q-31 -175 -113 -245.5t-257 -70.5h-170z" />
    <glyph glyph-name="Omacron" unicode="&#x14c;" horiz-adv-x="1335" 
d="M522 1542l41 234h647l-41 -234h-647zM588 -25q-265 0 -386.5 103t-121.5 315q0 86 14 166l53 303q52 293 208 424t448 131q265 0 386.5 -103t121.5 -315q0 -80 -15 -165l-53 -304q-52 -293 -207.5 -424t-447.5 -131zM627 285q112 0 163 60.5t78 211.5l50 279
q12 71 12 118q0 81 -37.5 117.5t-128.5 36.5q-112 0 -163.5 -60.5t-78.5 -211.5l-49 -279q-12 -70 -12 -119q0 -81 37.5 -117t128.5 -36z" />
    <glyph glyph-name="omacron" unicode="&#x14d;" horiz-adv-x="1150" 
d="M375 1233l41 233h647l-41 -233h-647zM496 -25q-223 0 -336 90t-113 265q0 62 10 116l37 211q40 228 176.5 335.5t384.5 107.5q223 0 336 -90t113 -265q0 -62 -10 -116l-37 -211q-40 -228 -176.5 -335.5t-384.5 -107.5zM526 256q70 0 108 41.5t56 142.5l35 197q8 58 8 76
q0 57 -26.5 81.5t-81.5 24.5q-70 0 -108 -41.5t-56 -142.5l-35 -197q-8 -58 -8 -76q0 -57 26.5 -81.5t81.5 -24.5z" />
    <glyph glyph-name="Obreve" unicode="&#x14e;" horiz-adv-x="1335" 
d="M856 1489q-151 0 -237.5 80t-86.5 200q0 17 3 35h229v-8q0 -44 29 -69t81 -25q54 0 92 27.5t50 74.5h231q-29 -148 -135 -231.5t-256 -83.5zM588 -25q-265 0 -386.5 103t-121.5 315q0 86 14 166l53 303q52 293 208 424t448 131q265 0 386.5 -103t121.5 -315
q0 -80 -15 -165l-53 -304q-52 -293 -207.5 -424t-447.5 -131zM627 285q112 0 163 60.5t78 211.5l50 279q12 71 12 118q0 81 -37.5 117.5t-128.5 36.5q-112 0 -163.5 -60.5t-78.5 -211.5l-49 -279q-12 -70 -12 -119q0 -81 37.5 -117t128.5 -36z" />
    <glyph glyph-name="obreve" unicode="&#x14f;" horiz-adv-x="1150" 
d="M709 1180q-151 0 -237.5 80t-86.5 200q0 23 2 35h229v-8q0 -44 29.5 -69t81.5 -25q54 0 91.5 27.5t49.5 74.5h232q-29 -148 -135 -231.5t-256 -83.5zM496 -25q-223 0 -336 90t-113 265q0 62 10 116l37 211q40 228 176.5 335.5t384.5 107.5q223 0 336 -90t113 -265
q0 -62 -10 -116l-37 -211q-40 -228 -176.5 -335.5t-384.5 -107.5zM526 256q70 0 108 41.5t56 142.5l35 197q8 58 8 76q0 57 -26.5 81.5t-81.5 24.5q-70 0 -108 -41.5t-56 -142.5l-35 -197q-8 -58 -8 -76q0 -57 26.5 -81.5t81.5 -24.5z" />
    <glyph glyph-name="Ohungarumlaut" unicode="&#x150;" horiz-adv-x="1335" 
d="M422 1513l233 291h365l-307 -291h-291zM877 1513l233 291h365l-308 -291h-290zM588 -25q-265 0 -386.5 103t-121.5 315q0 86 14 166l53 303q52 293 208 424t448 131q265 0 386.5 -103t121.5 -315q0 -80 -15 -165l-53 -304q-52 -293 -207.5 -424t-447.5 -131zM627 285
q112 0 163 60.5t78 211.5l50 279q12 71 12 118q0 81 -37.5 117.5t-128.5 36.5q-112 0 -163.5 -60.5t-78.5 -211.5l-49 -279q-12 -70 -12 -119q0 -81 37.5 -117t128.5 -36z" />
    <glyph glyph-name="ohungarumlaut" unicode="&#x151;" horiz-adv-x="1150" 
d="M274 1204l234 291h364l-307 -291h-291zM729 1204l234 291h364l-307 -291h-291zM496 -25q-223 0 -336 90t-113 265q0 62 10 116l37 211q40 228 176.5 335.5t384.5 107.5q223 0 336 -90t113 -265q0 -62 -10 -116l-37 -211q-40 -228 -176.5 -335.5t-384.5 -107.5zM526 256
q70 0 108 41.5t56 142.5l35 197q8 58 8 76q0 57 -26.5 81.5t-81.5 24.5q-70 0 -108 -41.5t-56 -142.5l-35 -197q-8 -58 -8 -76q0 -57 26.5 -81.5t81.5 -24.5z" />
    <glyph glyph-name="OE" unicode="&#x152;" horiz-adv-x="1804" 
d="M553 0q-239 0 -358 97.5t-119 297.5q0 72 16 166l51 291q51 286 201 413.5t434 127.5h1080l-56 -306h-547l-41 -233h445l-51 -295h-447l-45 -254h570l-54 -305h-1079zM645 295h92l144 803h-95q-130 0 -185.5 -57.5t-82.5 -209.5l-47 -266q-12 -71 -12 -114
q0 -86 42.5 -121t143.5 -35z" />
    <glyph glyph-name="oe" unicode="&#x153;" horiz-adv-x="1761" 
d="M463 -25q-202 0 -309 87.5t-107 267.5q0 60 10 114l37 211q39 227 170 336t354 109q250 0 338 -137q117 137 355 137q199 0 303 -89.5t104 -265.5q0 -60 -10 -116l-33 -187h-616l-4 -28q-6 -37 -6 -70q0 -54 25.5 -79t82.5 -25q113 0 141 102h355q-81 -367 -486 -367
q-253 0 -340 138q-121 -138 -364 -138zM1098 651h264l2 13q8 46 8 71q0 101 -110 101q-71 0 -109.5 -42t-52.5 -130zM526 256q70 0 108 41.5t56 142.5l35 197q8 58 8 76q0 57 -26.5 81.5t-81.5 24.5q-70 0 -108 -41.5t-56 -142.5l-35 -197q-8 -58 -8 -76q0 -57 26.5 -81.5
t81.5 -24.5z" />
    <glyph glyph-name="Racute" unicode="&#x154;" horiz-adv-x="1296" 
d="M561 1513l285 291h397l-358 -291h-324zM39 0l246 1393h573q239 0 338.5 -86t99.5 -291q0 -391 -319 -496l192 -520h-403l-148 485h-116l-86 -485h-377zM553 780h166q96 0 147.5 51.5t51.5 147.5q0 66 -31.5 92.5t-112.5 26.5h-164z" />
    <glyph glyph-name="racute" unicode="&#x155;" horiz-adv-x="792" 
d="M311 1204l285 291h397l-358 -291h-324zM12 0l191 1075h315l-16 -162q45 97 111 140t167 43h94l-59 -332h-59q-108 0 -171 -39t-98 -127l-104 -598h-371z" />
    <glyph glyph-name="Rcommaaccent" unicode="&#x156;" horiz-adv-x="1296" 
d="M39 0l246 1393h573q239 0 338.5 -86t99.5 -291q0 -391 -319 -496l192 -520h-403l-148 485h-116l-86 -485h-377zM553 780h166q96 0 147.5 51.5t51.5 147.5q0 66 -31.5 92.5t-112.5 26.5h-164zM313 -539l23 123q75 0 108.5 20t44.5 68h-139l39 219h338l-27 -151
q-11 -60 -23 -100.5t-32.5 -73.5t-46.5 -51.5t-67.5 -31.5t-92.5 -17.5t-125 -4.5z" />
    <glyph glyph-name="rcommaaccent" unicode="&#x157;" horiz-adv-x="792" 
d="M12 0l191 1075h315l-16 -162q45 97 111 140t167 43h94l-59 -332h-59q-108 0 -171 -39t-98 -127l-104 -598h-371zM-66 -539l23 123q75 0 109 20t45 68h-140l39 219h338l-26 -151q-16 -90 -37 -141t-66 -84t-109.5 -43.5t-175.5 -10.5z" />
    <glyph glyph-name="Rcaron" unicode="&#x158;" horiz-adv-x="1296" 
d="M641 1513l-211 291h291l94 -104l131 104h324l-314 -291h-315zM39 0l246 1393h573q239 0 338.5 -86t99.5 -291q0 -391 -319 -496l192 -520h-403l-148 485h-116l-86 -485h-377zM553 780h166q96 0 147.5 51.5t51.5 147.5q0 66 -31.5 92.5t-112.5 26.5h-164z" />
    <glyph glyph-name="rcaron" unicode="&#x159;" horiz-adv-x="792" 
d="M391 1204l-211 291h291l94 -104l131 104h324l-313 -291h-316zM12 0l191 1075h315l-16 -162q45 97 111 140t167 43h94l-59 -332h-59q-108 0 -171 -39t-98 -127l-104 -598h-371z" />
    <glyph glyph-name="Sacute" unicode="&#x15a;" horiz-adv-x="1171" 
d="M510 1513l285 291h397l-358 -291h-324zM504 -25q-248 0 -362.5 84.5t-114.5 257.5q0 45 10 117h369q-7 -44 -7 -65q0 -60 33 -86.5t103 -26.5q89 0 133.5 42t44.5 118q0 49 -47.5 80.5t-167.5 60.5q-189 46 -273 125.5t-84 212.5q0 253 153.5 387.5t428.5 134.5
q457 0 457 -338q0 -35 -11 -106h-366q6 34 6 61q0 54 -27 78.5t-86 24.5q-78 0 -123 -43t-45 -109q0 -51 47 -81.5t168 -59.5q189 -46 273 -125.5t84 -214.5q0 -266 -153 -397.5t-443 -131.5z" />
    <glyph glyph-name="sacute" unicode="&#x15b;" horiz-adv-x="1048" 
d="M403 1204l285 291h397l-358 -291h-324zM442 -25q-218 0 -325 72.5t-107 220.5q0 36 6 80h353q-4 -24 -4 -45q0 -44 25 -65t79 -21q58 0 91.5 23t33.5 67q0 43 -40.5 67.5t-141.5 43.5q-166 31 -240 99t-74 192q0 188 137.5 289.5t372.5 101.5q204 0 308 -77t104 -214
q0 -33 -6 -68h-352q4 24 4 43q0 74 -80 74q-55 0 -85 -27.5t-30 -70.5q0 -38 39 -61t137 -42q170 -32 244 -100.5t74 -194.5q0 -197 -138 -292t-385 -95z" />
    <glyph glyph-name="Scircumflex" unicode="&#x15c;" horiz-adv-x="1171" 
d="M319 1513l314 291h315l211 -291h-291l-94 105l-131 -105h-324zM504 -25q-248 0 -362.5 84.5t-114.5 257.5q0 45 10 117h369q-7 -44 -7 -65q0 -60 33 -86.5t103 -26.5q89 0 133.5 42t44.5 118q0 49 -47.5 80.5t-167.5 60.5q-189 46 -273 125.5t-84 212.5
q0 253 153.5 387.5t428.5 134.5q457 0 457 -338q0 -35 -11 -106h-366q6 34 6 61q0 54 -27 78.5t-86 24.5q-78 0 -123 -43t-45 -109q0 -51 47 -81.5t168 -59.5q189 -46 273 -125.5t84 -214.5q0 -266 -153 -397.5t-443 -131.5z" />
    <glyph glyph-name="scircumflex" unicode="&#x15d;" horiz-adv-x="1048" 
d="M213 1204l313 291h316l211 -291h-291l-94 105l-131 -105h-324zM442 -25q-218 0 -325 72.5t-107 220.5q0 36 6 80h353q-4 -24 -4 -45q0 -44 25 -65t79 -21q58 0 91.5 23t33.5 67q0 43 -40.5 67.5t-141.5 43.5q-166 31 -240 99t-74 192q0 188 137.5 289.5t372.5 101.5
q204 0 308 -77t104 -214q0 -33 -6 -68h-352q4 24 4 43q0 74 -80 74q-55 0 -85 -27.5t-30 -70.5q0 -38 39 -61t137 -42q170 -32 244 -100.5t74 -194.5q0 -197 -138 -292t-385 -95z" />
    <glyph glyph-name="Scedilla" unicode="&#x15e;" horiz-adv-x="1171" 
d="M1169 973h-366q6 34 6 61q0 54 -27 78.5t-86 24.5q-78 0 -123 -43t-45 -109q0 -51 47 -81.5t168 -59.5q189 -46 273 -125.5t84 -214.5q0 -254 -139.5 -385t-405.5 -142l-45 -83q205 -3 205 -152q0 -92 -76 -136t-233 -44q-139 0 -263 49l70 125q69 -35 129 -35
q92 0 92 53q0 23 -23.5 32t-84.5 9h-27l104 185q-196 17 -286 100t-90 237q0 45 10 117h369q-7 -44 -7 -65q0 -60 33 -86.5t103 -26.5q89 0 133.5 42t44.5 118q0 49 -47.5 80.5t-167.5 60.5q-189 46 -273 125.5t-84 212.5q0 253 153.5 387.5t428.5 134.5q457 0 457 -338
q0 -35 -11 -106z" />
    <glyph glyph-name="scedilla" unicode="&#x15f;" horiz-adv-x="1048" 
d="M1014 741h-352q4 24 4 43q0 74 -80 74q-55 0 -85 -27.5t-30 -70.5q0 -38 39 -61t137 -42q170 -32 244 -100.5t74 -194.5q0 -188 -123 -282.5t-348 -102.5l-45 -83q204 -3 204 -152q0 -92 -76 -136t-233 -44q-77 0 -134.5 10.5t-127.5 38.5l70 125q69 -35 129 -35
q92 0 92 53q0 23 -23.5 32t-85.5 9h-26l104 185q-332 30 -332 288q0 36 6 80h353q-4 -24 -4 -45q0 -44 25 -65t79 -21q58 0 91.5 23t33.5 67q0 43 -40.5 67.5t-141.5 43.5q-166 31 -240 99t-74 192q0 188 137.5 289.5t372.5 101.5q204 0 308 -77t104 -214q0 -33 -6 -68z" />
    <glyph glyph-name="Scaron" unicode="&#x160;" horiz-adv-x="1171" 
d="M590 1513l-211 291h291l94 -104l131 104h324l-314 -291h-315zM504 -25q-248 0 -362.5 84.5t-114.5 257.5q0 45 10 117h369q-7 -44 -7 -65q0 -60 33 -86.5t103 -26.5q89 0 133.5 42t44.5 118q0 49 -47.5 80.5t-167.5 60.5q-189 46 -273 125.5t-84 212.5q0 253 153.5 387.5
t428.5 134.5q457 0 457 -338q0 -35 -11 -106h-366q6 34 6 61q0 54 -27 78.5t-86 24.5q-78 0 -123 -43t-45 -109q0 -51 47 -81.5t168 -59.5q189 -46 273 -125.5t84 -214.5q0 -266 -153 -397.5t-443 -131.5z" />
    <glyph glyph-name="scaron" unicode="&#x161;" horiz-adv-x="1048" 
d="M483 1204l-211 291h291l94 -104l131 104h324l-313 -291h-316zM442 -25q-218 0 -325 72.5t-107 220.5q0 36 6 80h353q-4 -24 -4 -45q0 -44 25 -65t79 -21q58 0 91.5 23t33.5 67q0 43 -40.5 67.5t-141.5 43.5q-166 31 -240 99t-74 192q0 188 137.5 289.5t372.5 101.5
q204 0 308 -77t104 -214q0 -33 -6 -68h-352q4 24 4 43q0 74 -80 74q-55 0 -85 -27.5t-30 -70.5q0 -38 39 -61t137 -42q170 -32 244 -100.5t74 -194.5q0 -197 -138 -292t-385 -95z" />
    <glyph glyph-name="uni0162" unicode="&#x162;" horiz-adv-x="1101" 
d="M164 1393h1077l-55 -312h-350l-191 -1081h-104l-74 -106q192 -9 192 -152q0 -92 -76 -136t-233 -44q-77 0 -134.5 10.5t-127.5 38.5l70 125q69 -35 129 -35q92 0 92 53q0 23 -23.5 32t-85.5 9h-26l143 205h-119l191 1081h-350z" />
    <glyph glyph-name="uni0163" unicode="&#x163;" horiz-adv-x="768" 
d="M575 811l-77 -432q-4 -20 -4 -43q0 -34 18 -48t59 -14h117l-47 -274h-250l-59 -106q205 -3 205 -152q0 -92 -76.5 -136t-233.5 -44q-77 0 -134.5 10.5t-127.5 38.5l70 125q69 -35 129 -35q92 0 92 53q0 23 -23.5 32t-85.5 9h-26l129 228q-135 51 -135 229q0 56 10 115
l78 444h-137l45 264h147l64 260h346l-47 -260h200l-45 -264h-201z" />
    <glyph glyph-name="Tcaron" unicode="&#x164;" horiz-adv-x="1101" 
d="M569 1513l-211 291h291l94 -104l131 104h324l-313 -291h-316zM268 0l191 1081h-350l55 312h1077l-55 -312h-350l-191 -1081h-377z" />
    <glyph glyph-name="tcaron" unicode="&#x165;" horiz-adv-x="768" 
d="M680 1139l154 469h333l-256 -469h-231zM395 0q-143 0 -211.5 61.5t-68.5 190.5q0 56 10 115l78 444h-137l45 264h147l64 260h346l-47 -260h200l-45 -264h-201l-77 -432q-4 -20 -4 -43q0 -34 18 -48t59 -14h117l-47 -274h-246z" />
    <glyph glyph-name="Tbar" unicode="&#x166;" horiz-adv-x="1101" 
d="M1186 1081h-350l-45 -254h233l-51 -295h-234l-94 -532h-377l94 532h-233l51 295h234l45 254h-350l55 312h1077z" />
    <glyph glyph-name="tbar" unicode="&#x167;" horiz-adv-x="768" 
d="M776 811h-201l-22 -123h178l-37 -209h-178l-18 -100q-4 -20 -4 -43q0 -34 18 -48t59 -14h117l-47 -274h-246q-143 0 -211.5 61.5t-68.5 190.5q0 56 10 115l20 112h-129l37 209h127l23 123h-137l45 264h147l64 260h346l-47 -260h200z" />
    <glyph glyph-name="Utilde" unicode="&#x168;" horiz-adv-x="1288" 
d="M967 1491q-84 0 -176 57q-47 31 -76 31q-50 0 -72 -76h-190q31 159 96.5 236.5t169.5 77.5q83 0 176 -58q46 -30 76 -30q50 0 71 75h191q-31 -158 -96.5 -235.5t-169.5 -77.5zM567 -25q-248 0 -362.5 89t-114.5 278q0 65 14 145l160 906h377l-160 -906q-8 -47 -8 -84
q0 -64 31.5 -91t103.5 -27q91 0 136 45t65 157l160 906h358l-164 -928q-45 -262 -185.5 -376t-410.5 -114z" />
    <glyph glyph-name="utilde" unicode="&#x169;" horiz-adv-x="1167" 
d="M846 1182q-84 0 -176 57q-47 31 -76 31q-50 0 -72 -76h-190q31 158 96.5 235.5t169.5 77.5q84 0 176 -57q47 -31 76 -31q50 0 72 76h190q-31 -158 -96.5 -235.5t-169.5 -77.5zM365 -25q-150 0 -228 74t-78 211q0 54 9 107l125 708h370l-119 -674q-4 -23 -4 -49
q0 -71 72 -71q89 0 152 106l120 688h371l-190 -1075h-314l11 98q-66 -66 -137 -94.5t-160 -28.5z" />
    <glyph glyph-name="Umacron" unicode="&#x16a;" horiz-adv-x="1288" 
d="M500 1542l41 234h647l-41 -234h-647zM567 -25q-248 0 -362.5 89t-114.5 278q0 65 14 145l160 906h377l-160 -906q-8 -47 -8 -84q0 -64 31.5 -91t103.5 -27q91 0 136 45t65 157l160 906h358l-164 -928q-45 -262 -185.5 -376t-410.5 -114z" />
    <glyph glyph-name="umacron" unicode="&#x16b;" horiz-adv-x="1167" 
d="M379 1233l41 233h647l-41 -233h-647zM365 -25q-150 0 -228 74t-78 211q0 54 9 107l125 708h370l-119 -674q-4 -23 -4 -49q0 -71 72 -71q89 0 152 106l120 688h371l-190 -1075h-314l11 98q-66 -66 -137 -94.5t-160 -28.5z" />
    <glyph glyph-name="Ubreve" unicode="&#x16c;" horiz-adv-x="1288" 
d="M834 1489q-151 0 -237.5 80t-86.5 200q0 23 2 35h229v-8q0 -44 29.5 -69t81.5 -25q54 0 91.5 27.5t49.5 74.5h232q-29 -148 -135 -231.5t-256 -83.5zM567 -25q-248 0 -362.5 89t-114.5 278q0 65 14 145l160 906h377l-160 -906q-8 -47 -8 -84q0 -64 31.5 -91t103.5 -27
q91 0 136 45t65 157l160 906h358l-164 -928q-45 -262 -185.5 -376t-410.5 -114z" />
    <glyph glyph-name="ubreve" unicode="&#x16d;" horiz-adv-x="1167" 
d="M713 1180q-151 0 -237.5 80t-86.5 200q0 23 2 35h230v-8q0 -44 29 -69t81 -25q54 0 91.5 27.5t49.5 74.5h232q-29 -148 -135 -231.5t-256 -83.5zM365 -25q-150 0 -228 74t-78 211q0 54 9 107l125 708h370l-119 -674q-4 -23 -4 -49q0 -71 72 -71q89 0 152 106l120 688h371
l-190 -1075h-314l11 98q-66 -66 -137 -94.5t-160 -28.5z" />
    <glyph glyph-name="Uring" unicode="&#x16e;" horiz-adv-x="1288" 
d="M825 1470q-111 0 -180.5 66.5t-69.5 173.5q0 114 81 189t204 75q111 0 180.5 -66t69.5 -173q0 -114 -81 -189.5t-204 -75.5zM834 1634q41 0 64.5 29t23.5 76q0 35 -18.5 53t-51.5 18q-41 0 -64.5 -29t-23.5 -75q0 -35 18.5 -53.5t51.5 -18.5zM567 -25q-248 0 -362.5 89
t-114.5 278q0 65 14 145l160 906h377l-160 -906q-8 -47 -8 -84q0 -64 31.5 -91t103.5 -27q91 0 136 45t65 157l160 906h358l-164 -928q-45 -262 -185.5 -376t-410.5 -114z" />
    <glyph glyph-name="uring" unicode="&#x16f;" horiz-adv-x="1167" 
d="M705 1161q-111 0 -180.5 66.5t-69.5 173.5q0 114 80.5 189t203.5 75q111 0 180.5 -66.5t69.5 -173.5q0 -114 -80.5 -189t-203.5 -75zM713 1325q41 0 64.5 29t23.5 76q0 35 -18.5 53t-51.5 18q-41 0 -64.5 -29t-23.5 -75q0 -35 18.5 -53.5t51.5 -18.5zM365 -25
q-150 0 -228 74t-78 211q0 54 9 107l125 708h370l-119 -674q-4 -23 -4 -49q0 -71 72 -71q89 0 152 106l120 688h371l-190 -1075h-314l11 98q-66 -66 -137 -94.5t-160 -28.5z" />
    <glyph glyph-name="Uhungarumlaut" unicode="&#x170;" horiz-adv-x="1288" 
d="M399 1513l234 291h364l-307 -291h-291zM854 1513l233 291h365l-307 -291h-291zM567 -25q-248 0 -362.5 89t-114.5 278q0 65 14 145l160 906h377l-160 -906q-8 -47 -8 -84q0 -64 31.5 -91t103.5 -27q91 0 136 45t65 157l160 906h358l-164 -928q-45 -262 -185.5 -376
t-410.5 -114z" />
    <glyph glyph-name="uhungarumlaut" unicode="&#x171;" horiz-adv-x="1167" 
d="M279 1204l233 291h365l-308 -291h-290zM733 1204l234 291h364l-307 -291h-291zM365 -25q-150 0 -228 74t-78 211q0 54 9 107l125 708h370l-119 -674q-4 -23 -4 -49q0 -71 72 -71q89 0 152 106l120 688h371l-190 -1075h-314l11 98q-66 -66 -137 -94.5t-160 -28.5z" />
    <glyph glyph-name="Uogonek" unicode="&#x172;" horiz-adv-x="1288" 
d="M969 1393h358l-164 -928q-35 -200 -123 -312t-243 -153q-90 -30 -138.5 -71.5t-48.5 -92.5q0 -61 74 -61q50 0 109 26l-37 -202q-55 -25 -148 -25q-134 0 -203 46.5t-69 137.5q0 130 137 222q-197 15 -290 103.5t-93 258.5q0 65 14 145l160 906h377l-160 -906
q-8 -47 -8 -84q0 -64 31.5 -91t103.5 -27q91 0 136 45t65 157z" />
    <glyph glyph-name="uogonek" unicode="&#x173;" horiz-adv-x="1167" 
d="M887 0q-139 -73 -139 -164q0 -61 73 -61q50 0 109 26l-37 -202q-55 -25 -148 -25q-134 0 -203 46.5t-69 137.5q0 140 178 248l11 92q-66 -66 -137 -94.5t-160 -28.5q-150 0 -228 74t-78 211q0 54 9 107l125 708h370l-119 -674q-4 -23 -4 -49q0 -71 72 -71q89 0 152 106
l120 688h371l-190 -1075h-78z" />
    <glyph glyph-name="Wcircumflex" unicode="&#x174;" horiz-adv-x="1824" 
d="M662 1513l313 291h315l211 -291h-291l-94 105l-131 -105h-323zM233 0l-75 1393h381l14 -881l362 881h306l51 -881l325 881h373l-567 -1393h-387l-47 823l-338 -823h-398z" />
    <glyph glyph-name="wcircumflex" unicode="&#x175;" horiz-adv-x="1662" 
d="M524 1204l314 291h315l211 -291h-291l-94 105l-131 -105h-324zM190 0l-94 1075h375l12 -665l287 665h309l56 -665l243 665h377l-471 -1075h-399l-47 569l-248 -569h-400z" />
    <glyph glyph-name="Ycircumflex" unicode="&#x176;" horiz-adv-x="1124" 
d="M309 1513l314 291h315l211 -291h-291l-94 105l-131 -105h-324zM276 0l105 588l-287 805h408l131 -435l282 435h418l-581 -826l-101 -567h-375z" />
    <glyph glyph-name="ycircumflex" unicode="&#x177;" horiz-adv-x="1048" 
d="M217 1204l313 291h316l211 -291h-291l-94 105l-131 -105h-324zM-33 -373l47 275h144q38 0 55.5 11.5t36.5 49.5l18 37l-180 1075h385l49 -608l246 608h381l-553 -1161q-59 -124 -111.5 -183t-122 -81.5t-192.5 -22.5h-203z" />
    <glyph glyph-name="Ydieresis" unicode="&#x178;" horiz-adv-x="1124" 
d="M348 1513l51 291h318l-51 -291h-318zM801 1513l51 291h317l-51 -291h-317zM276 0l105 588l-287 805h408l131 -435l282 435h418l-581 -826l-101 -567h-375z" />
    <glyph glyph-name="Zacute" unicode="&#x179;" horiz-adv-x="1155" 
d="M524 1513l285 291h397l-358 -291h-324zM-45 0l49 276l711 811h-533l54 306h1003l-49 -275l-713 -813h588l-53 -305h-1057z" />
    <glyph glyph-name="zacute" unicode="&#x17a;" horiz-adv-x="974" 
d="M379 1204l285 291h397l-359 -291h-323zM-57 0l41 242l520 561h-377l47 272h848l-41 -241l-520 -562h430l-47 -272h-901z" />
    <glyph glyph-name="Zdotaccent" unicode="&#x17b;" horiz-adv-x="1155" 
d="M588 1513l51 291h338l-51 -291h-338zM-45 0l49 276l711 811h-533l54 306h1003l-49 -275l-713 -813h588l-53 -305h-1057z" />
    <glyph glyph-name="zdotaccent" unicode="&#x17c;" horiz-adv-x="974" 
d="M442 1204l52 291h337l-51 -291h-338zM-57 0l41 242l520 561h-377l47 272h848l-41 -241l-520 -562h430l-47 -272h-901z" />
    <glyph glyph-name="Zcaron" unicode="&#x17d;" horiz-adv-x="1155" 
d="M604 1513l-211 291h291l94 -104l131 104h324l-313 -291h-316zM-45 0l49 276l711 811h-533l54 306h1003l-49 -275l-713 -813h588l-53 -305h-1057z" />
    <glyph glyph-name="zcaron" unicode="&#x17e;" horiz-adv-x="974" 
d="M459 1204l-211 291h291l94 -104l131 104h323l-313 -291h-315zM-57 0l41 242l520 561h-377l47 272h848l-41 -241l-520 -562h430l-47 -272h-901z" />
    <glyph glyph-name="florin" unicode="&#x192;" horiz-adv-x="1216" 
d="M-27 -123l84 273h111q57 0 88 27t51 97l121 414h-205l49 275h238l35 118q58 199 153 276t279 77h285l-80 -273h-133q-57 0 -89.5 -28.5t-52.5 -96.5l-22 -73h229l-49 -275h-260l-137 -459q-60 -198 -154 -275t-276 -77h-265z" />
    <glyph glyph-name="Aringacute" unicode="&#x1fa;" horiz-adv-x="1280" 
d="M670 2019l284 291h398l-359 -291h-323zM831 1462q-110 0 -179.5 66.5t-69.5 173.5q0 114 80.5 189t203.5 75q111 0 180.5 -66.5t69.5 -173.5q0 -114 -81 -189t-204 -75zM840 1626q41 0 64.5 29t23.5 76q0 35 -18.5 53t-51.5 18q-41 0 -64.5 -29t-23.5 -75
q0 -35 18.5 -53.5t51.5 -18.5zM-94 0l684 1393h403l193 -1393h-389l-23 248h-373l-112 -248h-383zM526 539h226l-33 452z" />
    <glyph glyph-name="aringacute" unicode="&#x1fb;" horiz-adv-x="1093" 
d="M512 1710l285 291h397l-358 -291h-324zM674 1153q-111 0 -180.5 66.5t-69.5 173.5q0 114 81 189t204 75q110 0 179.5 -66.5t69.5 -173.5q0 -114 -80.5 -189t-203.5 -75zM682 1317q41 0 64.5 29t23.5 75q0 35 -18.5 53.5t-51.5 18.5q-41 0 -64.5 -29t-23.5 -75
q0 -35 18.5 -53.5t51.5 -18.5zM301 -25q-297 0 -297 291q0 194 128 292.5t360 98.5h161l6 33q9 53 9 66q0 78 -84 78q-96 0 -125 -105h-353q44 197 166.5 284t348.5 87q216 0 316.5 -76.5t100.5 -239.5q0 -54 -10 -108l-119 -676h-315l10 109q-117 -134 -303 -134zM453 242
q79 0 141 82l27 141h-82q-85 0 -129.5 -34.5t-44.5 -96.5q0 -44 22.5 -68t65.5 -24z" />
    <glyph glyph-name="AEacute" unicode="&#x1fc;" horiz-adv-x="1875" 
d="M899 1513l285 291h397l-358 -291h-324zM-152 0l994 1393h1087l-55 -306h-547l-43 -239h447l-54 -295h-444l-45 -248h569l-53 -305h-946l43 248h-365l-176 -248h-412zM627 539h225l90 503z" />
    <glyph glyph-name="aeacute" unicode="&#x1fd;" horiz-adv-x="1689" 
d="M715 1204l284 291h398l-359 -291h-323zM338 -25q-166 0 -249 72t-83 221q0 194 128.5 291.5t359.5 97.5h163l7 37q6 30 6 56q0 84 -84 84q-96 0 -125 -105h-352q78 371 477 371q234 0 319 -123q114 123 338 123q202 0 303 -90.5t101 -264.5q0 -54 -11 -116l-32 -187h-617
l-4 -28q-6 -37 -6 -70q0 -54 25.5 -79t82.5 -25q114 0 142 102h354q-42 -194 -170.5 -280.5t-347.5 -86.5q-285 0 -391 142q-67 -75 -146 -108.5t-188 -33.5zM1026 651h264l2 13q8 40 8 71q0 101 -110 101q-71 0 -109.5 -41.5t-52.5 -130.5zM455 242q87 0 153 98
q0 46 10 100l5 25h-82q-86 0 -130 -34.5t-44 -96.5q0 -44 22.5 -68t65.5 -24z" />
    <glyph glyph-name="Oslashacute" unicode="&#x1fe;" horiz-adv-x="1335" 
d="M1288 1804l-358 -291h-324l285 291h397zM1372 1280l-90 -98q29 -82 29 -183q0 -80 -15 -165l-53 -304q-52 -293 -207.5 -424t-447.5 -131q-225 0 -350 78l-72 -78l-148 138l91 98q-29 82 -29 182q0 86 14 166l53 303q52 293 208 424t448 131q227 0 352 -78l72 78z
M522 836l-39 -222l416 451q-37 43 -135 43q-112 0 -163.5 -60.5t-78.5 -211.5zM868 557l39 219l-415 -448q40 -43 135 -43q112 0 163 60.5t78 211.5z" />
    <glyph glyph-name="oslashacute" unicode="&#x1ff;" horiz-adv-x="1150" 
d="M1141 1495l-359 -291h-323l284 291h398zM1153 971l-76 -74q27 -64 27 -152q0 -62 -10 -116l-37 -211q-40 -228 -176.5 -335.5t-384.5 -107.5q-194 0 -306 68l-69 -68l-123 129l76 74q-27 64 -27 152q0 62 10 116l37 211q40 228 176.5 335.5t384.5 107.5q194 0 306 -68
l69 68zM461 635l-19 -103l269 259q-25 28 -86 28q-70 0 -108 -41.5t-56 -142.5zM690 440l19 103l-269 -258q26 -29 86 -29q70 0 108 41.5t56 142.5z" />
    <glyph glyph-name="Scommaaccent" unicode="&#x218;" horiz-adv-x="1171" 
d="M504 -25q-248 0 -362.5 84.5t-114.5 257.5q0 45 10 117h369q-7 -44 -7 -65q0 -60 33 -86.5t103 -26.5q89 0 133.5 42t44.5 118q0 49 -47.5 80.5t-167.5 60.5q-189 46 -273 125.5t-84 212.5q0 253 153.5 387.5t428.5 134.5q457 0 457 -338q0 -35 -11 -106h-366q6 34 6 61
q0 54 -27 78.5t-86 24.5q-78 0 -123 -43t-45 -109q0 -51 47 -81.5t168 -59.5q189 -46 273 -125.5t84 -214.5q0 -266 -153 -397.5t-443 -131.5zM248 -539l22 123q75 0 109 20t45 68h-139l39 219h338l-27 -151q-11 -60 -23 -100.5t-32.5 -73.5t-46.5 -51.5t-67.5 -31.5
t-92.5 -17.5t-125 -4.5z" />
    <glyph glyph-name="scommaaccent" unicode="&#x219;" horiz-adv-x="1048" 
d="M442 -25q-218 0 -325 72.5t-107 220.5q0 36 6 80h353q-4 -24 -4 -45q0 -44 25 -65t79 -21q58 0 91.5 23t33.5 67q0 43 -40.5 67.5t-141.5 43.5q-166 31 -240 99t-74 192q0 188 137.5 289.5t372.5 101.5q204 0 308 -77t104 -214q0 -33 -6 -68h-352q4 24 4 43q0 74 -80 74
q-55 0 -85 -27.5t-30 -70.5q0 -38 39 -61t137 -42q170 -32 244 -100.5t74 -194.5q0 -197 -138 -292t-385 -95zM186 -539l23 123q75 0 108.5 20t44.5 68h-139l39 219h338l-27 -151q-11 -60 -23 -100.5t-32.5 -73.5t-46.5 -51.5t-67.5 -31.5t-92.5 -17.5t-125 -4.5z" />
    <glyph glyph-name="uni021A" unicode="&#x21a;" horiz-adv-x="1101" 
d="M268 0l191 1081h-350l55 312h1077l-55 -312h-350l-191 -1081h-377zM193 -539l22 123q75 0 109 20t45 68h-140l39 219h338l-26 -151q-11 -60 -23 -100.5t-32.5 -73.5t-46.5 -51.5t-67.5 -31.5t-92.5 -17.5t-125 -4.5z" />
    <glyph glyph-name="uni021B" unicode="&#x21b;" horiz-adv-x="768" 
d="M395 0q-143 0 -211.5 61.5t-68.5 190.5q0 56 10 115l78 444h-137l45 264h147l64 260h346l-47 -260h200l-45 -264h-201l-77 -432q-4 -20 -4 -43q0 -34 18 -48t59 -14h117l-47 -274h-246zM70 -539l22 123q75 0 109 20t45 68h-140l39 219h338l-26 -151q-11 -60 -23 -100.5
t-32.5 -73.5t-46.5 -51.5t-67.5 -31.5t-92.5 -17.5t-125 -4.5z" />
    <glyph glyph-name="uni0237" unicode="&#x237;" horiz-adv-x="585" 
d="M-172 -373l47 275h45q43 0 62 18.5t28 67.5l193 1087h370l-200 -1132q-31 -173 -108 -244.5t-234 -71.5h-203z" />
    <glyph glyph-name="uni02BC" unicode="&#x2bc;" horiz-adv-x="419" 
d="M113 944l26 158q74 0 111.5 25.5t48.5 78.5l2 11h-141l49 278h338l-43 -246q-20 -113 -60.5 -177t-119.5 -96t-211 -32z" />
    <glyph glyph-name="circumflex" unicode="&#x2c6;" horiz-adv-x="1024" 
d="M205 1204l313 291h316l210 -291h-290l-95 105l-131 -105h-323z" />
    <glyph glyph-name="caron" unicode="&#x2c7;" horiz-adv-x="1024" 
d="M475 1204l-211 291h291l94 -104l131 104h324l-313 -291h-316z" />
    <glyph glyph-name="uni02C9" unicode="&#x2c9;" horiz-adv-x="1024" 
d="M311 1233l41 233h647l-41 -233h-647z" />
    <glyph glyph-name="breve" unicode="&#x2d8;" horiz-adv-x="1024" 
d="M645 1180q-151 0 -237 79.5t-86 200.5q0 23 2 35h229v-8q0 -44 29.5 -69t81.5 -25q54 0 91.5 27.5t49.5 74.5h231q-29 -148 -135 -231.5t-256 -83.5z" />
    <glyph glyph-name="dotaccent" unicode="&#x2d9;" horiz-adv-x="1024" 
d="M459 1204l51 291h338l-51 -291h-338z" />
    <glyph glyph-name="ring" unicode="&#x2da;" horiz-adv-x="1024" 
d="M649 1161q-111 0 -180.5 66.5t-69.5 173.5q0 114 81 189t204 75q111 0 180.5 -66.5t69.5 -173.5q0 -114 -81 -189t-204 -75zM657 1325q41 0 64.5 29t23.5 76q0 71 -69 71q-41 0 -64.5 -29t-23.5 -75q0 -35 18 -53.5t51 -18.5z" />
    <glyph glyph-name="ogonek" unicode="&#x2db;" horiz-adv-x="1024" 
d="M424 -426q-134 0 -203 46.5t-69 137.5q0 206 389 344l96 -69q-102 -40 -156.5 -91t-54.5 -106q0 -61 74 -61q49 0 108 26l-37 -202q-55 -25 -147 -25z" />
    <glyph glyph-name="tilde" unicode="&#x2dc;" horiz-adv-x="1024" 
d="M778 1182q-84 0 -176 57q-47 31 -76 31q-49 0 -71 -76h-191q31 158 96.5 235.5t169.5 77.5q85 0 177 -57q47 -31 75 -31q50 0 72 76h190q-31 -158 -96.5 -235.5t-169.5 -77.5z" />
    <glyph glyph-name="hungarumlaut" unicode="&#x2dd;" horiz-adv-x="1024" 
d="M211 1204l233 291h365l-307 -291h-291zM666 1204l233 291h365l-308 -291h-290z" />
    <glyph glyph-name="gravecomb" unicode="&#x300;" horiz-adv-x="0" 
d="M43 1204l-256 291h365l182 -291h-291z" />
    <glyph glyph-name="acutecomb" unicode="&#x301;" horiz-adv-x="0" 
d="M-117 1204l285 291h397l-358 -291h-324z" />
    <glyph glyph-name="uni0302" unicode="&#x302;" horiz-adv-x="0" 
d="M-307 1204l313 291h316l210 -291h-290l-95 105l-131 -105h-323z" />
    <glyph glyph-name="tildecomb" unicode="&#x303;" horiz-adv-x="0" 
d="M266 1182q-84 0 -176 57q-47 31 -76 31q-49 0 -71 -76h-191q31 158 96.5 235.5t169.5 77.5q85 0 177 -57q47 -31 75 -31q50 0 72 76h190q-31 -158 -96.5 -235.5t-169.5 -77.5z" />
    <glyph glyph-name="uni0304" unicode="&#x304;" horiz-adv-x="0" 
d="M-201 1233l41 233h647l-41 -233h-647z" />
    <glyph glyph-name="uni0306" unicode="&#x306;" horiz-adv-x="0" 
d="M133 1180q-151 0 -237 79.5t-86 200.5q0 23 2 35h229v-8q0 -44 29.5 -69t81.5 -25q54 0 91.5 27.5t49.5 74.5h231q-29 -148 -135 -231.5t-256 -83.5z" />
    <glyph glyph-name="uni0307" unicode="&#x307;" horiz-adv-x="0" 
d="M-53 1204l51 291h338l-51 -291h-338z" />
    <glyph glyph-name="uni0308" unicode="&#x308;" horiz-adv-x="0" 
d="M-268 1204l51 291h317l-51 -291h-317zM184 1204l52 291h317l-51 -291h-318z" />
    <glyph glyph-name="uni030A" unicode="&#x30a;" horiz-adv-x="0" 
d="M137 1161q-111 0 -180.5 66.5t-69.5 173.5q0 114 81 189t204 75q111 0 180.5 -66.5t69.5 -173.5q0 -114 -81 -189t-204 -75zM145 1325q41 0 64.5 29t23.5 76q0 71 -69 71q-41 0 -64.5 -29t-23.5 -75q0 -35 18 -53.5t51 -18.5z" />
    <glyph glyph-name="uni030B" unicode="&#x30b;" horiz-adv-x="0" 
d="M-301 1204l233 291h365l-307 -291h-291zM154 1204l233 291h365l-308 -291h-290z" />
    <glyph glyph-name="uni030C" unicode="&#x30c;" horiz-adv-x="0" 
d="M-37 1204l-211 291h291l94 -104l131 104h324l-313 -291h-316z" />
    <glyph glyph-name="uni0312" unicode="&#x312;" horiz-adv-x="0" 
d="M-55 1184l26 151q11 60 23 100.5t32.5 73.5t46.5 51.5t67.5 31.5t92.5 17.5t125 4.5l-22 -123q-75 0 -109 -20t-45 -68h140l-39 -219h-338z" />
    <glyph glyph-name="uni0326" unicode="&#x326;" horiz-adv-x="0" 
d="M-358 -539l22 123q75 0 109 20t45 68h-140l39 219h338l-26 -151q-11 -60 -23 -100.5t-32.5 -73.5t-46.5 -51.5t-67.5 -31.5t-92.5 -17.5t-125 -4.5z" />
    <glyph glyph-name="uni0327" unicode="&#x327;" horiz-adv-x="0" 
d="M-201 -438q-77 0 -134.5 10.5t-127.5 38.5l70 125q69 -35 129 -35q92 0 92 53q0 23 -23.5 32t-85.5 9h-26l133 236h154l-76 -137q205 -3 205 -152q0 -92 -76.5 -136t-233.5 -44z" />
    <glyph glyph-name="uni0328" unicode="&#x328;" horiz-adv-x="0" 
d="M-88 -426q-134 0 -203 46.5t-69 137.5q0 206 389 344l96 -69q-102 -40 -156.5 -91t-54.5 -106q0 -61 74 -61q49 0 108 26l-37 -202q-55 -25 -147 -25z" />
    <glyph glyph-name="uni0394" unicode="&#x394;" horiz-adv-x="1259" 
d="M-94 0l674 1393h403l182 -1393h-1259zM418 303h338l-49 678z" />
    <glyph glyph-name="uni03A9" unicode="&#x3a9;" horiz-adv-x="1335" 
d="M6 0l53 303h158q-111 88 -111 272q0 57 13 130l26 151q52 297 208 429t450 132q264 0 387 -101.5t123 -309.5q0 -78 -17 -175l-26 -151q-49 -267 -207 -377h131l-53 -303h-496l49 276q74 32 115 98t63 187l50 279q12 71 12 106q0 86 -39.5 124t-126.5 38
q-107 0 -164.5 -61t-83.5 -207l-49 -279q-12 -70 -12 -115q0 -125 92 -170l-49 -276h-496z" />
    <glyph glyph-name="uni03BC" unicode="&#x3bc;" horiz-adv-x="1175" 
d="M-53 -373l256 1448h370l-120 -678q-4 -32 -4 -41q0 -75 69 -75q91 0 154 106l121 688h370l-190 -1075h-314l11 98q-123 -123 -285 -123h-6l-62 -348h-370z" />
    <glyph glyph-name="pi" unicode="&#x3c0;" horiz-adv-x="1255" 
d="M70 0l141 801h-148l48 274h1206l-47 -274h-150l-78 -441q-4 -28 -4 -36q0 -27 15 -38.5t49 -11.5h74l-48 -274h-213q-132 0 -194 55.5t-62 173.5q0 56 11 115l80 457h-168l-142 -801h-370z" />
    <glyph glyph-name="Wgrave" unicode="&#x1e80;" horiz-adv-x="1824" 
d="M1012 1513l-256 291h364l183 -291h-291zM233 0l-75 1393h381l14 -881l362 881h306l51 -881l325 881h373l-567 -1393h-387l-47 823l-338 -823h-398z" />
    <glyph glyph-name="wgrave" unicode="&#x1e81;" horiz-adv-x="1662" 
d="M874 1204l-256 291h365l182 -291h-291zM190 0l-94 1075h375l12 -665l287 665h309l56 -665l243 665h377l-471 -1075h-399l-47 569l-248 -569h-400z" />
    <glyph glyph-name="Wacute" unicode="&#x1e82;" horiz-adv-x="1824" 
d="M852 1513l285 291h397l-358 -291h-324zM233 0l-75 1393h381l14 -881l362 881h306l51 -881l325 881h373l-567 -1393h-387l-47 823l-338 -823h-398z" />
    <glyph glyph-name="wacute" unicode="&#x1e83;" horiz-adv-x="1662" 
d="M715 1204l284 291h398l-359 -291h-323zM190 0l-94 1075h375l12 -665l287 665h309l56 -665l243 665h377l-471 -1075h-399l-47 569l-248 -569h-400z" />
    <glyph glyph-name="Wdieresis" unicode="&#x1e84;" horiz-adv-x="1824" 
d="M700 1513l52 291h317l-51 -291h-318zM1153 1513l51 291h318l-52 -291h-317zM233 0l-75 1393h381l14 -881l362 881h306l51 -881l325 881h373l-567 -1393h-387l-47 823l-338 -823h-398z" />
    <glyph glyph-name="wdieresis" unicode="&#x1e85;" horiz-adv-x="1662" 
d="M563 1204l51 291h318l-51 -291h-318zM1016 1204l51 291h317l-51 -291h-317zM190 0l-94 1075h375l12 -665l287 665h309l56 -665l243 665h377l-471 -1075h-399l-47 569l-248 -569h-400z" />
    <glyph glyph-name="uni1E9E" unicode="&#x1e9e;" horiz-adv-x="1347" 
d="M20 0l166 940q43 239 178 346t394 107h594l-45 -260l-281 -338q138 -27 198 -106t60 -224q0 -236 -147.5 -350.5t-448.5 -114.5h-201l52 291h163q203 0 203 151q0 59 -34 82t-121 23h-148l41 231l236 324h-125q-86 0 -131 -40.5t-62 -133.5l-164 -928h-377z" />
    <glyph glyph-name="Ygrave" unicode="&#x1ef2;" horiz-adv-x="1124" 
d="M659 1513l-256 291h365l182 -291h-291zM276 0l105 588l-287 805h408l131 -435l282 435h418l-581 -826l-101 -567h-375z" />
    <glyph glyph-name="ygrave" unicode="&#x1ef3;" horiz-adv-x="1048" 
d="M567 1204l-256 291h365l182 -291h-291zM-33 -373l47 275h144q38 0 55.5 11.5t36.5 49.5l18 37l-180 1075h385l49 -608l246 608h381l-553 -1161q-59 -124 -111.5 -183t-122 -81.5t-192.5 -22.5h-203z" />
    <glyph glyph-name="uni2002" unicode="&#x2002;" horiz-adv-x="1024" 
 />
    <glyph glyph-name="uni2003" unicode="&#x2003;" horiz-adv-x="1843" 
 />
    <glyph glyph-name="uni2007" unicode="&#x2007;" horiz-adv-x="1216" 
 />
    <glyph glyph-name="uni2008" unicode="&#x2008;" horiz-adv-x="612" 
 />
    <glyph glyph-name="uni200B" unicode="&#x200b;" horiz-adv-x="0" 
 />
    <glyph glyph-name="figuredash" unicode="&#x2012;" horiz-adv-x="1216" 
d="M49 473l49 279h1094l-49 -279h-1094z" />
    <glyph glyph-name="endash" unicode="&#x2013;" horiz-adv-x="1024" 
d="M49 473l49 279h901l-49 -279h-901z" />
    <glyph glyph-name="emdash" unicode="&#x2014;" horiz-adv-x="1843" 
d="M49 473l49 279h1721l-50 -279h-1720z" />
    <glyph glyph-name="quoteleft" unicode="&#x2018;" horiz-adv-x="567" 
d="M117 651l67 381q37 212 132.5 298.5t299.5 86.5l-30 -184q-136 0 -160 -150l-12 -67h133l-64 -365h-366z" />
    <glyph glyph-name="quoteright" unicode="&#x2019;" horiz-adv-x="567" 
d="M123 627l31 184q135 0 159 150l13 67h-133l63 365h367l-68 -381q-37 -212 -132.5 -298.5t-299.5 -86.5z" />
    <glyph glyph-name="quotesinglbase" unicode="&#x201a;" horiz-adv-x="567" 
d="M-59 -401l30 184q136 0 160 149l12 68h-133l64 365h366l-67 -381q-37 -212 -132.5 -298.5t-299.5 -86.5z" />
    <glyph glyph-name="quotedblleft" unicode="&#x201c;" horiz-adv-x="1085" 
d="M117 651l67 381q37 212 132.5 298.5t299.5 86.5l-30 -184q-136 0 -160 -150l-12 -67h133l-64 -365h-366zM635 651l67 381q37 212 133 298.5t300 86.5l-31 -184q-136 0 -160 -150l-12 -67h133l-64 -365h-366z" />
    <glyph glyph-name="quotedblright" unicode="&#x201d;" horiz-adv-x="1085" 
d="M123 627l31 184q135 0 159 150l13 67h-133l63 365h367l-68 -381q-37 -212 -132.5 -298.5t-299.5 -86.5zM641 627l31 184q135 0 159 150l13 67h-133l63 365h367l-68 -381q-37 -212 -132.5 -298.5t-299.5 -86.5z" />
    <glyph glyph-name="quotedblbase" unicode="&#x201e;" horiz-adv-x="1085" 
d="M-57 -401l30 184q136 0 160 149l12 68h-133l64 365h366l-67 -381q-37 -212 -132.5 -298.5t-299.5 -86.5zM461 -401l31 184q135 0 159 149l13 68h-134l64 365h367l-68 -381q-37 -212 -132.5 -298.5t-299.5 -86.5z" />
    <glyph glyph-name="dagger" unicode="&#x2020;" horiz-adv-x="1265" 
d="M295 -373l182 1037l-391 -21l57 322l383 -21l80 449h352l-79 -449l395 21l-57 -322l-388 21l-182 -1037h-352z" />
    <glyph glyph-name="daggerdbl" unicode="&#x2021;" horiz-adv-x="1265" 
d="M297 -373l72 408l-394 -21l58 322l385 -21l67 390l-391 -21l56 322l385 -21l71 408h352l-71 -408l393 21l-55 -322l-387 21l-68 -390l393 21l-57 -322l-385 21l-72 -408h-352z" />
    <glyph glyph-name="bullet" unicode="&#x2022;" horiz-adv-x="1024" 
d="M190 332l101 561h569l-100 -561h-570z" />
    <glyph glyph-name="ellipsis" unicode="&#x2026;" horiz-adv-x="1843" 
d="M25 0l65 375h377l-66 -375h-376zM639 0l66 375h376l-65 -375h-377zM1253 0l66 375h377l-66 -375h-377z" />
    <glyph glyph-name="perthousand" unicode="&#x2030;" horiz-adv-x="2363" 
d="M412 631q-141 0 -218 57t-77 166q0 30 6 64l41 231q25 144 111.5 206t234.5 62q141 0 218 -57t77 -166q0 -30 -6 -64l-41 -231q-25 -144 -111.5 -206t-234.5 -62zM170 -25l1096 1442h252l-1096 -1442h-252zM426 827q36 0 56 20.5t28 63.5l39 222q4 24 4 36q0 52 -57 52
q-36 0 -56 -20.5t-28 -63.5l-39 -222q-4 -24 -4 -36q0 -52 57 -52zM1178 -25q-141 0 -218 57.5t-77 166.5q0 28 6 63l41 232q25 144 111.5 206t234.5 62q141 0 218 -57t77 -166q0 -29 -6 -64l-41 -231q-25 -144 -111.5 -206.5t-234.5 -62.5zM1911 -25q-141 0 -218 57.5
t-77 166.5q0 28 6 63l41 232q25 144 111.5 206t234.5 62q141 0 218 -57t77 -166q0 -29 -6 -64l-41 -231q-25 -144 -111.5 -206.5t-234.5 -62.5zM1192 172q36 0 56 20.5t28 63.5l39 221q4 24 4 37q0 51 -57 51q-36 0 -56 -20.5t-28 -63.5l-39 -221q-4 -24 -4 -37
q0 -51 57 -51zM1925 172q36 0 56 20.5t28 63.5l39 221q4 24 4 37q0 51 -57 51q-36 0 -56 -20.5t-28 -63.5l-39 -221q-4 -24 -4 -37q0 -51 57 -51z" />
    <glyph glyph-name="guilsinglleft" unicode="&#x2039;" horiz-adv-x="641" 
d="M233 168l-208 383l323 358h359l-351 -389l191 -352h-314z" />
    <glyph glyph-name="guilsinglright" unicode="&#x203a;" horiz-adv-x="641" 
d="M-66 168l351 389l-191 352h314l208 -383l-323 -358h-359z" />
    <glyph glyph-name="fraction" unicode="&#x2044;" horiz-adv-x="241" 
d="M-477 -25l1012 1442h241l-1012 -1442h-241z" />
    <glyph glyph-name="uni2070" unicode="&#x2070;" 
d="M444 827q-143 0 -218.5 60t-75.5 168q0 25 6 59l55 313q23 130 109 193t237 63q143 0 219 -59.5t76 -167.5q0 -24 -6 -59l-55 -314q-46 -256 -347 -256zM461 1024q36 0 56 20.5t28 63.5l51 291q2 12 2 31q0 57 -57 57q-36 0 -56 -20.5t-28 -63.5l-51 -291q-3 -18 -3 -31
q0 -57 58 -57z" />
    <glyph glyph-name="uni2074" unicode="&#x2074;" 
d="M455 852l28 160h-356l37 198l420 449h262l-82 -465h74l-33 -182h-72l-28 -160h-250zM371 1194h143l35 199z" />
    <glyph glyph-name="uni2075" unicode="&#x2075;" 
d="M440 827q-144 0 -216 56t-72 151q0 19 4 51h239v-8q0 -53 66 -53q49 0 71.5 30.5t22.5 75.5q0 36 -15 52t-48 16q-49 0 -82 -29h-215l116 490h543l-35 -197h-350l-29 -116q57 32 140 32q114 0 168.5 -56.5t54.5 -170.5q0 -152 -92.5 -238t-270.5 -86z" />
    <glyph glyph-name="uni2076" unicode="&#x2076;" 
d="M451 827q-146 0 -221.5 60.5t-75.5 165.5q0 27 6 61l53 301q25 137 111 202.5t239 65.5q147 0 220 -54.5t73 -151.5q0 -22 -4 -54h-236v13q0 27 -14 39t-45 12q-44 0 -67.5 -22.5t-30.5 -73.5l-8 -52q57 35 139 35q109 0 162 -55.5t53 -169.5q0 -152 -91 -237t-263 -85z
M467 1024q49 0 70.5 36t21.5 85q0 30 -10.5 42.5t-38.5 12.5q-59 0 -94 -53l-6 -35q-2 -12 -2 -22q0 -66 59 -66z" />
    <glyph glyph-name="uni2077" unicode="&#x2077;" 
d="M197 852q84 396 391 604h-373l35 203h643l-37 -211q-170 -134 -261 -271.5t-132 -324.5h-266z" />
    <glyph glyph-name="uni2078" unicode="&#x2078;" 
d="M442 827q-309 0 -309 228q0 173 166 221v4q-82 45 -82 154q0 120 90 184.5t250 64.5q295 0 295 -221q0 -148 -143 -196v-4q94 -48 94 -172q0 -129 -94.5 -196t-266.5 -67zM518 1343q41 0 63.5 27.5t22.5 69.5q0 59 -59 59q-42 0 -65 -24t-23 -68q0 -64 61 -64zM453 1012
q104 0 104 94q0 65 -72 65q-49 0 -74.5 -27t-25.5 -73q0 -32 16 -45.5t52 -13.5z" />
    <glyph glyph-name="uni2079" unicode="&#x2079;" 
d="M438 827q-146 0 -219.5 55t-73.5 152q0 13 5 53h235v-12q0 -27 14 -39t45 -12q44 0 68 22.5t31 73.5l8 51q-56 -34 -139 -34q-109 0 -162 55.5t-53 169.5q0 152 91 236.5t263 84.5q146 0 221.5 -60t75.5 -165q0 -26 -6 -61l-54 -301q-25 -137 -111 -203t-239 -66z
M492 1311q59 0 94 53l6 35q2 12 2 22q0 66 -59 66q-49 0 -71 -36t-22 -85q0 -30 10.5 -42.5t39.5 -12.5z" />
    <glyph glyph-name="uni2080" unicode="&#x2080;" 
d="M252 -270q-143 0 -219 59.5t-76 167.5q0 25 6 59l55 314q46 256 347 256q143 0 218.5 -60t75.5 -168q0 -24 -6 -59l-55 -313q-23 -130 -109 -193t-237 -63zM268 -74q36 0 56 20.5t28 63.5l51 291q3 18 3 31q0 57 -58 57q-36 0 -56 -20.5t-28 -63.5l-51 -291
q-2 -12 -2 -30q0 -58 57 -58z" />
    <glyph glyph-name="uni2081" unicode="&#x2081;" 
d="M-31 -246l33 193h191l59 334h-215l31 176q94 0 150.5 23.5t96.5 80.5h236l-109 -614h187l-33 -193h-627z" />
    <glyph glyph-name="uni2082" unicode="&#x2082;" 
d="M-90 -246l20 117q20 118 93.5 195.5t212.5 130.5q89 34 126 65.5t37 73.5q0 53 -59 53q-71 0 -86 -86l-4 -22h-234l9 47q24 135 108 196.5t225 61.5t216 -58t75 -174q0 -235 -332 -348q-91 -32 -112 -53h377l-35 -199h-637z" />
    <glyph glyph-name="uni2083" unicode="&#x2083;" 
d="M252 -270q-146 0 -222.5 53t-76.5 145q0 25 4 49l6 35h240l-2 -12q-2 -12 -2 -20q0 -58 63 -58q47 0 70.5 24.5t23.5 63.5q0 31 -18.5 46.5t-69.5 15.5h-73l30 170h64q55 0 82.5 26.5t27.5 69.5q0 29 -13 42t-42 13q-66 0 -78 -71l-2 -13h-237l6 35q22 124 100 183
t229 59q147 0 217 -54t70 -163q0 -154 -139 -201v-4q92 -42 92 -166q0 -128 -92.5 -198t-257.5 -70z" />
    <glyph glyph-name="uni2084" unicode="&#x2084;" 
d="M260 -246l29 160h-357l37 199l420 448h262l-82 -465h74l-33 -182h-71l-29 -160h-250zM176 96h143l35 199z" />
    <glyph glyph-name="uni2085" unicode="&#x2085;" 
d="M248 -270q-144 0 -216.5 56t-72.5 151q0 19 4 51h240v-8q0 -54 65 -54q49 0 71.5 31t22.5 76q0 35 -14.5 51t-48.5 16q-51 0 -82 -28h-215l117 489h543l-35 -196h-351l-28 -117q59 33 139 33q114 0 168.5 -57t54.5 -171q0 -152 -92 -237.5t-270 -85.5z" />
    <glyph glyph-name="uni2086" unicode="&#x2086;" 
d="M258 -270q-146 0 -221.5 60t-75.5 165q0 27 6 61l53 301q25 137 111.5 203t239.5 66q146 0 219.5 -55t73.5 -152q0 -13 -5 -53h-235v12q0 27 -14 39t-45 12q-44 0 -68 -22.5t-31 -73.5l-8 -51q56 34 139 34q109 0 162 -55.5t53 -169.5q0 -152 -91 -236.5t-263 -84.5z
M274 -74q49 0 71 36t22 85q0 30 -10.5 42.5t-39.5 12.5q-59 0 -94 -53l-6 -35q-2 -12 -2 -22q0 -66 59 -66z" />
    <glyph glyph-name="uni2087" unicode="&#x2087;" 
d="M2 -246q84 396 391 604h-373l35 203h643l-36 -211q-170 -134 -261.5 -272t-132.5 -324h-266z" />
    <glyph glyph-name="uni2088" unicode="&#x2088;" 
d="M250 -270q-160 0 -234.5 57t-74.5 170q0 173 165 221v4q-81 44 -81 154q0 120 90 185t250 65q294 0 294 -221q0 -149 -143 -197v-4q94 -48 94 -172q0 -129 -93.5 -195.5t-266.5 -66.5zM326 246q41 0 63.5 27t22.5 69q0 59 -60 59q-42 0 -65 -24t-23 -68q0 -63 62 -63z
M260 -86q54 0 79.5 25.5t25.5 68.5q0 66 -72 66q-49 0 -74.5 -27.5t-25.5 -73.5q0 -32 15.5 -45.5t51.5 -13.5z" />
    <glyph glyph-name="uni2089" unicode="&#x2089;" 
d="M246 -270q-146 0 -219.5 55t-73.5 152q0 21 4 53h236v-13q0 -27 14 -39t45 -12q44 0 67 23t31 74l8 51q-57 -35 -139 -35q-109 0 -162 55.5t-53 169.5q0 152 91 237t263 85q146 0 221.5 -60.5t75.5 -165.5q0 -26 -6 -61l-53 -301q-25 -137 -111 -202.5t-239 -65.5z
M299 213q59 0 94 53l6 35q2 12 2 23q0 65 -59 65q-49 0 -70.5 -36t-21.5 -85q0 -30 10.5 -42.5t38.5 -12.5z" />
    <glyph glyph-name="Euro" unicode="&#x20ac;" horiz-adv-x="1216" 
d="M584 -25q-223 0 -340 94t-117 275q0 52 12 123l2 12h-75l30 170h76l16 94h-75l28 170h76l8 41q81 463 568 463q438 0 438 -366q0 -55 -8 -107h-342q4 36 4 57q0 123 -121 123q-149 0 -178 -178l-6 -33h319l-61 -170h-289l-17 -94h273l-60 -170h-241l-6 -30q-6 -35 -6 -62
q0 -119 120 -119q74 0 118 44t63 137h342q-46 -251 -182.5 -362.5t-368.5 -111.5z" />
    <glyph glyph-name="uni20B9" unicode="&#x20b9;" horiz-adv-x="1216" 
d="M524 0l-432 465l37 207h203q210 0 278 155h-479l86 226h418q-12 62 -58 88t-139 26h-248l89 226h1034l-88 -226h-277q36 -51 47 -114h256l-86 -226h-174q-62 -296 -422 -364l437 -463h-482z" />
    <glyph glyph-name="uni2113" unicode="&#x2113;" horiz-adv-x="997" 
d="M467 -25q-194 0 -293.5 89.5t-99.5 257.5q0 54 12 124l115 648q38 217 158 321.5t323 104.5q356 0 356 -322q0 -409 -577 -739l-6 -31q-6 -37 -6 -55q0 -55 28 -80t86 -25q55 0 108.5 23t121.5 71l96 -245q-191 -142 -422 -142zM522 811q209 168 209 354q0 43 -12.5 61.5
t-42.5 18.5q-45 0 -68 -39.5t-41 -138.5z" />
    <glyph glyph-name="uni2116" unicode="&#x2116;" horiz-adv-x="2187" 
d="M39 0l246 1393h364l264 -789l140 789h342l-246 -1393h-342l-279 831l-147 -831h-342zM1724 336q-329 0 -329 260q0 43 8 84l22 127q30 172 124.5 247.5t267.5 75.5q329 0 329 -260q0 -43 -8 -84l-22 -127q-30 -172 -124.5 -247.5t-267.5 -75.5zM1739 545q44 0 68 27
t36 94l25 139q4 18 4 49q0 36 -16 52t-54 16q-44 0 -68 -27t-36 -94l-25 -139q-4 -18 -4 -50q0 -36 16 -51.5t54 -15.5zM1286 0l39 215h709l-39 -215h-709z" />
    <glyph glyph-name="uni2117" unicode="&#x2117;" horiz-adv-x="1548" 
d="M801 -25q-204 0 -369 93.5t-258.5 258.5t-93.5 369t93.5 369t258.5 258.5t369 93.5t369 -93.5t258.5 -258.5t93.5 -369t-93.5 -369t-258.5 -258.5t-369 -93.5zM801 162q230 0 370 147t140 387t-140 387.5t-370 147.5t-370 -147.5t-140 -387.5t140 -387t370 -147zM535 334
v725h323q157 0 228 -60t71 -192q0 -131 -71 -190.5t-228 -59.5h-104v-223h-219zM754 729h84q53 0 76.5 19t23.5 59q0 42 -23.5 61t-76.5 19h-84v-158z" />
    <glyph glyph-name="uni2120" unicode="&#x2120;" horiz-adv-x="1452" 
d="M324 698q-238 0 -238 176q0 22 4 50h184q-2 -10 -2 -29q0 -55 60 -55q40 0 62 18.5t22 48.5q0 27 -20 42t-81 34q-94 29 -132 70.5t-38 113.5q0 113 68.5 177.5t200.5 64.5q111 0 170 -45.5t59 -128.5q0 -17 -4 -45h-184q2 10 2 27q0 51 -51 51q-34 0 -54 -20t-20 -50
q0 -26 19.5 -40.5t78.5 -33.5q96 -31 135 -74t39 -118q0 -234 -280 -234zM678 715l119 678h262l43 -371l172 371h278l-118 -678h-189l78 446l-213 -446h-121l-57 465l-82 -465h-172z" />
    <glyph glyph-name="trademark" unicode="&#x2122;" horiz-adv-x="1421" 
d="M203 715l92 524h-172l29 154h528l-29 -154h-168l-92 -524h-188zM647 715l119 678h262l43 -371l172 371h279l-119 -678h-189l78 446l-213 -446h-121l-57 465l-82 -465h-172z" />
    <glyph glyph-name="uni2126" unicode="&#x2126;" horiz-adv-x="1335" 
d="M6 0l53 303h158q-111 88 -111 272q0 57 13 130l26 151q52 297 208 429t450 132q264 0 387 -101.5t123 -309.5q0 -78 -17 -175l-26 -151q-49 -267 -207 -377h131l-53 -303h-496l49 276q74 32 115 98t63 187l50 279q12 71 12 106q0 86 -39.5 124t-126.5 38
q-107 0 -164.5 -61t-83.5 -207l-49 -279q-12 -70 -12 -115q0 -125 92 -170l-49 -276h-496z" />
    <glyph glyph-name="estimated" unicode="&#x212e;" horiz-adv-x="1619" 
d="M852 -25q-155 0 -295.5 57t-242.5 153.5t-162 230t-60 280.5q0 195 101.5 361t277 263t381.5 97t381.5 -97t277 -263t101.5 -361v-18h-1231q-10 0 -10 -10v-392q0 -21 18 -43q87 -102 208.5 -158.5t258.5 -56.5q142 0 270.5 64.5t219.5 175.5h110
q-106 -132 -264.5 -207.5t-339.5 -75.5zM381 719h944q12 0 12 12v395q0 25 -20 45q-92 96 -211.5 149.5t-249.5 53.5q-136 0 -256 -55.5t-211 -155.5q-18 -22 -18 -45v-389q0 -10 10 -10z" />
    <glyph glyph-name="uni2153" unicode="&#x2153;" horiz-adv-x="1740" 
d="M1284 1417h242l-1012 -1442h-242l428 611h-583l33 192h190l59 334h-215l31 176q94 0 151 24t97 81h235l-108 -615h186l-18 -112zM1544 410q92 -42 92 -166q0 -128 -92.5 -198.5t-257.5 -70.5q-146 0 -222.5 53.5t-76.5 145.5q0 25 4 49l6 35h240l-2 -12q-2 -12 -2 -21
q0 -57 63 -57q47 0 71 24.5t24 63.5q0 30 -18.5 45.5t-69.5 15.5h-74l31 170h63q55 0 83 27t28 70q0 29 -13.5 42t-42.5 13q-66 0 -78 -72l-2 -12h-237l6 35q22 123 100.5 182t229.5 59q147 0 216.5 -54t69.5 -163q0 -153 -139 -200v-4z" />
    <glyph glyph-name="uni2154" unicode="&#x2154;" horiz-adv-x="1740" 
d="M57 586l21 116q20 118 93 195.5t212 130.5q89 34 126.5 66t37.5 73q0 54 -60 54q-71 0 -86 -86l-4 -23h-233l8 47q24 135 108 196.5t226 61.5q141 0 216 -58t75 -173q0 -235 -332 -348q-91 -32 -113 -54h377l-35 -198h-637zM272 -25l1012 1442h242l-1012 -1442h-242z
M1286 -25q-146 0 -222.5 53.5t-76.5 145.5q0 25 4 49l6 35h240l-2 -12q-2 -12 -2 -21q0 -57 63 -57q47 0 71 24.5t24 63.5q0 30 -18.5 45.5t-69.5 15.5h-74l31 170h63q55 0 83 27t28 70q0 29 -13.5 42t-42.5 13q-66 0 -78 -72l-2 -12h-237l6 35q22 123 100.5 182t229.5 59
q147 0 216.5 -54t69.5 -163q0 -153 -139 -200v-4q92 -42 92 -166q0 -128 -92.5 -198.5t-257.5 -70.5z" />
    <glyph glyph-name="uni2155" unicode="&#x2155;" horiz-adv-x="1740" 
d="M1284 1417h242l-1012 -1442h-242l428 611h-583l33 192h190l59 334h-215l31 176q94 0 151 24t97 81h235l-108 -615h186l-18 -112zM1661 610h-350l-29 -116q57 32 139 32q224 0 224 -227q0 -152 -92.5 -238t-270.5 -86q-144 0 -216.5 56t-72.5 151q0 19 4 51h240v-8
q0 -53 66 -53q49 0 71.5 31t22.5 76q0 35 -15 51t-49 16q-49 0 -82 -29h-215l117 490h543z" />
    <glyph glyph-name="uni2156" unicode="&#x2156;" horiz-adv-x="1740" 
d="M57 586l21 116q20 118 93 195.5t212 130.5q89 34 126.5 66t37.5 73q0 54 -60 54q-71 0 -86 -86l-4 -23h-233l8 47q24 135 108 196.5t226 61.5q141 0 216 -58t75 -173q0 -235 -332 -348q-91 -32 -113 -54h377l-35 -198h-637zM272 -25l1012 1442h242l-1012 -1442h-242z
M1282 -25q-144 0 -216.5 56t-72.5 151q0 19 4 51h240v-8q0 -53 66 -53q49 0 71.5 31t22.5 76q0 35 -15 51t-49 16q-49 0 -82 -29h-215l117 490h543l-35 -197h-350l-29 -116q57 32 139 32q224 0 224 -227q0 -152 -92.5 -238t-270.5 -86z" />
    <glyph glyph-name="uni2157" unicode="&#x2157;" horiz-adv-x="1740" 
d="M397 561q-146 0 -222.5 53.5t-76.5 145.5q0 25 4 49l7 35h239l-2 -13q-2 -12 -2 -20q0 -57 64 -57q47 0 70.5 24.5t23.5 63.5q0 30 -18.5 45.5t-69.5 15.5h-74l31 170h63q55 0 83 26.5t28 69.5q0 56 -56 56q-65 0 -77 -72l-2 -12h-238l6 35q22 123 100.5 182t229.5 59
q147 0 217 -54t70 -163q0 -154 -140 -201v-4q93 -43 93 -166q0 -128 -93 -198t-258 -70zM272 -25l1012 1442h242l-1012 -1442h-242zM1282 -25q-144 0 -216.5 56t-72.5 151q0 19 4 51h240v-8q0 -53 66 -53q49 0 71.5 31t22.5 76q0 35 -15 51t-49 16q-49 0 -82 -29h-215
l117 490h543l-35 -197h-350l-29 -116q57 32 139 32q224 0 224 -227q0 -152 -92.5 -238t-270.5 -86z" />
    <glyph glyph-name="uni2158" unicode="&#x2158;" horiz-adv-x="1740" 
d="M272 -25l1012 1442h242l-1012 -1442h-242zM408 586l28 159h-356l37 199l420 449h262l-82 -465h74l-33 -183h-72l-29 -159h-249zM324 928h143l35 198zM1282 -25q-144 0 -216.5 56t-72.5 151q0 19 4 51h240v-8q0 -53 66 -53q49 0 71.5 31t22.5 76q0 35 -15 51t-49 16
q-49 0 -82 -29h-215l117 490h543l-35 -197h-350l-29 -116q57 32 139 32q224 0 224 -227q0 -152 -92.5 -238t-270.5 -86z" />
    <glyph glyph-name="uni2159" unicode="&#x2159;" horiz-adv-x="1740" 
d="M1284 1417h242l-1012 -1442h-242l428 611h-583l33 192h190l59 334h-215l31 176q94 0 151 24t97 81h235l-108 -615h186l-18 -112zM1694 571h-236v13q0 27 -14 39t-45 12q-44 0 -68 -22.5t-31 -73.5l-8 -52q57 35 140 35q109 0 162 -55.5t53 -169.5q0 -152 -91.5 -237
t-263.5 -85q-146 0 -221.5 60.5t-75.5 165.5q0 26 6 61l54 301q25 137 111 202.5t239 65.5q147 0 220 -54.5t73 -151.5q0 -22 -4 -54zM1352 348q-60 0 -95 -53l-6 -35q-2 -12 -2 -22q0 -66 60 -66q49 0 70.5 36t21.5 85q0 30 -10.5 42.5t-38.5 12.5z" />
    <glyph glyph-name="uni215A" unicode="&#x215a;" horiz-adv-x="1740" 
d="M272 -25l1012 1442h242l-1012 -1442h-242zM393 561q-144 0 -216.5 56t-72.5 151q0 11 5 51h239v-8q0 -53 66 -53q49 0 71.5 30.5t22.5 75.5q0 35 -15 51.5t-49 16.5q-49 0 -82 -29h-215l117 490h543l-35 -197h-350l-29 -117q59 33 139 33q224 0 224 -227
q0 -152 -92.5 -238t-270.5 -86zM1292 -25q-146 0 -221.5 60.5t-75.5 165.5q0 26 6 61l54 301q25 137 111 202.5t239 65.5q147 0 220 -54.5t73 -151.5q0 -22 -4 -54h-236v13q0 27 -14 39t-45 12q-44 0 -68 -22.5t-31 -73.5l-8 -52q57 35 140 35q109 0 162 -55.5t53 -169.5
q0 -152 -91.5 -237t-263.5 -85zM1309 172q49 0 70.5 36t21.5 85q0 30 -10.5 42.5t-38.5 12.5q-60 0 -95 -53l-6 -35q-2 -12 -2 -22q0 -66 60 -66z" />
    <glyph glyph-name="oneeighth" unicode="&#x215b;" horiz-adv-x="1740" 
d="M1284 1417h242l-1012 -1442h-242l428 611h-583l33 192h190l59 334h-215l31 176q94 0 151 24t97 81h235l-108 -615h186l-18 -112zM1550 410q95 -48 95 -172q0 -129 -94.5 -196t-266.5 -67q-309 0 -309 228q0 173 166 221v4q-82 45 -82 154q0 120 90 184.5t250 64.5
q295 0 295 -221q0 -147 -144 -196v-4zM1360 492q41 0 63.5 27t22.5 69q0 59 -60 59q-42 0 -65 -24t-23 -68q0 -63 62 -63zM1294 160q54 0 79.5 25.5t25.5 68.5q0 65 -72 65q-49 0 -74.5 -27t-25.5 -73q0 -32 15.5 -45.5t51.5 -13.5z" />
    <glyph glyph-name="threeeighths" unicode="&#x215c;" horiz-adv-x="1740" 
d="M397 561q-146 0 -222.5 53.5t-76.5 145.5q0 25 4 49l7 35h239l-2 -13q-2 -12 -2 -20q0 -57 64 -57q47 0 70.5 24.5t23.5 63.5q0 30 -18.5 45.5t-69.5 15.5h-74l31 170h63q55 0 83 26.5t28 69.5q0 56 -56 56q-65 0 -77 -72l-2 -12h-238l6 35q22 123 100.5 182t229.5 59
q147 0 217 -54t70 -163q0 -154 -140 -201v-4q93 -43 93 -166q0 -128 -93 -198t-258 -70zM272 -25l1012 1442h242l-1012 -1442h-242zM1284 -25q-309 0 -309 228q0 173 166 221v4q-82 45 -82 154q0 120 90 184.5t250 64.5q295 0 295 -221q0 -147 -144 -196v-4q95 -48 95 -172
q0 -129 -94.5 -196t-266.5 -67zM1360 492q41 0 63.5 27t22.5 69q0 59 -60 59q-42 0 -65 -24t-23 -68q0 -63 62 -63zM1294 160q54 0 79.5 25.5t25.5 68.5q0 65 -72 65q-49 0 -74.5 -27t-25.5 -73q0 -32 15.5 -45.5t51.5 -13.5z" />
    <glyph glyph-name="fiveeighths" unicode="&#x215d;" horiz-adv-x="1740" 
d="M272 -25l1012 1442h242l-1012 -1442h-242zM393 561q-144 0 -216.5 56t-72.5 151q0 11 5 51h239v-8q0 -53 66 -53q49 0 71.5 30.5t22.5 75.5q0 35 -15 51.5t-49 16.5q-49 0 -82 -29h-215l117 490h543l-35 -197h-350l-29 -117q59 33 139 33q224 0 224 -227
q0 -152 -92.5 -238t-270.5 -86zM1284 -25q-309 0 -309 228q0 173 166 221v4q-82 45 -82 154q0 120 90 184.5t250 64.5q295 0 295 -221q0 -147 -144 -196v-4q95 -48 95 -172q0 -129 -94.5 -196t-266.5 -67zM1360 492q41 0 63.5 27t22.5 69q0 59 -60 59q-42 0 -65 -24t-23 -68
q0 -63 62 -63zM1294 160q54 0 79.5 25.5t25.5 68.5q0 65 -72 65q-49 0 -74.5 -27t-25.5 -73q0 -32 15.5 -45.5t51.5 -13.5z" />
    <glyph glyph-name="seveneighths" unicode="&#x215e;" horiz-adv-x="1740" 
d="M217 -25l1012 1442h241l-1011 -1442h-242zM150 586q84 396 391 604h-373l35 203h643l-37 -211q-170 -134 -261 -271.5t-132 -324.5h-266zM1284 -25q-309 0 -309 228q0 173 166 221v4q-82 45 -82 154q0 120 90 184.5t250 64.5q295 0 295 -221q0 -147 -144 -196v-4
q95 -48 95 -172q0 -129 -94.5 -196t-266.5 -67zM1360 492q41 0 63.5 27t22.5 69q0 59 -60 59q-42 0 -65 -24t-23 -68q0 -63 62 -63zM1294 160q54 0 79.5 25.5t25.5 68.5q0 65 -72 65q-49 0 -74.5 -27t-25.5 -73q0 -32 15.5 -45.5t51.5 -13.5z" />
    <glyph glyph-name="arrowleft" unicode="&#x2190;" horiz-adv-x="1638" 
d="M801 33l-664 663l664 664l188 -189l-334 -327h899v-295h-899l334 -328z" />
    <glyph glyph-name="arrowup" unicode="&#x2191;" horiz-adv-x="1638" 
d="M694 0v891l-340 -346l-188 188l684 684l684 -684l-188 -188l-340 346v-891h-312z" />
    <glyph glyph-name="arrowright" unicode="&#x2192;" horiz-adv-x="1638" 
d="M891 33l-189 188l334 328h-899v295h899l-334 327l189 189l663 -664z" />
    <glyph glyph-name="arrowdown" unicode="&#x2193;" horiz-adv-x="1638" 
d="M844 -25l-684 684l188 189l340 -346v891h311v-891l340 346l189 -189z" />
    <glyph glyph-name="arrowboth" unicode="&#x2194;" horiz-adv-x="2048" 
d="M760 74l-623 622l623 623l188 -189l-293 -286h791l-293 286l188 189l623 -623l-623 -622l-188 188l293 287h-791l293 -287z" />
    <glyph glyph-name="arrowupdn" unicode="&#x2195;" horiz-adv-x="1638" 
d="M846 -172l-608 608l188 189l264 -271v684l-264 -270l-188 188l608 609l608 -609l-188 -188l-265 270v-684l265 271l188 -189z" />
    <glyph glyph-name="uni2196" unicode="&#x2196;" horiz-adv-x="1638" 
d="M1241 82l-680 680l4 -467h-272v950h950v-256l-483 4l696 -696z" />
    <glyph glyph-name="uni2197" unicode="&#x2197;" horiz-adv-x="1638" 
d="M442 82l-215 215l697 696l-484 -4v256h951v-950h-273l4 467z" />
    <glyph glyph-name="uni2198" unicode="&#x2198;" horiz-adv-x="1638" 
d="M451 147v256l483 -4l-696 697l215 215l680 -680l-5 467h273v-951h-950z" />
    <glyph glyph-name="uni2199" unicode="&#x2199;" horiz-adv-x="1638" 
d="M303 147v951h272l-4 -467l680 680l215 -215l-696 -697l483 4v-256h-950z" />
    <glyph glyph-name="partialdiff" unicode="&#x2202;" horiz-adv-x="1232" 
d="M440 -25q-195 0 -299 102.5t-104 289.5q0 158 69.5 297t199.5 226t292 87q161 0 236 -98q6 59 6 110q0 129 -48 189.5t-176 60.5q-132 0 -260 -76l52 291q116 66 311 66q138 0 233 -30.5t152.5 -95t82.5 -156.5t25 -224q0 -152 -31 -300t-95 -281.5t-154 -235.5
t-217 -162t-275 -60zM502 256q89 0 158 89.5t114 234.5q-24 116 -131 116q-71 0 -127 -52t-83 -123t-27 -142q0 -123 96 -123z" />
    <glyph glyph-name="emptyset" unicode="&#x2205;" horiz-adv-x="1632" 
d="M319 -25l-198 197l119 119q-119 177 -119 405q0 152 55.5 286t151 229.5t229.5 150.5t285 55q225 0 407 -117l117 117l199 -198l-117 -117q117 -182 117 -406q0 -152 -55.5 -286t-151 -229.5t-230 -150.5t-286.5 -55q-224 0 -406 117zM449 500l598 598q-89 47 -205 47
q-189 0 -310.5 -126.5t-121.5 -322.5q0 -107 39 -196zM842 248q190 0 312 125.5t122 322.5q0 105 -39 197l-598 -598q89 -47 203 -47z" />
    <glyph glyph-name="uni2206" unicode="&#x2206;" horiz-adv-x="1259" 
d="M-94 0l674 1393h403l182 -1393h-1259zM418 303h338l-49 678z" />
    <glyph glyph-name="product" unicode="&#x220f;" horiz-adv-x="1560" 
d="M-20 -375l346 1954h1278l-347 -1954h-331l293 1653h-613l-293 -1653h-333z" />
    <glyph glyph-name="summation" unicode="&#x2211;" horiz-adv-x="1323" 
d="M-113 -375l56 305l661 674l-426 670l55 305h1225l-53 -295h-823l448 -706l-649 -658h784l-53 -295h-1225z" />
    <glyph glyph-name="minus" unicode="&#x2212;" horiz-adv-x="1216" 
d="M94 494l49 278h1012l-49 -278h-1012z" />
    <glyph glyph-name="uni2215" unicode="&#x2215;" horiz-adv-x="884" 
d="M-145 -25l897 1442h335l-897 -1442h-335z" />
    <glyph glyph-name="uni2219" unicode="&#x2219;" horiz-adv-x="612" 
d="M100 444l68 379h381l-68 -379h-381z" />
    <glyph glyph-name="radical" unicode="&#x221a;" horiz-adv-x="1216" 
d="M274 -375l-63 637h-158l49 279h357l33 -461l651 1499h309l-866 -1954h-312z" />
    <glyph glyph-name="infinity" unicode="&#x221e;" horiz-adv-x="1826" 
d="M467 201q-175 0 -276 98.5t-101 284.5q0 222 140.5 372t369.5 150q142 0 229.5 -58.5t145.5 -160.5q106 116 207 167.5t219 51.5q176 0 276.5 -99t100.5 -282q0 -145 -61.5 -263.5t-179 -189.5t-269.5 -71q-142 0 -229.5 58.5t-145.5 160.5q-104 -115 -205.5 -167
t-220.5 -52zM1280 485q87 0 136.5 64.5t49.5 150.5q0 134 -139 134q-69 0 -126.5 -36.5t-125.5 -127.5q41 -91 86.5 -138t118.5 -47zM539 473q69 0 127 37t127 129q-41 89 -86.5 135.5t-118.5 46.5q-87 0 -138 -64.5t-51 -150.5q0 -133 140 -133z" />
    <glyph glyph-name="integral" unicode="&#x222b;" horiz-adv-x="688" 
d="M-6 -397q-70 0 -164 20l45 254q43 -16 82 -16q64 0 101.5 41t52.5 129l206 1173q38 213 135.5 308.5t264.5 95.5q23 0 47 -2t39.5 -4.5t41 -6.5t38.5 -6l-45 -256q-53 17 -82 17q-66 0 -103.5 -41t-52.5 -129l-207 -1174q-37 -208 -134 -305.5t-265 -97.5z" />
    <glyph glyph-name="approxequal" unicode="&#x2248;" horiz-adv-x="1216" 
d="M844 629q-77 0 -138.5 23.5t-127.5 80.5q-41 35 -67.5 48.5t-55.5 13.5q-46 0 -79 -36t-46 -102h-240q37 206 136.5 311t258.5 105q76 0 137.5 -23.5t127.5 -80.5q42 -36 67.5 -49t54.5 -13q46 0 79 35.5t46 101.5h240q-37 -206 -136 -310.5t-257 -104.5zM758 147
q-77 0 -138.5 24t-127.5 81q-41 35 -67.5 48t-55.5 13q-46 0 -79 -35.5t-46 -101.5h-240q37 206 136.5 311t258.5 105q75 0 137 -24t128 -81q41 -35 67 -48t55 -13q46 0 79 35.5t46 101.5h240q-37 -206 -136 -311t-257 -105z" />
    <glyph glyph-name="notequal" unicode="&#x2260;" horiz-adv-x="1216" 
d="M1221 1243l-166 -235h141l-49 -279h-289l-137 -192h393l-49 -279h-541l-168 -238h-327l168 238h-144l49 279h291l137 192h-395l49 279h543l166 235h328z" />
    <glyph glyph-name="lessequal" unicode="&#x2264;" horiz-adv-x="1216" 
d="M1075 326l-954 317l47 264l1067 318l-55 -312l-574 -149l520 -152zM8 0l49 279h1012l-49 -279h-1012z" />
    <glyph glyph-name="greaterequal" unicode="&#x2265;" horiz-adv-x="1216" 
d="M66 326l55 311l573 149l-522 152l51 287l957 -318l-47 -264zM8 0l49 279h1012l-49 -279h-1012z" />
    <glyph glyph-name="lozenge" unicode="&#x25ca;" horiz-adv-x="1216" 
d="M508 -66l-434 762l690 762l436 -762zM569 412l281 311l-148 258l-280 -311z" />
    <glyph glyph-name="uniF8FF" unicode="&#xf8ff;" horiz-adv-x="1329" 
d="M565 102q-207 0 -334 125.5t-127 333.5q0 207 132 334t380 127h103v238h321v-238h271v-305h-271v-105q0 -237 -130 -373.5t-345 -136.5zM571 420q69 0 108.5 46.5t39.5 141.5v109h-101q-92 0 -137 -42t-45 -114q0 -66 35.5 -103.5t99.5 -37.5z" />
    <glyph glyph-name="Iacute_J.loclNLD" horiz-adv-x="1783" 
d="M260 1513l285 291h397l-358 -291h-324zM1421 1513l285 291h397l-358 -291h-324zM39 0l246 1393h377l-246 -1393h-377zM1098 -25q-232 0 -340.5 90.5t-108.5 276.5q0 57 15 143l6 35h358l-8 -47q-8 -47 -8 -78q0 -59 24.5 -84.5t81.5 -25.5q72 0 109.5 44.5t56.5 147.5
l162 916h377l-166 -940q-45 -252 -175.5 -365t-383.5 -113z" />
    <glyph glyph-name="iacute_j.loclNLD" horiz-adv-x="1171" 
d="M176 1204l285 291h397l-358 -291h-324zM762 1204l285 291h397l-359 -291h-323zM12 0l191 1075h370l-190 -1075h-371zM414 -373l47 275h45q43 0 62 18.5t28 67.5l192 1087h371l-201 -1132q-31 -173 -108 -244.5t-234 -71.5h-202z" />
    <glyph glyph-name="i.loclTRK" horiz-adv-x="585" 
d="M219 1204l51 291h379l-51 -291h-379zM12 0l191 1075h370l-190 -1075h-371z" />
    <glyph glyph-name="germandbls.calt" horiz-adv-x="1347" 
d="M20 0l166 940q43 239 178 346t394 107h594l-45 -260l-281 -338q138 -27 198 -106t60 -224q0 -236 -147.5 -350.5t-448.5 -114.5h-201l52 291h163q203 0 203 151q0 59 -34 82t-121 23h-148l41 231l236 324h-125q-86 0 -131 -40.5t-62 -133.5l-164 -928h-377z" />
    <glyph glyph-name="zero.pf" horiz-adv-x="1265" 
d="M557 -25q-227 0 -347 94.5t-120 276.5q0 55 10 113l88 499q81 459 576 459q227 0 347 -94t120 -276q0 -55 -10 -113l-88 -500q-81 -459 -576 -459zM588 268q75 0 117.5 44.5t60.5 148.5l84 475q6 34 6 68q0 62 -29 91t-94 29q-75 0 -117.5 -44t-60.5 -148l-84 -475
q-6 -34 -6 -68q0 -62 29 -91.5t94 -29.5z" />
    <glyph glyph-name="one.pf" horiz-adv-x="966" 
d="M340 0l168 950h-369l45 262q142 1 244 46.5t178 134.5h350l-245 -1393h-371z" />
    <glyph glyph-name="two.pf" horiz-adv-x="1169" 
d="M-41 0l31 174q37 204 152 329t362 228q162 67 233.5 133t71.5 148q0 112 -127 112q-77 0 -122 -44.5t-62 -139.5l-9 -47h-348l15 82q39 222 176.5 332t384.5 110q459 0 459 -375q0 -195 -128 -336.5t-409 -256.5q-123 -51 -177.5 -84t-74.5 -70h662l-52 -295h-1038z" />
    <glyph glyph-name="three.pf" horiz-adv-x="1206" 
d="M516 -25q-232 0 -350.5 85t-118.5 245q0 43 8 90l13 70h356l-6 -35q-4 -24 -4 -47q0 -115 137 -115q90 0 138 48.5t48 121.5q0 63 -39.5 93t-128.5 30h-123l50 275h110q98 0 150.5 46t52.5 134q0 57 -25.5 82.5t-83.5 25.5q-146 0 -172 -151l-6 -35h-352l12 70
q37 207 174.5 308t382.5 101q227 0 337 -86.5t110 -263.5q0 -258 -236 -348v-4q83 -36 119.5 -103t36.5 -170q0 -224 -154.5 -345.5t-435.5 -121.5z" />
    <glyph glyph-name="four.pf" horiz-adv-x="1230" 
d="M582 0l47 274h-613l54 299l739 820h389l-149 -844h131l-50 -275h-129l-49 -274h-370zM406 549h272l70 395z" />
    <glyph glyph-name="five.pf" horiz-adv-x="1175" 
d="M500 -25q-228 0 -343.5 88.5t-115.5 251.5q0 47 8 91h352v-23q0 -57 35.5 -86t98.5 -29q101 0 154.5 66.5t53.5 161.5q0 71 -33.5 104t-103.5 33q-107 0 -170 -60h-319l198 820h889l-53 -295h-586l-57 -238q99 58 242 58q188 0 275 -93.5t87 -283.5q0 -265 -156.5 -415.5
t-455.5 -150.5z" />
    <glyph glyph-name="six.pf" horiz-adv-x="1257" 
d="M565 -25q-233 0 -352 93.5t-119 273.5q0 59 10 115l86 487q43 240 190 356.5t402 116.5q225 0 340 -87t115 -251q0 -48 -8 -92h-350v25q0 58 -30 85t-95 27q-81 0 -129.5 -46.5t-67.5 -159.5l-16 -97q108 80 258 80q170 0 261 -88t91 -254q0 -279 -151.5 -431.5
t-434.5 -152.5zM594 268q92 0 137 68t45 172q0 108 -104 108q-116 0 -189 -120l-6 -33q-6 -38 -6 -70q0 -65 30.5 -95t92.5 -30z" />
    <glyph glyph-name="seven.pf" horiz-adv-x="1110" 
d="M96 0q149 694 686 1087h-657l53 306h1045l-56 -316q-285 -237 -443 -490t-232 -587h-396z" />
    <glyph glyph-name="eight.pf" horiz-adv-x="1245" 
d="M532 -25q-483 0 -483 369q0 146 72.5 243t206.5 142v4q-135 70 -135 252q0 204 155.5 318t417.5 114q221 0 340 -87t119 -267q0 -255 -238 -342v-4q158 -74 158 -281q0 -221 -165 -341t-448 -120zM674 840q82 0 131 54.5t49 127.5q0 111 -123 111q-85 0 -132.5 -49.5
t-47.5 -122.5q0 -59 32 -90t91 -31zM569 260q100 0 153.5 48.5t53.5 127.5q0 129 -145 129q-100 0 -153.5 -54.5t-53.5 -131.5q0 -60 35 -89.5t110 -29.5z" />
    <glyph glyph-name="nine.pf" horiz-adv-x="1257" 
d="M532 -25q-225 0 -339.5 87t-114.5 251q0 49 8 93h350v-25q0 -58 30 -85.5t95 -27.5q81 0 129.5 46.5t67.5 160.5l16 96q-106 -79 -258 -79q-170 0 -261 88t-91 254q0 279 151.5 431t434.5 152q234 0 352.5 -93.5t118.5 -272.5q0 -53 -11 -115l-86 -487
q-43 -240 -190 -357t-402 -117zM643 776q114 0 188 121l7 33q6 37 6 69q0 65 -30.5 95t-92.5 30q-92 0 -137 -67.5t-45 -171.5q0 -109 104 -109z" />
    <glyph glyph-name="zero.numr" 
d="M397 561q-143 0 -219 59.5t-76 167.5q0 20 7 60l55 313q23 130 109 193t237 63q143 0 219 -59.5t76 -167.5q0 -26 -6 -60l-56 -313q-23 -130 -109 -193t-237 -63zM414 758q36 0 56 20.5t28 63.5l51 291q2 12 2 30q0 58 -57 58q-36 0 -56 -20.5t-28 -63.5l-52 -291
q-2 -12 -2 -31q0 -57 58 -57z" />
    <glyph glyph-name="one.numr" 
d="M117 586l33 192h190l59 334h-215l31 176q94 0 151 24t97 81h235l-108 -615h186l-33 -192h-626z" />
    <glyph glyph-name="two.numr" 
d="M57 586l21 116q20 118 93 195.5t212 130.5q89 34 126.5 66t37.5 73q0 54 -60 54q-71 0 -86 -86l-4 -23h-233l8 47q24 135 108 196.5t226 61.5q141 0 216 -58t75 -173q0 -235 -332 -348q-91 -32 -113 -54h377l-35 -198h-637z" />
    <glyph glyph-name="three.numr" 
d="M397 561q-146 0 -222.5 53.5t-76.5 145.5q0 25 4 49l7 35h239l-2 -13q-2 -12 -2 -20q0 -57 64 -57q47 0 70.5 24.5t23.5 63.5q0 30 -18.5 45.5t-69.5 15.5h-74l31 170h63q55 0 83 26.5t28 69.5q0 56 -56 56q-65 0 -77 -72l-2 -12h-238l6 35q22 123 100.5 182t229.5 59
q147 0 217 -54t70 -163q0 -154 -140 -201v-4q93 -43 93 -166q0 -128 -93 -198t-258 -70z" />
    <glyph glyph-name="four.numr" 
d="M408 586l28 159h-356l37 199l420 449h262l-82 -465h74l-33 -183h-72l-29 -159h-249zM324 928h143l35 198z" />
    <glyph glyph-name="five.numr" 
d="M393 561q-144 0 -216.5 56t-72.5 151q0 11 5 51h239v-8q0 -53 66 -53q49 0 71.5 30.5t22.5 75.5q0 35 -15 51.5t-49 16.5q-49 0 -82 -29h-215l117 490h543l-35 -197h-350l-29 -117q59 33 139 33q224 0 224 -227q0 -152 -92.5 -238t-270.5 -86z" />
    <glyph glyph-name="six.numr" 
d="M403 561q-146 0 -221.5 60t-75.5 165q0 22 7 62l53 301q25 137 111 202.5t239 65.5q146 0 219.5 -55t73.5 -152q0 -21 -4 -53h-236v12q0 28 -14 40t-45 12q-44 0 -67 -23t-31 -74l-9 -51q57 35 140 35q109 0 162 -55.5t53 -169.5q0 -152 -91.5 -237t-263.5 -85zM420 758
q49 0 70.5 36t21.5 85q0 30 -10.5 42.5t-38.5 12.5q-59 0 -94 -53l-7 -35q-2 -12 -2 -23q0 -65 60 -65z" />
    <glyph glyph-name="seven.numr" 
d="M150 586q84 396 391 604h-373l35 203h643l-37 -211q-170 -134 -261 -271.5t-132 -324.5h-266z" />
    <glyph glyph-name="eight.numr" 
d="M397 561q-160 0 -234.5 57t-74.5 170q0 174 166 222v4q-82 45 -82 153q0 120 90 185t250 65q295 0 295 -221q0 -149 -143 -197v-4q94 -48 94 -172q0 -129 -94 -195.5t-267 -66.5zM473 1077q41 0 63.5 27.5t22.5 69.5q0 59 -59 59q-42 0 -65 -24t-23 -68q0 -64 61 -64z
M408 745q54 0 79 26t25 69q0 65 -72 65q-49 0 -74.5 -27t-25.5 -73q0 -32 16 -46t52 -14z" />
    <glyph glyph-name="nine.numr" 
d="M391 561q-146 0 -219.5 55t-73.5 152q0 21 4 53h236v-12q0 -27 14 -39t45 -12q44 0 68 22.5t31 73.5l8 51q-57 -35 -139 -35q-215 0 -215 226q0 152 91 236.5t263 84.5q146 0 221.5 -60t75.5 -165q0 -28 -6 -62l-54 -301q-25 -137 -111 -202.5t-239 -65.5zM444 1044
q60 0 95 54l6 35q2 12 2 22q0 66 -60 66q-49 0 -70.5 -36t-21.5 -85q0 -30 10.5 -43t38.5 -13z" />
    <glyph glyph-name="zero.dnom" 
d="M295 -25q-143 0 -219 60t-76 168q0 24 6 59l55 313q46 256 347 256q143 0 218.5 -59.5t75.5 -167.5q0 -24 -6 -59l-55 -314q-23 -130 -109 -193t-237 -63zM311 172q36 0 56 20.5t28 63.5l51 291q3 18 3 31q0 57 -58 57q-36 0 -56 -20.5t-28 -63.5l-51 -291q-2 -12 -2 -31
q0 -57 57 -57z" />
    <glyph glyph-name="one.dnom" 
d="M12 0l33 193h191l59 333h-215l31 176q94 0 150.5 24t96.5 81h236l-109 -614h187l-33 -193h-627z" />
    <glyph glyph-name="two.dnom" 
d="M-47 0l20 117q20 118 93.5 195t212.5 130q88 33 125.5 65.5t37.5 74.5q0 53 -59 53q-71 0 -86 -86l-4 -23h-234l9 47q24 135 108 196.5t225 61.5t216 -58t75 -173q0 -235 -332 -348q-91 -32 -112 -53h377l-35 -199h-637z" />
    <glyph glyph-name="three.dnom" 
d="M295 -25q-146 0 -222.5 53.5t-76.5 145.5q0 25 4 49l6 35h240l-2 -12q-2 -12 -2 -21q0 -57 63 -57q47 0 70.5 24.5t23.5 63.5q0 30 -18.5 45.5t-69.5 15.5h-73l30 170h64q55 0 82.5 26.5t27.5 70.5q0 29 -13 42t-42 13q-66 0 -78 -72l-2 -12h-237l6 35q22 123 100.5 182
t229.5 59q147 0 216.5 -54t69.5 -163q0 -153 -139 -200v-4q92 -42 92 -166q0 -128 -92.5 -198.5t-257.5 -70.5z" />
    <glyph glyph-name="four.dnom" 
d="M303 0l29 160h-357l37 198l420 449h262l-82 -465h74l-33 -182h-71l-29 -160h-250zM219 342h143l35 199z" />
    <glyph glyph-name="five.dnom" 
d="M291 -25q-144 0 -216.5 56t-72.5 151q0 19 4 51h240v-8q0 -53 65 -53q49 0 72 31t23 76q0 35 -15 51t-49 16q-49 0 -82 -29h-215l117 490h543l-35 -197h-351l-28 -116q57 32 139 32q114 0 168.5 -56.5t54.5 -170.5q0 -153 -92 -238.5t-270 -85.5z" />
    <glyph glyph-name="six.dnom" 
d="M301 -25q-146 0 -221.5 60.5t-75.5 165.5q0 26 6 61l53 301q25 137 111.5 202.5t239.5 65.5q147 0 220 -54.5t73 -151.5q0 -14 -5 -54h-235v13q0 27 -14 39t-45 12q-44 0 -68 -22.5t-31 -73.5l-8 -52q57 35 139 35q109 0 162 -55.5t53 -169.5q0 -152 -91 -237t-263 -85z
M317 172q49 0 71 36t22 85q0 30 -10.5 42.5t-39.5 12.5q-59 0 -94 -53l-6 -35q-2 -12 -2 -22q0 -66 59 -66z" />
    <glyph glyph-name="seven.dnom" 
d="M45 0q84 396 391 604h-373l35 203h643l-36 -211q-170 -134 -261.5 -272t-132.5 -324h-266z" />
    <glyph glyph-name="eight.dnom" 
d="M293 -25q-309 0 -309 228q0 173 166 221v4q-82 45 -82 154q0 120 90 184.5t250 64.5q294 0 294 -221q0 -148 -143 -196v-4q94 -48 94 -172q0 -129 -94 -196t-266 -67zM369 492q41 0 63.5 27t22.5 69q0 59 -60 59q-42 0 -65 -24t-23 -68q0 -63 62 -63zM303 160
q54 0 79.5 25.5t25.5 68.5q0 65 -72 65q-49 0 -74.5 -27t-25.5 -73q0 -32 15.5 -45.5t51.5 -13.5z" />
    <glyph glyph-name="nine.dnom" 
d="M289 -25q-146 0 -219.5 55t-73.5 152q0 22 4 54h236v-13q0 -27 14 -39t45 -12q44 0 67.5 22.5t30.5 73.5l8 51q-56 -34 -139 -34q-109 0 -162 55.5t-53 169.5q0 152 91 236.5t263 84.5q146 0 221.5 -60t75.5 -165q0 -26 -6 -61l-53 -301q-25 -137 -111 -203t-239 -66z
M342 459q59 0 94 53l6 35q2 12 2 22q0 66 -59 66q-49 0 -70.5 -36t-21.5 -85q0 -30 10.5 -42.5t38.5 -12.5z" />
    <glyph glyph-name="exclamdown.case" horiz-adv-x="659" 
d="M236 1059l57 334h377l-58 -334h-376zM41 0l80 414l141 495h270l-38 -495l-64 -414h-389z" />
    <glyph glyph-name="questiondown.case" horiz-adv-x="991" 
d="M444 1059l58 334h375l-58 -334h-375zM430 -25q-206 0 -317 82t-111 234q0 143 61 237.5t205 173.5q84 46 122.5 87.5t47.5 97.5l4 22h326l-8 -47q-20 -116 -74 -190.5t-166 -141.5q-83 -49 -115 -91t-32 -101q0 -70 84 -70q62 0 97 39t48 123h346q-41 -236 -166 -345.5
t-352 -109.5z" />
    <glyph glyph-name="at.case" horiz-adv-x="1544" 
d="M805 -47q-339 0 -533 179t-194 495q0 169 57.5 317.5t161.5 258t257.5 172.5t336.5 63q197 0 349.5 -71t238.5 -207.5t86 -319.5q0 -100 -26.5 -188.5t-77.5 -157.5t-133.5 -109.5t-186.5 -40.5q-173 0 -226 107q-48 -57 -103 -82t-126 -25q-104 0 -158.5 50.5
t-54.5 144.5q0 42 8 92l25 139q24 136 88 198t174 62q140 0 203 -102l24 78h203l-65 -373q-5 -30 -5 -47q0 -47 46 -47q37 0 66 30t45 77t24 96.5t8 95.5q0 176 -115 278.5t-311 102.5q-129 0 -235 -46.5t-174 -126.5t-105 -185t-37 -224q0 -221 123.5 -343t343.5 -122
q215 0 367 111l77 -226q-192 -104 -446 -104zM778 539q54 0 92 59l33 178q-15 60 -72 60q-61 0 -75 -78l-25 -140q-2 -12 -2 -20q0 -31 11 -45t38 -14z" />
    <glyph glyph-name="parenleft.case" horiz-adv-x="698" 
d="M549 -197q-449 98 -449 678q0 154 31 303t95 284t153.5 242.5t214.5 181t270 97.5l-45 -250q-79 -41 -146 -121.5t-113.5 -179.5t-79.5 -213t-48.5 -223.5t-15.5 -208.5q0 -155 41.5 -245.5t128.5 -135.5z" />
    <glyph glyph-name="parenright.case" horiz-adv-x="698" 
d="M-111 -197l45 250q97 50 177 160.5t128 245.5t73.5 275t25.5 265q0 155 -41.5 245.5t-128.5 135.5l37 209q448 -98 448 -678q0 -154 -31 -303t-95 -284t-153.5 -242.5t-214.5 -181t-270 -97.5z" />
    <glyph glyph-name="braceleft.case" horiz-adv-x="698" 
d="M381 -172q-152 0 -224.5 64.5t-72.5 201.5q0 58 12 131l37 209q6 30 6 51q0 51 -26 70.5t-82 19.5l43 242q73 0 106 34t47 116l39 223q36 210 128.5 292.5t271.5 82.5h192l-41 -242h-90q-67 0 -94.5 -31.5t-44.5 -128.5l-35 -194q-23 -129 -76.5 -193.5t-152.5 -81.5v-4
q137 -35 137 -203q0 -44 -8 -88l-29 -163q-10 -58 -10 -91q0 -42 20 -58.5t72 -16.5h90l-43 -242h-172z" />
    <glyph glyph-name="braceright.case" horiz-adv-x="698" 
d="M-104 -172l41 242h90q67 0 94.5 31t44.5 128l35 195q23 129 76 193t153 81v4q-137 35 -137 203q0 44 8 88l29 164q10 58 10 90q0 42 -20 59t-72 17h-90l43 242h172q151 0 224 -65t73 -202q0 -51 -13 -131l-36 -209q-7 -35 -7 -51q0 -51 26 -70.5t83 -19.5l-43 -242
q-73 0 -106.5 -34t-47.5 -115l-39 -223q-36 -210 -128.5 -292.5t-270.5 -82.5h-192z" />
    <glyph glyph-name="bracketleft.case" horiz-adv-x="698" 
d="M6 -172l305 1737h547l-41 -242h-221l-219 -1253h219l-43 -242h-547z" />
    <glyph glyph-name="bracketright.case" horiz-adv-x="698" 
d="M-104 -172l41 242h221l219 1253h-219l43 242h547l-306 -1737h-546z" />
    <glyph glyph-name="bar.case" horiz-adv-x="593" 
d="M2 -328l360 2048h287l-360 -2048h-287z" />
    <glyph glyph-name="brokenbar.case" horiz-adv-x="593" 
d="M217 901l143 819h287l-143 -819h-287zM0 -328l143 820h287l-143 -820h-287z" />
    <glyph glyph-name="periodcentered.case" horiz-adv-x="612" 
d="M111 506l67 379h381l-67 -379h-381z" />
    <glyph glyph-name="bullet.case" horiz-adv-x="1024" 
d="M207 416l100 561h570l-101 -561h-569z" />
    <glyph glyph-name="hyphen.case" horiz-adv-x="798" 
d="M68 541l55 311h663l-55 -311h-663z" />
    <glyph glyph-name="uni00AD.case" horiz-adv-x="798" 
d="M68 541l55 311h663l-55 -311h-663z" />
    <glyph glyph-name="figuredash.case" horiz-adv-x="1216" 
d="M66 557l49 279h1093l-49 -279h-1093z" />
    <glyph glyph-name="endash.case" horiz-adv-x="1024" 
d="M66 557l49 279h901l-49 -279h-901z" />
    <glyph glyph-name="emdash.case" horiz-adv-x="1843" 
d="M66 557l49 279h1720l-49 -279h-1720z" />
    <glyph glyph-name="guillemotleft.case" horiz-adv-x="1161" 
d="M262 326l-209 383l324 358h358l-350 -389l190 -352h-313zM782 326l-209 383l324 358h358l-350 -389l191 -352h-314z" />
    <glyph glyph-name="guillemotright.case" horiz-adv-x="1161" 
d="M-37 326l350 389l-190 352h313l209 -383l-323 -358h-359zM483 326l351 389l-191 352h313l209 -383l-323 -358h-359z" />
    <glyph glyph-name="guilsinglleft.case" horiz-adv-x="641" 
d="M262 326l-209 383l324 358h358l-350 -389l190 -352h-313z" />
    <glyph glyph-name="guilsinglright.case" horiz-adv-x="641" 
d="M-37 326l350 389l-190 352h313l209 -383l-323 -358h-359z" />
    <glyph glyph-name="caron.alt" horiz-adv-x="419" 
d="M119 1026l153 469h334l-256 -469h-231z" />
    <glyph glyph-name="ringacute" horiz-adv-x="1024" 
d="M485 1710l285 291h397l-358 -291h-324zM647 1153q-111 0 -180.5 66.5t-69.5 173.5q0 114 81 189t204 75q111 0 180.5 -66.5t69.5 -173.5q0 -114 -81 -189t-204 -75zM655 1317q41 0 64.5 29t23.5 75q0 35 -18 53.5t-51 18.5q-41 0 -64.5 -29t-23.5 -75q0 -35 18 -53.5
t51 -18.5z" />
    <glyph glyph-name="NULL" horiz-adv-x="0" 
 />
    </font>
</defs>
</svg>
